<svg width="1440" height="852" viewBox="0 0 1440 852" fill="none" xmlns="http://www.w3.org/2000/svg">
<path d="M-224.472 -885.933C-224.472 -885.933 54.414 -1116.58 492.093 -970.245C929.773 -823.912 1053.54 -1136.68 1380.78 -1012.9C2009.14 -775.219 1441.5 690.414 1441.5 690.414C825.5 877 602.5 509.5 -83.0119 722.566L-224.472 -885.933Z" fill="#F0F7FF"/>
<path d="M170.396 677.813H168.792V631.594C168.792 630.714 168.073 630 167.187 630H157.562C156.677 630 155.958 630.714 155.958 631.594V677.812H149.541V650.719C149.541 649.839 148.823 649.125 147.937 649.125H138.312C137.427 649.125 136.708 649.839 136.708 650.719V677.812H130.291V644.344C130.291 643.464 129.573 642.75 128.687 642.75H119.062C118.177 642.75 117.458 643.464 117.458 644.344V677.812H111.041V660.281C111.041 659.401 110.322 658.687 109.437 658.687H99.8125C98.927 658.687 98.2083 659.401 98.2083 660.281V677.812H96.6042C95.7187 677.813 95 678.526 95 679.406C95 680.286 95.7187 681 96.6042 681H99.8125H109.438H119.062H128.688H138.312H147.938H157.562H167.188H170.396C171.281 681 172 680.286 172 679.406C172 678.526 171.281 677.813 170.396 677.813Z" fill="white"/>
<path d="M-4.17015 547.151C-2.88224 547.151 -1.63222 547.322 -0.441153 547.643C1.6934 544.437 5.25369 542.336 9.28699 542.336C10.5974 542.336 11.8552 542.561 13.0334 542.97C15.0192 533.829 22.8696 527 32.2575 527C43.1453 527 51.9715 536.181 51.9715 547.507C51.9715 547.741 51.9617 547.972 51.955 548.203C53.3406 547.751 54.8146 547.507 56.3434 547.507C64.4377 547.507 71 554.332 71 562.755C71 571.174 64.4375 578 56.3434 578H12.4596H4.31526H-4.17072C-12.3605 578 -19 571.094 -19 562.575C-18.9994 554.056 -12.36 547.151 -4.17015 547.151Z" fill="#E4F2F9"/>
<path fill-rule="evenodd" clip-rule="evenodd" d="M618.925 557.563C619.618 557.384 620.344 557.288 621.093 557.288C625.853 557.288 629.712 561.146 629.713 565.907C629.713 570.667 625.854 574.526 621.093 574.526H616.161H611.427H585.919C584.669 574.526 583.482 574.257 582.413 573.773C582.362 573.75 582.312 573.727 582.262 573.703C579.386 572.335 577.398 569.403 577.398 566.006C577.398 561.3 581.213 557.487 585.918 557.487C586.806 557.487 587.663 557.623 588.469 557.875C588.468 557.845 588.467 557.814 588.466 557.784C588.462 557.685 588.459 557.586 588.459 557.487C588.459 555.049 589.22 552.79 590.517 550.934C592.588 547.968 596.027 546.028 599.919 546.028C605.376 546.028 609.939 549.844 611.093 554.952C611.778 554.723 612.509 554.598 613.271 554.598C615.615 554.598 617.685 555.771 618.925 557.563Z" fill="white"/>
<path d="M535.525 605.307C535.918 605.307 536.299 605.359 536.663 605.456C537.314 604.485 538.4 603.849 539.631 603.849C540.03 603.849 540.414 603.917 540.774 604.041C541.379 601.272 543.775 599.204 546.639 599.204C549.961 599.204 552.653 601.985 552.653 605.415C552.653 605.486 552.65 605.556 552.648 605.625C553.071 605.489 553.521 605.415 553.987 605.415C556.457 605.415 558.459 607.482 558.459 610.032C558.459 612.582 556.457 614.65 553.987 614.65H540.599H538.114H535.525C533.026 614.65 531 612.558 531 609.978C531 607.398 533.026 605.307 535.525 605.307Z" fill="#E4F2F9"/>
<path d="M1385.75 525.636C1382.09 519.326 1376.13 514.723 1368.97 512.673C1361.82 510.624 1354.33 511.374 1347.88 514.784C1341.47 518.172 1336.85 523.78 1334.86 530.588C1334.86 530.596 1334.86 530.603 1334.85 530.611L1334.91 530.761L1349.8 568.305L1346.18 567.269L1345.17 570.785L1358.43 574.582L1359.44 571.067L1355.78 570.02L1388.29 546.054L1388.41 545.961C1388.42 545.951 1388.42 545.941 1388.42 545.93C1390.34 539.101 1389.39 531.901 1385.75 525.636ZM1349.82 558.194L1339.54 532.256C1340.51 531.956 1341.75 531.761 1343 532.076C1344.65 532.491 1346.08 533.743 1347.25 535.796L1349.82 558.194L1349.82 558.194ZM1353.7 558.731L1351.11 536.168C1352.11 535.732 1353.77 535.229 1355.45 535.645C1356.96 536.016 1358.28 537.084 1359.4 538.824L1353.7 558.731ZM1357.24 560.165L1363.02 540.011C1363.86 539.572 1365.87 538.712 1367.93 539.219C1369.34 539.566 1370.59 540.523 1371.65 542.066L1357.24 560.165ZM1361.02 561.498L1375.11 543.801C1375.39 543.629 1377.86 542.167 1380.41 542.794C1381.57 543.079 1382.62 543.781 1383.55 544.885L1361.02 561.498Z" fill="#E4F2F9"/>
<path d="M795 671.233V711.914C795 713.066 794.066 714 792.914 714H763.707V670.19H767.88V671.233L768.839 670.19H794.04L795 671.233Z" fill="white"/>
<path d="M717.81 635.767C716.658 635.767 715.724 634.833 715.724 633.681V621.163C715.724 620.011 716.658 619.077 717.81 619.077C718.962 619.077 719.896 620.011 719.896 621.163V633.681C719.896 634.833 718.962 635.767 717.81 635.767Z" fill="white"/>
<path d="M728.345 644.112H707.274C707.534 638.421 712.118 633.883 717.811 633.681C723.503 633.885 728.085 638.423 728.345 644.112Z" fill="white"/>
<path d="M684.431 647.241H694.863C696.015 647.241 696.948 648.175 696.948 649.328V659.759H682.345V649.328C682.345 648.175 683.279 647.241 684.431 647.241Z" fill="white"/>
<path d="M747.018 605.517H759.535C760.687 605.517 761.621 606.451 761.621 607.603V626.379C761.621 627.531 760.687 628.465 759.535 628.465H747.018C745.866 628.465 744.932 627.531 744.932 626.379V607.603C744.932 606.451 745.866 605.517 747.018 605.517Z" fill="white"/>
<path d="M744.931 626.379H761.621C762.773 626.379 763.707 627.314 763.707 628.466V657.673C763.707 658.825 762.773 659.759 761.621 659.759H744.931C743.779 659.759 742.845 658.825 742.845 657.673V628.466C742.845 627.314 743.779 626.379 744.931 626.379Z" fill="white"/>
<path d="M676.086 655.587H713.638V714.001H676.086C674.934 714.001 674 713.067 674 711.914V657.673C674 656.521 674.934 655.587 676.086 655.587Z" fill="white"/>
<path d="M728.401 714.001C729.508 713.955 730.37 713.021 730.327 711.914V645.156C730.327 644.003 729.394 643.07 728.241 643.07H707.379C706.227 643.07 705.293 644.003 705.293 645.156V714.001" fill="white"/>
<path d="M767.88 657.673V714.001H740.759C739.606 714.001 738.673 713.067 738.673 711.914V657.673C738.673 656.521 739.606 655.587 740.759 655.587H765.793C766.946 655.587 767.88 656.521 767.88 657.673Z" fill="white"/>
<path d="M751.989 596.985L744.331 605.88C744.066 606.19 744.004 606.624 744.174 606.995C744.343 607.365 744.713 607.603 745.12 607.604H761.528C761.93 607.605 762.296 607.374 762.471 607.011C762.645 606.649 762.594 606.218 762.342 605.906L755.196 597.037C754.808 596.555 754.224 596.269 753.605 596.26C752.986 596.25 752.394 596.516 751.989 596.985Z" fill="white"/>
<path d="M713.637 657.673C712.485 657.673 711.552 656.738 711.552 655.586V651.413C711.552 650.261 712.485 649.327 713.637 649.327C714.789 649.327 715.724 650.261 715.724 651.413V655.586C715.724 656.738 714.789 657.673 713.637 657.673Z" fill="#F0F7FF"/>
<path d="M721.982 657.673C720.83 657.673 719.896 656.738 719.896 655.586V651.413C719.896 650.261 720.83 649.327 721.982 649.327C723.134 649.327 724.068 650.261 724.068 651.413V655.586C724.068 656.738 723.134 657.673 721.982 657.673Z" fill="#F0F7FF"/>
<path d="M713.637 670.189C712.485 670.189 711.552 669.255 711.552 668.103V663.93C711.552 662.778 712.485 661.844 713.637 661.844C714.789 661.844 715.724 662.778 715.724 663.93V668.103C715.724 669.255 714.789 670.189 713.637 670.189Z" fill="#F0F7FF"/>
<path d="M721.982 670.189C720.83 670.189 719.896 669.255 719.896 668.103V663.93C719.896 662.778 720.83 661.844 721.982 661.844C723.134 661.844 724.068 662.778 724.068 663.93V668.103C724.068 669.255 723.134 670.189 721.982 670.189Z" fill="#F0F7FF"/>
<path d="M713.637 682.707C712.485 682.707 711.552 681.773 711.552 680.621V676.448C711.552 675.296 712.485 674.363 713.637 674.363C714.789 674.363 715.724 675.296 715.724 676.448V680.621C715.724 681.773 714.789 682.707 713.637 682.707Z" fill="#F0F7FF"/>
<path d="M721.982 682.707C720.83 682.707 719.896 681.773 719.896 680.621V676.448C719.896 675.296 720.83 674.363 721.982 674.363C723.134 674.363 724.068 675.296 724.068 676.448V680.621C724.068 681.773 723.134 682.707 721.982 682.707Z" fill="#F0F7FF"/>
<path d="M713.637 695.224C712.485 695.224 711.552 694.29 711.552 693.137V688.966C711.552 687.814 712.485 686.879 713.637 686.879C714.789 686.879 715.724 687.814 715.724 688.966V693.137C715.724 694.29 714.789 695.224 713.637 695.224Z" fill="#F0F7FF"/>
<path d="M721.982 695.224C720.83 695.224 719.896 694.29 719.896 693.137V688.966C719.896 687.814 720.83 686.879 721.982 686.879C723.134 686.879 724.068 687.814 724.068 688.966V693.137C724.068 694.29 723.134 695.224 721.982 695.224Z" fill="#F0F7FF"/>
<path d="M713.637 707.741C712.485 707.741 711.552 706.808 711.552 705.656V701.483C711.552 700.331 712.485 699.397 713.637 699.397C714.789 699.397 715.724 700.331 715.724 701.483V705.656C715.724 706.808 714.789 707.741 713.637 707.741Z" fill="#F0F7FF"/>
<path d="M721.982 707.741C720.83 707.741 719.896 706.808 719.896 705.656V701.483C719.896 700.331 720.83 699.397 721.982 699.397C723.134 699.397 724.068 700.331 724.068 701.483V705.656C724.068 706.808 723.134 707.741 721.982 707.741Z" fill="#F0F7FF"/>
<path d="M747.018 670.189C745.866 670.189 744.932 669.255 744.932 668.103V663.93C744.932 662.778 745.866 661.844 747.018 661.844C748.17 661.844 749.104 662.778 749.104 663.93V668.103C749.104 669.255 748.17 670.189 747.018 670.189Z" fill="#F0F7FF"/>
<path d="M753.277 649.328C752.125 649.328 751.19 648.395 751.19 647.241V643.07C751.19 641.918 752.125 640.983 753.277 640.983C754.429 640.983 755.363 641.918 755.363 643.07V647.241C755.363 648.395 754.429 649.328 753.277 649.328Z" fill="#F0F7FF"/>
<path d="M753.277 620.12C752.125 620.12 751.19 619.186 751.19 618.034V613.862C751.19 612.71 752.125 611.776 753.277 611.776C754.429 611.776 755.363 612.71 755.363 613.862V618.034C755.363 619.186 754.429 620.12 753.277 620.12Z" fill="#F0F7FF"/>
<path d="M759.536 670.189C758.383 670.189 757.449 669.255 757.449 668.103V663.93C757.449 662.778 758.383 661.844 759.536 661.844C760.688 661.844 761.622 662.778 761.622 663.93V668.103C761.622 669.255 760.688 670.189 759.536 670.189Z" fill="#F0F7FF"/>
<path d="M747.018 682.707C745.866 682.707 744.932 681.773 744.932 680.621V676.448C744.932 675.296 745.866 674.363 747.018 674.363C748.17 674.363 749.104 675.296 749.104 676.448V680.621C749.104 681.773 748.17 682.707 747.018 682.707Z" fill="#F0F7FF"/>
<path d="M759.536 682.707C758.383 682.707 757.449 681.773 757.449 680.621V676.448C757.449 675.296 758.383 674.363 759.536 674.363C760.688 674.363 761.622 675.296 761.622 676.448V680.621C761.622 681.773 760.688 682.707 759.536 682.707Z" fill="#F0F7FF"/>
<path d="M747.018 695.224C745.866 695.224 744.932 694.29 744.932 693.137V688.966C744.932 687.814 745.866 686.879 747.018 686.879C748.17 686.879 749.104 687.814 749.104 688.966V693.137C749.104 694.29 748.17 695.224 747.018 695.224Z" fill="#F0F7FF"/>
<path d="M759.536 695.224C758.383 695.224 757.449 694.29 757.449 693.137V688.966C757.449 687.814 758.383 686.879 759.536 686.879C760.688 686.879 761.622 687.814 761.622 688.966V693.137C761.622 694.29 760.688 695.224 759.536 695.224Z" fill="#F0F7FF"/>
<path d="M751.191 701.483H755.364C756.516 701.483 757.449 702.418 757.449 703.57V714.001H749.104V703.57C749.104 702.418 750.039 701.483 751.191 701.483Z" fill="#F0F7FF"/>
<path d="M778.31 680.621H776.224C775.072 680.621 774.138 679.687 774.138 678.535C774.138 677.383 775.072 676.449 776.224 676.449H778.31C779.462 676.449 780.397 677.383 780.397 678.535C780.397 679.687 779.462 680.621 778.31 680.621Z" fill="#F0F7FF"/>
<path d="M778.31 688.967H776.224C775.072 688.967 774.138 688.033 774.138 686.881C774.138 685.729 775.072 684.794 776.224 684.794H778.31C779.462 684.794 780.397 685.729 780.397 686.881C780.397 688.033 779.462 688.967 778.31 688.967Z" fill="#F0F7FF"/>
<path d="M778.31 697.311H776.224C775.072 697.311 774.138 696.377 774.138 695.225C774.138 694.072 775.072 693.138 776.224 693.138H778.31C779.462 693.138 780.397 694.072 780.397 695.225C780.397 696.377 779.462 697.311 778.31 697.311Z" fill="#F0F7FF"/>
<path d="M778.31 705.657H776.224C775.072 705.657 774.138 704.722 774.138 703.57C774.138 702.418 775.072 701.484 776.224 701.484H778.31C779.462 701.484 780.397 702.418 780.397 703.57C780.397 704.722 779.462 705.657 778.31 705.657Z" fill="#F0F7FF"/>
<path d="M688.603 682.707H682.552C681.4 682.707 680.467 681.773 680.467 680.621C680.467 679.469 681.4 678.535 682.552 678.535H688.603C689.755 678.535 690.689 679.469 690.689 680.621C690.689 681.773 689.755 682.707 688.603 682.707Z" fill="#F0F7FF"/>
<path d="M688.603 674.363H682.552C681.4 674.363 680.467 673.429 680.467 672.277C680.467 671.125 681.4 670.19 682.552 670.19H688.603C689.755 670.19 690.689 671.125 690.689 672.277C690.689 673.429 689.755 674.363 688.603 674.363Z" fill="#F0F7FF"/>
<path d="M688.603 666.018H682.552C681.4 666.018 680.467 665.084 680.467 663.932C680.467 662.779 681.4 661.845 682.552 661.845H688.603C689.755 661.845 690.689 662.779 690.689 663.932C690.689 665.084 689.755 666.018 688.603 666.018Z" fill="#F0F7FF"/>
<path d="M688.603 691.053H682.552C681.4 691.053 680.467 690.118 680.467 688.966C680.467 687.814 681.4 686.88 682.552 686.88H688.603C689.755 686.88 690.689 687.814 690.689 688.966C690.689 690.118 689.755 691.053 688.603 691.053Z" fill="#F0F7FF"/>
<path d="M688.603 699.398H682.552C681.4 699.398 680.467 698.464 680.467 697.311C680.467 696.159 681.4 695.225 682.552 695.225H688.603C689.755 695.225 690.689 696.159 690.689 697.311C690.689 698.464 689.755 699.398 688.603 699.398Z" fill="#F0F7FF"/>
<path d="M688.603 707.742H682.552C681.4 707.742 680.467 706.809 680.467 705.657C680.467 704.504 681.4 703.57 682.552 703.57H688.603C689.755 703.57 690.689 704.504 690.689 705.657C690.689 706.809 689.755 707.742 688.603 707.742Z" fill="#F0F7FF"/>
<path d="M786.655 680.621C786.381 680.618 786.112 680.561 785.862 680.454C785.606 680.353 785.372 680.205 785.173 680.016C784.792 679.617 784.576 679.088 784.568 678.535C784.571 678.262 784.628 677.993 784.735 677.743C784.831 677.484 784.98 677.25 785.173 677.054C786.009 676.282 787.299 676.282 788.135 677.054C788.328 677.25 788.478 677.484 788.574 677.743C788.796 678.248 788.796 678.823 788.574 679.328C788.468 679.581 788.319 679.813 788.135 680.016C787.736 680.397 787.207 680.613 786.655 680.621Z" fill="#F0F7FF"/>
<path d="M786.655 688.967C786.102 688.958 785.573 688.742 785.173 688.361L784.923 688.048C784.843 687.932 784.781 687.806 784.735 687.673C784.675 687.554 784.632 687.428 784.61 687.298C784.587 687.159 784.573 687.02 784.568 686.88C784.571 686.607 784.628 686.338 784.735 686.087C784.836 685.832 784.985 685.598 785.173 685.399C785.672 684.907 786.384 684.695 787.072 684.836C787.202 684.859 787.329 684.9 787.447 684.961C787.58 685.006 787.706 685.07 787.822 685.148C787.931 685.226 788.037 685.309 788.135 685.399C788.517 685.799 788.733 686.328 788.74 686.88C788.736 687.02 788.722 687.159 788.699 687.298C788.676 687.428 788.634 687.554 788.574 687.673C788.528 687.806 788.465 687.932 788.386 688.048L788.135 688.361L787.822 688.611C787.706 688.691 787.58 688.753 787.447 688.8C787.329 688.86 787.202 688.902 787.072 688.924C786.933 688.948 786.794 688.962 786.655 688.967Z" fill="#F0F7FF"/>
<path d="M786.655 697.311C785.806 697.316 785.04 696.808 784.715 696.025C784.39 695.242 784.571 694.34 785.173 693.744C785.674 693.255 786.384 693.043 787.072 693.181C787.202 693.203 787.329 693.245 787.447 693.306C787.58 693.352 787.706 693.414 787.823 693.494C787.931 693.57 788.037 693.654 788.135 693.744C788.737 694.34 788.918 695.242 788.593 696.025C788.268 696.808 787.502 697.316 786.655 697.311Z" fill="#F0F7FF"/>
<path d="M786.655 705.657C785.671 705.647 784.831 704.945 784.646 703.979C784.462 703.013 784.984 702.051 785.894 701.679C786.805 701.307 787.851 701.629 788.395 702.448C788.94 703.267 788.831 704.356 788.136 705.051C787.736 705.433 787.207 705.649 786.655 705.657Z" fill="#F0F7FF"/>
<path d="M699.033 663.932C699.033 665.084 698.1 666.018 696.947 666.018C695.795 666.018 694.861 665.084 694.861 663.932C694.861 662.779 695.795 661.845 696.947 661.845C698.1 661.845 699.033 662.779 699.033 663.932Z" fill="#F0F7FF"/>
<path d="M755.361 634.725C755.361 635.877 754.427 636.811 753.275 636.811C752.123 636.811 751.188 635.877 751.188 634.725C751.188 633.572 752.123 632.638 753.275 632.638C754.427 632.638 755.361 633.572 755.361 634.725Z" fill="#F0F7FF"/>
<path d="M699.033 672.277C699.033 673.429 698.1 674.363 696.947 674.363C695.795 674.363 694.861 673.429 694.861 672.277C694.861 671.125 695.795 670.19 696.947 670.19C698.1 670.19 699.033 671.125 699.033 672.277Z" fill="#F0F7FF"/>
<path d="M699.033 680.621C699.033 681.773 698.1 682.707 696.947 682.707C695.795 682.707 694.861 681.773 694.861 680.621C694.861 679.469 695.795 678.535 696.947 678.535C698.1 678.535 699.033 679.469 699.033 680.621Z" fill="#F0F7FF"/>
<path d="M699.033 688.966C699.033 690.118 698.1 691.053 696.947 691.053C695.795 691.053 694.861 690.118 694.861 688.966C694.861 687.814 695.795 686.88 696.947 686.88C698.1 686.88 699.033 687.814 699.033 688.966Z" fill="#F0F7FF"/>
<path d="M699.033 697.311C699.033 698.464 698.1 699.398 696.947 699.398C695.795 699.398 694.861 698.464 694.861 697.311C694.861 696.159 695.795 695.225 696.947 695.225C698.1 695.225 699.033 696.159 699.033 697.311Z" fill="#F0F7FF"/>
<path d="M699.033 705.657C699.033 706.809 698.1 707.742 696.947 707.742C695.795 707.742 694.861 706.809 694.861 705.657C694.861 704.504 695.795 703.57 696.947 703.57C698.1 703.57 699.033 704.504 699.033 705.657Z" fill="#F0F7FF"/>
<path d="M794.999 671.233H767.879L768.838 670.19L774.492 664.078C775.205 663.328 776.191 662.899 777.225 662.888H785.632C786.682 662.895 787.681 663.342 788.386 664.119L794.039 670.19L794.999 671.233Z" fill="white"/>
<path d="M1350 669.66C1349.39 669.76 1348.8 669.341 1348.7 668.723C1348.6 668.104 1349.02 667.523 1349.64 667.423C1350.26 667.323 1350.84 667.743 1350.94 668.361C1351.04 668.979 1350.62 669.56 1350 669.66Z" fill="white"/>
<path d="M1350.8 701.54C1351.06 701.184 1351.39 700.905 1351.67 700.571C1351.9 700.29 1352.06 699.951 1352.25 699.64C1352.33 699.499 1352.11 699.369 1352.03 699.51C1351.81 699.874 1351.63 700.259 1351.32 700.564C1351.05 700.834 1350.8 701.104 1350.58 701.412C1350.48 701.544 1350.7 701.672 1350.8 701.54Z" fill="white"/>
<path d="M1351.94 700.283C1351.94 700.283 1346.43 698.158 1352.96 692.622C1352.96 692.622 1354.83 691.35 1356.04 691.619C1356.42 691.705 1357.87 701.25 1351.94 700.283Z" fill="white"/>
<path d="M1347.6 708.018C1347.6 708.018 1343.87 703.347 1340.48 710.004C1339.82 711.289 1339.73 712.79 1340.23 714.142C1340.24 714.162 1340.25 714.18 1340.25 714.199C1340.27 714.248 1340.29 714.299 1340.29 714.35C1340.33 714.541 1340.39 715.031 1340.25 715.363C1340.2 715.506 1340.29 715.661 1340.44 715.681C1341.97 715.881 1347.55 716.314 1349.14 712.271C1350.46 708.92 1347.6 708.018 1347.6 708.018Z" fill="white"/>
<path d="M1353.62 705.182C1353.62 705.182 1351.59 703.12 1354.28 701.895C1356.78 700.757 1357.74 702.732 1359.1 702.659C1359.24 702.652 1359.34 702.786 1359.28 702.914C1358.7 704.161 1356.35 708.585 1353.62 705.182Z" fill="white"/>
<path d="M1349.26 703.992C1349.26 703.992 1351.04 697.092 1338.86 698.059C1338.86 698.059 1338.69 708.474 1349.26 703.992Z" fill="white"/>
<path d="M1350.5 672.029L1351.54 717.5C1351.55 717.984 1351.17 718.383 1350.7 718.383C1350.24 718.383 1349.87 717.992 1349.87 717.513C1349.93 711.28 1350.25 673.663 1349.86 672.029H1350.5Z" fill="white"/>
<path d="M1349.83 672.19C1349.62 672.231 1349.49 672.246 1349.49 672.246C1349.49 672.246 1342.53 673.406 1344.85 662.676C1344.85 662.676 1344.85 661.976 1344.69 661.31C1344.66 661.204 1344.63 661.103 1344.6 661C1344.6 661 1352.59 661.16 1353.94 666.38C1355.1 670.831 1351.05 671.954 1349.83 672.19Z" fill="white"/>
<path d="M1340.6 667.121C1340.6 667.121 1348.24 668.668 1347.56 674.276C1347.56 674.276 1344.28 678.819 1340.6 667.121Z" fill="white"/>
<path d="M1351.18 707.502C1351.5 706.775 1351.84 706.041 1352.45 705.514C1352.99 705.047 1353.68 704.928 1354.22 704.498C1354.35 704.396 1354.17 704.216 1354.04 704.318C1353.74 704.56 1353.35 704.638 1353.01 704.816C1352.69 704.983 1352.38 705.217 1352.12 705.467C1351.58 705.992 1351.26 706.69 1350.96 707.374C1350.9 707.522 1351.12 707.653 1351.18 707.502Z" fill="white"/>
<path d="M1347.16 708.372C1347.75 707.542 1349.72 707.183 1350.47 707.946C1350.58 708.064 1350.76 707.883 1350.65 707.765C1349.77 706.867 1347.63 707.279 1346.94 708.242C1346.84 708.377 1347.06 708.505 1347.16 708.372Z" fill="white"/>
<path d="M1351.1 712.265C1352.55 710.551 1354.93 710.66 1356.15 712.561C1356.24 712.699 1356.46 712.571 1356.37 712.431C1355.07 710.41 1352.47 710.241 1350.92 712.084C1350.81 712.21 1350.99 712.392 1351.1 712.265Z" fill="white"/>
<path d="M1348.98 692.981C1349.26 693.143 1349.58 693.254 1349.82 693.469C1350.03 693.644 1350.19 693.847 1350.43 693.98C1350.57 694.061 1350.7 693.84 1350.56 693.76C1350.3 693.612 1350.13 693.369 1349.89 693.192C1349.65 693.015 1349.36 692.908 1349.11 692.761C1348.96 692.679 1348.84 692.899 1348.98 692.981Z" fill="white"/>
<path d="M1350.62 690.673C1351.27 689.902 1352.21 689.583 1353.14 689.256C1353.29 689.202 1353.23 688.954 1353.07 689.008C1352.1 689.349 1351.12 689.688 1350.43 690.492C1350.33 690.616 1350.51 690.798 1350.62 690.673Z" fill="white"/>
<path d="M1344.08 678.769C1346.03 680.02 1349.47 681.016 1350.31 683.463C1350.36 683.618 1350.61 683.552 1350.55 683.395C1349.69 680.866 1346.22 679.838 1344.21 678.549C1344.07 678.459 1343.94 678.681 1344.08 678.769Z" fill="white"/>
<path d="M1350.62 681.787C1350.9 680.804 1351.85 679.694 1352.52 678.956C1353.14 678.263 1353.87 677.462 1354.68 676.997C1354.83 676.915 1354.7 676.695 1354.55 676.777C1353.62 677.309 1352.79 678.228 1352.1 679.039C1351.46 679.801 1350.65 680.759 1350.37 681.721C1350.32 681.877 1350.57 681.945 1350.62 681.787Z" fill="white"/>
<path d="M1346.85 674.193C1347.39 674.561 1347.85 675.027 1348.45 675.295C1348.95 675.522 1349.55 675.859 1350.11 675.946C1350.27 675.972 1350.34 675.725 1350.17 675.699C1349.67 675.621 1349.02 675.266 1348.56 675.06C1347.97 674.797 1347.51 674.336 1346.98 673.973C1346.85 673.878 1346.72 674.1 1346.85 674.193Z" fill="white"/>
<path d="M1366.18 683.202C1366.18 683.202 1363.09 680.795 1358.8 681.458C1357.83 681.608 1356.8 681.912 1355.74 682.432C1355.74 682.432 1358.45 677.789 1362.57 679.465C1362.83 679.568 1363.06 679.673 1363.28 679.776C1366.64 681.387 1366.18 683.202 1366.18 683.202Z" fill="white"/>
<path d="M1344.47 679.014C1341.85 678.515 1339.66 678.714 1337.87 679.226C1333.87 680.369 1331.9 683.073 1331.9 683.073C1331.9 683.073 1329.58 679.98 1335.7 676.627C1339.1 674.77 1341.42 675.705 1342.82 676.907C1343.94 677.874 1344.47 679.014 1344.47 679.014Z" fill="white"/>
<path d="M1365.74 694.927C1365.74 694.927 1364.71 693.285 1362.64 691.761C1360.38 690.092 1356.86 688.566 1352.07 689.512C1352.07 689.512 1354 687.645 1356.5 686.76C1357.77 686.31 1359.19 686.111 1360.58 686.548C1364.71 687.836 1365.61 691.704 1365.74 694.927Z" fill="white"/>
<path d="M1349.49 693.192C1336.6 691.001 1330.16 698.477 1330.16 698.477C1330.08 697.692 1330.09 696.961 1330.18 696.289C1330.21 696.118 1330.23 695.948 1330.26 695.783C1330.81 692.782 1333.12 690.439 1336.08 689.696C1342.55 688.073 1346.19 689.884 1348 691.446C1349.06 692.363 1349.49 693.192 1349.49 693.192Z" fill="white"/>
<path d="M1349.19 684.007C1349.19 684.007 1345.55 684.089 1343.02 683.412C1340.49 682.734 1339.33 685.635 1345.03 690.952C1345.03 690.952 1345.43 689.695 1350.64 688.317C1355.85 686.94 1355.57 682.184 1349.19 684.007Z" fill="white"/>
<path d="M1359.59 716.557C1359.59 716.557 1359.38 716.594 1359.03 716.633C1357.38 716.803 1352.61 716.947 1352.72 712.8C1352.74 712.198 1353.13 711.663 1353.69 711.465C1354.11 711.321 1354.67 711.181 1355.35 711.134C1356.13 711.076 1357.08 711.134 1358.17 711.434C1361.52 712.351 1357.56 715.105 1359.59 716.557Z" fill="white"/>
<path d="M1341.49 713.527C1341.28 713.772 1340.89 713.651 1340.87 713.332C1340.8 712.483 1341 711.72 1341.43 710.948C1342.04 709.851 1342.84 708.528 1344.03 707.96C1344.71 707.635 1345 707.733 1345.53 708.2C1346.03 708.643 1346.59 708.524 1347.1 708.879C1347.68 709.276 1347.56 710.233 1347.19 710.726C1346.71 711.358 1345.73 711.275 1345.02 711.439C1343.92 711.694 1342.3 712.553 1341.49 713.527Z" fill="white"/>
<path d="M1340.51 699.938C1340.29 699.764 1340 700.006 1340.14 700.246C1340.43 700.769 1340.79 701.269 1341.11 701.721C1341.8 702.684 1342.68 703.414 1343.78 703.845C1344.5 704.123 1346.81 704.758 1346.76 703.374C1346.72 702.082 1345.05 701.934 1344.14 701.652C1342.88 701.26 1341.56 700.805 1340.51 699.938Z" fill="white"/>
<path d="M1357.94 703.174C1357.87 702.984 1357.65 702.906 1357.47 702.99C1356.52 703.43 1354.89 703.437 1354.77 704.781C1354.67 705.727 1355.77 705.567 1356.35 705.43C1356.93 705.295 1358.4 704.532 1357.94 703.174Z" fill="white"/>
<path d="M1343.48 684.522C1344.5 684.73 1345.51 685.003 1346.57 684.951C1347.7 684.894 1348.81 684.723 1349.93 684.61C1350.57 684.546 1352.73 684.256 1352.01 685.58C1351.53 686.46 1349.67 686.765 1348.77 686.989C1348.15 687.141 1347.53 687.236 1346.93 687.436C1346.47 687.589 1346.06 687.857 1345.61 688.009C1345.5 687.372 1344.74 686.556 1344.22 686.208C1343.98 686.052 1342.34 684.988 1343.48 684.522Z" fill="white"/>
<path d="M1342.96 669.8C1343.47 670.974 1343.86 672.243 1344.54 673.351C1344.8 673.764 1345.53 674.614 1346.01 673.961C1346.38 673.453 1345.98 672.728 1345.65 672.318C1345.11 671.632 1344.49 670.916 1342.96 669.8Z" fill="white"/>
<path d="M1349.83 672.19C1349.59 671.159 1351.14 670.514 1351.73 670.019C1352.57 669.323 1352.94 668.374 1352.66 667.285C1352.1 665.087 1349.88 663.855 1348.08 662.758C1346.98 662.308 1346.14 661.994 1345.28 661.563C1345.1 661.477 1344.9 661.396 1344.69 661.31C1344.66 661.204 1344.63 661.103 1344.6 661C1344.6 661 1352.59 661.16 1353.94 666.38C1355.1 670.831 1351.05 671.954 1349.83 672.19Z" fill="white"/>
<path d="M1344.47 679.015C1341.86 678.516 1339.66 678.714 1337.87 679.226C1337.79 679.168 1337.69 679.103 1337.57 679.039C1337.29 678.895 1336.97 678.926 1336.65 678.974C1335.93 679.08 1335.22 679.349 1334.5 679.524C1334.25 679.585 1333.64 679.803 1333.71 679.367C1333.75 679.152 1334.35 678.722 1334.52 678.589C1335.95 677.506 1337.75 677.09 1339.51 676.906C1340.31 676.824 1341.12 676.719 1341.94 676.756C1342.26 676.773 1342.54 676.832 1342.82 676.91C1343.94 677.875 1344.47 679.015 1344.47 679.015Z" fill="white"/>
<path d="M1361.82 674.446C1361.47 674.518 1361.1 674.542 1360.85 674.603C1359.54 674.921 1358.39 675.346 1357.33 676.129C1356.37 676.279 1355.34 676.583 1354.28 677.102C1354.28 677.102 1356.99 672.46 1361.11 674.136C1361.36 674.238 1361.6 674.344 1361.82 674.446Z" fill="white"/>
<path d="M1349.49 693.192C1336.6 691.001 1330.16 698.477 1330.16 698.477C1330.08 697.692 1330.09 696.962 1330.18 696.29C1330.73 695.798 1331.31 695.357 1331.93 694.969C1333.36 694.057 1334.79 693.124 1336.4 692.5C1337.91 691.913 1339.4 691.777 1341.01 691.777C1342.42 691.777 1343.89 691.793 1345.28 692.002C1346.15 692.132 1347.74 692.45 1348 691.446C1349.06 692.363 1349.49 693.192 1349.49 693.192Z" fill="white"/>
<path d="M1362.64 691.761C1360.38 690.092 1356.86 688.565 1352.07 689.512C1352.07 689.512 1354 687.645 1356.5 686.76C1356.34 686.914 1356.21 687.084 1356.16 687.33C1356.06 687.846 1356.46 687.961 1356.91 688.119C1357.83 688.44 1358.81 688.388 1359.73 688.737C1360.67 689.089 1361.13 689.836 1361.78 690.54C1362.03 690.802 1362.49 691.305 1362.64 691.761Z" fill="white"/>
<path d="M1359.59 716.557C1359.59 716.557 1359.38 716.594 1359.03 716.633C1358.62 716.452 1358.24 716.203 1357.9 715.932C1357.33 715.472 1357.04 714.887 1356.6 714.332C1356.21 713.843 1355.77 713.475 1355.97 712.816C1356.14 712.284 1356.33 711.73 1355.77 711.337C1355.65 711.255 1355.51 711.187 1355.35 711.132C1356.13 711.075 1357.08 711.132 1358.17 711.432C1361.52 712.351 1357.56 715.105 1359.59 716.557Z" fill="white"/>
<path d="M1348.4 703.712C1348.7 703.867 1348.97 704.079 1349.27 704.238C1349.61 704.415 1349.95 704.571 1350.24 704.82C1350.37 704.927 1350.55 704.746 1350.42 704.639C1350.15 704.403 1349.83 704.238 1349.51 704.073C1349.17 703.898 1348.87 703.664 1348.53 703.492C1348.38 703.417 1348.25 703.638 1348.4 703.712Z" fill="white"/>
<path d="M1358.07 717.493L1353.63 732.851H1347.16L1345.79 728.13L1345.72 727.883L1342.72 717.493H1358.07Z" fill="white"/>
<path d="M1358.07 717.493L1353.63 732.851H1347.16L1345.79 728.13C1350.54 726.278 1352.84 721.599 1353.94 717.493H1358.07Z" fill="white"/>
<path d="M1358.07 716.852H1342.72V718.135H1358.07V716.852Z" fill="white"/>
<path d="M812.18 124.524C810.694 124.886 809.171 125.362 807.655 125.999C806.139 126.636 804.733 127.391 803.435 128.199C803.212 129.761 803.393 131.401 804.048 132.958C804.764 134.664 805.95 136.031 807.39 136.981C808.621 136.21 809.947 135.487 811.388 134.881C812.826 134.277 814.269 133.836 815.679 133.497C816.01 131.803 815.868 129.999 815.151 128.292C814.496 126.735 813.452 125.458 812.18 124.524Z" fill="white"/>
<path d="M824.193 123.644C822.5 123.49 819.11 123.328 815.136 123.936C816.056 124.907 816.824 126.054 817.372 127.359C818.146 129.201 818.398 131.134 818.198 132.993C819.613 132.772 820.943 132.661 822.165 132.609L821.423 136.464C821.423 136.466 821.422 136.467 821.422 136.469L820.057 143.559L818.263 142.826C818.259 142.825 818.255 142.824 818.251 142.823C818.277 142.301 818.201 141.767 817.985 141.254C817.214 139.417 815.091 138.551 813.255 139.323C811.418 140.095 810.551 142.217 811.323 144.054C811.539 144.567 811.867 144.994 812.258 145.341C812.256 145.345 812.253 145.348 812.252 145.352L811.519 147.146L805.501 143.16C805.499 143.159 805.497 143.158 805.496 143.157L802.223 140.989C803.115 140.153 804.125 139.28 805.272 138.425C803.805 137.266 802.601 135.733 801.827 133.891C801.278 132.585 801 131.234 800.951 129.895C797.734 132.31 795.475 134.845 794.401 136.163C793.558 137.196 793.357 138.605 793.876 139.84L794.601 141.566C795.593 143.926 798.658 144.551 800.476 142.721L803.869 144.969L806.527 151.294C807.299 153.131 809.421 153.997 811.258 153.226L812.368 152.759L815.012 159.051C815.784 160.888 817.906 161.754 819.743 160.982C820.595 160.624 821.239 159.975 821.607 159.199C822.418 159.48 823.332 159.474 824.184 159.116C826.021 158.344 826.888 156.222 826.116 154.385L823.472 148.093L824.582 147.627C826.419 146.855 827.285 144.733 826.514 142.896L823.856 136.57L824.626 132.569C825.103 132.566 825.568 132.479 825.994 132.3C827.793 131.544 828.698 129.441 827.911 127.569L827.186 125.843C826.667 124.608 825.52 123.766 824.193 123.644ZM811.435 150.538L810.325 151.005C809.713 151.262 809.005 150.973 808.748 150.361L807.49 147.366L811.11 149.764L811.435 150.538L811.435 150.538ZM824.293 143.829C824.55 144.441 824.261 145.149 823.649 145.406L822.539 145.873L822.213 145.099L823.034 140.835L824.293 143.829L824.293 143.829Z" fill="white"/>
<path d="M1256.83 310.151C1258.12 310.151 1259.37 310.322 1260.56 310.643C1262.69 307.437 1266.25 305.336 1270.29 305.336C1271.6 305.336 1272.86 305.561 1274.03 305.97C1276.02 296.829 1283.87 290 1293.26 290C1304.15 290 1312.97 299.181 1312.97 310.507C1312.97 310.741 1312.96 310.972 1312.95 311.203C1314.34 310.751 1315.81 310.507 1317.34 310.507C1325.44 310.507 1332 317.332 1332 325.755C1332 334.174 1325.44 341 1317.34 341H1273.46H1265.32H1256.83C1248.64 341 1242 334.094 1242 325.575C1242 317.056 1248.64 310.151 1256.83 310.151Z" fill="white"/>
</svg>
