<svg width="28" height="28" viewBox="0 0 28 28" fill="none" xmlns="http://www.w3.org/2000/svg">
<path d="M28 13.9938C28 13.7556 27.9939 13.519 27.9819 13.2835C27.9761 13.1584 27.9641 13.0334 27.9546 12.9113C27.946 12.8023 27.9404 12.6931 27.9294 12.5852C27.913 12.4186 27.8898 12.2535 27.8674 12.0889C27.8588 12.0259 27.853 11.9624 27.8434 11.8998C27.8134 11.6998 27.778 11.4997 27.7394 11.3056C27.7345 11.2802 27.7308 11.2555 27.726 11.2291C26.4366 4.8801 20.9681 0.239608 14.494 0V1.48821C14.494 1.76446 14.27 1.98843 13.9938 1.98843C13.7175 1.98843 13.4935 1.76446 13.4935 1.48821V0C13.0126 0.0166089 12.5327 0.0581313 12.0559 0.124079L12.315 1.59128C12.3632 1.86338 12.1814 2.12301 11.9093 2.17113C11.8805 2.17602 11.8512 2.17846 11.8219 2.17846C11.5794 2.17821 11.3722 2.00407 11.33 1.76543L11.0704 0.295297C10.5994 0.395928 10.1341 0.520495 9.67593 0.668754L10.1867 2.06952C10.2807 2.32941 10.1464 2.61615 9.88648 2.71019C9.83176 2.73046 9.77388 2.74096 9.71526 2.74072C9.5052 2.74072 9.31762 2.60907 9.24557 2.41172L8.73533 1.01095C8.28909 1.19145 7.85261 1.39491 7.42738 1.62084L8.17307 2.91292C8.26393 3.06777 8.26491 3.25926 8.17551 3.41509C8.08611 3.57068 7.92003 3.66643 7.7405 3.66594C7.56098 3.66569 7.39562 3.56921 7.30672 3.41314L6.56151 2.12253C6.1541 2.37874 5.76013 2.65548 5.38105 2.95175L6.33729 4.0924C6.45966 4.2282 6.49825 4.42018 6.43768 4.59262C6.3771 4.76506 6.22713 4.89085 6.04688 4.92065C5.86638 4.95044 5.68417 4.87912 5.57157 4.73526L4.61314 3.59266C4.2558 3.91532 3.91507 4.25604 3.59266 4.61362L4.73404 5.57157C4.94654 5.74865 4.97487 6.06446 4.79779 6.27696C4.62046 6.48921 4.30465 6.51755 4.0924 6.34047L2.95224 5.38203C2.65597 5.76111 2.37948 6.15508 2.1235 6.56249L3.41412 7.30769C3.57019 7.3966 3.66667 7.56196 3.66716 7.74148C3.6674 7.921 3.57166 8.08709 3.41607 8.17649C3.26024 8.26588 3.06875 8.26491 2.91389 8.17429L1.62133 7.42835C1.39564 7.85359 1.19194 8.29006 1.01144 8.73655L2.41221 9.24654C2.64058 9.32959 2.77614 9.56456 2.73413 9.80368C2.69187 10.043 2.48401 10.2172 2.24099 10.2172C2.18261 10.2172 2.12472 10.2069 2.07001 10.1867L0.669243 9.67642C0.520739 10.1344 0.396172 10.5997 0.295786 11.0704L1.76592 11.3295C2.02141 11.3744 2.20044 11.6072 2.17797 11.8656C2.15526 12.1243 1.93885 12.3226 1.67921 12.3226C1.6499 12.3224 1.62059 12.3199 1.59177 12.315L0.124567 12.0564C0.0583755 12.5329 0.0168532 13.0126 0 13.4935H1.48821C1.76446 13.4935 1.98843 13.7175 1.98843 13.9938C1.98843 14.27 1.76446 14.494 1.48821 14.494H0C0.239608 20.9681 4.8801 26.4366 11.2291 27.726C11.2545 27.7308 11.2792 27.7345 11.3056 27.7394C11.5022 27.778 11.7003 27.8134 11.8998 27.8434C11.9624 27.853 12.0259 27.8588 12.0889 27.8674C12.2535 27.8898 12.4186 27.913 12.5852 27.9294C12.6931 27.9404 12.8023 27.946 12.9113 27.9546C13.0348 27.9641 13.1584 27.9761 13.2835 27.9819C13.5185 27.9939 13.7554 28 13.9938 28C21.7255 27.9912 27.9912 21.7255 28 13.9938ZM20.7048 6.49898C22.0806 6.61574 23.1023 7.82404 22.9887 9.20014C22.8788 10.4954 21.7966 11.4912 20.4967 11.4927C20.4271 11.4927 20.3577 11.4927 20.2871 11.4841C18.9105 11.3693 17.8876 10.16 18.0026 8.78345C18.1174 7.40686 19.3267 6.38394 20.7033 6.49898H20.7048ZM9.66885 11.7098L13.0287 8.34917C13.6228 7.78251 14.557 7.78251 15.1508 8.34917L17.8346 11.0325C18.3082 11.5232 18.3014 12.3033 17.8187 12.7855C17.3363 13.2679 16.5562 13.2742 16.0657 12.8001L14.0898 10.8254L11.4387 13.4765C11.1231 13.7947 10.6617 13.92 10.2287 13.8047C9.79562 13.6894 9.45733 13.3514 9.34204 12.9183C9.22651 12.4853 9.35157 12.0237 9.66983 11.7083L9.66885 11.7098ZM7.27887 24.721C6.77157 24.7224 6.31384 24.4171 6.11991 23.9484C5.92597 23.4799 6.03442 22.9404 6.39444 22.583L11.8539 17.1236C12.0491 16.9292 12.3649 16.9292 12.56 17.1236C12.5893 17.1529 12.6147 17.1854 12.6362 17.2208C12.7513 17.3537 13.209 17.8209 13.5971 18.2112C13.7923 18.4064 13.7923 18.7232 13.5971 18.9186L8.1633 24.3519C7.92906 24.5876 7.61081 24.7202 7.27887 24.721ZM18.1336 20.6598L15.4844 23.3065C15.2507 23.5417 14.9327 23.6736 14.601 23.6726H14.5941C14.2595 23.6719 13.9393 23.5363 13.706 23.2965C13.2293 22.8058 13.2337 22.0237 13.7156 21.5381L15.6549 19.5988L13.0038 16.9475C12.5156 16.4592 12.5156 15.6676 13.0038 15.1794C13.4987 14.7067 14.2773 14.7067 14.7722 15.1794L18.1316 18.5392C18.7178 19.1254 18.7178 20.0756 18.1316 20.6618L18.1336 20.6598ZM22.7477 17.4953H18.996C18.1673 17.4953 17.4953 16.8234 17.4953 15.9947V14.494C17.4953 14.3267 17.5789 14.1706 17.7178 14.0778L19.2185 13.0773C19.3721 12.975 19.5695 12.9655 19.7322 13.0524C19.8948 13.1394 19.9964 13.3091 19.9964 13.4935V14.9942H22.7477C23.4384 14.9942 23.9982 15.554 23.9982 16.2448C23.9982 16.9355 23.4384 17.4953 22.7477 17.4953Z" fill="#296DB3"/>
</svg>
