<svg width="28" height="28" viewBox="0 0 28 28" fill="none" xmlns="http://www.w3.org/2000/svg">
<path d="M14 0C12.643 0 11.4844 1.10392 11.4844 2.46094C11.4844 3.81795 12.643 4.92188 14 4.92188C15.357 4.92188 16.5156 3.81795 16.5156 2.46094C16.5156 1.10392 15.357 0 14 0Z" fill="#296DB3"/>
<path d="M7.38281 16.4609C6.0258 16.4609 4.92188 17.5649 4.92188 18.9219C4.92188 20.2789 6.0258 21.3828 7.38281 21.3828C8.73983 21.3828 9.84375 20.2789 9.84375 18.9219C9.84375 17.5649 8.73983 16.4609 7.38281 16.4609Z" fill="#296DB3"/>
<path d="M20.6172 16.4609C19.2602 16.4609 18.1562 17.5649 18.1562 18.9219C18.1562 20.2789 19.2602 21.3828 20.6172 21.3828C21.9742 21.3828 23.0781 20.2789 23.0781 18.9219C23.0781 17.5649 21.9742 16.4609 20.6172 16.4609Z" fill="#296DB3"/>
<path d="M27.9483 20.158L26.8227 13.5408C26.6249 12.3495 25.6043 11.4844 24.3954 11.4844H3.60519C2.39638 11.4844 1.37575 12.3495 1.17789 13.5408L0.0523114 20.158C-0.0670168 20.8733 0.133249 21.5999 0.601866 22.1535C0.911397 22.5186 1.35081 22.7685 1.79816 22.9046C2.30292 22.0787 2.96967 21.3655 3.77582 20.8323C3.47072 20.259 3.28155 19.6152 3.28155 18.9219C3.28155 16.6604 5.12162 14.8203 7.38312 14.8203C9.64461 14.8203 11.4847 16.6604 11.4847 18.9219C11.4847 19.6152 11.2955 20.259 10.9904 20.8323C11.8341 21.3903 12.5218 22.1476 13.0327 23.0234H14.9679C15.4788 22.1476 16.1665 21.3903 17.0101 20.8323C16.7051 20.259 16.5159 19.6152 16.5159 18.9219C16.5159 16.6604 18.356 14.8203 20.6175 14.8203C22.879 14.8203 24.7191 16.6604 24.7191 18.9219C24.7191 19.6152 24.5299 20.259 24.2248 20.8323C25.031 21.3655 25.6977 22.0787 26.2025 22.9046C26.6497 22.7685 27.0892 22.5186 27.3987 22.1535C27.8674 21.5999 28.0676 20.8733 27.9483 20.158Z" fill="#296DB3"/>
<path d="M25.3422 24.9429C25.3422 24.9429 25.3258 24.9429 25.3422 24.9265C24.9977 23.7289 24.2102 22.7444 23.1602 22.1211C22.4547 22.6789 21.5853 23.0234 20.6172 23.0234C19.6492 23.0234 18.7797 22.6789 18.0743 22.1211C17.0243 22.7444 16.2368 23.7453 15.8922 24.9429C15.7609 25.3695 15.6953 25.8835 15.6953 26.3594V27.1797C15.6953 27.639 16.0562 28 16.5156 28H24.7188C25.1782 28 25.5391 27.639 25.5391 27.1797V26.3594C25.5391 25.8835 25.4735 25.3695 25.3422 24.9429Z" fill="#296DB3"/>
<path d="M16.5995 5.65198C15.8979 6.21285 14.9659 6.56253 14 6.56253C13.0341 6.56253 12.1021 6.21274 11.4005 5.65198C9.98173 6.51664 9.02344 8.06414 9.02344 9.84378H18.9766C18.9766 8.06414 18.0183 6.51664 16.5995 5.65198Z" fill="#296DB3"/>
<path d="M12.1078 24.9429C12.1078 24.9429 12.0914 24.9429 12.1078 24.9265C11.7632 23.7289 10.9758 22.7444 9.92573 22.1211C9.22031 22.6789 8.35084 23.0234 7.38281 23.0234C6.41479 23.0234 5.54531 22.6789 4.83984 22.1211C3.78984 22.7444 3.00234 23.7453 2.65776 24.9429C2.52651 25.3695 2.46094 25.8835 2.46094 26.3594V27.1797C2.46094 27.639 2.82182 28 3.28125 28H11.4844C11.9438 28 12.3047 27.639 12.3047 27.1797V26.3594C12.3047 25.8835 12.2391 25.3695 12.1078 24.9429Z" fill="#296DB3"/>
</svg>
