<?xml version="1.0" encoding="utf-8"?>
<!-- Generator: Adobe Illustrator 24.0.1, SVG Export Plug-In . SVG Version: 6.00 Build 0)  -->
<svg version="1.1" id="Layer_1" xmlns="http://www.w3.org/2000/svg" xmlns:xlink="http://www.w3.org/1999/xlink" x="0px" y="0px"
	 viewBox="0 0 1440 966" style="enable-background:new 0 0 1440 966;" xml:space="preserve">
<style type="text/css">
	.st0{fill:url(#SVGID_1_);}
	.st1{display:none;opacity:0.2;}
	.st2{display:inline;fill-rule:evenodd;clip-rule:evenodd;fill:#9DBCDC;}
</style>
<linearGradient id="SVGID_1_" gradientUnits="userSpaceOnUse" x1="-288.3589" y1="870.977" x2="1023.8511" y2="822.1479" gradientTransform="matrix(1 0 0 -1 0 968)">
	<stop  offset="0" style="stop-color:#EFFBF2"/>
	<stop  offset="1" style="stop-color:#E9F2FF"/>
</linearGradient>
<path class="st0" d="M1440-682H720H0V896.5c697,214,873-144.2,1440-37.5V-682z"/>
<g class="st1">
	<path class="st2" d="M780.5,512.2c-2.7-0.2-4.7-2.5-4.5-5.2c0.2-2.7,2.4-4.8,5.1-4.7c2.7,0.1,4.9,2.4,4.7,5.2
		C785.6,510.3,783.2,512.4,780.5,512.2z"/>
	<path class="st2" d="M777.4,538.2c-2.7-0.4-4.4-2.9-4.1-5.6c0.4-2.7,2.8-4.5,5.5-4.2c2.7,0.3,4.6,2.8,4.2,5.6
		C782.7,536.8,780.1,538.6,777.4,538.2z"/>
	<path class="st2" d="M772,563.8c-2.6-0.7-4.2-3.3-3.6-5.9c0.6-2.6,3.3-4.3,5.9-3.7c2.6,0.6,4.3,3.2,3.6,5.9
		C777.3,562.8,774.6,564.5,772,563.8z"/>
	<path class="st2" d="M764.3,588.9c-2.5-0.9-3.9-3.7-3-6.2c0.9-2.5,3.7-4,6.3-3.2c2.6,0.8,3.9,3.6,3,6.2
		C769.7,588.4,766.8,589.8,764.3,588.9z"/>
	<path class="st2" d="M754.4,613.2c-2.5-1.1-3.5-4-2.4-6.4c1.2-2.4,3.9-3.7,6.4-2.6c2.5,1,3.8,4,2.6,6.5
		C759.8,613.2,756.9,614.3,754.4,613.2z"/>
	<path class="st2" d="M742.4,636.6c-2.4-1.3-3.1-4.3-1.9-6.6c1.2-2.4,4.2-3.3,6.6-2.1c2.4,1.2,3.3,4.2,2,6.7
		C747.9,637,744.7,637.9,742.4,636.6z"/>
	<path class="st2" d="M728.4,658.8c-2.2-1.5-2.8-4.6-1.3-6.8c1.5-2.3,4.5-2.9,6.8-1.5c2.3,1.4,2.9,4.5,1.4,6.8
		C733.7,659.7,730.6,660.4,728.4,658.8z"/>
	<path class="st2" d="M712.4,679.8c-2.1-1.7-2.4-4.8-0.7-6.9c1.7-2.1,4.8-2.5,6.9-0.9c2.1,1.6,2.5,4.7,0.7,6.9
		C717.6,681.1,714.5,681.5,712.4,679.8z"/>
	<path class="st2" d="M694.7,699.3c-1.9-1.9-2-5-0.1-6.9c1.9-1.9,5-2,7-0.2c2,1.8,2,4.9,0.1,6.9C699.7,701,696.6,701.2,694.7,699.3z
		"/>
	<path class="st2" d="M675.3,717.2c-1.7-2-1.5-5.1,0.5-6.9c2.1-1.7,5.1-1.7,6.9,0.3c1.8,2,1.7,5.2-0.4,7
		C680.2,719.4,677,719.2,675.3,717.2z"/>
	<path class="st2" d="M654.4,733.4c-1.6-2.2-1-5.2,1.1-6.8c2.1-1.7,5.2-1.3,6.8,0.9c1.6,2.1,1.2,5.3-1,7
		C659.1,736.1,655.9,735.6,654.4,733.4z"/>
	<path class="st2" d="M632.2,747.8c-1.4-2.3-0.6-5.3,1.7-6.8c2.3-1.5,5.3-0.8,6.7,1.5c1.5,2.3,0.7,5.3-1.6,6.8
		C636.6,750.9,633.5,750.1,632.2,747.8z"/>
	<path class="st2" d="M608.7,760.2c-1.2-2.4-0.1-5.4,2.2-6.6c2.4-1.2,5.4-0.3,6.6,2.1c1.2,2.4,0.2,5.4-2.3,6.6
		C612.8,763.5,609.9,762.6,608.7,760.2z"/>
	<path class="st2" d="M584.3,770.4c-0.9-2.5,0.3-5.4,2.8-6.4c2.5-1,5.4,0.2,6.4,2.7c1,2.5-0.2,5.4-2.8,6.4
		C588.1,774.2,585.2,773,584.3,770.4z"/>
	<path class="st2" d="M559,778.6c-0.7-2.6,0.8-5.3,3.4-6.1c2.6-0.7,5.3,0.6,6.1,3.2c0.8,2.6-0.7,5.4-3.4,6.2
		C562.5,782.7,559.7,781.2,559,778.6z"/>
	<path class="st2" d="M533.1,784.5c-0.5-2.7,1.3-5.2,3.9-5.7c2.6-0.6,5.2,1,5.8,3.7c0.6,2.6-1.2,5.3-3.9,5.9
		C536.2,789,533.6,787.2,533.1,784.5z"/>
	<path class="st2" d="M506.8,788.3c-0.2-2.7,1.7-5.2,4.4-5.5c2.7-0.3,5.1,1.6,5.4,4.2c0.3,2.7-1.6,5.2-4.4,5.5
		C509.5,792.9,507,791,506.8,788.3z"/>
	<path class="st2" d="M480.2,789.7c0-2.7,2.2-5,4.8-5c2.7-0.1,4.9,2.1,5,4.8c0.1,2.7-2.1,5-4.8,5
		C482.5,794.5,480.2,792.4,480.2,789.7z"/>
	<path class="st2" d="M453.7,788.8c0.2-2.7,2.6-4.7,5.3-4.5c2.7,0.2,4.7,2.3,4.6,5.1c-0.1,2.7-2.5,4.9-5.3,4.7
		C455.5,793.9,453.4,791.5,453.7,788.8z"/>
	<path class="st2" d="M427.2,785.8c0.5-2.7,3-4.4,5.6-4.2c2.7,0.3,4.5,2.8,4.2,5.5c-0.4,2.7-2.9,4.6-5.6,4.3
		C428.6,791.1,426.8,788.5,427.2,785.8z"/>
	<path class="st2" d="M401.2,780.5c0.7-2.6,3.4-4.3,6-3.7c2.6,0.6,4.2,3.2,3.6,5.9c-0.6,2.6-3.3,4.3-6,3.7
		C402.1,785.7,400.5,783.1,401.2,780.5z"/>
	<path class="st2" d="M375.7,772.8c0.9-2.6,3.7-4,6.3-3.1c2.5,0.9,3.9,3.7,3.1,6.2c-0.8,2.6-3.6,4-6.3,3.1
		C376.2,778.2,374.8,775.4,375.7,772.8z"/>
	<path class="st2" d="M351.1,763.1c1.1-2.5,4-3.6,6.5-2.5c2.4,1.1,3.6,3.9,2.6,6.4c-1,2.5-4,3.8-6.5,2.6
		C351,768.5,349.9,765.6,351.1,763.1z"/>
	<path class="st2" d="M327.3,751.3c1.4-2.4,4.3-3.2,6.7-1.9c2.4,1.2,3.3,4.2,2,6.6c-1.3,2.4-4.3,3.4-6.7,2.1
		C326.8,756.7,326,753.6,327.3,751.3z"/>
	<path class="st2" d="M304.7,737.5c1.5-2.2,4.6-2.9,6.9-1.4c2.2,1.4,2.9,4.5,1.4,6.8c-1.5,2.3-4.5,3-6.9,1.5
		C303.8,742.8,303.1,739.7,304.7,737.5z"/>
	<path class="st2" d="M283.4,721.8c1.7-2.1,4.9-2.5,6.9-0.8c2.1,1.6,2.4,4.7,0.8,6.9c-1.7,2.2-4.8,2.5-6.9,0.8
		C282.1,726.9,281.7,723.8,283.4,721.8z"/>
	<path class="st2" d="M263.6,704.2c1.9-1.9,5-2,7-0.2c1.9,1.8,2,5,0.1,7c-1.8,2-5,2.1-6.9,0.2C261.8,709.3,261.7,706.2,263.6,704.2z
		"/>
	<path class="st2" d="M245.5,685.2c2.1-1.8,5.2-1.6,6.9,0.4c1.7,2.1,1.6,5.1-0.4,6.9c-2,1.8-5.2,1.8-7-0.4
		C243.2,690.1,243.4,686.9,245.5,685.2z"/>
	<path class="st2" d="M229,664.6c2.2-1.6,5.3-1.1,6.8,1.1c1.6,2.1,1.2,5.2-0.9,6.8c-2.2,1.7-5.3,1.3-7-0.9
		C226.3,669.3,226.8,666.2,229,664.6z"/>
	<path class="st2" d="M214.4,642.7c2.3-1.4,5.3-0.6,6.8,1.6c1.4,2.3,0.7,5.3-1.6,6.8c-2.3,1.5-5.3,0.8-6.8-1.6
		C211.2,647.2,212,644.1,214.4,642.7z"/>
	<path class="st2" d="M201.8,619.6c2.5-1.2,5.4-0.2,6.6,2.2c1.2,2.4,0.2,5.3-2.2,6.6c-2.4,1.3-5.4,0.3-6.6-2.2
		C198.3,623.8,199.3,620.8,201.8,619.6z"/>
	<path class="st2" d="M191.3,595.5c2.5-1,5.4,0.3,6.4,2.8c1,2.5-0.3,5.4-2.8,6.4c-2.5,1.1-5.4-0.2-6.4-2.8
		C187.5,599.4,188.8,596.5,191.3,595.5z"/>
	<path class="st2" d="M183.1,570.7c2.6-0.7,5.3,0.7,6,3.3c0.7,2.6-0.7,5.3-3.3,6.1c-2.6,0.8-5.4-0.6-6.1-3.3
		C178.9,574.2,180.4,571.4,183.1,570.7z"/>
	<path class="st2" d="M177,545.1c2.7-0.5,5.2,1.2,5.7,3.8c0.6,2.6-1.1,5.2-3.8,5.8c-2.6,0.6-5.3-1.1-5.9-3.8
		C172.5,548.3,174.4,545.6,177,545.1z"/>
	<path class="st2" d="M173.2,519.2c2.7-0.3,5.2,1.7,5.5,4.3c0.3,2.7-1.6,5.1-4.3,5.5c-2.7,0.4-5.1-1.6-5.5-4.3
		C168.5,522,170.5,519.5,173.2,519.2z"/>
	<path class="st2" d="M171.8,493.1c2.7,0,5,2.1,5,4.8c0,2.7-2.1,5-4.8,5.1c-2.7,0.1-4.9-2-5-4.8
		C166.9,495.4,169.1,493.1,171.8,493.1z"/>
	<path class="st2" d="M172.6,466.9c2.7,0.2,4.7,2.5,4.5,5.2c-0.2,2.7-2.4,4.8-5.1,4.7c-2.7-0.1-4.9-2.4-4.7-5.2
		C167.5,468.8,169.9,466.7,172.6,466.9z"/>
	<path class="st2" d="M175.7,440.9c2.7,0.4,4.4,2.9,4.1,5.6c-0.4,2.7-2.8,4.5-5.5,4.2c-2.7-0.3-4.6-2.8-4.2-5.6
		C170.4,442.3,173,440.5,175.7,440.9z"/>
	<path class="st2" d="M181.1,415.3c2.6,0.7,4.2,3.3,3.6,5.9c-0.6,2.6-3.3,4.3-5.9,3.7c-2.6-0.6-4.3-3.2-3.6-5.9
		C175.8,416.3,178.5,414.6,181.1,415.3z"/>
	<path class="st2" d="M188.8,390.2c2.6,0.9,3.9,3.7,3,6.2c-0.9,2.5-3.7,3.9-6.3,3.2c-2.6-0.8-3.9-3.6-3-6.2
		C183.5,390.7,186.3,389.3,188.8,390.2z"/>
	<path class="st2" d="M198.7,365.9c2.5,1.1,3.5,4,2.4,6.4c-1.2,2.4-3.9,3.7-6.4,2.6c-2.5-1-3.8-4-2.6-6.5
		C193.3,365.9,196.3,364.8,198.7,365.9z"/>
	<path class="st2" d="M210.7,342.5c2.4,1.3,3.1,4.3,1.9,6.6c-1.2,2.4-4.2,3.3-6.6,2.1c-2.4-1.2-3.3-4.2-2-6.7
		C205.3,342.1,208.4,341.2,210.7,342.5z"/>
	<path class="st2" d="M224.7,320.3c2.2,1.5,2.8,4.6,1.3,6.8c-1.5,2.3-4.5,2.9-6.8,1.5c-2.3-1.4-2.9-4.5-1.4-6.9
		C219.4,319.4,222.5,318.7,224.7,320.3z"/>
	<path class="st2" d="M240.7,299.3c2.1,1.7,2.4,4.8,0.7,6.9c-1.7,2.1-4.8,2.5-6.9,0.9c-2.1-1.6-2.5-4.7-0.7-6.9
		C235.5,298,238.6,297.6,240.7,299.3z"/>
	<path class="st2" d="M258.5,279.8c1.9,1.9,2,5,0.1,6.9c-1.9,1.9-5,2-7,0.2c-2-1.8-2-4.9-0.1-6.9S256.5,277.9,258.5,279.8z"/>
	<path class="st2" d="M277.9,261.9c1.7,2,1.5,5.1-0.5,6.9c-2.1,1.7-5.1,1.7-6.9-0.3c-1.8-2-1.7-5.2,0.4-7
		C273,259.7,276.1,259.9,277.9,261.9z"/>
	<path class="st2" d="M298.7,245.7c1.6,2.2,1,5.2-1.1,6.8c-2.1,1.7-5.2,1.3-6.8-0.9c-1.6-2.1-1.2-5.3,1-7
		C294.1,243,297.2,243.5,298.7,245.7z"/>
	<path class="st2" d="M321,231.3c1.4,2.3,0.6,5.3-1.7,6.8c-2.3,1.5-5.3,0.8-6.7-1.5c-1.5-2.3-0.7-5.3,1.6-6.8
		C316.5,228.2,319.6,229,321,231.3z"/>
	<path class="st2" d="M344.4,218.9c1.2,2.4,0.1,5.4-2.3,6.6c-2.4,1.2-5.4,0.3-6.6-2.1c-1.2-2.4-0.2-5.4,2.2-6.6
		C340.3,215.6,343.2,216.5,344.4,218.9z"/>
	<path class="st2" d="M368.9,208.7c0.9,2.5-0.3,5.4-2.8,6.4c-2.5,1-5.4-0.2-6.4-2.7c-1-2.5,0.2-5.4,2.8-6.4
		C365.1,204.9,367.9,206.1,368.9,208.7z"/>
	<path class="st2" d="M394.1,200.5c0.7,2.6-0.8,5.3-3.4,6.1c-2.6,0.7-5.3-0.6-6.1-3.2c-0.8-2.6,0.7-5.4,3.4-6.2
		C390.7,196.4,393.4,197.9,394.1,200.5z"/>
	<path class="st2" d="M420,194.6c0.5,2.7-1.3,5.2-3.9,5.7c-2.6,0.6-5.2-1-5.8-3.7c-0.6-2.6,1.2-5.3,3.9-5.9
		C416.9,190.1,419.5,191.9,420,194.6z"/>
	<path class="st2" d="M446.3,190.8c0.2,2.7-1.7,5.2-4.4,5.5c-2.7,0.3-5.1-1.6-5.4-4.2c-0.3-2.7,1.6-5.2,4.4-5.5
		C443.7,186.2,446.1,188.1,446.3,190.8z"/>
	<path class="st2" d="M472.9,189.4c0,2.7-2.2,5-4.8,5c-2.7,0.1-4.9-2.1-5.1-4.8c-0.1-2.7,2.1-5,4.8-5
		C470.6,184.6,472.9,186.7,472.9,189.4z"/>
	<path class="st2" d="M499.5,190.3c-0.2,2.7-2.6,4.7-5.3,4.5c-2.7-0.2-4.7-2.3-4.6-5.1c0.1-2.7,2.5-4.9,5.3-4.7
		C497.6,185.2,499.7,187.6,499.5,190.3z"/>
	<path class="st2" d="M525.9,193.3c-0.5,2.7-3,4.4-5.6,4.2c-2.7-0.3-4.5-2.8-4.2-5.5c0.4-2.7,2.9-4.6,5.6-4.3
		C524.5,188,526.4,190.6,525.9,193.3z"/>
	<path class="st2" d="M551.9,198.7c-0.7,2.6-3.4,4.3-6,3.7c-2.6-0.6-4.2-3.2-3.6-5.9c0.6-2.6,3.3-4.3,6-3.7
		C551,193.4,552.6,196,551.9,198.7z"/>
	<path class="st2" d="M577.4,206.3c-0.9,2.6-3.7,3.9-6.3,3.1c-2.5-0.8-3.9-3.7-3.1-6.2c0.8-2.6,3.6-4,6.3-3.1
		C576.9,200.9,578.3,203.7,577.4,206.3z"/>
	<path class="st2" d="M602.1,216c-1.1,2.5-4,3.6-6.5,2.5c-2.4-1.1-3.6-3.8-2.6-6.4c1-2.5,4-3.8,6.5-2.6
		C602.1,210.6,603.2,213.5,602.1,216z"/>
	<path class="st2" d="M625.8,227.8c-1.4,2.4-4.3,3.2-6.7,1.9c-2.4-1.2-3.3-4.2-2-6.6c1.3-2.4,4.3-3.4,6.8-2.1
		C626.3,222.4,627.1,225.5,625.8,227.8z"/>
	<path class="st2" d="M648.4,241.6c-1.5,2.2-4.6,2.9-6.9,1.4c-2.2-1.4-2.9-4.5-1.4-6.8c1.5-2.3,4.5-3,6.9-1.5
		C649.4,236.3,650,239.4,648.4,241.6z"/>
	<path class="st2" d="M669.7,257.4c-1.7,2.1-4.9,2.5-6.9,0.8c-2.1-1.6-2.4-4.7-0.8-6.9c1.7-2.2,4.8-2.5,6.9-0.8
		C671.1,252.2,671.4,255.3,669.7,257.4z"/>
	<path class="st2" d="M689.5,274.9c-1.9,1.9-5,2-7,0.2c-1.9-1.8-2-5-0.1-7c1.8-2,4.9-2.1,6.9-0.2
		C691.3,269.8,691.4,272.9,689.5,274.9z"/>
	<path class="st2" d="M707.7,294c-2.1,1.8-5.2,1.6-6.9-0.4c-1.7-2.1-1.6-5.1,0.4-6.9c2-1.8,5.2-1.8,7,0.4
		C710,289,709.8,292.2,707.7,294z"/>
	<path class="st2" d="M724.1,314.5c-2.2,1.6-5.3,1.1-6.8-1.1c-1.6-2.1-1.2-5.2,0.9-6.8c2.2-1.7,5.3-1.3,7,0.9
		C726.9,309.8,726.4,312.9,724.1,314.5z"/>
	<path class="st2" d="M738.7,336.4c-2.3,1.4-5.3,0.6-6.8-1.6c-1.4-2.2-0.7-5.3,1.6-6.8c2.3-1.5,5.4-0.8,6.8,1.6
		C741.9,331.9,741.1,335,738.7,336.4z"/>
	<path class="st2" d="M751.4,359.5c-2.5,1.2-5.4,0.2-6.6-2.2c-1.2-2.4-0.2-5.3,2.2-6.6c2.4-1.3,5.4-0.3,6.6,2.2
		C754.8,355.3,753.8,358.3,751.4,359.5z"/>
	<path class="st2" d="M761.8,383.6c-2.5,1-5.4-0.3-6.4-2.8c-1-2.5,0.3-5.4,2.8-6.4c2.5-1.1,5.4,0.2,6.3,2.8
		C765.6,379.7,764.3,382.6,761.8,383.6z"/>
	<path class="st2" d="M770.1,408.4c-2.6,0.7-5.3-0.7-6-3.3c-0.7-2.6,0.7-5.3,3.3-6.1c2.6-0.8,5.4,0.6,6.1,3.3
		C774.2,404.9,772.7,407.7,770.1,408.4z"/>
	<path class="st2" d="M776.1,434c-2.7,0.5-5.2-1.2-5.7-3.8c-0.6-2.6,1.1-5.2,3.8-5.8c2.6-0.6,5.3,1.1,5.9,3.8
		C780.6,430.8,778.8,433.5,776.1,434z"/>
	<path class="st2" d="M780,459.9c-2.7,0.3-5.2-1.7-5.5-4.3c-0.3-2.7,1.6-5.1,4.3-5.5c2.7-0.4,5.1,1.6,5.5,4.3
		C784.6,457.1,782.7,459.6,780,459.9z"/>
	<path class="st2" d="M781.3,486c-2.7,0-5-2.1-5-4.8c0-2.7,2.1-5,4.8-5.1c2.7-0.1,4.9,2,5,4.8C786.2,483.7,784,486,781.3,486z"/>
	<path class="st2" d="M753.4,512c-2.7-0.2-4.7-2.5-4.5-5.2c0.3-2.6,2.5-4.7,5.2-4.6c2.7,0.1,4.9,2.4,4.6,5.2
		C758.5,510.1,756.1,512.2,753.4,512z"/>
	<path class="st2" d="M750,537.8c-2.7-0.5-4.4-3-3.9-5.6c0.5-2.6,2.9-4.5,5.6-4.1c2.7,0.4,4.6,2.9,4.1,5.6
		C755.3,536.4,752.7,538.3,750,537.8z"/>
	<path class="st2" d="M744.2,563.2c-2.6-0.7-4.1-3.4-3.4-5.9c0.6-2.6,3.3-4.2,5.9-3.6c2.6,0.6,4.2,3.3,3.6,6
		C749.5,562.3,746.8,563.9,744.2,563.2z"/>
	<path class="st2" d="M735.9,587.9c-2.5-1-3.7-3.7-2.8-6.3c0.9-2.5,3.7-3.9,6.2-3c2.6,0.9,3.9,3.7,3,6.3
		C741.3,587.6,738.4,588.9,735.9,587.9z"/>
	<path class="st2" d="M725.2,611.7c-2.4-1.2-3.3-4.1-2.2-6.5c1.1-2.4,4-3.5,6.5-2.4c2.5,1.1,3.5,4,2.4,6.6
		C730.7,611.9,727.6,612.9,725.2,611.7z"/>
	<path class="st2" d="M712.3,634.4c-2.3-1.4-2.9-4.4-1.6-6.7c1.3-2.3,4.3-3.1,6.7-1.8c2.3,1.3,3.1,4.4,1.7,6.8
		C717.7,635.2,714.5,635.8,712.3,634.4z"/>
	<path class="st2" d="M697.2,655.8c-2.1-1.7-2.5-4.6-1-6.8c1.6-2.2,4.6-2.7,6.8-1.1c2.2,1.6,2.7,4.6,1,6.9
		C702.5,657.1,699.3,657.5,697.2,655.8z"/>
	<path class="st2" d="M680.2,675.7c-2-1.8-2-4.9-0.3-6.9c1.8-2,4.9-2.2,6.9-0.5c2,1.8,2.2,4.9,0.4,7
		C685.3,677.5,682.1,677.6,680.2,675.7z"/>
	<path class="st2" d="M661.3,693.9c-1.8-2-1.6-5.1,0.3-6.9c1.9-1.8,5-1.8,6.9,0.2c1.9,1.9,1.7,5.1-0.3,7
		C666.3,696.1,663.1,696,661.3,693.9z"/>
	<path class="st2" d="M640.7,710.3c-1.6-2.2-1.1-5.2,1-6.9c2.1-1.6,5.2-1.3,6.8,0.8c1.7,2.1,1.3,5.2-0.9,6.9
		C645.5,713,642.3,712.5,640.7,710.3z"/>
	<path class="st2" d="M618.7,724.7c-1.4-2.3-0.6-5.3,1.6-6.8c2.3-1.4,5.3-0.8,6.7,1.5c1.5,2.3,0.7,5.3-1.6,6.8
		C623.1,727.8,620.1,727,618.7,724.7z"/>
	<path class="st2" d="M595.4,737c-1.1-2.4-0.1-5.4,2.3-6.6c2.4-1.2,5.3-0.3,6.6,2.1c1.2,2.4,0.2,5.4-2.2,6.6
		C599.5,740.4,596.5,739.4,595.4,737z"/>
	<path class="st2" d="M571,747c-0.9-2.5,0.4-5.4,2.9-6.4c2.5-1,5.3,0.3,6.3,2.8c1,2.5-0.3,5.4-2.9,6.4
		C574.7,750.8,571.9,749.5,571,747z"/>
	<path class="st2" d="M545.7,754.6c-0.6-2.6,0.9-5.4,3.5-6.1c2.6-0.7,5.3,0.8,6,3.4c0.8,2.6-0.8,5.3-3.5,6.1
		C549,758.8,546.3,757.2,545.7,754.6z"/>
	<path class="st2" d="M519.8,759.8c-0.4-2.7,1.4-5.2,4-5.7c2.6-0.5,5.2,1.3,5.7,4c0.5,2.7-1.3,5.2-4,5.7
		C522.7,764.3,520.2,762.5,519.8,759.8z"/>
	<path class="st2" d="M493.5,762.6c-0.1-2.7,1.9-5.1,4.6-5.3c2.7-0.2,5,1.8,5.3,4.5c0.2,2.7-1.8,5.1-4.6,5.3
		C496,767.3,493.6,765.3,493.5,762.6z"/>
	<path class="st2" d="M467.1,762.9c0.1-2.7,2.4-4.9,5-4.8c2.7,0.1,4.8,2.3,4.8,5c0,2.7-2.3,4.9-5,4.9
		C469.1,767.9,466.9,765.6,467.1,762.9z"/>
	<path class="st2" d="M440.7,760.8c0.4-2.7,2.8-4.6,5.4-4.3c2.6,0.4,4.6,2.6,4.3,5.3c-0.3,2.7-2.7,4.8-5.5,4.4
		C442.3,765.9,440.3,763.5,440.7,760.8z"/>
	<path class="st2" d="M414.7,756.2c0.6-2.6,3.2-4.3,5.8-3.7c2.6,0.5,4.3,3,3.8,5.7c-0.5,2.7-3.1,4.5-5.9,3.9
		C415.7,761.5,414.1,758.9,414.7,756.2z"/>
	<path class="st2" d="M389.2,749.3c0.9-2.6,3.6-3.9,6.2-3.2c2.5,0.7,4,3.4,3.2,6c-0.8,2.6-3.5,4.1-6.2,3.4
		C389.7,754.7,388.3,751.8,389.2,749.3z"/>
	<path class="st2" d="M364.5,739.9c1.1-2.5,4-3.6,6.4-2.6c2.5,1,3.6,3.8,2.6,6.3c-1,2.5-3.9,3.8-6.5,2.7
		C364.5,745.4,363.4,742.3,364.5,739.9z"/>
	<path class="st2" d="M340.9,728.3c1.4-2.4,4.3-3.1,6.6-2c2.4,1.2,3.2,4.1,2,6.6c-1.2,2.4-4.3,3.4-6.7,2.1
		C340.3,733.7,339.5,730.6,340.9,728.3z"/>
	<path class="st2" d="M318.5,714.5c1.6-2.2,4.5-2.7,6.8-1.4c2.2,1.4,2.8,4.5,1.4,6.7c-1.5,2.3-4.6,2.9-6.9,1.5
		C317.4,719.9,316.9,716.7,318.5,714.5z"/>
	<path class="st2" d="M297.5,698.6c1.8-2.1,4.8-2.3,6.9-0.7c2.1,1.6,2.4,4.7,0.7,6.9c-1.7,2.1-4.8,2.5-7,0.8
		C295.9,703.9,295.7,700.7,297.5,698.6z"/>
	<path class="st2" d="M278.1,680.9c2-1.9,5-1.9,6.9-0.1c1.9,1.8,1.9,4.9,0.1,6.9c-1.9,2-5,2-7,0.1
		C276.1,686,276.1,682.8,278.1,680.9z"/>
	<path class="st2" d="M260.5,661.5c2.1-1.7,5.2-1.4,6.9,0.6c1.7,2,1.4,5.1-0.6,6.9c-2.1,1.8-5.2,1.6-7-0.5
		C258,666.3,258.4,663.2,260.5,661.5z"/>
	<path class="st2" d="M244.9,640.5c2.3-1.5,5.3-0.9,6.8,1.2c1.5,2.2,1,5.2-1.3,6.8c-2.2,1.6-5.3,1.1-6.9-1.2
		C241.9,645.1,242.6,642,244.9,640.5z"/>
	<path class="st2" d="M231.3,618.1c2.4-1.3,5.3-0.4,6.7,1.9c1.3,2.3,0.5,5.3-1.9,6.7c-2.3,1.4-5.4,0.6-6.7-1.8
		C228,622.4,228.9,619.4,231.3,618.1z"/>
	<path class="st2" d="M220,594.6c2.5-1,5.4,0.1,6.5,2.5c1.1,2.4-0.1,5.3-2.5,6.5c-2.5,1.2-5.4,0-6.5-2.5
		C216.3,598.5,217.4,595.6,220,594.6z"/>
	<path class="st2" d="M211,570.1c2.6-0.8,5.4,0.6,6.2,3.1c0.8,2.5-0.6,5.3-3.2,6.2c-2.6,0.9-5.4-0.5-6.2-3.1
		C207,573.7,208.4,570.9,211,570.1z"/>
	<path class="st2" d="M204.4,544.8c2.7-0.6,5.3,1.1,5.9,3.7c0.6,2.6-1.1,5.2-3.7,5.9c-2.6,0.7-5.3-1-5.9-3.7
		C200.1,548,201.8,545.4,204.4,544.8z"/>
	<path class="st2" d="M200.4,519.1c2.7-0.3,5.1,1.6,5.5,4.2c0.3,2.6-1.6,5.1-4.3,5.5c-2.7,0.4-5.1-1.5-5.5-4.2
		C195.8,521.9,197.7,519.4,200.4,519.1z"/>
	<path class="st2" d="M198.8,493.1c2.7,0,5,2.1,5,4.7c0,2.7-2.1,4.9-4.8,5.1c-2.7,0.2-4.9-2-5-4.7S196.1,493.2,198.8,493.1z"/>
	<path class="st2" d="M199.7,467.1c2.7,0.2,4.7,2.5,4.5,5.2c-0.3,2.6-2.5,4.7-5.2,4.6c-2.7-0.1-4.9-2.4-4.6-5.2
		C194.6,469,197,466.9,199.7,467.1z"/>
	<path class="st2" d="M203.1,441.3c2.7,0.5,4.4,3,3.9,5.6c-0.5,2.6-2.9,4.5-5.6,4.1c-2.7-0.3-4.6-2.9-4.1-5.6
		C197.9,442.7,200.4,440.8,203.1,441.3z"/>
	<path class="st2" d="M209,415.9c2.6,0.7,4.1,3.4,3.4,5.9c-0.6,2.6-3.3,4.2-5.9,3.6c-2.6-0.6-4.2-3.3-3.6-6
		C203.6,416.8,206.4,415.2,209,415.9z"/>
	<path class="st2" d="M217.2,391.2c2.5,1,3.7,3.7,2.8,6.3c-0.9,2.5-3.7,3.9-6.2,3c-2.6-0.9-3.9-3.7-3-6.3
		C211.8,391.5,214.8,390.2,217.2,391.2z"/>
	<path class="st2" d="M227.9,367.4c2.4,1.2,3.3,4.1,2.2,6.5c-1.1,2.4-4,3.5-6.5,2.4c-2.5-1.1-3.5-4-2.4-6.6
		C222.4,367.2,225.5,366.2,227.9,367.4z"/>
	<path class="st2" d="M240.8,344.7c2.3,1.4,2.9,4.4,1.6,6.7c-1.3,2.3-4.3,3.1-6.7,1.8c-2.3-1.3-3.1-4.4-1.7-6.8
		C235.4,343.9,238.6,343.3,240.8,344.7z"/>
	<path class="st2" d="M255.9,323.3c2.1,1.7,2.5,4.6,1,6.8c-1.6,2.2-4.6,2.7-6.8,1.1c-2.2-1.5-2.7-4.6-1-6.9
		C250.6,322,253.8,321.6,255.9,323.3z"/>
	<path class="st2" d="M273,303.4c2,1.8,2,4.9,0.3,6.9c-1.8,2-4.9,2.2-6.9,0.5c-2-1.8-2.2-4.9-0.4-7C267.8,301.7,271,301.6,273,303.4
		z"/>
	<path class="st2" d="M291.8,285.2c1.8,2,1.6,5.1-0.3,6.9c-1.9,1.8-5,1.8-6.9-0.2c-1.9-1.9-1.7-5.1,0.3-7
		C286.9,283,290.1,283.1,291.8,285.2z"/>
	<path class="st2" d="M312.4,268.8c1.6,2.2,1.1,5.2-1,6.9c-2.1,1.6-5.2,1.3-6.8-0.8c-1.7-2.1-1.3-5.2,0.9-6.9
		C307.7,266.1,310.8,266.6,312.4,268.8z"/>
	<path class="st2" d="M334.4,254.4c1.4,2.3,0.6,5.3-1.6,6.8c-2.3,1.4-5.3,0.8-6.7-1.5c-1.5-2.3-0.7-5.3,1.6-6.8
		C330,251.3,333.1,252.1,334.4,254.4z"/>
	<path class="st2" d="M357.8,242.1c1.1,2.4,0.1,5.4-2.3,6.6c-2.4,1.2-5.3,0.3-6.6-2.1c-1.2-2.4-0.2-5.4,2.2-6.6
		C353.7,238.7,356.6,239.7,357.8,242.1z"/>
	<path class="st2" d="M382.2,232.1c0.9,2.5-0.4,5.4-2.9,6.4c-2.5,1-5.3-0.3-6.3-2.8c-1-2.5,0.3-5.4,2.9-6.4
		C378.4,228.3,381.3,229.6,382.2,232.1z"/>
	<path class="st2" d="M407.4,224.5c0.6,2.6-0.9,5.4-3.5,6.1c-2.6,0.7-5.3-0.8-6-3.4c-0.8-2.6,0.8-5.3,3.5-6.1
		C404.1,220.3,406.8,221.9,407.4,224.5z"/>
	<path class="st2" d="M433.3,219.3c0.4,2.7-1.4,5.2-4,5.7c-2.6,0.5-5.2-1.3-5.7-4c-0.5-2.7,1.3-5.2,4-5.7
		C430.4,214.8,433,216.6,433.3,219.3z"/>
	<path class="st2" d="M459.6,216.5c0.1,2.7-1.9,5.1-4.6,5.3c-2.7,0.2-5-1.8-5.3-4.5c-0.2-2.7,1.8-5.1,4.6-5.3
		C457.1,211.8,459.5,213.8,459.6,216.5z"/>
	<path class="st2" d="M486.1,216.2c-0.1,2.7-2.4,4.9-5,4.8c-2.7-0.1-4.8-2.3-4.8-5c0-2.7,2.3-4.9,5-4.9
		C484,211.2,486.2,213.5,486.1,216.2z"/>
	<path class="st2" d="M512.4,218.3c-0.4,2.7-2.8,4.6-5.5,4.3c-2.6-0.4-4.6-2.6-4.3-5.3c0.3-2.7,2.7-4.8,5.5-4.4
		C510.9,213.2,512.8,215.6,512.4,218.3z"/>
	<path class="st2" d="M538.5,222.9c-0.6,2.6-3.2,4.3-5.8,3.7c-2.6-0.5-4.3-3-3.8-5.7c0.5-2.7,3.1-4.5,5.9-3.9
		C537.4,217.6,539.1,220.2,538.5,222.9z"/>
	<path class="st2" d="M563.9,229.8c-0.9,2.6-3.6,3.9-6.2,3.2c-2.6-0.7-4-3.4-3.2-6c0.8-2.6,3.5-4.1,6.2-3.4
		C563.4,224.4,564.8,227.3,563.9,229.8z"/>
	<path class="st2" d="M588.6,239.2c-1.1,2.5-4,3.6-6.4,2.6c-2.5-1-3.6-3.8-2.6-6.3c1-2.5,3.9-3.8,6.5-2.7
		C588.6,233.7,589.7,236.8,588.6,239.2z"/>
	<path class="st2" d="M612.3,250.8c-1.4,2.4-4.3,3.1-6.6,2c-2.4-1.2-3.2-4.1-2-6.6c1.3-2.4,4.3-3.4,6.7-2.1
		C612.8,245.4,613.6,248.5,612.3,250.8z"/>
	<path class="st2" d="M634.7,264.6c-1.6,2.2-4.6,2.7-6.8,1.4c-2.2-1.4-2.8-4.5-1.4-6.7c1.5-2.3,4.5-2.9,6.9-1.5
		C635.7,259.3,636.2,262.4,634.7,264.6z"/>
	<path class="st2" d="M655.7,280.5c-1.8,2.1-4.8,2.3-6.9,0.7c-2.1-1.6-2.4-4.7-0.7-6.9c1.7-2.1,4.8-2.5,7-0.8
		C657.2,275.2,657.4,278.4,655.7,280.5z"/>
	<path class="st2" d="M675,298.2c-2,1.9-5,1.9-6.9,0.1c-1.9-1.8-1.9-4.9-0.1-6.9c1.9-2,5-2,7-0.1C677.1,293.1,677,296.3,675,298.2z"
		/>
	<path class="st2" d="M692.6,317.6c-2.1,1.7-5.1,1.4-6.9-0.6c-1.7-2-1.4-5.1,0.6-6.9c2.1-1.8,5.2-1.6,7,0.5
		C695.1,312.8,694.8,315.9,692.6,317.6z"/>
	<path class="st2" d="M708.3,338.6c-2.3,1.5-5.3,0.9-6.8-1.2c-1.5-2.2-1-5.2,1.3-6.8c2.2-1.6,5.3-1.1,6.9,1.2
		C711.2,334,710.6,337.1,708.3,338.6z"/>
	<path class="st2" d="M721.8,361c-2.4,1.3-5.3,0.4-6.7-1.9c-1.3-2.3-0.4-5.3,1.9-6.7c2.3-1.4,5.4-0.6,6.7,1.8
		C725.2,356.7,724.3,359.7,721.8,361z"/>
	<path class="st2" d="M733.2,384.5c-2.5,1-5.4-0.1-6.5-2.5c-1.1-2.4,0.1-5.3,2.5-6.5c2.5-1.2,5.4,0,6.5,2.5
		C736.9,380.6,735.7,383.5,733.2,384.5z"/>
	<path class="st2" d="M742.2,409c-2.6,0.8-5.4-0.6-6.2-3.1c-0.8-2.5,0.6-5.3,3.2-6.2c2.6-0.9,5.3,0.5,6.2,3.1
		C746.2,405.4,744.8,408.2,742.2,409z"/>
	<path class="st2" d="M748.7,434.3c-2.7,0.6-5.3-1.1-5.9-3.7c-0.6-2.6,1.1-5.2,3.7-5.9c2.6-0.7,5.3,1,5.9,3.7
		C753,431.1,751.4,433.7,748.7,434.3z"/>
	<path class="st2" d="M752.8,460c-2.7,0.3-5.1-1.6-5.5-4.2c-0.3-2.6,1.6-5.1,4.3-5.5c2.7-0.4,5.1,1.5,5.5,4.2
		C757.4,457.2,755.5,459.7,752.8,460z"/>
	<path class="st2" d="M754.3,486c-2.7,0-5-2.1-5-4.7c0-2.7,2.1-4.9,4.8-5.1c2.7-0.2,4.9,2,5,4.7C759.2,483.6,757,485.9,754.3,486z"
		/>
	<path class="st2" d="M726.3,511.8c-2.7-0.2-4.7-2.6-4.5-5.2c0.2-2.6,2.6-4.7,5.3-4.6c2.7,0.1,4.8,2.4,4.5,5.2
		C731.4,510,729,512,726.3,511.8z"/>
	<path class="st2" d="M722.7,537.4c-2.7-0.5-4.4-3-3.9-5.6c0.5-2.6,3.1-4.4,5.7-4c2.7,0.4,4.4,2.9,3.9,5.6
		C727.9,536.1,725.3,537.9,722.7,537.4z"/>
	<path class="st2" d="M716.3,562.4c-2.6-0.8-4.1-3.5-3.3-6c0.7-2.5,3.5-4,6.1-3.4c2.6,0.7,4.1,3.4,3.3,6
		C721.6,561.7,718.9,563.2,716.3,562.4z"/>
	<path class="st2" d="M707.3,586.7c-2.4-1-3.7-3.9-2.7-6.4c1-2.5,3.9-3.7,6.4-2.7c2.5,0.9,3.7,3.8,2.7,6.4
		C712.6,586.6,709.8,587.8,707.3,586.7z"/>
	<path class="st2" d="M695.7,609.9c-2.4-1.3-3.1-4.2-2-6.6c1.2-2.3,4.2-3.3,6.6-2.1c2.4,1.2,3.3,4.2,2.1,6.6
		C701.1,610.4,698,611.2,695.7,609.9z"/>
	<path class="st2" d="M681.6,631.7c-2.2-1.6-2.7-4.5-1.2-6.7c1.4-2.2,4.5-2.8,6.7-1.4c2.3,1.4,2.9,4.5,1.4,6.8
		C687,632.8,683.8,633.3,681.6,631.7z"/>
	<path class="st2" d="M665.4,652.1c-2-1.8-2.3-4.8-0.5-6.8c1.8-2,4.7-2.4,6.9-0.7c2.1,1.7,2.5,4.9,0.6,6.9
		C670.6,653.6,667.4,653.8,665.4,652.1z"/>
	<path class="st2" d="M647.1,670.6c-1.8-2-1.8-5.1,0.2-6.9c1.9-1.8,5-1.8,6.9,0.1c1.9,1.9,1.9,5-0.1,6.9
		C652.1,672.7,649,672.6,647.1,670.6z"/>
	<path class="st2" d="M627,687.2c-1.6-2.2-1.2-5.2,0.9-6.9c2.1-1.6,5.2-1.3,6.9,0.8c1.7,2.1,1.3,5.2-0.9,6.9S628.6,689.4,627,687.2z
		"/>
	<path class="st2" d="M605.2,701.6c-1.4-2.3-0.6-5.3,1.6-6.8c2.2-1.4,5.2-0.7,6.7,1.5c1.5,2.3,0.8,5.3-1.6,6.8
		C609.6,704.7,606.6,704,605.2,701.6z"/>
	<path class="st2" d="M582,713.7c-1.1-2.5,0-5.3,2.3-6.5c2.4-1.2,5.3-0.2,6.5,2.2c1.2,2.4,0.2,5.4-2.2,6.6
		C586.1,717.3,583.1,716.1,582,713.7z"/>
	<path class="st2" d="M557.7,723.3c-0.9-2.6,0.5-5.3,3-6.2c2.5-1,5.2,0.3,6.2,2.8c1,2.5-0.3,5.4-2.9,6.4
		C561.3,727.2,558.5,725.9,557.7,723.3z"/>
	<path class="st2" d="M532.4,730.3c-0.6-2.6,1-5.3,3.6-5.9c2.6-0.6,5.2,0.8,5.9,3.5c0.7,2.6-0.9,5.4-3.6,6
		C535.6,734.6,533,733,532.4,730.3z"/>
	<path class="st2" d="M506.5,734.7c-0.3-2.7,1.6-5.2,4.2-5.5c2.6-0.3,5.1,1.4,5.5,4.1c0.4,2.7-1.4,5.3-4.2,5.6
		C509.3,739.3,506.8,737.4,506.5,734.7z"/>
	<path class="st2" d="M480.3,736.4c0-2.7,2.1-5,4.7-5c2.6,0,4.9,2,5,4.7c0.1,2.7-2,5.1-4.7,5.1C482.6,741.3,480.3,739.2,480.3,736.4
		z"/>
	<path class="st2" d="M454.1,735.5c0.3-2.7,2.6-4.7,5.2-4.5c2.6,0.2,4.6,2.5,4.5,5.2c-0.1,2.7-2.5,4.8-5.2,4.6
		C455.8,740.5,453.8,738.2,454.1,735.5z"/>
	<path class="st2" d="M428.1,731.9c0.5-2.7,3.1-4.5,5.7-4c2.6,0.5,4.3,3,3.9,5.7c-0.4,2.7-3,4.5-5.7,4
		C429.3,737.1,427.6,734.5,428.1,731.9z"/>
	<path class="st2" d="M402.6,725.6c0.8-2.6,3.5-4.1,6.1-3.4c2.5,0.7,4,3.4,3.3,6c-0.7,2.6-3.4,4.2-6.1,3.4
		C403.3,730.9,401.8,728.2,402.6,725.6z"/>
	<path class="st2" d="M378,716.7c1.1-2.5,4-3.7,6.4-2.8c2.4,1,3.6,3.8,2.7,6.3c-1,2.5-3.8,3.8-6.4,2.8
		C378.1,722,376.9,719.2,378,716.7z"/>
	<path class="st2" d="M354.4,705.2c1.4-2.4,4.3-3.2,6.6-2c2.3,1.2,3.2,4.1,2,6.6c-1.2,2.4-4.2,3.4-6.7,2.1
		C353.9,710.7,353.1,707.6,354.4,705.2z"/>
	<path class="st2" d="M332.2,691.5c1.6-2.2,4.6-2.8,6.8-1.3c2.2,1.4,2.8,4.4,1.3,6.7c-1.5,2.3-4.6,2.9-6.9,1.5
		C331.1,696.8,330.6,693.7,332.2,691.5z"/>
	<path class="st2" d="M311.6,675.5c1.8-2,4.9-2.3,6.9-0.6c2,1.7,2.3,4.7,0.6,6.8c-1.7,2.1-4.9,2.5-6.9,0.7
		C310,680.6,309.8,677.5,311.6,675.5z"/>
	<path class="st2" d="M292.7,657.5c2-1.8,5.1-1.8,6.9,0.1c1.8,1.9,1.7,5-0.2,6.9c-1.9,2-5.1,2-6.9-0.1
		C290.6,662.4,290.7,659.3,292.7,657.5z"/>
	<path class="st2" d="M275.9,637.6c2.2-1.6,5.3-1.3,6.9,0.8c1.6,2.1,1.2,5.1-0.9,6.9c-2.1,1.7-5.2,1.4-6.9-0.8
		C273.3,642.3,273.7,639.3,275.9,637.6z"/>
	<path class="st2" d="M261.2,616.2c2.3-1.4,5.3-0.7,6.7,1.5c1.4,2.2,0.7,5.2-1.6,6.7c-2.3,1.5-5.3,0.8-6.8-1.5
		C258.1,620.6,258.9,617.6,261.2,616.2z"/>
	<path class="st2" d="M249,593.3c2.5-1.2,5.3-0.1,6.5,2.2c1.2,2.3,0.2,5.3-2.2,6.5c-2.4,1.3-5.4,0.3-6.6-2.2
		C245.3,597.5,246.5,594.4,249,593.3z"/>
	<path class="st2" d="M239.2,569.3c2.6-0.9,5.3,0.4,6.2,2.9c0.9,2.4-0.4,5.2-2.9,6.2c-2.5,1-5.4-0.3-6.4-2.8
		C235.2,573,236.6,570.2,239.2,569.3z"/>
	<path class="st2" d="M232.1,544.4c2.7-0.6,5.3,1,5.8,3.5c0.6,2.6-0.9,5.2-3.6,5.9c-2.6,0.7-5.4-0.8-6-3.5
		C227.7,547.7,229.4,545,232.1,544.4z"/>
	<path class="st2" d="M227.6,519c2.7-0.3,5.1,1.5,5.4,4.1c0.3,2.6-1.5,5.1-4.2,5.5c-2.7,0.4-5.3-1.4-5.5-4.1
		C223,521.8,224.9,519.3,227.6,519z"/>
	<path class="st2" d="M225.8,493.2c2.7,0,5,2.1,5,4.7c0,2.6-2.1,4.9-4.8,5.1c-2.7,0.2-5.1-1.9-5.1-4.7
		C221,495.5,223.1,493.2,225.8,493.2z"/>
	<path class="st2" d="M226.8,467.3c2.7,0.2,4.7,2.6,4.5,5.2c-0.2,2.6-2.6,4.7-5.3,4.6c-2.7-0.1-4.8-2.4-4.5-5.2
		C221.7,469.2,224.1,467.1,226.8,467.3z"/>
	<path class="st2" d="M230.5,441.8c2.7,0.5,4.4,3,3.9,5.6c-0.5,2.6-3.1,4.4-5.7,4c-2.7-0.4-4.4-2.9-3.9-5.6
		C225.2,443,227.8,441.2,230.5,441.8z"/>
	<path class="st2" d="M236.8,416.7c2.6,0.8,4.1,3.5,3.3,6c-0.7,2.5-3.5,4-6.1,3.4c-2.6-0.7-4.1-3.4-3.3-6
		C231.5,417.4,234.3,415.9,236.8,416.7z"/>
	<path class="st2" d="M245.9,392.4c2.5,1,3.7,3.9,2.7,6.4c-1,2.5-3.9,3.7-6.4,2.7c-2.5-0.9-3.7-3.8-2.7-6.4
		C240.5,392.6,243.4,391.3,245.9,392.4z"/>
	<path class="st2" d="M257.5,369.2c2.4,1.3,3.1,4.2,2,6.6c-1.2,2.3-4.2,3.3-6.6,2.1c-2.4-1.2-3.3-4.2-2.1-6.6
		C252,368.7,255.1,367.9,257.5,369.2z"/>
	<path class="st2" d="M271.5,347.4c2.2,1.6,2.7,4.6,1.2,6.7c-1.4,2.2-4.5,2.8-6.7,1.4c-2.3-1.5-2.9-4.5-1.4-6.8
		C266.2,346.3,269.3,345.8,271.5,347.4z"/>
	<path class="st2" d="M287.7,327c2,1.8,2.3,4.8,0.5,6.8c-1.8,2-4.7,2.4-6.9,0.7c-2.1-1.7-2.5-4.9-0.6-6.9
		C282.6,325.5,285.7,325.3,287.7,327z"/>
	<path class="st2" d="M306,308.5c1.8,2,1.7,5.1-0.2,6.9c-1.9,1.8-5,1.8-6.9-0.1c-1.9-1.9-1.9-5,0.1-6.9
		C301,306.4,304.2,306.5,306,308.5z"/>
	<path class="st2" d="M326.1,291.9c1.6,2.2,1.2,5.2-0.9,6.9c-2.1,1.6-5.2,1.3-6.9-0.8c-1.7-2.1-1.3-5.2,0.9-6.9
		C321.4,289.4,324.5,289.7,326.1,291.9z"/>
	<path class="st2" d="M347.9,277.5c1.4,2.3,0.6,5.3-1.6,6.8c-2.2,1.4-5.2,0.8-6.7-1.5c-1.5-2.3-0.8-5.3,1.6-6.8
		C343.5,274.4,346.5,275.1,347.9,277.5z"/>
	<path class="st2" d="M371.1,265.4c1.1,2.5,0,5.3-2.3,6.5c-2.4,1.2-5.3,0.2-6.5-2.2c-1.2-2.4-0.2-5.4,2.2-6.6
		C367,261.8,370,263,371.1,265.4z"/>
	<path class="st2" d="M395.5,255.8c0.8,2.6-0.5,5.3-3,6.2c-2.5,1-5.2-0.3-6.2-2.8c-1-2.5,0.3-5.4,2.9-6.4
		C391.8,251.9,394.6,253.2,395.5,255.8z"/>
	<path class="st2" d="M420.7,248.8c0.6,2.6-1,5.3-3.6,5.9c-2.6,0.6-5.2-0.8-5.9-3.5c-0.7-2.6,0.9-5.4,3.6-6
		C417.5,244.5,420.2,246.1,420.7,248.8z"/>
	<path class="st2" d="M446.6,244.4c0.3,2.7-1.6,5.2-4.2,5.5c-2.6,0.3-5.1-1.4-5.5-4.1c-0.4-2.7,1.4-5.3,4.2-5.6
		C443.9,239.8,446.3,241.7,446.6,244.4z"/>
	<path class="st2" d="M472.8,242.7c0,2.7-2.1,5-4.8,5c-2.6,0-4.9-2-5-4.7c-0.1-2.7,2-5.1,4.7-5.1
		C470.5,237.8,472.8,239.9,472.8,242.7z"/>
	<path class="st2" d="M499,243.6c-0.3,2.7-2.6,4.7-5.2,4.5c-2.6-0.2-4.6-2.5-4.5-5.2c0.1-2.7,2.5-4.8,5.2-4.6
		C497.3,238.6,499.3,240.9,499,243.6z"/>
	<path class="st2" d="M525,247.2c-0.5,2.7-3.1,4.5-5.7,4c-2.6-0.4-4.3-3-3.9-5.7c0.4-2.7,3-4.5,5.7-4
		C523.8,242,525.6,244.6,525,247.2z"/>
	<path class="st2" d="M550.5,253.5c-0.8,2.6-3.5,4.1-6.1,3.4c-2.5-0.7-4-3.4-3.3-6.1c0.7-2.6,3.4-4.2,6.1-3.4
		C549.8,248.2,551.3,250.9,550.5,253.5z"/>
	<path class="st2" d="M575.2,262.4c-1.1,2.5-4,3.7-6.4,2.8c-2.4-1-3.6-3.8-2.6-6.3c1-2.5,3.8-3.8,6.4-2.8
		C575.1,257.1,576.3,259.9,575.2,262.4z"/>
	<path class="st2" d="M598.7,273.8c-1.3,2.4-4.3,3.2-6.6,2c-2.3-1.2-3.2-4.1-2-6.6c1.2-2.4,4.2-3.4,6.7-2.1
		C599.2,268.4,600,271.5,598.7,273.8z"/>
	<path class="st2" d="M620.9,287.6c-1.6,2.2-4.6,2.8-6.8,1.3c-2.2-1.4-2.8-4.4-1.3-6.7c1.5-2.3,4.6-2.9,6.9-1.5
		C622,282.3,622.5,285.4,620.9,287.6z"/>
	<path class="st2" d="M641.5,303.6c-1.8,2-4.9,2.3-6.9,0.6c-2-1.7-2.3-4.7-0.6-6.8c1.7-2.1,4.9-2.5,7-0.7
		C643.1,298.5,643.3,301.6,641.5,303.6z"/>
	<path class="st2" d="M660.4,321.6c-2,1.8-5.1,1.8-6.9-0.1c-1.8-1.9-1.7-5,0.2-6.9c1.9-2,5.1-2,6.9,0.1
		C662.5,316.7,662.4,319.8,660.4,321.6z"/>
	<path class="st2" d="M677.2,341.5c-2.2,1.6-5.3,1.3-6.9-0.8c-1.6-2.1-1.2-5.1,0.9-6.9c2.1-1.7,5.2-1.4,6.9,0.8
		C679.8,336.7,679.4,339.8,677.2,341.5z"/>
	<path class="st2" d="M691.9,362.9c-2.3,1.4-5.3,0.7-6.7-1.5c-1.4-2.2-0.7-5.2,1.6-6.7c2.3-1.5,5.3-0.8,6.8,1.5
		C695,358.5,694.3,361.5,691.9,362.9z"/>
	<path class="st2" d="M704.2,385.8c-2.5,1.2-5.3,0.1-6.5-2.2c-1.2-2.3-0.2-5.3,2.3-6.5c2.4-1.3,5.4-0.3,6.6,2.2
		C707.8,381.6,706.6,384.7,704.2,385.8z"/>
	<path class="st2" d="M713.9,409.8c-2.6,0.9-5.3-0.4-6.2-2.9c-0.9-2.4,0.4-5.2,2.9-6.2c2.5-1,5.4,0.3,6.4,2.8
		C717.9,406.1,716.5,408.9,713.9,409.8z"/>
	<path class="st2" d="M721.1,434.7c-2.6,0.6-5.3-1-5.8-3.5c-0.6-2.6,0.9-5.2,3.6-5.9c2.6-0.7,5.4,0.8,6,3.5
		C725.4,431.4,723.7,434,721.1,434.7z"/>
	<path class="st2" d="M725.6,460.1c-2.7,0.3-5.1-1.5-5.4-4.1c-0.3-2.6,1.5-5.1,4.2-5.5c2.7-0.4,5.3,1.4,5.5,4.1
		C730.2,457.3,728.2,459.8,725.6,460.1z"/>
	<path class="st2" d="M727.3,485.9c-2.7,0-5-2-5-4.7c0-2.6,2.1-4.9,4.8-5.1c2.7-0.2,5.1,1.9,5.1,4.7
		C732.2,483.6,730,485.9,727.3,485.9z"/>
	<path class="st2" d="M699.2,511.9c-2.7-0.3-4.7-2.6-4.5-5.3c0.2-2.6,2.6-4.7,5.3-4.6c2.7,0.1,4.7,2.5,4.5,5.3
		C704.3,510.1,701.9,512.2,699.2,511.9z"/>
	<path class="st2" d="M695,537.7c-2.7-0.6-4.2-3.1-3.7-5.8c0.5-2.6,3.1-4.4,5.7-3.9c2.7,0.4,4.4,3,3.9,5.8
		C700.4,536.5,697.6,538.2,695,537.7z"/>
	<path class="st2" d="M687.7,562.8c-2.5-0.9-3.9-3.7-3-6.2c0.9-2.5,3.6-4,6.2-3.2c2.6,0.8,4.1,3.6,3.1,6.2
		C693.1,562.2,690.2,563.7,687.7,562.8z"/>
	<path class="st2" d="M677.4,586.8c-2.4-1.2-3.4-4.1-2.3-6.5c1.1-2.4,4-3.5,6.5-2.4c2.5,1.1,3.5,4,2.4,6.5
		C682.9,587,679.9,588,677.4,586.8z"/>
	<path class="st2" d="M664.3,609.5c-2.3-1.5-2.9-4.5-1.5-6.7c1.4-2.2,4.4-3.1,6.7-1.7c2.3,1.3,3.1,4.4,1.6,6.8
		C669.6,610.3,666.6,611,664.3,609.5z"/>
	<path class="st2" d="M648.6,630.6c-2-1.7-2.4-4.8-0.7-6.9c1.7-2.1,4.8-2.5,6.9-0.8c2.2,1.6,2.5,4.7,0.7,6.9
		C653.8,631.9,650.7,632.3,648.6,630.6z"/>
	<path class="st2" d="M630.4,649.6c-1.8-2-1.8-5,0.2-6.9c1.9-1.9,4.9-2,6.9-0.1c1.9,1.9,2,5,0,7
		C635.4,651.6,632.3,651.5,630.4,649.6z"/>
	<path class="st2" d="M610.2,666.4c-1.6-2.2-1.2-5.3,0.9-6.9c2.1-1.6,5.2-1.3,6.9,0.8c1.7,2.1,1.3,5.2-0.9,6.9
		C614.9,668.9,611.8,668.6,610.2,666.4z"/>
	<path class="st2" d="M588,680.7c-1.3-2.4-0.5-5.3,1.8-6.7c2.2-1.4,5.3-0.8,6.7,1.5c1.4,2.3,0.7,5.3-1.7,6.9
		C592.4,683.8,589.3,683,588,680.7z"/>
	<path class="st2" d="M564.3,692.4c-1-2.5,0.1-5.4,2.5-6.5c2.4-1.1,5.4,0,6.5,2.4c1.2,2.5,0,5.4-2.5,6.5
		C568.2,696,565.3,694.9,564.3,692.4z"/>
	<path class="st2" d="M539.3,701.1c-0.7-2.6,0.8-5.2,3.3-6.1c2.5-0.9,5.3,0.5,6.1,3.1c0.9,2.6-0.6,5.4-3.2,6.3
		C542.8,705.3,540,703.7,539.3,701.1z"/>
	<path class="st2" d="M513.5,706.9c-0.4-2.7,1.4-5.2,4-5.7c2.6-0.4,5.2,1.2,5.7,3.8c0.6,2.6-1.2,5.4-4,5.8
		C516.4,711.4,513.9,709.6,513.5,706.9z"/>
	<path class="st2" d="M487.1,709.7c-0.1-2.7,2-5.1,4.6-5.3c2.6-0.2,5,1.8,5.2,4.5c0.2,2.7-1.8,5.1-4.6,5.3
		C489.5,714.4,487.2,712.4,487.1,709.7z"/>
	<path class="st2" d="M460.6,709.3c0.2-2.7,2.5-4.7,5.2-4.6c2.7,0.1,4.7,2.3,4.7,5c-0.1,2.7-2.4,4.9-5.2,4.8
		C462.4,714.4,460.4,712,460.6,709.3z"/>
	<path class="st2" d="M434.3,705.9c0.5-2.7,3.1-4.5,5.7-4c2.6,0.5,4.4,2.9,4,5.6c-0.4,2.7-3,4.6-5.7,4.1
		C435.5,711.2,433.7,708.6,434.3,705.9z"/>
	<path class="st2" d="M408.6,699.5c0.8-2.6,3.6-4.1,6.1-3.3c2.5,0.7,4,3.4,3.3,6.1c-0.7,2.6-3.5,4.1-6.2,3.4
		C409.2,704.9,407.7,702.2,408.6,699.5z"/>
	<path class="st2" d="M383.8,690.1c1.2-2.5,4-3.6,6.4-2.5c2.4,1,3.6,3.8,2.6,6.3c-1,2.5-4,3.8-6.5,2.7
		C383.8,695.5,382.7,692.6,383.8,690.1z"/>
	<path class="st2" d="M360.4,677.9c1.4-2.3,4.5-3.1,6.7-1.8c2.3,1.3,3.1,4.3,1.8,6.7c-1.3,2.4-4.3,3.2-6.7,1.8
		C359.7,683.2,359,680.2,360.4,677.9z"/>
	<path class="st2" d="M338.6,663c1.7-2.1,4.7-2.5,6.8-0.9c2.1,1.5,2.6,4.6,1,6.8c-1.6,2.2-4.7,2.7-7,1.1
		C337.3,668.3,336.9,665.1,338.6,663z"/>
	<path class="st2" d="M318.7,645.7c1.9-1.9,5.1-2,7-0.2c1.9,1.8,1.9,5,0.1,7c-1.9,2-5,2.1-7,0.2
		C316.9,650.8,316.8,647.6,318.7,645.7z"/>
	<path class="st2" d="M301.1,626.2c2.2-1.7,5.2-1.3,6.9,0.7c1.7,2,1.4,5.1-0.6,6.9c-2.1,1.8-5.2,1.5-7-0.6
		C298.6,631.1,299,627.9,301.1,626.2z"/>
	<path class="st2" d="M285.9,604.8c2.3-1.4,5.4-0.8,6.8,1.5c1.4,2.2,0.7,5.3-1.5,6.8c-2.3,1.6-5.3,0.9-6.8-1.4
		C282.9,609.3,283.5,606.3,285.9,604.8z"/>
	<path class="st2" d="M273.3,581.8c2.5-1.2,5.3-0.1,6.5,2.3c1.2,2.4,0.2,5.3-2.2,6.6c-2.4,1.3-5.4,0.3-6.6-2.2
		C269.7,586,270.9,582.9,273.3,581.8z"/>
	<path class="st2" d="M263.7,557.5c2.6-0.8,5.4,0.5,6.2,3c0.8,2.5-0.5,5.3-3,6.3c-2.5,1-5.5-0.3-6.3-3
		C259.7,561.2,261.1,558.3,263.7,557.5z"/>
	<path class="st2" d="M257,532.2c2.6-0.5,5.2,1.2,5.8,3.7c0.6,2.6-1.1,5.2-3.7,5.9c-2.6,0.7-5.3-1-5.9-3.7
		C252.6,535.4,254.3,532.8,257,532.2z"/>
	<path class="st2" d="M253.5,506.3c2.7-0.2,5.1,1.8,5.2,4.4c0.3,2.6-1.6,5-4.3,5.4c-2.7,0.4-5.2-1.6-5.5-4.4
		C248.7,509,250.8,506.6,253.5,506.3z"/>
	<path class="st2" d="M253,480.2c2.7,0.1,4.8,2.3,4.7,5c-0.1,2.7-2.3,4.8-5,4.9c-2.7,0-4.9-2.2-4.8-5
		C248,482.3,250.3,480.1,253,480.2z"/>
	<path class="st2" d="M255.6,454.3c2.6,0.4,4.5,2.9,4.1,5.5c-0.4,2.6-2.8,4.5-5.5,4.2c-2.7-0.3-4.6-2.8-4.2-5.5
		C250.4,455.7,252.9,453.8,255.6,454.3z"/>
	<path class="st2" d="M261.4,428.8c2.6,0.7,4.1,3.4,3.4,6c-0.6,2.6-3.3,4.2-5.9,3.6c-2.6-0.6-4.3-3.3-3.6-6
		C256.1,429.6,258.8,428,261.4,428.8z"/>
	<path class="st2" d="M270.2,404.1c2.5,1,3.7,3.9,2.7,6.4c-1,2.5-3.9,3.7-6.4,2.8c-2.6-0.9-3.8-3.8-2.7-6.4
		C264.8,404.4,267.7,403.1,270.2,404.1z"/>
	<path class="st2" d="M281.9,380.7c2.4,1.3,3.1,4.3,1.9,6.6c-1.2,2.4-4.2,3.3-6.6,2.1c-2.4-1.2-3.3-4.2-2-6.7
		C276.5,380.3,279.6,379.4,281.9,380.7z"/>
	<path class="st2" d="M296.4,358.8c2.2,1.6,2.7,4.7,1.1,6.8c-1.6,2.1-4.6,2.7-6.8,1.3c-2.3-1.5-2.8-4.6-1.1-6.9
		C291.1,357.8,294.2,357.2,296.4,358.8z"/>
	<path class="st2" d="M313.3,338.8c2,1.9,2,4.9,0.3,6.9c-1.8,2-4.9,2.2-6.9,0.5c-2.1-1.7-2.2-4.9-0.4-7
		C308.1,337,311.4,337,313.3,338.8z"/>
	<path class="st2" d="M332.6,320.8c1.7,2.1,1.5,5.2-0.5,6.9c-2.1,1.7-5.1,1.6-6.9-0.4c-1.8-2-1.7-5.2,0.5-7
		C327.7,318.6,330.9,318.8,332.6,320.8z"/>
	<path class="st2" d="M353.8,305.2c1.5,2.3,0.8,5.2-1.3,6.8c-2.2,1.5-5.2,1-6.8-1.2c-1.6-2.2-1-5.3,1.3-6.9
		C349.2,302.3,352.4,303,353.8,305.2z"/>
	<path class="st2" d="M376.8,292.2c1.2,2.4,0.2,5.4-2.2,6.6c-2.4,1.2-5.3,0.4-6.6-2c-1.3-2.3-0.4-5.5,2.1-6.7
		C372.7,288.9,375.6,289.8,376.8,292.2z"/>
	<path class="st2" d="M401.2,282c0.9,2.5-0.4,5.4-2.9,6.4c-2.5,1-5.3-0.3-6.3-2.8c-1-2.5,0.3-5.4,2.9-6.4
		C397.5,278.1,400.3,279.4,401.2,282z"/>
	<path class="st2" d="M426.7,274.7c0.6,2.6-1.1,5.3-3.7,5.9c-2.6,0.7-5.2-0.8-5.9-3.4c-0.7-2.6,0.9-5.4,3.6-6.1
		C423.4,270.4,426.1,272.1,426.7,274.7z"/>
	<path class="st2" d="M452.8,270.4c0.3,2.7-1.7,5.2-4.3,5.5c-2.6,0.3-5.1-1.6-5.5-4.2c-0.4-2.7,1.5-5.1,4.3-5.5
		C450.1,265.8,452.6,267.7,452.8,270.4z"/>
	<path class="st2" d="M479.3,269.2c-0.1,2.7-2.3,4.8-4.9,4.9c-2.7,0.1-4.9-2.1-4.9-4.8c-0.1-2.7,2.1-5,4.9-5
		C477.2,264.2,479.4,266.5,479.3,269.2z"/>
	<path class="st2" d="M505.8,271.1c-0.4,2.7-2.8,4.6-5.4,4.3c-2.6-0.3-4.6-2.6-4.4-5.3c0.2-2.7,2.7-4.8,5.5-4.5
		C504.2,265.9,506.1,268.4,505.8,271.1z"/>
	<path class="st2" d="M531.8,276c-0.7,2.6-3.4,4.3-5.9,3.7c-2.6-0.6-4.2-3.2-3.7-5.9c0.6-2.7,3.2-4.3,5.9-3.7
		C530.9,270.7,532.5,273.3,531.8,276z"/>
	<path class="st2" d="M557.1,283.9c-1,2.6-3.8,3.7-6.3,2.9c-2.5-0.8-3.8-3.6-3-6.2c0.9-2.6,3.7-3.9,6.4-3.1
		C556.8,278.4,558.1,281.4,557.1,283.9z"/>
	<path class="st2" d="M581.2,294.8c-1.3,2.4-4.3,3.4-6.6,2.2c-2.3-1.2-3.3-4.1-2.2-6.6c1.2-2.5,4.2-3.6,6.6-2.3
		C581.5,289.4,582.5,292.4,581.2,294.8z"/>
	<path class="st2" d="M603.8,308.3c-1.6,2.2-4.6,2.8-6.8,1.4c-2.2-1.4-2.8-4.5-1.4-6.8c1.5-2.3,4.5-3,6.9-1.5
		C604.9,303,605.4,306.1,603.8,308.3z"/>
	<path class="st2" d="M624.7,324.5c-1.8,2-4.9,2.3-6.9,0.6c-2-1.8-2.3-4.7-0.6-6.9c1.7-2.1,4.9-2.5,7-0.7
		C626.3,319.3,626.5,322.4,624.7,324.5z"/>
	<path class="st2" d="M643.5,342.9c-2,1.8-5.1,1.7-6.9-0.2c-1.8-1.9-1.7-5,0.2-6.9c1.9-1.9,5.1-1.8,7,0.2
		C645.7,337.9,645.6,341,643.5,342.9z"/>
	<path class="st2" d="M660,363.4c-2.2,1.6-5.3,1.1-6.8-1.1c-1.5-2.2-1.2-5.1,1-6.8c2.1-1.7,5.3-1.3,6.9,1
		C662.7,358.7,662.2,361.8,660,363.4z"/>
	<path class="st2" d="M673.9,385.6c-2.4,1.3-5.4,0.5-6.7-1.8c-1.3-2.3-0.5-5.3,1.9-6.7c2.3-1.4,5.3-0.6,6.7,1.8
		C677.2,381.3,676.3,384.3,673.9,385.6z"/>
	<path class="st2" d="M685,409.3c-2.5,1-5.4-0.2-6.3-2.7c-1-2.4,0.1-5.3,2.6-6.4c2.5-1.1,5.4,0,6.5,2.6
		C688.8,405.4,687.5,408.3,685,409.3z"/>
	<path class="st2" d="M693.2,434.1c-2.6,0.7-5.3-0.8-6-3.4c-0.7-2.5,0.8-5.3,3.4-6.1c2.6-0.8,5.3,0.7,6,3.4
		C697.4,430.7,695.8,433.5,693.2,434.1z"/>
	<path class="st2" d="M698.3,459.8c-2.7,0.4-5-1.5-5.5-4.1c-0.4-2.6,1.4-5.1,4-5.6c2.7-0.5,5.2,1.3,5.7,4.1
		C703,456.8,700.9,459.4,698.3,459.8z"/>
	<path class="st2" d="M700.3,485.8c-2.7,0.1-5-2.1-5-4.7c0-2.7,1.9-4.9,4.7-5.1c2.7-0.2,5.1,1.9,5.1,4.7
		C705.2,483.4,703,485.8,700.3,485.8z"/>
	<path class="st2" d="M672.1,511.6c-2.7-0.3-4.6-2.7-4.4-5.3c0.2-2.6,2.6-4.6,5.3-4.5c2.7,0.1,4.7,2.5,4.5,5.3
		C677.3,509.9,674.8,511.9,672.1,511.6z"/>
	<path class="st2" d="M667.4,537.1c-2.6-0.7-4.3-3.3-3.6-5.8c0.7-2.5,3.2-4.2,5.9-3.7c2.7,0.5,4.4,3.1,3.7,5.8
		C672.7,536.1,670,537.7,667.4,537.1z"/>
	<path class="st2" d="M659.2,561.7c-2.5-1-3.7-3.8-2.8-6.2c0.9-2.5,3.7-3.8,6.2-2.9c2.5,0.9,3.9,3.7,3,6.3
		C664.6,561.4,661.7,562.7,659.2,561.7z"/>
	<path class="st2" d="M647.8,585c-2.4-1.4-3.1-4.2-1.9-6.6c1.2-2.3,4.2-3.3,6.6-2.1s3.3,4.2,2,6.6
		C653.3,585.5,650.1,586.3,647.8,585z"/>
	<path class="st2" d="M633.4,606.6c-2.1-1.6-2.6-4.7-1.1-6.8c1.5-2.1,4.6-2.6,6.8-1.1c2.2,1.5,2.7,4.6,1.1,6.8
		C638.7,607.8,635.6,608.3,633.4,606.6z"/>
	<path class="st2" d="M616.2,626.2c-1.9-1.9-2-5-0.1-6.9c1.9-1.9,4.9-2,6.9-0.2c2,1.8,2.2,5,0.2,7C621.2,628,618,628.1,616.2,626.2z
		"/>
	<path class="st2" d="M596.4,643.3c-1.6-2.1-1.3-5.2,0.8-6.8c2.1-1.6,5.1-1.4,6.8,0.6c1.7,2,1.5,5.2-0.7,7
		C601.1,645.8,598,645.4,596.4,643.3z"/>
	<path class="st2" d="M574.6,657.6c-1.3-2.4-0.5-5.3,1.7-6.7c2.2-1.4,5.2-0.7,6.7,1.5c1.5,2.3,0.7,5.3-1.6,6.8
		C578.9,660.8,575.9,660,574.6,657.6z"/>
	<path class="st2" d="M551,669c-1-2.5,0.2-5.3,2.6-6.4c2.4-1.1,5.3,0,6.4,2.5c1.1,2.4,0,5.4-2.5,6.5C554.9,672.7,552,671.5,551,669z
		"/>
	<path class="st2" d="M526,677.2c-0.7-2.6,0.9-5.3,3.4-6.1c2.5-0.7,5.2,0.8,6,3.3c0.8,2.6-0.7,5.4-3.4,6.1
		C529.4,681.3,526.7,679.8,526,677.2z"/>
	<path class="st2" d="M500.2,681.9c-0.3-2.7,1.6-5.2,4.2-5.5c2.6-0.4,5,1.3,5.5,4c0.5,2.6-1.4,5.3-4.2,5.7
		C502.9,686.5,500.5,684.6,500.2,681.9z"/>
	<path class="st2" d="M473.9,683.3c0.1-2.7,2.2-4.8,4.9-4.9c2.6-0.1,4.8,2.1,4.9,4.8c0.1,2.7-2.1,5-4.9,5
		C476.1,688.3,473.9,686,473.9,683.3z"/>
	<path class="st2" d="M447.7,681.2c0.4-2.7,2.9-4.6,5.5-4.3c2.6,0.4,4.5,2.7,4.2,5.4c-0.3,2.7-2.7,4.7-5.5,4.4
		C449.2,686.4,447.3,683.9,447.7,681.2z"/>
	<path class="st2" d="M422,675.7c0.8-2.6,3.5-4.1,6-3.4c2.5,0.6,4.1,3.2,3.5,5.9c-0.6,2.6-3.3,4.3-6,3.7
		C422.8,681,421.3,678.3,422,675.7z"/>
	<path class="st2" d="M397.3,666.9c1.1-2.5,3.9-3.6,6.4-2.7c2.4,1,3.6,3.8,2.6,6.3c-1,2.5-3.9,3.8-6.4,2.8
		C397.3,672.4,396.2,669.4,397.3,666.9z"/>
	<path class="st2" d="M374,654.9c1.4-2.3,4.4-3.1,6.7-1.8c2.3,1.3,3,4.3,1.7,6.7c-1.3,2.4-4.3,3.2-6.7,1.9
		C373.3,660.2,372.6,657.2,374,654.9z"/>
	<path class="st2" d="M352.6,639.9c1.7-2.1,4.8-2.5,6.8-0.9c2,1.6,2.5,4.6,0.9,6.8c-1.6,2.2-4.8,2.7-6.9,1
		C351.2,645.1,350.8,642,352.6,639.9z"/>
	<path class="st2" d="M333.3,622.3c2-1.9,5.1-1.8,6.9,0.1c1.8,1.8,1.9,4.9,0,6.9c-1.9,2-5,2-7,0.1
		C331.3,627.3,331.3,624.2,333.3,622.3z"/>
	<path class="st2" d="M316.6,602.3c2.2-1.6,5.2-1.1,6.8,0.9c1.6,2.1,1.2,5.1-1,6.8c-2.1,1.7-5.2,1.3-6.9-0.9
		C313.8,607.1,314.4,603.9,316.6,602.3z"/>
	<path class="st2" d="M302.7,580.3c2.4-1.3,5.3-0.4,6.6,1.8c1.3,2.3,0.4,5.3-1.9,6.7c-2.3,1.4-5.3,0.6-6.7-1.8
		C299.4,584.6,300.3,581.6,302.7,580.3z"/>
	<path class="st2" d="M292,556.7c2.6-0.9,5.4,0.3,6.3,2.7c0.9,2.4-0.3,5.3-2.8,6.4c-2.5,1.1-5.4-0.1-6.4-2.7
		C288.1,560.5,289.4,557.6,292,556.7z"/>
	<path class="st2" d="M284.6,531.9c2.7-0.6,5.3,1,5.8,3.5c0.6,2.5-0.9,5.2-3.5,5.9c-2.6,0.7-5.4-0.8-6-3.5
		C280.2,535.1,281.9,532.4,284.6,531.9z"/>
	<path class="st2" d="M280.6,506.3c2.7-0.2,5,1.7,5.3,4.3c0.3,2.6-1.6,5-4.3,5.4c-2.7,0.4-5.1-1.5-5.5-4.3
		C275.7,509,277.9,506.5,280.6,506.3z"/>
	<path class="st2" d="M280,480.4c2.7,0.1,4.8,2.3,4.7,5c-0.1,2.6-2.3,4.8-5,4.8c-2.7,0-4.9-2.2-4.8-5
		C275,482.4,277.3,480.3,280,480.4z"/>
	<path class="st2" d="M283,454.7c2.7,0.5,4.4,3,3.9,5.5c-0.4,2.6-2.8,4.4-5.5,4.1c-2.7-0.3-4.6-2.8-4.2-5.6
		C277.8,456,280.4,454.2,283,454.7z"/>
	<path class="st2" d="M289.4,429.6c2.6,0.8,3.9,3.5,3.2,6c-0.7,2.5-3.5,4-6.1,3.3c-2.6-0.7-4.1-3.4-3.3-6.1
		C284,430.2,286.8,428.7,289.4,429.6z"/>
	<path class="st2" d="M299.2,405.5c2.4,1.2,3.5,4.1,2.4,6.5c-1.1,2.4-4,3.5-6.5,2.5c-2.5-1-3.6-3.9-2.4-6.5
		C293.8,405.5,296.7,404.4,299.2,405.5z"/>
	<path class="st2" d="M312.2,383c2.2,1.5,2.9,4.5,1.5,6.7c-1.5,2.2-4.3,3-6.7,1.6c-2.3-1.3-3.2-4.4-1.6-6.8
		C306.8,382.2,309.9,381.5,312.2,383z"/>
	<path class="st2" d="M328.1,362.4c2,1.8,2.3,4.8,0.5,6.8c-1.6,2.1-4.7,2.4-6.8,0.7c-2.1-1.7-2.4-4.8-0.7-7
		C322.9,360.9,326,360.7,328.1,362.4z"/>
	<path class="st2" d="M346.6,344.1c1.8,2,1.5,5-0.3,6.9c-1.9,1.8-5,1.7-6.9-0.2c-1.9-1.9-1.8-5,0.3-7
		C341.6,341.8,344.8,342.1,346.6,344.1z"/>
	<path class="st2" d="M367.4,328.3c1.5,2.2,0.9,5.3-1.2,6.8c-2.2,1.5-5.2,1-6.8-1.2c-1.6-2.2-1.1-5.2,1.2-6.8
		C362.8,325.5,365.9,326,367.4,328.3z"/>
	<path class="st2" d="M390.2,315.4c1.2,2.4,0.2,5.4-2.1,6.6c-2.4,1.2-5.3,0.3-6.6-2c-1.3-2.4-0.4-5.4,2.1-6.7
		C386.1,312,389,313,390.2,315.4z"/>
	<path class="st2" d="M414.5,305.6c0.8,2.6-0.5,5.3-3,6.2c-2.5,0.9-5.2-0.3-6.2-2.8c-1-2.5,0.3-5.4,2.9-6.4
		C410.9,301.7,413.7,303.1,414.5,305.6z"/>
	<path class="st2" d="M440,299.1c0.5,2.7-1.3,5.1-3.8,5.8c-2.6,0.6-5.1-1.1-5.8-3.7c-0.6-2.6,1.1-5.3,3.8-5.9
		C436.9,294.7,439.5,296.5,440,299.1z"/>
	<path class="st2" d="M466.1,296c0.1,2.7-1.9,5.1-4.5,5.3c-2.6,0.2-5-1.8-5.2-4.5c-0.3-2.7,1.8-5.1,4.5-5.3
		C463.6,291.3,466,293.3,466.1,296z"/>
	<path class="st2" d="M492.3,296.4c-0.2,2.7-2.6,4.7-5.2,4.6c-2.6-0.1-4.7-2.3-4.6-5c0.1-2.7,2.4-4.9,5.2-4.8
		C490.5,291.4,492.6,293.7,492.3,296.4z"/>
	<path class="st2" d="M518.4,300.2c-0.6,2.6-3.2,4.3-5.7,3.9c-2.6-0.5-4.3-3-3.9-5.7c0.4-2.7,3-4.5,5.8-4
		C517.3,294.9,519,297.5,518.4,300.2z"/>
	<path class="st2" d="M543.6,307.4c-1,2.5-3.7,4-6.2,3.1c-2.5-0.9-3.8-3.6-3-6.2c0.8-2.6,3.6-4.1,6.2-3.2
		C543.2,302,544.6,304.8,543.6,307.4z"/>
	<path class="st2" d="M567.7,317.8c-1.3,2.4-4.2,3.4-6.5,2.2c-2.3-1.2-3.4-4-2.2-6.5c1.1-2.5,4.1-3.6,6.6-2.4
		C568,312.5,568.9,315.4,567.7,317.8z"/>
	<path class="st2" d="M590.1,331.3c-1.6,2.2-4.6,2.7-6.8,1.3c-2.2-1.4-2.8-4.4-1.3-6.7c1.5-2.3,4.5-3,6.9-1.5
		C591.2,326,591.7,329.1,590.1,331.3z"/>
	<path class="st2" d="M610.5,347.7c-1.9,2-4.9,2.1-6.9,0.5c-2-1.7-2.1-4.8-0.4-6.9c1.7-2.1,4.9-2.3,6.9-0.5
		C612.3,342.5,612.4,345.7,610.5,347.7z"/>
	<path class="st2" d="M628.5,366.5c-2.1,1.7-5.2,1.5-6.9-0.4c-1.7-2-1.4-5.1,0.5-6.9c2-1.9,5.1-1.7,6.9,0.4
		C630.9,361.7,630.6,364.8,628.5,366.5z"/>
	<path class="st2" d="M643.8,387.6c-2.3,1.4-5.3,0.8-6.7-1.4c-1.3-2.2-0.8-5.2,1.4-6.8c2.2-1.5,5.4-1,6.8,1.3
		C646.8,383.1,646.1,386.1,643.8,387.6z"/>
	<path class="st2" d="M656.2,410.4c-2.5,1.1-5.4,0.1-6.4-2.3c-1.2-2.3-0.2-5.2,2.3-6.5c2.4-1.3,5.4-0.3,6.6,2.2
		C659.8,406.4,658.6,409.3,656.2,410.4z"/>
	<path class="st2" d="M665.3,434.7c-2.6,0.8-5.2-0.7-6.1-3.1c-0.8-2.5,0.6-5.2,3.2-6.2s5.3,0.5,6.2,3.1
		C669.5,431.1,667.9,433.9,665.3,434.7z"/>
	<path class="st2" d="M671,460c-2.7,0.4-5.2-1.3-5.7-3.9c-0.4-2.6,1.4-5.1,4-5.7c2.7-0.6,5.2,1.2,5.7,3.9
		C675.5,457,673.7,459.5,671,460z"/>
	<path class="st2" d="M673.3,485.8c-2.7,0.1-5-2-5-4.6c-0.1-2.6,1.9-4.9,4.6-5.1c2.7-0.2,5.1,1.9,5.2,4.6
		C678.1,483.4,676,485.7,673.3,485.8z"/>
	<path class="st2" d="M644.7,511.8c-2.7-0.4-4.5-2.8-4.1-5.4c0.2-2.6,2.5-4.6,5.2-4.5c2.7,0.2,4.8,2.6,4.6,5.4
		C649.9,510.2,647.3,512.1,644.7,511.8z"/>
	<path class="st2" d="M639.2,537.4c-2.6-0.8-4.1-3.5-3.5-6c0.7-2.6,3.4-4.2,6-3.6c2.6,0.6,4.2,3.3,3.5,6
		C644.5,536.6,641.8,538.2,639.2,537.4z"/>
	<path class="st2" d="M629.5,561.9c-2.4-1.2-3.5-4.1-2.3-6.4c1.3-2.3,3.9-3.6,6.5-2.6c2.5,1,3.8,4,2.5,6.5
		C634.9,561.9,631.9,563,629.5,561.9z"/>
	<path class="st2" d="M616.2,584.6c-1.1-0.8-1.8-1.9-2-3.1c-0.3-1.2-0.1-2.6,0.6-3.7c1.4-2.3,4.4-3,6.7-1.6c2.3,1.4,3,4.5,1.5,6.9
		c-0.7,1.2-1.9,2-3.1,2.3C618.7,585.6,617.3,585.3,616.2,584.6z"/>
	<path class="st2" d="M599.3,604.9c-1.9-1.9-2.1-5-0.3-6.9c1.8-2,4.9-2.1,7-0.4c2.1,1.7,2.2,4.8,0.3,6.9
		C604.4,606.5,601.3,606.7,599.3,604.9z"/>
	<path class="st2" d="M579.5,622.3c-1.6-2.1-1.2-5.2,0.9-6.8c2.1-1.7,5-1.5,6.8,0.5c1.7,2,1.5,5.3-0.7,7.1
		C584.3,624.8,581.1,624.5,579.5,622.3z"/>
	<path class="st2" d="M557.2,636.7c-1.3-2.4-0.4-5.4,1.8-6.8c2.3-1.4,5.3-0.6,6.7,1.7c1.4,2.3,0.6,5.3-1.8,6.8
		C561.5,639.8,558.5,639.1,557.2,636.7z"/>
	<path class="st2" d="M532.8,647.2c-0.9-2.6,0.4-5.4,2.9-6.3c2.5-0.9,5.4,0.4,6.4,2.9c1,2.5-0.3,5.3-2.9,6.3
		C536.6,651,533.7,649.7,532.8,647.2z"/>
	<path class="st2" d="M507.1,653.9c-0.5-2.7,1.3-5,3.9-5.7c2.6-0.7,5.2,0.9,5.8,3.6c0.6,2.6-1.1,5.3-3.8,6
		C510.3,658.6,507.6,656.5,507.1,653.9z"/>
	<path class="st2" d="M480.6,656.5c0-2.7,2.1-5,4.7-5.2c2.6-0.1,5,1.9,5.2,4.6c0.2,2.7-1.9,5-4.7,5.2
		C483,661.3,480.7,659.2,480.6,656.5z"/>
	<path class="st2" d="M454.1,655.1c0.4-2.7,2.8-4.5,5.4-4.2c2.6,0.1,4.6,2.4,4.4,5.1c-0.2,2.7-2.7,4.8-5.5,4.7
		C455.6,660.3,453.7,657.8,454.1,655.1z"/>
	<path class="st2" d="M428,649.7c0.8-2.6,3.5-4.2,6.1-3.5c2.6,0.6,4.1,3.3,3.5,6c-0.6,2.6-3.3,4.2-6.1,3.5
		C428.8,654.9,427.2,652.3,428,649.7z"/>
	<path class="st2" d="M403.2,640.1c1.2-2.4,4.1-3.5,6.5-2.4c2.3,1.2,3.5,3.9,2.5,6.4c-1,2.5-4.1,3.9-6.6,2.6
		C403.1,645.5,402,642.6,403.2,640.1z"/>
	<path class="st2" d="M380.1,627c0.8-1.1,1.9-1.8,3.1-2c1.3-0.3,2.6-0.1,3.7,0.6c2.2,1.4,2.9,4.4,1.5,6.7c-1.4,2.3-4.5,3-6.9,1.6
		c-1.2-0.7-2-1.8-2.2-3.1C379.1,629.5,379.4,628.2,380.1,627z"/>
	<path class="st2" d="M359.5,610.4c1.9-2,5-2.1,7-0.4c1.9,1.8,2.1,4.9,0.3,7c-1.8,2.1-4.9,2.2-6.9,0.3
		C357.8,615.5,357.7,612.4,359.5,610.4z"/>
	<path class="st2" d="M341.8,590.9c2.2-1.6,5.2-1.3,6.8,0.8c1.6,2,1.5,5-0.6,6.8c-2,1.8-5.3,1.6-7.1-0.6
		C339.2,595.7,339.6,592.5,341.8,590.9z"/>
	<path class="st2" d="M327.2,568.9c2.4-1.3,5.5-0.5,6.8,1.7c1.4,2.3,0.6,5.3-1.7,6.7c-2.3,1.5-5.4,0.7-6.8-1.7
		C324,573.2,324.8,570.2,327.2,568.9z"/>
	<path class="st2" d="M316.6,544.9c2.6-0.9,5.4,0.4,6.3,2.9c0.9,2.5-0.4,5.4-2.9,6.4c-2.5,1.1-5.3-0.2-6.3-2.9
		C312.7,548.7,314,545.8,316.6,544.9z"/>
	<path class="st2" d="M309.7,519.6c2.7-0.5,5,1.3,5.7,3.8c0.6,2.6-1,5.2-3.6,5.8c-2.6,0.7-5.3-1-6-3.7
		C305,522.8,307.1,520,309.7,519.6z"/>
	<path class="st2" d="M307,493.5c2.7-0.1,5,2,5.1,4.7c0.1,2.6-2,5-4.7,5.2c-2.7,0.3-5-1.8-5.1-4.7
		C302.2,495.9,304.3,493.5,307,493.5z"/>
	<path class="st2" d="M308.5,467.3c2.7,0.4,4.5,2.8,4.1,5.4c-0.2,2.6-2.5,4.6-5.2,4.5c-2.7-0.2-4.8-2.6-4.6-5.4
		C303.2,468.9,305.8,467,308.5,467.3z"/>
	<path class="st2" d="M314,441.7c2.6,0.8,4.1,3.5,3.5,6c-0.7,2.6-3.4,4.2-6,3.6c-2.6-0.6-4.2-3.3-3.5-6
		C308.7,442.5,311.4,440.9,314,441.7z"/>
	<path class="st2" d="M323.6,417.2c2.4,1.2,3.5,4.1,2.3,6.4c-1.3,2.3-3.9,3.6-6.5,2.6c-2.5-1-3.8-4-2.5-6.5
		C318.2,417.2,321.2,416.1,323.6,417.2z"/>
	<path class="st2" d="M336.9,394.5c1.1,0.8,1.8,1.9,2,3.1c0.3,1.2,0.1,2.6-0.6,3.7c-1.4,2.3-4.4,3-6.7,1.6c-2.3-1.4-3-4.5-1.5-6.9
		c0.7-1.2,1.9-2,3.1-2.3C334.5,393.5,335.8,393.8,336.9,394.5z"/>
	<path class="st2" d="M353.8,374.2c1.9,1.9,2.1,5,0.3,6.9c-1.8,2-4.9,2.1-7,0.4c-2.1-1.7-2.2-4.8-0.3-6.9
		C348.7,372.6,351.9,372.4,353.8,374.2z"/>
	<path class="st2" d="M373.6,356.8c1.6,2.2,1.2,5.2-0.9,6.8c-2.1,1.7-5,1.5-6.8-0.5c-1.7-2-1.5-5.3,0.7-7.1
		C368.8,354.3,372,354.6,373.6,356.8z"/>
	<path class="st2" d="M395.9,342.4c1.3,2.4,0.4,5.4-1.8,6.8c-2.3,1.4-5.3,0.6-6.7-1.7c-1.4-2.3-0.6-5.3,1.8-6.8
		C391.6,339.3,394.6,340,395.9,342.4z"/>
	<path class="st2" d="M420.3,331.9c0.9,2.6-0.4,5.4-2.9,6.3c-2.5,0.9-5.4-0.4-6.4-2.9c-1-2.5,0.3-5.3,2.9-6.3
		C416.6,328.1,419.4,329.4,420.3,331.9z"/>
	<path class="st2" d="M446,325.2c0.5,2.7-1.3,5-3.9,5.7c-2.6,0.7-5.2-0.9-5.8-3.6c-0.6-2.6,1.1-5.3,3.8-6
		C442.9,320.5,445.6,322.6,446,325.2z"/>
	<path class="st2" d="M472.5,322.6c0,2.7-2.1,5-4.7,5.2c-2.6,0.1-5-1.9-5.2-4.6c-0.2-2.7,1.9-5,4.7-5.2
		C470.2,317.8,472.5,319.9,472.5,322.6z"/>
	<path class="st2" d="M499.1,324c-0.4,2.7-2.8,4.5-5.4,4.2c-2.6-0.1-4.6-2.4-4.4-5.1c0.2-2.7,2.7-4.8,5.5-4.6
		C497.5,318.8,499.5,321.3,499.1,324z"/>
	<path class="st2" d="M525.1,329.4c-0.8,2.6-3.5,4.2-6.1,3.5c-2.6-0.7-4.1-3.3-3.5-6c0.6-2.6,3.4-4.2,6.1-3.5
		C524.4,324.2,525.9,326.8,525.1,329.4z"/>
	<path class="st2" d="M549.9,339c-1.2,2.4-4.1,3.5-6.5,2.4c-2.3-1.2-3.6-3.9-2.5-6.4c1-2.5,4.1-3.9,6.6-2.6
		C550,333.6,551.1,336.5,549.9,339z"/>
	<path class="st2" d="M573,352.1c-0.8,1.1-1.9,1.8-3.1,2c-1.3,0.3-2.6,0.1-3.7-0.6c-2.3-1.4-2.9-4.4-1.5-6.7c1.4-2.3,4.5-3,6.9-1.6
		c1.2,0.7,2,1.9,2.2,3.1C574,349.6,573.8,350.9,573,352.1z"/>
	<path class="st2" d="M593.6,368.7c-1.9,2-5,2.1-7,0.4c-1.9-1.8-2.1-4.9-0.3-7c1.8-2.1,4.9-2.2,6.9-0.4
		C595.3,363.6,595.5,366.7,593.6,368.7z"/>
	<path class="st2" d="M611.3,388.2c-2.2,1.6-5.2,1.3-6.8-0.8c-1.6-2.1-1.5-5,0.6-6.8c2-1.8,5.3-1.6,7.1,0.6
		C613.9,383.4,613.5,386.6,611.3,388.2z"/>
	<path class="st2" d="M626,410.2c-2.4,1.3-5.5,0.5-6.8-1.7c-1.4-2.3-0.6-5.3,1.7-6.7c2.3-1.5,5.4-0.7,6.8,1.7
		C629.1,405.9,628.4,408.9,626,410.2z"/>
	<path class="st2" d="M636.6,434.2c-2.6,0.9-5.4-0.4-6.3-2.9c-0.9-2.5,0.4-5.4,2.9-6.4c2.5-1.1,5.3,0.2,6.3,2.9
		C640.5,430.4,639.1,433.3,636.6,434.2z"/>
	<path class="st2" d="M643.5,459.5c-2.7,0.5-5-1.3-5.7-3.8c-0.6-2.6,1-5.2,3.6-5.8c2.6-0.7,5.3,1,6,3.7
		C648.1,456.4,646,459.1,643.5,459.5z"/>
	<path class="st2" d="M646.1,485.6c-2.7,0.1-5-2-5.1-4.7c-0.1-2.6,2-5,4.7-5.2c2.7-0.3,5,1.8,5.1,4.7
		C650.9,483.2,648.8,485.6,646.1,485.6z"/>
	<path class="st2" d="M617.4,511.5c-2.7-0.4-4.5-2.8-4.1-5.4c0.5-2.6,2.7-4.5,5.4-4.3c2.7,0.2,4.9,2.7,4.3,5.4
		C622.6,510,620.1,511.9,617.4,511.5z"/>
	<path class="st2" d="M611,536.6c-2.5-0.9-3.9-3.6-2.9-6.1c0.7-2.5,3.3-4,6-3.3c2.6,0.7,4.2,3.5,3.4,6.2
		C616.4,536.1,613.5,537.5,611,536.6z"/>
	<path class="st2" d="M599.9,560.1c-2.4-1.4-3-4.2-1.8-6.5c1.1-2.3,4.1-3.3,6.5-2.1c2.4,1.2,3.4,4.2,2.1,6.7
		C605.5,560.7,602.2,561.4,599.9,560.1z"/>
	<path class="st2" d="M584.7,581.2c-2.1-1.8-2.1-4.7-0.6-6.8c1.6-2.1,4.6-2.5,6.8-0.9c2.2,1.6,2.5,4.7,0.8,7
		C590,582.8,586.7,583,584.7,581.2z"/>
	<path class="st2" d="M565.8,599.3c-0.8-1.1-1.2-2.3-1-3.5c0.1-1.2,0.6-2.5,1.6-3.4c1.9-1.8,5-1.6,6.8,0.4c1.8,2,1.6,5.1-0.5,7
		c-1,0.9-2.3,1.4-3.6,1.3C567.8,600.9,566.6,600.3,565.8,599.3z"/>
	<path class="st2" d="M543.8,613.6c-1.2-2.3-0.4-5.4,1.8-6.8c2.2-1.4,5.2-0.6,6.7,1.7c1.4,2.3,0.6,5.3-1.8,6.8
		C548.1,616.8,545.1,616,543.8,613.6z"/>
	<path class="st2" d="M519.6,623.6c-0.8-2.6,0.6-5.4,3-6.3c2.4-0.9,5.2,0.4,6.2,2.9c1,2.5-0.4,5.3-3,6.3
		C523.1,627.5,520.3,626.2,519.6,623.6z"/>
	<path class="st2" d="M493.8,629c-0.3-2.7,1.6-5.2,4.1-5.6c2.6-0.4,5.1,1.4,5.6,4.1c0.5,2.7-1.3,5.2-4.1,5.6
		C496.6,633.5,494.1,631.7,493.8,629z"/>
	<path class="st2" d="M467.5,629.7c0.2-2.7,2.5-4.8,5.1-4.7c2.6,0.2,4.7,2.4,4.7,5c0,2.8-2.3,5-5.1,4.8
		C469.4,634.7,467.3,632.4,467.5,629.7z"/>
	<path class="st2" d="M441.5,625.7c0.7-2.6,3.3-4.2,5.8-3.6c2.5,0.6,4.2,2.9,3.7,5.6c-0.5,2.6-3.2,4.6-5.9,4
		C442.4,631,440.8,628.3,441.5,625.7z"/>
	<path class="st2" d="M416.7,617c1.2-2.5,4-3.5,6.4-2.5c2.4,0.9,3.6,3.7,2.6,6.2c-1,2.5-3.9,3.8-6.5,2.9
		C416.6,622.5,415.5,619.5,416.7,617z"/>
	<path class="st2" d="M393.9,604c1.6-2.3,4.5-2.6,6.7-1.3c2.2,1.3,2.8,4.3,1.4,6.6c-1.4,2.3-4.5,3-6.9,1.6
		C392.7,609.5,392.4,606.1,393.9,604z"/>
	<path class="st2" d="M373.9,587.1c2-1.9,4.9-1.8,6.9-0.1c1.9,1.7,2,4.8,0.2,6.8c-1.8,2-5,2.2-7,0.3
		C371.8,592.2,372,589,373.9,587.1z"/>
	<path class="st2" d="M357.4,566.9c2.2-1.5,5.3-0.9,6.8,1.1c1.5,2.1,1,5.1-1.1,6.8s-5.3,1.2-6.9-1
		C354.5,571.5,355.1,568.4,357.4,566.9z"/>
	<path class="st2" d="M345,544c2.5-1,5.5,0,6.6,2.3c1.1,2.3,0,5.2-2.4,6.5c-2.4,1.3-5.4,0.2-6.6-2.3C341.4,548,342.5,545.1,345,544z
		"/>
	<path class="st2" d="M337.1,519.3c2.7-0.6,5.3,1,6,3.5c0.6,2.5-1,5.2-3.6,6c-2.6,0.8-5.3-0.8-5.9-3.5
		C332.8,522.5,334.5,519.8,337.1,519.3z"/>
	<path class="st2" d="M334,493.5c2.7-0.1,5,2,5.1,4.6c0.1,2.6-2,4.9-4.7,5.2c-2.7,0.3-5-1.7-5.1-4.6
		C329.2,495.9,331.3,493.6,334,493.5z"/>
	<path class="st2" d="M335.7,467.6c2.7,0.4,4.5,2.8,4.1,5.4c-0.5,2.6-2.7,4.5-5.4,4.3c-2.6-0.2-4.9-2.7-4.3-5.4
		C330.5,469.1,333,467.2,335.7,467.6z"/>
	<path class="st2" d="M342.2,442.5c2.5,0.9,3.9,3.6,2.9,6.1c-0.7,2.5-3.3,4-6,3.3c-2.6-0.7-4.2-3.5-3.4-6.2
		C336.7,443,339.6,441.6,342.2,442.5z"/>
	<path class="st2" d="M353.2,419c2.4,1.4,3,4.2,1.8,6.5c-1.1,2.3-4.1,3.3-6.5,2.1c-2.4-1.2-3.4-4.2-2.1-6.7
		C347.7,418.4,350.9,417.7,353.2,419z"/>
	<path class="st2" d="M368.4,397.9c2.1,1.8,2.1,4.7,0.6,6.8c-1.6,2.1-4.6,2.5-6.8,0.9c-2.2-1.6-2.5-4.7-0.8-7
		C363.1,396.3,366.4,396.1,368.4,397.9z"/>
	<path class="st2" d="M387.3,379.8c0.8,1.1,1.2,2.3,1,3.5c-0.1,1.2-0.6,2.5-1.6,3.4c-1.9,1.8-5,1.6-6.8-0.4c-1.8-2-1.6-5.1,0.5-7
		c1.1-0.9,2.3-1.4,3.6-1.3C385.3,378.2,386.5,378.8,387.3,379.8z"/>
	<path class="st2" d="M409.3,365.5c1.2,2.3,0.4,5.4-1.8,6.8c-2.2,1.4-5.2,0.6-6.7-1.7c-1.4-2.3-0.6-5.3,1.8-6.8
		C405.1,362.3,408,363.1,409.3,365.5z"/>
	<path class="st2" d="M433.6,355.5c0.8,2.6-0.6,5.4-3,6.3c-2.4,0.9-5.2-0.4-6.2-2.9c-1-2.5,0.4-5.3,3-6.3
		C430,351.6,432.8,352.9,433.6,355.5z"/>
	<path class="st2" d="M459.3,350.1c0.3,2.7-1.6,5.2-4.1,5.6c-2.6,0.4-5.1-1.4-5.6-4.1c-0.5-2.7,1.3-5.2,4.1-5.6
		C456.5,345.6,459,347.4,459.3,350.1z"/>
	<path class="st2" d="M485.6,349.4c-0.2,2.7-2.5,4.8-5.1,4.7c-2.6-0.2-4.7-2.4-4.7-5c0-2.8,2.3-5,5.1-4.8
		C483.7,344.4,485.8,346.7,485.6,349.4z"/>
	<path class="st2" d="M511.6,353.4c-0.7,2.6-3.3,4.2-5.8,3.6c-2.5-0.6-4.2-2.9-3.7-5.6c0.5-2.6,3.2-4.6,5.9-4
		C510.7,348.1,512.3,350.8,511.6,353.4z"/>
	<path class="st2" d="M536.4,362.1c-1.2,2.5-4,3.5-6.4,2.5c-2.4-0.9-3.6-3.7-2.6-6.2c1-2.5,3.9-3.8,6.5-2.9
		C536.5,356.6,537.6,359.7,536.4,362.1z"/>
	<path class="st2" d="M559.2,375.1c-1.6,2.3-4.5,2.6-6.7,1.3c-2.2-1.3-2.8-4.3-1.4-6.6c1.4-2.3,4.5-3,6.9-1.6
		C560.4,369.6,560.8,373,559.2,375.1z"/>
	<path class="st2" d="M579.2,392c-2,1.9-4.9,1.8-6.9,0.1c-1.9-1.7-2-4.8-0.2-6.8c1.8-2,5-2.2,7-0.3
		C581.3,386.9,581.2,390.1,579.2,392z"/>
	<path class="st2" d="M595.7,412.2c-2.2,1.5-5.3,0.9-6.8-1.1c-1.5-2.1-1-5.1,1.1-6.8c2.2-1.7,5.3-1.2,6.9,1
		C598.6,407.6,598,410.7,595.7,412.2z"/>
	<path class="st2" d="M608.2,435.1c-2.5,1.1-5.5,0-6.6-2.3c-1.1-2.3,0-5.2,2.4-6.5c2.4-1.3,5.4-0.2,6.6,2.3
		C611.7,431.1,610.7,434,608.2,435.1z"/>
	<path class="st2" d="M616,459.8c-2.7,0.6-5.3-1-6-3.5c-0.6-2.5,1-5.2,3.6-6c2.6-0.8,5.3,0.8,5.9,3.5
		C620.3,456.6,618.7,459.3,616,459.8z"/>
	<path class="st2" d="M619.1,485.6c-2.7,0.1-5-2-5.1-4.6c-0.1-2.6,2-4.9,4.7-5.2c2.7-0.3,5,1.7,5.1,4.6
		C623.9,483.2,621.8,485.5,619.1,485.6z"/>
	<path class="st2" d="M590.2,511c-2.7-0.5-4.5-3-4.1-5.5c0.4-2.5,2.9-4.3,5.6-4.1c2.7,0.2,4.5,2.7,4.1,5.5
		C595.3,509.7,592.8,511.5,590.2,511z"/>
	<path class="st2" d="M582.5,535.4c-1.2-0.5-2.1-1.5-2.6-2.6c-0.5-1.1-0.6-2.4-0.2-3.6c0.9-2.4,3.7-3.6,6.3-2.8
		c2.6,0.8,3.9,3.7,2.9,6.3c-0.5,1.3-1.5,2.3-2.6,2.8C585.1,535.9,583.8,535.9,582.5,535.4z"/>
	<path class="st2" d="M569.4,557.4c-2.2-1.6-2.7-4.6-1.1-6.6c1.3-2.2,4.3-2.8,6.6-1.4c2.3,1.4,3,4.5,1.5,6.9
		C574.7,558.5,571.6,559,569.4,557.4z"/>
	<path class="st2" d="M551.8,576.1c-1.7-2.1-1.6-5.1,0.3-6.8c1.9-1.7,5-1.6,6.9,0.2c2,1.9,1.9,5-0.2,6.9
		C556.7,578.3,553.6,578.1,551.8,576.1z"/>
	<path class="st2" d="M530.4,590.4c-1.2-2.3-0.4-5.3,1.8-6.7c2.2-1.3,5.1-0.5,6.6,1.7c1.5,2.3,0.7,5.3-1.7,6.7
		C534.7,593.7,531.7,592.9,530.4,590.4z"/>
	<path class="st2" d="M506.3,599.6c-0.7-2.6,0.8-5.2,3.2-5.9c2.4-0.9,5.1,0.5,6,3c0.9,2.5-0.5,5.4-3.1,6.3
		C509.7,603.8,506.9,602.2,506.3,599.6z"/>
	<path class="st2" d="M480.7,603.3c-0.1-2.7,2-5,4.5-5.2c2.5,0,4.8,1.7,5.1,4.4c0.3,2.7-1.7,5.3-4.5,5.4
		C483,608.1,480.7,606,480.7,603.3z"/>
	<path class="st2" d="M454.8,601.4c0.5-2.7,3-4.5,5.5-4.2c2.5,0.4,4.3,2.9,4,5.6c-0.3,2.7-2.7,4.6-5.5,4.2
		C456.1,606.6,454.3,604.1,454.8,601.4z"/>
	<path class="st2" d="M430.1,593.9c0.6-1.2,1.5-2.1,2.7-2.6c1.2-0.5,2.4-0.7,3.6-0.2c2.4,0.9,3.6,3.7,2.7,6.2
		c-0.9,2.6-3.7,3.9-6.3,2.9c-1.3-0.5-2.3-1.4-2.8-2.5C429.5,596.5,429.5,595.1,430.1,593.9z"/>
	<path class="st2" d="M407.7,581c1.6-2.2,4.6-2.7,6.6-1.2c2.2,1.3,2.7,4.2,1.3,6.6c-1.4,2.3-4.5,3-6.9,1.6
		C406.6,586.3,406.1,583.2,407.7,581z"/>
	<path class="st2" d="M388.8,563.6c2.1-1.8,5.1-1.7,6.8,0.2c1.6,1.9,1.5,4.9-0.3,6.9c-1.9,2-5.1,2-6.9-0.1
		C386.5,568.5,386.7,565.4,388.8,563.6z"/>
	<path class="st2" d="M374.2,542.5c2.4-1.2,5.3-0.5,6.6,1.7c1.3,2.2,0.5,5.1-1.8,6.6c-2.3,1.5-5.3,0.8-6.7-1.6
		C370.8,546.8,371.7,543.8,374.2,542.5z"/>
	<path class="st2" d="M364.8,518.7c2.6-0.7,5.2,0.7,5.9,3.2c0.9,2.4-0.5,5.1-3.1,6c-2.6,0.9-5.4-0.4-6.3-3
		C360.6,522.2,362.2,519.4,364.8,518.7z"/>
	<path class="st2" d="M361.1,493.5c2.7-0.1,5,1.9,5.1,4.4c0,2.5-1.8,4.8-4.5,5.2c-2.7,0.4-5.3-1.6-5.3-4.4
		C356.2,495.9,358.3,493.6,361.1,493.5z"/>
	<path class="st2" d="M363,468.1c2.7,0.5,4.5,3,4.1,5.5c-0.4,2.5-2.9,4.3-5.6,4.1c-2.7-0.2-4.5-2.7-4.1-5.5
		C357.8,469.4,360.3,467.6,363,468.1z"/>
	<path class="st2" d="M370.6,443.7c1.2,0.5,2.1,1.5,2.6,2.6c0.5,1.1,0.6,2.4,0.2,3.6c-0.9,2.4-3.7,3.6-6.3,2.8
		c-2.6-0.8-3.9-3.7-2.9-6.3c0.5-1.3,1.4-2.3,2.6-2.8C368,443.2,369.4,443.2,370.6,443.7z"/>
	<path class="st2" d="M383.7,421.7c2.2,1.6,2.7,4.6,1.1,6.6c-1.3,2.2-4.3,2.8-6.6,1.4c-2.3-1.4-3-4.5-1.5-6.9
		C378.4,420.6,381.5,420.1,383.7,421.7z"/>
	<path class="st2" d="M401.3,403c1.7,2.1,1.6,5.1-0.3,6.8c-1.9,1.7-5,1.6-6.9-0.2c-2-1.9-1.9-5,0.2-6.9
		C396.5,400.8,399.6,401,401.3,403z"/>
	<path class="st2" d="M422.7,388.7c1.2,2.3,0.4,5.3-1.8,6.7c-2.2,1.3-5.1,0.5-6.6-1.7c-1.5-2.3-0.7-5.3,1.7-6.7
		C418.4,385.4,421.4,386.2,422.7,388.7z"/>
	<path class="st2" d="M446.9,379.5c0.7,2.6-0.8,5.2-3.3,5.9c-2.4,0.9-5.1-0.5-6-3c-0.9-2.5,0.5-5.4,3.1-6.3
		C443.4,375.3,446.2,376.9,446.9,379.5z"/>
	<path class="st2" d="M472.5,375.8c0.1,2.7-2,5-4.5,5.2c-2.5,0-4.8-1.7-5.1-4.4c-0.3-2.7,1.7-5.3,4.5-5.4
		C470.1,371,472.4,373.1,472.5,375.8z"/>
	<path class="st2" d="M498.3,377.7c-0.5,2.7-3,4.5-5.5,4.2c-2.5-0.4-4.3-2.9-4-5.6c0.3-2.7,2.7-4.6,5.5-4.1
		C497,372.5,498.8,375,498.3,377.7z"/>
	<path class="st2" d="M523,385.2c-0.6,1.2-1.5,2.1-2.7,2.6c-1.1,0.5-2.4,0.7-3.6,0.2c-2.4-0.9-3.6-3.7-2.7-6.2
		c0.9-2.6,3.7-3.9,6.3-2.9c1.3,0.5,2.3,1.4,2.8,2.5C523.6,382.6,523.6,384,523,385.2z"/>
	<path class="st2" d="M545.4,398.1c-1.6,2.2-4.6,2.7-6.6,1.2c-2.2-1.3-2.7-4.3-1.3-6.6c1.4-2.3,4.5-3,6.9-1.6
		C546.6,392.8,547,395.9,545.4,398.1z"/>
	<path class="st2" d="M564.4,415.5c-2.1,1.8-5.2,1.7-6.8-0.2c-1.6-1.9-1.5-4.9,0.3-6.9c1.9-2,5.1-2,6.9,0.1
		C566.6,410.6,566.4,413.7,564.4,415.5z"/>
	<path class="st2" d="M579,436.6c-2.4,1.2-5.3,0.5-6.6-1.7c-1.3-2.2-0.5-5.1,1.8-6.6c2.3-1.5,5.3-0.8,6.7,1.6
		C582.3,432.3,581.4,435.3,579,436.6z"/>
	<path class="st2" d="M588.3,460.4c-2.6,0.7-5.2-0.7-5.9-3.2c-0.9-2.4,0.5-5.1,3.1-6c2.5-0.9,5.4,0.4,6.3,3
		C592.5,456.9,590.9,459.7,588.3,460.4z"/>
	<path class="st2" d="M592.1,485.6c-2.7,0.1-5-1.9-5.1-4.4c0-2.5,1.8-4.8,4.5-5.2c2.7-0.4,5.3,1.6,5.3,4.4
		C596.9,483.2,594.8,485.5,592.1,485.6z"/>
	<path class="st2" d="M562.4,511.3c-2.7-0.7-4.1-3.2-3.6-5.7c0.4-2.5,2.9-4.3,5.6-4c2.7,0.3,4.5,2.9,4,5.8
		C567.8,510.3,565,512,562.4,511.3z"/>
	<path class="st2" d="M552.1,535.2c-2.3-1.4-3-4.3-1.7-6.6c1.1-2.3,4-3.3,6.5-2.1c2.5,1.1,3.4,4.1,2.1,6.8
		C557.5,535.8,554.4,536.7,552.1,535.2z"/>
	<path class="st2" d="M535.1,555.1c-1.8-2-1.6-5.1,0.3-6.8c1.8-1.8,4.8-1.9,6.8-0.1c2,1.8,2.1,5,0,7.1
		C540,557.3,536.8,557.2,535.1,555.1z"/>
	<path class="st2" d="M512.9,569.2c-1.1-2.5-0.1-5.4,2.2-6.5c2.3-1.1,5.1-0.5,6.5,1.9c1.4,2.3,0.6,5.5-2.1,6.8
		C517,572.7,514,571.7,512.9,569.2z"/>
	<path class="st2" d="M487.4,576.2c-0.3-2.7,1.5-5.2,4-5.6c2.5-0.3,5,1.1,5.7,3.8c0.6,2.5-1.1,5.5-4,5.9
		C490.3,580.7,487.7,578.9,487.4,576.2z"/>
	<path class="st2" d="M461,575.5c0.5-2.7,3-4.5,5.5-4.2c2.5,0.4,4.5,2.5,4.3,5.2c-0.2,2.6-2.7,4.9-5.5,4.5
		C462.4,580.7,460.5,578.2,461,575.5z"/>
	<path class="st2" d="M436,567.2c1.3-2.4,4.2-3.5,6.5-2.4c2.3,1.1,3.5,3.7,2.5,6.3c-0.9,2.5-4,3.9-6.6,2.7
		C435.8,572.5,434.7,569.6,436,567.2z"/>
	<path class="st2" d="M414.6,551.9c1.9-1.9,5-2.1,6.9-0.4c1.8,1.8,2.2,4.6,0.5,6.8c-1.6,2.1-5,2.6-7,0.6
		C412.8,557,412.6,553.8,414.6,551.9z"/>
	<path class="st2" d="M398.6,531.2c2.4-1.3,5.4-0.6,6.7,1.6c0.7,1.1,0.8,2.4,0.5,3.6c-0.2,1.2-0.9,2.3-2,3.1c-1.1,0.8-2.5,1-3.7,0.8
		c-1.2-0.3-2.4-1.1-3.1-2.3C395.4,535.5,396.2,532.4,398.6,531.2z"/>
	<path class="st2" d="M389.6,506.7c2.6-0.5,5.3,1.1,5.9,3.5c0.6,2.5-1,5.2-3.5,6c-2.6,0.9-5.4-0.7-6-3.5
		C385.3,509.9,386.9,507.2,389.6,506.7z"/>
	<path class="st2" d="M388.3,480.6c2.7,0.3,4.8,2.6,4.6,5.1c-0.1,1.3-0.7,2.4-1.6,3.3c-0.9,0.9-2.1,1.4-3.4,1.4
		c-1.3,0-2.6-0.5-3.5-1.4c-0.8-0.9-1.3-2.2-1.2-3.7C383.3,482.5,385.6,480.4,388.3,480.6z"/>
	<path class="st2" d="M394.9,455.4c2.5,1.1,3.8,3.9,2.9,6.3c-0.5,1.2-1.4,2.1-2.5,2.7c-1.1,0.6-2.4,0.8-3.7,0.4
		c-1.3-0.4-2.3-1.3-2.9-2.4c-0.5-1.1-0.6-2.5-0.1-3.9C389.5,455.7,392.4,454.3,394.9,455.4z"/>
	<path class="st2" d="M408.7,433.2c2,1.7,2.4,4.8,0.9,6.8c-1.6,2-4.6,2.5-6.8,1.1c-2.3-1.5-2.7-4.6-1-6.9
		C403.5,431.9,406.6,431.4,408.7,433.2z"/>
	<path class="st2" d="M428.6,416.1c0.7,1.1,0.9,2.4,0.7,3.6c-0.2,1.2-0.8,2.4-1.9,3.2c-2.1,1.5-5.1,1.1-6.8-1
		c-1.7-2.1-1.2-5.2,1.1-6.9c1.2-0.9,2.5-1.2,3.8-1C426.7,414.2,427.9,414.9,428.6,416.1z"/>
	<path class="st2" d="M452.7,405.4c0.7,2.6-0.8,5.2-3.2,6.1c-2.4,0.9-5.2-0.4-6.2-2.9c-1-2.5,0.4-5.3,3.1-6.3
		C449.1,401.2,452,402.9,452.7,405.4z"/>
	<path class="st2" d="M478.9,402.3c-0.1,2.7-2.3,4.7-4.8,5c-2.5,0.1-4.8-2-5-4.6c-0.2-2.7,1.9-5,4.8-5.2
		C476.8,397.2,479,399.6,478.9,402.3z"/>
	<path class="st2" d="M504.9,406.8c-0.9,2.5-3.6,3.9-6.1,3.4c-2.5-0.6-4-3.3-3.4-6c0.6-2.7,3.3-4.2,6.1-3.5
		C504.4,401.3,505.8,404.3,504.9,406.8z"/>
	<path class="st2" d="M528.4,418.8c-1.6,2.2-4.5,2.6-6.7,1.4c-2.2-1.3-2.8-4.3-1.5-6.7c1.3-2.4,4.4-3.1,6.9-1.6
		C529.6,413.3,530,416.6,528.4,418.8z"/>
	<path class="st2" d="M547.3,437c-2.2,1.7-5.1,1.2-6.8-0.7c-1.7-1.9-1.5-4.9,0.5-6.8c2-1.9,5.1-1.7,7.1,0.4
		C550,432.1,549.4,435.4,547.3,437z"/>
	<path class="st2" d="M559.9,459.9c-2.6,0.9-5.3-0.3-6.2-2.7c-1.1-2.3,0-5.1,2.4-6.4c2.4-1.2,5.4-0.1,6.6,2.5
		C563.8,456,562.4,459,559.9,459.9z"/>
	<path class="st2" d="M565,485.4c-2.7,0.1-5-1.9-5.1-4.4c-0.4-2.5,1.5-4.9,4.2-5.4c2.7-0.5,5.2,1.5,5.6,4.3
		C569.9,482.8,567.7,485.3,565,485.4z"/>
	<path class="st2" d="M534.4,510.4c-2.6-1-3.7-3.5-3.2-5.9c0.6-2.3,3.3-3.8,5.9-3.4c2.7,0.5,4.3,3.1,3.6,6
		C540,510,536.9,511.4,534.4,510.4z"/>
	<path class="st2" d="M520.9,531.8c-1.9-1.9-2.1-4.9-0.5-6.7c1.5-1.9,4.5-2.3,6.7-0.7c2.2,1.5,2.6,4.6,0.9,7
		C525.9,533.5,522.8,533.7,520.9,531.8z"/>
	<path class="st2" d="M499.6,545.9c-0.9-2.5,0.1-5.3,2.2-6.4c2.2-1,4.9-0.3,6.4,2.1c1.4,2.2,0.6,5.5-2.1,6.7
		C503.5,549.6,500.6,548.5,499.6,545.9z"/>
	<path class="st2" d="M474.4,550.2c0.2-2.7,2.2-4.7,4.6-5c1.2-0.1,2.4,0.4,3.3,1.3c0.9,0.8,1.6,1.9,1.7,3.3c0.2,1.3-0.2,2.7-1.1,3.7
		c-0.8,0.9-2.1,1.6-3.5,1.6C476.4,555.3,474.2,552.9,474.4,550.2z"/>
	<path class="st2" d="M449.5,544.1c1.3-2.5,3.9-3.4,6.2-2.6c2.3,0.8,3.4,3.6,2.7,6.2c-0.8,2.7-3.6,4-6.3,3
		C449.3,549.6,448.3,546.4,449.5,544.1z"/>
	<path class="st2" d="M429.3,528.5c2.1-1.7,5.1-1.7,6.7,0.1c1.7,1.7,1.7,4.6,0,6.7c-1.8,2.1-5,2.2-7,0.2
		C427,533.4,427.2,530.2,429.3,528.5z"/>
	<path class="st2" d="M417.3,506.2c1.3-0.4,2.6-0.2,3.7,0.3c1.1,0.5,2,1.4,2.4,2.5c0.7,2.3-0.3,5-2.8,6.2c-2.4,1.2-5.5,0.1-6.4-2.7
		c-0.5-1.3-0.4-2.7,0.2-3.9C414.9,507.4,416,506.5,417.3,506.2z"/>
	<path class="st2" d="M415.6,481c2.7,0.4,4.4,2.6,4.4,5.1c-0.1,1.2-0.7,2.3-1.6,3.1c-0.9,0.8-2.1,1.4-3.4,1.4
		c-2.8,0.1-5-2.2-4.7-5.1C410.2,482.6,412.9,480.6,415.6,481z"/>
	<path class="st2" d="M424.3,457.3c2.3,1.5,3,4.3,1.9,6.4c-1.1,2.2-4,3.1-6.5,2.1c-2.5-1-3.5-4-2.2-6.6
		C418.9,456.6,422.1,455.8,424.3,457.3z"/>
	<path class="st2" d="M442.1,439.1c1.5,2.3,1.1,5.3-0.8,6.7c-1.9,1.5-4.8,1.3-6.7-0.7c-1.8-1.9-1.7-5.2,0.6-7
		C437.6,436.4,440.7,436.8,442.1,439.1z"/>
	<path class="st2" d="M465.9,429.7c0.2,1.3-0.1,2.6-0.7,3.6c-0.6,1-1.6,1.9-2.8,2.2c-2.4,0.5-4.9-0.8-5.8-3.4
		c-0.9-2.5,0.6-5.5,3.4-6.1c1.4-0.4,2.8-0.2,3.8,0.5C465,427.3,465.7,428.4,465.9,429.7z"/>
	<path class="st2" d="M491.5,430.7c-0.7,2.7-3.1,4.2-5.5,3.9c-2.4-0.4-4.1-2.8-3.9-5.5c0.2-2.8,2.7-4.7,5.6-4.2
		C490.6,425.2,492.2,428.1,491.5,430.7z"/>
	<path class="st2" d="M514.6,441.8c-1.7,2.1-4.6,2.6-6.6,1.3c-2-1.2-2.6-4.2-1.3-6.6c1.3-2.4,4.4-3.1,6.8-1.6
		C515.8,436.5,516.3,439.7,514.6,441.8z"/>
	<path class="st2" d="M531,461.1c-2.4,1.2-5.4,0.6-6.6-1.5c-1.2-2.1-0.8-4.9,1.5-6.6c2.1-1.6,5.4-1.2,6.9,1.3
		C534.3,456.8,533.5,459.9,531,461.1z"/>
	<path class="st2" d="M538,485.4c-2.7,0.2-4.9-1.7-5.4-4c-0.2-1.2,0.2-2.4,1-3.4c0.7-1,1.7-1.8,3.1-2.1c1.3-0.3,2.7-0.1,3.7,0.6
		c1,0.7,1.7,1.9,2,3.3C542.9,482.8,540.7,485.3,538,485.4z"/>
	<path class="st2" d="M504,510.4c-2.1-1.7-2.6-4.6-1.4-6.6c0.6-1.1,1.5-1.8,2.7-2.2c1.1-0.4,2.4-0.5,3.7,0c1.3,0.5,2.2,1.4,2.7,2.7
		c0.4,1.2,0.3,2.8-0.5,4.2C509.5,511.4,506.1,512.1,504,510.4z"/>
	<path class="st2" d="M481.1,523.4c-0.3-2.7,1.4-5.1,3.7-5.8c2.2-0.7,4.9,0.5,6.1,3c1.2,2.5-0.3,5.5-3.4,6.5
		C484.2,528,481.4,526.1,481.1,523.4z"/>
	<path class="st2" d="M455.5,516.6c1.7-2.1,4.6-2.7,6.6-1.5c1,0.5,1.8,1.5,2.2,2.7c0.4,1.1,0.5,2.4,0,3.7c-0.5,1.3-1.5,2.2-2.8,2.7
		c-1.3,0.4-2.8,0.3-4.2-0.5C454.5,522.1,453.8,518.7,455.5,516.6z"/>
	<path class="st2" d="M442.3,494c2.7-0.3,5.1,1.3,5.7,3.6c0.6,2.2-0.6,4.9-3,6.1c-2.5,1.2-5.5-0.2-6.4-3.4
		C437.6,497.1,439.6,494.2,442.3,494z"/>
	<path class="st2" d="M449.1,468.7c2.1,1.7,2.6,4.6,1.4,6.6c-0.6,1.1-1.5,1.8-2.7,2.2c-1.1,0.4-2.4,0.5-3.7,0
		c-1.3-0.5-2.2-1.4-2.7-2.7c-0.4-1.2-0.2-2.8,0.5-4.2C443.6,467.7,447,467,449.1,468.7z"/>
	<path class="st2" d="M472,455.7c0.3,2.7-1.4,5.1-3.7,5.8c-2.2,0.7-4.9-0.5-6.1-2.9c-1.2-2.5,0.3-5.5,3.4-6.5
		C468.9,451.1,471.8,453,472,455.7z"/>
	<path class="st2" d="M497.6,462.5c-1.7,2.1-4.6,2.7-6.6,1.5c-1.1-0.6-1.8-1.5-2.2-2.7c-0.4-1.1-0.5-2.4,0-3.7
		c0.5-1.3,1.5-2.2,2.8-2.7c1.3-0.4,2.8-0.3,4.2,0.5C498.7,457,499.3,460.4,497.6,462.5z"/>
	<path class="st2" d="M510.9,485.1c-2.7,0.3-5.1-1.3-5.7-3.6c-0.6-2.2,0.6-4.9,3-6.1c2.5-1.2,5.5,0.2,6.4,3.4
		C515.5,482,513.6,484.9,510.9,485.1z"/>
</g>
</svg>
