<svg width="162" height="156" viewBox="0 0 162 156" fill="none" xmlns="http://www.w3.org/2000/svg">
<path d="M0.499771 59.0443C1.56592 55.7656 4.47405 53.4442 7.90105 53.1342L54.6436 48.8906L73.1166 5.64167C74.4805 2.46422 77.5838 0.413452 81.038 0.413452C84.4921 0.413452 87.5967 2.46422 88.9519 5.64167L107.425 48.8906L154.175 53.1342C157.602 53.4504 160.504 55.7717 161.576 59.0443C162.642 62.3231 161.658 65.9193 159.066 68.1924L123.732 99.175L134.15 145.06C134.913 148.434 133.603 151.923 130.804 153.947C129.299 155.04 127.531 155.586 125.757 155.586C124.232 155.586 122.707 155.181 121.344 154.365L81.038 130.265L40.7392 154.365C37.7829 156.132 34.0656 155.97 31.2723 153.947C28.4729 151.923 27.1634 148.434 27.9257 145.06L38.3438 99.175L3.0101 68.1924C0.41947 65.9193 -0.56638 62.3305 0.499771 59.0443V59.0443Z" fill="white"/>
</svg>
