<svg xmlns="http://www.w3.org/2000/svg" viewBox="0 0 83 83"><defs><style>.cls-1{fill:#d8e4f1;}.cls-2{fill:#296db3;}</style></defs><title>health</title><g id="Layer_2" data-name="Layer 2"><g id="Layer_1-2" data-name="Layer 1"><circle class="cls-1" cx="41.5" cy="41.5" r="41.5"/><path class="cls-2" d="M50.64,24.51c-4.62,0-7.59,3.2-9.14,6.09C40,27.71,37,24.51,32.36,24.51,26.5,24.51,22,29.27,22,35.58a11.86,11.86,0,0,0,.94,4.63h8.71l2-3.94a1.19,1.19,0,0,1,2.05,0l3.54,7.09,1.27-2.52a1.18,1.18,0,0,1,2,0l1.27,2.52,3.54-7.09a1.19,1.19,0,0,1,2.05,0l2,3.94h8.71A11.86,11.86,0,0,0,61,35.58C61,29.27,56.5,24.51,50.64,24.51Z"/><path class="cls-2" d="M50.64,42.49a1.13,1.13,0,0,1-1-.63l-1.27-2.53-3.54,7.1a1.15,1.15,0,0,1-2.05,0L41.5,43.9l-1.26,2.53a1.2,1.2,0,0,1-2.05,0l-3.55-7.1-1.26,2.53a1.13,1.13,0,0,1-1,.63H24.13c2.36,3.7,6.59,7.21,11.89,11.69q2.23,1.88,4.73,4a1.14,1.14,0,0,0,1.5,0q2.49-2.16,4.73-4c5.3-4.48,9.53-8,11.88-11.69Z"/></g></g></svg>