<svg width="156" height="156" viewBox="0 0 156 156" fill="none" xmlns="http://www.w3.org/2000/svg">
<path d="M110.238 118.612V123.158C110.238 129.218 106.238 134.308 100.759 136.079C98.9253 146.785 89.6374 155.586 78.416 155.586C67.1945 155.586 57.9067 146.785 56.0731 136.079C50.5942 134.308 46.5937 129.219 46.5937 123.158V118.612H110.238V118.612Z" fill="white"/>
<path d="M90.1294 1.63917C110.649 5.92337 127.359 22.5804 131.71 43.0909C135.408 60.5426 130.844 78.0609 119.195 91.1574C114.485 96.4572 111.612 102.854 110.67 109.519H46.1418C45.1675 102.885 42.2101 96.3872 37.3661 90.8598C28.6559 80.9285 23.558 68.1784 23.558 54.9664C23.558 20.3616 55.6006 -5.62995 90.1294 1.63917ZM46.5913 59.5127C49.104 59.5127 51.1373 57.4794 51.1373 54.9667C51.1373 39.9257 63.3771 27.6904 78.4181 27.6904C80.9309 27.6904 82.9642 25.6571 82.9642 23.1444C82.9642 20.6316 80.9309 18.5983 78.4181 18.5983C58.3604 18.5983 42.0452 34.9135 42.0452 54.9667C42.0452 57.4794 44.0785 59.5127 46.5913 59.5127Z" fill="white"/>
<path d="M142.362 54.9663H151.454C153.967 54.9663 156 56.9995 156 59.5123C156 62.025 153.967 64.0583 151.454 64.0583H142.362C139.849 64.0583 137.816 62.025 137.816 59.5123C137.816 56.9995 139.849 54.9663 142.362 54.9663Z" fill="white"/>
<path d="M140.481 32.2359L146.91 25.8075C148.686 24.0315 151.562 24.0315 153.338 25.8075C155.114 27.5832 155.114 30.4602 153.338 32.2359L146.91 38.6643C145.134 40.44 142.257 40.44 140.481 38.6643C138.706 36.8887 138.706 34.0116 140.481 32.2359Z" fill="white"/>
<path d="M140.481 80.3603C142.257 78.5846 145.134 78.5843 146.91 80.3603L153.338 86.7887C155.114 88.5644 155.114 91.4414 153.338 93.2171C151.562 94.9928 148.685 94.9928 146.91 93.2171L140.481 86.7887C138.706 85.013 138.706 82.136 140.481 80.3603Z" fill="white"/>
<path d="M5.36968 54.9663H14.4618C16.9745 54.9663 19.0078 56.9995 19.0078 59.5123C19.0078 62.025 16.9745 64.0583 14.4618 64.0583H5.36968C2.85693 64.0583 0.823646 62.025 0.823646 59.5123C0.823646 56.9995 2.85693 54.9663 5.36968 54.9663Z" fill="white"/>
<path d="M3.49697 25.8083C5.27265 24.0327 8.14969 24.0327 9.92537 25.8083L16.3538 32.2368C18.1295 34.0124 18.1295 36.8895 16.3538 38.6652C14.5781 40.4409 11.7014 40.4409 9.92537 38.6652L3.49697 32.2368C1.72128 30.4611 1.72128 27.584 3.49697 25.8083Z" fill="white"/>
<path d="M3.49697 86.7886L9.92537 80.3602C11.7011 78.5845 14.5781 78.5845 16.3538 80.3602C18.1295 82.1359 18.1295 85.0129 16.3538 86.7886L9.92537 93.217C8.14969 94.9927 5.27265 94.9927 3.49697 93.217C1.72128 91.4413 1.72128 88.5643 3.49697 86.7886Z" fill="white"/>
</svg>
