<svg width="156" height="156" viewBox="0 0 156 156" fill="none" xmlns="http://www.w3.org/2000/svg">
<path d="M66.7822 122.743H144.347C150.78 122.743 156 127.962 156 134.396V155.586H55.1294V134.396C55.1294 127.962 60.3493 122.743 66.7822 122.743Z" fill="white"/>
<path d="M2.8986 124.386L73.702 53.5825L60.0263 39.9311C57.7714 41.9195 54.3038 41.8223 52.1701 39.6886C49.9392 37.4337 49.9392 33.8205 52.1701 31.5656L81.6551 2.10464C83.886 -0.150276 87.5232 -0.150276 89.7538 2.10464C92.0087 4.33555 92.0087 7.97271 89.7538 10.2033L89.9963 9.96084L127.435 47.375L127.193 47.6414C129.423 45.3865 133.061 45.3865 135.291 47.6414C137.546 49.8724 137.546 53.5095 135.291 55.7404L105.83 85.2254C103.575 87.4564 99.9382 87.4564 97.7072 85.2254C95.4763 82.9705 95.4763 79.3577 97.7072 77.1031L97.4648 77.3449L83.7891 63.6936L13.01 134.473C10.2215 137.261 5.68709 137.261 2.8986 134.473C0.110109 131.684 0.110109 127.174 2.8986 124.386Z" fill="white"/>
</svg>
