<svg xmlns="http://www.w3.org/2000/svg" viewBox="0 0 83 83"><defs><style>.cls-1{fill:#d8f1d9;}.cls-2{fill:#29b32f;}</style></defs><title>lunch</title><g id="Layer_2" data-name="Layer 2"><g id="Layer_1-2" data-name="Layer 1"><circle class="cls-1" cx="41.5" cy="41.5" r="41.5"/><path class="cls-2" d="M33.78,49.12a3.43,3.43,0,0,1-1.73-3,9.54,9.54,0,0,1,9.53-9.52H45.5l.18-3.05H23.45l1.6,26.35A1.13,1.13,0,0,0,26.19,61h7a5.69,5.69,0,0,1-1.15-3.43,3.44,3.44,0,0,1,2.27-3.22,4.56,4.56,0,0,1,0-5C34,49.28,33.74,49.2,33.78,49.12Z"/><path class="cls-2" d="M34.57,31.29H46A1.14,1.14,0,1,0,46,29H36.68l3.08-4.72h4a1.15,1.15,0,0,0,0-2.29H39.14a1.13,1.13,0,0,0-1,.52L34,29H23.14a1.14,1.14,0,1,0,0,2.28H34.57Z"/><path class="cls-2" d="M34.34,46.15a1.14,1.14,0,0,0,1.14,1.14H59.86A1.14,1.14,0,0,0,61,46.15a7.25,7.25,0,0,0-7.24-7.24H41.58A7.25,7.25,0,0,0,34.34,46.15Z"/><path class="cls-2" d="M38.15,49.57a2.29,2.29,0,1,0,0,4.57h19a2.29,2.29,0,1,0,0-4.57Z"/><path class="cls-2" d="M59.86,56.43H35.48a1.14,1.14,0,0,0-1.14,1.14A3.44,3.44,0,0,0,37.77,61h19.8A3.44,3.44,0,0,0,61,57.57,1.14,1.14,0,0,0,59.86,56.43Z"/></g></g></svg>