<svg xmlns="http://www.w3.org/2000/svg" viewBox="0 0 113.15 195.6"><defs><style>.cls-1{fill:#d8e4f1;}.cls-2{fill:#9dbcdc;}</style></defs><title>plane-2</title><g id="Layer_2" data-name="Layer 2"><g id="Layer_1-2" data-name="Layer 1"><path class="cls-1" d="M113.07,1.25a1.6,1.6,0,0,0-1.23-.68C110,.39,108.19.26,106.37.16c-.63,0-1.05.29-.92.71a1.51,1.51,0,0,0,1.36.82c1.76.09,3.55.22,5.31.39.64.06,1.09-.23,1-.65A.67.67,0,0,0,113.07,1.25ZM102.35.69A1.68,1.68,0,0,0,101,0c-1.76,0-3.55,0-5.31.07-.61,0-.94.39-.74.81a1.66,1.66,0,0,0,1.47.72c1.71-.06,3.45-.08,5.17-.07.62,0,1-.33.83-.75A.36.36,0,0,0,102.35.69ZM92,1.05A1.68,1.68,0,0,0,90.46.37c-1.7.13-3.4.31-5.07.51-.58.07-.84.47-.56.89a1.75,1.75,0,0,0,1.55.62c1.63-.2,3.29-.37,4.94-.5C91.92,1.84,92.21,1.47,92,1.05ZM82.09,2.27,82,2.17a1.76,1.76,0,0,0-1.58-.56c-1.61.27-3.22.58-4.78.92-.54.12-.72.55-.38,1A1.8,1.8,0,0,0,76.9,4c1.52-.33,3.09-.64,4.66-.9C82.08,3,82.3,2.65,82.09,2.27Zm-9.28,2a1,1,0,0,0-.13-.18,1.77,1.77,0,0,0-1.62-.46c-1.51.4-3,.85-4.44,1.32-.5.17-.58.62-.19,1a1.78,1.78,0,0,0,1.64.4c1.4-.46,2.86-.9,4.32-1.3C72.84,5,73,4.65,72.81,4.31ZM64.25,7.12A1,1,0,0,0,64,6.86a1.75,1.75,0,0,0-1.64-.34c-1.37.53-2.73,1.11-4,1.71-.45.21-.46.67,0,1A1.73,1.73,0,0,0,60,9.55C61.28,9,62.6,8.41,63.94,7.88A.5.5,0,0,0,64.25,7.12Zm-7.71,3.57a1,1,0,0,0-.32-.34,1.71,1.71,0,0,0-1.64-.22c-1.23.67-2.41,1.37-3.54,2.09-.39.25-.3.73.2,1.07a1.64,1.64,0,0,0,1.64.15c1.09-.7,2.25-1.38,3.44-2A.49.49,0,0,0,56.54,10.69Zm22,41.23c-.12-.21-.24-.43-.38-.65a17.06,17.06,0,0,0-1.48-2.07,1.73,1.73,0,0,0-1.59-.53c-.56.11-.73.53-.4.94A17.5,17.5,0,0,1,76,51.5,13,13,0,0,1,76.79,53a1.61,1.61,0,0,0,1.46.74c.61,0,1-.37.77-.79S78.7,52.25,78.52,51.92Zm1.41,4.5a1.56,1.56,0,0,0-1.14-.67c-.64-.09-1.14.17-1.11.58a8.15,8.15,0,0,1-.37,3.2c-.13.38.28.84.91,1s1.24,0,1.37-.34A9.15,9.15,0,0,0,80,56.66.57.57,0,0,0,79.93,56.42ZM73.41,46a1.22,1.22,0,0,0-.27-.3,31.17,31.17,0,0,0-4.55-3,1.49,1.49,0,0,0-1.59,0c-.32.29-.14.78.42,1.08a27.71,27.71,0,0,1,4.08,2.69,1.75,1.75,0,0,0,1.65.29A.52.52,0,0,0,73.41,46Zm4.4,16.75a1.22,1.22,0,0,0-.58-.5,1.42,1.42,0,0,0-1.56.07,10.41,10.41,0,0,1-2.83,2.22c-.43.23-.38.7.1,1.06a1.68,1.68,0,0,0,1.64.21,11.47,11.47,0,0,0,3.19-2.49A.46.46,0,0,0,77.81,62.77ZM64.1,40.93a1.32,1.32,0,0,0-.74-.57,47.51,47.51,0,0,0-5.57-1.68c-.64-.15-1.21,0-1.28.44s.4.84,1,1a43.65,43.65,0,0,1,5.12,1.54c.61.22,1.26.12,1.46-.24A.49.49,0,0,0,64.1,40.93ZM49.83,15a1.24,1.24,0,0,0-.43-.42,1.61,1.61,0,0,0-1.62-.08c-1,.79-2,1.61-3,2.45-.32.29-.14.78.42,1.08a1.53,1.53,0,0,0,1.59,0c.9-.82,1.87-1.62,2.88-2.39A.48.48,0,0,0,49.83,15ZM70.66,66.64l-.1-.15a1.83,1.83,0,0,0-1.62-.5,23.46,23.46,0,0,1-3.54.54l-1.09,0c-.61,0-1,.36-.77.79a1.63,1.63,0,0,0,1.45.74l1.25-.06a25.18,25.18,0,0,0,4-.59C70.68,67.34,70.86,67,70.66,66.64ZM44.3,20a1.36,1.36,0,0,0-.57-.5,1.42,1.42,0,0,0-1.56.07,31.19,31.19,0,0,0-2.3,2.79c-.25.34,0,.82.63,1.08A1.35,1.35,0,0,0,42,23.3a34.79,34.79,0,0,1,2.23-2.71A.49.49,0,0,0,44.3,20Zm9,18.33a1.57,1.57,0,0,0-1.18-.67,52.41,52.41,0,0,0-5.57-.43c-.63,0-1,.31-.87.73a1.54,1.54,0,0,0,1.4.79,51,51,0,0,1,5.21.41c.64.08,1.13-.19,1.08-.6A.62.62,0,0,0,53.31,38.33ZM40.13,25.67a1.37,1.37,0,0,0-.72-.56c-.62-.23-1.27-.14-1.47.21a26.46,26.46,0,0,0-1.53,3.12c-.16.36.23.83.85,1s1.25.07,1.41-.3a26.2,26.2,0,0,1,1.48-3A.5.5,0,0,0,40.13,25.67ZM60.36,66.8a1.58,1.58,0,0,0-1-.66,26,26,0,0,1-5-1.49c-.61-.25-1.28-.17-1.5.17s.08.82.68,1.07a30.86,30.86,0,0,0,5.69,1.71c.65.13,1.18-.1,1.21-.5A.67.67,0,0,0,60.36,66.8ZM42.71,38.05a1.71,1.71,0,0,0-1.53-.68,41,41,0,0,0-5,.71l-.14,0a1.91,1.91,0,0,0-.41-.11c-.64-.12-1.16.13-1.16.53a26.86,26.86,0,0,0,.25,3.56c0,.42.62.82,1.26.89s1.11-.2,1.06-.61a27,27,0,0,1-.23-2.82,1.88,1.88,0,0,0,.58,0,37.5,37.5,0,0,1,4.72-.67C42.64,38.84,42.94,38.47,42.71,38.05Zm-5.17-6.12a1.52,1.52,0,0,0-.9-.62c-.64-.17-1.24,0-1.34.38a25.75,25.75,0,0,0-.67,3.37c-.05.4.43.84,1.07,1S36.91,36,37,35.58a25.57,25.57,0,0,1,.64-3.25A.57.57,0,0,0,37.54,31.93ZM50.25,62.71a1.27,1.27,0,0,0-.4-.4A30.11,30.11,0,0,1,46,59.43a1.79,1.79,0,0,0-1.65-.33c-.47.19-.51.65-.08,1a34.06,34.06,0,0,0,4.23,3.14,1.64,1.64,0,0,0,1.63.12A.5.5,0,0,0,50.25,62.71Zm-12.65-17A1.62,1.62,0,0,0,36.32,45c-.63,0-1.06.27-1,.69a36.41,36.41,0,0,0,1.15,3.64,1.6,1.6,0,0,0,1.42.78c.62,0,1-.33.84-.75a34.64,34.64,0,0,1-1.11-3.51A.77.77,0,0,0,37.6,45.71Zm5.32,10.66a1.1,1.1,0,0,0-.11-.14,25.36,25.36,0,0,1-2.41-3.38,1.69,1.69,0,0,0-1.52-.66c-.59.05-.89.42-.63.85a25.83,25.83,0,0,0,2.59,3.63,1.76,1.76,0,0,0,1.61.51C42.93,57.08,43.11,56.73,42.92,56.37Zm-9.64-16.5a.77.77,0,0,0-.14-.19,1.79,1.79,0,0,0-1.63-.45c-1.5.43-3,.91-4.36,1.41-.49.18-.56.64-.14,1a1.78,1.78,0,0,0,1.64.37c1.35-.49,2.77-1,4.23-1.37C33.32,40.54,33.47,40.21,33.28,39.87ZM25,42.9a1.39,1.39,0,0,0-.26-.3,1.74,1.74,0,0,0-1.65-.29c-1.31.6-2.58,1.24-3.78,1.92-.42.24-.36.71.12,1.06A1.71,1.71,0,0,0,21,45.5c1.16-.66,2.39-1.28,3.66-1.86A.5.5,0,0,0,25,42.9Zm-7.12,4a1.23,1.23,0,0,0-.39-.4,1.64,1.64,0,0,0-1.63-.12c-1.09.75-2.13,1.55-3.11,2.38-.34.28-.17.77.37,1.08a1.55,1.55,0,0,0,1.61,0,35.08,35.08,0,0,1,3-2.3A.49.49,0,0,0,17.85,46.9Zm-5.76,4.88a1.28,1.28,0,0,0-.55-.49,1.45,1.45,0,0,0-1.57,0,36.18,36.18,0,0,0-2.39,2.75c-.25.33,0,.82.6,1.08A1.39,1.39,0,0,0,9.72,55c.71-.91,1.49-1.81,2.31-2.67A.45.45,0,0,0,12.09,51.78ZM7.73,57.36A1.38,1.38,0,0,0,7,56.8c-.61-.24-1.28-.15-1.49.19-.61,1-1.18,2-1.7,3-.17.37.19.83.8,1s1.26.11,1.44-.25a32.86,32.86,0,0,1,1.65-3A.49.49,0,0,0,7.73,57.36Zm-3,6.11a1.39,1.39,0,0,0-.83-.6c-.63-.2-1.25-.06-1.39.32-.4,1-.76,2.14-1.06,3.25-.1.38.33.84,1,1s1.24,0,1.34-.37c.3-1.08.64-2.15,1-3.18A.51.51,0,0,0,4.71,63.47ZM2.93,70a1.51,1.51,0,0,0-1-.63c-.63-.16-1.21,0-1.28.43C.49,70.88.33,72,.22,73.17c0,.4.45.83,1.1,1s1.19-.08,1.23-.48c.11-1.13.26-2.25.46-3.33A.61.61,0,0,0,2.93,70ZM39.5,142.8a1,1,0,0,0-.26-.3c-1.27-1-2.52-2.08-3.73-3.13a1.72,1.72,0,0,0-1.64-.33c-.48.19-.51.65-.08,1,1.23,1.07,2.51,2.15,3.8,3.19a1.72,1.72,0,0,0,1.64.29A.5.5,0,0,0,39.5,142.8Zm-37.23-66a1.54,1.54,0,0,0-1.08-.66C.55,76,0,76.22,0,76.62c0,1.15,0,2.33,0,3.5,0,.41.56.83,1.2.92s1.15-.15,1.13-.56c-.06-1.16-.08-2.31-.05-3.44A.58.58,0,0,0,2.27,76.76Zm29.88,59.65a1,1,0,0,0-.19-.24c-1.14-1.07-2.28-2.17-3.37-3.27a1.78,1.78,0,0,0-1.63-.42c-.51.16-.61.6-.22,1,1.1,1.11,2.26,2.23,3.43,3.32a1.75,1.75,0,0,0,1.64.38A.51.51,0,0,0,32.15,136.41ZM2.61,83.73a1.61,1.61,0,0,0-1.18-.68c-.64-.08-1.12.19-1.08.61.14,1.17.32,2.37.53,3.56a1.42,1.42,0,0,0,1.29.87c.64.07,1.1-.22,1-.64C3,86.28,2.81,85.1,2.68,84A.57.57,0,0,0,2.61,83.73Zm22.94,46a.68.68,0,0,0-.13-.18c-1-1.11-2-2.25-3-3.38a1.8,1.8,0,0,0-1.61-.51c-.54.13-.71.55-.36,1,1,1.15,2,2.31,3,3.44a1.78,1.78,0,0,0,1.62.47C25.58,130.44,25.74,130.1,25.55,129.76ZM3.87,90.82a1.63,1.63,0,0,0-1.27-.68c-.63,0-1.07.25-1,.67.28,1.19.61,2.4,1,3.61A1.53,1.53,0,0,0,4,95.23c.63,0,1-.28.92-.71-.35-1.18-.67-2.37-.95-3.54A.52.52,0,0,0,3.87,90.82Zm15.89,32.07-.07-.11c-.89-1.14-1.75-2.31-2.56-3.46a1.77,1.77,0,0,0-1.57-.6c-.57.09-.8.5-.51.91.84,1.18,1.72,2.37,2.62,3.53a1.76,1.76,0,0,0,1.58.55C19.75,123.61,20,123.26,19.76,122.89ZM6,98a1.66,1.66,0,0,0-1.36-.68c-.62,0-1,.31-.86.74.42,1.2.88,2.41,1.37,3.61a1.61,1.61,0,0,0,1.44.76c.62,0,1-.34.81-.77-.48-1.18-.94-2.37-1.36-3.56A1,1,0,0,1,6,98Zm8.81,17.89,0-.05c-.41-.64-.81-1.29-1.21-1.94s-.63-1-.93-1.58a1.71,1.71,0,0,0-1.52-.67c-.6.05-.89.43-.64.85s.63,1.08.95,1.61.81,1.32,1.23,2a1.75,1.75,0,0,0,1.54.63C14.76,116.63,15,116.27,14.8,115.87ZM8.92,105.16a1.7,1.7,0,0,0-1.44-.69c-.62,0-1,.38-.76.8.56,1.21,1.15,2.42,1.78,3.61a1.62,1.62,0,0,0,1.49.7c.6,0,.92-.4.7-.82-.62-1.18-1.2-2.37-1.75-3.56Z"/><path class="cls-2" d="M24.19,143.93a1.22,1.22,0,0,0-.27-.35c-.59-.51-1.16-1-1.73-1.54a1.21,1.21,0,0,0-1.38-.24c-.36.24-.31.73.09,1.1l1.76,1.57a1.2,1.2,0,0,0,1.38.21A.57.57,0,0,0,24.19,143.93Z"/><path class="cls-2" d="M41.43,131.39l8-.47,9.54,64.68Z"/><path class="cls-2" d="M15,138.63l11.82-.37L58.92,195.6Z"/><path class="cls-1" d="M15,138.63,6,153.45l53,42.15Z"/><path class="cls-1" d="M21.47,128.78l13.87-21.86L58.92,195.6Z"/></g></g></svg>