<svg xmlns="http://www.w3.org/2000/svg" viewBox="0 0 141.75 250.03"><defs><style>.cls-1{fill:#9dbcdc;}.cls-2{fill:#d8e4f1;}</style></defs><title>plane-3</title><g id="Layer_2" data-name="Layer 2"><g id="Layer_1-2" data-name="Layer 1"><path class="cls-1" d="M15.81.56A1.57,1.57,0,0,1,17.37,0C19.57.38,21.79.8,24,1.27c.76.16,1.22.73,1,1.26a1.5,1.5,0,0,1-1.74.68C21.13,2.76,19,2.35,16.84,2c-.78-.13-1.28-.67-1.14-1.22A1,1,0,0,1,15.81.56ZM28.73,3.31a1.62,1.62,0,0,1,1.74-.49c2.12.56,4.26,1.17,6.36,1.83.73.23,1.08.84.78,1.35a1.61,1.61,0,0,1-1.85.51c-2-.64-4.13-1.24-6.19-1.79-.74-.2-1.15-.78-.9-1.31ZM41.11,7.2A1.69,1.69,0,0,1,43,6.76c2,.74,4,1.54,6,2.37.69.29,1,.92.55,1.4a1.72,1.72,0,0,1-1.93.35c-1.93-.81-3.9-1.59-5.87-2.31C41.09,8.31,40.79,7.7,41.11,7.2Zm11.7,4.92A.94.94,0,0,1,52.9,12a1.77,1.77,0,0,1,2-.26c1.89.91,3.78,1.86,5.61,2.84.64.35.79,1,.33,1.43a1.81,1.81,0,0,1-2,.19c-1.78-1-3.63-1.9-5.47-2.78C52.72,13.13,52.51,12.57,52.81,12.12ZM63.67,18a.91.91,0,0,1,.18-.21,1.83,1.83,0,0,1,2-.1c1.75,1.05,3.48,2.16,5.14,3.28a.83.83,0,0,1,.09,1.44,1.85,1.85,0,0,1-2,0c-1.62-1.09-3.31-2.16-5-3.19A.85.85,0,0,1,63.67,18Zm9.89,6.67a.93.93,0,0,1,.3-.29,1.87,1.87,0,0,1,2,.06c1.57,1.19,3.12,2.42,4.59,3.67a.83.83,0,0,1-.13,1.43,1.83,1.83,0,0,1-2-.15c-1.44-1.22-3-2.42-4.49-3.58A.82.82,0,0,1,73.56,24.63Zm8.78,7.42a1.11,1.11,0,0,1,.43-.36,1.84,1.84,0,0,1,2,.24c1.38,1.31,2.71,2.66,4,4a.85.85,0,0,1-.38,1.4,1.83,1.83,0,0,1-2-.32c-1.22-1.32-2.52-2.64-3.87-3.92A.8.8,0,0,1,82.34,32.05ZM50.65,81.43c.17-.26.35-.51.54-.77a20.8,20.8,0,0,1,2-2.36,1.79,1.79,0,0,1,2-.21c.65.34.8,1,.36,1.43a19,19,0,0,0-1.86,2.15,16.63,16.63,0,0,0-1.12,1.75,1.61,1.61,0,0,1-1.84.54c-.73-.22-1.1-.82-.82-1.34S50.39,81.82,50.65,81.43Zm-2.27,5.71a1.53,1.53,0,0,1,1.46-.55c.78.09,1.34.61,1.25,1.16a13.2,13.2,0,0,0,0,4.52c.1.56-.44,1-1.22,1.1a1.44,1.44,0,0,1-1.6-.91,14.54,14.54,0,0,1,0-5A.56.56,0,0,1,48.38,87.14ZM57.55,75a1.24,1.24,0,0,1,.35-.33,30.48,30.48,0,0,1,5.84-2.63,1.76,1.76,0,0,1,1.91.51c.35.51.07,1.12-.63,1.35a26.17,26.17,0,0,0-5.25,2.36,1.87,1.87,0,0,1-2-.15A.83.83,0,0,1,57.55,75ZM50.1,96.54a1.29,1.29,0,0,1,.76-.49,1.69,1.69,0,0,1,1.85.61,17.12,17.12,0,0,0,3.11,4,.83.83,0,0,1-.26,1.42,1.82,1.82,0,0,1-2-.24,19.06,19.06,0,0,1-3.5-4.46A.76.76,0,0,1,50.1,96.54ZM69.36,71.07a1.35,1.35,0,0,1,1-.54,48.33,48.33,0,0,1,6.9-.48c.79,0,1.44.46,1.47,1s-.59,1-1.37,1a46.17,46.17,0,0,0-6.33.43,1.55,1.55,0,0,1-1.72-.79A.73.73,0,0,1,69.36,71.07ZM89.83,40.15a1.23,1.23,0,0,1,.57-.43,1.8,1.8,0,0,1,1.95.41c1.15,1.43,2.24,2.88,3.24,4.34.35.51.07,1.12-.63,1.35a1.77,1.77,0,0,1-1.92-.5c-1-1.42-2-2.84-3.14-4.22A.77.77,0,0,1,89.83,40.15ZM58.16,104.21c.05-.06.09-.12.15-.18a1.84,1.84,0,0,1,2-.15,27.72,27.72,0,0,0,4.17,1.89c.44.16.87.3,1.3.43.74.22,1.11.82.83,1.34a1.61,1.61,0,0,1-1.84.54c-.49-.15-1-.31-1.49-.49a31,31,0,0,1-4.68-2.12A.89.89,0,0,1,58.16,104.21ZM95.81,48.84a1.26,1.26,0,0,1,.75-.49,1.69,1.69,0,0,1,1.86.59c.87,1.52,1.68,3.06,2.4,4.59.25.54-.15,1.11-.9,1.27a1.65,1.65,0,0,1-1.81-.69c-.69-1.48-1.47-3-2.32-4.45A.76.76,0,0,1,95.81,48.84ZM82.64,71a1.56,1.56,0,0,1,1.49-.54,60,60,0,0,1,6.74,1.24c.75.18,1.17.76.95,1.29a1.54,1.54,0,0,1-1.78.63,59.28,59.28,0,0,0-6.31-1.16c-.78-.09-1.32-.62-1.21-1.17A.74.74,0,0,1,82.64,71ZM100.07,58a1.34,1.34,0,0,1,.94-.54,1.58,1.58,0,0,1,1.74.78c.56,1.58,1,3.19,1.43,4.77.13.56-.39,1.07-1.16,1.15a1.5,1.5,0,0,1-1.65-.87A45,45,0,0,0,100,58.66.76.76,0,0,1,100.07,58ZM70.49,107.8a1.52,1.52,0,0,1,1.34-.56,25.84,25.84,0,0,0,6.13-.43,1.63,1.63,0,0,1,1.78.73c.22.55-.21,1.1-1,1.24a29.82,29.82,0,0,1-7,.49c-.79,0-1.4-.52-1.38-1.08A.76.76,0,0,1,70.49,107.8ZM95.38,74.13a1.69,1.69,0,0,1,1.91-.44,51.51,51.51,0,0,1,6,2.64l.16.1a1.72,1.72,0,0,1,.51,0c.78.06,1.37.56,1.32,1.12a41.64,41.64,0,0,1-.76,4.8,1.41,1.41,0,0,1-1.63.81c-.77-.11-1.31-.64-1.19-1.19a37.47,37.47,0,0,0,.64-3.79,1.83,1.83,0,0,1-.69-.2,47.09,47.09,0,0,0-5.57-2.46C95.35,75.24,95.05,74.63,95.38,74.13Zm7-6.7a1.46,1.46,0,0,1,1.16-.56c.78,0,1.48.4,1.55,1a44,44,0,0,1,.36,4.85c0,.56-.62,1-1.41,1s-1.43-.48-1.44-1a43.53,43.53,0,0,0-.35-4.68A.81.81,0,0,1,102.37,67.43ZM83.14,105.51a1.15,1.15,0,0,1,.53-.42,30.16,30.16,0,0,0,5-2.68,1.87,1.87,0,0,1,2,.07.83.83,0,0,1,0,1.44,32.07,32.07,0,0,1-5.48,2.93,1.79,1.79,0,0,1-2-.37A.79.79,0,0,1,83.14,105.51Zm17.36-19.2a1.61,1.61,0,0,1,1.63-.51c.76.15,1.24.71,1.05,1.25a46.43,46.43,0,0,1-1.86,4.62,1.56,1.56,0,0,1-1.79.6c-.75-.19-1.16-.77-.91-1.3.67-1.47,1.28-3,1.79-4.46A.88.88,0,0,1,100.5,86.31Zm-7.75,12.9a1.07,1.07,0,0,1,.14-.16,27.09,27.09,0,0,0,3.33-3.85,1.69,1.69,0,0,1,1.91-.41c.71.26,1,.87.65,1.38a29.91,29.91,0,0,1-3.58,4.13,1.82,1.82,0,0,1-2,.18A.88.88,0,0,1,92.75,99.21Zm13.69-19.49a1,1,0,0,1,.2-.21,1.83,1.83,0,0,1,2-.08c1.74,1.07,3.44,2.21,5,3.36a.83.83,0,0,1,0,1.44,1.85,1.85,0,0,1-2,0c-1.56-1.11-3.2-2.21-4.89-3.26A.85.85,0,0,1,106.44,79.72ZM116,86.6a1.09,1.09,0,0,1,.35-.32,1.85,1.85,0,0,1,2,.14c1.49,1.25,2.94,2.55,4.29,3.87a.84.84,0,0,1-.29,1.42,1.84,1.84,0,0,1-2-.26c-1.31-1.27-2.7-2.53-4.14-3.74A.81.81,0,0,1,116,86.6Zm8,7.83a1.15,1.15,0,0,1,.53-.42,1.82,1.82,0,0,1,2,.36c1.2,1.39,2.35,2.83,3.41,4.29.37.5.11,1.11-.58,1.36a1.8,1.8,0,0,1-1.93-.47c-1-1.41-2.14-2.8-3.31-4.14A.78.78,0,0,1,124,94.43ZM130.3,103a1.27,1.27,0,0,1,.72-.49,1.73,1.73,0,0,1,1.88.57c.9,1.48,1.74,3,2.5,4.56.26.54-.12,1.11-.86,1.28a1.67,1.67,0,0,1-1.82-.66c-.74-1.5-1.56-3-2.43-4.43A.72.72,0,0,1,130.3,103Zm4.5,9.08a1.4,1.4,0,0,1,.9-.53,1.6,1.6,0,0,1,1.76.75c.61,1.54,1.16,3.14,1.64,4.73.16.55-.33,1.08-1.09,1.18a1.55,1.55,0,0,1-1.7-.82c-.46-1.56-1-3.1-1.59-4.6A.77.77,0,0,1,134.8,112.09Zm2.83,9.38a1.4,1.4,0,0,1,1.07-.55,1.48,1.48,0,0,1,1.63.9c.34,1.57.62,3.19.84,4.8.08.56-.5,1-1.28,1.08a1.43,1.43,0,0,1-1.56-1c-.21-1.57-.49-3.15-.82-4.69A.75.75,0,0,1,137.63,121.47Zm1.29,9.51a1.47,1.47,0,0,1,1.23-.55c.78,0,1.45.44,1.48,1,.1,1.58.14,3.2.12,4.81,0,.56-.65,1-1.44,1s-1.42-.5-1.41-1.07c0-1.58,0-3.16-.12-4.71A.81.81,0,0,1,138.92,131Zm-53.28,88a1,1,0,0,1,.36-.33c1.65-1,3.29-2,4.87-3.07a1.86,1.86,0,0,1,2,.08.83.83,0,0,1,0,1.44c-1.61,1.06-3.28,2.12-5,3.13a1.88,1.88,0,0,1-2-.14A.82.82,0,0,1,85.64,218.94Zm53.19-78.43a1.53,1.53,0,0,1,1.38-.55c.78,0,1.39.54,1.34,1.1-.11,1.59-.29,3.2-.51,4.79-.08.56-.78,1-1.56.87s-1.36-.59-1.28-1.15c.22-1.56.39-3.14.51-4.69A.71.71,0,0,1,138.83,140.51ZM95.28,212.58a1,1,0,0,1,.26-.27c1.51-1.09,3-2.23,4.46-3.37a1.83,1.83,0,0,1,2-.05.84.84,0,0,1,.14,1.44c-1.47,1.17-3,2.33-4.55,3.44a1.85,1.85,0,0,1-2,0A.82.82,0,0,1,95.28,212.58ZM137.52,150a1.55,1.55,0,0,1,1.5-.53c.78.1,1.32.63,1.21,1.18-.32,1.56-.68,3.15-1.09,4.72a1.44,1.44,0,0,1-1.67.77c-.77-.12-1.28-.67-1.14-1.22.41-1.54.77-3.1,1.08-4.64A.82.82,0,0,1,137.52,150Zm-33.47,55.65a1.08,1.08,0,0,1,.18-.2c1.37-1.19,2.71-2.42,4-3.66a1.81,1.81,0,0,1,2-.17c.64.35.79,1,.32,1.43-1.32,1.26-2.69,2.51-4.08,3.73a1.81,1.81,0,0,1-2,.11A.86.86,0,0,1,104.05,205.61Zm31-46.33a1.63,1.63,0,0,1,1.61-.52c.76.15,1.25.7,1.07,1.25-.49,1.54-1,3.1-1.62,4.63a1.5,1.5,0,0,1-1.75.67c-.76-.16-1.21-.73-1-1.27.58-1.51,1.11-3,1.6-4.56A1.24,1.24,0,0,1,135.09,159.28Zm-23.2,38.81a.57.57,0,0,1,.1-.13c1.2-1.27,2.38-2.59,3.51-3.91a1.74,1.74,0,0,1,2-.3c.67.3.89.94.49,1.4-1.16,1.35-2.36,2.69-3.59,4a1.78,1.78,0,0,1-2,.24C111.8,199.08,111.59,198.53,111.89,198.09Zm19.73-29.67a1.62,1.62,0,0,1,1.71-.5c.75.19,1.17.77.94,1.3-.66,1.51-1.37,3-2.11,4.51a1.6,1.6,0,0,1-1.82.58c-.74-.21-1.14-.8-.87-1.32.73-1.47,1.42-3,2.08-4.45Zm-12.88,21.65a.1.1,0,0,0,0,0c.58-.75,1.14-1.5,1.7-2.26s.89-1.24,1.33-1.87a1.68,1.68,0,0,1,1.9-.41c.71.26,1,.87.66,1.37s-.89,1.27-1.35,1.9c-.57.78-1.14,1.55-1.73,2.31a1.74,1.74,0,0,1-1.93.36C118.69,191.14,118.43,190.55,118.74,190.07Zm8.44-12.76a1.64,1.64,0,0,1,1.81-.47c.74.23,1.09.83.81,1.34-.83,1.47-1.7,2.94-2.6,4.38a1.63,1.63,0,0,1-1.88.47c-.72-.25-1-.85-.73-1.36.89-1.41,1.75-2.86,2.56-4.31Z"/><path class="cls-1" d="M25.05,248.57a1.12,1.12,0,0,1,.38-.33c.77-.4,1.53-.8,2.28-1.22a1.39,1.39,0,0,1,1.66.28.85.85,0,0,1-.29,1.34c-.77.42-1.54.84-2.32,1.24a1.39,1.39,0,0,1-1.66-.3A.83.83,0,0,1,25.05,248.57Z"/><path class="cls-1" d="M54.41,202.21l-6.36-5.32L0,245.17Z"/><path class="cls-1" d="M72.11,224.66,62.43,217,0,245.17Z"/><path class="cls-2" d="M72.11,224.66l-1.64,18L0,245.17Z"/><path class="cls-2" d="M72.75,212.38l1.91-26.9L0,245.17Z"/></g></g></svg>