<svg width="115" height="156" viewBox="0 0 115 156" fill="none" xmlns="http://www.w3.org/2000/svg">
<path d="M11.4958 57.3968C11.5358 57.3522 11.5773 57.3092 11.6173 57.2647C5.63076 52.1491 2.08392 44.6375 2.08392 36.5488C2.08392 23.0682 11.9189 11.8428 24.79 9.66672V4.96761C24.7903 2.44969 26.8315 0.408203 29.3497 0.408203H83.8743C86.3922 0.408203 88.4337 2.44969 88.4337 4.96761V25.7304C88.4337 28.2483 86.3922 30.2898 83.8743 30.2898H75.7011V43.0476C86.4629 44.1759 96.5169 49.2648 103.805 57.3971C112.113 66.6686 116.098 79.0837 114.738 91.4587L111.178 123.855H4.12299L0.562805 91.4584C-0.797676 79.0834 3.18771 66.6684 11.4958 57.3968ZM18.5037 51.0999C24.1263 47.0478 30.6496 44.3723 37.5229 43.3173V30.2895H29.3497C26.8318 30.2895 24.7903 28.248 24.7903 25.7301V18.9831C16.9841 21.0107 11.203 28.1168 11.203 36.5488C11.2027 42.349 13.9434 47.7043 18.5037 51.0999Z" fill="white"/>
<path d="M110.145 132.972L109.148 142.042C108.299 149.76 101.805 155.579 94.0408 155.579H21.1971C13.433 155.579 6.93848 149.76 6.09019 142.042L5.09338 132.972H110.145Z" fill="white"/>
</svg>
