<svg width="661" height="460" viewBox="0 0 661 460" fill="none" xmlns="http://www.w3.org/2000/svg">
<rect x="0.583984" y="0.5" width="659" height="459" rx="9.5" fill="white" stroke="#D8E4F1"/>
<path opacity="0.4" d="M0 11C0 5.47716 4.47715 1 10 1H650C655.523 1 660 5.47715 660 11V206H0V11Z" fill="#D8E4F1"/>
<g filter="url(#filter0_d)">
<rect x="53" y="130" width="155" height="154" rx="2" fill="white"/>
<rect x="53.5" y="130.5" width="154" height="153" rx="1.5" stroke="#DDDDDD"/>
</g>
<g filter="url(#filter1_d)">
<rect x="253" y="130" width="155" height="154" rx="2" fill="white"/>
<rect x="253.5" y="130.5" width="154" height="153" rx="1.5" stroke="#DDDDDD"/>
</g>
<g filter="url(#filter2_d)">
<rect x="453" y="130" width="155" height="154" rx="2" fill="white"/>
<rect x="453.5" y="130.5" width="154" height="153" rx="1.5" stroke="#DDDDDD"/>
</g>
<rect x="464" y="142" width="16" height="5" rx="2.5" fill="#C92B2B"/>
<rect x="264" y="142" width="16" height="5" rx="2.5" fill="#F79B24"/>
<rect x="61" y="142" width="16" height="5" rx="2.5" fill="#E4D22F"/>
<path d="M78.5229 174.672H81.5949L84.6189 182.608L87.6749 174.672H90.7149V186H88.7949V176.592H88.7629L85.3229 186H83.9149L80.4749 176.592H80.4429V186H78.5229V174.672ZM97.9114 184.944H97.8634C97.5861 185.381 97.2341 185.701 96.8074 185.904C96.3808 186.096 95.9114 186.192 95.3994 186.192C95.0474 186.192 94.7008 186.144 94.3594 186.048C94.0288 185.952 93.7301 185.808 93.4634 185.616C93.2074 185.424 92.9994 185.184 92.8394 184.896C92.6794 184.608 92.5994 184.272 92.5994 183.888C92.5994 183.472 92.6741 183.12 92.8234 182.832C92.9728 182.533 93.1701 182.288 93.4154 182.096C93.6714 181.893 93.9648 181.733 94.2954 181.616C94.6261 181.499 94.9674 181.413 95.3194 181.36C95.6821 181.296 96.0448 181.259 96.4074 181.248C96.7701 181.227 97.1114 181.216 97.4314 181.216H97.9114V181.008C97.9114 180.528 97.7461 180.171 97.4154 179.936C97.0848 179.691 96.6634 179.568 96.1514 179.568C95.7461 179.568 95.3674 179.643 95.0154 179.792C94.6634 179.931 94.3594 180.123 94.1034 180.368L93.0954 179.36C93.5221 178.923 94.0181 178.608 94.5834 178.416C95.1594 178.224 95.7514 178.128 96.3594 178.128C96.9034 178.128 97.3621 178.192 97.7354 178.32C98.1088 178.437 98.4181 178.592 98.6634 178.784C98.9088 178.976 99.0954 179.2 99.2234 179.456C99.3621 179.701 99.4581 179.952 99.5114 180.208C99.5754 180.464 99.6128 180.715 99.6234 180.96C99.6341 181.195 99.6394 181.403 99.6394 181.584V186H97.9114V184.944ZM97.7994 182.56H97.3994C97.1328 182.56 96.8341 182.571 96.5034 182.592C96.1728 182.613 95.8581 182.667 95.5594 182.752C95.2714 182.827 95.0261 182.944 94.8234 183.104C94.6208 183.253 94.5194 183.467 94.5194 183.744C94.5194 183.925 94.5568 184.08 94.6314 184.208C94.7168 184.325 94.8234 184.427 94.9514 184.512C95.0794 184.597 95.2234 184.661 95.3834 184.704C95.5434 184.736 95.7034 184.752 95.8634 184.752C96.5248 184.752 97.0101 184.597 97.3194 184.288C97.6394 183.968 97.7994 183.536 97.7994 182.992V182.56ZM105.801 180.448C105.428 179.925 104.927 179.664 104.297 179.664C104.041 179.664 103.791 179.728 103.545 179.856C103.3 179.984 103.177 180.192 103.177 180.48C103.177 180.715 103.279 180.885 103.481 180.992C103.684 181.099 103.94 181.189 104.249 181.264C104.559 181.339 104.889 181.419 105.241 181.504C105.604 181.579 105.94 181.701 106.249 181.872C106.559 182.032 106.815 182.256 107.017 182.544C107.22 182.832 107.321 183.227 107.321 183.728C107.321 184.187 107.22 184.576 107.017 184.896C106.825 185.205 106.569 185.456 106.249 185.648C105.94 185.84 105.588 185.979 105.193 186.064C104.799 186.149 104.404 186.192 104.009 186.192C103.412 186.192 102.863 186.107 102.361 185.936C101.86 185.765 101.412 185.456 101.017 185.008L102.297 183.808C102.543 184.085 102.804 184.315 103.081 184.496C103.369 184.667 103.716 184.752 104.121 184.752C104.26 184.752 104.404 184.736 104.553 184.704C104.703 184.672 104.841 184.619 104.969 184.544C105.097 184.469 105.199 184.379 105.273 184.272C105.359 184.155 105.401 184.021 105.401 183.872C105.401 183.605 105.3 183.408 105.097 183.28C104.895 183.152 104.639 183.051 104.329 182.976C104.02 182.891 103.684 182.816 103.321 182.752C102.969 182.677 102.639 182.565 102.329 182.416C102.02 182.256 101.764 182.037 101.561 181.76C101.359 181.483 101.257 181.099 101.257 180.608C101.257 180.181 101.343 179.813 101.513 179.504C101.695 179.184 101.929 178.923 102.217 178.72C102.505 178.517 102.836 178.368 103.209 178.272C103.583 178.176 103.961 178.128 104.345 178.128C104.857 178.128 105.364 178.219 105.865 178.4C106.367 178.571 106.772 178.869 107.081 179.296L105.801 180.448ZM107.919 179.952V178.32H109.503V176.096H111.423V178.32H113.535V179.952H111.423V183.312C111.423 183.696 111.492 184 111.631 184.224C111.78 184.448 112.068 184.56 112.495 184.56C112.665 184.56 112.852 184.544 113.055 184.512C113.257 184.469 113.417 184.405 113.535 184.32V185.936C113.332 186.032 113.081 186.096 112.783 186.128C112.495 186.171 112.239 186.192 112.015 186.192C111.503 186.192 111.081 186.133 110.751 186.016C110.431 185.909 110.175 185.744 109.983 185.52C109.801 185.285 109.673 184.997 109.599 184.656C109.535 184.315 109.503 183.92 109.503 183.472V179.952H107.919ZM116.569 182.832C116.633 183.408 116.857 183.856 117.241 184.176C117.625 184.496 118.089 184.656 118.633 184.656C119.113 184.656 119.513 184.56 119.833 184.368C120.164 184.165 120.452 183.915 120.697 183.616L122.073 184.656C121.625 185.211 121.124 185.605 120.569 185.84C120.015 186.075 119.433 186.192 118.825 186.192C118.249 186.192 117.705 186.096 117.193 185.904C116.681 185.712 116.239 185.44 115.865 185.088C115.492 184.736 115.193 184.315 114.969 183.824C114.756 183.323 114.649 182.768 114.649 182.16C114.649 181.552 114.756 181.003 114.969 180.512C115.193 180.011 115.492 179.584 115.865 179.232C116.239 178.88 116.681 178.608 117.193 178.416C117.705 178.224 118.249 178.128 118.825 178.128C119.359 178.128 119.844 178.224 120.281 178.416C120.729 178.597 121.108 178.864 121.417 179.216C121.737 179.568 121.983 180.005 122.153 180.528C122.335 181.04 122.425 181.632 122.425 182.304V182.832H116.569ZM120.505 181.392C120.495 180.827 120.319 180.384 119.977 180.064C119.636 179.733 119.161 179.568 118.553 179.568C117.977 179.568 117.519 179.733 117.177 180.064C116.847 180.395 116.644 180.837 116.569 181.392H120.505ZM124.221 178.32H126.141V179.536H126.173C126.386 179.088 126.69 178.741 127.085 178.496C127.479 178.251 127.933 178.128 128.445 178.128C128.562 178.128 128.674 178.139 128.781 178.16C128.898 178.181 129.015 178.208 129.133 178.24V180.096C128.973 180.053 128.813 180.021 128.653 180C128.503 179.968 128.354 179.952 128.205 179.952C127.757 179.952 127.394 180.037 127.117 180.208C126.85 180.368 126.642 180.555 126.493 180.768C126.354 180.981 126.258 181.195 126.205 181.408C126.162 181.621 126.141 181.781 126.141 181.888V186H124.221V178.32ZM135.35 174.672H139.158C139.702 174.672 140.225 174.725 140.726 174.832C141.238 174.939 141.686 175.12 142.07 175.376C142.454 175.621 142.758 175.957 142.982 176.384C143.217 176.8 143.334 177.323 143.334 177.952C143.334 178.667 143.211 179.243 142.966 179.68C142.721 180.117 142.39 180.459 141.974 180.704C141.558 180.939 141.073 181.099 140.518 181.184C139.974 181.269 139.403 181.312 138.806 181.312H137.366V186H135.35V174.672ZM138.582 179.584C138.87 179.584 139.169 179.573 139.478 179.552C139.787 179.531 140.07 179.467 140.326 179.36C140.593 179.253 140.806 179.093 140.966 178.88C141.137 178.667 141.222 178.368 141.222 177.984C141.222 177.632 141.147 177.355 140.998 177.152C140.849 176.939 140.657 176.779 140.422 176.672C140.187 176.555 139.926 176.48 139.638 176.448C139.35 176.416 139.073 176.4 138.806 176.4H137.366V179.584H138.582ZM149.755 184.944H149.707C149.43 185.381 149.078 185.701 148.651 185.904C148.225 186.096 147.755 186.192 147.243 186.192C146.891 186.192 146.545 186.144 146.203 186.048C145.873 185.952 145.574 185.808 145.307 185.616C145.051 185.424 144.843 185.184 144.683 184.896C144.523 184.608 144.443 184.272 144.443 183.888C144.443 183.472 144.518 183.12 144.667 182.832C144.817 182.533 145.014 182.288 145.259 182.096C145.515 181.893 145.809 181.733 146.139 181.616C146.47 181.499 146.811 181.413 147.163 181.36C147.526 181.296 147.889 181.259 148.251 181.248C148.614 181.227 148.955 181.216 149.275 181.216H149.755V181.008C149.755 180.528 149.59 180.171 149.259 179.936C148.929 179.691 148.507 179.568 147.995 179.568C147.59 179.568 147.211 179.643 146.859 179.792C146.507 179.931 146.203 180.123 145.947 180.368L144.939 179.36C145.366 178.923 145.862 178.608 146.427 178.416C147.003 178.224 147.595 178.128 148.203 178.128C148.747 178.128 149.206 178.192 149.579 178.32C149.953 178.437 150.262 178.592 150.507 178.784C150.753 178.976 150.939 179.2 151.067 179.456C151.206 179.701 151.302 179.952 151.355 180.208C151.419 180.464 151.457 180.715 151.467 180.96C151.478 181.195 151.483 181.403 151.483 181.584V186H149.755V184.944ZM149.643 182.56H149.243C148.977 182.56 148.678 182.571 148.347 182.592C148.017 182.613 147.702 182.667 147.403 182.752C147.115 182.827 146.87 182.944 146.667 183.104C146.465 183.253 146.363 183.467 146.363 183.744C146.363 183.925 146.401 184.08 146.475 184.208C146.561 184.325 146.667 184.427 146.795 184.512C146.923 184.597 147.067 184.661 147.227 184.704C147.387 184.736 147.547 184.752 147.707 184.752C148.369 184.752 148.854 184.597 149.163 184.288C149.483 183.968 149.643 183.536 149.643 182.992V182.56ZM152.509 178.32H154.621L156.765 183.648H156.797L158.717 178.32H160.717L157.085 187.648C156.946 188.011 156.792 188.325 156.621 188.592C156.461 188.869 156.269 189.099 156.045 189.28C155.821 189.472 155.554 189.611 155.245 189.696C154.946 189.792 154.584 189.84 154.157 189.84C153.656 189.84 153.165 189.776 152.685 189.648L152.925 187.92C153.074 187.973 153.229 188.016 153.389 188.048C153.56 188.091 153.73 188.112 153.901 188.112C154.136 188.112 154.333 188.091 154.493 188.048C154.653 188.005 154.786 187.936 154.893 187.84C155.01 187.755 155.106 187.637 155.181 187.488C155.256 187.349 155.336 187.179 155.421 186.976L155.789 186.064L152.509 178.32ZM161.846 178.32H163.766V179.536H163.798C164.011 179.088 164.315 178.741 164.71 178.496C165.104 178.251 165.558 178.128 166.07 178.128C166.187 178.128 166.299 178.139 166.406 178.16C166.523 178.181 166.64 178.208 166.758 178.24V180.096C166.598 180.053 166.438 180.021 166.278 180C166.128 179.968 165.979 179.952 165.83 179.952C165.382 179.952 165.019 180.037 164.742 180.208C164.475 180.368 164.267 180.555 164.118 180.768C163.979 180.981 163.883 181.195 163.83 181.408C163.787 181.621 163.766 181.781 163.766 181.888V186H161.846V178.32ZM167.399 182.16C167.399 181.552 167.506 181.003 167.719 180.512C167.943 180.011 168.242 179.584 168.615 179.232C168.989 178.88 169.431 178.608 169.943 178.416C170.455 178.224 170.999 178.128 171.575 178.128C172.151 178.128 172.695 178.224 173.207 178.416C173.719 178.608 174.162 178.88 174.535 179.232C174.909 179.584 175.202 180.011 175.415 180.512C175.639 181.003 175.751 181.552 175.751 182.16C175.751 182.768 175.639 183.323 175.415 183.824C175.202 184.315 174.909 184.736 174.535 185.088C174.162 185.44 173.719 185.712 173.207 185.904C172.695 186.096 172.151 186.192 171.575 186.192C170.999 186.192 170.455 186.096 169.943 185.904C169.431 185.712 168.989 185.44 168.615 185.088C168.242 184.736 167.943 184.315 167.719 183.824C167.506 183.323 167.399 182.768 167.399 182.16ZM169.319 182.16C169.319 182.459 169.367 182.747 169.463 183.024C169.57 183.301 169.719 183.547 169.911 183.76C170.114 183.973 170.354 184.144 170.631 184.272C170.909 184.4 171.223 184.464 171.575 184.464C171.927 184.464 172.242 184.4 172.519 184.272C172.797 184.144 173.031 183.973 173.223 183.76C173.426 183.547 173.575 183.301 173.671 183.024C173.778 182.747 173.831 182.459 173.831 182.16C173.831 181.861 173.778 181.573 173.671 181.296C173.575 181.019 173.426 180.773 173.223 180.56C173.031 180.347 172.797 180.176 172.519 180.048C172.242 179.92 171.927 179.856 171.575 179.856C171.223 179.856 170.909 179.92 170.631 180.048C170.354 180.176 170.114 180.347 169.911 180.56C169.719 180.773 169.57 181.019 169.463 181.296C169.367 181.573 169.319 181.861 169.319 182.16ZM177.581 173.904H179.501V186H177.581V173.904ZM181.753 173.904H183.673V186H181.753V173.904ZM108.385 198.32H110.305V199.536H110.337C110.55 199.088 110.854 198.741 111.249 198.496C111.644 198.251 112.097 198.128 112.609 198.128C112.726 198.128 112.838 198.139 112.945 198.16C113.062 198.181 113.18 198.208 113.297 198.24V200.096C113.137 200.053 112.977 200.021 112.817 200C112.668 199.968 112.518 199.952 112.369 199.952C111.921 199.952 111.558 200.037 111.281 200.208C111.014 200.368 110.806 200.555 110.657 200.768C110.518 200.981 110.422 201.195 110.369 201.408C110.326 201.621 110.305 201.781 110.305 201.888V206H108.385V198.32ZM115.858 202.832C115.922 203.408 116.146 203.856 116.53 204.176C116.914 204.496 117.378 204.656 117.922 204.656C118.402 204.656 118.802 204.56 119.122 204.368C119.453 204.165 119.741 203.915 119.986 203.616L121.362 204.656C120.914 205.211 120.413 205.605 119.858 205.84C119.304 206.075 118.722 206.192 118.114 206.192C117.538 206.192 116.994 206.096 116.482 205.904C115.97 205.712 115.528 205.44 115.154 205.088C114.781 204.736 114.482 204.315 114.258 203.824C114.045 203.323 113.938 202.768 113.938 202.16C113.938 201.552 114.045 201.003 114.258 200.512C114.482 200.011 114.781 199.584 115.154 199.232C115.528 198.88 115.97 198.608 116.482 198.416C116.994 198.224 117.538 198.128 118.114 198.128C118.648 198.128 119.133 198.224 119.57 198.416C120.018 198.597 120.397 198.864 120.706 199.216C121.026 199.568 121.272 200.005 121.442 200.528C121.624 201.04 121.714 201.632 121.714 202.304V202.832H115.858ZM119.794 201.392C119.784 200.827 119.608 200.384 119.266 200.064C118.925 199.733 118.45 199.568 117.842 199.568C117.266 199.568 116.808 199.733 116.466 200.064C116.136 200.395 115.933 200.837 115.858 201.392H119.794ZM123.51 198.32H125.334V199.472H125.366C125.643 199.003 126.017 198.661 126.486 198.448C126.955 198.235 127.462 198.128 128.006 198.128C128.593 198.128 129.121 198.235 129.59 198.448C130.059 198.651 130.459 198.933 130.79 199.296C131.121 199.659 131.371 200.085 131.542 200.576C131.713 201.067 131.798 201.595 131.798 202.16C131.798 202.725 131.707 203.253 131.526 203.744C131.345 204.235 131.089 204.661 130.758 205.024C130.438 205.387 130.049 205.675 129.59 205.888C129.131 206.091 128.63 206.192 128.086 206.192C127.723 206.192 127.403 206.155 127.126 206.08C126.849 206.005 126.603 205.909 126.39 205.792C126.177 205.675 125.995 205.552 125.846 205.424C125.697 205.285 125.574 205.152 125.478 205.024H125.43V209.648H123.51V198.32ZM129.878 202.16C129.878 201.861 129.825 201.573 129.718 201.296C129.622 201.019 129.473 200.773 129.27 200.56C129.078 200.347 128.843 200.176 128.566 200.048C128.289 199.92 127.974 199.856 127.622 199.856C127.27 199.856 126.955 199.92 126.678 200.048C126.401 200.176 126.161 200.347 125.958 200.56C125.766 200.773 125.617 201.019 125.51 201.296C125.414 201.573 125.366 201.861 125.366 202.16C125.366 202.459 125.414 202.747 125.51 203.024C125.617 203.301 125.766 203.547 125.958 203.76C126.161 203.973 126.401 204.144 126.678 204.272C126.955 204.4 127.27 204.464 127.622 204.464C127.974 204.464 128.289 204.4 128.566 204.272C128.843 204.144 129.078 203.973 129.27 203.76C129.473 203.547 129.622 203.301 129.718 203.024C129.825 202.747 129.878 202.459 129.878 202.16ZM133.204 202.16C133.204 201.552 133.311 201.003 133.524 200.512C133.748 200.011 134.047 199.584 134.42 199.232C134.793 198.88 135.236 198.608 135.748 198.416C136.26 198.224 136.804 198.128 137.38 198.128C137.956 198.128 138.5 198.224 139.012 198.416C139.524 198.608 139.967 198.88 140.34 199.232C140.713 199.584 141.007 200.011 141.22 200.512C141.444 201.003 141.556 201.552 141.556 202.16C141.556 202.768 141.444 203.323 141.22 203.824C141.007 204.315 140.713 204.736 140.34 205.088C139.967 205.44 139.524 205.712 139.012 205.904C138.5 206.096 137.956 206.192 137.38 206.192C136.804 206.192 136.26 206.096 135.748 205.904C135.236 205.712 134.793 205.44 134.42 205.088C134.047 204.736 133.748 204.315 133.524 203.824C133.311 203.323 133.204 202.768 133.204 202.16ZM135.124 202.16C135.124 202.459 135.172 202.747 135.268 203.024C135.375 203.301 135.524 203.547 135.716 203.76C135.919 203.973 136.159 204.144 136.436 204.272C136.713 204.4 137.028 204.464 137.38 204.464C137.732 204.464 138.047 204.4 138.324 204.272C138.601 204.144 138.836 203.973 139.028 203.76C139.231 203.547 139.38 203.301 139.476 203.024C139.583 202.747 139.636 202.459 139.636 202.16C139.636 201.861 139.583 201.573 139.476 201.296C139.38 201.019 139.231 200.773 139.028 200.56C138.836 200.347 138.601 200.176 138.324 200.048C138.047 199.92 137.732 199.856 137.38 199.856C137.028 199.856 136.713 199.92 136.436 200.048C136.159 200.176 135.919 200.347 135.716 200.56C135.524 200.773 135.375 201.019 135.268 201.296C135.172 201.573 135.124 201.861 135.124 202.16ZM143.354 198.32H145.274V199.536H145.306C145.519 199.088 145.823 198.741 146.218 198.496C146.612 198.251 147.066 198.128 147.578 198.128C147.695 198.128 147.807 198.139 147.914 198.16C148.031 198.181 148.148 198.208 148.266 198.24V200.096C148.106 200.053 147.946 200.021 147.786 200C147.636 199.968 147.487 199.952 147.338 199.952C146.89 199.952 146.527 200.037 146.25 200.208C145.983 200.368 145.775 200.555 145.626 200.768C145.487 200.981 145.391 201.195 145.338 201.408C145.295 201.621 145.274 201.781 145.274 201.888V206H143.354V198.32ZM148.676 199.952V198.32H150.26V196.096H152.18V198.32H154.292V199.952H152.18V203.312C152.18 203.696 152.25 204 152.388 204.224C152.538 204.448 152.826 204.56 153.252 204.56C153.423 204.56 153.61 204.544 153.812 204.512C154.015 204.469 154.175 204.405 154.292 204.32V205.936C154.09 206.032 153.839 206.096 153.54 206.128C153.252 206.171 152.996 206.192 152.772 206.192C152.26 206.192 151.839 206.133 151.508 206.016C151.188 205.909 150.932 205.744 150.74 205.52C150.559 205.285 150.431 204.997 150.356 204.656C150.292 204.315 150.26 203.92 150.26 203.472V199.952H148.676Z" fill="#777777"/>
<rect x="73" y="231" width="117" height="5" rx="2.5" fill="#D8E4F1"/>
<rect x="90" y="244" width="83" height="5" rx="2.5" fill="#D8E4F1"/>
<rect x="106" y="257" width="51" height="5" rx="2.5" fill="#D8E4F1"/>
<rect x="272" y="231" width="117" height="5" rx="2.5" fill="#D8E4F1"/>
<rect x="289" y="244" width="83" height="5" rx="2.5" fill="#D8E4F1"/>
<rect x="499" y="231" width="69" height="5" rx="2.5" fill="#D8E4F1"/>
<rect x="492" y="244" width="83" height="5" rx="2.5" fill="#D8E4F1"/>
<rect x="508" y="257" width="51" height="5" rx="2.5" fill="#D8E4F1"/>
<path d="M276.452 174.672H283.764V176.496H278.468V179.472H283.46V181.296H278.468V186H276.452V174.672ZM292.471 186H290.647V184.768H290.615C290.434 185.152 290.156 185.488 289.783 185.776C289.41 186.053 288.903 186.192 288.263 186.192C287.751 186.192 287.314 186.112 286.951 185.952C286.599 185.781 286.311 185.557 286.087 185.28C285.863 184.992 285.703 184.667 285.607 184.304C285.511 183.941 285.463 183.563 285.463 183.168V178.32H287.383V182.208C287.383 182.421 287.394 182.661 287.415 182.928C287.436 183.184 287.49 183.429 287.575 183.664C287.671 183.888 287.81 184.08 287.991 184.24C288.183 184.389 288.45 184.464 288.791 184.464C289.111 184.464 289.378 184.411 289.591 184.304C289.815 184.197 289.996 184.053 290.135 183.872C290.284 183.691 290.391 183.483 290.455 183.248C290.519 183.013 290.551 182.768 290.551 182.512V178.32H292.471V186ZM294.651 178.32H296.475V179.552H296.507C296.688 179.168 296.965 178.837 297.339 178.56C297.712 178.272 298.219 178.128 298.859 178.128C299.371 178.128 299.803 178.213 300.155 178.384C300.517 178.555 300.811 178.779 301.035 179.056C301.259 179.333 301.419 179.653 301.515 180.016C301.611 180.379 301.659 180.757 301.659 181.152V186H299.739V182.112C299.739 181.899 299.728 181.664 299.707 181.408C299.685 181.141 299.627 180.896 299.531 180.672C299.445 180.437 299.307 180.245 299.115 180.096C298.923 179.936 298.661 179.856 298.331 179.856C298.011 179.856 297.739 179.909 297.515 180.016C297.301 180.123 297.12 180.267 296.971 180.448C296.832 180.629 296.731 180.837 296.667 181.072C296.603 181.307 296.571 181.552 296.571 181.808V186H294.651V178.32ZM309.918 184.848H309.886C309.609 185.317 309.235 185.659 308.766 185.872C308.297 186.085 307.79 186.192 307.246 186.192C306.649 186.192 306.115 186.091 305.646 185.888C305.187 185.675 304.793 185.387 304.462 185.024C304.131 184.661 303.881 184.235 303.71 183.744C303.539 183.253 303.454 182.725 303.454 182.16C303.454 181.595 303.545 181.067 303.726 180.576C303.907 180.085 304.158 179.659 304.478 179.296C304.809 178.933 305.203 178.651 305.662 178.448C306.121 178.235 306.622 178.128 307.166 178.128C307.529 178.128 307.849 178.165 308.126 178.24C308.403 178.315 308.649 178.411 308.862 178.528C309.075 178.645 309.257 178.773 309.406 178.912C309.555 179.04 309.678 179.168 309.774 179.296H309.822V173.904H311.742V186H309.918V184.848ZM305.374 182.16C305.374 182.459 305.422 182.747 305.518 183.024C305.625 183.301 305.774 183.547 305.966 183.76C306.169 183.973 306.409 184.144 306.686 184.272C306.963 184.4 307.278 184.464 307.63 184.464C307.982 184.464 308.297 184.4 308.574 184.272C308.851 184.144 309.086 183.973 309.278 183.76C309.481 183.547 309.63 183.301 309.726 183.024C309.833 182.747 309.886 182.459 309.886 182.16C309.886 181.861 309.833 181.573 309.726 181.296C309.63 181.019 309.481 180.773 309.278 180.56C309.086 180.347 308.851 180.176 308.574 180.048C308.297 179.92 307.982 179.856 307.63 179.856C307.278 179.856 306.963 179.92 306.686 180.048C306.409 180.176 306.169 180.347 305.966 180.56C305.774 180.773 305.625 181.019 305.518 181.296C305.422 181.573 305.374 181.861 305.374 182.16ZM322.747 180.448C322.373 179.925 321.872 179.664 321.243 179.664C320.987 179.664 320.736 179.728 320.491 179.856C320.245 179.984 320.123 180.192 320.123 180.48C320.123 180.715 320.224 180.885 320.427 180.992C320.629 181.099 320.885 181.189 321.195 181.264C321.504 181.339 321.835 181.419 322.187 181.504C322.549 181.579 322.885 181.701 323.195 181.872C323.504 182.032 323.76 182.256 323.963 182.544C324.165 182.832 324.267 183.227 324.267 183.728C324.267 184.187 324.165 184.576 323.963 184.896C323.771 185.205 323.515 185.456 323.195 185.648C322.885 185.84 322.533 185.979 322.139 186.064C321.744 186.149 321.349 186.192 320.955 186.192C320.357 186.192 319.808 186.107 319.307 185.936C318.805 185.765 318.357 185.456 317.963 185.008L319.243 183.808C319.488 184.085 319.749 184.315 320.027 184.496C320.315 184.667 320.661 184.752 321.067 184.752C321.205 184.752 321.349 184.736 321.499 184.704C321.648 184.672 321.787 184.619 321.915 184.544C322.043 184.469 322.144 184.379 322.219 184.272C322.304 184.155 322.347 184.021 322.347 183.872C322.347 183.605 322.245 183.408 322.043 183.28C321.84 183.152 321.584 183.051 321.275 182.976C320.965 182.891 320.629 182.816 320.267 182.752C319.915 182.677 319.584 182.565 319.275 182.416C318.965 182.256 318.709 182.037 318.507 181.76C318.304 181.483 318.203 181.099 318.203 180.608C318.203 180.181 318.288 179.813 318.459 179.504C318.64 179.184 318.875 178.923 319.163 178.72C319.451 178.517 319.781 178.368 320.155 178.272C320.528 178.176 320.907 178.128 321.291 178.128C321.803 178.128 322.309 178.219 322.811 178.4C323.312 178.571 323.717 178.869 324.027 179.296L322.747 180.448ZM332.768 186H330.944V184.768H330.912C330.731 185.152 330.453 185.488 330.08 185.776C329.707 186.053 329.2 186.192 328.56 186.192C328.048 186.192 327.611 186.112 327.248 185.952C326.896 185.781 326.608 185.557 326.384 185.28C326.16 184.992 326 184.667 325.904 184.304C325.808 183.941 325.76 183.563 325.76 183.168V178.32H327.68V182.208C327.68 182.421 327.691 182.661 327.712 182.928C327.733 183.184 327.787 183.429 327.872 183.664C327.968 183.888 328.107 184.08 328.288 184.24C328.48 184.389 328.747 184.464 329.088 184.464C329.408 184.464 329.675 184.411 329.888 184.304C330.112 184.197 330.293 184.053 330.432 183.872C330.581 183.691 330.688 183.483 330.752 183.248C330.816 183.013 330.848 182.768 330.848 182.512V178.32H332.768V186ZM334.867 178.32H336.691V179.52H336.723C336.894 179.157 337.166 178.837 337.539 178.56C337.923 178.272 338.435 178.128 339.075 178.128C340.281 178.128 341.081 178.603 341.475 179.552C341.753 179.061 342.099 178.704 342.515 178.48C342.931 178.245 343.427 178.128 344.003 178.128C344.515 178.128 344.947 178.213 345.299 178.384C345.651 178.555 345.934 178.789 346.147 179.088C346.371 179.387 346.531 179.739 346.627 180.144C346.723 180.539 346.771 180.965 346.771 181.424V186H344.851V181.648C344.851 181.413 344.83 181.189 344.787 180.976C344.745 180.752 344.67 180.56 344.563 180.4C344.457 180.229 344.313 180.096 344.131 180C343.95 179.904 343.715 179.856 343.427 179.856C343.129 179.856 342.873 179.915 342.659 180.032C342.457 180.139 342.286 180.288 342.147 180.48C342.019 180.661 341.923 180.875 341.859 181.12C341.806 181.355 341.779 181.595 341.779 181.84V186H339.859V181.424C339.859 180.944 339.758 180.565 339.555 180.288C339.353 180 339.017 179.856 338.547 179.856C338.227 179.856 337.955 179.909 337.731 180.016C337.518 180.123 337.337 180.267 337.187 180.448C337.049 180.629 336.947 180.837 336.883 181.072C336.819 181.307 336.787 181.552 336.787 181.808V186H334.867V178.32ZM348.789 178.32H350.613V179.52H350.645C350.816 179.157 351.088 178.837 351.461 178.56C351.845 178.272 352.357 178.128 352.997 178.128C354.203 178.128 355.003 178.603 355.397 179.552C355.675 179.061 356.021 178.704 356.437 178.48C356.853 178.245 357.349 178.128 357.925 178.128C358.437 178.128 358.869 178.213 359.221 178.384C359.573 178.555 359.856 178.789 360.069 179.088C360.293 179.387 360.453 179.739 360.549 180.144C360.645 180.539 360.693 180.965 360.693 181.424V186H358.773V181.648C358.773 181.413 358.752 181.189 358.709 180.976C358.667 180.752 358.592 180.56 358.485 180.4C358.379 180.229 358.235 180.096 358.053 180C357.872 179.904 357.637 179.856 357.349 179.856C357.051 179.856 356.795 179.915 356.581 180.032C356.379 180.139 356.208 180.288 356.069 180.48C355.941 180.661 355.845 180.875 355.781 181.12C355.728 181.355 355.701 181.595 355.701 181.84V186H353.781V181.424C353.781 180.944 353.68 180.565 353.477 180.288C353.275 180 352.939 179.856 352.469 179.856C352.149 179.856 351.877 179.909 351.653 180.016C351.44 180.123 351.259 180.267 351.109 180.448C350.971 180.629 350.869 180.837 350.805 181.072C350.741 181.307 350.709 181.552 350.709 181.808V186H348.789V178.32ZM367.591 184.944H367.543C367.266 185.381 366.914 185.701 366.487 185.904C366.06 186.096 365.591 186.192 365.079 186.192C364.727 186.192 364.38 186.144 364.039 186.048C363.708 185.952 363.41 185.808 363.143 185.616C362.887 185.424 362.679 185.184 362.519 184.896C362.359 184.608 362.279 184.272 362.279 183.888C362.279 183.472 362.354 183.12 362.503 182.832C362.652 182.533 362.85 182.288 363.095 182.096C363.351 181.893 363.644 181.733 363.975 181.616C364.306 181.499 364.647 181.413 364.999 181.36C365.362 181.296 365.724 181.259 366.087 181.248C366.45 181.227 366.791 181.216 367.111 181.216H367.591V181.008C367.591 180.528 367.426 180.171 367.095 179.936C366.764 179.691 366.343 179.568 365.831 179.568C365.426 179.568 365.047 179.643 364.695 179.792C364.343 179.931 364.039 180.123 363.783 180.368L362.775 179.36C363.202 178.923 363.698 178.608 364.263 178.416C364.839 178.224 365.431 178.128 366.039 178.128C366.583 178.128 367.042 178.192 367.415 178.32C367.788 178.437 368.098 178.592 368.343 178.784C368.588 178.976 368.775 179.2 368.903 179.456C369.042 179.701 369.138 179.952 369.191 180.208C369.255 180.464 369.292 180.715 369.303 180.96C369.314 181.195 369.319 181.403 369.319 181.584V186H367.591V184.944ZM367.479 182.56H367.079C366.812 182.56 366.514 182.571 366.183 182.592C365.852 182.613 365.538 182.667 365.239 182.752C364.951 182.827 364.706 182.944 364.503 183.104C364.3 183.253 364.199 183.467 364.199 183.744C364.199 183.925 364.236 184.08 364.311 184.208C364.396 184.325 364.503 184.427 364.631 184.512C364.759 184.597 364.903 184.661 365.063 184.704C365.223 184.736 365.383 184.752 365.543 184.752C366.204 184.752 366.69 184.597 366.999 184.288C367.319 183.968 367.479 183.536 367.479 182.992V182.56ZM371.385 178.32H373.305V179.536H373.337C373.55 179.088 373.854 178.741 374.249 178.496C374.644 178.251 375.097 178.128 375.609 178.128C375.726 178.128 375.838 178.139 375.945 178.16C376.062 178.181 376.18 178.208 376.297 178.24V180.096C376.137 180.053 375.977 180.021 375.817 180C375.668 179.968 375.518 179.952 375.369 179.952C374.921 179.952 374.558 180.037 374.281 180.208C374.014 180.368 373.806 180.555 373.657 180.768C373.518 180.981 373.422 181.195 373.369 181.408C373.326 181.621 373.305 181.781 373.305 181.888V186H371.385V178.32ZM376.564 178.32H378.676L380.82 183.648H380.852L382.772 178.32H384.772L381.14 187.648C381.001 188.011 380.846 188.325 380.676 188.592C380.516 188.869 380.324 189.099 380.1 189.28C379.876 189.472 379.609 189.611 379.3 189.696C379.001 189.792 378.638 189.84 378.212 189.84C377.71 189.84 377.22 189.776 376.74 189.648L376.98 187.92C377.129 187.973 377.284 188.016 377.444 188.048C377.614 188.091 377.785 188.112 377.956 188.112C378.19 188.112 378.388 188.091 378.548 188.048C378.708 188.005 378.841 187.936 378.948 187.84C379.065 187.755 379.161 187.637 379.236 187.488C379.31 187.349 379.39 187.179 379.476 186.976L379.844 186.064L376.564 178.32ZM307.385 198.32H309.305V199.536H309.337C309.55 199.088 309.854 198.741 310.249 198.496C310.644 198.251 311.097 198.128 311.609 198.128C311.726 198.128 311.838 198.139 311.945 198.16C312.062 198.181 312.18 198.208 312.297 198.24V200.096C312.137 200.053 311.977 200.021 311.817 200C311.668 199.968 311.518 199.952 311.369 199.952C310.921 199.952 310.558 200.037 310.281 200.208C310.014 200.368 309.806 200.555 309.657 200.768C309.518 200.981 309.422 201.195 309.369 201.408C309.326 201.621 309.305 201.781 309.305 201.888V206H307.385V198.32ZM314.858 202.832C314.922 203.408 315.146 203.856 315.53 204.176C315.914 204.496 316.378 204.656 316.922 204.656C317.402 204.656 317.802 204.56 318.122 204.368C318.453 204.165 318.741 203.915 318.986 203.616L320.362 204.656C319.914 205.211 319.413 205.605 318.858 205.84C318.304 206.075 317.722 206.192 317.114 206.192C316.538 206.192 315.994 206.096 315.482 205.904C314.97 205.712 314.528 205.44 314.154 205.088C313.781 204.736 313.482 204.315 313.258 203.824C313.045 203.323 312.938 202.768 312.938 202.16C312.938 201.552 313.045 201.003 313.258 200.512C313.482 200.011 313.781 199.584 314.154 199.232C314.528 198.88 314.97 198.608 315.482 198.416C315.994 198.224 316.538 198.128 317.114 198.128C317.648 198.128 318.133 198.224 318.57 198.416C319.018 198.597 319.397 198.864 319.706 199.216C320.026 199.568 320.272 200.005 320.442 200.528C320.624 201.04 320.714 201.632 320.714 202.304V202.832H314.858ZM318.794 201.392C318.784 200.827 318.608 200.384 318.266 200.064C317.925 199.733 317.45 199.568 316.842 199.568C316.266 199.568 315.808 199.733 315.466 200.064C315.136 200.395 314.933 200.837 314.858 201.392H318.794ZM322.51 198.32H324.334V199.472H324.366C324.643 199.003 325.017 198.661 325.486 198.448C325.955 198.235 326.462 198.128 327.006 198.128C327.593 198.128 328.121 198.235 328.59 198.448C329.059 198.651 329.459 198.933 329.79 199.296C330.121 199.659 330.371 200.085 330.542 200.576C330.713 201.067 330.798 201.595 330.798 202.16C330.798 202.725 330.707 203.253 330.526 203.744C330.345 204.235 330.089 204.661 329.758 205.024C329.438 205.387 329.049 205.675 328.59 205.888C328.131 206.091 327.63 206.192 327.086 206.192C326.723 206.192 326.403 206.155 326.126 206.08C325.849 206.005 325.603 205.909 325.39 205.792C325.177 205.675 324.995 205.552 324.846 205.424C324.697 205.285 324.574 205.152 324.478 205.024H324.43V209.648H322.51V198.32ZM328.878 202.16C328.878 201.861 328.825 201.573 328.718 201.296C328.622 201.019 328.473 200.773 328.27 200.56C328.078 200.347 327.843 200.176 327.566 200.048C327.289 199.92 326.974 199.856 326.622 199.856C326.27 199.856 325.955 199.92 325.678 200.048C325.401 200.176 325.161 200.347 324.958 200.56C324.766 200.773 324.617 201.019 324.51 201.296C324.414 201.573 324.366 201.861 324.366 202.16C324.366 202.459 324.414 202.747 324.51 203.024C324.617 203.301 324.766 203.547 324.958 203.76C325.161 203.973 325.401 204.144 325.678 204.272C325.955 204.4 326.27 204.464 326.622 204.464C326.974 204.464 327.289 204.4 327.566 204.272C327.843 204.144 328.078 203.973 328.27 203.76C328.473 203.547 328.622 203.301 328.718 203.024C328.825 202.747 328.878 202.459 328.878 202.16ZM332.204 202.16C332.204 201.552 332.311 201.003 332.524 200.512C332.748 200.011 333.047 199.584 333.42 199.232C333.793 198.88 334.236 198.608 334.748 198.416C335.26 198.224 335.804 198.128 336.38 198.128C336.956 198.128 337.5 198.224 338.012 198.416C338.524 198.608 338.967 198.88 339.34 199.232C339.713 199.584 340.007 200.011 340.22 200.512C340.444 201.003 340.556 201.552 340.556 202.16C340.556 202.768 340.444 203.323 340.22 203.824C340.007 204.315 339.713 204.736 339.34 205.088C338.967 205.44 338.524 205.712 338.012 205.904C337.5 206.096 336.956 206.192 336.38 206.192C335.804 206.192 335.26 206.096 334.748 205.904C334.236 205.712 333.793 205.44 333.42 205.088C333.047 204.736 332.748 204.315 332.524 203.824C332.311 203.323 332.204 202.768 332.204 202.16ZM334.124 202.16C334.124 202.459 334.172 202.747 334.268 203.024C334.375 203.301 334.524 203.547 334.716 203.76C334.919 203.973 335.159 204.144 335.436 204.272C335.713 204.4 336.028 204.464 336.38 204.464C336.732 204.464 337.047 204.4 337.324 204.272C337.601 204.144 337.836 203.973 338.028 203.76C338.231 203.547 338.38 203.301 338.476 203.024C338.583 202.747 338.636 202.459 338.636 202.16C338.636 201.861 338.583 201.573 338.476 201.296C338.38 201.019 338.231 200.773 338.028 200.56C337.836 200.347 337.601 200.176 337.324 200.048C337.047 199.92 336.732 199.856 336.38 199.856C336.028 199.856 335.713 199.92 335.436 200.048C335.159 200.176 334.919 200.347 334.716 200.56C334.524 200.773 334.375 201.019 334.268 201.296C334.172 201.573 334.124 201.861 334.124 202.16ZM342.354 198.32H344.274V199.536H344.306C344.519 199.088 344.823 198.741 345.218 198.496C345.612 198.251 346.066 198.128 346.578 198.128C346.695 198.128 346.807 198.139 346.914 198.16C347.031 198.181 347.148 198.208 347.266 198.24V200.096C347.106 200.053 346.946 200.021 346.786 200C346.636 199.968 346.487 199.952 346.338 199.952C345.89 199.952 345.527 200.037 345.25 200.208C344.983 200.368 344.775 200.555 344.626 200.768C344.487 200.981 344.391 201.195 344.338 201.408C344.295 201.621 344.274 201.781 344.274 201.888V206H342.354V198.32ZM347.676 199.952V198.32H349.26V196.096H351.18V198.32H353.292V199.952H351.18V203.312C351.18 203.696 351.25 204 351.388 204.224C351.538 204.448 351.826 204.56 352.252 204.56C352.423 204.56 352.61 204.544 352.812 204.512C353.015 204.469 353.175 204.405 353.292 204.32V205.936C353.09 206.032 352.839 206.096 352.54 206.128C352.252 206.171 351.996 206.192 351.772 206.192C351.26 206.192 350.839 206.133 350.508 206.016C350.188 205.909 349.932 205.744 349.74 205.52C349.559 205.285 349.431 204.997 349.356 204.656C349.292 204.315 349.26 203.92 349.26 203.472V199.952H347.676Z" fill="#777777"/>
<path d="M476.506 178.672H480.314C480.858 178.672 481.381 178.725 481.882 178.832C482.394 178.939 482.842 179.12 483.226 179.376C483.61 179.621 483.914 179.957 484.138 180.384C484.373 180.8 484.49 181.323 484.49 181.952C484.49 182.667 484.368 183.243 484.122 183.68C483.877 184.117 483.546 184.459 483.13 184.704C482.714 184.939 482.229 185.099 481.674 185.184C481.13 185.269 480.56 185.312 479.962 185.312H478.522V190H476.506V178.672ZM479.738 183.584C480.026 183.584 480.325 183.573 480.634 183.552C480.944 183.531 481.226 183.467 481.482 183.36C481.749 183.253 481.962 183.093 482.122 182.88C482.293 182.667 482.378 182.368 482.378 181.984C482.378 181.632 482.304 181.355 482.154 181.152C482.005 180.939 481.813 180.779 481.578 180.672C481.344 180.555 481.082 180.48 480.794 180.448C480.506 180.416 480.229 180.4 479.962 180.4H478.522V183.584H479.738ZM487.647 186.832C487.711 187.408 487.935 187.856 488.319 188.176C488.703 188.496 489.167 188.656 489.711 188.656C490.191 188.656 490.591 188.56 490.911 188.368C491.242 188.165 491.53 187.915 491.775 187.616L493.151 188.656C492.703 189.211 492.202 189.605 491.647 189.84C491.093 190.075 490.511 190.192 489.903 190.192C489.327 190.192 488.783 190.096 488.271 189.904C487.759 189.712 487.317 189.44 486.943 189.088C486.57 188.736 486.271 188.315 486.047 187.824C485.834 187.323 485.727 186.768 485.727 186.16C485.727 185.552 485.834 185.003 486.047 184.512C486.271 184.011 486.57 183.584 486.943 183.232C487.317 182.88 487.759 182.608 488.271 182.416C488.783 182.224 489.327 182.128 489.903 182.128C490.437 182.128 490.922 182.224 491.359 182.416C491.807 182.597 492.186 182.864 492.495 183.216C492.815 183.568 493.061 184.005 493.231 184.528C493.413 185.04 493.503 185.632 493.503 186.304V186.832H487.647ZM491.583 185.392C491.573 184.827 491.397 184.384 491.055 184.064C490.714 183.733 490.239 183.568 489.631 183.568C489.055 183.568 488.597 183.733 488.255 184.064C487.925 184.395 487.722 184.837 487.647 185.392H491.583ZM495.299 182.32H497.123V183.552H497.155C497.336 183.168 497.614 182.837 497.987 182.56C498.36 182.272 498.867 182.128 499.507 182.128C500.019 182.128 500.451 182.213 500.803 182.384C501.166 182.555 501.459 182.779 501.683 183.056C501.907 183.333 502.067 183.653 502.163 184.016C502.259 184.379 502.307 184.757 502.307 185.152V190H500.387V186.112C500.387 185.899 500.376 185.664 500.355 185.408C500.334 185.141 500.275 184.896 500.179 184.672C500.094 184.437 499.955 184.245 499.763 184.096C499.571 183.936 499.31 183.856 498.979 183.856C498.659 183.856 498.387 183.909 498.163 184.016C497.95 184.123 497.768 184.267 497.619 184.448C497.48 184.629 497.379 184.837 497.315 185.072C497.251 185.307 497.219 185.552 497.219 185.808V190H495.299V182.32ZM508.582 184.448C508.209 183.925 507.708 183.664 507.078 183.664C506.822 183.664 506.572 183.728 506.326 183.856C506.081 183.984 505.958 184.192 505.958 184.48C505.958 184.715 506.06 184.885 506.262 184.992C506.465 185.099 506.721 185.189 507.03 185.264C507.34 185.339 507.67 185.419 508.022 185.504C508.385 185.579 508.721 185.701 509.03 185.872C509.34 186.032 509.596 186.256 509.798 186.544C510.001 186.832 510.102 187.227 510.102 187.728C510.102 188.187 510.001 188.576 509.798 188.896C509.606 189.205 509.35 189.456 509.03 189.648C508.721 189.84 508.369 189.979 507.974 190.064C507.58 190.149 507.185 190.192 506.79 190.192C506.193 190.192 505.644 190.107 505.142 189.936C504.641 189.765 504.193 189.456 503.798 189.008L505.078 187.808C505.324 188.085 505.585 188.315 505.862 188.496C506.15 188.667 506.497 188.752 506.902 188.752C507.041 188.752 507.185 188.736 507.334 188.704C507.484 188.672 507.622 188.619 507.75 188.544C507.878 188.469 507.98 188.379 508.054 188.272C508.14 188.155 508.182 188.021 508.182 187.872C508.182 187.605 508.081 187.408 507.878 187.28C507.676 187.152 507.42 187.051 507.11 186.976C506.801 186.891 506.465 186.816 506.102 186.752C505.75 186.677 505.42 186.565 505.11 186.416C504.801 186.256 504.545 186.037 504.342 185.76C504.14 185.483 504.038 185.099 504.038 184.608C504.038 184.181 504.124 183.813 504.294 183.504C504.476 183.184 504.71 182.923 504.998 182.72C505.286 182.517 505.617 182.368 505.99 182.272C506.364 182.176 506.742 182.128 507.126 182.128C507.638 182.128 508.145 182.219 508.646 182.4C509.148 182.571 509.553 182.869 509.862 183.296L508.582 184.448ZM511.628 182.32H513.548V190H511.628V182.32ZM511.356 179.712C511.356 179.403 511.468 179.136 511.692 178.912C511.926 178.677 512.22 178.56 512.572 178.56C512.924 178.56 513.217 178.672 513.452 178.896C513.697 179.109 513.82 179.381 513.82 179.712C513.82 180.043 513.697 180.32 513.452 180.544C513.217 180.757 512.924 180.864 512.572 180.864C512.22 180.864 511.926 180.752 511.692 180.528C511.468 180.293 511.356 180.021 511.356 179.712ZM515.368 186.16C515.368 185.552 515.475 185.003 515.688 184.512C515.912 184.011 516.211 183.584 516.584 183.232C516.957 182.88 517.4 182.608 517.912 182.416C518.424 182.224 518.968 182.128 519.544 182.128C520.12 182.128 520.664 182.224 521.176 182.416C521.688 182.608 522.131 182.88 522.504 183.232C522.877 183.584 523.171 184.011 523.384 184.512C523.608 185.003 523.72 185.552 523.72 186.16C523.72 186.768 523.608 187.323 523.384 187.824C523.171 188.315 522.877 188.736 522.504 189.088C522.131 189.44 521.688 189.712 521.176 189.904C520.664 190.096 520.12 190.192 519.544 190.192C518.968 190.192 518.424 190.096 517.912 189.904C517.4 189.712 516.957 189.44 516.584 189.088C516.211 188.736 515.912 188.315 515.688 187.824C515.475 187.323 515.368 186.768 515.368 186.16ZM517.288 186.16C517.288 186.459 517.336 186.747 517.432 187.024C517.539 187.301 517.688 187.547 517.88 187.76C518.083 187.973 518.323 188.144 518.6 188.272C518.877 188.4 519.192 188.464 519.544 188.464C519.896 188.464 520.211 188.4 520.488 188.272C520.765 188.144 521 187.973 521.192 187.76C521.395 187.547 521.544 187.301 521.64 187.024C521.747 186.747 521.8 186.459 521.8 186.16C521.8 185.861 521.747 185.573 521.64 185.296C521.544 185.019 521.395 184.773 521.192 184.56C521 184.347 520.765 184.176 520.488 184.048C520.211 183.92 519.896 183.856 519.544 183.856C519.192 183.856 518.877 183.92 518.6 184.048C518.323 184.176 518.083 184.347 517.88 184.56C517.688 184.773 517.539 185.019 517.432 185.296C517.336 185.573 517.288 185.861 517.288 186.16ZM525.518 182.32H527.342V183.552H527.374C527.555 183.168 527.832 182.837 528.206 182.56C528.579 182.272 529.086 182.128 529.726 182.128C530.238 182.128 530.67 182.213 531.022 182.384C531.384 182.555 531.678 182.779 531.902 183.056C532.126 183.333 532.286 183.653 532.382 184.016C532.478 184.379 532.526 184.757 532.526 185.152V190H530.606V186.112C530.606 185.899 530.595 185.664 530.574 185.408C530.552 185.141 530.494 184.896 530.398 184.672C530.312 184.437 530.174 184.245 529.982 184.096C529.79 183.936 529.528 183.856 529.198 183.856C528.878 183.856 528.606 183.909 528.382 184.016C528.168 184.123 527.987 184.267 527.838 184.448C527.699 184.629 527.598 184.837 527.534 185.072C527.47 185.307 527.438 185.552 527.438 185.808V190H525.518V182.32ZM539.44 182.32H541.36V183.536H541.392C541.605 183.088 541.909 182.741 542.304 182.496C542.698 182.251 543.152 182.128 543.664 182.128C543.781 182.128 543.893 182.139 544 182.16C544.117 182.181 544.234 182.208 544.352 182.24V184.096C544.192 184.053 544.032 184.021 543.872 184C543.722 183.968 543.573 183.952 543.424 183.952C542.976 183.952 542.613 184.037 542.336 184.208C542.069 184.368 541.861 184.555 541.712 184.768C541.573 184.981 541.477 185.195 541.424 185.408C541.381 185.621 541.36 185.781 541.36 185.888V190H539.44V182.32ZM546.913 186.832C546.977 187.408 547.201 187.856 547.585 188.176C547.969 188.496 548.433 188.656 548.977 188.656C549.457 188.656 549.857 188.56 550.177 188.368C550.508 188.165 550.796 187.915 551.041 187.616L552.417 188.656C551.969 189.211 551.468 189.605 550.913 189.84C550.358 190.075 549.777 190.192 549.169 190.192C548.593 190.192 548.049 190.096 547.537 189.904C547.025 189.712 546.582 189.44 546.209 189.088C545.836 188.736 545.537 188.315 545.313 187.824C545.1 187.323 544.993 186.768 544.993 186.16C544.993 185.552 545.1 185.003 545.313 184.512C545.537 184.011 545.836 183.584 546.209 183.232C546.582 182.88 547.025 182.608 547.537 182.416C548.049 182.224 548.593 182.128 549.169 182.128C549.702 182.128 550.188 182.224 550.625 182.416C551.073 182.597 551.452 182.864 551.761 183.216C552.081 183.568 552.326 184.005 552.497 184.528C552.678 185.04 552.769 185.632 552.769 186.304V186.832H546.913ZM550.849 185.392C550.838 184.827 550.662 184.384 550.321 184.064C549.98 183.733 549.505 183.568 548.897 183.568C548.321 183.568 547.862 183.733 547.521 184.064C547.19 184.395 546.988 184.837 546.913 185.392H550.849ZM554.565 182.32H556.389V183.472H556.421C556.698 183.003 557.071 182.661 557.541 182.448C558.01 182.235 558.517 182.128 559.061 182.128C559.647 182.128 560.175 182.235 560.645 182.448C561.114 182.651 561.514 182.933 561.845 183.296C562.175 183.659 562.426 184.085 562.597 184.576C562.767 185.067 562.853 185.595 562.853 186.16C562.853 186.725 562.762 187.253 562.581 187.744C562.399 188.235 562.143 188.661 561.813 189.024C561.493 189.387 561.103 189.675 560.645 189.888C560.186 190.091 559.685 190.192 559.141 190.192C558.778 190.192 558.458 190.155 558.181 190.08C557.903 190.005 557.658 189.909 557.445 189.792C557.231 189.675 557.05 189.552 556.901 189.424C556.751 189.285 556.629 189.152 556.533 189.024H556.485V193.648H554.565V182.32ZM560.933 186.16C560.933 185.861 560.879 185.573 560.773 185.296C560.677 185.019 560.527 184.773 560.325 184.56C560.133 184.347 559.898 184.176 559.621 184.048C559.343 183.92 559.029 183.856 558.677 183.856C558.325 183.856 558.01 183.92 557.733 184.048C557.455 184.176 557.215 184.347 557.013 184.56C556.821 184.773 556.671 185.019 556.565 185.296C556.469 185.573 556.421 185.861 556.421 186.16C556.421 186.459 556.469 186.747 556.565 187.024C556.671 187.301 556.821 187.547 557.013 187.76C557.215 187.973 557.455 188.144 557.733 188.272C558.01 188.4 558.325 188.464 558.677 188.464C559.029 188.464 559.343 188.4 559.621 188.272C559.898 188.144 560.133 187.973 560.325 187.76C560.527 187.547 560.677 187.301 560.773 187.024C560.879 186.747 560.933 186.459 560.933 186.16ZM564.259 186.16C564.259 185.552 564.365 185.003 564.579 184.512C564.803 184.011 565.101 183.584 565.475 183.232C565.848 182.88 566.291 182.608 566.803 182.416C567.315 182.224 567.859 182.128 568.435 182.128C569.011 182.128 569.555 182.224 570.067 182.416C570.579 182.608 571.021 182.88 571.395 183.232C571.768 183.584 572.061 184.011 572.275 184.512C572.499 185.003 572.611 185.552 572.611 186.16C572.611 186.768 572.499 187.323 572.275 187.824C572.061 188.315 571.768 188.736 571.395 189.088C571.021 189.44 570.579 189.712 570.067 189.904C569.555 190.096 569.011 190.192 568.435 190.192C567.859 190.192 567.315 190.096 566.803 189.904C566.291 189.712 565.848 189.44 565.475 189.088C565.101 188.736 564.803 188.315 564.579 187.824C564.365 187.323 564.259 186.768 564.259 186.16ZM566.179 186.16C566.179 186.459 566.227 186.747 566.323 187.024C566.429 187.301 566.579 187.547 566.771 187.76C566.973 187.973 567.213 188.144 567.491 188.272C567.768 188.4 568.083 188.464 568.435 188.464C568.787 188.464 569.101 188.4 569.379 188.272C569.656 188.144 569.891 187.973 570.083 187.76C570.285 187.547 570.435 187.301 570.531 187.024C570.637 186.747 570.691 186.459 570.691 186.16C570.691 185.861 570.637 185.573 570.531 185.296C570.435 185.019 570.285 184.773 570.083 184.56C569.891 184.347 569.656 184.176 569.379 184.048C569.101 183.92 568.787 183.856 568.435 183.856C568.083 183.856 567.768 183.92 567.491 184.048C567.213 184.176 566.973 184.347 566.771 184.56C566.579 184.773 566.429 185.019 566.323 185.296C566.227 185.573 566.179 185.861 566.179 186.16ZM574.408 182.32H576.328V183.536H576.36C576.574 183.088 576.878 182.741 577.272 182.496C577.667 182.251 578.12 182.128 578.632 182.128C578.75 182.128 578.862 182.139 578.968 182.16C579.086 182.181 579.203 182.208 579.32 182.24V184.096C579.16 184.053 579 184.021 578.84 184C578.691 183.968 578.542 183.952 578.392 183.952C577.944 183.952 577.582 184.037 577.304 184.208C577.038 184.368 576.83 184.555 576.68 184.768C576.542 184.981 576.446 185.195 576.392 185.408C576.35 185.621 576.328 185.781 576.328 185.888V190H574.408V182.32ZM579.731 183.952V182.32H581.315V180.096H583.235V182.32H585.347V183.952H583.235V187.312C583.235 187.696 583.304 188 583.443 188.224C583.592 188.448 583.88 188.56 584.307 188.56C584.478 188.56 584.664 188.544 584.867 188.512C585.07 188.469 585.23 188.405 585.347 188.32V189.936C585.144 190.032 584.894 190.096 584.595 190.128C584.307 190.171 584.051 190.192 583.827 190.192C583.315 190.192 582.894 190.133 582.563 190.016C582.243 189.909 581.987 189.744 581.795 189.52C581.614 189.285 581.486 188.997 581.411 188.656C581.347 188.315 581.315 187.92 581.315 187.472V183.952H579.731Z" fill="#777777"/>
<g clip-path="url(#clip0)">
<g filter="url(#filter3_d)">
<path d="M53 335C53 333.895 53.8954 333 55 333H206C207.105 333 208 333.895 208 335V469H53V335Z" fill="white"/>
<path d="M55 333.5H206C206.828 333.5 207.5 334.172 207.5 335V468.5H53.5V335C53.5 334.172 54.1716 333.5 55 333.5Z" stroke="#DDDDDD"/>
</g>
<rect x="61" y="341" width="16" height="5" rx="2.5" fill="#29B32F"/>
<g filter="url(#filter4_d)">
<path d="M253 335C253 333.895 253.895 333 255 333H406C407.105 333 408 333.895 408 335V469H253V335Z" fill="white"/>
<path d="M255 333.5H406C406.828 333.5 407.5 334.172 407.5 335V468.5H253.5V335C253.5 334.172 254.172 333.5 255 333.5Z" stroke="#DDDDDD"/>
</g>
<rect x="264" y="341" width="16" height="5" rx="2.5" fill="#296DB3"/>
<g filter="url(#filter5_d)">
<path d="M453 335C453 333.895 453.895 333 455 333H606C607.105 333 608 333.895 608 335V469H453V335Z" fill="white"/>
<path d="M455 333.5H606C606.828 333.5 607.5 334.172 607.5 335V468.5H453.5V335C453.5 334.172 454.172 333.5 455 333.5Z" stroke="#DDDDDD"/>
</g>
<rect x="464" y="341" width="16" height="5" rx="2.5" fill="#991FA4"/>
<rect x="73" y="425" width="117" height="5" rx="2.5" fill="#D8E4F1"/>
<rect x="106" y="438" width="51" height="5" rx="2.5" fill="#D8E4F1"/>
<rect x="272" y="425" width="117" height="5" rx="2.5" fill="#D8E4F1"/>
<rect x="289" y="438" width="83" height="5" rx="2.5" fill="#D8E4F1"/>
<rect width="83" height="5" rx="2.5" transform="matrix(1 0 0 -1 492 443)" fill="#D8E4F1"/>
<rect width="51" height="5" rx="2.5" transform="matrix(1 0 0 -1 508 430)" fill="#D8E4F1"/>
<path d="M88.3031 394.672H90.9751L96.4631 403.088H96.4951V394.672H98.5111V406H95.9511L90.3511 397.312H90.3191V406H88.3031V394.672ZM101.037 394.672H103.053V399.184H108.349V394.672H110.365V406H108.349V401.008H103.053V406H101.037V394.672ZM112.897 394.672H120.209V396.496H114.913V399.472H119.905V401.296H114.913V406H112.897V394.672ZM126.643 398.32H128.563V399.536H128.595C128.808 399.088 129.112 398.741 129.507 398.496C129.901 398.251 130.355 398.128 130.867 398.128C130.984 398.128 131.096 398.139 131.203 398.16C131.32 398.181 131.437 398.208 131.555 398.24V400.096C131.395 400.053 131.235 400.021 131.075 400C130.925 399.968 130.776 399.952 130.627 399.952C130.179 399.952 129.816 400.037 129.539 400.208C129.272 400.368 129.064 400.555 128.915 400.768C128.776 400.981 128.68 401.195 128.627 401.408C128.584 401.621 128.563 401.781 128.563 401.888V406H126.643V398.32ZM134.116 402.832C134.18 403.408 134.404 403.856 134.788 404.176C135.172 404.496 135.636 404.656 136.18 404.656C136.66 404.656 137.06 404.56 137.38 404.368C137.711 404.165 137.999 403.915 138.244 403.616L139.62 404.656C139.172 405.211 138.671 405.605 138.116 405.84C137.562 406.075 136.98 406.192 136.372 406.192C135.796 406.192 135.252 406.096 134.74 405.904C134.228 405.712 133.786 405.44 133.412 405.088C133.039 404.736 132.74 404.315 132.516 403.824C132.303 403.323 132.196 402.768 132.196 402.16C132.196 401.552 132.303 401.003 132.516 400.512C132.74 400.011 133.039 399.584 133.412 399.232C133.786 398.88 134.228 398.608 134.74 398.416C135.252 398.224 135.796 398.128 136.372 398.128C136.906 398.128 137.391 398.224 137.828 398.416C138.276 398.597 138.655 398.864 138.964 399.216C139.284 399.568 139.53 400.005 139.7 400.528C139.882 401.04 139.972 401.632 139.972 402.304V402.832H134.116ZM138.052 401.392C138.042 400.827 137.866 400.384 137.524 400.064C137.183 399.733 136.708 399.568 136.1 399.568C135.524 399.568 135.066 399.733 134.724 400.064C134.394 400.395 134.191 400.837 134.116 401.392H138.052ZM141.768 398.32H143.592V399.472H143.624C143.901 399.003 144.274 398.661 144.744 398.448C145.213 398.235 145.72 398.128 146.264 398.128C146.85 398.128 147.378 398.235 147.848 398.448C148.317 398.651 148.717 398.933 149.048 399.296C149.378 399.659 149.629 400.085 149.8 400.576C149.97 401.067 150.056 401.595 150.056 402.16C150.056 402.725 149.965 403.253 149.784 403.744C149.602 404.235 149.346 404.661 149.016 405.024C148.696 405.387 148.306 405.675 147.848 405.888C147.389 406.091 146.888 406.192 146.344 406.192C145.981 406.192 145.661 406.155 145.384 406.08C145.106 406.005 144.861 405.909 144.648 405.792C144.434 405.675 144.253 405.552 144.104 405.424C143.954 405.285 143.832 405.152 143.736 405.024H143.688V409.648H141.768V398.32ZM148.136 402.16C148.136 401.861 148.082 401.573 147.976 401.296C147.88 401.019 147.73 400.773 147.528 400.56C147.336 400.347 147.101 400.176 146.824 400.048C146.546 399.92 146.232 399.856 145.88 399.856C145.528 399.856 145.213 399.92 144.936 400.048C144.658 400.176 144.418 400.347 144.216 400.56C144.024 400.773 143.874 401.019 143.768 401.296C143.672 401.573 143.624 401.861 143.624 402.16C143.624 402.459 143.672 402.747 143.768 403.024C143.874 403.301 144.024 403.547 144.216 403.76C144.418 403.973 144.658 404.144 144.936 404.272C145.213 404.4 145.528 404.464 145.88 404.464C146.232 404.464 146.546 404.4 146.824 404.272C147.101 404.144 147.336 403.973 147.528 403.76C147.73 403.547 147.88 403.301 147.976 403.024C148.082 402.747 148.136 402.459 148.136 402.16ZM151.462 402.16C151.462 401.552 151.568 401.003 151.782 400.512C152.006 400.011 152.304 399.584 152.678 399.232C153.051 398.88 153.494 398.608 154.006 398.416C154.518 398.224 155.062 398.128 155.638 398.128C156.214 398.128 156.758 398.224 157.27 398.416C157.782 398.608 158.224 398.88 158.598 399.232C158.971 399.584 159.264 400.011 159.478 400.512C159.702 401.003 159.814 401.552 159.814 402.16C159.814 402.768 159.702 403.323 159.478 403.824C159.264 404.315 158.971 404.736 158.598 405.088C158.224 405.44 157.782 405.712 157.27 405.904C156.758 406.096 156.214 406.192 155.638 406.192C155.062 406.192 154.518 406.096 154.006 405.904C153.494 405.712 153.051 405.44 152.678 405.088C152.304 404.736 152.006 404.315 151.782 403.824C151.568 403.323 151.462 402.768 151.462 402.16ZM153.382 402.16C153.382 402.459 153.43 402.747 153.526 403.024C153.632 403.301 153.782 403.547 153.974 403.76C154.176 403.973 154.416 404.144 154.694 404.272C154.971 404.4 155.286 404.464 155.638 404.464C155.99 404.464 156.304 404.4 156.582 404.272C156.859 404.144 157.094 403.973 157.286 403.76C157.488 403.547 157.638 403.301 157.734 403.024C157.84 402.747 157.894 402.459 157.894 402.16C157.894 401.861 157.84 401.573 157.734 401.296C157.638 401.019 157.488 400.773 157.286 400.56C157.094 400.347 156.859 400.176 156.582 400.048C156.304 399.92 155.99 399.856 155.638 399.856C155.286 399.856 154.971 399.92 154.694 400.048C154.416 400.176 154.176 400.347 153.974 400.56C153.782 400.773 153.632 401.019 153.526 401.296C153.43 401.573 153.382 401.861 153.382 402.16ZM161.611 398.32H163.531V399.536H163.563C163.777 399.088 164.081 398.741 164.475 398.496C164.87 398.251 165.323 398.128 165.835 398.128C165.953 398.128 166.065 398.139 166.171 398.16C166.289 398.181 166.406 398.208 166.523 398.24V400.096C166.363 400.053 166.203 400.021 166.043 400C165.894 399.968 165.745 399.952 165.595 399.952C165.147 399.952 164.785 400.037 164.507 400.208C164.241 400.368 164.033 400.555 163.883 400.768C163.745 400.981 163.649 401.195 163.595 401.408C163.553 401.621 163.531 401.781 163.531 401.888V406H161.611V398.32ZM166.934 399.952V398.32H168.518V396.096H170.438V398.32H172.55V399.952H170.438V403.312C170.438 403.696 170.508 404 170.646 404.224C170.796 404.448 171.084 404.56 171.51 404.56C171.681 404.56 171.868 404.544 172.07 404.512C172.273 404.469 172.433 404.405 172.55 404.32V405.936C172.348 406.032 172.097 406.096 171.798 406.128C171.51 406.171 171.254 406.192 171.03 406.192C170.518 406.192 170.097 406.133 169.766 406.016C169.446 405.909 169.19 405.744 168.998 405.52C168.817 405.285 168.689 404.997 168.614 404.656C168.55 404.315 168.518 403.92 168.518 403.472V399.952H166.934Z" fill="#777777"/>
<path d="M290.733 394.672H298.237V396.496H292.749V399.28H297.949V401.104H292.749V404.176H298.525V406H290.733V394.672ZM306.066 397.104C305.853 396.795 305.565 396.571 305.202 396.432C304.85 396.283 304.477 396.208 304.082 396.208C303.847 396.208 303.618 396.235 303.394 396.288C303.181 396.341 302.983 396.427 302.802 396.544C302.631 396.661 302.493 396.816 302.386 397.008C302.279 397.189 302.226 397.408 302.226 397.664C302.226 398.048 302.359 398.341 302.626 398.544C302.893 398.747 303.223 398.923 303.618 399.072C304.013 399.221 304.445 399.365 304.914 399.504C305.383 399.643 305.815 399.835 306.21 400.08C306.605 400.325 306.935 400.651 307.202 401.056C307.469 401.461 307.602 402 307.602 402.672C307.602 403.28 307.49 403.813 307.266 404.272C307.042 404.72 306.738 405.093 306.354 405.392C305.981 405.691 305.543 405.915 305.042 406.064C304.541 406.213 304.013 406.288 303.458 406.288C302.754 406.288 302.077 406.171 301.426 405.936C300.775 405.701 300.215 405.307 299.746 404.752L301.266 403.28C301.511 403.653 301.831 403.947 302.226 404.16C302.631 404.363 303.058 404.464 303.506 404.464C303.741 404.464 303.975 404.432 304.21 404.368C304.445 404.304 304.658 404.208 304.85 404.08C305.042 403.952 305.197 403.792 305.314 403.6C305.431 403.397 305.49 403.168 305.49 402.912C305.49 402.496 305.357 402.176 305.09 401.952C304.823 401.728 304.493 401.541 304.098 401.392C303.703 401.232 303.271 401.083 302.802 400.944C302.333 400.805 301.901 400.619 301.506 400.384C301.111 400.139 300.781 399.819 300.514 399.424C300.247 399.019 300.114 398.48 300.114 397.808C300.114 397.221 300.231 396.715 300.466 396.288C300.711 395.861 301.026 395.509 301.41 395.232C301.805 394.944 302.253 394.731 302.754 394.592C303.255 394.453 303.767 394.384 304.29 394.384C304.887 394.384 305.463 394.475 306.018 394.656C306.583 394.837 307.09 395.136 307.538 395.552L306.066 397.104ZM317.477 397.328C317.062 396.88 316.656 396.581 316.262 396.432C315.878 396.283 315.488 396.208 315.094 396.208C314.507 396.208 313.974 396.315 313.494 396.528C313.024 396.731 312.619 397.019 312.278 397.392C311.936 397.755 311.67 398.181 311.478 398.672C311.296 399.163 311.206 399.691 311.206 400.256C311.206 400.864 311.296 401.424 311.478 401.936C311.67 402.448 311.936 402.891 312.278 403.264C312.619 403.637 313.024 403.931 313.494 404.144C313.974 404.357 314.507 404.464 315.094 404.464C315.552 404.464 315.995 404.357 316.422 404.144C316.859 403.92 317.264 403.568 317.638 403.088L319.302 404.272C318.79 404.976 318.166 405.488 317.43 405.808C316.694 406.128 315.91 406.288 315.078 406.288C314.203 406.288 313.398 406.149 312.661 405.872C311.936 405.584 311.307 405.184 310.774 404.672C310.251 404.149 309.84 403.525 309.542 402.8C309.243 402.075 309.094 401.269 309.094 400.384C309.094 399.477 309.243 398.656 309.542 397.92C309.84 397.173 310.251 396.539 310.774 396.016C311.307 395.493 311.936 395.093 312.661 394.816C313.398 394.528 314.203 394.384 315.078 394.384C315.846 394.384 316.555 394.523 317.206 394.8C317.867 395.067 318.48 395.525 319.046 396.176L317.477 397.328ZM325.213 398.32H327.133V399.536H327.165C327.378 399.088 327.682 398.741 328.077 398.496C328.472 398.251 328.925 398.128 329.437 398.128C329.554 398.128 329.666 398.139 329.773 398.16C329.89 398.181 330.008 398.208 330.125 398.24V400.096C329.965 400.053 329.805 400.021 329.645 400C329.496 399.968 329.346 399.952 329.197 399.952C328.749 399.952 328.386 400.037 328.109 400.208C327.842 400.368 327.634 400.555 327.485 400.768C327.346 400.981 327.25 401.195 327.197 401.408C327.154 401.621 327.133 401.781 327.133 401.888V406H325.213V398.32ZM332.687 402.832C332.751 403.408 332.975 403.856 333.359 404.176C333.743 404.496 334.207 404.656 334.751 404.656C335.231 404.656 335.631 404.56 335.951 404.368C336.281 404.165 336.569 403.915 336.815 403.616L338.191 404.656C337.743 405.211 337.241 405.605 336.687 405.84C336.132 406.075 335.551 406.192 334.943 406.192C334.367 406.192 333.823 406.096 333.311 405.904C332.799 405.712 332.356 405.44 331.983 405.088C331.609 404.736 331.311 404.315 331.087 403.824C330.873 403.323 330.767 402.768 330.767 402.16C330.767 401.552 330.873 401.003 331.087 400.512C331.311 400.011 331.609 399.584 331.983 399.232C332.356 398.88 332.799 398.608 333.311 398.416C333.823 398.224 334.367 398.128 334.943 398.128C335.476 398.128 335.961 398.224 336.399 398.416C336.847 398.597 337.225 398.864 337.535 399.216C337.855 399.568 338.1 400.005 338.271 400.528C338.452 401.04 338.543 401.632 338.543 402.304V402.832H332.687ZM336.623 401.392C336.612 400.827 336.436 400.384 336.095 400.064C335.753 399.733 335.279 399.568 334.671 399.568C334.095 399.568 333.636 399.733 333.295 400.064C332.964 400.395 332.761 400.837 332.687 401.392H336.623ZM340.338 398.32H342.162V399.472H342.194C342.471 399.003 342.845 398.661 343.314 398.448C343.783 398.235 344.29 398.128 344.834 398.128C345.421 398.128 345.949 398.235 346.418 398.448C346.887 398.651 347.287 398.933 347.618 399.296C347.949 399.659 348.199 400.085 348.37 400.576C348.541 401.067 348.626 401.595 348.626 402.16C348.626 402.725 348.535 403.253 348.354 403.744C348.173 404.235 347.917 404.661 347.586 405.024C347.266 405.387 346.877 405.675 346.418 405.888C345.959 406.091 345.458 406.192 344.914 406.192C344.551 406.192 344.231 406.155 343.954 406.08C343.677 406.005 343.431 405.909 343.218 405.792C343.005 405.675 342.823 405.552 342.674 405.424C342.525 405.285 342.402 405.152 342.306 405.024H342.258V409.648H340.338V398.32ZM346.706 402.16C346.706 401.861 346.653 401.573 346.546 401.296C346.45 401.019 346.301 400.773 346.098 400.56C345.906 400.347 345.671 400.176 345.394 400.048C345.117 399.92 344.802 399.856 344.45 399.856C344.098 399.856 343.783 399.92 343.506 400.048C343.229 400.176 342.989 400.347 342.786 400.56C342.594 400.773 342.445 401.019 342.338 401.296C342.242 401.573 342.194 401.861 342.194 402.16C342.194 402.459 342.242 402.747 342.338 403.024C342.445 403.301 342.594 403.547 342.786 403.76C342.989 403.973 343.229 404.144 343.506 404.272C343.783 404.4 344.098 404.464 344.45 404.464C344.802 404.464 345.117 404.4 345.394 404.272C345.671 404.144 345.906 403.973 346.098 403.76C346.301 403.547 346.45 403.301 346.546 403.024C346.653 402.747 346.706 402.459 346.706 402.16ZM350.032 402.16C350.032 401.552 350.139 401.003 350.352 400.512C350.576 400.011 350.875 399.584 351.248 399.232C351.621 398.88 352.064 398.608 352.576 398.416C353.088 398.224 353.632 398.128 354.208 398.128C354.784 398.128 355.328 398.224 355.84 398.416C356.352 398.608 356.795 398.88 357.168 399.232C357.541 399.584 357.835 400.011 358.048 400.512C358.272 401.003 358.384 401.552 358.384 402.16C358.384 402.768 358.272 403.323 358.048 403.824C357.835 404.315 357.541 404.736 357.168 405.088C356.795 405.44 356.352 405.712 355.84 405.904C355.328 406.096 354.784 406.192 354.208 406.192C353.632 406.192 353.088 406.096 352.576 405.904C352.064 405.712 351.621 405.44 351.248 405.088C350.875 404.736 350.576 404.315 350.352 403.824C350.139 403.323 350.032 402.768 350.032 402.16ZM351.952 402.16C351.952 402.459 352 402.747 352.096 403.024C352.203 403.301 352.352 403.547 352.544 403.76C352.747 403.973 352.987 404.144 353.264 404.272C353.541 404.4 353.856 404.464 354.208 404.464C354.56 404.464 354.875 404.4 355.152 404.272C355.429 404.144 355.664 403.973 355.856 403.76C356.059 403.547 356.208 403.301 356.304 403.024C356.411 402.747 356.464 402.459 356.464 402.16C356.464 401.861 356.411 401.573 356.304 401.296C356.208 401.019 356.059 400.773 355.856 400.56C355.664 400.347 355.429 400.176 355.152 400.048C354.875 399.92 354.56 399.856 354.208 399.856C353.856 399.856 353.541 399.92 353.264 400.048C352.987 400.176 352.747 400.347 352.544 400.56C352.352 400.773 352.203 401.019 352.096 401.296C352 401.573 351.952 401.861 351.952 402.16ZM360.182 398.32H362.102V399.536H362.134C362.347 399.088 362.651 398.741 363.046 398.496C363.44 398.251 363.894 398.128 364.406 398.128C364.523 398.128 364.635 398.139 364.742 398.16C364.859 398.181 364.976 398.208 365.094 398.24V400.096C364.934 400.053 364.774 400.021 364.614 400C364.464 399.968 364.315 399.952 364.166 399.952C363.718 399.952 363.355 400.037 363.078 400.208C362.811 400.368 362.603 400.555 362.454 400.768C362.315 400.981 362.219 401.195 362.166 401.408C362.123 401.621 362.102 401.781 362.102 401.888V406H360.182V398.32ZM365.505 399.952V398.32H367.089V396.096H369.009V398.32H371.121V399.952H369.009V403.312C369.009 403.696 369.078 404 369.217 404.224C369.366 404.448 369.654 404.56 370.081 404.56C370.251 404.56 370.438 404.544 370.641 404.512C370.843 404.469 371.003 404.405 371.121 404.32V405.936C370.918 406.032 370.667 406.096 370.369 406.128C370.081 406.171 369.825 406.192 369.601 406.192C369.089 406.192 368.667 406.133 368.337 406.016C368.017 405.909 367.761 405.744 367.569 405.52C367.387 405.285 367.259 404.997 367.185 404.656C367.121 404.315 367.089 403.92 367.089 403.472V399.952H365.505Z" fill="#777777"/>
<path d="M480.889 396.496H477.417V394.672H486.377V396.496H482.905V406H480.889V396.496ZM486.111 398.32H488.031V399.536H488.063C488.277 399.088 488.581 398.741 488.975 398.496C489.37 398.251 489.823 398.128 490.335 398.128C490.453 398.128 490.565 398.139 490.671 398.16C490.789 398.181 490.906 398.208 491.023 398.24V400.096C490.863 400.053 490.703 400.021 490.543 400C490.394 399.968 490.245 399.952 490.095 399.952C489.647 399.952 489.285 400.037 489.007 400.208C488.741 400.368 488.533 400.555 488.383 400.768C488.245 400.981 488.149 401.195 488.095 401.408C488.053 401.621 488.031 401.781 488.031 401.888V406H486.111V398.32ZM497.13 404.944H497.082C496.805 405.381 496.453 405.701 496.026 405.904C495.6 406.096 495.13 406.192 494.618 406.192C494.266 406.192 493.92 406.144 493.578 406.048C493.248 405.952 492.949 405.808 492.682 405.616C492.426 405.424 492.218 405.184 492.058 404.896C491.898 404.608 491.818 404.272 491.818 403.888C491.818 403.472 491.893 403.12 492.042 402.832C492.192 402.533 492.389 402.288 492.634 402.096C492.89 401.893 493.184 401.733 493.514 401.616C493.845 401.499 494.186 401.413 494.538 401.36C494.901 401.296 495.264 401.259 495.626 401.248C495.989 401.227 496.33 401.216 496.65 401.216H497.13V401.008C497.13 400.528 496.965 400.171 496.634 399.936C496.304 399.691 495.882 399.568 495.37 399.568C494.965 399.568 494.586 399.643 494.234 399.792C493.882 399.931 493.578 400.123 493.322 400.368L492.314 399.36C492.741 398.923 493.237 398.608 493.802 398.416C494.378 398.224 494.97 398.128 495.578 398.128C496.122 398.128 496.581 398.192 496.954 398.32C497.328 398.437 497.637 398.592 497.882 398.784C498.128 398.976 498.314 399.2 498.442 399.456C498.581 399.701 498.677 399.952 498.73 400.208C498.794 400.464 498.832 400.715 498.842 400.96C498.853 401.195 498.858 401.403 498.858 401.584V406H497.13V404.944ZM497.018 402.56H496.618C496.352 402.56 496.053 402.571 495.722 402.592C495.392 402.613 495.077 402.667 494.778 402.752C494.49 402.827 494.245 402.944 494.042 403.104C493.84 403.253 493.738 403.467 493.738 403.744C493.738 403.925 493.776 404.08 493.85 404.208C493.936 404.325 494.042 404.427 494.17 404.512C494.298 404.597 494.442 404.661 494.602 404.704C494.762 404.736 494.922 404.752 495.082 404.752C495.744 404.752 496.229 404.597 496.538 404.288C496.858 403.968 497.018 403.536 497.018 402.992V402.56ZM500.956 398.32H502.876V406H500.956V398.32ZM500.684 395.712C500.684 395.403 500.796 395.136 501.02 394.912C501.255 394.677 501.548 394.56 501.9 394.56C502.252 394.56 502.545 394.672 502.78 394.896C503.025 395.109 503.148 395.381 503.148 395.712C503.148 396.043 503.025 396.32 502.78 396.544C502.545 396.757 502.252 396.864 501.9 396.864C501.548 396.864 501.255 396.752 501.02 396.528C500.796 396.293 500.684 396.021 500.684 395.712ZM505.08 398.32H506.904V399.552H506.936C507.118 399.168 507.395 398.837 507.768 398.56C508.142 398.272 508.648 398.128 509.288 398.128C509.8 398.128 510.232 398.213 510.584 398.384C510.947 398.555 511.24 398.779 511.464 399.056C511.688 399.333 511.848 399.653 511.944 400.016C512.04 400.379 512.088 400.757 512.088 401.152V406H510.168V402.112C510.168 401.899 510.158 401.664 510.136 401.408C510.115 401.141 510.056 400.896 509.96 400.672C509.875 400.437 509.736 400.245 509.544 400.096C509.352 399.936 509.091 399.856 508.76 399.856C508.44 399.856 508.168 399.909 507.944 400.016C507.731 400.123 507.55 400.267 507.4 400.448C507.262 400.629 507.16 400.837 507.096 401.072C507.032 401.307 507 401.552 507 401.808V406H505.08V398.32ZM515.804 402.832C515.868 403.408 516.092 403.856 516.476 404.176C516.86 404.496 517.324 404.656 517.868 404.656C518.348 404.656 518.748 404.56 519.068 404.368C519.398 404.165 519.686 403.915 519.932 403.616L521.308 404.656C520.86 405.211 520.358 405.605 519.804 405.84C519.249 406.075 518.668 406.192 518.06 406.192C517.484 406.192 516.94 406.096 516.428 405.904C515.916 405.712 515.473 405.44 515.1 405.088C514.726 404.736 514.428 404.315 514.204 403.824C513.99 403.323 513.884 402.768 513.884 402.16C513.884 401.552 513.99 401.003 514.204 400.512C514.428 400.011 514.726 399.584 515.1 399.232C515.473 398.88 515.916 398.608 516.428 398.416C516.94 398.224 517.484 398.128 518.06 398.128C518.593 398.128 519.078 398.224 519.516 398.416C519.964 398.597 520.342 398.864 520.652 399.216C520.972 399.568 521.217 400.005 521.388 400.528C521.569 401.04 521.66 401.632 521.66 402.304V402.832H515.804ZM519.74 401.392C519.729 400.827 519.553 400.384 519.212 400.064C518.87 399.733 518.396 399.568 517.788 399.568C517.212 399.568 516.753 399.733 516.412 400.064C516.081 400.395 515.878 400.837 515.804 401.392H519.74ZM524.991 402.832C525.055 403.408 525.279 403.856 525.663 404.176C526.047 404.496 526.511 404.656 527.055 404.656C527.535 404.656 527.935 404.56 528.255 404.368C528.586 404.165 528.874 403.915 529.119 403.616L530.495 404.656C530.047 405.211 529.546 405.605 528.991 405.84C528.437 406.075 527.855 406.192 527.247 406.192C526.671 406.192 526.127 406.096 525.615 405.904C525.103 405.712 524.661 405.44 524.287 405.088C523.914 404.736 523.615 404.315 523.391 403.824C523.178 403.323 523.071 402.768 523.071 402.16C523.071 401.552 523.178 401.003 523.391 400.512C523.615 400.011 523.914 399.584 524.287 399.232C524.661 398.88 525.103 398.608 525.615 398.416C526.127 398.224 526.671 398.128 527.247 398.128C527.781 398.128 528.266 398.224 528.703 398.416C529.151 398.597 529.53 398.864 529.839 399.216C530.159 399.568 530.405 400.005 530.575 400.528C530.757 401.04 530.847 401.632 530.847 402.304V402.832H524.991ZM528.927 401.392C528.917 400.827 528.741 400.384 528.399 400.064C528.058 399.733 527.583 399.568 526.975 399.568C526.399 399.568 525.941 399.733 525.599 400.064C525.269 400.395 525.066 400.837 524.991 401.392H528.927ZM537.377 398.32H539.297V399.536H539.329C539.542 399.088 539.846 398.741 540.241 398.496C540.636 398.251 541.089 398.128 541.601 398.128C541.718 398.128 541.83 398.139 541.937 398.16C542.054 398.181 542.172 398.208 542.289 398.24V400.096C542.129 400.053 541.969 400.021 541.809 400C541.66 399.968 541.51 399.952 541.361 399.952C540.913 399.952 540.55 400.037 540.273 400.208C540.006 400.368 539.798 400.555 539.649 400.768C539.51 400.981 539.414 401.195 539.361 401.408C539.318 401.621 539.297 401.781 539.297 401.888V406H537.377V398.32ZM544.851 402.832C544.915 403.408 545.139 403.856 545.523 404.176C545.907 404.496 546.371 404.656 546.915 404.656C547.395 404.656 547.795 404.56 548.115 404.368C548.445 404.165 548.733 403.915 548.979 403.616L550.355 404.656C549.907 405.211 549.405 405.605 548.851 405.84C548.296 406.075 547.715 406.192 547.107 406.192C546.531 406.192 545.987 406.096 545.475 405.904C544.963 405.712 544.52 405.44 544.147 405.088C543.773 404.736 543.475 404.315 543.251 403.824C543.037 403.323 542.931 402.768 542.931 402.16C542.931 401.552 543.037 401.003 543.251 400.512C543.475 400.011 543.773 399.584 544.147 399.232C544.52 398.88 544.963 398.608 545.475 398.416C545.987 398.224 546.531 398.128 547.107 398.128C547.64 398.128 548.125 398.224 548.563 398.416C549.011 398.597 549.389 398.864 549.699 399.216C550.019 399.568 550.264 400.005 550.435 400.528C550.616 401.04 550.707 401.632 550.707 402.304V402.832H544.851ZM548.787 401.392C548.776 400.827 548.6 400.384 548.259 400.064C547.917 399.733 547.443 399.568 546.835 399.568C546.259 399.568 545.8 399.733 545.459 400.064C545.128 400.395 544.925 400.837 544.851 401.392H548.787ZM552.502 398.32H554.326V399.472H554.358C554.635 399.003 555.009 398.661 555.478 398.448C555.947 398.235 556.454 398.128 556.998 398.128C557.585 398.128 558.113 398.235 558.582 398.448C559.051 398.651 559.451 398.933 559.782 399.296C560.113 399.659 560.363 400.085 560.534 400.576C560.705 401.067 560.79 401.595 560.79 402.16C560.79 402.725 560.699 403.253 560.518 403.744C560.337 404.235 560.081 404.661 559.75 405.024C559.43 405.387 559.041 405.675 558.582 405.888C558.123 406.091 557.622 406.192 557.078 406.192C556.715 406.192 556.395 406.155 556.118 406.08C555.841 406.005 555.595 405.909 555.382 405.792C555.169 405.675 554.987 405.552 554.838 405.424C554.689 405.285 554.566 405.152 554.47 405.024H554.422V409.648H552.502V398.32ZM558.87 402.16C558.87 401.861 558.817 401.573 558.71 401.296C558.614 401.019 558.465 400.773 558.262 400.56C558.07 400.347 557.835 400.176 557.558 400.048C557.281 399.92 556.966 399.856 556.614 399.856C556.262 399.856 555.947 399.92 555.67 400.048C555.393 400.176 555.153 400.347 554.95 400.56C554.758 400.773 554.609 401.019 554.502 401.296C554.406 401.573 554.358 401.861 554.358 402.16C554.358 402.459 554.406 402.747 554.502 403.024C554.609 403.301 554.758 403.547 554.95 403.76C555.153 403.973 555.393 404.144 555.67 404.272C555.947 404.4 556.262 404.464 556.614 404.464C556.966 404.464 557.281 404.4 557.558 404.272C557.835 404.144 558.07 403.973 558.262 403.76C558.465 403.547 558.614 403.301 558.71 403.024C558.817 402.747 558.87 402.459 558.87 402.16ZM562.196 402.16C562.196 401.552 562.303 401.003 562.516 400.512C562.74 400.011 563.039 399.584 563.412 399.232C563.786 398.88 564.228 398.608 564.74 398.416C565.252 398.224 565.796 398.128 566.372 398.128C566.948 398.128 567.492 398.224 568.004 398.416C568.516 398.608 568.959 398.88 569.332 399.232C569.706 399.584 569.999 400.011 570.212 400.512C570.436 401.003 570.548 401.552 570.548 402.16C570.548 402.768 570.436 403.323 570.212 403.824C569.999 404.315 569.706 404.736 569.332 405.088C568.959 405.44 568.516 405.712 568.004 405.904C567.492 406.096 566.948 406.192 566.372 406.192C565.796 406.192 565.252 406.096 564.74 405.904C564.228 405.712 563.786 405.44 563.412 405.088C563.039 404.736 562.74 404.315 562.516 403.824C562.303 403.323 562.196 402.768 562.196 402.16ZM564.116 402.16C564.116 402.459 564.164 402.747 564.26 403.024C564.367 403.301 564.516 403.547 564.708 403.76C564.911 403.973 565.151 404.144 565.428 404.272C565.706 404.4 566.02 404.464 566.372 404.464C566.724 404.464 567.039 404.4 567.316 404.272C567.594 404.144 567.828 403.973 568.02 403.76C568.223 403.547 568.372 403.301 568.468 403.024C568.575 402.747 568.628 402.459 568.628 402.16C568.628 401.861 568.575 401.573 568.468 401.296C568.372 401.019 568.223 400.773 568.02 400.56C567.828 400.347 567.594 400.176 567.316 400.048C567.039 399.92 566.724 399.856 566.372 399.856C566.02 399.856 565.706 399.92 565.428 400.048C565.151 400.176 564.911 400.347 564.708 400.56C564.516 400.773 564.367 401.019 564.26 401.296C564.164 401.573 564.116 401.861 564.116 402.16ZM572.346 398.32H574.266V399.536H574.298C574.511 399.088 574.815 398.741 575.21 398.496C575.604 398.251 576.058 398.128 576.57 398.128C576.687 398.128 576.799 398.139 576.906 398.16C577.023 398.181 577.14 398.208 577.258 398.24V400.096C577.098 400.053 576.938 400.021 576.778 400C576.628 399.968 576.479 399.952 576.33 399.952C575.882 399.952 575.519 400.037 575.242 400.208C574.975 400.368 574.767 400.555 574.618 400.768C574.479 400.981 574.383 401.195 574.33 401.408C574.287 401.621 574.266 401.781 574.266 401.888V406H572.346V398.32ZM577.669 399.952V398.32H579.253V396.096H581.173V398.32H583.285V399.952H581.173V403.312C581.173 403.696 581.242 404 581.381 404.224C581.53 404.448 581.818 404.56 582.245 404.56C582.415 404.56 582.602 404.544 582.805 404.512C583.007 404.469 583.167 404.405 583.285 404.32V405.936C583.082 406.032 582.831 406.096 582.533 406.128C582.245 406.171 581.989 406.192 581.765 406.192C581.253 406.192 580.831 406.133 580.501 406.016C580.181 405.909 579.925 405.744 579.733 405.52C579.551 405.285 579.423 404.997 579.349 404.656C579.285 404.315 579.253 403.92 579.253 403.472V399.952H577.669Z" fill="#777777"/>
</g>
<path d="M54.28 74.736V69.864H56.896C58.552 69.864 59.56 70.8 59.56 72.312C59.56 73.776 58.552 74.736 56.896 74.736H54.28ZM57.304 77.592C60.664 77.592 62.896 75.384 62.896 72.288C62.896 69.216 60.664 66.984 57.304 66.984H50.944V84H54.256V77.592H57.304ZM64.1168 80.784C64.1168 82.632 65.6528 84.336 68.1728 84.336C69.9248 84.336 71.0528 83.52 71.6528 82.584C71.6528 83.04 71.7008 83.688 71.7728 84H74.7008C74.6288 83.592 74.5568 82.752 74.5568 82.128V76.32C74.5568 73.944 73.1648 71.832 69.4208 71.832C66.2528 71.832 64.5488 73.872 64.3568 75.72L67.1888 76.32C67.2848 75.288 68.0528 74.4 69.4448 74.4C70.7888 74.4 71.4368 75.096 71.4368 75.936C71.4368 76.344 71.2208 76.68 70.5488 76.776L67.6448 77.208C65.6768 77.496 64.1168 78.672 64.1168 80.784ZM68.8448 81.96C67.8128 81.96 67.3088 81.288 67.3088 80.592C67.3088 79.68 67.9568 79.224 68.7728 79.104L71.4368 78.696V79.224C71.4368 81.312 70.1888 81.96 68.8448 81.96ZM81.5496 88.656L88.9656 72.192H85.5576L82.6536 79.104L79.5096 72.192H75.9336L80.9496 82.512L78.1656 88.656H81.5496ZM98.0993 72.144C97.8593 72.12 97.6193 72.096 97.3553 72.096C96.3473 72.096 94.7153 72.384 93.9953 73.944V72.192H90.8993V84H94.0913V78.6C94.0913 76.056 95.5073 75.264 97.1393 75.264C97.4273 75.264 97.7393 75.288 98.0993 75.36V72.144ZM105.531 81.456C103.971 81.456 102.531 80.304 102.531 78.096C102.531 75.864 103.971 74.736 105.531 74.736C107.091 74.736 108.531 75.864 108.531 78.096C108.531 80.328 107.091 81.456 105.531 81.456ZM105.531 71.832C102.003 71.832 99.3394 74.448 99.3394 78.096C99.3394 81.72 102.003 84.36 105.531 84.36C109.059 84.36 111.723 81.72 111.723 78.096C111.723 74.448 109.059 71.832 105.531 71.832ZM117.435 84V66.624H114.243V84H117.435ZM124.044 84V66.624H120.852V84H124.044ZM140.592 72.144C140.352 72.12 140.112 72.096 139.848 72.096C138.84 72.096 137.208 72.384 136.488 73.944V72.192H133.392V84H136.584V78.6C136.584 76.056 138 75.264 139.632 75.264C139.92 75.264 140.232 75.288 140.592 75.36V72.144ZM145.048 76.752C145.12 75.672 146.032 74.424 147.688 74.424C149.512 74.424 150.28 75.576 150.328 76.752H145.048ZM150.64 79.824C150.256 80.88 149.44 81.624 147.952 81.624C146.368 81.624 145.048 80.496 144.976 78.936H153.424C153.424 78.888 153.472 78.408 153.472 77.952C153.472 74.16 151.288 71.832 147.64 71.832C144.616 71.832 141.832 74.28 141.832 78.048C141.832 82.032 144.688 84.36 147.928 84.36C150.832 84.36 152.704 82.656 153.304 80.616L150.64 79.824ZM159.177 88.56V82.848C159.753 83.64 160.953 84.288 162.585 84.288C165.921 84.288 168.153 81.648 168.153 78.072C168.153 74.568 166.161 71.928 162.705 71.928C160.929 71.928 159.609 72.72 159.081 73.632V72.192H155.985V88.56H159.177ZM165.009 78.096C165.009 80.208 163.713 81.432 162.081 81.432C160.449 81.432 159.129 80.184 159.129 78.096C159.129 76.008 160.449 74.784 162.081 74.784C163.713 74.784 165.009 76.008 165.009 78.096ZM175.985 81.456C174.425 81.456 172.985 80.304 172.985 78.096C172.985 75.864 174.425 74.736 175.985 74.736C177.545 74.736 178.985 75.864 178.985 78.096C178.985 80.328 177.545 81.456 175.985 81.456ZM175.985 71.832C172.457 71.832 169.793 74.448 169.793 78.096C169.793 81.72 172.457 84.36 175.985 84.36C179.513 84.36 182.177 81.72 182.177 78.096C182.177 74.448 179.513 71.832 175.985 71.832ZM191.896 72.144C191.656 72.12 191.416 72.096 191.152 72.096C190.144 72.096 188.512 72.384 187.792 73.944V72.192H184.696V84H187.888V78.6C187.888 76.056 189.304 75.264 190.936 75.264C191.224 75.264 191.536 75.288 191.896 75.36V72.144ZM198.546 68.664H195.666V70.32C195.666 71.376 195.09 72.192 193.842 72.192H193.242V75.024H195.378V80.52C195.378 82.8 196.818 84.168 199.122 84.168C200.058 84.168 200.634 84 200.922 83.88V81.24C200.754 81.288 200.322 81.336 199.938 81.336C199.026 81.336 198.546 81 198.546 79.968V75.024H200.922V72.192H198.546V68.664ZM202.884 80.712C203.028 82.056 204.252 84.36 207.804 84.36C210.9 84.36 212.388 82.392 212.388 80.472C212.388 78.744 211.212 77.328 208.884 76.848L207.204 76.488C206.556 76.368 206.124 76.008 206.124 75.432C206.124 74.76 206.796 74.256 207.636 74.256C208.98 74.256 209.484 75.144 209.58 75.84L212.244 75.24C212.1 73.968 210.972 71.832 207.612 71.832C205.068 71.832 203.196 73.584 203.196 75.696C203.196 77.352 204.228 78.72 206.508 79.224L208.068 79.584C208.98 79.776 209.34 80.208 209.34 80.736C209.34 81.36 208.836 81.912 207.78 81.912C206.388 81.912 205.692 81.048 205.62 80.112L202.884 80.712Z" fill="#1E5083"/>
<circle cx="23.584" cy="16.501" r="3.5" fill="#9DBCDC"/>
<circle cx="34.584" cy="16.501" r="3.5" fill="#9DBCDC"/>
<circle cx="45.584" cy="16.501" r="3.5" fill="#9DBCDC"/>
<rect x="347.879" y="58" width="260.121" height="37" rx="3" fill="white" stroke="#D8E4F1"/>
<path d="M362.841 79.2667C363.067 79.6567 363.357 79.9471 363.712 80.1377C364.076 80.3284 364.488 80.4237 364.947 80.4237C365.233 80.4237 365.502 80.3804 365.753 80.2937C366.005 80.2071 366.221 80.0857 366.403 79.9297C366.594 79.7737 366.741 79.5874 366.845 79.3707C366.958 79.1454 367.014 78.8941 367.014 78.6167C367.014 78.2961 366.945 78.0317 366.806 77.8237C366.676 77.6157 366.499 77.4467 366.273 77.3167C366.048 77.1781 365.792 77.0611 365.506 76.9657C365.229 76.8704 364.939 76.7751 364.635 76.6797C364.341 76.5844 364.05 76.4761 363.764 76.3547C363.487 76.2334 363.236 76.0774 363.01 75.8867C362.785 75.6874 362.603 75.4404 362.464 75.1457C362.334 74.8511 362.269 74.4871 362.269 74.0537C362.269 73.6464 362.347 73.2867 362.503 72.9747C362.668 72.6541 362.885 72.3897 363.153 72.1817C363.431 71.9651 363.747 71.8047 364.102 71.7007C364.458 71.5881 364.83 71.5317 365.22 71.5317C365.723 71.5317 366.187 71.6227 366.611 71.8047C367.045 71.9781 367.417 72.2727 367.729 72.6887L366.988 73.2217C366.772 72.9184 366.516 72.6931 366.221 72.5457C365.935 72.3897 365.593 72.3117 365.194 72.3117C364.917 72.3117 364.653 72.3507 364.401 72.4287C364.15 72.4981 363.929 72.6064 363.738 72.7537C363.556 72.8924 363.409 73.0701 363.296 73.2867C363.184 73.5034 363.127 73.7591 363.127 74.0537C363.127 74.5131 363.244 74.8684 363.478 75.1197C363.712 75.3624 364.003 75.5574 364.349 75.7047C364.705 75.8434 365.086 75.9691 365.493 76.0817C365.909 76.1857 366.291 76.3287 366.637 76.5107C366.993 76.6927 367.287 76.9484 367.521 77.2777C367.755 77.5984 367.872 78.0447 367.872 78.6167C367.872 79.0327 367.794 79.4011 367.638 79.7217C367.482 80.0424 367.27 80.3154 367.001 80.5407C366.741 80.7574 366.438 80.9221 366.091 81.0347C365.745 81.1474 365.385 81.2037 365.012 81.2037C364.406 81.2037 363.847 81.0997 363.335 80.8917C362.824 80.6751 362.386 80.3154 362.022 79.8127L362.841 79.2667ZM374.901 79.8387C374.598 80.2981 374.221 80.6274 373.77 80.8267C373.328 81.0261 372.838 81.1257 372.301 81.1257C371.842 81.1257 371.426 81.0477 371.053 80.8917C370.68 80.7357 370.36 80.5191 370.091 80.2417C369.822 79.9557 369.614 79.6221 369.467 79.2407C369.328 78.8507 369.259 78.4217 369.259 77.9537C369.259 77.5031 369.333 77.0871 369.48 76.7057C369.627 76.3244 369.835 75.9951 370.104 75.7177C370.373 75.4317 370.689 75.2107 371.053 75.0547C371.417 74.8901 371.82 74.8077 372.262 74.8077C372.721 74.8077 373.124 74.8901 373.471 75.0547C373.826 75.2107 374.121 75.4231 374.355 75.6917C374.598 75.9517 374.78 76.2507 374.901 76.5887C375.022 76.9267 375.083 77.2691 375.083 77.6157V78.1617H370.039C370.039 78.3264 370.069 78.5387 370.13 78.7987C370.199 79.0501 370.321 79.2971 370.494 79.5397C370.667 79.7824 370.897 79.9904 371.183 80.1637C371.478 80.3371 371.855 80.4237 372.314 80.4237C372.713 80.4237 373.098 80.3284 373.471 80.1377C373.844 79.9471 374.13 79.6871 374.329 79.3577L374.901 79.8387ZM374.303 77.4597C374.303 77.1911 374.247 76.9397 374.134 76.7057C374.03 76.4717 373.883 76.2681 373.692 76.0947C373.51 75.9127 373.289 75.7697 373.029 75.6657C372.778 75.5617 372.509 75.5097 372.223 75.5097C371.798 75.5097 371.443 75.5964 371.157 75.7697C370.88 75.9431 370.659 76.1424 370.494 76.3677C370.329 76.5931 370.212 76.8141 370.143 77.0307C370.074 77.2387 370.039 77.3817 370.039 77.4597H374.303ZM381.488 78.4477C381.488 78.7424 381.488 79.0067 381.488 79.2407C381.496 79.4747 381.505 79.6914 381.514 79.8907C381.522 80.0901 381.531 80.2764 381.54 80.4497C381.557 80.6231 381.579 80.7964 381.605 80.9697H380.877C380.825 80.6751 380.799 80.3501 380.799 79.9947H380.773C380.547 80.3847 380.266 80.6707 379.928 80.8527C379.598 81.0347 379.178 81.1257 378.667 81.1257C378.407 81.1257 378.151 81.0911 377.9 81.0217C377.648 80.9611 377.423 80.8614 377.224 80.7227C377.024 80.5754 376.86 80.3891 376.73 80.1637C376.608 79.9384 376.548 79.6654 376.548 79.3447C376.548 78.8854 376.665 78.5214 376.899 78.2527C377.133 77.9841 377.419 77.7847 377.757 77.6547C378.103 77.5161 378.467 77.4294 378.849 77.3947C379.239 77.3514 379.581 77.3297 379.876 77.3297H380.786V76.9657C380.786 76.4457 380.625 76.0731 380.305 75.8477C379.984 75.6224 379.581 75.5097 379.096 75.5097C378.402 75.5097 377.791 75.7351 377.263 76.1857L376.808 75.6527C377.094 75.3754 377.449 75.1674 377.874 75.0287C378.298 74.8814 378.706 74.8077 379.096 74.8077C379.824 74.8077 380.404 74.9811 380.838 75.3277C381.271 75.6657 381.488 76.2161 381.488 76.9787V78.4477ZM379.928 77.9537C379.598 77.9537 379.278 77.9754 378.966 78.0187C378.662 78.0621 378.385 78.1357 378.134 78.2397C377.891 78.3437 377.696 78.4824 377.549 78.6557C377.401 78.8291 377.328 79.0457 377.328 79.3057C377.328 79.4877 377.367 79.6524 377.445 79.7997C377.531 79.9384 377.64 80.0554 377.77 80.1507C377.9 80.2374 378.043 80.3067 378.199 80.3587C378.363 80.4021 378.528 80.4237 378.693 80.4237C379.109 80.4237 379.451 80.3631 379.72 80.2417C379.988 80.1204 380.201 79.9644 380.357 79.7737C380.521 79.5744 380.634 79.3534 380.695 79.1107C380.755 78.8594 380.786 78.6081 380.786 78.3567V77.9537H379.928ZM383.562 76.6537C383.562 76.5411 383.557 76.4067 383.549 76.2507C383.54 76.0861 383.531 75.9214 383.523 75.7567C383.523 75.5921 383.518 75.4404 383.51 75.3017C383.501 75.1544 383.497 75.0417 383.497 74.9637H384.277C384.285 75.1891 384.29 75.4057 384.29 75.6137C384.298 75.8217 384.311 75.9561 384.329 76.0167C384.528 75.6614 384.784 75.3711 385.096 75.1457C385.408 74.9204 385.789 74.8077 386.24 74.8077C386.318 74.8077 386.391 74.8164 386.461 74.8337C386.539 74.8424 386.617 74.8554 386.695 74.8727L386.604 75.6397C386.5 75.6051 386.4 75.5877 386.305 75.5877C385.967 75.5877 385.672 75.6441 385.421 75.7567C385.178 75.8607 384.974 76.0081 384.81 76.1987C384.654 76.3894 384.537 76.6147 384.459 76.8747C384.381 77.1261 384.342 77.3991 384.342 77.6937V80.9697H383.562V76.6537ZM392.693 80.0857C392.399 80.4411 392.065 80.7054 391.692 80.8787C391.32 81.0434 390.917 81.1257 390.483 81.1257C390.024 81.1257 389.599 81.0477 389.209 80.8917C388.819 80.7357 388.486 80.5191 388.208 80.2417C387.931 79.9557 387.714 79.6221 387.558 79.2407C387.402 78.8507 387.324 78.4261 387.324 77.9667C387.324 77.5074 387.402 77.0871 387.558 76.7057C387.714 76.3157 387.931 75.9821 388.208 75.7047C388.486 75.4187 388.819 75.1977 389.209 75.0417C389.599 74.8857 390.024 74.8077 390.483 74.8077C390.925 74.8077 391.333 74.8987 391.705 75.0807C392.087 75.2627 392.425 75.5184 392.719 75.8477L392.095 76.3157C391.87 76.0644 391.623 75.8694 391.354 75.7307C391.086 75.5834 390.795 75.5097 390.483 75.5097C390.119 75.5097 389.79 75.5747 389.495 75.7047C389.201 75.8347 388.949 76.0124 388.741 76.2377C388.533 76.4544 388.373 76.7144 388.26 77.0177C388.156 77.3124 388.104 77.6287 388.104 77.9667C388.104 78.3047 388.156 78.6254 388.26 78.9287C388.373 79.2234 388.533 79.4834 388.741 79.7087C388.949 79.9254 389.201 80.0987 389.495 80.2287C389.79 80.3587 390.119 80.4237 390.483 80.4237C390.813 80.4237 391.112 80.3501 391.38 80.2027C391.658 80.0467 391.896 79.8431 392.095 79.5917L392.693 80.0857ZM393.921 71.1417H394.701V76.0167H394.727C394.883 75.6874 395.143 75.4057 395.507 75.1717C395.871 74.9291 396.296 74.8077 396.781 74.8077C397.249 74.8077 397.631 74.8814 397.925 75.0287C398.22 75.1761 398.45 75.3711 398.614 75.6137C398.788 75.8477 398.905 76.1207 398.965 76.4327C399.035 76.7447 399.069 77.0654 399.069 77.3947V80.9697H398.289V77.4337C398.289 77.1911 398.268 76.9571 398.224 76.7317C398.181 76.4977 398.103 76.2897 397.99 76.1077C397.886 75.9257 397.735 75.7827 397.535 75.6787C397.345 75.5661 397.093 75.5097 396.781 75.5097C396.495 75.5097 396.222 75.5617 395.962 75.6657C395.711 75.7611 395.49 75.9127 395.299 76.1207C395.117 76.3201 394.97 76.5757 394.857 76.8877C394.753 77.1911 394.701 77.5507 394.701 77.9667V80.9697H393.921V71.1417Z" fill="#AAAAAA"/>
<path d="M590.868 78.6684H590.109L589.839 78.4088C590.782 77.3126 591.349 75.8894 591.349 74.3413C591.349 70.8892 588.551 68.0909 585.099 68.0909C581.647 68.0909 578.848 70.8892 578.848 74.3413C578.848 77.7934 581.647 80.5916 585.099 80.5916C586.647 80.5916 588.07 80.0243 589.166 79.0819L589.426 79.3511V80.1108L594.234 84.9091L595.667 83.4764L590.868 78.6684ZM585.099 78.6684C582.704 78.6684 580.772 76.7356 580.772 74.3413C580.772 71.9469 582.704 70.0141 585.099 70.0141C587.493 70.0141 589.426 71.9469 589.426 74.3413C589.426 76.7356 587.493 78.6684 585.099 78.6684Z" fill="#9DBCDC"/>
<defs>
<filter id="filter0_d" x="46" y="126" width="169" height="168" filterUnits="userSpaceOnUse" color-interpolation-filters="sRGB">
<feFlood flood-opacity="0" result="BackgroundImageFix"/>
<feColorMatrix in="SourceAlpha" type="matrix" values="0 0 0 0 0 0 0 0 0 0 0 0 0 0 0 0 0 0 127 0"/>
<feOffset dy="3"/>
<feGaussianBlur stdDeviation="3.5"/>
<feColorMatrix type="matrix" values="0 0 0 0 0.0745098 0 0 0 0 0.196078 0 0 0 0 0.321569 0 0 0 0.07 0"/>
<feBlend mode="normal" in2="BackgroundImageFix" result="effect1_dropShadow"/>
<feBlend mode="normal" in="SourceGraphic" in2="effect1_dropShadow" result="shape"/>
</filter>
<filter id="filter1_d" x="246" y="126" width="169" height="168" filterUnits="userSpaceOnUse" color-interpolation-filters="sRGB">
<feFlood flood-opacity="0" result="BackgroundImageFix"/>
<feColorMatrix in="SourceAlpha" type="matrix" values="0 0 0 0 0 0 0 0 0 0 0 0 0 0 0 0 0 0 127 0"/>
<feOffset dy="3"/>
<feGaussianBlur stdDeviation="3.5"/>
<feColorMatrix type="matrix" values="0 0 0 0 0.0745098 0 0 0 0 0.196078 0 0 0 0 0.321569 0 0 0 0.07 0"/>
<feBlend mode="normal" in2="BackgroundImageFix" result="effect1_dropShadow"/>
<feBlend mode="normal" in="SourceGraphic" in2="effect1_dropShadow" result="shape"/>
</filter>
<filter id="filter2_d" x="446" y="126" width="169" height="168" filterUnits="userSpaceOnUse" color-interpolation-filters="sRGB">
<feFlood flood-opacity="0" result="BackgroundImageFix"/>
<feColorMatrix in="SourceAlpha" type="matrix" values="0 0 0 0 0 0 0 0 0 0 0 0 0 0 0 0 0 0 127 0"/>
<feOffset dy="3"/>
<feGaussianBlur stdDeviation="3.5"/>
<feColorMatrix type="matrix" values="0 0 0 0 0.0745098 0 0 0 0 0.196078 0 0 0 0 0.321569 0 0 0 0.07 0"/>
<feBlend mode="normal" in2="BackgroundImageFix" result="effect1_dropShadow"/>
<feBlend mode="normal" in="SourceGraphic" in2="effect1_dropShadow" result="shape"/>
</filter>
<filter id="filter3_d" x="46" y="329" width="169" height="150" filterUnits="userSpaceOnUse" color-interpolation-filters="sRGB">
<feFlood flood-opacity="0" result="BackgroundImageFix"/>
<feColorMatrix in="SourceAlpha" type="matrix" values="0 0 0 0 0 0 0 0 0 0 0 0 0 0 0 0 0 0 127 0"/>
<feOffset dy="3"/>
<feGaussianBlur stdDeviation="3.5"/>
<feColorMatrix type="matrix" values="0 0 0 0 0.0745098 0 0 0 0 0.196078 0 0 0 0 0.321569 0 0 0 0.07 0"/>
<feBlend mode="normal" in2="BackgroundImageFix" result="effect1_dropShadow"/>
<feBlend mode="normal" in="SourceGraphic" in2="effect1_dropShadow" result="shape"/>
</filter>
<filter id="filter4_d" x="246" y="329" width="169" height="150" filterUnits="userSpaceOnUse" color-interpolation-filters="sRGB">
<feFlood flood-opacity="0" result="BackgroundImageFix"/>
<feColorMatrix in="SourceAlpha" type="matrix" values="0 0 0 0 0 0 0 0 0 0 0 0 0 0 0 0 0 0 127 0"/>
<feOffset dy="3"/>
<feGaussianBlur stdDeviation="3.5"/>
<feColorMatrix type="matrix" values="0 0 0 0 0.0745098 0 0 0 0 0.196078 0 0 0 0 0.321569 0 0 0 0.07 0"/>
<feBlend mode="normal" in2="BackgroundImageFix" result="effect1_dropShadow"/>
<feBlend mode="normal" in="SourceGraphic" in2="effect1_dropShadow" result="shape"/>
</filter>
<filter id="filter5_d" x="446" y="329" width="169" height="150" filterUnits="userSpaceOnUse" color-interpolation-filters="sRGB">
<feFlood flood-opacity="0" result="BackgroundImageFix"/>
<feColorMatrix in="SourceAlpha" type="matrix" values="0 0 0 0 0 0 0 0 0 0 0 0 0 0 0 0 0 0 127 0"/>
<feOffset dy="3"/>
<feGaussianBlur stdDeviation="3.5"/>
<feColorMatrix type="matrix" values="0 0 0 0 0.0745098 0 0 0 0 0.196078 0 0 0 0 0.321569 0 0 0 0.07 0"/>
<feBlend mode="normal" in2="BackgroundImageFix" result="effect1_dropShadow"/>
<feBlend mode="normal" in="SourceGraphic" in2="effect1_dropShadow" result="shape"/>
</filter>
<clipPath id="clip0">
<rect width="555" height="126" fill="white" transform="matrix(-1 0 0 1 608 333)"/>
</clipPath>
</defs>
</svg>
