<svg width="56" height="56" viewBox="0 0 56 56" fill="none" xmlns="http://www.w3.org/2000/svg">
<rect width="56" height="56" rx="3" fill="#F4F7FB"/>
<path d="M20.6172 35.4375V14C18.8076 14 17.3359 15.4716 17.3359 17.2812V36.2787C18.0236 35.7581 18.87 35.4375 19.7969 35.4375H20.6172Z" fill="#296DB3"/>
<path d="M26.3594 19.7422H34.5625V23.0781H26.3594V19.7422Z" fill="#296DB3"/>
<path d="M22.2578 35.4375H38.6641V14H22.2578V35.4375ZM34.5625 31.2812H26.3594V29.6406H34.5625V31.2812ZM24.7188 18.1016H36.2031V24.7188H24.7188V18.1016ZM24.7188 26.3594H36.2031V28H24.7188V26.3594Z" fill="#296DB3"/>
<path d="M19.7969 42H38.6641V37.0781H19.7969C18.4378 37.0781 17.3359 38.18 17.3359 39.5391C17.3359 40.8981 18.4378 42 19.7969 42Z" fill="#296DB3"/>
</svg>
