<svg width="28" height="22" viewBox="0 0 28 22" fill="none" xmlns="http://www.w3.org/2000/svg">
<path d="M26.7695 3.28125C26.09 3.28125 25.5391 3.83212 25.5391 4.51172V14.7656H21.4375V18.0469C21.4375 19.8591 22.9066 21.3281 24.7188 21.3281C26.5309 21.3281 28 19.8591 28 18.0469V4.51172C28 3.83212 27.4491 3.28125 26.7695 3.28125Z" fill="#296DB3"/>
<path d="M24.1864 3.28125H21.4375V13.125H23.8984V4.51172C23.8984 4.06973 24.0072 3.65564 24.1864 3.28125Z" fill="#296DB3"/>
<path d="M4.15625 13.125H5.79688V9.84375H7.4375V13.125H9.07812V11.4844H10.7188V13.125H12.3594V9.84375H14V13.125H15.6406V8.20312H4.15625V13.125Z" fill="#296DB3"/>
<path d="M4.15625 21.3281H21.077C20.2899 20.4554 19.7969 19.312 19.7969 18.0469V0H0V17.2266C0 19.4881 1.89476 21.3281 4.15625 21.3281ZM2.51562 3.28125H17.2812V4.92188H2.51562V3.28125ZM2.51562 6.5625H17.2812V14.7656H2.51562V6.5625ZM2.51562 16.4062H17.2812V18.0469H2.51562V16.4062Z" fill="#296DB3"/>
</svg>
