<svg width="56" height="56" viewBox="0 0 56 56" fill="none" xmlns="http://www.w3.org/2000/svg">
<rect width="56" height="56" rx="3" fill="#F4F7FB"/>
<path d="M37.1523 31.6953C33.7603 31.6953 31 34.4556 31 37.8477C31 41.1778 33.6915 44 37.1523 44C40.5444 44 43.3047 41.2397 43.3047 37.8477C43.3047 34.4556 40.5444 31.6953 37.1523 31.6953ZM39.5315 37.1507L36.8948 39.7874C36.5515 40.1307 35.9954 40.1308 35.652 39.7874L34.3336 38.469C33.9903 38.1257 33.9903 37.5695 34.3336 37.2262C34.6769 36.8829 35.2332 36.8829 35.5765 37.2262L36.2734 37.9232L38.2888 35.9079C38.6321 35.5646 39.1883 35.5646 39.5316 35.9079C39.8749 36.2512 39.8749 36.8074 39.5315 37.1507Z" fill="#296DB3"/>
<path d="M37.1523 14H19.5742C19.0884 14 18.6953 14.3931 18.6953 14.8789V39.6055C18.6953 40.0913 19.0884 40.4844 19.5742 40.4844H29.712C29.7088 40.4752 29.7037 40.467 29.7005 40.4578C29.4053 39.7024 29.2422 38.8004 29.2422 37.8477C29.2422 33.4858 32.7904 29.9375 37.1523 29.9375C37.4533 29.9375 37.7389 29.9934 38.0312 30.0263V14.8789C38.0312 14.3931 37.6381 14 37.1523 14ZM23.0898 31.6953C22.6045 31.6953 22.2109 31.3018 22.2109 30.8164C22.2109 30.3309 22.6045 29.9375 23.0898 29.9375C23.5752 29.9375 23.9688 30.3309 23.9688 30.8164C23.9688 31.3018 23.5752 31.6953 23.0898 31.6953ZM23.0898 28.1797C22.6045 28.1797 22.2109 27.7862 22.2109 27.3008C22.2109 26.8153 22.6045 26.4219 23.0898 26.4219C23.5752 26.4219 23.9688 26.8153 23.9688 27.3008C23.9688 27.7862 23.5752 28.1797 23.0898 28.1797ZM23.0898 24.6641C22.6045 24.6641 22.2109 24.2705 22.2109 23.7852C22.2109 23.2996 22.6045 22.9062 23.0898 22.9062C23.5752 22.9062 23.9688 23.2996 23.9688 23.7852C23.9688 24.2705 23.5752 24.6641 23.0898 24.6641ZM23.0898 21.1484C22.6045 21.1484 22.2109 20.7549 22.2109 20.2695C22.2109 19.784 22.6045 19.3906 23.0898 19.3906C23.5752 19.3906 23.9688 19.784 23.9688 20.2695C23.9688 20.7549 23.5752 21.1484 23.0898 21.1484ZM30.1211 31.6953H26.6055C26.1197 31.6953 25.7266 31.3022 25.7266 30.8164C25.7266 30.3306 26.1197 29.9375 26.6055 29.9375H30.1211C30.6069 29.9375 31 30.3306 31 30.8164C31 31.3022 30.6069 31.6953 30.1211 31.6953ZM33.6367 28.1797H26.6055C26.1197 28.1797 25.7266 27.7866 25.7266 27.3008C25.7266 26.815 26.1197 26.4219 26.6055 26.4219H33.6367C34.1225 26.4219 34.5156 26.815 34.5156 27.3008C34.5156 27.7866 34.1225 28.1797 33.6367 28.1797ZM33.6367 24.6641H26.6055C26.1197 24.6641 25.7266 24.271 25.7266 23.7852C25.7266 23.2994 26.1197 22.9062 26.6055 22.9062H33.6367C34.1225 22.9062 34.5156 23.2994 34.5156 23.7852C34.5156 24.271 34.1225 24.6641 33.6367 24.6641ZM33.6367 21.1484H26.6055C26.1197 21.1484 25.7266 20.7553 25.7266 20.2695C25.7266 19.7837 26.1197 19.3906 26.6055 19.3906H33.6367C34.1225 19.3906 34.5156 19.7837 34.5156 20.2695C34.5156 20.7553 34.1225 21.1484 33.6367 21.1484Z" fill="#296DB3"/>
</svg>
