<?xml version="1.0" encoding="utf-8"?>
<!-- Generator: Adobe Illustrator 24.0.1, SVG Export Plug-In . SVG Version: 6.00 Build 0)  -->
<svg version="1.1" id="Layer_1" xmlns="http://www.w3.org/2000/svg" xmlns:xlink="http://www.w3.org/1999/xlink" x="0px" y="0px"
	 viewBox="0 0 823 480.3" style="enable-background:new 0 0 823 480.3;" xml:space="preserve">
<style type="text/css">
	.st0{fill:#F5F5F5;stroke:#DDDDDD;}
	.st1{fill:#FFFFFF;}
	.st2{fill:#DDDDDD;}
</style>
<g>
	<path class="st0" d="M9.5,0h804c5.2,0,9.5,4.3,9.5,9.5v461.3c0,5.2-4.3,9.5-9.5,9.5H9.5c-5.2,0-9.5-4.3-9.5-9.5V9.5
		C0,4.3,4.3,0,9.5,0z"/>
	<path class="st1" d="M51,57.9h592.2c2.8,0,5,2.2,5,5v101.9c0,2.8-2.2,5-5,5H51c-2.8,0-5-2.2-5-5V62.9C46,60.2,48.3,57.9,51,57.9z"
		/>
	<path class="st1" d="M673,57.9h94c2.8,0,5,2.2,5,5v101.9c0,2.8-2.2,5-5,5h-94c-2.8,0-5-2.2-5-5V62.9C668,60.2,670.2,57.9,673,57.9z
		"/>
	<path class="st1" d="M51,191.6h94c2.8,0,5,2.2,5,5v101.9c0,2.8-2.2,5-5,5H51c-2.8,0-5-2.2-5-5V196.6C46,193.9,48.3,191.6,51,191.6z
		"/>
	<path class="st1" d="M299.6,191.6h94c2.8,0,5,2.2,5,5v101.9c0,2.8-2.2,5-5,5h-94c-2.8,0-5-2.2-5-5V196.6
		C294.6,193.9,296.9,191.6,299.6,191.6z"/>
	<path class="st1" d="M549.2,191.6h94c2.8,0,5,2.2,5,5v101.9c0,2.8-2.2,5-5,5h-94c-2.8,0-5-2.2-5-5V196.6
		C544.2,193.9,546.5,191.6,549.2,191.6z"/>
	<path class="st1" d="M174.8,191.6h94c2.8,0,5,2.2,5,5v101.9c0,2.8-2.2,5-5,5h-94c-2.8,0-5-2.2-5-5V196.6
		C169.8,193.9,172.1,191.6,174.8,191.6z"/>
	<path class="st1" d="M424.4,191.6h94c2.8,0,5,2.2,5,5v101.9c0,2.8-2.2,5-5,5h-94c-2.8,0-5-2.2-5-5V196.6
		C419.4,193.9,421.7,191.6,424.4,191.6z"/>
	<path class="st1" d="M673,191.6h94c2.8,0,5,2.2,5,5v101.9c0,2.8-2.2,5-5,5h-94c-2.8,0-5-2.2-5-5V196.6
		C668,193.9,670.2,191.6,673,191.6z"/>
	<path class="st1" d="M51,321.4h94c2.8,0,5,2.2,5,5v101.9c0,2.8-2.2,5-5,5H51c-2.8,0-5-2.2-5-5V326.4C46,323.6,48.3,321.4,51,321.4z
		"/>
	<path class="st1" d="M299.6,321.4h94c2.8,0,5,2.2,5,5v101.9c0,2.8-2.2,5-5,5h-94c-2.8,0-5-2.2-5-5V326.4
		C294.6,323.6,296.9,321.4,299.6,321.4z"/>
	<path class="st1" d="M549.2,321.4h94c2.8,0,5,2.2,5,5v101.9c0,2.8-2.2,5-5,5h-94c-2.8,0-5-2.2-5-5V326.4
		C544.2,323.6,546.5,321.4,549.2,321.4z"/>
	<path class="st1" d="M174.8,321.4h94c2.8,0,5,2.2,5,5v101.9c0,2.8-2.2,5-5,5h-94c-2.8,0-5-2.2-5-5V326.4
		C169.8,323.6,172.1,321.4,174.8,321.4z"/>
	<path class="st1" d="M424.4,321.4h94c2.8,0,5,2.2,5,5v101.9c0,2.8-2.2,5-5,5h-94c-2.8,0-5-2.2-5-5V326.4
		C419.4,323.6,421.7,321.4,424.4,321.4z"/>
	<path class="st1" d="M673,321.4h94c2.8,0,5,2.2,5,5v101.9c0,2.8-2.2,5-5,5h-94c-2.8,0-5-2.2-5-5V326.4
		C668,323.6,670.2,321.4,673,321.4z"/>
	<circle class="st2" cx="26.2" cy="24.3" r="5"/>
	<circle class="st2" cx="41.1" cy="24.3" r="5"/>
	<circle class="st2" cx="56" cy="24.3" r="5"/>
</g>
</svg>
