<svg width="56" height="56" viewBox="0 0 56 56" fill="none" xmlns="http://www.w3.org/2000/svg">
<rect width="56" height="56" rx="3" fill="#F4F7FB"/>
<g clip-path="url(#clip0)">
<path d="M37.5057 18.2113H41.155L36.8873 13.8352V17.6127C36.8873 17.9348 37.1833 18.2113 37.5057 18.2113Z" fill="#296DB3"/>
<path d="M21.2535 36.4932V17.9297H17.6254C16.758 17.9412 16.0568 18.64 16.0422 19.507V41.4415C16.0422 42.2959 16.7712 43.0001 17.6254 43.0001H34.0366C34.8907 43.0001 35.6197 42.2959 35.6197 41.4415V39.1973H23.9634C22.4878 39.1973 21.2535 37.9685 21.2535 36.4932Z" fill="#296DB3"/>
<path fill-rule="evenodd" clip-rule="evenodd" d="M35.7606 13V17.6127C35.7606 18.5562 36.5622 19.338 37.5057 19.338H41.9577V36.4931C41.9432 37.3601 41.242 38.0589 40.3746 38.0704H23.9634C23.0961 38.0589 22.3949 37.3601 22.3803 36.4931V14.5586C22.3803 13.7042 23.1093 13 23.9634 13H35.7606ZM33.2958 30.6761H25.3859C25.0748 30.6761 24.8225 30.9283 24.8225 31.2394C24.8225 31.5506 25.0748 31.8028 25.3859 31.8028H33.2958C33.6069 31.8028 33.8591 31.5506 33.8591 31.2394C33.8591 30.9283 33.6069 30.6761 33.2958 30.6761ZM38.5986 34.9014C38.9098 34.9014 39.162 34.6492 39.162 34.338C39.162 34.0269 38.9098 33.7746 38.5986 33.7746H25.3859C25.0748 33.7746 24.8225 34.0269 24.8225 34.338C24.8225 34.6492 25.0748 34.9014 25.3859 34.9014H38.5986Z" fill="#296DB3"/>
<path d="M29.5942 20.7857C29.5942 21.2197 29.2373 21.5714 28.7971 21.5714C28.3569 21.5714 28 21.2197 28 20.7857C28 20.3518 28.3569 20 28.7971 20C29.2373 20 29.5942 20.3518 29.5942 20.7857Z" fill="white"/>
<path d="M33 24.2143C33 24.6482 32.6431 25 32.2029 25C31.7627 25 31.4058 24.6482 31.4058 24.2143C31.4058 23.7803 31.7627 23.4286 32.2029 23.4286C32.6431 23.4286 33 23.7803 33 24.2143Z" fill="white"/>
<path d="M28.2774 24.7657C27.9738 24.4696 27.9712 23.987 28.2716 23.6878L31.6595 20.313C31.9599 20.0138 32.4495 20.0112 32.7531 20.3073C33.0566 20.6034 33.0592 21.086 32.7588 21.3853L29.3709 24.7601C29.0705 25.0593 28.5809 25.0618 28.2774 24.7657Z" fill="white"/>
</g>
<defs>
<clipPath id="clip0">
<rect width="30" height="30" fill="white" transform="translate(14 13)"/>
</clipPath>
</defs>
</svg>
