<?xml version="1.0" encoding="utf-8"?>
<!-- Generator: Adobe Illustrator 24.0.1, SVG Export Plug-In . SVG Version: 6.00 Build 0)  -->
<svg version="1.1" id="Layer_1" xmlns="http://www.w3.org/2000/svg" xmlns:xlink="http://www.w3.org/1999/xlink" x="0px" y="0px"
	 viewBox="0 0 620.5 415" style="enable-background:new 0 0 620.5 415;" xml:space="preserve">
<style type="text/css">
	.st0{opacity:0.5;}
	.st1{fill:#D8E4F1;}
	.st2{fill:#C69076;}
	.st3{fill:#1E5083;}
	.st4{fill:#A37661;}
	.st5{fill:#373348;}
	.st6{fill-rule:evenodd;clip-rule:evenodd;fill:#202020;}
	.st7{fill:#9DBCDC;}
	.st8{fill:#7E99B6;}
	.st9{fill:#FFFFFF;}
	.st10{fill:#133252;}
	.st11{fill:#E1E9F3;}
	.st12{fill:#202020;}
	.st13{fill:#333333;}
</style>
<g>
	<g class="st0">
		<path class="st1" d="M361.9,110.1c1.9-9.6,15-10.6,24.7-9.2c45,6.4,95.8,19.3,139.9,30.3c26.2,6.8,51.8,15.8,76.6,26.9
			c7.4,3.3,16.2,10.4,12.6,17.8c-2.6,5.3-9.8,5.9-15.7,5.6c-61.8-2.5-123.3-13.7-182.2-33c-16.6-5.5-33.2-11.7-47-22.4
			C365.7,122.1,360.6,116.4,361.9,110.1z"/>
		<path class="st1" d="M620.5,241.1V405c0,5.5-4.5,10-10,10H92.1c5.2-14.2,13.4-30.9,22.1-55.8c4.8-13.6,7.6-27.7,7-42
			c-1.8-40.4-30.5-75.7-33-116.1c-2.2-35.3,19.8-72.3,53.7-82.5c12.7-3.8,26.3-3.9,39.5-2.5c30.7,3.3,59.9,14.1,88.8,25.5
			c1.1,0.4,2.2,0.9,3.3,1.3c9,3.5,18,7.1,27,10.5c0.2,0.1,0.5,0.2,0.7,0.3c5.8,2.2,11.6,4.3,17.5,6.3c0.9,0.3,1.8,0.6,2.7,0.9
			c10.8,3.7,21.7,7.1,32.6,10.2c10.7,3.1,21.5,5.9,32.3,8.5c2.3,0.5,4.6,1.1,6.9,1.6c5.8,1.3,11.6,2.6,17.4,3.7
			c3.6,0.7,7.2,1.4,10.9,2.1h0c15.7,2.9,31.4,5.3,47.2,7.2c5.8,0.7,11.5,1.3,17.3,1.9c11.6,1.2,23.3,2.4,34.9,4
			c1,0.1,2.1,0.3,3.1,0.5c7.5,1.1,14.9,2.4,22.2,4c2,0.5,4,0.9,6,1.4c0.1,0,0.2,0,0.3,0.1c0.3,0.1,0.6,0.1,0.9,0.2
			c1.1,0.3,2.2,0.6,3.3,0.9c8.3,2.3,16.4,5,24.3,8.5C595.3,222,608.7,230.6,620.5,241.1z"/>
		<path class="st1" d="M5.6,281.1c1.9-7.3,4.5-14.7,9.7-20.1c9.9-10.3,27.4-10.4,39.6-2.9c12.2,7.5,19.7,20.8,24.1,34.4
			c4.6,21.8,4.8,37.5-0.4,61.1c-2.5,11.5-6.8,23-15,31.5c-8.2,8.5-21,13.2-32.1,9.4c-10.6-3.6-17.5-13.9-22-24.2
			C-2.6,342.5-2.3,310.4,5.6,281.1z"/>
	</g>
	<path class="st2" d="M309.8,243.5l-67.1-1.3l3.4,23.3l78.8,10.2l3.9-17L309.8,243.5z"/>
	<path class="st3" d="M244.4,333.3c0,0,17.9-9.2,27.2-9.6c9.3-0.5,24.7,4.9,24.7,4.9l1.5,6.4L244.4,333.3z"/>
	<path class="st4" d="M373.9,410.4c0,0-3.9,2-10.7,4.6h-131c-19.2-15.3,11.4-35.8,31-46.4c0.6-0.3,1.3-0.7,1.9-1
		c7.2-3.8,12.4-6.1,12.4-6.1l54.1,21.7l8.6,3.5l21.6,8.7L373.9,410.4z"/>
	<path class="st4" d="M274.1,408.6c0,0,0.4,2.3,0.6,6.4h-61.1c1.1-18.8,0.9-30.7,0.9-30.7l10.5-16.8l22-7.7l16.1,8.8l1.8,1l9.8,5.4
		l-0.5,25l0,1.9L274.1,408.6z"/>
	<path class="st5" d="M332.6,128.2c-2.1,3.2-3.9,6.5-5.7,9.9c-1.7,3.4-3.3,6.9-4.7,10.4c-1.4,3.6-2.6,7.2-3.6,10.9
		c-1,3.7-1.7,7.5-2,11.4c-0.8,7.7,0,15.9,3.3,23.4c1.6,3.7,4,7.2,6.6,10.3l2.1,2.2c0.7,0.7,1.5,1.4,2.3,2l1.2,1l1.2,0.9l2.5,1.8
		l3.8-6.3l-2.2-1.4l-1.1-0.7l-1-0.8c-0.7-0.5-1.4-1-2.1-1.6l-1.9-1.7c-2.5-2.4-4.7-5.2-6.3-8.2c-3.3-6.2-4.7-13.5-4.6-20.8
		c0.1-3.7,0.4-7.4,1.1-11c0.7-3.7,1.5-7.3,2.6-10.9s2.4-7.1,3.8-10.6C329.2,135,330.8,131.6,332.6,128.2z"/>
	<path class="st5" d="M469.9,137c8.4,2.2,16.2,6.1,23.2,11.1c6.9,5.1,13,11.3,17.6,18.5c2.3,3.6,4.3,7.4,5.8,11.4
		c1.5,4,2.7,8.1,3.4,12.2c1.5,8.3,1.1,16.9-1.1,25c-2.2,8.1-6.3,15.6-12,21.6c-1.4,1.5-2.9,2.9-4.5,4.3l-2.5,1.9
		c-0.4,0.3-0.8,0.7-1.2,0.9l-1.3,0.9l-1.3,0.9c-0.4,0.3-0.9,0.6-1.3,0.8l-2.7,1.6c-0.9,0.5-1.8,1-2.8,1.4l-1.4,0.7l-1.4,0.6
		c-15.2,6.8-32.7,8.3-48.7,4.4l-1.6,7.2c4.5,0.9,9,1.4,13.5,1.6c4.5,0.1,9,0,13.5-0.6c8.9-1.1,17.7-3.6,25.7-7.6l1.5-0.7l1.5-0.8
		c1-0.6,2-1.1,2.9-1.7l2.8-1.8c0.5-0.3,0.9-0.6,1.4-1l1.4-1l1.3-1c0.5-0.3,0.9-0.7,1.3-1.1l2.6-2.2c1.6-1.5,3.3-3.1,4.7-4.8
		c5.9-6.8,10.1-15.1,12.1-23.8c2-8.7,2-17.8,0.2-26.4c-0.9-4.3-2.2-8.6-4-12.6c-1.7-4-3.9-7.9-6.4-11.5c-5-7.2-11.4-13.3-18.6-18.2
		C486.4,142.5,478.4,138.9,469.9,137z"/>
	<path class="st6" d="M349.1,26.3c0.6,0.1,1.2,0.1,1.8,0.1c6.3,0.5,12.7,0.5,19,0.3l0,0.3c-3.2,0.4-6.3,0.6-9.5,0.8
		c-3.2,0.2-6.4,0.3-9.6,0.2c-2.1,0-4.2-0.2-6.3-0.3c-1.1-0.1-2.2-0.1-3.3-0.2c-3.2-0.2-6.3-0.3-9.5-0.3c-3.2,0-6.3,0.2-9.4,0.6
		c-3.1,0.4-6.1,0.8-9.1,1.5c-3,0.6-5.9,1.6-8.7,2.8c-2.8,1.3-5.3,3-7.7,5.2l-0.1-0.1c-16.9,22.9,31.2,73.2,31.2,73.2
		c-69.2,79.7,2.3,107.6,2.3,107.6s68.9,32.9,80.7,50.5c7.1,10.7,25.5,13.7,37.1,14.9c23.3,2.3,47.5-3.8,65.7-18.9
		c38.1-31.6,48.4-95.8,3.2-125.9c-1.6-1-26.8-13.1-26.9-12.5c3.3-41.1,1.5-100.9-52.9-120.8C387.3-12.9,354.3,20.5,349.1,26.3z"/>
	<path class="st2" d="M348.5,415h-50.3c-7.9-4.2-16.1-9.2-23.9-15c-4.7-3.5-9.2-7.2-13.6-11.3c0,0,0,0.2,0,0.5
		c0,2.2-0.7,11.3-12.3,25.8H177c12.8-15.8,24.7-32.9,33.7-50.5c7.4-14.4,19.5-25.2,33.7-31.2c0.5-0.2,1-0.4,1.6-0.6l0,0
		c11.8-4.6,24.9-5.9,37.9-3.2c0.6,0.1,1.3,0.3,1.9,0.4c0,0,0,0,0,0c0,0,0,0,0,0c4.1,0.9,8,2.3,11.7,4.1
		c22.3,10.8,35.6,35.1,42.6,52.7c4.6,11.5,6.5,20.1,6.5,20.1L348.5,415z"/>
	<path class="st7" d="M333.5,260.6l-14.1,51.6l57.8,2.7l18.2,1.3l17.7,1.3l0.5-2.7l0.4-2.1l4.7-25.7l48.3,21.4
		c0,0,34-114.3,11.3-134.6c-10.3-9.2-22.3-15.8-32.5-20.3c-12.3-5.4-21.8-7.7-21.8-7.7l-19.3,2.8c-3.5,0.3-6.9,0.9-10.2,1.7
		c-58.8,13.3-86.3,86.1-86.3,86.1L333.5,260.6z"/>
	<path class="st8" d="M346.9,270.3c8.4,12.5,24.9,36.6,30.3,44.5l18.2,1.3l18.2-1.4l0.4-2.1l-12.4-11.8l-26.8-22.2
		C374.8,278.6,336.7,255.2,346.9,270.3z"/>
	<path class="st9" d="M386.6,209.3c26.7-4.8,50-40,59.3-55.9c-12.3-5.4-21.8-7.7-21.8-7.7l-19.3,2.8c-3.5,0.3-6.9,0.9-10.2,1.7
		C381.2,174.7,386.6,209.3,386.6,209.3z"/>
	<path class="st2" d="M391.5,196.2c8.8,2.1,27.8-20.2,31-25.5c9-14.7,6.3-27.9-3.3-42.6c-5.1-7.8-5.1-7.8-8.5-14.6
		c-1.7-3.5-3.6-6.2-5.8-6.9c-0.6-0.2-1.1-0.3-1.7-0.3c-1.9,0-3.8,0.7-5.7,2c-6.2,4.2-12.4,13.7-16.1,19.6
		c5.5,6.3,11.1,13.8,14.5,21.9c1.3,3.1,2.3,6.3,2.8,9.6C399.9,167,385.8,194.9,391.5,196.2z"/>
	<path class="st10" d="M392.8,298.2l-105.3-6.7l2.8,11.3L392.8,298.2z"/>
	<path class="st1" d="M184.9,306.6l113.9-0.7l-51.5-146l-114,0.2L184.9,306.6z"/>
	<path class="st9" d="M181.1,314.2l113.9-0.7l-51.5-146l-114,0.2L181.1,314.2z"/>
	<path class="st3" d="M475.2,400.1c-1.3,5.7-3.7,10.6-6.9,14.9H332.7c-0.9-5.7-1.2-12.9-0.7-22.2c0.2-3.3,0-6.5-0.5-9.6
		c-3.3-20.3-20.2-37.8-36.8-48.3c-3-1.9-5.9-3.6-8.8-5c0,0,0,0,0,0c-5.5-2.7-10.7-4.6-14.9-5.4l2.7-0.9h0l16.7-5.6l0.5-0.2l22.6-7.5
		l6-2l1,0.1h0l7,0.5l17.7,1.4l30.7,2.4l22.1,1.7h0l3.2,0.3h0l2.5,0.2l0.4,0l2.9,0.2h0.1l5.8,0.5l0.5,0.2l20.6,6.2h0l14.5,4.4
		l1.8,0.5c0,0,0.7,0.4,1.8,1.3c2,1.5,5.5,4.3,9.2,8.5c5.1,5.8,10.7,14.1,13.8,25.3C478,372.3,478.8,384.9,475.2,400.1z"/>
	<path class="st10" d="M475.2,400.1c-2.2,5.6-4.9,10.5-8,14.9h-172c-8.1-4.3-15.2-8.8-21-13.1c-6-4.5-10.7-8.8-13.5-12.6
		c-0.1-0.1-0.2-0.3-0.3-0.4c0,0,3.7-8,4.5-19.3c0-0.7,0.1-1.3,0.1-2c0.1-3.9-0.1-8.2-1-12.6c-3.4-16.9-17.3-21.2-19.1-21.7
		c0,0,0,0,0,0c-0.1,0-0.2,0-0.2,0l1.3-0.6l0,0l9.2-4.3l0.1,0l0,0l7.5-3.5l27.6-6.7l0.7-0.2l28.7-7l2-0.5l5.6-1.4
		c2,0.4,3.9,0.8,5.7,1.4c2.4,0.7,4.7,1.6,6.8,2.7c2.8,1.4,5.3,3,7.5,4.8c26.9,22,18,73.5,60.5,84.4c41.1,10.6,60.9-25.1,67.3-40.3
		C478,372.3,478.8,384.9,475.2,400.1z"/>
	<path class="st1" d="M294.7,310.4h94.4l3.8-11.3l-101.6,3.7L294.7,310.4z"/>
	<path class="st1" d="M217.6,259.8l12.8-16.9l-21.1-16.9l-12.8,16.9L217.6,259.8z"/>
	<path class="st1" d="M133.6,159.9l-4.1,7.5l11.3,0L133.6,159.9z"/>
	<path class="st9" d="M280,310.4h15v-3.8h-15V310.4z"/>
	<path class="st4" d="M381.4,128.1c5.5,6.3,11.1,13.8,14.5,21.9c11.9-9.4,14.5-25.9,14.8-36.4c-1.7-3.5-3.6-6.2-5.8-6.9
		c-0.6-0.2-1.1-0.3-1.7-0.3l-5.7,2C391.4,112.6,385.2,122.2,381.4,128.1z"/>
	<path class="st2" d="M334.7,77.4c0,6.3,0.9,13.7,2.8,21.1c4.8,19,15.9,38.3,34.9,40.2c8.4,0.9,16.9-2.3,22.8-8.3
		c5.2-5.3,11.2-11.2,13.9-18.2c0.2-0.5,0.3-0.9,0.3-1.5c0.2-2-0.8-4.2-3.5-7.1c-4.1-4.3-8.5-6.4-11.5-10.6c-1.2-1.7-2.2-3.7-2.8-6.3
		c-1.1-4.3,1.2-5.5-2.3-10.2c-2.4-3.1-5.9-5.2-9.5-6.5C364.6,64.7,349.6,84.7,334.7,77.4z"/>
	<path class="st7" d="M332.7,233.7l-16.6-9.8c-1.8-1-4-0.4-5,1.4l-8.6,16.3c-0.7,1.4-0.3,3.1,1,4l22.7,15.3l10.6-5.7L332.7,233.7z"
		/>
	<path class="st11" d="M185.9,317.9h218.2v-7.5H185.9V317.9z"/>
	<path class="st2" d="M304.2,264.8c0.3,0.5,0.6,1.2,1.1,1.8c2.2,3.1,6.7,6.7,15.2,3.7c3.3-1.2,5.3-2.5,6.5-3.7
		c3.7-4-0.8-7.8-0.8-7.8s-1.4,0.8-3.7,1.8h0c-1.4,0.6-3.1,1.2-5.1,1.7c-3.4,0.9-7.6,1.5-12.2,1.1
		C304.4,263.4,303.8,264.2,304.2,264.8z"/>
	<path class="st4" d="M305.3,266.7c2.2,3.1,6.7,6.7,15.2,3.7c3.3-1.2,5.3-2.4,6.5-3.7l0.5-3.4c0,0-2.2-1.9-5-2.6h0
		c-1.4,0.6-3.1,1.2-5.1,1.7C316,264.8,312.6,269.5,305.3,266.7z"/>
	<path class="st4" d="M334.7,77.4c0,6.3,0.9,13.7,2.8,21.1c1.2,0.6,2.4,1.1,3.6,1.5c4.9,1.9,9.8,4.7,15.2,4.4
		c7.9-0.4,12.6-7,19.4-9.7c5.6-2.2,12.3-3.5,18.3-1.9c0.2,0,0.4,0.1,0.5,0.2c-1.2-1.7-2.2-3.7-2.8-6.3c-1.1-4.3,1.2-5.5-2.3-10.2
		c-2.4-3.1-5.9-5.2-9.5-6.5C364.6,64.7,349.6,84.7,334.7,77.4z"/>
	<path class="st12" d="M322,71.1c3.5,4.7,7.9,7.8,12.8,9.7c9.6,3.6,21,2.3,30.8-1.2c5.1-1.8,13.1-4.8,20.6-5.4
		c0.3,0,0.6-0.1,0.9-0.1c7-0.4,13.3,1.5,15.7,8.8c10.7,5.2,24.2-3.1,16.6-17.6c-4.8-9.2-14.4-14.7-23.8-18.2
		c-12.9-4.8-74.7-5.6-77.2,13.4C318,63.5,319,67,322,71.1z"/>
	<path class="st2" d="M295.5,296.2c0.2,0.6,0.7,1,1.4,1c4.6,0,13.2-2,22.5-14.8l10.5,8.7c0.5,0.4,1.3,0.6,1.9,0.4l18.8-5.3
		c1-0.3,1.1-1.6,0.3-2.1c-2.6-1.4-7.5-3.1-14.2-1.1l-2-2.3c0,0,12.9,0.6,18.2-7.5c0,0,72,72.7,95.4,58.3c0.7-0.4,1.4-0.9,1.9-1.4
		c18.1-15.4-33-53.3-33-53.3l-71.2-27.2c-1.2-0.5-2.6-0.6-3.9-0.4l-11.8,1.7c-2.7,0.4-5,2-6.3,4.3c-4.7,8.6-17,29.7-28.2,39.3
		C295.4,295,295.3,295.6,295.5,296.2z"/>
	<path class="st9" d="M377.8,111.3l-17.6,7.4c-0.6,0.3-0.8,1-0.4,1.5c2.2,2.6,8.3,9.1,13.3,7.1c5.8-2.4,8.1-10.3,6-15.5
		C378.9,111.3,378.3,111.1,377.8,111.3z"/>
	<path class="st13" d="M322.6,69.4c0,0.2,0,0.2,0.1,0.3l0.1,0.2c0,0.2,0.1,0.3,0.1,0.5c0.1,0.3,0.2,0.6,0.3,0.9
		c0.2,0.6,0.4,1.1,0.7,1.6c0.5,1.1,1.1,2.1,1.8,3c1.4,1.9,3,3.5,4.9,4.8c3.8,2.6,8.2,3.7,12.4,3.9c4.3,0.3,8.5-0.3,12.5-1.2
		c4.1-0.9,8-2.2,11.8-3.6c-4,1-8,1.9-12,2.3c-4,0.4-8.1,0.5-12-0.2c-3.9-0.6-7.5-2.1-10.3-4.5c-1.4-1.2-2.5-2.6-3.4-4.1
		c-0.5-0.8-0.8-1.6-1.1-2.4c-0.1-0.4-0.3-0.8-0.4-1.2c0-0.2-0.1-0.4-0.1-0.6c0-0.1,0-0.2,0-0.3l0-0.1c0,0,0-0.1,0-0.1L322.6,69.4z"
		/>
	<path class="st13" d="M480.6,130.2c1.2-0.1,2.5-0.1,3.8-0.1c1.3,0,2.6,0,3.9,0.1c2.6,0.1,5.3,0.4,7.9,0.7
		c5.2,0.7,10.4,1.9,15.4,3.6c5,1.7,9.8,4,14.1,6.9c4.4,2.9,8.4,6.4,11.8,10.5l1.3,1.5l1.1,1.6c0.7,1.1,1.6,2.1,2.2,3.3
		c0.7,1.1,1.4,2.3,2,3.5l1.7,3.6l0.4,0.9l0.3,0.9l0.7,1.9l0.7,1.9c0.3,0.6,0.4,1.3,0.6,1.9l1.1,3.9c0.3,1.3,0.5,2.6,0.8,3.9
		c0.6,2.6,0.8,5.3,1.2,8l0.1,1c0,0.3,0.1,0.7,0.1,1l0.1,2l0.2,4c0,2.7,0,5.4-0.1,8.1l-0.5,8.1l0.9-8.1c0.2-2.7,0.3-5.4,0.4-8.1
		l-0.1-4.1l0-2c0-0.3,0-0.7,0-1l-0.1-1c-0.3-2.7-0.3-5.4-0.9-8.1c-0.2-1.3-0.4-2.7-0.7-4l-1-4c-0.2-0.7-0.3-1.3-0.5-2l-0.6-2l-0.6-2
		l-0.3-1l-0.4-0.9l-1.6-3.8c-0.6-1.2-1.3-2.4-1.9-3.7c-0.6-1.2-1.4-2.4-2.2-3.5l-1.1-1.7l-1.3-1.6c-3.4-4.4-7.4-8.3-11.9-11.6
		c-4.5-3.3-9.5-5.9-14.7-7.9c-5.2-2-10.6-3.5-16-4.5c-2.7-0.5-5.5-0.9-8.3-1.1c-1.4-0.1-2.8-0.2-4.2-0.3c-1.4,0-2.8-0.1-4.3,0
		L480.6,130.2z"/>
	<path class="st13" d="M375.7,64.5c3.4,2.5,6.8,5,9.4,8c2.6,3,3.7,6.6,4.4,10.7c0.4,2,0.8,4.1,1.5,6.3c0.7,2.1,1.6,4.3,3,6.2
		c2.8,3.7,6.5,6.4,10.4,8.3c3.9,2,7.8,3.4,11.5,5.3c1.9,0.9,3.6,1.9,5.3,3.1c1.7,1.2,3.2,2.5,4.7,3.9c3,2.8,5.5,6.2,7.7,9.7
		c2.2,3.6,4,7.3,5.7,11.2c0,0.1,0.2,0.2,0.3,0.1c0.1,0,0.1-0.2,0.1-0.3c-0.7-2-1.4-4-2.3-5.9c-0.8-1.9-1.7-3.8-2.7-5.7
		c-2-3.7-4.4-7.3-7.3-10.5c-2.9-3.2-6.4-5.9-10.2-7.9c-3.8-2.1-7.7-3.7-11.2-5.8c-1.8-1-3.4-2.1-4.9-3.4c-1.5-1.3-2.8-2.7-3.8-4.3
		c-2-3.1-2.8-7-3.9-11.1c-0.6-2.1-1.2-4.2-2.2-6.3c-0.3-0.5-0.5-1-0.8-1.5c-0.3-0.5-0.6-1-1-1.4c-0.7-0.9-1.5-1.8-2.3-2.5
		c-3.4-3-7.3-4.8-11.2-6.4c-0.1,0-0.2,0-0.3,0.1C375.6,64.4,375.6,64.5,375.7,64.5z"/>
	<path class="st8" d="M437,229.7c0,0-8.1,28.2-11,43.5l-4.8-2.9l-10.6,4.2l28.9-56.7L437,229.7z"/>
	<path class="st8" d="M472.9,286.5c0,0-13.9,5.1-30-3l26.5,16.3L472.9,286.5z"/>
	<path class="st9" d="M365.4,188.6c-1.3,5.7-3.1,11.3-5.8,16.4c-0.7,1.3-1.4,2.5-2.3,3.6c-0.9,1.1-1.8,2.2-2.9,3.2
		c-2.1,2-4.3,3.8-6.6,5.8c-1.1,1-2.3,2-3.3,3c-1.1,1.1-2.2,2.2-3.1,3.4c-1.9,2.4-3.5,5-4.6,7.9c-1.2,2.9-1.8,6-1.8,9.1
		c0.1,3.1,1,6.2,2.6,8.7l0.3-0.1c-0.7-2.9-0.9-5.7-0.6-8.5c0.2-1.4,0.5-2.7,1-4c0.2-0.7,0.5-1.3,0.7-2c0.3-0.6,0.5-1.3,0.9-1.9
		c1.2-2.5,2.6-4.9,4.3-7.3c0.8-1.2,1.6-2.3,2.5-3.4c0.9-1.1,2-2.1,3-3.1c2.1-2,4.3-4,6.3-6.2c1-1.1,2-2.3,2.8-3.5
		c0.9-1.3,1.6-2.6,2.2-4c1.3-2.7,2.2-5.5,3-8.4c0.8-2.9,1.3-5.8,1.7-8.7L365.4,188.6z"/>
	<path class="st4" d="M353,273.3c0,0,72,72.7,95.4,58.3c0.7-0.4,1.4-0.9,1.9-1.4l-8.9-18.5l-30.2-36.1l3.4,23.2
		c0.7,4.4-4.2,7.5-7.9,5.1l-51.2-32.6c0,0,1.4-6.9-2.6-10.6C352.9,260.9,354.8,267.8,353,273.3z"/>
	<path class="st7" d="M475.2,309.3c-0.5,9.2-3.6,26.1-19.5,29.4c-7.2,1.5-14.5-2.1-17.8-8.7l-27.4-55.6l10.6-4.2l49.4,30.3
		C473.6,302.4,475.4,305.8,475.2,309.3z"/>
	<path class="st9" d="M463.2,295.8c-4.1-2.8-8.3-5.6-12.5-8.4l-6.3-4.2l-6.3-4.1c-2.1-1.4-4.2-2.8-6.2-4.2c-2.1-1.4-4.2-2.7-6.4-3.9
		l-0.4-0.2l-0.5-0.3c-0.3-0.2-0.7-0.3-1.1-0.4c-0.7-0.2-1.5-0.4-2.2-0.4c-0.8,0-1.5,0-2.2,0.2c-0.4,0.1-0.7,0.2-1.1,0.3
		c-0.3,0.1-0.7,0.3-0.9,0.4c-2.3,1.1-4.5,2.3-6.6,3.7l0.1,0.3c2.5-0.5,4.9-1.1,7.4-1.8c0.3-0.1,0.6-0.2,0.8-0.2
		c0.3,0,0.5-0.1,0.8-0.1c0.5,0,1,0,1.5,0.1c0.5,0.1,1,0.2,1.4,0.4c0.2,0.1,0.4,0.2,0.6,0.3l0.7,0.5c2.1,1.4,4.2,2.7,6.4,3.9
		c2.2,1.2,4.4,2.4,6.6,3.7l6.5,3.7l6.5,3.7c4.4,2.4,8.8,4.9,13.2,7.3L463.2,295.8z"/>
	<path class="st4" d="M431.9,331.7c-4.8-2.1-9.5-4.6-14-7.4c-4.5-2.7-8.9-5.6-13.2-8.6c-2.1-1.6-4.2-3.1-6.3-4.8
		c-1-0.8-2.1-1.6-3.1-2.4c-1-0.8-2.1-1.6-3.2-2.4l-1.6-1.1c-0.5-0.4-1-0.8-1.6-1.2c-1.1-0.8-2.1-1.5-3.2-2.3
		c-2.2-1.5-4.3-3.1-6.6-4.4l-0.2,0.2c1.7,2.1,3.4,4.1,5.3,6c1.9,1.9,3.8,3.7,5.9,5.4c4,3.5,8.6,6.3,13.1,9.1
		c4.5,2.8,9.1,5.5,13.9,7.9c1.2,0.6,2.4,1.2,3.6,1.7c1.2,0.6,2.4,1.1,3.6,1.6c2.4,1.1,4.9,2,7.4,2.8L431.9,331.7z"/>
	<path class="st4" d="M323.2,256.9c-2,2.7-3.9,5.5-5.7,8.3c-1.9,2.8-3.6,5.7-5.4,8.5c-1.8,2.8-3.7,5.6-5.6,8.3
		c-1.9,2.7-3.9,5.4-6,8.1l0.1,0.1c2.2-2.5,4.4-5.1,6.4-7.7c2-2.7,4-5.3,6-8.1c1.9-2.7,3.9-5.5,5.6-8.3
		C320.3,263,322,260.1,323.2,256.9L323.2,256.9z"/>
	<path class="st4" d="M323.2,272.1c-1.4,3.4-2.8,6.8-4.2,10.2l-0.1,0.3l0.2,0.2l5.1,4.5c0.9,0.8,1.7,1.5,2.6,2.3
		c0.9,0.8,1.7,1.5,2.6,2.2l0.1,0.1l0.1,0c0.7,0.2,1.4,0.3,2.1,0.3c0.7,0,1.4-0.1,2-0.2c1.3-0.3,2.6-0.9,3.5-1.7l-0.1-0.1
		c-0.6,0.3-1.2,0.5-1.8,0.7c-0.6,0.2-1.2,0.3-1.8,0.3c-0.6,0-1.2,0-1.8,0c-0.6-0.1-1.2-0.2-1.7-0.4l0.2,0.1
		c-0.8-0.8-1.7-1.5-2.6-2.2c-0.9-0.7-1.8-1.4-2.7-2.1l-5.4-4.2l0.1,0.5C321,279.1,322.2,275.6,323.2,272.1L323.2,272.1z"/>
</g>
</svg>
