<svg width="28" height="28" viewBox="0 0 28 28" fill="none" xmlns="http://www.w3.org/2000/svg">
<g clip-path="url(#clip0)">
<path d="M10.5 5.00146H17.4996V7.00134H10.5V5.00146Z" fill="#296DB3"/>
<path d="M21.4997 20.0006C19.2909 20.0006 17.5 21.7913 17.5 24.0004C17.5 26.2092 19.2909 28.0001 21.4997 28.0001C23.7088 28.0001 25.4995 26.2092 25.4995 24.0004C25.4971 21.7922 23.7079 20.0031 21.4997 20.0006ZM21.4997 23.5004C22.2294 23.4989 22.8537 24.024 22.9774 24.7432C23.101 25.4622 22.6879 26.1657 21.9997 26.4082V27.0002H20.9998V26.4082C20.4026 26.197 20.0025 25.6336 19.9998 25.0003H20.9998C20.9998 25.2764 21.2236 25.5003 21.4997 25.5003C21.7759 25.5003 21.9997 25.2764 21.9997 25.0003C21.9997 24.7242 21.7759 24.5003 21.4997 24.5003C20.7701 24.5015 20.1458 23.9764 20.0223 23.2575C19.8985 22.5383 20.3116 21.8347 20.9998 21.5923V21.0005H21.9997V21.5923C22.5968 21.8035 22.9972 22.3669 22.9997 23.0004H21.9997C21.9997 22.7243 21.7759 22.5005 21.4997 22.5005C21.2236 22.5005 20.9998 22.7243 20.9998 23.0004C20.9998 23.2765 21.2236 23.5004 21.4997 23.5004Z" fill="#296DB3"/>
<path d="M20.9991 19.026V2.00171H7V25.0002H16.5995C16.3168 23.6148 16.6339 22.1745 17.4725 21.0359C18.3111 19.8973 19.5922 19.1671 20.9991 19.026ZM18.4993 12.0011H11.4997V11.0011H18.4993V12.0011ZM18.4993 10.0012H11.4997V9.00127H18.4993V10.0012ZM9.49984 4.00158H18.4993V8.00133H9.49984V4.00158ZM9.49984 9.00127H10.4998V10.0012H9.49984V9.00127ZM9.49984 11.0011H10.4998V12.0011H9.49984V11.0011ZM9.49984 13.001H10.4998V14.0009H9.49984V13.001ZM13.4996 24.0003H8.99988V23.0004H13.4996V24.0003ZM13.4996 22.0004H8.99988V21.0005H13.4996V22.0004ZM15.4995 24.0003H14.4995V23.0004H15.4995V24.0003ZM15.4995 22.0004H14.4995V21.0005H15.4995V22.0004ZM11.4997 14.0009V13.001H18.4993V14.0009H11.4997Z" fill="#296DB3"/>
<path d="M22.9998 1.00189V2.00183H21.9998V3.00176H23.4997C23.7758 3.00176 23.9997 2.7779 23.9997 2.50179V0.501921C23.9997 0.225816 23.7758 0.00195312 23.4997 0.00195312H4.50094C4.22484 0.00195312 4.00098 0.225816 4.00098 0.501921V2.50179C4.00098 2.7779 4.22484 3.00176 4.50094 3.00176H6.00085V2.00183H5.00091V1.00189H22.9998Z" fill="#296DB3"/>
<circle cx="4" cy="19" r="4" fill="#296DB3"/>
<path d="M4.85145 19.2107H4.30542V18.6859H4.85145C4.9335 18.6859 5 18.6195 5 18.5374C5 18.4554 4.9335 18.3889 4.85145 18.3889H4.30542V17.6607C4.30542 17.5545 4.28442 17.4764 4.24301 17.4289C4.20366 17.3837 4.15192 17.3627 4.08028 17.3627C4.01191 17.3627 3.96212 17.3836 3.92353 17.4285C3.88261 17.4761 3.86184 17.5542 3.86184 17.6608V18.389H2.83473L2.39802 17.7281C2.36064 17.6692 2.3255 17.6139 2.29137 17.5609C2.26065 17.5131 2.23068 17.4742 2.20237 17.4452C2.17731 17.4195 2.14876 17.3996 2.11535 17.3843C2.08384 17.3699 2.04377 17.3627 1.99637 17.3627C1.93591 17.3627 1.88103 17.3793 1.82847 17.4133C1.77647 17.447 1.74052 17.4886 1.71856 17.5405C1.69929 17.5899 1.6891 17.6656 1.6891 17.7632V18.3889H1.14849C1.06646 18.3889 1 18.4554 1 18.5375C1 18.6195 1.06646 18.686 1.1485 18.686H1.6891V19.2108H1.1485C1.06646 19.2108 1 19.2773 1 19.3594C1 19.4414 1.06646 19.5078 1.1485 19.5078H1.6891V20.3392C1.6891 20.4423 1.71078 20.5196 1.75371 20.5686C1.79453 20.6154 1.84629 20.6371 1.91659 20.6371C1.98441 20.6371 2.03577 20.6153 2.07836 20.5684C2.12197 20.5204 2.14403 20.4432 2.14403 20.3392V19.5078H3.07345L3.5764 20.279C3.61137 20.33 3.64748 20.3815 3.68349 20.4319C3.71598 20.4773 3.75143 20.5172 3.78883 20.5505C3.82252 20.5807 3.85863 20.6028 3.89616 20.6163C3.9348 20.6302 3.97997 20.6372 4.03008 20.6372C4.1661 20.6372 4.30541 20.5956 4.30541 20.2868V19.5078H4.85143C4.93348 19.5078 4.99998 19.4413 4.99998 19.3593C5 19.2772 4.9335 19.2107 4.85145 19.2107ZM3.86183 18.6859V19.2107H3.37788L3.03112 18.6859H3.86183ZM2.14404 18.083L2.34361 18.3889H2.14404V18.083ZM2.14404 19.2107V18.6859H2.5374L2.87968 19.2107H2.14404ZM3.86183 19.9432L3.57421 19.5078H3.86183V19.9432Z" fill="#F4F7FB"/>
<rect x="6" y="15" width="1" height="8" fill="#F4F7FB"/>
<circle cx="24" cy="11" r="4" fill="#296DB3"/>
<path d="M26.8514 11.2107H26.3054V10.6859H26.8514C26.9335 10.6859 27 10.6195 27 10.5374C27 10.4554 26.9335 10.3889 26.8514 10.3889H26.3054V9.66075C26.3054 9.55446 26.2844 9.47644 26.243 9.42892C26.2037 9.38371 26.1519 9.36267 26.0803 9.36267C26.0119 9.36267 25.9621 9.38356 25.9235 9.42849C25.8826 9.47606 25.8618 9.55422 25.8618 9.6608V10.389H24.8347L24.398 9.72814C24.3606 9.66916 24.3255 9.61392 24.2914 9.56089C24.2606 9.51313 24.2307 9.47425 24.2024 9.44522C24.1773 9.41951 24.1488 9.39962 24.1154 9.38433C24.0838 9.36994 24.0438 9.36272 23.9964 9.36272C23.9359 9.36272 23.881 9.37928 23.8285 9.41331C23.7765 9.44697 23.7405 9.48859 23.7186 9.54054C23.6993 9.58992 23.6891 9.66558 23.6891 9.76325V10.3889H23.1485C23.0665 10.3889 23 10.4554 23 10.5375C23 10.6195 23.0665 10.686 23.1485 10.686H23.6891V11.2108H23.1485C23.0665 11.2108 23 11.2773 23 11.3594C23 11.4414 23.0665 11.5078 23.1485 11.5078H23.6891V12.3392C23.6891 12.4423 23.7108 12.5196 23.7537 12.5686C23.7945 12.6154 23.8463 12.6371 23.9166 12.6371C23.9844 12.6371 24.0358 12.6153 24.0784 12.5684C24.122 12.5204 24.144 12.4432 24.144 12.3392V11.5078H25.0734L25.5764 12.279C25.6114 12.33 25.6475 12.3815 25.6835 12.4319C25.716 12.4773 25.7514 12.5172 25.7888 12.5505C25.8225 12.5807 25.8586 12.6028 25.8962 12.6163C25.9348 12.6302 25.98 12.6372 26.0301 12.6372C26.1661 12.6372 26.3054 12.5956 26.3054 12.2868V11.5078H26.8514C26.9335 11.5078 27 11.4413 27 11.3593C27 11.2772 26.9335 11.2107 26.8514 11.2107ZM25.8618 10.6859V11.2107H25.3779L25.0311 10.6859H25.8618ZM24.144 10.083L24.3436 10.3889H24.144V10.083ZM24.144 11.2107V10.6859H24.5374L24.8797 11.2107H24.144ZM25.8618 11.9432L25.5742 11.5078H25.8618V11.9432Z" fill="#F4F7FB"/>
<path d="M21 6H22V15H21V6Z" fill="#F4F7FB"/>
</g>
<defs>
<clipPath id="clip0">
<rect width="28" height="28" fill="white"/>
</clipPath>
</defs>
</svg>
