<?xml version="1.0" encoding="utf-8"?>
<!-- Generator: Adobe Illustrator 24.0.1, SVG Export Plug-In . SVG Version: 6.00 Build 0)  -->
<svg version="1.1" id="Layer_1" xmlns="http://www.w3.org/2000/svg" xmlns:xlink="http://www.w3.org/1999/xlink" x="0px" y="0px"
	 viewBox="0 0 374 151" style="enable-background:new 0 0 374 151;" xml:space="preserve">
<style type="text/css">
	.st0{clip-path:url(#SVGID_2_);}
	.st1{fill-rule:evenodd;clip-rule:evenodd;fill:#396EAE;}
	.st2{fill-rule:evenodd;clip-rule:evenodd;fill:#8DBF57;}
	.st3{fill-rule:evenodd;clip-rule:evenodd;fill:#F79B24;}
	.st4{fill:#294461;}
</style>
<title>footer-right</title>
<g id="Layer_2_1_">
	<g id="Layer_1-2">
		<g>
			<defs>
				<rect id="SVGID_1_" x="-0.5" width="375" height="151"/>
			</defs>
			<clipPath id="SVGID_2_">
				<use xlink:href="#SVGID_1_"  style="overflow:visible;"/>
			</clipPath>
			<g class="st0">
				<path class="st1" d="M94,93.8c1.9,2.1,1.8,5.3-0.3,7.2c-2.1,1.8-5.3,1.7-7.3-0.3c-1.9-1.9-1.9-5.1,0-7c0,0,0,0,0,0l0.2-0.2
					C88.8,91.5,92.1,91.6,94,93.8L94,93.8z"/>
				<path class="st2" d="M368.1,32.3c0.5,5.2-3.2,9.8-8.3,10.5c-5.2,0.6-9.9-3.1-10.6-8.3s3.1-9.9,8.3-10.6
					c5.2-0.6,9.9,3.1,10.6,8.3c0,0,0,0,0,0L368.1,32.3z"/>
				<path class="st3" d="M13.5-13.5c4-0.5,8.1,0.7,11.3,3.2c3.3,2.4,5.6,6,6.3,10c1.4,8.2-4.3,16-12.8,17.5
					c-8.5,1.4-16.6-4.4-18-12.9c0,0,0-0.1,0-0.1V4C-0.5,0,0.5-4.2,2.9-7.6C5.5-10.9,9.3-13,13.5-13.5z"/>
				<circle class="st4" cx="205" cy="138" r="40"/>
			</g>
		</g>
	</g>
</g>
</svg>
