<svg width="602" height="553" viewBox="0 0 602 553" fill="none" xmlns="http://www.w3.org/2000/svg">
<path fill-rule="evenodd" clip-rule="evenodd" d="M609.785 170.841C608.229 173.228 605.057 173.945 602.709 172.43C600.361 170.916 599.527 167.891 601.007 165.421C602.448 163.007 605.735 162.103 608.176 163.676C610.62 165.245 611.335 168.457 609.785 170.841Z" fill="#0B2641"/>
<path fill-rule="evenodd" clip-rule="evenodd" d="M135.566 530.95C138.286 530.103 141.185 531.579 142.028 534.242C142.876 536.903 141.371 539.833 138.683 540.779C135.997 541.726 133.101 540.257 132.223 537.489C131.344 534.721 132.847 531.794 135.566 530.95Z" fill="#0B2641"/>
<path fill-rule="evenodd" clip-rule="evenodd" d="M128.553 504.262C131.336 503.655 134.074 505.381 134.657 508.114C135.192 510.86 133.612 513.609 130.835 514.324C128.098 515.033 125.174 513.359 124.612 510.505C124.005 507.665 125.773 504.87 128.553 504.262Z" fill="#0B2641"/>
<path fill-rule="evenodd" clip-rule="evenodd" d="M123.86 477.069C126.685 476.705 129.225 478.663 129.564 481.44C130.019 484.198 128.103 486.82 125.294 487.29C122.49 487.764 119.828 485.822 119.359 482.955C119.004 480.072 121.043 477.431 123.86 477.069Z" fill="#0B2641"/>
<path fill-rule="evenodd" clip-rule="evenodd" d="M121.525 449.574C124.363 449.455 126.681 451.633 126.912 454.422C127.099 457.215 124.944 459.661 122.108 459.891C119.273 460.118 116.811 457.952 116.624 455.049C116.386 452.151 118.683 449.692 121.525 449.574Z" fill="#0B2641"/>
<path fill-rule="evenodd" clip-rule="evenodd" d="M121.611 421.971C124.448 422.102 126.689 424.476 126.602 427.277C126.52 430.077 124.137 432.329 121.294 432.309C118.453 432.291 116.215 429.917 116.303 427.008C116.395 424.1 118.775 421.846 121.611 421.971Z" fill="#0B2641"/>
<path fill-rule="evenodd" clip-rule="evenodd" d="M124.199 394.488C127.01 394.865 129.008 397.425 128.648 400.207C128.287 402.986 125.697 405.02 122.868 404.754C120.044 404.486 118.048 401.927 118.422 399.039C118.797 396.147 121.384 394.112 124.199 394.488Z" fill="#0B2641"/>
<path fill-rule="evenodd" clip-rule="evenodd" d="M129.159 367.33C131.927 367.955 133.664 370.678 133.03 373.41C132.345 376.134 129.736 377.963 126.936 377.446C124.156 376.937 122.247 374.184 122.954 371.35C123.612 368.511 126.393 366.712 129.159 367.33Z" fill="#0B2641"/>
<path fill-rule="evenodd" clip-rule="evenodd" d="M136.451 340.708C139.168 341.574 140.572 344.414 139.752 347.1C138.984 349.798 136.137 351.371 133.406 350.615C130.676 349.858 129.104 346.969 129.904 344.163C130.757 341.374 133.772 339.851 136.451 340.708Z" fill="#0B2641"/>
<path fill-rule="evenodd" clip-rule="evenodd" d="M145.998 314.791C148.598 315.882 149.892 318.894 148.853 321.504C147.819 324.119 144.82 325.429 142.167 324.433C139.518 323.443 138.233 320.436 139.31 317.722C140.391 315.008 143.378 313.691 145.998 314.791Z" fill="#0B2641"/>
<path fill-rule="evenodd" clip-rule="evenodd" d="M157.901 289.86C160.404 291.178 161.391 294.273 160.098 296.771C158.804 299.27 155.673 300.302 153.12 299.083C150.569 297.865 149.582 294.77 150.926 292.175C152.272 289.582 155.395 288.546 157.901 289.86Z" fill="#0B2641"/>
<path fill-rule="evenodd" clip-rule="evenodd" d="M171.835 266.013C174.217 267.538 174.906 270.691 173.363 273.049C171.821 275.404 168.779 276.261 166.312 274.812C163.907 273.395 163.029 270.131 164.629 267.684C166.228 265.234 169.458 264.487 171.835 266.013Z" fill="#0B2641"/>
<path fill-rule="evenodd" clip-rule="evenodd" d="M187.742 243.417C189.978 245.149 190.329 248.307 188.712 250.614C187.057 252.892 183.843 253.402 181.54 251.763C179.241 250.124 178.765 246.873 180.486 244.506C182.168 242.114 185.509 241.692 187.742 243.417Z" fill="#0B2641"/>
<path fill-rule="evenodd" clip-rule="evenodd" d="M205.59 222.32C207.664 224.238 207.829 227.503 205.955 229.603C204.079 231.707 200.813 231.916 198.665 230.08C196.519 228.249 196.354 224.984 198.301 222.801C200.252 220.616 203.518 220.4 205.59 222.32Z" fill="#0B2641"/>
<path fill-rule="evenodd" clip-rule="evenodd" d="M225.259 202.901C227.152 204.994 227.012 208.243 224.939 210.154C222.867 212.062 219.574 211.96 217.603 209.95C215.624 207.927 215.767 204.685 217.921 202.699C220.078 200.716 223.366 200.807 225.259 202.901Z" fill="#0B2641"/>
<path fill-rule="evenodd" clip-rule="evenodd" d="M246.534 185.253C248.238 187.506 247.796 190.716 245.543 192.414C243.276 194.088 240.144 193.869 238.332 191.656C236.568 189.499 236.861 186.111 239.217 184.368C241.554 182.603 244.832 183.002 246.534 185.253Z" fill="#0B2641"/>
<path fill-rule="evenodd" clip-rule="evenodd" d="M269.254 169.505C270.767 171.927 269.982 174.989 267.651 176.573C265.322 178.163 262.142 177.547 260.553 175.216C258.967 172.882 259.64 169.648 262.061 167.999C264.483 166.354 267.775 167.14 269.254 169.505Z" fill="#0B2641"/>
<path fill-rule="evenodd" clip-rule="evenodd" d="M293.253 155.772C294.519 158.261 293.548 161.393 291.082 162.761C288.611 164.12 285.491 163.213 284.115 160.747C282.738 158.284 283.7 155.14 286.267 153.729C288.828 152.307 291.96 153.226 293.253 155.772Z" fill="#0B2641"/>
<path fill-rule="evenodd" clip-rule="evenodd" d="M318.39 144.242C319.443 146.862 318.202 149.902 315.615 151.017C313.03 152.136 309.994 150.942 308.839 148.365C307.683 145.79 308.922 142.753 311.61 141.595C314.297 140.433 317.336 141.622 318.39 144.242Z" fill="#0B2641"/>
<path fill-rule="evenodd" clip-rule="evenodd" d="M344.433 134.943C345.255 137.645 343.749 140.551 341.069 141.415C338.389 142.281 335.464 140.81 334.538 138.142C333.615 135.476 335.118 132.575 337.901 131.673C340.686 130.771 343.614 132.239 344.433 134.943Z" fill="#0B2641"/>
<path fill-rule="evenodd" clip-rule="evenodd" d="M371.174 127.908C371.755 130.677 370.001 133.425 367.254 134.03C364.493 134.59 361.749 133.041 361.055 130.28C360.372 127.559 362.079 124.629 364.946 124.04C367.803 123.407 370.59 125.143 371.174 127.908Z" fill="#0B2641"/>
<path fill-rule="evenodd" clip-rule="evenodd" d="M398.411 123.19C398.753 126.004 396.76 128.553 393.974 128.92C391.2 129.398 388.589 127.515 388.144 124.72C387.695 121.93 389.665 119.256 392.547 118.762C395.443 118.381 398.075 120.388 398.411 123.19Z" fill="#0B2641"/>
<path fill-rule="evenodd" clip-rule="evenodd" d="M425.963 120.827C426.056 123.655 423.851 125.988 421.05 126.244C418.247 126.456 415.809 124.331 415.609 121.508C415.409 118.684 417.605 116.211 420.517 115.994C423.428 115.727 425.872 117.997 425.963 120.827Z" fill="#0B2641"/>
<path fill-rule="evenodd" clip-rule="evenodd" d="M453.614 120.885C453.459 123.716 451.053 125.971 448.245 125.911C445.436 125.851 443.198 123.497 443.245 120.667C443.293 117.837 445.696 115.584 448.614 115.645C451.531 115.709 453.77 118.059 453.614 120.885Z" fill="#0B2641"/>
<path fill-rule="evenodd" clip-rule="evenodd" d="M481.141 123.434C480.738 126.24 478.147 128.256 475.362 127.923C472.577 127.59 470.557 125.026 470.854 122.207C471.146 119.387 473.736 117.376 476.631 117.72C479.526 118.065 481.547 120.626 481.141 123.434Z" fill="#0B2641"/>
<path fill-rule="evenodd" clip-rule="evenodd" d="M508.332 128.352C507.68 131.117 504.933 132.876 502.194 132.268C499.471 131.613 497.657 129.028 498.202 126.231C498.743 123.457 501.524 121.529 504.358 122.204C507.204 122.836 508.983 125.59 508.332 128.352Z" fill="#0B2641"/>
<path fill-rule="evenodd" clip-rule="evenodd" d="M535.006 135.603C534.111 138.319 531.246 139.74 528.56 138.954C525.856 138.212 524.308 135.392 525.091 132.661C525.878 129.934 528.792 128.34 531.601 129.11C534.393 129.931 535.892 132.925 535.006 135.603Z" fill="#0B2641"/>
<path fill-rule="evenodd" clip-rule="evenodd" d="M560.951 145.101C559.834 147.705 556.796 149.022 554.186 148.01C551.576 147.007 550.29 144.03 551.312 141.375C552.329 138.725 555.362 137.417 558.073 138.465C560.787 139.512 562.078 142.48 560.951 145.101Z" fill="#0B2641"/>
<path fill-rule="evenodd" clip-rule="evenodd" d="M585.906 156.954C584.563 159.463 581.448 160.476 578.951 159.209C576.457 157.944 575.451 154.835 576.7 152.278C577.946 149.724 581.058 148.71 583.65 150.023C586.24 151.34 587.249 154.445 585.906 156.954Z" fill="#0B2641"/>
<path fill-rule="evenodd" clip-rule="evenodd" d="M596.175 195.46C594.604 197.838 591.435 198.552 589.102 197.05C586.797 195.508 586.011 192.458 587.483 190.01C588.949 187.583 592.207 186.714 594.613 188.323C597.048 189.887 597.744 193.084 596.175 195.46Z" fill="#0B2641"/>
<path fill-rule="evenodd" clip-rule="evenodd" d="M174.62 555.066C177.239 553.898 180.167 555.055 181.423 557.526C182.632 560.019 181.534 563.071 178.981 564.336C176.429 565.607 173.328 564.53 172.07 561.928C170.763 559.35 172.031 556.219 174.62 555.066Z" fill="#0B2641"/>
<path fill-rule="evenodd" clip-rule="evenodd" d="M164.61 529.526C167.316 528.613 170.142 530.033 171.148 532.617C172.112 535.216 170.729 538.152 168.069 539.173C165.411 540.198 162.434 538.832 161.43 536.123C160.38 533.426 161.918 530.436 164.61 529.526Z" fill="#0B2641"/>
<path fill-rule="evenodd" clip-rule="evenodd" d="M157.055 503.148C159.824 502.495 162.521 504.17 163.274 506.84C163.986 509.521 162.329 512.318 159.585 513.086C156.842 513.854 154.013 512.214 153.275 509.419C152.491 506.633 154.282 503.799 157.055 503.148Z" fill="#0B2641"/>
<path fill-rule="evenodd" clip-rule="evenodd" d="M152.041 476.175C154.847 475.788 157.389 477.708 157.882 480.44C158.332 483.179 156.416 485.808 153.617 486.316C150.815 486.822 148.157 484.922 147.689 482.067C147.179 479.218 149.208 476.566 152.041 476.175Z" fill="#0B2641"/>
<path fill-rule="evenodd" clip-rule="evenodd" d="M149.605 448.848C152.418 448.727 154.794 450.878 155.02 453.648C155.203 456.419 153.047 458.861 150.213 459.1C147.38 459.343 144.921 457.194 144.729 454.305C144.498 451.418 146.739 448.968 149.605 448.848Z" fill="#0B2641"/>
<path fill-rule="evenodd" clip-rule="evenodd" d="M149.781 421.406C152.586 421.554 154.785 423.926 154.717 426.705C154.636 429.482 152.254 431.711 149.412 431.681C146.569 431.652 144.334 429.281 144.423 426.384C144.492 423.483 146.912 421.254 149.781 421.406Z" fill="#0B2641"/>
<path fill-rule="evenodd" clip-rule="evenodd" d="M152.575 394.1C155.342 394.513 157.36 397.096 156.997 399.852C156.639 402.613 154.053 404.602 151.23 404.304C148.409 404.003 146.414 401.429 146.789 398.55C147.169 395.672 149.73 393.677 152.575 394.1Z" fill="#0B2641"/>
<path fill-rule="evenodd" clip-rule="evenodd" d="M157.986 367.19C160.738 367.876 162.468 370.635 161.841 373.347C161.213 376.059 158.44 377.796 155.66 377.228C152.884 376.661 151.157 373.905 151.81 371.074C152.467 368.244 155.238 366.506 157.986 367.19Z" fill="#0B2641"/>
<path fill-rule="evenodd" clip-rule="evenodd" d="M165.984 340.926C168.658 341.871 170.102 344.78 169.207 347.418C168.311 350.059 165.381 351.519 162.672 350.689C159.963 349.858 158.517 346.952 159.451 344.199C160.387 341.446 163.317 339.982 165.984 340.926Z" fill="#0B2641"/>
<path fill-rule="evenodd" clip-rule="evenodd" d="M176.451 315.54C179.015 316.733 180.166 319.766 179.009 322.304C177.85 324.843 174.783 326.015 172.169 324.931C169.554 323.847 168.405 320.819 169.614 318.171C170.821 315.523 173.887 314.346 176.451 315.54Z" fill="#0B2641"/>
<path fill-rule="evenodd" clip-rule="evenodd" d="M189.254 291.247C191.692 292.678 192.536 295.799 191.126 298.209C189.693 300.607 186.571 301.511 184.1 300.199C181.574 298.858 180.68 295.715 182.169 293.214C183.64 290.7 186.814 289.821 189.254 291.247Z" fill="#0B2641"/>
<path fill-rule="evenodd" clip-rule="evenodd" d="M204.262 268.246C206.554 269.898 207.086 273.077 205.441 275.336C203.762 277.57 200.717 278.277 198.317 276.7C195.994 275.168 195.256 271.855 197.006 269.519C198.718 267.161 201.971 266.594 204.262 268.246Z" fill="#0B2641"/>
<path fill-rule="evenodd" clip-rule="evenodd" d="M221.383 246.765C223.503 248.629 223.721 251.84 221.859 253.925C220.079 256.081 216.888 256.416 214.681 254.638C212.488 252.871 212.168 249.578 214.022 247.329C215.962 245.15 219.263 244.901 221.383 246.765Z" fill="#0B2641"/>
<path fill-rule="evenodd" clip-rule="evenodd" d="M240.477 227.013C242.419 229.086 242.284 232.258 240.279 234.207C238.317 236.199 235.087 236.208 233.068 234.23C231.052 232.254 231.073 228.965 233.121 226.887C235.214 224.857 238.561 224.967 240.477 227.013Z" fill="#0B2641"/>
<path fill-rule="evenodd" clip-rule="evenodd" d="M261.383 209.176C263.125 211.438 262.649 214.54 260.507 216.34C258.361 218.134 255.143 217.826 253.326 215.665C251.511 213.505 251.851 210.235 254.092 208.367C256.327 206.488 259.683 206.965 261.383 209.176Z" fill="#0B2641"/>
<path fill-rule="evenodd" clip-rule="evenodd" d="M283.902 193.413C285.424 195.841 284.635 198.86 282.356 200.485C280.046 202.061 276.871 201.445 275.271 199.118C273.675 196.791 274.328 193.57 276.739 191.926C279.12 190.236 282.427 191.058 283.902 193.413Z" fill="#0B2641"/>
<path fill-rule="evenodd" clip-rule="evenodd" d="M307.817 179.863C309.09 182.41 308.033 185.378 305.608 186.771C303.155 188.118 300.057 187.199 298.688 184.729C297.32 182.263 298.28 179.115 300.84 177.711C303.372 176.263 306.567 177.359 307.817 179.863Z" fill="#0B2641"/>
<path fill-rule="evenodd" clip-rule="evenodd" d="M332.907 168.633C333.928 171.279 332.604 174.162 330.058 175.317C327.491 176.424 324.495 175.215 323.367 172.626C322.241 170.036 323.5 166.993 326.175 165.838C328.835 164.641 331.898 166.01 332.907 168.633Z" fill="#0B2641"/>
<path fill-rule="evenodd" clip-rule="evenodd" d="M358.95 159.829C359.711 162.557 358.129 165.323 355.483 166.226C352.825 167.087 349.957 165.596 349.085 162.91C348.211 160.227 349.748 157.315 352.522 156.419C355.282 155.48 358.193 157.111 358.95 159.829Z" fill="#0B2641"/>
<path fill-rule="evenodd" clip-rule="evenodd" d="M385.708 153.521C386.204 156.296 384.374 158.925 381.654 159.573C378.927 160.178 376.219 158.422 375.601 155.664C374.99 152.907 376.796 150.152 379.638 149.523C382.474 148.847 385.208 150.731 385.708 153.521Z" fill="#0B2641"/>
<path fill-rule="evenodd" clip-rule="evenodd" d="M412.942 149.757C413.169 152.56 411.101 155.034 408.335 155.418C405.565 155.762 403.036 153.754 402.687 150.945C402.339 148.141 404.396 145.567 407.287 145.211C410.169 144.814 412.709 146.921 412.942 149.757Z" fill="#0B2641"/>
<path fill-rule="evenodd" clip-rule="evenodd" d="M440.413 148.6C440.371 151.402 438.077 153.706 435.289 153.813C432.501 153.889 430.179 151.647 430.1 148.815C430.019 145.986 432.311 143.623 435.217 143.544C438.128 143.436 440.452 145.738 440.413 148.6Z" fill="#0B2641"/>
<path fill-rule="evenodd" clip-rule="evenodd" d="M467.86 150.049C467.552 152.831 465.044 154.958 462.264 154.772C459.486 154.577 457.391 152.121 457.584 149.291C457.775 146.465 460.279 144.333 463.178 144.536C466.077 144.729 468.175 147.195 467.86 150.049Z" fill="#0B2641"/>
<path fill-rule="evenodd" clip-rule="evenodd" d="M495.039 154.106C494.458 156.882 491.762 158.77 489.017 158.302C486.272 157.84 484.426 155.186 484.888 152.385C485.349 149.587 488.045 147.707 490.91 148.192C493.77 148.678 495.62 151.33 495.039 154.106Z" fill="#0B2641"/>
<path fill-rule="evenodd" clip-rule="evenodd" d="M521.697 160.788C520.853 163.504 517.989 165.114 515.309 164.38C512.628 163.645 511.048 160.813 511.775 158.07C512.505 155.327 515.364 153.719 518.16 154.483C520.958 155.252 522.541 158.079 521.697 160.788Z" fill="#0B2641"/>
<path fill-rule="evenodd" clip-rule="evenodd" d="M547.585 169.986C546.483 172.61 543.486 173.932 540.893 172.93C538.304 171.934 537.008 168.953 537.996 166.287C538.982 163.624 541.976 162.303 544.677 163.345C547.383 164.388 548.68 167.366 547.585 169.986Z" fill="#0B2641"/>
<path fill-rule="evenodd" clip-rule="evenodd" d="M572.475 181.592C571.136 184.103 568.033 185.127 565.559 183.869C563.083 182.614 562.088 179.501 563.316 176.95C564.557 174.377 567.65 173.364 570.234 174.67C572.812 175.981 573.813 179.084 572.475 181.592Z" fill="#0B2641"/>
<path fill-rule="evenodd" clip-rule="evenodd" d="M582.547 220.063C580.958 222.424 577.791 223.143 575.478 221.655C573.176 220.154 572.493 216.997 573.953 214.593C575.448 212.132 578.63 211.389 581.045 212.959C583.464 214.516 584.137 217.7 582.547 220.063Z" fill="#0B2641"/>
<path fill-rule="evenodd" clip-rule="evenodd" d="M604.474 236.247C602.648 238.433 599.42 238.826 597.275 237.112C595.124 235.404 594.794 232.163 596.511 229.903C598.244 227.627 601.46 227.244 603.712 229.034C605.962 230.827 606.302 234.063 604.474 236.247Z" fill="#0B2641"/>
<path fill-rule="evenodd" clip-rule="evenodd" d="M204.686 552.916C207.254 551.651 210.27 552.647 211.518 555.091C212.836 557.499 211.872 560.568 209.374 561.945C206.878 563.319 203.732 562.398 202.354 559.871C201.044 557.313 202.141 554.171 204.686 552.916Z" fill="#0B2641"/>
<path fill-rule="evenodd" clip-rule="evenodd" d="M193.869 527.915C196.543 526.925 199.491 528.206 200.445 530.78C201.382 533.364 200.222 536.272 197.567 537.397C194.974 538.492 191.824 537.295 190.84 534.592C189.841 531.895 191.2 528.903 193.869 527.915Z" fill="#0B2641"/>
<path fill-rule="evenodd" clip-rule="evenodd" d="M185.706 501.927C188.467 501.219 191.279 502.797 191.983 505.45C192.661 508.113 191.066 510.931 188.37 511.756C185.621 512.6 182.756 511.04 182.042 508.248C181.304 505.467 182.949 502.636 185.706 501.927Z" fill="#0B2641"/>
<path fill-rule="evenodd" clip-rule="evenodd" d="M180.271 475.232C183.086 474.815 185.736 476.673 186.185 479.385C186.63 482.098 184.717 484.745 181.924 485.29C179.129 485.84 176.482 483.984 176.015 481.142C175.548 478.299 177.457 475.655 180.271 475.232Z" fill="#0B2641"/>
<path fill-rule="evenodd" clip-rule="evenodd" d="M177.679 448.112C180.485 447.988 182.917 450.114 183.115 452.858C183.3 455.603 181.142 458.035 178.306 458.293C175.477 458.55 173.02 456.425 172.828 453.551C172.622 450.674 174.806 448.237 177.679 448.112Z" fill="#0B2641"/>
<path fill-rule="evenodd" clip-rule="evenodd" d="M177.982 420.868C180.857 421.042 182.853 423.402 182.826 426.157C182.742 428.908 180.362 431.108 177.519 431.064C174.678 431.025 172.441 428.658 172.532 425.772C172.565 422.884 175.188 420.699 177.982 420.868Z" fill="#0B2641"/>
<path fill-rule="evenodd" clip-rule="evenodd" d="M181.136 393.802C183.938 394.272 185.805 396.851 185.334 399.566C184.982 402.301 182.401 404.239 179.585 403.902C176.767 403.564 174.776 400.968 175.147 398.106C175.641 395.26 178.344 393.333 181.136 393.802Z" fill="#0B2641"/>
<path fill-rule="evenodd" clip-rule="evenodd" d="M187.116 367.215C189.848 367.976 191.455 370.746 190.699 373.4C189.938 376.052 187.287 377.742 184.488 377.101C181.759 376.479 179.936 373.654 180.734 370.873C181.524 368.093 184.387 366.456 187.116 367.215Z" fill="#0B2641"/>
<path fill-rule="evenodd" clip-rule="evenodd" d="M195.852 341.395C198.486 342.44 199.803 345.37 198.783 347.936C197.717 350.49 194.876 351.881 192.186 350.959C189.515 350.044 188.037 347.054 189.15 344.382C190.214 341.691 193.223 340.355 195.852 341.395Z" fill="#0B2641"/>
<path fill-rule="evenodd" clip-rule="evenodd" d="M207.238 316.622C209.745 317.933 210.757 320.991 209.483 323.447C208.174 325.886 205.127 326.938 202.587 325.758C199.996 324.555 198.915 321.462 200.282 318.907C201.612 316.337 204.733 315.315 207.238 316.622Z" fill="#396EAE"/>
<path fill-rule="evenodd" clip-rule="evenodd" d="M221.117 293.15C223.472 294.711 224.162 297.861 222.649 300.178C221.121 302.485 217.944 303.198 215.546 301.767C213.092 300.296 212.377 297.133 213.974 294.714C215.56 292.285 218.76 291.587 221.117 293.15Z" fill="#0B2641"/>
<path fill-rule="evenodd" clip-rule="evenodd" d="M237.352 271.235C239.529 273.032 239.892 276.248 238.152 278.402C236.418 280.559 233.163 280.918 230.911 279.229C228.643 277.526 228.288 274.324 230.108 272.06C231.929 269.801 235.177 269.434 237.352 271.235Z" fill="#0B2641"/>
<path fill-rule="evenodd" clip-rule="evenodd" d="M255.798 251.13C257.774 253.151 257.801 256.396 255.859 258.371C253.917 260.341 250.658 260.374 248.59 258.448C246.525 256.525 246.497 253.283 248.533 251.214C250.574 249.144 253.829 249.109 255.798 251.13Z" fill="#0B2641"/>
<path fill-rule="evenodd" clip-rule="evenodd" d="M276.264 233.073C277.986 235.264 277.698 238.528 275.565 240.298C273.439 242.072 270.211 241.773 268.359 239.64C266.512 237.51 266.816 234.267 269.047 232.405C271.283 230.554 274.496 230.829 276.264 233.073Z" fill="#0B2641"/>
<path fill-rule="evenodd" clip-rule="evenodd" d="M298.543 217.315C300.054 219.714 299.323 222.784 297.06 224.386C294.77 225.946 291.605 225.327 289.993 223.007C288.382 220.69 289.015 217.482 291.415 215.848C293.788 214.172 297.05 214.934 298.543 217.315Z" fill="#0B2641"/>
<path fill-rule="evenodd" clip-rule="evenodd" d="M322.35 203.958C323.599 206.507 322.571 209.522 320.106 210.789C317.679 212.123 314.605 211.192 313.249 208.718C311.89 206.242 312.848 203.098 315.393 201.699C317.973 200.37 321.118 201.436 322.35 203.958Z" fill="#0B2641"/>
<path fill-rule="evenodd" clip-rule="evenodd" d="M347.407 193.133C348.375 195.789 347.059 198.739 344.467 199.714C341.864 200.672 338.96 199.544 337.856 196.909C336.778 194.334 338.01 191.182 340.732 190.177C343.448 189.154 346.438 190.481 347.407 193.133Z" fill="#0B2641"/>
<path fill-rule="evenodd" clip-rule="evenodd" d="M373.449 184.954C374.135 187.697 372.526 190.519 369.854 191.243C367.174 191.945 364.364 190.384 363.563 187.704C362.742 184.972 364.335 182.102 367.139 181.363C369.938 180.6 372.766 182.214 373.449 184.954Z" fill="#0B2641"/>
<path fill-rule="evenodd" clip-rule="evenodd" d="M400.194 179.497C400.589 182.3 398.699 184.96 395.972 185.431C393.245 185.9 390.61 184.02 390.085 181.24C389.563 178.462 391.448 175.804 394.305 175.312C397.161 174.819 399.8 176.698 400.194 179.497Z" fill="#0B2641"/>
<path fill-rule="evenodd" clip-rule="evenodd" d="M427.366 176.881C427.465 179.676 425.308 182.121 422.553 182.344C419.794 182.554 417.374 180.426 417.146 177.603C416.916 174.783 419.066 172.316 421.955 172.098C424.844 171.866 427.266 174.018 427.366 176.881Z" fill="#0B2641"/>
<path fill-rule="evenodd" clip-rule="evenodd" d="M454.658 177.15C454.456 180.018 452.067 182.028 449.302 182.026C446.542 181.969 444.36 179.619 444.428 176.785C444.497 173.954 446.894 171.702 449.789 171.765C452.683 171.771 454.856 174.362 454.658 177.15Z" fill="#0B2641"/>
<path fill-rule="evenodd" clip-rule="evenodd" d="M481.764 180.265C481.268 183.064 478.662 184.949 475.941 184.503C473.202 184.179 471.281 181.627 471.644 178.814C472.009 176.004 474.632 173.994 477.505 174.339C480.357 174.801 482.261 177.478 481.764 180.265Z" fill="#0B2641"/>
<path fill-rule="evenodd" clip-rule="evenodd" d="M508.387 186.202C507.599 188.929 504.803 190.559 502.146 189.832C499.49 189.095 497.82 186.47 498.491 183.677C499.142 180.95 501.991 179.106 504.773 179.875C507.559 180.637 509.175 183.475 508.387 186.202Z" fill="#0B2641"/>
<path fill-rule="evenodd" clip-rule="evenodd" d="M534.244 194.892C533.171 197.527 530.219 198.866 527.649 197.873C525.1 196.836 523.733 194.015 524.682 191.328C525.626 188.658 528.636 187.156 531.311 188.24C534.001 189.276 535.314 192.259 534.244 194.892Z" fill="#0B2641"/>
<path fill-rule="evenodd" clip-rule="evenodd" d="M559.047 206.231C557.71 208.744 554.632 209.781 552.179 208.533C549.745 207.254 548.718 204.226 549.926 201.683C551.158 199.091 554.269 197.982 556.822 199.322C559.389 200.622 560.385 203.723 559.047 206.231Z" fill="#0B2641"/>
<path fill-rule="evenodd" clip-rule="evenodd" d="M569.238 244.872C567.619 247.217 564.413 247.911 562.086 246.416C559.757 244.916 559.089 241.731 560.58 239.305C562.074 236.882 565.275 236.188 567.726 237.766C570.179 239.345 570.851 242.529 569.238 244.872Z" fill="#0B2641"/>
<path fill-rule="evenodd" clip-rule="evenodd" d="M591.053 261.665C589.141 263.835 586.019 263.989 583.825 262.3C581.666 260.575 581.35 257.361 583.119 255.125C584.887 252.891 588.172 252.549 590.446 254.367C592.757 256.15 592.909 259.557 591.053 261.665Z" fill="#0B2641"/>
<path fill-rule="evenodd" clip-rule="evenodd" d="M610.736 280.907C608.611 282.811 605.36 282.715 603.483 280.686C601.644 278.622 601.633 275.475 603.664 273.451C605.674 271.45 609.056 271.413 610.998 273.588C612.977 275.723 612.855 279.006 610.736 280.907Z" fill="#0B2641"/>
<path fill-rule="evenodd" clip-rule="evenodd" d="M227.672 535.97C230.254 534.766 233.337 535.802 234.542 538.289C235.723 540.791 234.709 543.865 232.216 545.19C229.675 546.54 226.536 545.535 225.292 542.899C224.019 540.282 225.09 537.176 227.672 535.97Z" fill="#0B2641"/>
<path fill-rule="evenodd" clip-rule="evenodd" d="M217.471 510.416C220.212 509.51 222.971 510.961 223.986 513.537C224.948 516.132 223.566 519.073 220.91 520.106C218.255 521.141 215.275 519.767 214.263 517.036C213.199 514.324 214.805 511.3 217.471 510.416Z" fill="#0B2641"/>
<path fill-rule="evenodd" clip-rule="evenodd" d="M210.339 483.841C213.131 483.268 215.868 484.996 216.449 487.704C216.985 490.42 215.344 493.167 212.591 493.882C209.833 494.6 206.961 492.904 206.394 490.043C205.781 487.192 207.555 484.416 210.339 483.841Z" fill="#0B2641"/>
<path fill-rule="evenodd" clip-rule="evenodd" d="M206.391 456.614C209.234 456.372 211.632 458.421 211.999 461.17C212.313 463.919 210.279 466.469 207.458 466.859C204.64 467.247 202.077 465.214 201.743 462.314C201.364 459.419 203.567 456.855 206.391 456.614Z" fill="#0B2641"/>
<path fill-rule="evenodd" clip-rule="evenodd" d="M205.718 429.106C208.556 429.199 210.796 431.525 210.71 434.296C210.572 437.069 208.41 439.358 205.537 439.412C202.73 439.469 200.265 437.146 200.406 434.226C200.497 431.306 202.879 429.014 205.718 429.106Z" fill="#0B2641"/>
<path fill-rule="evenodd" clip-rule="evenodd" d="M208.26 401.699C211.032 402.126 212.987 404.702 212.651 407.457C212.294 410.21 209.706 412.212 206.881 411.932C204.057 411.648 202.066 409.069 202.438 406.167C202.793 403.262 205.426 401.265 208.26 401.699Z" fill="#0B2641"/>
<path fill-rule="evenodd" clip-rule="evenodd" d="M214.142 374.812C216.873 375.572 218.474 378.359 217.713 381.03C217.027 383.722 214.31 385.426 211.531 384.809C208.776 384.195 207.019 381.375 207.743 378.536C208.542 375.717 211.413 374.052 214.142 374.812Z" fill="#0B2641"/>
<path fill-rule="evenodd" clip-rule="evenodd" d="M223.107 348.781C225.725 349.858 227.025 352.834 225.999 355.421C224.976 358.009 221.959 359.337 219.301 358.401C216.614 357.458 215.328 354.49 216.405 351.762C217.486 349.033 220.491 347.704 223.107 348.781Z" fill="#0B2641"/>
<path fill-rule="evenodd" clip-rule="evenodd" d="M235.12 323.997C237.593 325.376 238.421 328.429 237.183 330.924C235.902 333.4 232.796 334.387 230.258 333.14C227.719 331.894 226.748 328.769 228.097 326.164C229.407 323.536 232.652 322.621 235.12 323.997Z" fill="#0B2641"/>
<path fill-rule="evenodd" clip-rule="evenodd" d="M249.961 300.788C252.25 302.446 252.785 305.625 251.142 307.879C249.554 310.17 246.433 310.843 244.043 309.299C241.689 307.773 241.011 304.501 242.686 302.089C244.411 299.712 247.675 299.131 249.961 300.788Z" fill="#0B2641"/>
<path fill-rule="evenodd" clip-rule="evenodd" d="M267.392 279.451C269.465 281.372 269.646 284.622 267.789 286.705C265.934 288.785 262.652 288.994 260.494 287.199C258.312 285.383 258.137 282.144 260.092 279.947C262.049 277.752 265.32 277.532 267.392 279.451Z" fill="#0B2641"/>
<path fill-rule="evenodd" clip-rule="evenodd" d="M287.285 260.379C289.136 262.562 288.797 265.664 286.772 267.586C284.72 269.478 281.479 269.337 279.541 267.282C277.602 265.231 277.783 261.949 279.948 259.958C282.083 257.935 285.486 258.255 287.285 260.379Z" fill="#0B2641"/>
<path fill-rule="evenodd" clip-rule="evenodd" d="M309.291 243.781C310.843 246.14 310.24 249.333 307.931 250.907C305.597 252.44 302.449 251.981 300.773 249.712C299.096 247.439 299.618 244.131 302.074 242.512C304.503 240.855 307.737 241.426 309.291 243.781Z" fill="#0B2641"/>
<path fill-rule="evenodd" clip-rule="evenodd" d="M333.103 229.899C334.364 232.424 333.34 235.445 330.916 236.831C328.469 238.173 325.354 237.265 323.961 234.809C322.571 232.355 323.526 229.211 326.103 227.794C328.66 226.338 331.841 227.373 333.103 229.899Z" fill="#0B2641"/>
<path fill-rule="evenodd" clip-rule="evenodd" d="M358.403 218.946C359.354 221.605 358.011 224.567 355.399 225.551C352.769 226.481 349.852 225.376 348.748 222.736C347.671 220.165 348.926 216.987 351.695 216.002C354.446 214.965 357.45 216.287 358.403 218.946Z" fill="#0B2641"/>
<path fill-rule="evenodd" clip-rule="evenodd" d="M384.798 210.993C385.425 213.723 383.737 216.492 381.056 217.254C378.365 217.988 375.553 216.368 374.78 213.649C374.006 210.934 375.672 208.099 378.507 207.326C381.335 206.525 384.161 208.212 384.798 210.993Z" fill="#0B2641"/>
<path fill-rule="evenodd" clip-rule="evenodd" d="M411.957 206.256C412.257 209.07 410.259 211.635 407.493 211.977C404.73 212.313 402.153 210.527 401.704 207.702C401.259 204.942 403.226 202.168 406.139 201.808C409.051 201.447 411.656 203.445 411.957 206.256Z" fill="#0B2641"/>
<path fill-rule="evenodd" clip-rule="evenodd" d="M439.479 204.664C439.442 207.457 437.156 209.838 434.375 209.911C431.596 209.988 429.248 207.747 429.134 204.916C429.022 202.089 431.306 199.725 434.236 199.644C437.169 199.568 439.514 201.796 439.479 204.664Z" fill="#0B2641"/>
<path fill-rule="evenodd" clip-rule="evenodd" d="M466.987 206.45C466.611 209.263 464.068 211.284 461.309 210.954C458.54 210.721 456.471 208.294 456.699 205.459C456.923 202.642 459.477 200.483 462.396 200.727C465.305 201.076 467.358 203.643 466.987 206.45Z" fill="#0B2641"/>
<path fill-rule="evenodd" clip-rule="evenodd" d="M494.099 211.393C493.392 214.144 490.618 215.896 487.905 215.297C485.197 214.698 483.456 211.945 484.016 209.165C484.58 206.384 487.349 204.633 490.206 205.266C493.063 205.895 494.804 208.645 494.099 211.393Z" fill="#0B2641"/>
<path fill-rule="evenodd" clip-rule="evenodd" d="M520.395 219.6C519.353 222.292 516.465 223.509 513.814 222.686C511.178 221.822 509.767 218.922 510.656 216.223C511.544 213.526 514.517 212.073 517.293 212.987C520.085 213.859 521.41 216.993 520.395 219.6Z" fill="#0B2641"/>
<path fill-rule="evenodd" clip-rule="evenodd" d="M545.545 230.835C544.211 233.349 541.121 234.378 538.65 233.122C536.207 231.815 535.076 228.926 536.293 226.31C537.478 223.769 540.673 222.514 543.247 223.886C545.851 225.206 546.877 228.323 545.545 230.835Z" fill="#0B2641"/>
<path fill-rule="evenodd" clip-rule="evenodd" d="M555.524 269.526C553.89 271.835 550.745 272.434 548.424 270.992C546.123 269.511 545.486 266.347 546.995 263.932C548.503 261.519 551.708 260.827 554.145 262.399C556.608 263.932 557.181 267.191 555.524 269.526Z" fill="#0B2641"/>
<path fill-rule="evenodd" clip-rule="evenodd" d="M576.838 286.582C574.896 288.666 571.655 288.9 569.609 287.091C567.589 285.248 567.339 282.076 569.145 279.896C570.971 277.683 574.278 277.371 576.423 279.324C578.596 281.243 578.778 284.498 576.838 286.582Z" fill="#0B2641"/>
<path fill-rule="evenodd" clip-rule="evenodd" d="M595.643 306.356C593.439 308.165 590.224 307.94 588.475 305.847C586.656 303.809 586.829 300.634 588.932 298.692C591.014 296.765 594.338 296.892 596.268 299.052C598.127 301.271 597.846 304.545 595.643 306.356Z" fill="#0B2641"/>
<path fill-rule="evenodd" clip-rule="evenodd" d="M611.635 328.447C609.173 329.973 606.163 329.23 604.58 327.004C603.04 324.75 603.695 321.585 606.025 319.944C608.355 318.304 611.575 318.91 613.205 321.303C614.882 323.67 614.02 326.971 611.635 328.447Z" fill="#0B2641"/>
<path fill-rule="evenodd" clip-rule="evenodd" d="M601.798 559.417C599.536 557.718 599.014 554.529 600.634 552.303C602.288 550.098 605.435 549.504 607.775 551.054C610.151 552.626 610.761 555.866 609.007 558.209C607.289 560.574 604.055 561.112 601.798 559.417Z" fill="#0B2641"/>
<path fill-rule="evenodd" clip-rule="evenodd" d="M272.406 556.829C274.724 555.168 277.949 555.586 279.593 557.762C281.23 559.948 280.777 563.156 278.586 564.926C276.343 566.738 273.102 566.343 271.366 564.022C269.62 561.711 270.088 558.488 272.406 556.829Z" fill="#0B2641"/>
<path fill-rule="evenodd" clip-rule="evenodd" d="M257.958 533.683C260.477 532.344 263.586 533.199 264.896 535.594C266.174 538.011 265.453 541.04 262.985 542.543C260.585 544.005 257.271 543.273 255.913 540.712C254.521 538.17 255.444 535.02 257.958 533.683Z" fill="#0B2641"/>
<path fill-rule="evenodd" clip-rule="evenodd" d="M246.712 508.839C249.391 507.84 252.309 509.119 253.293 511.667C254.368 514.177 253.111 517.147 250.504 518.298C247.894 519.447 244.854 518.219 243.717 515.554C242.672 512.853 244.05 509.827 246.712 508.839Z" fill="#0B2641"/>
<path fill-rule="evenodd" clip-rule="evenodd" d="M238.839 482.723C241.638 482.081 244.275 483.756 245.023 486.387C245.725 489.028 244.065 491.818 241.329 492.615C238.595 493.408 235.769 491.783 235.027 488.98C234.236 486.189 236.086 483.353 238.839 482.723Z" fill="#0B2641"/>
<path fill-rule="evenodd" clip-rule="evenodd" d="M234.487 455.792C237.285 455.534 239.862 457.524 240.172 460.242C240.483 462.962 238.447 465.514 235.635 465.94C232.82 466.37 230.263 464.379 229.931 461.496C229.606 458.609 231.618 456.059 234.487 455.792Z" fill="#0B2641"/>
<path fill-rule="evenodd" clip-rule="evenodd" d="M233.827 428.519C236.665 428.634 238.907 430.951 238.823 433.687C238.693 436.425 236.46 438.688 233.617 438.738C230.776 438.79 228.385 436.475 228.521 433.571C228.61 430.663 230.99 428.4 233.827 428.519Z" fill="#0B2641"/>
<path fill-rule="evenodd" clip-rule="evenodd" d="M236.823 401.4C239.62 401.896 241.496 404.487 241.01 407.19C240.613 409.902 238.067 411.843 235.237 411.513C232.431 411.186 230.404 408.575 230.828 405.695C231.342 402.828 234.031 400.904 236.823 401.4Z" fill="#0B2641"/>
<path fill-rule="evenodd" clip-rule="evenodd" d="M243.408 374.916C246.129 375.788 247.516 378.576 246.814 381.232C246.064 383.875 243.219 385.44 240.473 384.738C237.728 384.036 236.14 381.19 236.938 378.386C237.69 375.57 240.734 374.057 243.408 374.916Z" fill="#0B2641"/>
<path fill-rule="evenodd" clip-rule="evenodd" d="M253.467 349.538C256.023 350.755 257.175 353.776 256.035 356.278C254.884 358.778 251.833 359.942 249.244 358.895C246.589 357.816 245.424 354.796 246.642 352.145C247.852 349.486 250.912 348.322 253.467 349.538Z" fill="#0B2641"/>
<path fill-rule="evenodd" clip-rule="evenodd" d="M266.849 325.74C269.218 327.281 269.926 330.406 268.416 332.711C267.011 335.078 263.901 335.875 261.439 334.475C258.988 333.076 258.17 329.888 259.661 327.376C261.257 324.93 264.48 324.198 266.849 325.74Z" fill="#0B2641"/>
<path fill-rule="evenodd" clip-rule="evenodd" d="M283.208 303.868C285.333 305.703 285.591 308.874 283.893 311.046C282.165 313.192 278.936 313.534 276.689 311.821C274.442 310.107 274.104 306.868 275.939 304.591C277.744 302.288 281.057 302.015 283.208 303.868Z" fill="#0B2641"/>
<path fill-rule="evenodd" clip-rule="evenodd" d="M302.368 284.39C304.235 286.508 304.113 289.748 302.083 291.612C300.03 293.452 296.819 293.39 294.845 291.41C292.833 289.389 292.902 286.098 295.082 284.142C297.234 282.16 300.501 282.276 302.368 284.39Z" fill="#0B2641"/>
<path fill-rule="evenodd" clip-rule="evenodd" d="M323.993 267.692C325.557 270.041 324.983 273.216 322.706 274.768C320.446 276.344 317.321 275.922 315.603 273.65C313.915 271.418 314.383 268.096 316.78 266.421C319.198 264.77 322.43 265.344 323.993 267.692Z" fill="#0B2641"/>
<path fill-rule="evenodd" clip-rule="evenodd" d="M347.638 253.992C348.885 256.557 347.84 259.531 345.417 260.844C343 262.175 339.918 261.249 338.533 258.786C337.153 256.326 338.104 253.182 340.669 251.775C343.246 250.381 346.415 251.48 347.638 253.992Z" fill="#8DBF57"/>
<path fill-rule="evenodd" clip-rule="evenodd" d="M372.896 243.545C373.776 246.211 372.366 249.083 369.801 250.096C367.223 251.066 364.286 249.715 363.244 247.089C362.204 244.464 363.575 241.494 366.313 240.465C369.035 239.396 372.008 240.846 372.896 243.545Z" fill="#0B2641"/>
<path fill-rule="evenodd" clip-rule="evenodd" d="M399.312 236.511C399.832 239.293 398.071 242.038 395.382 242.637C392.692 243.222 389.962 241.481 389.29 238.771C388.599 235.995 390.355 233.244 393.208 232.618C396.06 231.985 398.794 233.733 399.312 236.511Z" fill="#0B2641"/>
<path fill-rule="evenodd" clip-rule="evenodd" d="M426.428 233.108C426.568 235.934 424.459 238.405 421.717 238.611C418.971 238.761 416.514 236.863 416.206 234.016C415.897 231.24 417.984 228.547 420.9 228.379C423.81 228.159 426.284 230.28 426.428 233.108Z" fill="#0B2641"/>
<path fill-rule="evenodd" clip-rule="evenodd" d="M453.748 233.315C453.512 236.14 451.095 238.276 448.353 238.092C445.606 238.038 443.44 235.684 443.508 232.854C443.582 230.022 445.999 227.769 448.917 227.833C451.825 228.026 453.987 230.494 453.748 233.315Z" fill="#0B2641"/>
<path fill-rule="evenodd" clip-rule="evenodd" d="M480.799 237.145C480.177 239.93 477.519 241.635 474.803 241.227C472.099 240.77 470.276 238.117 470.726 235.317C471.175 232.517 473.869 230.635 476.74 231.124C479.621 231.563 481.414 234.391 480.799 237.145Z" fill="#0B2641"/>
<path fill-rule="evenodd" clip-rule="evenodd" d="M507.088 244.555C506.106 247.224 503.194 248.702 500.592 247.847C497.992 246.982 496.55 244.083 497.366 241.397C498.197 238.647 501.108 237.164 503.869 238.078C506.631 238.988 508.071 241.891 507.088 244.555Z" fill="#0B2641"/>
<path fill-rule="evenodd" clip-rule="evenodd" d="M532.118 255.475C530.79 257.992 527.732 259.035 525.291 257.795C522.822 256.614 521.728 253.656 522.917 251.051C524.087 248.48 527.221 247.286 529.838 248.536C532.427 249.849 533.447 252.962 532.118 255.475Z" fill="#0B2641"/>
<path fill-rule="evenodd" clip-rule="evenodd" d="M542.122 294.615C540.42 296.914 537.284 297.396 535.058 295.772C532.699 294.342 532.036 291.233 533.568 288.83C535.099 286.434 538.389 285.727 540.909 287.264C543.296 288.998 543.807 292.334 542.122 294.615Z" fill="#0B2641"/>
<path fill-rule="evenodd" clip-rule="evenodd" d="M563.2 312.499C561.167 314.499 557.874 314.607 555.86 312.734C553.843 310.859 553.744 307.602 555.633 305.467C557.518 303.332 560.808 303.222 562.97 305.233C565.13 307.244 565.228 310.501 563.2 312.499Z" fill="#0B2641"/>
<path fill-rule="evenodd" clip-rule="evenodd" d="M581.052 333.587C578.735 335.245 575.544 334.779 573.941 332.542C572.419 330.243 572.62 327.184 574.841 325.348C577.019 323.552 580.494 323.784 582.139 326.244C583.861 328.634 583.372 331.929 581.052 333.587Z" fill="#0B2641"/>
<path fill-rule="evenodd" clip-rule="evenodd" d="M595.573 357.097C594.301 357.742 592.915 357.802 591.697 357.406C590.407 357.045 589.266 356.233 588.572 355.037C587.192 352.655 588.07 349.544 590.527 348.092C592.98 346.64 596.173 347.528 597.648 350.084C598.383 351.355 598.538 352.779 598.182 354.037C597.756 355.334 596.841 356.45 595.573 357.097Z" fill="#0B2641"/>
<path fill-rule="evenodd" clip-rule="evenodd" d="M606.018 382.676C603.305 383.546 600.368 382.14 599.473 379.535C598.579 376.93 600.007 373.96 602.66 372.905C605.305 371.853 608.237 373.257 609.198 376.046C610.156 378.837 608.727 381.808 606.018 382.676Z" fill="#0B2641"/>
<path fill-rule="evenodd" clip-rule="evenodd" d="M605.873 491.482C603.104 490.576 601.944 487.825 602.556 485.119C603.244 482.439 606.04 480.83 608.789 481.525C611.54 482.218 613.173 485.108 612.425 487.982C611.754 490.874 608.485 492.342 605.873 491.482Z" fill="#0B2641"/>
<path fill-rule="evenodd" clip-rule="evenodd" d="M595.175 516.981C592.656 515.692 591.592 512.617 592.807 510.12C594.021 507.624 597.126 506.511 599.728 507.628C602.327 508.743 603.393 511.816 602.09 514.487C600.792 517.156 597.689 518.273 595.175 516.981Z" fill="#0B2641"/>
<path fill-rule="evenodd" clip-rule="evenodd" d="M580.684 540.531C578.393 538.856 577.937 535.731 579.59 533.502C581.045 531.136 584.175 530.444 586.567 531.951C588.96 533.454 589.638 536.727 588.072 539.252C586.308 541.648 582.957 542.189 580.684 540.531Z" fill="#0B2641"/>
<path fill-rule="evenodd" clip-rule="evenodd" d="M562.744 561.597C560.76 559.591 560.682 556.311 562.578 554.284C564.478 552.255 567.75 552.128 569.875 553.991C571.999 555.849 572.075 559.125 570.04 561.299C568.002 563.471 564.733 563.6 562.744 561.597Z" fill="#0B2641"/>
<path fill-rule="evenodd" clip-rule="evenodd" d="M295.396 540.352C297.719 538.692 300.906 539.156 302.51 541.393C304.035 543.694 303.831 546.755 301.61 548.587C299.435 550.384 295.96 550.153 294.313 547.696C292.59 545.3 293.079 542.01 295.396 540.352Z" fill="#0B2641"/>
<path fill-rule="evenodd" clip-rule="evenodd" d="M280.879 516.847C282.152 516.198 283.538 516.139 284.754 516.537C286.045 516.899 287.184 517.706 287.877 518.904C289.261 521.285 288.378 524.398 285.925 525.851C283.473 527.301 280.277 526.411 278.802 523.855C278.07 522.585 277.914 521.161 278.266 519.905C278.696 518.609 279.609 517.489 280.879 516.847Z" fill="#EF7438"/>
<path fill-rule="evenodd" clip-rule="evenodd" d="M270.434 491.259C273.147 490.389 276.082 491.794 276.98 494.401C277.872 497.008 276.441 499.977 273.793 501.031C271.145 502.086 268.214 500.682 267.252 497.889C266.292 495.1 267.723 492.127 270.434 491.259Z" fill="#0B2641"/>
<path fill-rule="evenodd" clip-rule="evenodd" d="M264.039 464.397C266.855 463.957 269.45 465.816 269.826 468.546C270.31 471.26 268.69 473.926 265.878 474.563C263.14 475.189 260.207 473.397 259.688 470.493C259.279 467.568 261.232 464.834 264.039 464.397Z" fill="#0B2641"/>
<path fill-rule="evenodd" clip-rule="evenodd" d="M261.714 436.854C264.559 436.856 266.969 439.095 267.088 441.856C267.204 444.613 264.989 447.007 262.152 447.201C259.315 447.396 256.905 445.157 256.785 442.201C256.661 439.246 258.873 436.851 261.714 436.854Z" fill="#0B2641"/>
<path fill-rule="evenodd" clip-rule="evenodd" d="M264.118 409.319C266.919 409.771 268.859 412.353 268.431 415.083C268.008 417.815 265.36 419.827 262.533 419.573C259.706 419.323 257.77 416.742 258.22 413.814C258.67 410.885 261.318 408.873 264.118 409.319Z" fill="#0B2641"/>
<path fill-rule="evenodd" clip-rule="evenodd" d="M270.581 382.454C273.35 383.36 274.511 386.112 273.895 388.816C273.206 391.498 270.411 393.105 267.66 392.413C264.915 391.719 263.281 388.828 264.024 385.956C264.697 383.061 267.967 381.592 270.581 382.454Z" fill="#0B2641"/>
<path fill-rule="evenodd" clip-rule="evenodd" d="M281.282 356.959C283.799 358.252 284.863 361.326 283.65 363.821C282.432 366.315 279.329 367.427 276.727 366.315C274.125 365.199 273.064 362.125 274.362 359.456C275.662 356.783 278.768 355.668 281.282 356.959Z" fill="#0B2641"/>
<path fill-rule="evenodd" clip-rule="evenodd" d="M295.764 333.405C298.057 335.077 298.509 338.201 296.86 340.432C295.405 342.797 292.275 343.49 289.878 341.984C287.488 340.482 286.809 337.21 288.377 334.681C290.139 332.289 293.492 331.744 295.764 333.405Z" fill="#0B2641"/>
<path fill-rule="evenodd" clip-rule="evenodd" d="M313.701 312.341C315.69 314.344 315.768 317.625 313.867 319.654C311.967 321.681 308.7 321.808 306.572 319.948C304.451 318.086 304.372 314.809 306.41 312.637C308.447 310.467 311.716 310.335 313.701 312.341Z" fill="#0B2641"/>
<path fill-rule="evenodd" clip-rule="evenodd" d="M334.845 294.493C336.487 296.79 335.993 299.973 333.73 301.591C331.407 303.133 328.339 302.961 326.522 300.764C324.739 298.613 325.003 295.143 327.485 293.482C329.902 291.741 333.202 292.2 334.845 294.493Z" fill="#0B2641"/>
<path fill-rule="evenodd" clip-rule="evenodd" d="M358.408 279.974C359.043 281.235 359.09 282.615 358.681 283.833C358.307 285.122 357.483 286.264 356.277 286.968C353.872 288.368 350.76 287.519 349.326 285.088C347.893 282.654 348.815 279.465 351.393 277.969C352.675 277.225 354.107 277.062 355.363 277.4C356.66 277.815 357.772 278.713 358.408 279.974Z" fill="#0B2641"/>
<path fill-rule="evenodd" clip-rule="evenodd" d="M384.04 269.512C384.888 272.209 383.449 275.147 380.826 276.066C378.204 276.982 375.238 275.583 374.206 272.954C373.172 270.326 374.609 267.39 377.417 266.404C380.229 265.422 383.196 266.817 384.04 269.512Z" fill="#0B2641"/>
<path fill-rule="evenodd" clip-rule="evenodd" d="M410.962 263.1C411.376 265.898 409.487 268.507 406.739 268.906C404.012 269.413 401.356 267.826 400.74 265.029C400.141 262.307 401.967 259.366 404.886 258.822C407.826 258.383 410.547 260.306 410.962 263.1Z" fill="#0B2641"/>
<path fill-rule="evenodd" clip-rule="evenodd" d="M438.545 260.747C438.513 263.581 436.243 266.004 433.474 266.148C430.707 266.291 428.327 264.106 428.159 261.281C427.991 258.456 430.26 256.033 433.224 255.884C436.193 255.734 438.575 257.915 438.545 260.747Z" fill="#0B2641"/>
<path fill-rule="evenodd" clip-rule="evenodd" d="M466.124 263.11C465.648 265.907 463.039 267.862 460.302 267.466C457.561 267.067 455.571 264.449 455.849 261.626C456.131 258.805 458.735 256.853 461.673 257.275C464.608 257.696 466.602 260.316 466.124 263.11Z" fill="#0B2641"/>
<path fill-rule="evenodd" clip-rule="evenodd" d="M493.024 269.53C492.089 272.299 489.317 273.481 486.61 272.894C483.928 272.234 482.339 269.461 483.063 266.715C483.782 263.971 486.698 262.316 489.576 263.03C492.474 263.675 493.914 266.917 493.024 269.53Z" fill="#0B2641"/>
<path fill-rule="evenodd" clip-rule="evenodd" d="M518.552 280.183C517.231 282.704 514.135 283.794 511.642 282.606C509.149 281.417 508.063 278.333 509.206 275.731C510.352 273.127 513.443 272.039 516.113 273.309C518.78 274.578 519.87 277.663 518.552 280.183Z" fill="#0B2641"/>
<path fill-rule="evenodd" clip-rule="evenodd" d="M528.301 319.335C526.553 321.582 523.377 322.089 521.221 320.452C519.129 318.728 518.406 315.814 519.993 313.39C521.523 311.052 524.937 310.19 527.226 312.046C529.569 313.817 530.048 317.083 528.301 319.335Z" fill="#0B2641"/>
<path fill-rule="evenodd" clip-rule="evenodd" d="M548.424 337.802C546.29 339.696 543.106 339.586 541.324 337.552C539.376 335.68 539.347 332.539 541.324 330.469C543.286 328.42 546.656 328.342 548.769 330.382C550.712 332.584 550.554 335.91 548.424 337.802Z" fill="#0B2641"/>
<path fill-rule="evenodd" clip-rule="evenodd" d="M564.785 359.678C562.295 361.176 559.356 360.379 557.807 358.166C556.223 355.97 556.828 352.837 559.145 351.174C561.46 349.51 564.73 350.089 566.44 352.478C568.119 354.884 567.181 358.238 564.785 359.678Z" fill="#0B2641"/>
<path fill-rule="evenodd" clip-rule="evenodd" d="M576.841 384.192C574.125 385.213 571.424 383.879 570.199 381.456C569.074 378.996 570.265 376.01 572.844 374.797C575.425 373.582 578.507 374.762 579.722 377.434C581.03 380.067 579.459 383.211 576.841 384.192Z" fill="#0B2641"/>
<path fill-rule="evenodd" clip-rule="evenodd" d="M584.194 410.506C582.795 410.766 581.448 410.437 580.406 409.721C579.309 409.016 578.431 407.94 578.119 406.615C577.484 403.979 579.215 401.253 581.971 400.527C584.722 399.801 587.519 401.527 588.199 404.387C588.531 405.809 588.294 407.212 587.567 408.319C586.782 409.439 585.593 410.246 584.194 410.506Z" fill="#0B2641"/>
<path fill-rule="evenodd" clip-rule="evenodd" d="M586.617 437.73C583.85 437.713 581.406 435.501 581.296 432.789C581.182 430.078 583.399 427.709 586.234 427.495C589.069 427.284 591.479 429.495 591.599 432.436C591.713 435.381 589.535 437.751 586.617 437.73Z" fill="#0B2641"/>
<path fill-rule="evenodd" clip-rule="evenodd" d="M583.905 464.941C581.124 464.399 579.188 461.78 579.602 459.092C580.018 456.411 582.653 454.487 585.477 454.796C588.297 455.109 590.226 457.725 589.774 460.641C589.323 463.558 586.687 465.483 583.905 464.941Z" fill="#0B2641"/>
<path fill-rule="evenodd" clip-rule="evenodd" d="M576.149 491.16C573.516 490.112 572.135 487.19 573.075 484.631C574.017 482.077 576.989 480.682 579.699 481.51C582.407 482.336 583.786 485.256 582.766 488.03C581.747 490.804 578.776 492.203 576.149 491.16Z" fill="#0B2641"/>
<path fill-rule="evenodd" clip-rule="evenodd" d="M563.733 515.517C561.341 514.01 560.558 510.899 561.995 508.578C563.48 506.286 566.588 505.414 569.038 506.694C571.601 508.032 572.485 511.193 570.886 513.686C569.332 516.206 566.124 517.024 563.733 515.517Z" fill="#0B2641"/>
<path fill-rule="evenodd" clip-rule="evenodd" d="M547.145 537.25C545.076 535.328 544.903 532.149 546.775 530.159C548.616 528.146 551.635 527.694 553.898 529.475C556.077 531.184 556.558 534.623 554.562 536.812C552.538 538.98 549.211 539.171 547.145 537.25Z" fill="#0B2641"/>
<path fill-rule="evenodd" clip-rule="evenodd" d="M526.833 555.569C525.145 553.274 525.635 550.195 527.788 548.522C529.843 546.717 533.015 546.99 534.87 549.117C536.725 551.244 536.425 554.558 534.192 556.509C531.854 558.328 528.491 557.82 526.833 555.569Z" fill="#0B2641"/>
<path fill-rule="evenodd" clip-rule="evenodd" d="M348.147 554.607C349.897 552.357 353.069 551.851 355.225 553.488C357.321 555.214 358.046 558.126 356.453 560.551C354.924 562.888 351.509 563.751 349.226 561.892C346.878 560.121 346.399 556.854 348.147 554.607Z" fill="#0B2641"/>
<path fill-rule="evenodd" clip-rule="evenodd" d="M328.025 536.133C330.158 534.242 333.34 534.348 335.125 536.383C337.073 538.256 337.103 541.397 335.122 543.464C333.162 545.514 329.788 545.595 327.679 543.553C325.732 541.353 325.895 538.026 328.025 536.133Z" fill="#0B2641"/>
<path fill-rule="evenodd" clip-rule="evenodd" d="M311.664 514.26C314.152 512.758 317.09 513.555 318.644 515.77C320.224 517.963 319.618 521.097 317.3 522.764C314.989 524.425 311.717 523.845 310.009 521.458C308.331 519.052 309.267 515.701 311.664 514.26Z" fill="#0B2641"/>
<path fill-rule="evenodd" clip-rule="evenodd" d="M299.615 489.745C302.33 488.723 305.031 490.057 306.251 492.482C307.377 494.942 306.187 497.925 303.609 499.142C301.031 500.355 297.947 499.177 296.731 496.505C295.422 493.867 296.994 490.729 299.615 489.745Z" fill="#0B2641"/>
<path fill-rule="evenodd" clip-rule="evenodd" d="M292.247 463.43C293.649 463.171 294.996 463.501 296.039 464.213C297.137 464.918 298.015 465.994 298.327 467.319C298.959 469.954 297.228 472.68 294.472 473.406C291.72 474.134 288.926 472.407 288.242 469.549C287.912 468.124 288.149 466.721 288.879 465.615C289.661 464.494 290.85 463.686 292.247 463.43Z" fill="#0B2641"/>
<path fill-rule="evenodd" clip-rule="evenodd" d="M289.829 436.201C292.595 436.222 295.042 438.435 295.15 441.145C295.268 443.855 293.05 446.227 290.212 446.436C287.38 446.652 284.97 444.441 284.846 441.499C284.735 438.555 286.914 436.185 289.829 436.201Z" fill="#0B2641"/>
<path fill-rule="evenodd" clip-rule="evenodd" d="M292.542 408.997C295.329 409.537 297.26 412.158 296.847 414.841C296.432 417.529 293.799 419.449 290.974 419.139C288.155 418.827 286.222 416.212 286.673 413.296C287.129 410.378 289.76 408.455 292.542 408.997Z" fill="#0B2641"/>
<path fill-rule="evenodd" clip-rule="evenodd" d="M300.296 382.774C302.928 383.822 304.309 386.747 303.367 389.301C302.428 391.857 299.455 393.254 296.743 392.427C294.036 391.601 292.654 388.679 293.676 385.902C294.695 383.129 297.666 381.729 300.296 382.774Z" fill="#0B2641"/>
<path fill-rule="evenodd" clip-rule="evenodd" d="M312.707 358.416C315.102 359.924 315.885 363.035 314.449 365.353C312.963 367.649 309.855 368.518 307.401 367.238C304.838 365.901 303.954 362.74 305.557 360.246C307.112 357.726 310.318 356.911 312.707 358.416Z" fill="#0B2641"/>
<path fill-rule="evenodd" clip-rule="evenodd" d="M329.305 336.688C331.375 338.611 331.542 341.791 329.674 343.782C327.829 345.794 324.817 346.244 322.551 344.466C320.374 342.754 319.89 339.317 321.886 337.125C323.912 334.961 327.24 334.767 329.305 336.688Z" fill="#0B2641"/>
<path fill-rule="evenodd" clip-rule="evenodd" d="M349.62 318.372C351.305 320.665 350.819 323.746 348.662 325.418C346.613 327.221 343.44 326.948 341.582 324.819C339.727 322.692 340.026 319.381 342.26 317.432C344.6 315.612 347.964 316.117 349.62 318.372Z" fill="#0B2641"/>
<path fill-rule="evenodd" clip-rule="evenodd" d="M372.967 304.103C374.225 306.72 373.09 309.49 370.768 310.938C368.408 312.313 365.33 311.443 363.903 309.007C362.478 306.573 363.395 303.385 365.961 301.896C368.491 300.341 371.783 301.627 372.967 304.103Z" fill="#0B2641"/>
<path fill-rule="evenodd" clip-rule="evenodd" d="M398.544 294.342C399.277 297.078 397.699 299.745 395.144 300.737C392.568 301.642 389.705 300.205 388.755 297.547C387.802 294.887 389.291 291.934 392.09 290.957C394.862 289.896 397.813 291.619 398.544 294.342Z" fill="#0B2641"/>
<path fill-rule="evenodd" clip-rule="evenodd" d="M425.476 289.408C425.688 292.167 423.67 294.706 420.977 295.15C418.28 295.552 415.728 293.6 415.28 290.807C414.836 288.016 416.842 285.392 419.769 284.962C422.693 284.491 425.253 286.526 425.476 289.408Z" fill="#0B2641"/>
<path fill-rule="evenodd" clip-rule="evenodd" d="M452.862 289.486C452.555 292.305 450.098 294.501 447.379 294.38C444.659 294.258 442.518 291.848 442.595 289.019C442.671 286.188 445.124 283.993 448.076 284.127C451.027 284.264 453.17 286.668 452.862 289.486Z" fill="#0B2641"/>
<path fill-rule="evenodd" clip-rule="evenodd" d="M479.722 294.725C478.895 297.446 476.083 299.131 473.447 298.48C470.812 297.827 469.161 295.037 469.765 292.261C470.363 289.49 473.171 287.804 476.036 288.515C478.899 289.222 480.547 292.01 479.722 294.725Z" fill="#0B2641"/>
<path fill-rule="evenodd" clip-rule="evenodd" d="M505.14 304.83C503.832 307.355 500.779 308.467 498.328 307.3C495.88 306.129 494.796 303.048 495.896 300.427C497 297.807 500.048 296.697 502.706 297.961C505.364 299.224 506.452 302.304 505.14 304.83Z" fill="#0B2641"/>
<path fill-rule="evenodd" clip-rule="evenodd" d="M514.393 343.981C512.569 346.168 509.377 346.662 507.272 345.072C505.17 343.479 504.772 340.265 506.369 337.908C507.969 335.549 511.155 335.06 513.485 336.818C515.815 338.58 516.217 341.794 514.393 343.981Z" fill="#0B2641"/>
<path fill-rule="evenodd" clip-rule="evenodd" d="M533.217 363.183C532.082 364.063 530.753 364.388 529.486 364.274C528.168 364.194 526.924 363.663 526.046 362.666C524.304 360.689 524.59 357.499 526.674 355.555C528.756 353.608 532.017 353.8 533.94 355.992C534.899 357.084 535.316 358.438 535.203 359.725C535.044 361.05 534.338 362.316 533.217 363.183Z" fill="#EF7438"/>
<path fill-rule="evenodd" clip-rule="evenodd" d="M547.156 386.166C544.563 387.356 541.571 386.372 540.478 383.973C539.151 381.694 540.085 378.675 542.548 377.239C545.008 375.803 548.197 376.682 549.652 379.209C550.873 381.858 549.744 384.979 547.156 386.166Z" fill="#0B2641"/>
<path fill-rule="evenodd" clip-rule="evenodd" d="M555.751 411.623C552.966 412.212 550.198 410.611 549.585 408.042C549.021 405.46 550.638 402.708 553.298 401.864C556.069 400.99 558.937 402.558 559.572 405.414C560.251 408.253 558.536 411.037 555.751 411.623Z" fill="#0B2641"/>
<path fill-rule="evenodd" clip-rule="evenodd" d="M558.489 438.366C555.708 438.325 553.403 436.15 553.24 433.507C553.126 430.867 555.345 428.53 558.181 428.288C561.012 428.047 563.418 430.222 563.541 433.144C563.712 436.07 561.389 438.405 558.489 438.366Z" fill="#0B2641"/>
<path fill-rule="evenodd" clip-rule="evenodd" d="M555.053 465.029C552.282 464.353 550.626 461.73 551.232 459.155C551.629 456.534 554.244 454.739 557.058 455.134C559.866 455.529 561.785 458.199 561.333 461.095C560.668 463.953 557.79 465.702 555.053 465.029Z" fill="#0B2641"/>
<path fill-rule="evenodd" clip-rule="evenodd" d="M545.804 490.275C543.274 489.006 542.156 486.035 543.323 483.645C544.584 481.294 547.35 480.05 550.016 481.072C552.639 482.075 554.086 485.184 552.715 487.788C551.431 490.432 548.331 491.542 545.804 490.275Z" fill="#0B2641"/>
<path fill-rule="evenodd" clip-rule="evenodd" d="M531.26 512.912C529.08 511.113 528.615 507.936 530.233 505.826C531.851 503.715 535.082 503.287 537.428 504.856C539.78 506.428 540.244 509.6 538.457 511.94C536.667 514.278 533.438 514.71 531.26 512.912Z" fill="#0B2641"/>
<path fill-rule="evenodd" clip-rule="evenodd" d="M512.007 531.725C511.138 530.604 510.825 529.282 510.949 528.016C511.042 526.699 511.588 525.459 512.595 524.573C514.595 522.818 517.792 523.072 519.728 525.133C521.657 527.187 521.435 530.438 519.218 532.378C518.115 533.345 516.753 533.773 515.462 533.673C514.134 533.527 512.867 532.834 512.007 531.725Z" fill="#0B2641"/>
<path fill-rule="evenodd" clip-rule="evenodd" d="M488.977 545.677C487.808 543.104 488.82 540.111 491.242 538.998C493.54 537.657 496.559 538.557 497.979 541C499.397 543.437 498.486 546.622 495.934 548.099C493.263 549.339 490.141 548.243 488.977 545.677Z" fill="#0B2641"/>
<path fill-rule="evenodd" clip-rule="evenodd" d="M463.468 554.289C462.903 551.519 464.539 548.746 467.12 548.109C469.719 547.524 472.466 549.11 473.285 551.751C474.139 554.506 472.538 557.38 469.665 558.035C466.81 558.743 464.033 557.059 463.468 554.289Z" fill="#0B2641"/>
<path fill-rule="evenodd" clip-rule="evenodd" d="M436.683 557.056C436.748 554.282 438.955 551.966 441.607 551.774C444.258 551.64 446.582 553.829 446.795 556.651C447.009 559.47 444.808 561.89 441.871 562.038C438.937 562.239 436.614 559.944 436.683 557.056Z" fill="#0B2641"/>
<path fill-rule="evenodd" clip-rule="evenodd" d="M409.983 553.651C410.69 550.884 413.334 549.207 415.917 549.786C418.538 550.158 420.317 552.748 419.893 555.554C419.468 558.357 416.775 560.296 413.869 559.871C411.012 559.238 409.285 556.383 409.983 553.651Z" fill="#0B2641"/>
<path fill-rule="evenodd" clip-rule="evenodd" d="M384.703 544.449C385.999 541.918 388.993 540.778 391.379 541.919C393.724 543.15 394.951 545.894 393.897 548.564C392.866 551.183 389.733 552.658 387.13 551.315C384.491 550.062 383.405 546.982 384.703 544.449Z" fill="#0B2641"/>
<path fill-rule="evenodd" clip-rule="evenodd" d="M362.05 529.956C363.876 527.766 367.068 527.272 369.174 528.867C371.276 530.459 371.674 533.674 370.078 536.027C368.479 538.386 365.288 538.877 362.959 537.116C360.632 535.358 360.229 532.145 362.05 529.956Z" fill="#0B2641"/>
<path fill-rule="evenodd" clip-rule="evenodd" d="M343.235 510.75C344.366 509.872 345.695 509.547 346.967 509.659C348.284 509.738 349.527 510.272 350.406 511.267C352.149 513.243 351.861 516.432 349.779 518.378C347.694 520.323 344.437 520.134 342.51 517.94C341.552 516.852 341.133 515.496 341.248 514.211C341.409 512.884 342.114 511.617 343.235 510.75Z" fill="#0B2641"/>
<path fill-rule="evenodd" clip-rule="evenodd" d="M329.291 487.776C331.884 486.587 334.877 487.567 335.969 489.969C337.295 492.248 336.36 495.263 333.899 496.702C331.436 498.138 328.249 497.261 326.794 494.733C325.576 492.081 326.705 488.961 329.291 487.776Z" fill="#0B2641"/>
<path fill-rule="evenodd" clip-rule="evenodd" d="M320.695 462.31C323.48 461.721 326.251 463.326 326.862 465.891C327.424 468.477 325.81 471.229 323.152 472.071C320.379 472.948 317.51 471.375 316.878 468.522C316.194 465.684 317.914 462.901 320.695 462.31Z" fill="#0B2641"/>
<path fill-rule="evenodd" clip-rule="evenodd" d="M317.96 435.571C320.742 435.612 323.045 437.789 323.21 440.43C323.322 443.073 321.103 445.411 318.269 445.649C315.435 445.888 313.027 443.716 312.909 440.793C312.735 437.87 315.061 435.532 317.96 435.571Z" fill="#0B2641"/>
<path fill-rule="evenodd" clip-rule="evenodd" d="M321.398 408.906C324.168 409.582 325.825 412.205 325.218 414.783C324.818 417.4 322.204 419.199 319.393 418.802C316.584 418.406 314.66 415.738 315.118 412.84C315.78 409.986 318.659 408.235 321.398 408.906Z" fill="#0B2641"/>
<path fill-rule="evenodd" clip-rule="evenodd" d="M330.647 383.659C333.178 384.928 334.293 387.902 333.127 390.288C331.864 392.638 329.099 393.886 326.432 392.864C323.812 391.859 322.36 388.75 323.736 386.146C325.019 383.502 328.119 382.391 330.647 383.659Z" fill="#0B2641"/>
<path fill-rule="evenodd" clip-rule="evenodd" d="M345.187 361.022C347.367 362.82 347.829 365.996 346.213 368.112C344.594 370.222 341.364 370.649 339.015 369.08C336.663 367.508 336.203 364.334 337.991 361.994C339.781 359.656 343.008 359.227 345.187 361.022Z" fill="#0B2641"/>
<path fill-rule="evenodd" clip-rule="evenodd" d="M364.445 342.217C365.316 343.334 365.629 344.657 365.501 345.923C365.409 347.238 364.865 348.483 363.858 349.369C361.857 351.119 358.662 350.866 356.725 348.809C354.794 346.749 355.018 343.502 357.234 341.559C358.337 340.597 359.702 340.166 360.991 340.269C362.318 340.414 363.583 341.106 364.445 342.217Z" fill="#0B2641"/>
<path fill-rule="evenodd" clip-rule="evenodd" d="M387.472 328.263C388.641 330.835 387.626 333.827 385.208 334.939C382.908 336.283 379.888 335.379 378.47 332.94C377.053 330.499 377.964 327.315 380.514 325.841C383.183 324.599 386.304 325.694 387.472 328.263Z" fill="#0B2641"/>
<path fill-rule="evenodd" clip-rule="evenodd" d="M412.984 319.646C413.549 322.416 411.915 325.194 409.332 325.826C406.735 326.412 403.988 324.831 403.167 322.183C402.314 319.434 403.917 316.557 406.786 315.9C409.644 315.193 412.422 316.877 412.984 319.646Z" fill="#0B2641"/>
<path fill-rule="evenodd" clip-rule="evenodd" d="M439.768 316.887C439.7 319.658 437.496 321.976 434.842 322.163C432.192 322.302 429.868 320.113 429.653 317.289C429.44 314.468 431.645 312.049 434.578 311.9C437.512 311.703 439.839 313.995 439.768 316.887Z" fill="#0B2641"/>
<path fill-rule="evenodd" clip-rule="evenodd" d="M466.468 320.285C465.761 323.048 463.114 324.727 460.536 324.147C457.911 323.773 456.132 321.187 456.555 318.38C456.979 315.578 459.677 313.637 462.578 314.063C465.438 314.698 467.167 317.55 466.468 320.285Z" fill="#0B2641"/>
<path fill-rule="evenodd" clip-rule="evenodd" d="M491.746 329.483C490.448 332.017 487.458 333.156 485.071 332.015C482.724 330.783 481.501 328.04 482.553 325.369C483.582 322.75 486.718 321.275 489.316 322.62C491.955 323.874 493.041 326.953 491.746 329.483Z" fill="#0B2641"/>
<path fill-rule="evenodd" clip-rule="evenodd" d="M500.897 369.466C498.906 371.567 495.826 371.68 493.762 370.015C491.645 368.422 491.292 365.243 492.965 362.936C494.636 360.63 497.954 360.235 500.365 362.069C502.717 363.972 502.827 367.434 500.897 369.466Z" fill="#0B2641"/>
<path fill-rule="evenodd" clip-rule="evenodd" d="M518.008 390.886C515.509 392.302 512.466 391.546 511.068 389.298C509.514 387.146 510.121 384.004 512.399 382.289C514.675 380.577 517.959 381.172 519.72 383.635C521.323 386.196 520.473 389.499 518.008 390.886Z" fill="#0B2641"/>
<path fill-rule="evenodd" clip-rule="evenodd" d="M528.037 416.405C525.257 417.021 522.489 415.433 521.879 412.845C521.097 410.313 522.515 407.505 525.212 406.523C527.869 405.556 530.909 407.061 531.793 409.954C532.505 412.897 530.814 415.788 528.037 416.405Z" fill="#0B2641"/>
<path fill-rule="evenodd" clip-rule="evenodd" d="M530.113 443.746C527.281 443.521 525.092 441.186 525.244 438.53C525.404 435.874 527.421 433.6 530.323 433.449C533.098 433.295 535.714 435.627 535.545 438.66C535.384 441.695 532.941 443.973 530.113 443.746Z" fill="#0B2641"/>
<path fill-rule="evenodd" clip-rule="evenodd" d="M523.989 470.491C521.36 469.437 519.962 466.55 520.887 464.049C521.913 461.576 524.42 459.969 527.254 460.687C529.916 461.355 531.806 464.389 530.658 467.218C529.61 470.077 526.616 471.542 523.989 470.491Z" fill="#0B2641"/>
<path fill-rule="evenodd" clip-rule="evenodd" d="M510.25 494.26C508.051 492.483 507.58 489.314 509.211 487.195C510.838 485.069 513.776 484.309 516.244 485.81C518.605 487.245 519.439 490.652 517.594 493.082C515.742 495.512 512.445 496.032 510.25 494.26Z" fill="#0B2641"/>
<path fill-rule="evenodd" clip-rule="evenodd" d="M490.128 512.944C488.564 510.595 489.048 507.412 491.226 505.857C493.422 504.32 496.435 504.444 498.342 506.618C500.165 508.682 499.955 512.209 497.461 513.976C494.981 515.761 491.69 515.293 490.128 512.944Z" fill="#0B2641"/>
<path fill-rule="evenodd" clip-rule="evenodd" d="M465.378 524.885C464.581 522.174 465.979 519.245 468.508 518.365C471.072 517.581 473.906 518.596 475.074 521.22C476.206 523.754 474.961 527.057 472.043 527.978C469.163 528.989 466.176 527.594 465.378 524.885Z" fill="#0B2641"/>
<path fill-rule="evenodd" clip-rule="evenodd" d="M438.204 529.056C438.244 526.221 440.441 523.798 443.105 523.662C444.45 523.585 445.711 524.128 446.693 524.971C447.669 525.764 448.373 526.957 448.53 528.363C448.686 529.767 448.243 531.13 447.365 532.195C446.484 533.207 445.156 533.827 443.646 533.913C440.604 534.071 438.167 531.887 438.204 529.056Z" fill="#0B2641"/>
<path fill-rule="evenodd" clip-rule="evenodd" d="M411.032 524.997C411.898 522.34 414.722 520.618 417.302 521.266C419.878 521.943 421.565 524.678 421.063 527.404C420.537 530.26 417.716 532.01 414.77 531.248C411.824 530.508 410.138 527.741 411.032 524.997Z" fill="#0B2641"/>
<path fill-rule="evenodd" clip-rule="evenodd" d="M386.276 513.097C387.908 510.764 391.082 509.978 393.353 511.358C394.498 512.054 395.241 513.186 395.554 514.472C395.88 515.723 395.807 517.066 395.132 518.334C394.47 519.579 393.314 520.501 392.015 520.851C390.736 521.168 389.283 520.961 388 520.181C385.41 518.611 384.645 515.431 386.276 513.097Z" fill="#0B2641"/>
<path fill-rule="evenodd" clip-rule="evenodd" d="M366.109 494.471C368.36 492.719 371.615 492.899 373.366 494.888C374.249 495.892 374.619 497.197 374.534 498.519C374.511 499.78 374.016 501.075 373.008 502.085C372.001 503.092 370.654 503.611 369.279 503.594C367.969 503.523 366.641 502.896 365.65 501.771C363.649 499.499 363.864 496.225 366.109 494.471Z" fill="#0B2641"/>
<path fill-rule="evenodd" clip-rule="evenodd" d="M352.409 470.695C355.007 469.699 358.066 470.829 359.175 473.236C360.264 475.657 359.119 478.714 356.676 480.043C354.105 481.432 351.029 480.318 349.786 477.56C348.525 474.809 349.685 471.739 352.409 470.695Z" fill="#0B2641"/>
<path fill-rule="evenodd" clip-rule="evenodd" d="M346.328 443.946C347.742 443.834 349.054 444.301 350.019 445.104C351.033 445.905 351.811 447.036 351.984 448.364C352.353 450.994 350.373 453.593 347.585 454.164C344.796 454.733 342.181 452.766 341.765 449.762C341.565 448.276 341.923 446.86 342.765 445.807C343.649 444.745 344.909 444.058 346.328 443.946Z" fill="#0B2641"/>
<path fill-rule="evenodd" clip-rule="evenodd" d="M348.392 416.593C351.178 417.243 352.745 419.836 352.441 422.485C352.038 425.114 349.4 427.022 346.576 426.75C343.75 426.477 341.821 423.819 342.289 420.814C342.66 417.79 345.657 415.952 348.392 416.593Z" fill="#0B2641"/>
<path fill-rule="evenodd" clip-rule="evenodd" d="M358.445 391.059C360.891 392.488 361.654 395.452 360.573 397.903C359.405 400.308 356.327 401.36 353.717 400.263C351.108 399.165 350.06 396.053 351.395 393.317C352.647 390.532 356.009 389.633 358.445 391.059Z" fill="#0B2641"/>
<path fill-rule="evenodd" clip-rule="evenodd" d="M375.546 369.569C377.437 371.644 377.325 374.744 375.56 376.76C373.732 378.715 370.482 378.815 368.314 377.003C366.149 375.192 366.077 371.907 368.167 369.677C370.197 367.386 373.635 367.473 375.546 369.569Z" fill="#0B2641"/>
<path fill-rule="evenodd" clip-rule="evenodd" d="M398.263 354.122C399.48 356.722 398.395 359.55 396.128 360.989C393.814 362.338 390.694 361.488 389.172 359.111C387.648 356.737 388.546 353.554 391.191 352.022C393.788 350.401 397.09 351.606 398.263 354.122Z" fill="#0B2641"/>
<path fill-rule="evenodd" clip-rule="evenodd" d="M424.513 346.026C424.908 348.891 423.037 351.291 420.443 351.944C417.848 352.59 415.132 350.888 414.379 348.162C413.628 345.439 415.418 342.628 418.381 341.9C421.343 341.172 424.138 343.284 424.513 346.026Z" fill="#0B2641"/>
<path fill-rule="evenodd" clip-rule="evenodd" d="M451.969 345.985C451.503 348.807 448.994 350.694 446.344 350.42C443.682 350.306 441.595 347.898 441.684 345.067C441.771 342.238 444.31 340.043 447.349 340.188C450.374 340.502 452.431 343.211 451.969 345.985Z" fill="#0B2641"/>
<path fill-rule="evenodd" clip-rule="evenodd" d="M478.193 354.066C476.914 356.629 473.955 357.718 471.525 356.641C469.018 355.755 467.745 352.84 468.67 350.153C469.595 347.469 472.666 346.111 475.521 347.138C478.295 348.355 479.454 351.54 478.193 354.066Z" fill="#0B2641"/>
<path fill-rule="evenodd" clip-rule="evenodd" d="M486.252 394.559C484.031 396.469 481.111 396.283 479.196 394.662C477.375 392.948 477.339 389.769 479.08 387.599C480.912 385.327 484.185 385.161 486.391 387.24C488.684 389.228 488.361 392.761 486.252 394.559Z" fill="#0B2641"/>
<path fill-rule="evenodd" clip-rule="evenodd" d="M499.355 417.711C496.622 418.536 493.748 417.285 492.928 414.92C491.879 412.645 493.109 409.732 495.642 408.424C498.176 407.117 501.26 408.279 502.506 411.038C503.515 413.888 502.077 416.888 499.355 417.711Z" fill="#0B2641"/>
<path fill-rule="evenodd" clip-rule="evenodd" d="M501.906 444.201C499.155 443.856 497.011 441.546 497.123 439.039C497.376 436.535 499.359 434.356 502.267 434.18C505.033 434.002 507.691 436.314 507.422 439.347C507.286 442.384 504.789 444.555 501.906 444.201Z" fill="#0B2641"/>
<path fill-rule="evenodd" clip-rule="evenodd" d="M493.38 469.426C490.952 467.962 490.14 465.073 491.157 462.76C491.717 461.608 492.751 460.808 493.99 460.391C495.166 459.955 496.537 459.895 497.86 460.41C499.173 460.92 500.188 461.933 500.687 463.188C501.126 464.409 501.056 465.875 500.397 467.227C499.142 470.01 495.794 470.883 493.38 469.426Z" fill="#0B2641"/>
<path fill-rule="evenodd" clip-rule="evenodd" d="M475.37 489.047C473.725 486.667 474.225 483.761 476.087 482.051C477.97 480.373 481.193 480.688 483.15 482.617C485.215 484.653 484.957 487.87 482.666 489.891C480.395 491.942 476.929 491.311 475.37 489.047Z" fill="#0B2641"/>
<path fill-rule="evenodd" clip-rule="evenodd" d="M450.936 499.699C450.421 496.917 451.989 494.153 454.442 493.557C456.849 492.799 459.591 494.213 460.615 496.867C461.625 499.48 460.14 502.51 457.229 503.419C454.272 504.157 451.448 502.48 450.936 499.699Z" fill="#0B2641"/>
<path fill-rule="evenodd" clip-rule="evenodd" d="M424.29 499.463C424.609 498.077 425.426 496.968 426.447 496.241C427.487 495.451 428.725 495.042 429.984 495.226C432.462 495.685 434.394 497.941 434.245 500.798C434.099 503.598 431.501 505.929 428.497 505.4C427.011 505.188 425.761 504.421 424.996 503.368C424.239 502.249 423.972 500.842 424.29 499.463Z" fill="#0B2641"/>
<path fill-rule="evenodd" clip-rule="evenodd" d="M400.064 488.403C401.809 486.126 404.768 485.611 406.968 486.827C408.055 487.488 408.739 488.584 409.017 489.848C409.307 491.079 409.221 492.424 408.557 493.694C407.238 496.282 404.027 497.184 401.468 495.564C398.827 494.071 398.346 490.646 400.064 488.403Z" fill="#0B2641"/>
<path fill-rule="evenodd" clip-rule="evenodd" d="M382.435 468.488C384.978 467.092 387.898 467.822 389.325 469.87C390.788 471.899 390.161 475.017 387.951 476.819C385.745 478.624 382.506 478.106 380.746 475.642C379.028 473.152 379.973 469.827 382.435 468.488Z" fill="#0B2641"/>
<path fill-rule="evenodd" clip-rule="evenodd" d="M374.391 443.119C377.224 442.876 379.826 444.688 380.166 447.173C380.568 449.643 378.94 452.21 376.154 452.979C373.453 453.727 370.503 451.988 370.01 449.003C369.582 446.003 371.56 443.368 374.391 443.119Z" fill="#0B2641"/>
<path fill-rule="evenodd" clip-rule="evenodd" d="M377.481 416.678C378.827 417.124 379.854 418.05 380.447 419.125C381.074 420.217 381.384 421.498 381.053 422.73C380.336 425.143 377.79 426.827 374.994 426.41C372.179 425.995 370.224 423.209 371.069 420.278C371.455 418.826 372.32 417.645 373.501 417.001C374.723 416.368 376.14 416.231 377.481 416.678Z" fill="#0B2641"/>
<path fill-rule="evenodd" clip-rule="evenodd" d="M391.039 393.752C393.13 395.713 393.272 398.664 391.82 400.736C390.252 402.718 387.12 403.143 384.789 401.661C382.351 400.111 381.833 396.858 383.724 394.457C385.507 391.97 389.014 391.848 391.039 393.752Z" fill="#0B2641"/>
<path fill-rule="evenodd" clip-rule="evenodd" d="M412.742 378.291C413.833 380.927 412.817 383.835 410.569 384.985C408.392 386.262 405.355 385.36 403.809 382.997C402.263 380.634 403.142 377.46 405.788 375.933C408.501 374.539 411.675 375.71 412.742 378.291Z" fill="#0B2641"/>
<path fill-rule="evenodd" clip-rule="evenodd" d="M438.854 372.932C438.774 375.689 436.67 378.159 434.155 378.273C431.637 378.354 429.271 376.596 428.819 373.734C428.375 371.011 430.435 368.155 433.48 368.03C436.524 367.884 438.931 370.029 438.854 372.932Z" fill="#0B2641"/>
<path fill-rule="evenodd" clip-rule="evenodd" d="M464.845 378.743C463.617 381.299 460.8 382.457 458.401 381.7C457.201 381.279 456.315 380.32 455.773 379.164C455.22 378.072 455.036 376.699 455.422 375.333C455.807 373.968 456.716 372.869 457.925 372.209C459.112 371.612 460.575 371.539 461.989 372.037C464.883 372.979 466.078 376.171 464.845 378.743Z" fill="#0B2641"/>
<path fill-rule="evenodd" clip-rule="evenodd" d="M471.106 422.289C468.482 423.38 465.563 422.463 464.277 420.405C463.592 419.371 463.38 418.147 463.627 416.855C463.801 415.632 464.399 414.362 465.478 413.424C466.548 412.49 467.934 412.098 469.357 412.319C470.693 412.592 472.089 413.463 473.006 414.858C474.804 417.755 473.742 421.193 471.106 422.289Z" fill="#0B2641"/>
<path fill-rule="evenodd" clip-rule="evenodd" d="M471.831 449.81C469.187 448.726 467.854 446.033 468.369 443.651C468.896 441.279 471.378 439.405 474.184 439.514C477.054 439.627 479.154 442.492 478.419 445.838C477.668 449.186 474.422 450.874 471.831 449.81Z" fill="#0B2641"/>
<path fill-rule="evenodd" clip-rule="evenodd" d="M452.866 469.804C451.797 467.199 452.743 464.284 454.823 462.986C455.864 462.291 457.098 462.07 458.389 462.302C459.614 462.465 460.883 463.048 461.814 464.113C462.743 465.174 463.121 466.55 462.887 467.971C462.602 469.305 461.711 470.703 460.304 471.63C457.38 473.449 453.943 472.424 452.866 469.804Z" fill="#0B2641"/>
<path fill-rule="evenodd" clip-rule="evenodd" d="M425.323 470.571C426.433 467.924 429.151 466.571 431.536 467.063C433.91 467.563 435.77 470.022 435.63 472.817C435.493 475.681 432.599 477.799 429.248 477.098C425.891 476.383 424.227 473.163 425.323 470.571Z" fill="#0B2641"/>
<path fill-rule="evenodd" clip-rule="evenodd" d="M405.343 451.646C407.967 450.554 410.887 451.472 412.168 453.53C412.858 454.564 413.065 455.789 412.819 457.078C412.648 458.302 412.05 459.573 410.972 460.511C409.898 461.442 408.512 461.835 407.091 461.617C405.751 461.343 404.357 460.47 403.443 459.077C401.645 456.18 402.706 452.745 405.343 451.646Z" fill="#0B2641"/>
<path fill-rule="evenodd" clip-rule="evenodd" d="M404.62 424.128C407.262 425.207 408.593 427.903 408.077 430.285C407.556 432.655 405.069 434.531 402.268 434.42C399.396 434.31 397.296 431.445 398.03 428.1C398.781 424.747 402.026 423.059 404.62 424.128Z" fill="#0B2641"/>
<path fill-rule="evenodd" clip-rule="evenodd" d="M423.578 404.129C424.65 406.736 423.703 409.653 421.625 410.949C420.579 411.645 419.35 411.865 418.055 411.631C416.829 411.472 415.56 410.887 414.632 409.824C413.705 408.761 413.324 407.383 413.559 405.967C413.846 404.63 414.734 403.231 416.139 402.306C419.065 400.484 422.503 401.513 423.578 404.129Z" fill="#0B2641"/>
<path fill-rule="evenodd" clip-rule="evenodd" d="M451.125 403.365C450.011 406.01 447.296 407.365 444.911 406.873C442.535 406.371 440.678 403.914 440.812 401.12C440.953 398.258 443.849 396.137 447.198 396.838C450.553 397.552 452.217 400.771 451.125 403.365Z" fill="#0B2641"/>
</svg>
