<svg width="254" height="155" viewBox="0 0 254 155" fill="none" xmlns="http://www.w3.org/2000/svg">
<path d="M128.16 3.69483C127.104 -0.32589 121.474 -0.418756 117.405 0.42735C98.4054 4.37241 77.1668 11.2513 58.6694 17.119C47.701 20.7373 37.0318 25.2637 26.8063 30.6395C23.7245 32.2595 20.175 35.5236 21.9051 38.5468C23.1536 40.7309 26.2319 40.779 28.7358 40.5176C54.9995 37.7695 80.878 31.3584 105.391 21.5284C112.297 18.7596 119.214 15.6435 124.8 10.7285C126.853 8.91248 128.855 6.34665 128.16 3.69483Z" fill="#F4F7FB"/>
<path d="M226.838 151.34C227.144 156.891 226.432 162.787 223.715 168.187C223.663 168.29 223.608 168.393 223.553 168.496C223.526 168.555 223.495 168.61 223.464 168.668C223.292 168.998 223.11 169.329 222.917 169.652C221.971 171.275 220.829 172.844 219.464 174.333C217.772 176.18 215.674 177.845 213.28 179.344C212.977 179.537 212.671 179.723 212.358 179.905C211.67 180.314 210.958 180.71 210.225 181.091C195.649 188.72 173.117 191.499 160.505 192.497C157.378 192.552 154.255 192.731 151.146 193.026H151.132C151.129 193.026 151.129 193.026 151.129 193.026C145.705 193.539 140.315 194.406 135.008 195.627C116.775 199.812 99.6504 208.064 81.3594 211.995C64.9945 215.514 46.5109 214.939 32.8287 205.825C29.9533 203.909 27.6558 201.236 26.1046 198.148C24.3401 194.633 22.8612 191.503 21.3375 188.545C21.1002 188.084 20.8629 187.63 20.6221 187.176C20.5843 187.107 20.5499 187.038 20.512 186.97C18.6272 183.444 16.5842 180.108 13.7845 176.575C13.3648 176.046 12.928 175.509 12.4706 174.969L12.4671 174.966C12.2401 174.694 12.0063 174.419 11.762 174.14C11.6898 174.054 11.6142 173.968 11.5385 173.882C10.8368 173.084 10.0939 172.273 9.30284 171.444C6.56503 168.579 3.61399 165.923 0.776436 163.155C0.525356 162.911 0.274274 162.663 0.0231943 162.415C-0.176294 162.219 -0.372342 162.02 -0.57183 161.82C-1.33883 161.05 -2.09207 160.266 -2.82811 159.464C-16.3899 144.65 -22.5568 123.374 -19.0176 103.601C-15.4784 83.8306 -2.31564 66.0142 15.5454 56.824C18.8267 55.1352 22.218 53.7388 25.6884 52.5522C26.1459 52.3939 26.6033 52.2426 27.0642 52.0913C38.5589 48.3629 50.8549 46.8186 62.8173 44.6242C87.1068 40.177 110.856 32.7925 133.385 22.6839C137.134 21.002 140.862 19.241 144.601 17.4869C145.058 17.2702 145.519 17.057 145.976 16.8437C157.99 11.2237 170.101 5.8134 183.109 3.59151C188.701 2.63878 194.483 2.29828 200.01 3.56743C214.714 6.95186 225.067 22.0958 225.07 37.1847C225.077 54.4232 213.792 70.231 214.122 87.4661C214.239 93.5952 215.825 99.5007 218.215 105.155C220.461 110.476 223.419 115.573 226.535 120.426C226.735 120.736 226.934 121.042 227.137 121.352C229.246 124.609 231.44 127.832 233.566 131.085L226.425 147.161C226.621 148.523 226.762 149.92 226.838 151.34Z" fill="#F4F7FB"/>
<path d="M223.715 168.187C223.663 168.29 223.608 168.393 223.553 168.496L65.844 184.614L65.7202 184.627L11.762 174.14C11.6898 174.055 11.6142 173.969 11.5385 173.883C10.8368 173.085 10.0939 172.273 9.30284 171.444C6.56504 168.579 3.61399 165.924 0.776435 163.155C0.525355 162.911 0.274274 162.663 0.0231934 162.415L142.049 155.612L207.997 152.455L224.506 151.478L226.838 151.34C227.144 156.892 226.432 162.787 223.715 168.187Z" fill="#F4F7FB"/>
<path d="M145.976 16.8438V111.092C145.976 111.47 145.667 111.78 145.289 111.78C144.907 111.78 144.601 111.47 144.601 111.092V17.4869C145.058 17.2702 145.519 17.057 145.976 16.8438Z" fill="white"/>
<path d="M27.0642 52.0913V151.767C27.0642 152.148 26.7581 152.455 26.3763 152.455C25.998 152.455 25.6884 152.148 25.6884 151.767V52.5522C26.1459 52.394 26.6033 52.2426 27.0642 52.0913Z" fill="white"/>
<path d="M17.9118 162.154L5.63982 126.054C3.07742 118.518 5.75332 110.157 12.2814 105.61C19.8688 100.323 33.7092 95.0057 58.9582 93.1312C115.135 88.9591 55.9762 159.478 55.9762 159.478L17.9118 162.154Z" fill="#296DB3"/>
<path d="M91.3958 75.3936L95.3855 72.4735L100.486 70.0659L116.17 75.3936L122.867 146.284L105.559 150.635L93.628 114.693L91.3958 75.3936Z" fill="white"/>
<path d="M113.945 74.7095C115.441 77.8978 114.12 81.6434 114.626 85.131C117.57 105.469 116.837 126.291 117.154 146.79C117.202 149.903 117.336 153.274 119.293 155.698C119.665 156.159 120.119 156.589 120.686 156.768C121.133 156.909 121.615 156.881 122.086 156.854C128.734 156.452 135.383 156.049 142.031 155.647C139.871 142.879 137.711 130.109 135.551 117.342C140.738 123.777 145.921 130.212 151.108 136.647C153.303 130.903 155.493 125.159 157.688 119.412C157.949 118.724 158.217 117.998 158.114 117.273C158.025 116.626 157.657 116.059 157.296 115.515C152.229 107.89 146.909 100.437 141.313 93.1897C137.918 88.7906 134.365 84.4156 129.852 81.1757C125.182 77.8153 119.434 76.0337 113.945 74.7095Z" fill="#9DDCA0"/>
<path d="M134.021 115.79L134.54 156.09L142.049 155.612L135.655 118.363L134.021 115.79Z" fill="#9DDCA0"/>
<path d="M139.366 152.964C139.376 153.407 139.036 153.782 138.668 154.026C137.99 154.47 137.175 154.639 136.374 154.749C132.745 155.241 128.979 154.663 125.663 153.112C127.011 154.928 128.356 156.74 129.704 158.556C129.883 158.797 130.072 159.086 129.993 159.375C129.931 159.609 129.715 159.76 129.512 159.887C129.237 160.056 128.948 160.207 128.655 160.341C127.101 161.064 125.34 161.339 123.641 161.112C120.015 160.627 116.951 157.985 113.322 157.504C111.489 157.256 109.632 157.583 107.781 157.69C105.931 157.793 103.96 157.641 102.447 156.575C102.082 156.321 101.742 156.004 101.577 155.591C101.154 154.553 101.955 153.459 102.605 152.544C102.808 152.259 102.997 151.966 103.176 151.667C104.115 150.119 104.755 148.396 105.054 146.611C107.052 146.491 109.587 145.817 111.517 145.297C114.327 144.544 117.35 143.385 120.022 144.53C120.645 144.798 121.212 145.18 121.776 145.559C126.447 148.699 131.545 151.842 137.175 151.839C138.093 151.839 139.349 152.045 139.366 152.964Z" fill="#A37661"/>
<path d="M128.655 160.341C127.101 161.064 125.34 161.339 123.641 161.112C120.015 160.627 116.951 157.985 113.322 157.504C111.489 157.256 109.632 157.583 107.781 157.689C105.931 157.793 103.96 157.641 102.447 156.575C102.082 156.321 101.742 156.004 101.577 155.591C101.154 154.553 101.955 153.459 102.605 152.544C102.808 152.259 102.997 151.966 103.176 151.667C104.497 152.616 107.259 153.779 112.524 153.129C120.865 152.097 119.145 156.912 125.078 158.632C126.987 159.186 128.067 159.784 128.655 160.341Z" fill="#7F5C4C"/>
<path d="M183.663 78.754C185.695 78.754 187.343 77.1063 187.343 75.0738C187.343 73.0412 185.695 71.3936 183.663 71.3936C181.63 71.3936 179.982 73.0412 179.982 75.0738C179.982 77.1063 181.63 78.754 183.663 78.754Z" fill="#296DB3"/>
<path d="M183.663 82.9465C179.322 82.9465 175.79 79.4142 175.79 75.0736C175.79 70.733 179.322 67.2007 183.663 67.2007C188.003 67.2007 191.535 70.733 191.535 75.0736C191.535 79.4142 188.007 82.9465 183.663 82.9465ZM183.663 67.5412C179.511 67.5412 176.134 70.9187 176.134 75.0702C176.134 79.2216 179.511 82.5991 183.663 82.5991C187.814 82.5991 191.192 79.2216 191.192 75.0702C191.192 70.9222 187.814 67.5412 183.663 67.5412Z" fill="#296DB3"/>
<path d="M150.379 21.6866C151.139 21.6866 151.755 21.0707 151.755 20.3108C151.755 19.551 151.139 18.9351 150.379 18.9351C149.619 18.9351 149.003 19.551 149.003 20.3108C149.003 21.0707 149.619 21.6866 150.379 21.6866Z" fill="#296DB3"/>
<path d="M3.07398 91.6901C0.267381 91.6901 -2.01642 89.4063 -2.01642 86.5997C-2.01642 83.7931 0.267381 81.5093 3.07398 81.5093C5.88057 81.5093 8.16437 83.7931 8.16437 86.5997C8.1678 89.4063 5.88401 91.6901 3.07398 91.6901ZM3.07398 82.1972C0.645721 82.1972 -1.32853 84.1714 -1.32853 86.5997C-1.32853 89.0279 0.645721 91.0022 3.07398 91.0022C5.50223 91.0022 7.47647 89.0279 7.47647 86.5997C7.47991 84.1714 5.50223 82.1972 3.07398 82.1972Z" fill="#296DB3"/>
<path d="M46.0053 32.2044C46.0053 33.3532 45.0732 34.2853 43.9244 34.2853C42.7757 34.2853 41.8436 33.3532 41.8436 32.2044C41.8436 31.0556 42.7757 30.1235 43.9244 30.1235C45.0732 30.1235 46.0053 31.0556 46.0053 32.2044Z" fill="#296DB3"/>
<path d="M240.29 115.955L233.566 131.085L226.425 147.161L224.506 151.478L219.082 163.685L137.698 165.862L142.049 155.612L160.942 111.113C161.97 108.695 164.268 107.057 166.888 106.872C176.288 106.218 199.391 104.794 218.215 105.155C224.441 105.272 230.202 105.589 234.838 106.191C236.475 106.404 237.875 107.157 238.914 108.234C240.813 110.187 241.514 113.204 240.29 115.955Z" fill="#9DBCDC"/>
<path d="M200.712 133.355C199.646 137.18 195.673 140.654 191.842 141.115C188.01 141.576 185.771 138.845 186.837 135.02C187.903 131.195 191.876 127.722 195.708 127.261C199.539 126.8 201.778 129.531 200.712 133.355Z" fill="#F4F7FB"/>
<path d="M105.559 146.088C104.999 136.702 104.115 127.337 102.908 118.012C101.931 110.459 101.009 102.872 99.1689 95.4666C98.2506 91.7726 97.1018 88.1337 95.6366 84.6151C94.2505 81.2823 91.9873 77.6468 93.3941 73.9287C89.707 76.5771 87.2787 77.6605 83.0516 79.3115C79.6466 80.6425 76.1108 81.6262 72.7367 83.0364C70.7762 83.855 68.8536 84.8283 67.2542 86.2248C65.4451 87.8035 64.1174 89.8534 62.8758 91.9067C61.4725 94.2284 60.1414 96.5982 58.9995 99.0608C57.1663 103.013 55.8318 107.171 54.3081 111.25C51.5841 118.535 48.2443 125.582 44.5916 132.451C42.2872 136.785 39.8108 141.184 39.1642 146.051C38.5176 150.917 40.1719 156.455 44.4369 158.883C46.3836 159.991 48.664 160.348 50.8996 160.517C67.2267 161.738 82.7043 159.495 101.157 157.098C101.663 157.033 100.686 157.291 101.157 157.098C101.7 156.878 102.013 156.324 102.271 155.798C103.761 152.758 105.343 149.473 105.559 146.088Z" fill="#9DDCA0"/>
<path d="M110.949 84.4256C109.563 84.9278 108.015 92.0715 106.536 91.9924C105.432 91.9339 101.081 84.9278 100.001 84.7111C97.4939 84.2089 95.8946 83.1117 94.6082 80.9002C92.9848 78.1176 94.2952 74.6438 95.0691 71.5173C96.0631 67.5241 96.1009 63.297 95.186 59.2866L104.693 61.1199L107.919 61.7424C107.833 65.8869 108.892 70.0487 110.953 73.6463C111.149 73.9869 111.351 74.3239 111.551 74.6644C112.301 75.9267 113.023 77.2165 113.099 78.6611C113.233 81.2338 113.374 83.5485 110.949 84.4256Z" fill="#A37661"/>
<path d="M111.548 74.6643C102.65 74.0108 99.2583 67.8233 98.1371 64.8516C98.8731 65.4397 99.6848 65.9281 100.562 66.2893C103.004 67.297 105.958 67.751 108.352 66.6642C108.803 69.3125 109.615 71.3143 110.949 73.6463C111.145 73.9868 111.348 74.3238 111.548 74.6643Z" fill="#7F5C4C"/>
<path d="M183.663 50.0929C172.773 50.0929 163.913 41.2329 163.913 30.3436C163.913 19.4543 172.773 10.5942 183.663 10.5942C194.552 10.5942 203.412 19.4543 203.412 30.3436C203.412 41.2329 194.552 50.0929 183.663 50.0929ZM183.663 10.9382C172.962 10.9382 164.257 19.6434 164.257 30.3436C164.257 41.0437 172.962 49.749 183.663 49.749C194.363 49.749 203.068 41.0437 203.068 30.3436C203.068 19.6434 194.363 10.9382 183.663 10.9382Z" fill="#296DB3"/>
<path d="M183.456 30.5434L186.046 15.3066L186.387 15.3651L183.872 30.1445C187.167 29.7283 191.979 29.0817 192.313 28.92L192.375 29.0507L192.402 29.0541L192.53 28.9269L192.571 29.1126C192.53 29.2364 192.471 29.4084 183.683 30.5125L183.456 30.5434Z" fill="#296DB3"/>
<path d="M250.471 57.5567C249.676 55.1973 248.686 52.8034 246.852 51.1181C243.372 47.9159 237.597 48.2702 233.727 50.9943C229.858 53.7183 227.646 58.2653 226.491 62.8501C225.431 70.152 225.7 75.325 227.901 83.0087C228.974 86.7508 230.625 90.4654 233.507 93.0863C236.389 95.7072 240.706 97.0107 244.304 95.5214C247.736 94.1009 249.8 90.5617 251.052 87.0673C254.436 77.6328 253.666 67.0599 250.471 57.5567Z" fill="#F4F7FB"/>
<path d="M74.4324 172.407H59.2988L56.1448 151.901H77.9269L74.4324 172.407Z" fill="#9DBCDC"/>
<path d="M67.0375 154.443C73.0534 154.443 77.9303 153.305 77.9303 151.901C77.9303 150.497 73.0534 149.359 67.0375 149.359C61.0216 149.359 56.1448 150.497 56.1448 151.901C56.1448 153.305 61.0216 154.443 67.0375 154.443Z" fill="white"/>
<path d="M67.0376 154.016C72.041 154.016 76.0971 153.069 76.0971 151.901C76.0971 150.733 72.041 149.786 67.0376 149.786C62.0341 149.786 57.978 150.733 57.978 151.901C57.978 153.069 62.0341 154.016 67.0376 154.016Z" fill="#333333"/>
<path d="M57.5721 154.078C53.9951 154.58 50.4146 155.083 46.8376 155.588C46.0259 155.702 45.9021 156.813 46.3836 157.311C48.8394 159.887 51.2883 162.47 53.7544 165.036C55.8799 167.251 58.0674 169.377 60.7399 170.921C61.8921 171.588 62.9308 169.807 61.782 169.14C59.0855 167.578 56.9393 165.38 54.8034 163.145C52.4818 160.716 50.1636 158.281 47.8454 155.85C47.694 156.424 47.5427 156.998 47.3914 157.573C50.9684 157.071 54.5489 156.568 58.1259 156.063C59.4295 155.884 58.8723 153.896 57.5721 154.078Z" fill="#9DBCDC"/>
<path d="M64.2378 151.853C63.9145 151.454 63.6119 151.027 63.3539 150.58C62.9618 149.909 62.8793 149.81 63.1406 149.05C63.402 148.286 64.0108 148.045 64.4476 147.419C64.9189 146.749 65.0839 145.94 64.568 145.246C63.973 144.448 62.7554 144.245 61.8371 144.362C61.617 144.389 61.4072 144.458 61.1974 144.516C60.5267 144.699 59.3022 144.565 58.8448 143.904C58.1603 142.917 59.9007 141.462 60.5576 140.874C60.9291 140.54 60.3822 139.994 60.0108 140.327C58.9858 141.245 57.8061 142.195 58.0193 143.715C58.1913 144.943 58.9892 145.734 60.2377 145.59C61.1698 145.479 65.139 144.276 63.8354 146.848C63.433 147.643 62.4631 147.925 62.1535 148.785C61.6995 150.047 62.9652 151.502 63.691 152.4C64.0005 152.788 64.5474 152.238 64.2378 151.853Z" fill="white"/>
<path d="M67.6601 150.508C67.2439 150.037 66.5835 149.387 66.4975 148.716C66.3221 147.34 67.2783 147.303 67.9077 146.711C68.231 146.408 68.458 146.119 68.5027 145.672C68.6438 144.197 66.9515 144.045 66.0126 143.512C63.2301 141.93 64.6093 138.962 65.9163 136.974C66.8208 135.602 67.6154 134.277 67.5122 132.578C67.4812 132.083 66.7074 132.08 66.7383 132.578C66.9722 136.338 61.5035 139.237 64.4167 143.117C64.9051 143.767 65.4795 144.111 66.2086 144.427C67.1854 144.854 67.7254 145.497 66.8656 146.501C66.6764 146.721 66.3496 146.818 66.1467 147.058C65.0117 148.41 66.1708 149.996 67.1098 151.055C67.4434 151.427 67.9903 150.88 67.6601 150.508Z" fill="white"/>
<path d="M70.8416 151.106C70.5527 150.487 70.1468 149.789 70.7969 149.204C70.9723 149.049 71.2337 149.001 71.4366 148.898C71.8425 148.688 72.1486 148.437 72.2931 147.99C72.5889 147.075 71.987 146.243 71.1237 145.988C70.6456 145.847 70.4392 146.594 70.9173 146.735C71.5226 146.914 71.8563 147.663 71.2509 148.131C71.1099 148.241 70.7728 148.327 70.6008 148.427C70.3119 148.589 70.0574 148.771 69.8854 149.06C69.4039 149.851 69.8201 150.749 70.1709 151.502C70.3842 151.945 71.0514 151.553 70.8416 151.106Z" fill="white"/>
<path d="M88.2245 34.7085C85.4901 35.1418 83.0412 37.0817 81.9956 39.6441C80.95 42.2099 81.3456 45.3054 83 47.5273C84.1866 49.1198 85.9097 50.2204 87.2614 51.6753C88.6682 53.1921 89.6484 55.101 90.068 57.1268C90.3638 58.568 90.3948 60.102 91.093 61.3952C92.3381 63.6996 95.7707 64.4322 97.8481 62.8432C99.4337 61.6291 100.039 59.5413 100.38 57.574C101.239 52.6143 101.016 47.4689 99.7226 42.6055C99.0588 40.1153 98.0545 37.5976 96.1249 35.8882C94.1954 34.1788 91.1377 33.5287 89.0018 34.9699L88.2245 34.7085Z" fill="#202020"/>
<path d="M121.955 46.9665C121.849 47.9914 121.694 49.0095 121.515 50.0173C120.655 54.8428 118.774 59.4964 115.936 63.4965C115.052 64.7381 114.12 65.9626 112.954 66.9463C110.051 69.3986 103.355 69.9661 99.843 68.5147C96.6925 67.2145 94.3365 64.4045 92.9676 61.2815C91.5952 58.1585 91.1103 54.7259 90.842 51.3243C88.0457 51.424 85.5452 48.5658 86.0164 45.8108C86.4876 43.0558 88.4412 41.4702 92.3553 42.6465C92.4826 42.6465 92.6099 42.6465 92.7371 42.6396C100.462 42.5227 106.901 38.017 114.282 36.5312C115.579 36.2698 119.396 35.0935 120.353 36.1666C120.758 36.6206 120.989 37.4426 121.192 38.0067C121.66 39.2965 121.911 40.6516 122.031 42.0137C122.175 43.6612 122.124 45.319 121.955 46.9665Z" fill="#A37661"/>
<path d="M121.955 46.9665C120.604 46.196 118.64 45.1573 115.964 43.926C109.948 41.1572 105.817 48.8272 98.5946 46.6776C95.1207 45.6423 93.4904 44.0326 92.7372 42.6396C100.462 42.5227 106.901 38.017 114.282 36.5312C115.579 36.2698 119.396 35.0935 120.353 36.1666C120.758 36.6206 120.989 37.4426 121.192 38.0067C121.66 39.2965 121.911 40.6516 122.031 42.0137C122.175 43.6612 122.124 45.319 121.955 46.9665Z" fill="#7F5C4C"/>
<path d="M89.371 42.6088C87.4721 42.702 85.3638 42.4487 84.0881 41.0677C82.6712 39.5337 82.7905 37.1205 83.5793 35.1995C85.3443 30.9058 85.5 32.4996 92.5 26.9996C94.8323 27.0044 99.1677 23.05 101.5 22.9998C103.844 22.9473 104.5 22.1035 107.5 22.1036C111.5 21.4996 110.303 22.0375 113 21.4999C115.293 21.0435 120.071 23.1817 121.5 25C122.929 26.8183 123.214 28.8056 122.914 31.0826C122.646 33.1159 121.76 35.1087 120.224 36.4969C115.83 40.4608 108.49 38.1144 103.131 40.6925C100.85 41.7916 98.8998 43.7939 96.3655 43.985C93.9139 44.169 91.6376 42.5753 89.1787 42.5443L89.371 42.6088Z" fill="#202020"/>
<path d="M79.3232 120.083C79.3232 120.083 74.7213 138.37 81.1977 139.515L73.9027 138.171C73.9027 138.171 73.428 138.714 73.9027 136.65C74.3773 134.587 78.3086 120.141 79.3232 120.083Z" fill="#9DDCA0"/>
</svg>
