<svg width="155" height="21" viewBox="0 0 155 21" fill="none" xmlns="http://www.w3.org/2000/svg">
<path d="M8.17134 20.2924C12.1378 20.2924 14.9808 18.1503 14.9808 14.8636V14.8146C14.9808 11.8876 12.9379 10.3179 8.47776 9.38582C4.08567 8.47013 3.06425 7.45632 3.06425 5.64128V5.59223C3.06425 3.85895 4.71554 2.4854 7.32015 2.4854C9.38001 2.4854 11.2356 3.12312 13.0912 4.57842L14.402 2.91055C12.3591 1.34078 10.2823 0.539551 7.37123 0.539551C3.57496 0.539551 0.80011 2.76338 0.80011 5.78845V5.8375C0.80011 8.99338 2.91104 10.416 7.50741 11.3807C11.7122 12.231 12.6996 13.2448 12.6996 15.0272V15.0762C12.6996 16.973 10.9292 18.3466 8.23943 18.3466C5.46458 18.3466 3.47282 17.4472 1.39594 15.6322L0 17.2183C2.40033 19.2786 5.00494 20.2924 8.17134 20.2924Z" fill="#9DBCDC"/>
<path d="M18.726 12.1493C19.0154 9.38586 20.9561 7.32554 23.5267 7.32554C26.4718 7.32554 28.0039 9.58208 28.2422 12.1493H18.726ZM23.8671 20.3415C26.659 20.3415 28.4635 19.2786 29.9446 17.6762L28.5827 16.4988C27.391 17.7089 25.961 18.4938 23.9352 18.4938C21.3136 18.4938 19.0495 16.7605 18.743 13.7027H30.4553C30.4723 13.4738 30.4893 13.2449 30.4893 13.0159C30.4893 8.87895 27.9698 5.52686 23.6118 5.52686C19.5091 5.54321 16.5129 8.8299 16.5129 12.9178V12.9669C16.4959 17.3655 19.8155 20.3415 23.8671 20.3415Z" fill="#9DBCDC"/>
<path d="M37.3498 18.6402C35.358 18.6402 33.6387 17.5937 33.6387 15.8114V15.7623C33.6387 13.98 35.1878 12.8354 37.9456 12.8354C39.4097 12.8354 40.8737 13.0316 42.2867 13.4404V14.8139C42.2867 17.0541 40.0566 18.6402 37.3498 18.6402ZM36.9242 20.3081C39.5288 20.3081 41.2312 19.1635 42.2696 17.8717V20.0138H44.3806V11.3474C44.3806 9.53233 43.8699 8.15879 42.8655 7.21039C41.7759 6.16388 40.1757 5.64062 38.0988 5.64062C35.9539 5.64062 34.3537 6.09847 32.7364 6.81795L33.4003 8.55123C34.7622 7.94621 36.1411 7.50472 37.8775 7.50472C40.6524 7.50472 42.2696 8.81285 42.2696 11.3801V11.8706C40.7886 11.4618 39.2735 11.2493 37.7243 11.2656C33.9791 11.2656 31.4086 12.8517 31.4086 15.8441V15.8931C31.4086 18.8037 34.1834 20.3244 36.9242 20.3081Z" fill="#9DBCDC"/>
<path d="M47.2576 20.0142H49.4536V11.9365C49.4536 9.33656 51.2241 7.47247 53.5563 7.47247C55.8885 7.47247 57.3696 9.02588 57.3696 11.6749V20.0142H59.5656V11.8384C59.5656 9.04223 61.3872 7.45612 63.6173 7.45612C66.0176 7.45612 67.4476 8.99318 67.4476 11.7403V20.0306H69.6436V11.2497C69.6436 7.7341 67.5667 5.54297 64.162 5.54297C61.5914 5.54297 60.0253 6.80205 58.9698 8.37181C58.1697 6.7857 56.6206 5.54297 54.2372 5.54297C51.7518 5.54297 50.441 6.83475 49.4706 8.22465V5.8373H47.2576V20.0142Z" fill="#9DBCDC"/>
<path d="M75.0062 0H72.8101V20.0145H75.0062V0Z" fill="#9DBCDC"/>
<path d="M79.6365 12.1493C79.9259 9.38586 81.8666 7.32554 84.4372 7.32554C87.3822 7.32554 88.9144 9.58208 89.1527 12.1493H79.6365ZM84.7776 20.3415C87.5695 20.3415 89.374 19.2786 90.8551 17.6762L89.4932 16.4988C88.3015 17.7089 86.8715 18.4938 84.8457 18.4938C82.2241 18.4938 79.9599 16.7605 79.6535 13.7027H91.3658C91.3828 13.4738 91.3998 13.2449 91.3998 13.0159C91.3998 8.87895 88.8803 5.52686 84.5223 5.52686C80.4366 5.52686 77.4404 8.81355 77.4404 12.9015V12.9505C77.4064 17.3655 80.726 20.3415 84.7776 20.3415Z" fill="#9DBCDC"/>
<path d="M98.3113 20.2927C101.256 20.2927 103.572 18.723 103.572 16.0413V15.9922C103.572 13.4414 101.12 12.5911 98.839 11.937C96.8643 11.3647 95.0428 10.8414 95.0428 9.50059V9.45154C95.0428 8.27421 96.1493 7.39122 97.9027 7.39122C99.3327 7.39122 100.899 7.91448 102.278 8.76477L103.282 7.17865C101.699 6.19755 99.8605 5.64159 97.9708 5.60889C95.0598 5.60889 92.9489 7.22771 92.9489 9.66411V9.71316C92.9489 12.3131 95.5194 13.0816 97.8347 13.7193C99.7753 14.2426 101.512 14.7822 101.512 16.2211V16.2702C101.512 17.6437 100.235 18.5267 98.4475 18.5267C96.7111 18.5267 94.9406 17.8727 93.3404 16.7117L92.2339 18.216C93.9533 19.5242 96.0982 20.26 98.3113 20.2927Z" fill="#9DBCDC"/>
<path d="M110.449 20.2925C113.394 20.2925 115.71 18.7227 115.71 16.041V15.992C115.71 13.4411 113.258 12.5908 110.977 11.9367C109.002 11.3644 107.181 10.8412 107.181 9.48399V9.43493C107.181 8.25761 108.287 7.37462 110.041 7.37462C111.471 7.37462 113.037 7.89787 114.416 8.74816L115.42 7.16205C113.837 6.18095 111.998 5.62499 110.109 5.59229C107.198 5.59229 105.087 7.2111 105.087 9.64751V9.69656C105.087 12.2965 107.657 13.065 109.973 13.7027C111.913 14.226 113.65 14.7819 113.65 16.2045V16.2536C113.65 17.6271 112.373 18.5101 110.585 18.5101C108.849 18.5101 107.079 17.8561 105.478 16.6951L104.372 18.1994C106.091 19.5239 108.236 20.2598 110.449 20.2925Z" fill="#9DBCDC"/>
<path d="M118.093 20.0148H121.617V11.937H131.15V20.0148H134.657V0.817871H131.15V8.7975H121.617V0.817871H118.093V20.0148Z" fill="#9DBCDC"/>
<path d="M141.517 10.3346V3.89199H146.624C149.229 3.89199 150.761 5.02026 150.761 7.06422V7.11328C150.761 9.05913 149.161 10.3182 146.641 10.3182L141.517 10.3346ZM138.01 20.0148H141.517V13.3269H145.909L150.829 20.0148H155L149.586 12.7546C152.361 11.9861 154.319 10.0893 154.319 6.93341V6.88435C154.319 5.21648 153.723 3.77753 152.668 2.74737C151.391 1.53735 149.416 0.817871 146.914 0.817871H138.01V20.0148Z" fill="#9DBCDC"/>
</svg>
