<svg width="180" height="24" viewBox="0 0 180 24" fill="none" xmlns="http://www.w3.org/2000/svg">
<g clip-path="url(#clip0)">
<path d="M9.49033 23.568C14.0971 23.568 17.3989 21.0802 17.3989 17.263V17.206C17.3989 13.8066 15.0264 11.9834 9.84622 10.9009C4.74517 9.83742 3.55888 8.65997 3.55888 6.55195V6.49498C3.55888 4.48191 5.47671 2.88666 8.50176 2.88666C10.8941 2.88666 13.0492 3.62731 15.2043 5.31753L16.7267 3.38043C14.3541 1.55728 11.942 0.626709 8.56107 0.626709C4.15202 0.626709 0.929262 3.20951 0.929262 6.72287V6.77984C0.929262 10.4451 3.38093 12.0974 8.71924 13.2178C13.6028 14.2054 14.7496 15.3828 14.7496 17.4529V17.5098C14.7496 19.7128 12.6933 21.3081 9.56942 21.3081C6.34666 21.3081 4.03339 20.2636 1.62127 18.1555L0 19.9977C2.78779 22.3906 5.81283 23.568 9.49033 23.568Z" fill="#296DB3"/>
<path d="M21.7487 14.1104C22.0848 10.9009 24.3388 8.50803 27.3243 8.50803C30.7448 8.50803 32.5242 11.1288 32.801 14.1104H21.7487ZM27.7197 23.625C30.9622 23.625 33.058 22.3906 34.7781 20.5294L33.1964 19.1621C31.8124 20.5674 30.1516 21.479 27.7988 21.479C24.754 21.479 22.1244 19.4659 21.7685 15.9146H35.3713C35.3911 15.6487 35.4108 15.3828 35.4108 15.117C35.4108 10.3122 32.4847 6.41901 27.4231 6.41901C22.6582 6.438 19.1784 10.2552 19.1784 15.003V15.06C19.1586 20.1686 23.0141 23.625 27.7197 23.625Z" fill="#296DB3"/>
<path d="M43.3787 21.6499C41.0654 21.6499 39.0685 20.4345 39.0685 18.3644V18.3075C39.0685 16.2374 40.8677 14.908 44.0707 14.908C45.7711 14.908 47.4714 15.1359 49.1125 15.6107V17.206C49.1125 19.8078 46.5224 21.6499 43.3787 21.6499ZM42.8844 23.587C45.9095 23.587 47.8866 22.2576 49.0927 20.7573V23.2452H51.5444V13.1799C51.5444 11.0718 50.9512 9.47658 49.7847 8.37509C48.5193 7.15966 46.6608 6.55194 44.2487 6.55194C41.7575 6.55194 39.8989 7.08369 38.0206 7.9193L38.7917 9.93237C40.3734 9.22969 41.9749 8.71693 43.9916 8.71693C47.2144 8.71693 49.0927 10.2362 49.0927 13.2178V13.7876C47.3726 13.3128 45.6129 13.0659 43.8137 13.0849C39.464 13.0849 36.4785 14.927 36.4785 18.4024V18.4594C36.4785 21.8398 39.7012 23.606 42.8844 23.587Z" fill="#296DB3"/>
<path d="M54.8857 23.2452H57.4363V13.8635C57.4363 10.8439 59.4925 8.67895 62.2012 8.67895C64.9099 8.67895 66.63 10.4831 66.63 13.5597V23.2452H69.1806V13.7496C69.1806 10.5021 71.2961 8.65995 73.8862 8.65995C76.674 8.65995 78.3348 10.4451 78.3348 13.6356V23.2642H80.8853V13.0659C80.8853 8.9828 78.4732 6.43799 74.5189 6.43799C71.5334 6.43799 69.7144 7.90031 68.4885 9.72346C67.5593 7.88132 65.7601 6.43799 62.9921 6.43799C60.1054 6.43799 58.583 7.93829 57.456 9.55254V6.77983H54.8857V23.2452Z" fill="#296DB3"/>
<path d="M87.1134 0H84.5629V23.2452H87.1134V0Z" fill="#296DB3"/>
<path d="M92.4912 14.1104C92.8273 10.9009 95.0813 8.50803 98.0668 8.50803C101.487 8.50803 103.267 11.1288 103.543 14.1104H92.4912ZM98.4622 23.625C101.705 23.625 103.801 22.3906 105.521 20.5294L103.939 19.1621C102.555 20.5674 100.894 21.479 98.5413 21.479C95.4965 21.479 92.8669 19.4659 92.511 15.9146H106.114C106.134 15.6487 106.153 15.3828 106.153 15.117C106.153 10.3122 103.227 6.41901 98.1656 6.41901C93.4205 6.41901 89.9407 10.2362 89.9407 14.984V15.041C89.9011 20.1686 93.7566 23.625 98.4622 23.625Z" fill="#296DB3"/>
<path d="M114.181 23.568C117.601 23.568 120.29 21.7449 120.29 18.6303V18.5734C120.29 15.6107 117.443 14.6232 114.793 13.8636C112.5 13.1989 110.384 12.5911 110.384 11.0339V10.9769C110.384 9.60954 111.67 8.58401 113.706 8.58401C115.367 8.58401 117.186 9.19173 118.787 10.1793L119.954 8.33713C118.115 7.19766 115.98 6.55196 113.785 6.51398C110.404 6.51398 107.953 8.3941 107.953 11.2238V11.2808C107.953 14.3004 110.938 15.1929 113.627 15.9336C115.881 16.5413 117.898 17.168 117.898 18.8392V18.8962C117.898 20.4915 116.415 21.517 114.339 21.517C112.322 21.517 110.266 20.7573 108.407 19.409L107.122 21.1562C109.119 22.6755 111.61 23.5301 114.181 23.568Z" fill="#296DB3"/>
<path d="M128.278 23.568C131.698 23.568 134.387 21.7449 134.387 18.6303V18.5734C134.387 15.6108 131.54 14.6232 128.891 13.8636C126.597 13.1989 124.482 12.5912 124.482 11.0149V10.9579C124.482 9.59055 125.767 8.56503 127.803 8.56503C129.464 8.56503 131.283 9.17275 132.884 10.1603L134.051 8.31815C132.212 7.17868 130.077 6.53298 127.882 6.495C124.501 6.495 122.05 8.37512 122.05 11.2048V11.2618C122.05 14.2814 125.035 15.174 127.724 15.9146C129.978 16.5223 131.995 17.168 131.995 18.8203V18.8772C131.995 20.4725 130.512 21.498 128.436 21.498C126.419 21.498 124.363 20.7384 122.504 19.39L121.219 21.1372C123.216 22.6755 125.707 23.5301 128.278 23.568Z" fill="#296DB3"/>
<path d="M137.155 23.2452H141.248V13.8636H152.32V23.2452H156.393V0.949585H152.32V10.2173H141.248V0.949585H137.155V23.2452Z" fill="#84BC33"/>
<path d="M164.361 12.0024V4.51992H170.292C173.317 4.51992 175.097 5.83031 175.097 8.20421V8.26118C175.097 10.5211 173.238 11.9834 170.312 11.9834L164.361 12.0024ZM160.288 23.2452H164.361V15.4778H169.462L175.176 23.2452H180.02L173.732 14.8131C176.955 13.9205 179.229 11.7176 179.229 8.05228V7.9953C179.229 6.05821 178.537 4.38698 177.311 3.19054C175.828 1.7852 173.535 0.949585 170.628 0.949585H160.288V23.2452Z" fill="#84BC33"/>
</g>
<defs>
<clipPath id="clip0">
<rect width="180" height="23.625" fill="white"/>
</clipPath>
</defs>
</svg>
