<svg width="233" height="29" viewBox="0 0 233 29" fill="none" xmlns="http://www.w3.org/2000/svg">
<path d="M3.48045 6.65697C3.48045 6.13772 3.59426 5.65042 3.82218 5.19589C4.04981 4.74137 4.37512 4.3513 4.79783 4.02652C5.22053 3.70174 5.73044 3.44198 6.32698 3.24722C6.92352 3.05247 7.58971 2.95495 8.32725 2.95495C9.49854 2.95495 10.6206 3.14999 11.6942 3.53978C12.7675 3.92929 13.8354 4.55736 14.8983 5.42315L16.3943 3.44198C15.2236 2.51145 14.0141 1.81299 12.7675 1.34745C11.5209 0.882188 10.062 0.649275 8.39266 0.649275C7.30829 0.649275 6.31056 0.806152 5.39975 1.12019C4.48894 1.43423 3.69732 1.86727 3.02547 2.41959C2.35276 2.97134 1.83266 3.62599 1.46404 4.38409C1.09512 5.14191 0.910811 5.97548 0.910811 6.88452C0.910811 7.83709 1.06257 8.6602 1.36608 9.35272C1.66987 10.0455 2.13589 10.6516 2.76471 11.1711C3.39353 11.6912 4.19081 12.1347 5.15569 12.503C6.12058 12.871 7.25393 13.1958 8.55517 13.477C9.74769 13.7371 10.729 14.0073 11.4988 14.2889C12.2689 14.5707 12.8703 14.8844 13.3043 15.231C13.738 15.5772 14.0413 15.9616 14.2151 16.3837C14.3887 16.8057 14.4756 17.2876 14.4756 17.8286C14.4756 18.9977 14.0141 19.9395 13.0928 20.6544C12.1712 21.3684 10.9405 21.726 9.40058 21.726C7.81763 21.726 6.419 21.4608 5.20439 20.93C3.99007 20.3997 2.78708 19.5933 1.59399 18.511L0 20.3946C1.36608 21.6287 2.80293 22.5431 4.30972 23.1384C5.81736 23.7337 7.48184 24.0316 9.30318 24.0316C10.4309 24.0316 11.4716 23.8799 12.426 23.5768C13.3799 23.2738 14.1984 22.8408 14.8819 22.2777C15.565 21.7149 16.1016 21.0332 16.4917 20.2318C16.8824 19.4308 17.0772 18.5432 17.0772 17.5691C17.0772 15.8152 16.4759 14.4404 15.2717 13.4445C14.0684 12.449 12.1981 11.6694 9.66077 11.1066C8.40313 10.8463 7.37284 10.5707 6.57103 10.2782C5.76838 9.98589 5.13956 9.66111 4.68429 9.30411C4.22846 8.94682 3.91419 8.55166 3.74092 8.11862C3.56737 7.68558 3.48045 7.19856 3.48045 6.65697V6.65697ZM20.9158 16.2375H34.2527C34.2742 16.086 34.2849 15.945 34.2849 15.8152C34.2849 15.6855 34.2849 15.5662 34.2849 15.4579C34.2849 14.2238 34.1111 13.0655 33.7643 11.9832C33.4177 10.9006 32.9078 9.95875 32.236 9.15797C31.5633 8.3569 30.7394 7.72318 29.7637 7.2582C28.7878 6.79237 27.6816 6.55974 26.4455 6.55974C25.2748 6.55974 24.1958 6.787 23.2088 7.24152C22.2224 7.69661 21.3714 8.31875 20.6559 9.10907C19.9399 9.89967 19.3816 10.8305 18.9804 11.9021C18.5795 12.9736 18.3785 14.1156 18.3785 15.3282C18.3785 16.6273 18.601 17.8179 19.0452 18.9005C19.49 19.9831 20.0916 20.9085 20.8507 21.6768C21.6097 22.4456 22.4988 23.0412 23.5183 23.4632C24.5373 23.8852 25.6213 24.0964 26.7708 24.0964C28.3756 24.0964 29.7201 23.8095 30.8045 23.2357C31.8886 22.6622 32.8535 21.899 33.6994 20.9464L32.138 19.55C31.4441 20.2643 30.6796 20.8381 29.8447 21.2712C29.0098 21.7039 28.0069 21.9204 26.8362 21.9204C26.0987 21.9204 25.3937 21.7964 24.7216 21.547C24.0494 21.2983 23.4424 20.93 22.8999 20.4433C22.358 19.9559 21.9135 19.3607 21.5661 18.6568C21.2193 17.9536 21.0024 17.1466 20.9158 16.2375V16.2375ZM20.9158 14.3864C21.0024 13.5635 21.1975 12.8057 21.5013 12.1132C21.8051 11.4204 22.1953 10.8195 22.672 10.3107C23.1491 9.80244 23.7023 9.40162 24.3314 9.10907C24.96 8.81708 25.6434 8.67066 26.3804 8.67066C27.2264 8.67066 27.969 8.82754 28.6086 9.14186C29.2482 9.45533 29.7909 9.87254 30.2351 10.3921C30.6796 10.9116 31.0265 11.5176 31.2762 12.2104C31.5256 12.903 31.6827 13.6288 31.7479 14.3864H20.9158V14.3864ZM42.2872 8.8982C43.8701 8.8982 45.1006 9.28206 45.9788 10.0512C46.8568 10.8195 47.2962 11.9617 47.2962 13.477V14.0616C46.5372 13.8454 45.7566 13.6721 44.9542 13.5421C44.1518 13.4123 43.2085 13.3473 42.1241 13.3473C41.0615 13.3473 40.0913 13.466 39.213 13.7046C38.3345 13.9426 37.576 14.2889 36.9358 14.7437C36.2963 15.1982 35.8031 15.7666 35.4557 16.4484C35.1088 17.1307 34.9356 17.9154 34.9356 18.8027C34.9356 19.6908 35.1148 20.4591 35.4721 21.1089C35.8297 21.7585 36.307 22.3049 36.9036 22.7489C37.5001 23.1927 38.1722 23.5229 38.9203 23.7394C39.6683 23.9559 40.4324 24.0642 41.2133 24.0642C42.7099 24.0642 43.9511 23.7716 44.9381 23.1871C45.9248 22.6025 46.711 21.9315 47.2962 21.1737V23.7069H49.7036V13.4445C49.7036 11.2149 49.0853 9.53108 47.8491 8.39478C46.613 7.2582 44.8458 6.68976 42.5471 6.68976C41.3112 6.68976 40.2161 6.81442 39.2617 7.06316C38.3073 7.31219 37.3645 7.65308 36.4322 8.08611L37.1802 10.1323C37.9605 9.76428 38.7577 9.46664 39.5706 9.23909C40.384 9.01183 41.2892 8.8982 42.2872 8.8982V8.8982ZM42.3846 15.1982C43.4253 15.1982 44.3523 15.2739 45.1657 15.4257C45.9788 15.5772 46.6999 15.7395 47.3288 15.913V17.5366C47.3288 18.2077 47.1821 18.8191 46.8896 19.3711C46.5969 19.9234 46.1957 20.3997 45.6861 20.8003C45.1765 21.2005 44.5802 21.5148 43.8967 21.7421C43.2138 21.9696 42.482 22.0833 41.7014 22.0833C41.1374 22.0833 40.6006 22.0072 40.0913 21.8557C39.5816 21.7039 39.1317 21.4823 38.7413 21.19C38.3509 20.8978 38.0417 20.5459 37.8144 20.1343C37.5865 19.723 37.4724 19.247 37.4724 18.7054C37.4724 17.6231 37.8956 16.7681 38.7413 16.1403C39.587 15.5122 40.8016 15.1982 42.3846 15.1982V15.1982ZM65.9026 9.90476C65.4467 8.95219 64.7746 8.15678 63.8853 7.51825C62.9969 6.87915 61.8692 6.55974 60.5025 6.55974C59.7871 6.55974 59.158 6.64652 58.6161 6.81951C58.0742 6.99278 57.5861 7.22541 57.1523 7.51825C56.7186 7.80995 56.3338 8.15113 55.9975 8.54063C55.6611 8.93071 55.3525 9.33124 55.0705 9.74223V6.91674H52.566V23.7069H55.0705V14.1266C55.0705 13.3473 55.1897 12.6384 55.4287 11.9993C55.6671 11.3608 55.9975 10.8033 56.4207 10.3271C56.8434 9.85049 57.3366 9.48275 57.9003 9.22298C58.4646 8.96293 59.0821 8.83347 59.7545 8.83347C61.0991 8.83347 62.1563 9.2716 62.9261 10.1484C63.6956 11.025 64.0812 12.254 64.0812 13.8343V23.7069H66.5529V14.0294C66.5529 13.2063 66.6778 12.4705 66.9269 11.8209C67.1764 11.1711 67.5127 10.625 67.9357 10.1806C68.3584 9.73714 68.8519 9.40162 69.4156 9.17436C69.9793 8.94682 70.5758 8.83347 71.2044 8.83347C72.571 8.83347 73.6389 9.2716 74.4085 10.1484C75.1789 11.025 75.5633 12.2754 75.5633 13.8991V23.7069H78.0681V13.3145C78.0681 11.2149 77.5149 9.56387 76.4093 8.36227C75.3032 7.1604 73.7746 6.55974 71.823 6.55974C71.0854 6.55974 70.4187 6.64652 69.8221 6.81951C69.2256 6.99278 68.6891 7.23078 68.212 7.53408C67.7347 7.83709 67.3066 8.19437 66.9269 8.60593C66.5478 9.01692 66.2061 9.44996 65.9026 9.90476V9.90476ZM83.7604 23.7069V0H81.2558V23.7069H83.7604ZM88.6069 16.2375H101.944C101.965 16.086 101.976 15.945 101.976 15.8152C101.976 15.6855 101.976 15.5662 101.976 15.4579C101.976 14.2238 101.802 13.0655 101.456 11.9832C101.109 10.9006 100.599 9.95875 99.9273 9.15797C99.2546 8.3569 98.4304 7.72318 97.4548 7.2582C96.4792 6.79237 95.373 6.55974 94.1369 6.55974C92.9659 6.55974 91.8869 6.787 90.9002 7.24152C89.9138 7.69661 89.0627 8.31875 88.347 9.10907C87.6312 9.89967 87.0729 10.8305 86.6714 11.9021C86.2708 12.9736 86.0698 14.1156 86.0698 15.3282C86.0698 16.6273 86.2923 17.8179 86.7366 18.9005C87.1814 19.9831 87.783 20.9085 88.542 21.6768C89.3011 22.4456 90.1898 23.0412 91.2096 23.4632C92.2286 23.8852 93.3127 24.0964 94.4619 24.0964C96.0669 24.0964 97.4115 23.8095 98.4958 23.2357C99.5799 22.6622 100.545 21.899 101.391 20.9464L99.8294 19.55C99.1354 20.2643 98.371 20.8381 97.5361 21.2712C96.7011 21.7039 95.6983 21.9204 94.5273 21.9204C93.79 21.9204 93.0851 21.7964 92.4129 21.547C91.7408 21.2983 91.1338 20.93 90.5913 20.4433C90.0491 19.9559 89.6049 19.3607 89.2575 18.6568C88.9107 17.9536 88.6938 17.1466 88.6069 16.2375V16.2375ZM88.6069 14.3864C88.6938 13.5635 88.8889 12.8057 89.1927 12.1132C89.4965 11.4204 89.8866 10.8195 90.3634 10.3107C90.8404 9.80244 91.3937 9.40162 92.0228 9.10907C92.6513 8.81708 93.3342 8.67066 94.0717 8.67066C94.9177 8.67066 95.6604 8.82754 96.2999 9.14186C96.9395 9.45533 97.4823 9.87254 97.9265 10.3921C98.371 10.9116 98.7178 11.5176 98.9675 12.2104C99.217 12.903 99.3741 13.6288 99.4392 14.3864H88.6069V14.3864ZM115.443 18.9977V18.933C115.443 18.1752 115.286 17.5366 114.971 17.0168C114.657 16.497 114.24 16.0535 113.719 15.6855C113.199 15.3175 112.618 15.0142 111.979 14.7762C111.339 14.5376 110.694 14.3216 110.043 14.1266C109.48 13.9536 108.937 13.7803 108.417 13.6068C107.896 13.4338 107.435 13.2388 107.034 13.0225C106.633 12.8057 106.313 12.5516 106.075 12.2593C105.836 11.9668 105.717 11.6259 105.717 11.2364V11.1711C105.717 10.4786 106.01 9.89967 106.595 9.43385C107.181 8.9683 107.972 8.73595 108.97 8.73595C109.794 8.73595 110.634 8.88153 111.491 9.17436C112.347 9.46664 113.166 9.86151 113.947 10.3593L115.085 8.47562C114.217 7.91313 113.253 7.46369 112.19 7.12817C111.128 6.79237 110.076 6.62503 109.035 6.62503C108.211 6.62503 107.446 6.73838 106.741 6.96592C106.037 7.19347 105.43 7.51825 104.92 7.94026C104.41 8.36228 104.015 8.87107 103.733 9.46664C103.451 10.0616 103.31 10.7169 103.31 11.4309V11.4961C103.31 12.2754 103.478 12.9253 103.814 13.4445C104.15 13.9641 104.584 14.3974 105.115 14.7437C105.647 15.0899 106.243 15.3768 106.904 15.6041C107.566 15.8313 108.222 16.0428 108.872 16.2375C109.414 16.3893 109.94 16.5516 110.45 16.7245C110.96 16.8978 111.409 17.0979 111.8 17.3255C112.19 17.5528 112.499 17.8179 112.727 18.1212C112.955 18.4242 113.068 18.7812 113.068 19.1928V19.2578C113.068 20.0803 112.743 20.7302 112.093 21.2062C111.442 21.6824 110.607 21.9204 109.588 21.9204C108.59 21.9204 107.598 21.737 106.611 21.3684C105.625 21.0007 104.676 20.4698 103.765 19.7776L102.497 21.5634C103.451 22.321 104.546 22.9219 105.782 23.366C107.018 23.8095 108.244 24.0316 109.458 24.0316C110.304 24.0316 111.09 23.9177 111.816 23.6908C112.542 23.4632 113.172 23.1331 113.703 22.7003C114.234 22.2667 114.657 21.7421 114.971 21.125C115.286 20.508 115.443 19.7991 115.443 18.9977ZM128.845 18.9977V18.933C128.845 18.1752 128.687 17.5366 128.373 17.0168C128.059 16.497 127.641 16.0535 127.121 15.6855C126.6 15.3175 126.02 15.0142 125.38 14.7762C124.741 14.5376 124.095 14.3216 123.445 14.1266C122.882 13.9536 122.339 13.7803 121.819 13.6068C121.298 13.4338 120.837 13.2388 120.436 13.0225C120.035 12.8057 119.715 12.5516 119.477 12.2593C119.238 11.9668 119.119 11.6259 119.119 11.2364V11.1711C119.119 10.4786 119.411 9.89967 119.997 9.43385C120.583 8.9683 121.374 8.73595 122.371 8.73595C123.195 8.73595 124.036 8.88153 124.892 9.17436C125.749 9.46664 126.568 9.86151 127.348 10.3593L128.487 8.47562C127.619 7.91313 126.655 7.46369 125.592 7.12817C124.529 6.79237 123.478 6.62503 122.437 6.62503C121.612 6.62503 120.848 6.73838 120.143 6.96592C119.439 7.19347 118.831 7.51825 118.322 7.94026C117.812 8.36228 117.416 8.87107 117.134 9.46664C116.852 10.0616 116.712 10.7169 116.712 11.4309V11.4961C116.712 12.2754 116.88 12.9253 117.216 13.4445C117.552 13.9641 117.986 14.3974 118.517 14.7437C119.048 15.0899 119.645 15.3768 120.306 15.6041C120.967 15.8313 121.623 16.0428 122.274 16.2375C122.816 16.3893 123.342 16.5516 123.852 16.7245C124.361 16.8978 124.811 17.0979 125.202 17.3255C125.592 17.5528 125.901 17.8179 126.128 18.1212C126.356 18.4242 126.47 18.7812 126.47 19.1928V19.2578C126.47 20.0803 126.145 20.7302 125.494 21.2062C124.844 21.6824 124.009 21.9204 122.989 21.9204C121.992 21.9204 121 21.737 120.013 21.3684C119.027 21.0007 118.078 20.4698 117.167 19.7776L115.898 21.5634C116.852 22.321 117.948 22.9219 119.184 23.366C120.42 23.8095 121.645 24.0316 122.859 24.0316C123.706 24.0316 124.491 23.9177 125.218 23.6908C125.944 23.4632 126.573 23.1331 127.104 22.7003C127.636 22.2667 128.059 21.7421 128.373 21.125C128.687 20.508 128.845 19.7991 128.845 18.9977V18.9977Z" fill="#296EB3"/>
<path d="M148.784 8.60593C148.784 7.43656 148.584 6.38647 148.183 5.45566C147.782 4.52457 147.207 3.72379 146.459 3.05247C145.711 2.38143 144.8 1.86727 143.727 1.50998C142.653 1.15241 141.455 0.974054 140.132 0.974054H131.154V23.7069H135.155V16.3998H139.677C140.934 16.3998 142.116 16.2319 143.222 15.8966C144.328 15.5611 145.293 15.0684 146.117 14.4189C146.941 13.7693 147.592 12.9572 148.069 11.9832C148.546 11.0088 148.784 9.88328 148.784 8.60593V8.60593ZM144.719 8.70317C144.719 9.93727 144.28 10.9277 143.401 11.6745C142.523 12.4219 141.325 12.7953 139.806 12.7953H135.155V4.61107H139.806C141.303 4.61107 142.496 4.95252 143.385 5.63459C144.274 6.31608 144.719 7.33932 144.719 8.70317ZM164.04 23.7069V13.5421C164.04 11.2468 163.422 9.46664 162.186 8.19974C160.95 6.93342 159.053 6.30026 156.494 6.30026C155.084 6.30026 153.881 6.43 152.883 6.68976C151.886 6.94981 150.91 7.29607 149.956 7.72883L151.029 10.8791C151.81 10.5543 152.58 10.2946 153.339 10.0995C154.098 9.90476 154.965 9.80753 155.941 9.80753C157.307 9.80753 158.353 10.1213 159.08 10.7491C159.806 11.3769 160.17 12.2865 160.17 13.477V13.8991C159.497 13.6825 158.798 13.5096 158.071 13.3795C157.345 13.2501 156.462 13.1848 155.42 13.1848C154.423 13.1848 153.496 13.2984 152.639 13.5257C151.783 13.7532 151.045 14.0941 150.427 14.5486C149.809 15.0034 149.327 15.5772 148.98 16.2697C148.633 16.9628 148.459 17.7746 148.459 18.7054V18.7707C148.459 19.6363 148.627 20.3997 148.964 21.0603C149.3 21.7206 149.744 22.2724 150.297 22.7164C150.85 23.1599 151.495 23.4957 152.233 23.723C152.97 23.9505 153.751 24.0642 154.575 24.0642C155.876 24.0642 156.982 23.8256 157.893 23.3496C158.804 22.8733 159.552 22.289 160.137 21.5957V23.7069H164.04V23.7069ZM160.235 17.5039C160.235 18.0454 160.121 18.5375 159.893 18.9816C159.666 19.4257 159.346 19.8042 158.934 20.1179C158.522 20.4322 158.039 20.6759 157.486 20.8489C156.933 21.0221 156.331 21.1089 155.681 21.1089C154.748 21.1089 153.962 20.8924 153.323 20.4591C152.683 20.0263 152.363 19.3983 152.363 18.5757V18.511C152.363 17.6231 152.71 16.9411 153.404 16.4651C154.098 15.9888 155.063 15.7502 156.299 15.7502C157.058 15.7502 157.779 15.8152 158.462 15.945C159.145 16.075 159.736 16.2375 160.235 16.4323V17.5039V17.5039ZM181.606 6.55974H177.507L173.051 19.29L168.171 6.55974H163.975L171.132 23.7069C170.806 24.4647 170.459 24.9839 170.091 25.2658C169.722 25.547 169.255 25.6878 168.692 25.6878C168.28 25.6878 167.884 25.6281 167.504 25.5094C167.125 25.3898 166.751 25.2332 166.382 25.0382L165.049 27.9609C165.656 28.2863 166.279 28.5404 166.919 28.7244C167.559 28.9081 168.291 29 169.115 29C169.809 29 170.427 28.9138 170.969 28.7402C171.511 28.5672 172.01 28.2914 172.465 27.9123C172.921 27.5333 173.333 27.0412 173.701 26.4346C174.07 25.8285 174.428 25.0817 174.775 24.1942L181.606 6.55974V6.55974ZM198.585 23.7069V0H194.65V9.22298C194.021 8.42192 193.24 7.71809 192.308 7.11178C191.375 6.50575 190.204 6.20245 188.795 6.20245C187.775 6.20245 186.783 6.39749 185.818 6.787C184.853 7.17707 184.002 7.75625 183.265 8.52452C182.527 9.29308 181.936 10.2295 181.492 11.3336C181.047 12.438 180.825 13.7046 180.825 15.1332C180.825 16.5623 181.053 17.8286 181.508 18.933C181.963 20.0371 182.56 20.9735 183.297 21.7421C184.034 22.5104 184.88 23.0898 185.834 23.4793C186.788 23.8694 187.775 24.0642 188.795 24.0642C190.182 24.0642 191.348 23.7498 192.291 23.1223C193.234 22.4943 194.021 21.737 194.65 20.8489V23.7069H198.585V23.7069ZM194.714 15.1332C194.714 15.9778 194.579 16.7356 194.308 17.4066C194.037 18.0774 193.673 18.6568 193.218 19.1439C192.763 19.6312 192.232 20.0048 191.624 20.2643C191.017 20.5244 190.388 20.6544 189.737 20.6544C189.065 20.6544 188.431 20.5244 187.835 20.2643C187.238 20.0048 186.713 19.6363 186.257 19.1605C185.802 18.684 185.444 18.1051 185.184 17.4227C184.924 16.7407 184.793 15.9778 184.793 15.1332C184.793 14.2674 184.924 13.4934 185.184 12.8114C185.444 12.1296 185.802 11.5501 186.257 11.0739C186.713 10.5973 187.238 10.2349 187.835 9.98589C188.431 9.73714 189.065 9.61249 189.737 9.61249C190.388 9.61249 191.017 9.74223 191.624 10.0023C192.232 10.262 192.763 10.6354 193.218 11.1228C193.673 11.6101 194.037 12.189 194.308 12.86C194.579 13.531 194.714 14.2889 194.714 15.1332V15.1332ZM215.435 23.7069V13.5421C215.435 11.2468 214.817 9.46664 213.581 8.19974C212.345 6.93342 210.447 6.30026 207.889 6.30026C206.479 6.30026 205.275 6.43 204.278 6.68976C203.28 6.94981 202.304 7.29607 201.35 7.72883L202.424 10.8791C203.204 10.5543 203.974 10.2946 204.733 10.0995C205.492 9.90476 206.36 9.80753 207.335 9.80753C208.701 9.80753 209.748 10.1213 210.475 10.7491C211.201 11.3769 211.564 12.2865 211.564 13.477V13.8991C210.892 13.6825 210.192 13.5096 209.466 13.3795C208.739 13.2501 207.856 13.1848 206.815 13.1848C205.817 13.1848 204.89 13.2984 204.034 13.5257C203.177 13.7532 202.44 14.0941 201.821 14.5486C201.204 15.0034 200.722 15.5772 200.375 16.2697C200.027 16.9628 199.853 17.7746 199.853 18.7054V18.7707C199.853 19.6363 200.022 20.3997 200.358 21.0603C200.694 21.7206 201.139 22.2724 201.692 22.7164C202.245 23.1599 202.889 23.4957 203.627 23.723C204.364 23.9505 205.145 24.0642 205.969 24.0642C207.27 24.0642 208.376 23.8256 209.287 23.3496C210.198 22.8733 210.946 22.289 211.531 21.5957V23.7069H215.435V23.7069ZM211.629 17.5039C211.629 18.0454 211.515 18.5375 211.287 18.9816C211.06 19.4257 210.74 19.8042 210.328 20.1179C209.916 20.4322 209.434 20.6759 208.881 20.8489C208.327 21.0221 207.726 21.1089 207.075 21.1089C206.143 21.1089 205.357 20.8924 204.717 20.4591C204.077 20.0263 203.757 19.3983 203.757 18.5757V18.511C203.757 17.6231 204.104 16.9411 204.798 16.4651C205.492 15.9888 206.457 15.7502 207.693 15.7502C208.452 15.7502 209.173 15.8152 209.857 15.945C210.539 16.075 211.13 16.2375 211.629 16.4323V17.5039V17.5039ZM233 6.55974H228.902L224.445 19.29L219.566 6.55974H215.37L222.526 23.7069C222.201 24.4647 221.854 24.9839 221.485 25.2658C221.116 25.547 220.65 25.6878 220.086 25.6878C219.674 25.6878 219.279 25.6281 218.899 25.5094C218.52 25.3898 218.146 25.2332 217.777 25.0382L216.443 27.9609C217.05 28.2863 217.674 28.5404 218.314 28.7244C218.953 28.9081 219.685 29 220.509 29C221.203 29 221.821 28.9138 222.363 28.7402C222.906 28.5672 223.404 28.2914 223.86 27.9123C224.315 27.5333 224.727 27.0412 225.095 26.4346C225.465 25.8285 225.822 25.0817 226.169 24.1942L233 6.55974V6.55974Z" fill="#8FBF55"/>
</svg>
