<svg width="315" height="213" viewBox="0 0 315 213" fill="none" xmlns="http://www.w3.org/2000/svg">
<path d="M32.4724 361C28.6305 356.5 24.7886 351.999 20.9483 347.498C-8.33329 313.191 -39.4054 285.523 -52.6448 238.385C-64.842 194.963 -62.5433 148.149 -41.3729 113.692C-17.0236 74.0614 33.0843 52.5007 76.8464 74.2643C95.4106 83.4963 111.235 100.503 129.285 111.293C149.777 123.544 171.971 125.493 193.489 126.133C208.669 126.586 224.119 128.005 239.029 133.766C293.164 154.681 297.836 218.331 303.325 272.412L32.4724 361Z" fill="#F4F7FB"/>
<path d="M28.6626 147.754C30.6951 147.754 32.3428 146.106 32.3428 144.074C32.3428 142.041 30.6951 140.394 28.6626 140.394C26.6301 140.394 24.9824 142.041 24.9824 144.074C24.9824 146.106 26.6301 147.754 28.6626 147.754Z" fill="#296DB3"/>
<path d="M28.6626 151.947C24.322 151.947 20.7897 148.414 20.7897 144.074C20.7897 139.733 24.322 136.201 28.6626 136.201C33.0032 136.201 36.5355 139.733 36.5355 144.074C36.5355 148.414 33.0066 151.947 28.6626 151.947ZM28.6626 136.541C24.5112 136.541 21.1336 139.919 21.1336 144.07C21.1336 148.222 24.5112 151.599 28.6626 151.599C32.814 151.599 36.1915 148.222 36.1915 144.07C36.1915 139.922 32.814 136.541 28.6626 136.541Z" fill="#296DB3"/>
<path d="M192.5 100C194.433 100 196 98.433 196 96.5C196 94.567 194.433 93 192.5 93C190.567 93 189 94.567 189 96.5C189 98.433 190.567 100 192.5 100Z" fill="#296DB3"/>
<path d="M233.749 232.499C222.86 232.499 214 223.639 214 212.749C214 201.86 222.86 193 233.749 193C244.639 193 253.499 201.86 253.499 212.749C253.499 223.639 244.639 232.499 233.749 232.499ZM233.749 193.344C223.049 193.344 214.344 202.049 214.344 212.749C214.344 223.45 223.049 232.155 233.749 232.155C244.45 232.155 253.155 223.45 253.155 212.749C253.155 202.049 244.45 193.344 233.749 193.344Z" fill="#296DB3"/>
<path d="M191.19 138.339C191.19 138.339 196.529 133.014 197.772 128.459C199.017 123.902 198.471 122.114 196.639 120.547C194.808 118.979 191.764 121.535 191.154 124.038C190.544 126.542 190.004 130.914 191.19 138.339Z" fill="#D8E4F1"/>
<path d="M197.275 136.625C197.275 136.625 204.806 136.253 208.783 133.705C212.76 131.157 213.557 129.467 213.248 127.075C212.939 124.684 208.969 124.54 206.837 125.989C204.704 127.438 201.372 130.32 197.275 136.625Z" fill="#D8E4F1"/>
<path d="M183.702 143.014C183.702 143.014 187.839 135.642 187.793 130.347C187.747 125.053 186.615 123.288 184.161 122.154C181.706 121.02 179.202 124.704 179.306 127.593C179.411 130.481 180.159 135.363 183.702 143.014Z" fill="#D8E4F1"/>
<path d="M179.047 143.383C179.047 143.383 179.908 134.974 177.759 130.134C175.609 125.295 173.867 124.127 171.166 124.064C168.462 124.001 167.633 128.378 168.877 130.987C170.122 133.595 172.753 137.775 179.047 143.383Z" fill="#D8E4F1"/>
<path d="M177.425 146.345C177.425 146.345 174.46 142.2 171.558 140.869C168.655 139.538 167.401 139.706 166.155 140.756C164.908 141.806 166.278 144.116 167.883 144.799C169.484 145.481 172.343 146.321 177.425 146.345Z" fill="#D8E4F1"/>
<path d="M192.609 140.59C192.609 140.59 199.595 137.752 204.275 138.385C208.956 139.017 210.391 140.216 211.119 142.514C211.848 144.812 208.308 146.618 205.763 146.202C203.22 145.788 198.983 144.579 192.609 140.59Z" fill="#D8E4F1"/>
<path d="M185.382 145.663C185.382 145.663 193.785 144.727 198.641 146.835C203.5 148.942 204.682 150.674 204.768 153.376C204.855 156.078 200.485 156.947 197.866 155.725C195.249 154.503 191.045 151.909 185.382 145.663Z" fill="#D8E4F1"/>
<path d="M183.227 149.804C183.227 149.804 191.308 152.291 194.925 156.159C198.543 160.026 198.94 162.084 197.943 164.597C196.945 167.111 192.592 166.169 190.676 164.004C188.759 161.841 185.936 157.789 183.227 149.804Z" fill="#D8E4F1"/>
<path d="M179.867 150.144C179.867 150.144 182.528 154.492 182.621 157.683C182.714 160.874 182.072 161.964 180.618 162.701C179.163 163.44 177.572 161.276 177.569 159.533C177.566 157.792 177.907 154.833 179.867 150.144Z" fill="#D8E4F1"/>
<path d="M199.948 135.002C199.369 135.387 198.528 135.934 197.46 136.614C195.946 137.578 193.978 138.816 191.669 140.256C191.375 140.439 191.076 140.627 190.771 140.817C190.678 140.874 190.589 140.929 190.496 140.987C190.39 141.053 190.282 141.12 190.174 141.187C188.357 142.317 186.37 143.551 184.249 144.863C184.098 144.956 183.947 145.051 183.792 145.145C183.707 145.198 183.621 145.252 183.533 145.306C183.531 145.305 183.531 145.305 183.531 145.305C183.477 145.339 183.423 145.373 183.369 145.406C182.357 146.031 181.317 146.675 180.253 147.328C180.198 147.363 180.142 147.398 180.085 147.432C180.081 147.437 180.074 147.44 180.068 147.443C179.974 147.502 179.88 147.56 179.785 147.618C179.676 147.685 179.568 147.754 179.455 147.822C179.432 147.836 179.408 147.85 179.384 147.866C168.328 154.68 155.024 162.807 144.638 169.085C144.461 169.191 144.287 169.297 144.11 169.403C136.563 173.966 130.634 177.502 128.37 178.766L128.074 178.118C130.28 176.885 136.013 173.466 143.343 169.038C143.518 168.933 143.695 168.826 143.874 168.72C154.294 162.42 167.788 154.181 178.977 147.286C179.056 147.237 179.135 147.189 179.213 147.14C179.332 147.067 179.447 146.997 179.564 146.923C179.616 146.89 179.669 146.858 179.722 146.827C179.743 146.813 179.765 146.8 179.785 146.787C179.921 146.705 180.055 146.62 180.19 146.538C181.177 145.929 182.143 145.331 183.088 144.75C183.321 144.607 183.554 144.461 183.785 144.319C185.983 142.957 188.043 141.68 189.911 140.515C190.249 140.305 190.579 140.099 190.901 139.898C193.979 137.979 196.471 136.407 198.126 135.341C198.677 134.985 199.135 134.686 199.49 134.449C199.875 134.198 200.334 134.745 199.948 135.002Z" fill="#D8E4F1"/>
<path d="M194.418 140.879C193.332 141.071 192.233 140.853 191.148 141.021C190.692 141.092 190.568 140.389 191.024 140.317C192.11 140.147 193.21 140.364 194.294 140.175C194.748 140.095 194.871 140.8 194.418 140.879Z" fill="#D8E4F1"/>
<path d="M192.11 136.648C191.578 138.087 191.043 139.528 190.511 140.967C190.351 141.4 189.676 141.15 189.842 140.715C190.375 139.276 190.908 137.839 191.441 136.4C191.599 135.968 192.27 136.215 192.11 136.648Z" fill="#D8E4F1"/>
<path d="M184.373 141.995C184.001 142.817 183.659 143.999 183.835 144.905C183.922 145.358 183.219 145.48 183.131 145.029C182.931 144.006 183.282 142.679 183.703 141.746C183.89 141.329 184.561 141.574 184.373 141.995Z" fill="#D8E4F1"/>
<path d="M186.756 146.462C186.235 146.351 185.738 146.144 185.238 145.963C184.94 145.855 183.991 145.424 183.8 145.522C183.389 145.732 183.093 145.082 183.501 144.873C183.909 144.664 184.547 144.965 184.933 145.097C185.554 145.309 186.175 145.611 186.818 145.749C187.261 145.845 187.203 146.558 186.756 146.462Z" fill="#D8E4F1"/>
<path d="M178.683 141.733C179.085 142.591 179.487 143.465 179.75 144.377C179.993 145.207 179.989 146.109 180.32 146.913C180.495 147.339 179.846 147.637 179.671 147.211C179.374 146.493 179.323 145.714 179.161 144.961C178.944 143.945 178.473 142.97 178.033 142.033C177.838 141.615 178.487 141.317 178.683 141.733Z" fill="#D8E4F1"/>
<path d="M184.066 151.099C183.37 150.243 182.27 149.742 181.435 149.087C180.822 148.604 180.125 148.26 179.434 147.901C179.008 147.679 179.434 147.082 179.836 147.312C181.419 148.219 183.45 149.208 184.619 150.645C184.909 151.003 184.357 151.457 184.066 151.099Z" fill="#D8E4F1"/>
<path d="M176.771 145.486C177.87 145.956 178.922 146.524 180.038 146.95C180.467 147.114 180.221 147.785 179.79 147.62C178.672 147.193 177.621 146.626 176.523 146.156C176.101 145.975 176.347 145.304 176.771 145.486Z" fill="#D8E4F1"/>
<path d="M179.614 151.408C179.864 150.748 179.773 149.923 179.699 149.237C179.625 148.564 179.531 147.841 179.244 147.222C179.051 146.804 179.7 146.506 179.893 146.923C180.234 147.659 180.35 148.522 180.424 149.321C180.493 150.078 180.559 150.929 180.284 151.655C180.122 152.085 179.451 151.839 179.614 151.408Z" fill="#D8E4F1"/>
<path d="M167 152H161V172H167V152Z" fill="#296DB3"/>
<path d="M36.5667 198.899C36.5667 198.899 29.4797 191.895 27.8085 185.885C26.1363 179.871 26.8462 177.505 29.2568 175.423C31.6674 173.341 35.7046 176.698 36.5263 180.003C37.348 183.307 38.0888 189.08 36.5667 198.899Z" fill="#D8E4F1"/>
<path d="M28.5145 196.67C28.5145 196.67 18.5613 196.225 13.2906 192.883C8.01987 189.54 6.95723 187.312 7.35025 184.15C7.74327 180.988 12.9892 180.774 15.8154 182.675C18.6427 184.579 23.064 188.366 28.5145 196.67Z" fill="#D8E4F1"/>
<path d="M46.4912 205.03C46.4912 205.03 40.9783 195.315 41.0064 188.319C41.0344 181.322 42.5198 178.983 45.756 177.47C48.9923 175.957 52.3231 180.81 52.2036 184.628C52.0831 188.444 51.1248 194.899 46.4912 205.03Z" fill="#D8E4F1"/>
<path d="M52.6426 205.489C52.6426 205.489 51.4536 194.382 54.2625 187.974C57.0737 181.566 59.368 180.013 62.9371 179.912C66.5094 179.812 67.6315 185.591 66.0026 189.047C64.3748 192.499 60.9249 198.039 52.6426 205.489Z" fill="#D8E4F1"/>
<path d="M54.8054 209.393C54.8054 209.393 58.6975 203.897 62.5242 202.121C66.3508 200.345 68.0088 200.558 69.6625 201.938C71.3162 203.317 69.5209 206.379 67.4041 207.291C65.2918 208.2 61.5228 209.329 54.8054 209.393Z" fill="#D8E4F1"/>
<path d="M34.7054 201.881C34.7054 201.881 25.4574 198.174 19.277 199.039C13.0965 199.903 11.2077 201.497 10.2589 204.538C9.31 207.579 13.9988 209.943 17.3587 209.377C20.7197 208.813 26.3081 207.19 34.7054 201.881Z" fill="#D8E4F1"/>
<path d="M44.2869 208.54C44.2869 208.54 33.1778 207.355 26.774 210.171C20.3669 212.985 18.8155 215.281 18.7184 218.852C18.6213 222.423 24.4001 223.544 27.8536 221.914C31.3028 220.28 36.8426 216.828 44.2869 208.54Z" fill="#D8E4F1"/>
<path d="M47.1598 213.999C47.1598 213.999 36.4978 217.334 31.7416 222.467C26.9854 227.6 26.4736 230.322 27.8066 233.636C29.1397 236.951 34.8862 235.679 37.4048 232.807C39.9244 229.937 43.629 224.563 47.1598 213.999Z" fill="#D8E4F1"/>
<path d="M24.9742 194.544C25.7413 195.049 26.8569 195.765 28.2724 196.658C30.2779 197.923 32.8863 199.546 35.9466 201.435C36.3352 201.674 36.7323 201.921 37.136 202.17C37.2598 202.245 37.377 202.317 37.5008 202.393C37.6407 202.48 37.784 202.568 37.9272 202.656C40.3356 204.137 42.9687 205.755 45.7789 207.476C45.9786 207.598 46.1793 207.723 46.3846 207.846C46.4975 207.916 46.6114 207.987 46.7276 208.057C46.7298 208.056 46.7298 208.056 46.7298 208.056C46.8015 208.1 46.8731 208.144 46.9447 208.189C48.2864 209.008 49.6638 209.852 51.0741 210.709C51.1468 210.755 51.2217 210.8 51.2966 210.846C51.3019 210.851 51.3118 210.855 51.3194 210.86C51.4442 210.937 51.5679 211.012 51.695 211.089C51.8382 211.177 51.9825 211.267 52.1313 211.356C52.1617 211.375 52.1943 211.393 52.2257 211.414C66.8764 220.349 84.5064 231.005 98.2679 239.237C98.5025 239.376 98.7338 239.515 98.9674 239.652C108.967 245.635 116.823 250.27 119.822 251.927L120.21 251.068C117.287 249.453 109.69 244.971 99.9776 239.165C99.7463 239.027 99.5117 238.887 99.2748 238.748C85.4677 230.488 67.5856 219.684 52.7591 210.643C52.6538 210.578 52.5495 210.516 52.4465 210.451C52.2891 210.355 52.136 210.263 51.9808 210.167C51.9125 210.124 51.8419 210.082 51.7712 210.041C51.7442 210.023 51.7158 210.008 51.6877 209.988C51.5085 209.881 51.3306 209.77 51.1514 209.662C49.8434 208.863 48.5636 208.079 47.3108 207.318C47.0025 207.13 46.6932 206.939 46.3882 206.752C43.4749 204.966 40.7452 203.291 38.2697 201.763C37.8215 201.488 37.3841 201.218 36.9576 200.955C32.8782 198.437 29.5768 196.376 27.3831 194.978C26.6523 194.511 26.0452 194.119 25.5751 193.807C25.0668 193.477 24.4628 194.207 24.9742 194.544Z" fill="#D8E4F1"/>
<path d="M32.3176 202.275C33.7539 202.523 35.2046 202.227 36.64 202.443C37.2426 202.534 37.402 201.604 36.7993 201.513C35.3629 201.295 33.9089 201.589 32.4769 201.345C31.877 201.241 31.7187 202.174 32.3176 202.275Z" fill="#D8E4F1"/>
<path d="M35.3406 196.671C36.053 198.569 36.7686 200.469 37.4809 202.367C37.6945 202.939 38.585 202.604 38.3625 202.031C37.6502 200.132 36.9366 198.237 36.2243 196.339C36.0117 195.769 35.127 196.099 35.3406 196.671Z" fill="#D8E4F1"/>
<path d="M45.6003 203.686C46.0967 204.771 46.5558 206.331 46.3288 207.529C46.2164 208.127 47.1457 208.284 47.2591 207.688C47.517 206.334 47.0456 204.584 46.484 203.354C46.2316 202.805 45.3459 203.132 45.6003 203.686Z" fill="#D8E4F1"/>
<path d="M42.4787 209.604C43.1658 209.453 43.8213 209.177 44.481 208.935C44.8741 208.791 46.1249 208.214 46.3789 208.343C46.9228 208.619 47.3096 207.758 46.769 207.483C46.2294 207.211 45.3874 207.611 44.8784 207.788C44.0601 208.072 43.2414 208.476 42.3936 208.664C41.8054 208.792 41.8848 209.732 42.4787 209.604Z" fill="#D8E4F1"/>
<path d="M53.114 203.307C52.5891 204.442 52.0633 205.6 51.7202 206.807C51.4049 207.905 51.4151 209.097 50.9833 210.161C50.7544 210.725 51.6141 211.115 51.843 210.551C52.2301 209.6 52.2933 208.572 52.5021 207.575C52.783 206.231 53.3988 204.939 53.9747 203.699C54.2298 203.145 53.3702 202.755 53.114 203.307Z" fill="#D8E4F1"/>
<path d="M46.0592 215.715C46.9736 214.578 48.4229 213.91 49.5222 213.039C50.3295 212.398 51.2484 211.938 52.1592 211.46C52.721 211.164 52.1545 210.377 51.6246 210.684C49.5379 211.893 46.8604 213.212 45.3248 215.118C44.9461 215.591 45.676 216.19 46.0592 215.715Z" fill="#D8E4F1"/>
<path d="M55.6628 208.252C54.2141 208.879 52.8268 209.637 51.3548 210.206C50.7884 210.425 51.1183 211.31 51.687 211.09C53.1612 210.519 54.5462 209.762 55.9949 209.135C56.5521 208.895 56.2223 208.011 55.6628 208.252Z" fill="#D8E4F1"/>
<path d="M51.9435 216.095C51.6087 215.223 51.7234 214.133 51.8172 213.227C51.9103 212.337 52.0306 211.381 52.4058 210.561C52.6587 210.008 51.799 209.618 51.5461 210.171C51.1012 211.145 50.9522 212.286 50.8601 213.341C50.7735 214.342 50.6908 215.467 51.0588 216.425C51.277 216.994 52.1617 216.665 51.9435 216.095Z" fill="#D8E4F1"/>
<path d="M193.191 225.587C193.191 225.587 197.023 220.799 197.614 217.002C198.205 213.208 197.605 211.81 195.981 210.71C194.357 209.609 192.13 211.951 191.865 214.03C191.599 216.111 191.558 219.693 193.191 225.587Z" fill="#D8E4F1"/>
<path d="M171.676 95.9087C172.279 96.8338 172.016 98.0737 171.091 98.6761C170.166 99.2785 168.926 99.0164 168.324 98.0913C167.722 97.1662 167.984 95.9263 168.909 95.3239C169.836 94.7215 171.074 94.9836 171.676 95.9087Z" fill="white"/>
<path d="M181.757 89.6819C182.209 90.3769 182.012 91.3044 181.319 91.7569C180.623 92.2094 179.696 92.0116 179.243 91.3186C178.791 90.6236 178.988 89.6962 179.682 89.2437C180.375 88.7912 181.304 88.9868 181.757 89.6819Z" fill="white"/>
<path d="M177.806 85.702C176.914 86.2833 176.248 87.0847 175.838 87.9896C175.488 88.761 175.321 89.6057 175.355 90.4541C175.387 91.4004 175.671 92.3467 176.224 93.197C177.215 94.7209 178.852 95.5806 180.541 95.654C181.631 95.701 182.739 95.4226 183.721 94.7848C185.444 93.6636 186.319 91.7183 186.163 89.7994C186.095 88.9303 185.814 88.0668 185.307 87.286C183.675 84.7839 180.31 84.0728 177.806 85.702ZM185.799 89.7768C185.965 91.5848 185.149 93.4247 183.523 94.4838C182.46 95.1761 181.228 95.4169 180.06 95.2514C178.662 95.052 177.352 94.2769 176.523 93.0033C176.103 92.3599 175.847 91.6506 175.753 90.9338C175.62 89.9631 175.772 88.9735 176.186 88.0931C176.572 87.2691 177.183 86.5392 178.003 86.0068C180.342 84.4848 183.484 85.147 185.004 87.4836C185.466 88.1928 185.728 88.9829 185.799 89.7768Z" fill="white"/>
<path d="M189.345 107.877C189.965 106.964 191.209 106.725 192.123 107.345C193.036 107.965 193.275 109.209 192.655 110.123C192.035 111.036 190.791 111.275 189.877 110.655C188.964 110.035 188.725 108.793 189.345 107.877Z" fill="white"/>
<path d="M153.305 302L60.5823 301.949C54.7342 301.946 49.9962 297.11 50 291.145L50.1018 105.794C50.1056 99.8286 54.8473 94.9963 60.6954 95L153.418 95.0506C159.266 95.0544 164.002 99.8905 164 105.855L163.898 291.206C163.894 297.171 159.151 302.004 153.305 302Z" fill="#296DB3"/>
<path d="M158 112.058L157.941 220.661L157.904 285L56 284.942L56.0057 273.875L56.0152 258.783L56.0492 198.003L56.0568 182.829L56.0851 135.769L56.0965 112L158 112.058Z" fill="#9DBCDC"/>
<path d="M158 112H56V122H158V112Z" fill="#D8E4F1"/>
<path d="M125.965 96.1283C125.963 98.2884 124.212 100.04 122.05 100.04C119.891 100.04 118.14 98.286 118.14 96.1259C118.142 93.9657 119.893 92.2144 122.053 92.2144C124.217 92.2144 125.965 93.9657 125.965 96.1283Z" fill="white"/>
<path d="M119.888 104.91C119.248 106.713 118.824 108.75 118.826 110.696C118.831 112.637 119.346 114.622 120.784 115.895C122.212 117.183 124.317 117.603 126.341 117.62C128.393 117.617 130.456 117.264 132.478 116.786C130.5 117.428 128.466 117.954 126.359 118.128C124.283 118.27 121.981 118.064 120.136 116.68C119.231 115.998 118.529 115.044 118.082 114.008C117.629 112.97 117.4 111.864 117.302 110.769C117.13 108.556 117.391 106.424 117.962 104.257L119.888 104.91Z" fill="#202020"/>
<path d="M117.283 87.7551C114.299 88.3551 111.735 90.4827 110.761 93.1632C109.787 95.8462 110.437 98.9905 112.413 101.165C113.83 102.725 115.806 103.749 117.394 105.16C119.049 106.63 120.261 108.525 120.862 110.573C121.29 112.029 121.427 113.596 122.287 114.878C123.817 117.162 127.653 117.712 129.832 115.966C131.494 114.632 132.018 112.463 132.258 110.432C132.865 105.311 132.258 100.062 130.497 95.1618C129.596 92.6524 128.311 90.1355 126.066 88.5014C123.82 86.8673 120.406 86.3788 118.15 87.9758L117.283 87.7551Z" fill="#202020"/>
<path d="M118.421 102.648C118.421 102.648 115.899 116.494 125.965 116.995L124.798 108.549L118.421 102.648Z" fill="#202020"/>
<path d="M193.24 208.291L151.887 203.892C149.884 203.892 147.22 202.214 144.41 199.78C141.422 197.194 138.271 193.752 135.571 190.568C131.576 185.849 128.574 181.687 128.574 181.687L139.188 148.296L139.319 148.618L147.079 167.406V167.408L153.766 183.602L195.09 199.777L193.24 208.291Z" fill="#A37661"/>
<path d="M146.833 166.978V166.98L144.117 199.162C141.078 196.591 137.873 193.169 135.127 190.003C135.041 183.477 135.152 162.867 135.192 162.161C135.229 161.507 137.844 152.193 138.942 148.296L146.833 166.978Z" fill="#7F5C4C"/>
<path d="M138.37 129.035L129.619 127.429L111.619 219.683L121.537 229.159L130.12 224.116C130.12 224.118 145.65 166.865 138.37 129.035Z" fill="white"/>
<path d="M138.352 128.733C138.352 128.733 149.713 178.536 130.043 229.159L124.661 226.471C124.661 226.471 142.521 182.933 138.352 128.733Z" fill="#9DDCA0"/>
<path d="M140.312 114.999L137.449 129.813C137.203 131.078 135.812 131.728 134.706 131.098L124.661 125.359L130 107.865L140.312 114.999Z" fill="#A37661"/>
<path d="M123.357 87.4796L141.461 81.7803L144.225 92.7975L128.858 100.04L123.357 87.4796Z" fill="#202020"/>
<path d="M157.027 96.5387C157.022 96.7035 156.995 96.8659 156.978 97.0283C156.394 101.831 154.725 106.512 152.011 110.613C151.17 111.886 150.266 113.142 149.109 114.181C146.23 116.75 139.244 117.691 135.465 116.454C132.078 115.346 129.415 112.71 127.776 109.71C126.137 106.713 125.402 103.355 124.894 100.028C121.968 100.274 119.153 97.5991 119.468 94.8646C119.784 92.1205 121.729 90.4535 125.912 91.3873C126.043 91.3897 126.176 91.3801 126.312 91.361C134.41 90.8213 140.863 86.0161 148.5 84.1437C149.851 83.8142 153.778 82.4457 154.846 83.4416C155.309 83.8667 155.605 84.6668 155.847 85.2161C156.428 86.4556 156.781 87.7763 156.99 89.1065C157.249 90.7281 157.306 92.3641 157.244 93.9976C157.205 94.855 157.133 95.7029 157.027 96.5387Z" fill="#A37661"/>
<path d="M157.267 90.7977C153.293 91.2346 148.723 90.3633 143.364 88.748C141.818 88.2762 140.363 87.9965 139.008 87.8542C142.122 86.4711 145.24 85.0481 148.57 84.1918C149.928 83.8473 153.875 82.4167 154.948 83.4578C155.414 83.9022 155.711 84.7385 155.954 85.3127C156.539 86.6085 156.893 87.9891 157.104 89.3796C157.18 89.8515 157.235 90.3208 157.267 90.7977Z" fill="#A37661"/>
<path d="M157.037 96.0281C151.189 96.3453 139.536 95.9086 133.483 94.5686C129.888 93.7711 128.125 92.3299 127.27 91.0497C135.117 90.5303 141.371 85.9059 148.772 84.1039C150.081 83.7867 153.886 82.4697 154.921 83.4282C155.37 83.8373 155.656 84.6073 155.891 85.1359C156.454 86.3288 156.796 87.5998 156.999 88.88C157.25 90.4406 157.305 92.0151 157.245 93.5872C157.209 94.4077 157.14 95.2237 157.037 96.0281Z" fill="#7F5C4C"/>
<path d="M151.67 78.9608C152.365 78.9215 152.296 77.8787 151.602 77.9155C150.91 77.9548 150.976 79 151.67 78.9608Z" fill="#202020"/>
<path d="M137.016 105.844L147.619 105.258C147.942 105.241 148.196 105.515 148.126 105.81C147.722 107.469 146.138 112.038 141.026 111.766C135.706 111.485 136.288 107.389 136.574 106.191C136.622 105.995 136.802 105.857 137.016 105.844Z" fill="white"/>
<path d="M115.119 90.3211C115.138 90.4339 115.146 90.402 115.158 90.4192C115.173 90.4339 115.177 90.4168 115.187 90.4143C115.209 90.407 115.222 90.3824 115.236 90.3603C115.263 90.3162 115.29 90.2548 115.298 90.1959C115.33 90.0683 115.312 89.9309 115.261 89.7715C115.141 89.4672 114.802 89.109 114.309 88.8759C113.823 88.6305 113.234 88.4588 112.616 88.3508C111.995 88.2379 111.347 88.2011 110.685 88.1717C111.269 87.8723 111.867 87.5705 112.518 87.3399C113.165 87.1068 113.86 86.9228 114.633 86.8688C115.398 86.8075 116.291 86.9203 117.177 87.3988C117.611 87.6466 118.038 87.9803 118.379 88.4146C118.559 88.6256 118.706 88.8612 118.843 89.1163C118.909 89.2464 118.973 89.374 119.027 89.5212C119.054 89.5972 119.081 89.6586 119.108 89.7494C119.133 89.8451 119.157 89.8917 119.182 90.0831L115.119 90.3211Z" fill="#202020"/>
<path d="M129.394 89.6268C129.198 90.2991 129.053 91.1186 128.952 91.8866C128.852 92.6668 128.793 93.4593 128.817 94.247C128.854 95.8148 129.146 97.4367 130.206 98.7519C129.507 98.293 128.91 97.6404 128.432 96.9067C127.946 96.1706 127.61 95.3536 127.316 94.5242C127.026 93.69 126.822 92.8312 126.665 91.9626C126.513 91.0793 126.395 90.2451 126.364 89.2734L129.394 89.6268Z" fill="#202020"/>
<path d="M170.39 78.486C166.728 86.0591 162.341 89.2947 156.684 89.8876C152.84 90.2885 148.419 89.47 143.231 87.9577C141.735 87.5161 140.328 87.252 139.014 87.1176C132.948 86.5055 128.907 88.8387 126.693 90.7205H126.683C126.554 90.7373 126.435 90.7469 126.306 90.7445C124.486 90.3317 123.096 90.4325 122.099 90.9102L118.14 87.7441C119.695 61.5108 137.978 72.1971 137.978 72.1971L142.832 65.1281C158.383 45.5965 176.525 65.7882 170.39 78.486Z" fill="#202020"/>
<path d="M118.627 91.401C118.161 90.5839 117.815 89.8257 117.469 89.016C117.13 88.2162 116.839 87.3991 116.608 86.5599C116.375 85.7257 116.196 84.8694 116.154 84.0008C116.11 83.1396 116.186 82.2538 116.52 81.4907C116.436 82.3225 116.625 83.1126 116.9 83.8487C117.172 84.5872 117.565 85.2816 117.999 85.9416C118.431 86.6017 118.909 87.2322 119.425 87.8334C119.93 88.4247 120.492 89.0308 121.022 89.5166L118.627 91.401Z" fill="#202020"/>
<path d="M127.252 89.3051C128.496 88.6794 129.624 88.3015 130.864 87.9654C132.085 87.6513 133.337 87.4354 134.61 87.3765C137.145 87.2685 139.802 87.7494 142.03 89.0621L142.859 89.5504L143.549 89.9872C144.02 90.2644 144.508 90.5245 145.009 90.7625C146.012 91.241 147.065 91.6409 148.145 91.9599C150.301 92.6126 152.556 92.9536 154.814 92.9536C155.942 92.9364 157.068 92.8358 158.18 92.642C159.284 92.4187 160.381 92.1292 161.429 91.6998C163.526 90.8582 165.45 89.5627 167.067 87.9359C170.303 84.6431 172.237 80.2241 173.427 75.7192C172.48 80.2781 170.799 84.8443 167.624 88.4561C166.036 90.2374 164.078 91.7268 161.885 92.7475C160.791 93.2652 159.632 93.6406 158.46 93.9449C157.279 94.2197 156.077 94.3939 154.865 94.4773C152.443 94.6123 150.007 94.3767 147.646 93.8001C146.464 93.518 145.301 93.1475 144.162 92.6813C143.593 92.4482 143.031 92.1881 142.479 91.901L141.66 91.4422L140.953 91.079C139.076 90.1025 136.917 89.8375 134.802 90.0362C133.739 90.1417 132.684 90.3846 131.656 90.7085C130.65 91.03 129.578 91.479 128.753 91.955L128.697 91.9869C127.966 92.4089 127.033 92.1586 126.611 91.4275C126.189 90.6963 126.44 89.7639 127.171 89.3419C127.2 89.332 127.227 89.3173 127.252 89.3051Z" fill="#202020"/>
<path d="M163.2 61.4043C165.754 62.7563 167.779 65.0946 168.785 67.8328C169.803 70.5932 169.678 73.6504 168.932 76.4672C168.586 77.8952 167.941 79.2423 167.15 80.4936C166.684 81.0678 166.292 81.7131 165.72 82.1965C165.45 82.4516 165.192 82.724 164.91 82.9644L164.005 83.6196C161.549 85.3469 158.546 86.0266 155.636 86.2793C152.698 86.5075 149.754 86.2867 146.871 85.818C145.436 85.5506 143.993 85.3028 142.582 84.9323C141.142 84.5961 139.795 84.2232 138.418 84.0269L137.385 83.887C137.042 83.8502 136.698 83.8551 136.352 83.8355C135.663 83.7742 134.986 83.8625 134.308 83.8968C132.969 84.0735 131.671 84.4391 130.518 85.0721C128.184 86.3235 126.597 88.652 125.748 91.1989L123.829 90.529C124.869 87.6656 126.83 84.9274 129.686 83.5018C131.089 82.7829 132.623 82.405 134.149 82.2529C134.912 82.2308 135.678 82.1646 136.428 82.248C136.804 82.2774 137.184 82.2872 137.557 82.3388L138.666 82.5203C140.141 82.7755 141.574 83.2196 142.933 83.5779C144.305 83.9827 145.703 84.2624 147.097 84.5667C149.894 85.1065 152.743 85.4009 155.572 85.266C158.376 85.1065 161.242 84.5397 163.588 82.9865L164.456 82.3977C164.729 82.1793 164.974 81.9315 165.237 81.6984C165.789 81.2592 166.171 80.6629 166.633 80.1329C167.413 78.9699 168.073 77.7038 168.446 76.3298C169.248 73.6185 169.462 70.6447 168.547 67.9187C167.641 65.2123 165.713 62.8299 163.2 61.4043Z" fill="#454545"/>
<path d="M127.416 122.216C127.416 122.216 135.095 121.597 135.095 135.22C135.095 148.843 117.933 222.838 117.933 222.838C95.7013 230.498 78.6834 231.293 67.2748 224.694C67.2723 224.694 82.6276 125.932 127.416 122.216Z" fill="#9DDCA0"/>
<path d="M99.8807 168.051L85.2453 174.942L55.5367 218.725L55.5464 199.203L70.6196 168.429L85.8957 153.513L99.8807 168.051Z" fill="#A37661"/>
<path d="M84.2299 153.056L100.464 170.469C100.464 170.469 137.495 143.006 131.914 127.117C126.334 111.231 84.2299 153.056 84.2299 153.056Z" fill="#9DDCA0"/>
<path d="M81.6214 157.02L89.9852 173.077L98.5765 168.767L84.9889 153.513L81.6214 157.02Z" fill="#7F5C4C"/>
<path d="M194.744 199.725L209.699 200.697L218.794 206.013C220.13 206.794 220.41 208.718 219.361 209.896C218.692 210.648 217.723 211.003 216.763 210.849L209.941 209.76L192.982 207.948L194.744 199.725Z" fill="#A37661"/>
<path d="M202.288 205.683L209.281 211.332C209.585 211.576 209.416 212.035 209.012 212.062L207.07 212.194C206.277 212.248 205.481 212.093 204.778 211.751L196.394 207.654L202.288 205.683Z" fill="#A37661"/>
<path d="M53 125H47V146H53V125Z" fill="#296DB3"/>
<path d="M53 150H47V170H53V150Z" fill="#296DB3"/>
</svg>
