<svg width="43" height="43" viewBox="0 0 43 43" fill="none" xmlns="http://www.w3.org/2000/svg">
<circle cx="21.5" cy="21.5" r="21.5" fill="#1E5083"/>
<path d="M32.1597 15.1297C31.3441 15.4911 30.4689 15.7362 29.5494 15.8456C30.4883 15.2834 31.207 14.3916 31.5476 13.3323C30.6669 13.853 29.6948 14.231 28.659 14.436C27.8296 13.5511 26.6498 13 25.3412 13C22.8307 13 20.7952 15.0355 20.7952 17.5447C20.7952 17.9005 20.8354 18.2481 20.9129 18.5804C17.1354 18.3907 13.7858 16.5809 11.5439 13.8308C11.1521 14.501 10.9291 15.282 10.9291 16.1156C10.9291 17.6928 11.7323 19.0845 12.9508 19.8986C12.2058 19.8737 11.5052 19.6688 10.8917 19.3281V19.3849C10.8917 21.5866 12.4593 23.4241 14.5377 23.8423C14.1569 23.9448 13.7553 24.0016 13.3399 24.0016C13.0464 24.0016 12.7625 23.9725 12.4842 23.9171C13.063 25.7242 14.7413 27.0383 16.7297 27.0743C15.1747 28.2929 13.2139 29.0171 11.0842 29.0171C10.7173 29.0171 10.3559 28.9949 10 28.9548C12.012 30.2467 14.4007 31 16.9679 31C25.3302 31 29.9012 24.0736 29.9012 18.0667L29.886 17.4782C30.7791 16.8412 31.5517 16.0408 32.1597 15.1297Z" fill="white"/>
</svg>
