<svg xmlns="http://www.w3.org/2000/svg" viewBox="0 0 56 56"><defs><style>.cls-1{fill:#d8f1d9;}.cls-2{fill:#29b32f;}</style></defs><title>law</title><g id="Layer_2" data-name="Layer 2"><g id="Layer_1-2" data-name="Layer 1"><circle class="cls-1" cx="28" cy="28" r="28"/><path class="cls-2" d="M26,35.5h13.2a2,2,0,0,1,2,2V41H24V37.45A2,2,0,0,1,26,35.5Z"/><path class="cls-2" d="M15.15,35.77l12-11.86-2.33-2.29a1,1,0,0,1-1.34,0,1,1,0,0,1,0-1.36l5-4.94a1,1,0,0,1,1.38,0,.94.94,0,0,1,0,1.36l0,0,6.38,6.27-.05,0a1,1,0,0,1,1.38,0,.94.94,0,0,1,0,1.36l-5,4.94a1,1,0,0,1-1.38,0,1,1,0,0,1,0-1.36l-.05,0L28.92,25.6l-12,11.86a1.23,1.23,0,0,1-1.72,0A1.17,1.17,0,0,1,15.15,35.77Z"/></g></g></svg>