<svg width="56" height="56" viewBox="0 0 56 56" fill="none" xmlns="http://www.w3.org/2000/svg">
<rect width="56" height="56" rx="28" fill="#CBE3F1"/>
<path d="M28.027 27.9999C31.3333 27.9999 34.2543 24.893 34.5405 21.0737C34.6827 19.155 34.0796 17.3656 32.842 16.0362C31.6176 14.7231 29.9059 14 28.027 14C26.1331 14 24.4202 14.7187 23.2045 16.0237C21.9751 17.3431 21.3758 19.1362 21.5135 21.0724C21.7948 24.8924 24.7152 27.9999 28.027 27.9999Z" fill="#1F74A4"/>
<path d="M41.0152 39.4849C40.4866 36.5587 38.8363 34.1006 36.2434 32.3756C33.9405 30.8437 31.0226 30 28.027 30C25.0314 30 22.1135 30.8437 19.8106 32.375C17.2178 34.1 15.5675 36.5581 15.0389 39.4843C14.918 40.1549 15.0821 40.8181 15.4892 41.3037C15.6738 41.525 15.9057 41.7023 16.1678 41.8228C16.4299 41.9433 16.7156 42.0038 17.0042 41.9999H39.0499C39.3386 42.004 39.6245 41.9437 39.8869 41.8233C40.1492 41.703 40.3813 41.5257 40.5661 41.3043C40.972 40.8187 41.1361 40.1556 41.0152 39.4849Z" fill="#1F74A4"/>
</svg>
