<svg width="119" height="119" viewBox="0 0 119 119" fill="none" xmlns="http://www.w3.org/2000/svg">
<path fill-rule="evenodd" clip-rule="evenodd" d="M29.3737 0H89.6263C105.782 0 119 13.2181 119 29.3737V89.6263C119 105.782 105.782 119 89.6263 119H29.3737C13.2183 119 0 105.782 0 89.6263V29.3737C0 13.2181 13.2183 0 29.3737 0Z" fill="#172A4D"/>
<path d="M58.938 26.3997C62.4279 26.3997 65.2569 23.5707 65.2569 20.0809C65.2569 16.591 62.4279 13.762 58.938 13.762C55.4482 13.762 52.6191 16.591 52.6191 20.0809C52.6191 23.5707 55.4482 26.3997 58.938 26.3997Z" fill="#8DBF57"/>
<path d="M58.938 105.734C62.4279 105.734 65.2569 102.904 65.2569 99.4145C65.2569 95.9246 62.4279 93.0955 58.938 93.0955C55.4482 93.0955 52.6191 95.9246 52.6191 99.4145C52.6191 102.904 55.4482 105.734 58.938 105.734Z" fill="white"/>
<path d="M99.4136 65.2569C102.903 65.2569 105.733 62.4279 105.733 58.938C105.733 55.4482 102.903 52.6191 99.4136 52.6191C95.9238 52.6191 93.0947 55.4482 93.0947 58.938C93.0947 62.4279 95.9238 65.2569 99.4136 65.2569Z" fill="#EF7438"/>
<path d="M19.271 65.2569C22.7609 65.2569 25.5899 62.4279 25.5899 58.938C25.5899 55.4482 22.7609 52.6191 19.271 52.6191C15.7812 52.6191 12.9521 55.4482 12.9521 58.938C12.9521 62.4279 15.7812 65.2569 19.271 65.2569Z" fill="#CCCCCC"/>
<path d="M87.2714 94.4005C90.7614 94.4005 93.5907 91.5713 93.5907 88.0812C93.5907 84.5912 90.7614 81.762 87.2714 81.762C83.7814 81.762 80.9521 84.5912 80.9521 88.0812C80.9521 91.5713 83.7814 94.4005 87.2714 94.4005Z" fill="#CCCCCC"/>
<path d="M30.6044 94.4005C34.0944 94.4005 36.9237 91.5713 36.9237 88.0812C36.9237 84.5912 34.0944 81.762 30.6044 81.762C27.1144 81.762 24.2852 84.5912 24.2852 88.0812C24.2852 91.5713 27.1144 94.4005 30.6044 94.4005Z" fill="#D2E1EF"/>
<path d="M87.2714 37.7337C90.7614 37.7337 93.5907 34.9045 93.5907 31.4145C93.5907 27.9244 90.7614 25.0952 87.2714 25.0952C83.7814 25.0952 80.9521 27.9244 80.9521 31.4145C80.9521 34.9045 83.7814 37.7337 87.2714 37.7337Z" fill="#E6E6E6"/>
<path d="M30.6044 38.5433C34.0944 38.5433 36.9237 35.7141 36.9237 32.224C36.9237 28.734 34.0944 25.9048 30.6044 25.9048C27.1144 25.9048 24.2852 28.734 24.2852 32.224C24.2852 35.7141 27.1144 38.5433 30.6044 38.5433Z" fill="#396EAE"/>
</svg>
