<svg width="56" height="56" viewBox="0 0 56 56" fill="none" xmlns="http://www.w3.org/2000/svg">
<circle cx="28" cy="28" r="28" fill="#991FA4"/>
<rect width="56" height="56" rx="10" fill="#C92B2B"/>
<path d="M17.2227 24.8495C17.0653 24.851 16.9104 24.8107 16.7735 24.7329C16.6732 24.6765 16.5851 24.6006 16.5144 24.5098C16.4437 24.4189 16.3919 24.3149 16.3619 24.2037C16.3319 24.0926 16.3244 23.9766 16.3398 23.8625C16.3552 23.7484 16.3932 23.6385 16.4515 23.5393C17.5762 21.6621 20.9982 17.2805 28.4651 17.2805C31.701 17.2805 34.539 18.1305 36.8964 19.8059C38.8366 21.1808 39.924 22.7372 40.442 23.4868C40.5077 23.5813 40.5538 23.688 40.5777 23.8006C40.6015 23.9132 40.6026 24.0294 40.5809 24.1424C40.5591 24.2554 40.515 24.3629 40.4511 24.4586C40.3871 24.5543 40.3047 24.6363 40.2086 24.6996C40.0123 24.8294 39.7731 24.8776 39.5418 24.8341C39.3105 24.7905 39.1053 24.6586 38.9696 24.4663C38.0321 23.1181 35.1737 19.016 28.4651 19.016C21.917 19.016 18.9565 22.7909 17.9922 24.4097C17.9147 24.5449 17.8025 24.6569 17.6673 24.7342C17.532 24.8116 17.3785 24.8514 17.2227 24.8495Z" fill="white"/>
<path d="M32.2272 42.0001C32.1527 42.001 32.0785 41.9925 32.0061 41.975C26.5897 40.6333 24.5672 35.2186 24.4849 34.9934L24.4721 34.9438C24.4278 34.7875 23.341 31.0744 25.0094 28.8997C25.7741 27.908 26.9373 27.3993 28.4733 27.3993C29.9014 27.3993 30.9316 27.8432 31.6398 28.762C32.2231 29.5122 32.4565 30.4374 32.6822 31.3288C33.1565 33.185 33.4989 34.1598 35.4701 34.2601C36.3358 34.3039 36.9045 33.7975 37.2271 33.3664C38.0992 32.191 38.2509 30.2747 37.5935 28.5829C36.7488 26.3994 33.7509 22.2827 28.4651 22.2827C26.2087 22.2827 24.1355 23.0078 22.4729 24.3705C21.0968 25.4993 20.0065 27.093 19.4815 28.7311C18.5079 31.7809 19.7848 36.5749 19.7971 36.6186C19.8269 36.7302 19.8341 36.8466 19.8182 36.961C19.8023 37.0754 19.7637 37.1855 19.7046 37.2847C19.6455 37.3839 19.5671 37.4703 19.4741 37.5387C19.3811 37.6072 19.2753 37.6563 19.163 37.6833C18.9361 37.7436 18.6946 37.7127 18.4902 37.5971C18.2859 37.4815 18.135 37.2904 18.0698 37.0649C18.0114 36.8461 16.6476 31.733 17.7723 28.2084C18.9973 24.3892 22.778 20.5391 28.4669 20.5391C31.0961 20.5391 33.58 21.4328 35.6532 23.1204C37.2586 24.433 38.57 26.1958 39.256 27.9582C40.1282 30.2082 39.8942 32.7335 38.6616 34.3832C37.8402 35.4834 36.6706 36.0586 35.375 35.9962C31.9997 35.827 31.393 33.4709 30.9508 31.7523C30.4958 29.9894 30.2047 29.1395 28.4669 29.1395C27.5125 29.1395 26.8423 29.402 26.4252 29.9457C25.8564 30.6894 25.8121 31.8521 25.8751 32.6956C25.9164 33.2833 26.0161 33.8654 26.1726 34.4334C26.3114 34.7834 28.1192 39.2169 32.4489 40.2897C32.5608 40.3162 32.6663 40.3647 32.7593 40.4323C32.8523 40.5 32.931 40.5854 32.9907 40.6837C33.0504 40.782 33.0899 40.8912 33.1071 41.0049C33.1242 41.1186 33.1186 41.2346 33.0906 41.3461C33.0377 41.5344 32.9248 41.7003 32.7689 41.8183C32.613 41.9364 32.4228 42.0002 32.2272 42.0001Z" fill="white"/>
<path d="M25.2747 41.5998C25.1533 41.6001 25.033 41.5759 24.9212 41.5286C24.8093 41.4814 24.7081 41.4122 24.6236 41.325C22.4559 39.05 21.2297 36.5059 20.7682 33.3249V33.308C20.5092 31.2021 20.8884 28.2206 22.7464 26.1707C24.1179 24.658 26.0459 23.8892 28.4668 23.8892C31.3299 23.8892 33.5799 25.2204 34.9828 27.7329C36.0008 29.5582 36.2026 31.3771 36.2079 31.4518C36.2186 31.5669 36.2064 31.683 36.1722 31.7934C36.1379 31.9039 36.0822 32.0064 36.0082 32.0953C35.9342 32.1842 35.8435 32.2576 35.7411 32.3113C35.6387 32.3651 35.5268 32.3981 35.4116 32.4085C35.1793 32.4337 34.9463 32.3665 34.7631 32.2215C34.5798 32.0764 34.461 31.8651 34.4322 31.6332C34.2785 30.5418 33.9253 29.488 33.3903 28.5245C32.3029 26.6058 30.6485 25.6305 28.4604 25.6305C26.5703 25.6305 25.0915 26.1992 24.0741 27.3222C22.6076 28.941 22.3241 31.4348 22.5253 33.0846C22.9296 35.8975 24.0105 38.1353 25.9193 40.135C25.9989 40.2179 26.0611 40.3159 26.1021 40.4233C26.1431 40.5307 26.1622 40.6452 26.158 40.7601C26.1539 40.875 26.1267 40.9879 26.0781 41.092C26.0294 41.1962 25.9603 41.2895 25.8749 41.3665C25.7104 41.5156 25.4967 41.5987 25.2747 41.5998Z" fill="white"/>
<path d="M35.2612 39.0938C33.3653 39.0938 31.7535 38.5688 30.4637 37.5252C27.8724 35.4374 27.5819 32.037 27.5691 31.8935C27.5508 31.6579 27.6269 31.4248 27.7805 31.2453C27.9342 31.0658 28.1528 30.9548 28.3884 30.9365C28.6239 30.9182 28.8571 30.9943 29.0366 31.148C29.216 31.3016 29.3271 31.5203 29.3454 31.7558C29.3518 31.806 29.6108 34.5874 31.6082 36.1893C32.7901 37.1332 34.3698 37.5077 36.3165 37.2889C36.5491 37.2607 36.7835 37.3258 36.9683 37.4698C37.1532 37.6139 37.2735 37.8253 37.3029 38.0578C37.3157 38.1727 37.3054 38.2889 37.2727 38.3997C37.2401 38.5106 37.1857 38.6138 37.1127 38.7034C37.0397 38.793 36.9496 38.8672 36.8477 38.9216C36.7457 38.976 36.634 39.0096 36.5189 39.0203C36.1014 39.069 35.6815 39.0936 35.2612 39.0938Z" fill="white"/>
<path d="M36.7589 15.9118C36.0192 15.4306 33.3964 13.999 28.4647 13.999C23.288 13.999 20.6589 15.5805 20.0773 15.9824C20.0388 16.006 20.0029 16.0334 19.9699 16.0641C19.9664 16.0675 19.9619 16.0695 19.9571 16.0699C19.8642 16.151 19.7897 16.251 19.7385 16.3631C19.6873 16.4753 19.6606 16.5971 19.6602 16.7204C19.6618 16.8359 19.6861 16.9501 19.7319 17.0562C19.7777 17.1623 19.844 17.2584 19.9269 17.3389C20.0099 17.4193 20.1079 17.4826 20.2154 17.5252C20.3229 17.5677 20.4377 17.5886 20.5533 17.5867C20.7385 17.5865 20.9193 17.5297 21.0713 17.4239C21.0964 17.4052 23.3592 15.7427 28.4665 15.7427C33.5737 15.7427 35.8488 17.3994 35.8733 17.4116C36.0286 17.5268 36.2172 17.5883 36.4106 17.5867C36.5263 17.5884 36.6411 17.5673 36.7486 17.5246C36.8561 17.4819 36.9541 17.4183 37.037 17.3376C37.1199 17.2569 37.186 17.1606 37.2316 17.0543C37.2771 16.948 37.3012 16.8337 37.3025 16.718C37.3026 16.5448 37.2509 16.3754 37.154 16.2318C37.0571 16.0881 36.9195 15.9767 36.7589 15.9118Z" fill="white"/>
</svg>
