<svg width="56" height="56" viewBox="0 0 56 56" fill="none" xmlns="http://www.w3.org/2000/svg">
<circle cx="28" cy="28" r="28" fill="#991FA4"/>
<rect width="56" height="56" rx="10" fill="#F79B24"/>
<path d="M16.8463 22.9234C16.3401 23.81 15.9439 24.7539 15.6631 25.7319H32.4437C32.7392 25.7319 33.012 25.8909 33.1575 26.1481L34.0181 27.6683L34.7096 26.2022C34.8451 25.9151 35.1341 25.7318 35.4515 25.7318H40.3649C40.0841 24.7539 39.6879 23.81 39.1817 22.9234C39.0356 22.6676 38.7637 22.5098 38.4693 22.5098H17.5587C17.2642 22.5098 16.9923 22.6676 16.8463 22.9234Z" fill="white"/>
<path d="M35.9712 27.3724L34.8259 29.8005C34.6952 30.0777 34.4208 30.2589 34.1145 30.2703C34.1043 30.2706 34.094 30.2708 34.0839 30.2708C33.7891 30.2708 33.516 30.1124 33.3701 29.8546L31.965 27.3724H15.3055C15.2106 28.0039 15.1621 28.6437 15.1621 29.2864C15.1621 32.7192 16.4989 35.9465 18.9263 38.3738C21.3536 40.8012 24.5809 42.138 28.0136 42.138C31.4464 42.138 34.6737 40.8012 37.1011 38.3738C39.5284 35.9465 40.8652 32.7192 40.8652 29.2864C40.8652 28.6437 40.8167 28.0038 40.7218 27.3723H35.9712V27.3724Z" fill="white"/>
<path d="M18.6012 20.3891L18.8785 20.8695H20.773L20.022 19.5688L23.3927 17.6228C23.6765 17.4589 23.8355 17.1419 23.7972 16.8164C23.7589 16.4909 23.5305 16.2195 23.2164 16.1261L16.647 14.1725C16.431 14.1082 16.1982 14.1357 16.003 14.2483C15.8079 14.361 15.6677 14.5489 15.6153 14.7681L14.0225 21.4341C13.9463 21.7529 14.0672 22.0863 14.3299 22.2823C14.4747 22.3903 14.6472 22.4451 14.8205 22.4451C14.9615 22.4451 15.1031 22.4087 15.2306 22.3352L18.6012 20.3891Z" fill="white"/>
<path d="M41.1945 14.1379H37.0804C36.7669 14.1379 36.4809 14.3165 36.3433 14.5982L33.2803 20.8691H35.1062L37.5927 15.7786H41.1945C41.6475 15.7786 42.0148 15.4113 42.0148 14.9583C42.0148 14.5053 41.6475 14.1379 41.1945 14.1379Z" fill="white"/>
</svg>
