<svg id="left" xmlns="http://www.w3.org/2000/svg" width="57" height="57" viewBox="0 0 57 57">
  <circle id="Ellipse_1" data-name="Ellipse 1" cx="28.5" cy="28.5" r="28.5" fill="#1e5083" opacity="0.4"/>
  <path id="Path_1" data-name="Path 1" d="M16.294,27.683l7.294-7.395a1.129,1.129,0,0,1,1.612,0,1.167,1.167,0,0,1,0,1.634l-5.348,5.422H39.33a1.156,1.156,0,0,1,0,2.311H19.851L25.2,35.077a1.167,1.167,0,0,1,0,1.634,1.129,1.129,0,0,1-1.612,0l-7.293-7.395A1.167,1.167,0,0,1,16.294,27.683Z" transform="translate(0.57)" fill="#fff"/>
</svg>
