<svg width="56" height="56" viewBox="0 0 56 56" fill="none" xmlns="http://www.w3.org/2000/svg">
<circle cx="28" cy="28" r="28" fill="#991FA4"/>
<rect width="56" height="56" rx="10" fill="#3F51B5"/>
<path d="M41.6911 14.3089C39.5443 13.5929 37.2174 14.1423 35.6171 15.7426L29.7707 21.5889L17.5897 16.3685L15.2695 18.6886L25.1303 26.2293L19.8005 31.5591L16.3202 30.3989L14 32.7192L19.8005 36.1995L23.2808 42L25.601 39.6798L24.4409 36.1996L29.7707 30.8697L37.3114 40.7306L39.6315 38.4104L34.4112 26.2293L40.2575 20.383C41.8578 18.7827 42.4072 16.4558 41.6911 14.3089Z" fill="white"/>
<path d="M40.212 28.5496C39.5713 27.9088 38.5325 27.9088 37.8917 28.5496L37.4014 29.0399L38.7934 32.2883L40.212 30.8697C40.8526 30.2289 40.8526 29.1903 40.212 28.5496Z" fill="white"/>
<path d="M27.4506 15.7883C26.81 15.1475 25.7712 15.1475 25.1305 15.7883L23.7119 17.2069L26.9602 18.599L27.4506 18.1085C28.0914 17.4678 28.0914 16.4291 27.4506 15.7883Z" fill="white"/>
</svg>
