<svg width="57" height="57" viewBox="0 0 57 57" fill="none" xmlns="http://www.w3.org/2000/svg">
<circle opacity="0.4" cx="28.5" cy="28.5" r="28.5" fill="#1E5083"/>
<path d="M40.1361 27.6829L32.8424 20.2883C32.3974 19.8372 31.6756 19.8372 31.2306 20.2883C30.7855 20.7396 30.7855 21.4711 31.2306 21.9223L36.5789 27.3445H17.0996C16.4703 27.3445 15.96 27.8619 15.96 28.4999C15.96 29.1379 16.4703 29.6553 17.0996 29.6553H36.5789L31.2308 35.0775C30.7857 35.5288 30.7857 36.2603 31.2308 36.7116C31.4533 36.937 31.745 37.05 32.0367 37.05C32.3283 37.05 32.62 36.937 32.8426 36.7116L40.1361 29.317C40.5812 28.8657 40.5812 28.1342 40.1361 27.6829Z" fill="white"/>
</svg>
