<svg width="70" height="70" viewBox="0 0 70 70" fill="none" xmlns="http://www.w3.org/2000/svg">
<rect width="70" height="70" rx="10" fill="#D8E4F1"/>
<path d="M16.8958 53.1021L22.6655 46.8997H38.1254C42.8078 46.8997 46.6172 43.0902 46.6172 38.4078C46.6172 35.9618 45.5612 33.6332 43.7199 32.0192C42.1718 30.6629 40.185 29.916 38.1254 29.916H25.3876C20.7052 29.916 16.8958 33.7254 16.8958 38.4078V53.1021Z" fill="white"/>
<path d="M45.1235 30.4228C43.1878 28.7269 40.704 27.7931 38.1296 27.7931H25.3919C24.8494 27.7931 24.3165 27.8342 23.7957 27.9131C23.5433 27.1034 23.4104 26.2527 23.4104 25.3871C23.4104 20.7047 27.2199 16.8953 31.9023 16.8953H44.64C49.3224 16.8953 53.1318 20.7047 53.1318 25.3871V40.0814L48.0394 34.607C47.4282 33.0141 46.4357 31.573 45.1235 30.4228Z" fill="white"/>
</svg>
