<svg width="70" height="70" viewBox="0 0 70 70" fill="none" xmlns="http://www.w3.org/2000/svg">
<rect width="70" height="70" rx="10" fill="#D8E4F1"/>
<path d="M16.9953 30.5771C17.2441 29.8121 17.9227 29.2705 18.7223 29.1981L29.6289 28.2079L33.9392 18.1165C34.2575 17.3751 34.9816 16.8966 35.7876 16.8966C36.5935 16.8966 37.3179 17.3751 37.6342 18.1165L41.9445 28.2079L52.8528 29.1981C53.6525 29.2719 54.3296 29.8135 54.5798 30.5771C54.8286 31.3422 54.5988 32.1813 53.9941 32.7117L45.7495 39.941L48.1804 50.6475C48.3583 51.4348 48.0527 52.2488 47.3995 52.721C47.0484 52.9761 46.6359 53.1035 46.222 53.1035C45.8663 53.1035 45.5103 53.009 45.1923 52.8187L35.7876 47.1953L26.3845 52.8187C25.6947 53.2309 24.8273 53.1932 24.1756 52.721C23.5224 52.2488 23.2168 51.4348 23.3947 50.6475L25.8256 39.941L17.5811 32.7117C16.9766 32.1813 16.7466 31.3439 16.9953 30.5771Z" fill="white"/>
</svg>
