<svg width="70" height="70" viewBox="0 0 70 70" fill="none" xmlns="http://www.w3.org/2000/svg">
<rect width="70" height="70" rx="10" fill="#D8E4F1"/>
<path d="M33.0946 45.4399H51.193C52.6941 45.4399 53.9121 46.6578 53.9121 48.1591V53.1034H30.3756V48.1591C30.3756 46.6578 31.5936 45.4399 33.0946 45.4399Z" fill="white"/>
<path d="M18.1884 45.8235L34.7092 29.3026L31.5182 26.1173C30.992 26.5812 30.1829 26.5585 29.6851 26.0607C29.1645 25.5345 29.1645 24.6915 29.6851 24.1653L36.5649 17.2911C37.0855 16.7649 37.9341 16.7649 38.4546 17.2911C38.9807 17.8116 38.9807 18.6603 38.4546 19.1808L38.5112 19.1242L47.2469 27.8542L47.1903 27.9163C47.7109 27.3902 48.5595 27.3902 49.08 27.9163C49.6061 28.4369 49.6061 29.2856 49.08 29.8061L42.2058 36.6859C41.6796 37.2065 40.8309 37.2065 40.3104 36.6859C39.7899 36.1598 39.7899 35.3168 40.3104 34.7907L40.2538 34.8472L37.0628 31.6618L20.5477 48.177C19.8971 48.8277 18.839 48.8277 18.1884 48.177C17.5377 47.5264 17.5377 46.474 18.1884 45.8235Z" fill="white"/>
</svg>
