<svg width="70" height="70" viewBox="0 0 70 70" fill="none" xmlns="http://www.w3.org/2000/svg">
<rect width="70" height="70" rx="10" fill="#D8E4F1"/>
<path d="M50.5679 38.2529H52.8309C53.4172 38.2529 53.8916 38.7274 53.8916 39.3137V52.0427C53.8916 52.629 53.4172 53.1034 52.8309 53.1034H50.5679C48.8132 53.1034 47.3857 51.6759 47.3857 49.9212V41.4352C47.3857 39.6804 48.8131 38.2529 50.5679 38.2529Z" fill="white"/>
<path d="M17.9996 40.3111C18.1269 40.099 18.2966 39.9292 18.4875 39.7807C19.2686 39.0975 20.5845 39.162 21.3515 39.9929L26.1673 45.5513L26.3158 45.7209C26.9098 46.3786 27.7585 46.7393 28.6494 46.7393H36.8808C37.4749 46.7393 37.9416 46.2725 37.9416 45.6786C37.9416 45.0845 37.4749 44.6178 36.8808 44.6178H30.4103C29.2434 44.6178 28.2888 43.6631 28.2888 42.4963V42.4751C28.31 41.3083 29.2434 40.3748 30.4103 40.3748H34.2502C34.8863 40.3748 35.568 40.1412 36.1171 39.6747C38.7052 37.4046 42.4816 37.2561 45.2607 39.1868V52.2339C43.1605 52.8068 40.9965 53.1038 38.8115 53.1038H29.3495C27.0159 53.1038 24.8095 52.0006 23.4093 50.1336L18.3176 43.3448C17.5749 42.3697 17.5189 41.0325 17.9996 40.3111Z" fill="white"/>
<path d="M25.4428 18.9481C26.6193 17.6259 28.2502 16.8977 30.0351 16.8977C32.0273 16.8977 33.7543 17.8397 35.0293 19.6219C35.1249 19.7554 35.2143 19.8891 35.2981 20.0213C35.3819 19.889 35.4713 19.7554 35.5669 19.6219C36.8419 17.8397 38.5688 16.8977 40.5611 16.8977C42.346 16.8977 43.9769 17.6259 45.1533 18.9481C46.2698 20.2029 46.8848 21.8803 46.8848 23.6715C46.8848 25.618 46.1294 27.4141 44.5079 29.3242C43.0929 30.9906 41.0634 32.7036 38.7135 34.687C37.8451 35.42 36.9471 36.178 35.9929 37.005C35.7935 37.1777 35.5459 37.2642 35.2981 37.2642C35.0505 37.2642 34.8028 37.1777 34.6034 37.005C33.6493 36.1781 32.7514 35.4202 31.883 34.6874C30.3738 33.4135 29.0704 32.3134 27.9394 31.2463C25.7434 29.1745 23.7114 26.8228 23.7114 23.6716C23.7114 21.8804 24.3263 20.2029 25.4428 18.9481Z" fill="white"/>
</svg>
