<svg width="70" height="70" viewBox="0 0 70 70" fill="none" xmlns="http://www.w3.org/2000/svg">
<rect width="70" height="70" rx="10" fill="#D8E4F1"/>
<path d="M24.3412 30.1926C24.3505 30.1822 24.3602 30.1722 24.3696 30.1618C22.9727 28.9681 22.1451 27.2154 22.1451 25.3281C22.1451 22.1826 24.4399 19.5633 27.4432 19.0556V17.9591C27.4433 17.3716 27.9195 16.8953 28.5071 16.8953H41.2295C41.817 16.8953 42.2934 17.3716 42.2934 17.9591V22.8038C42.2934 23.3913 41.817 23.8676 41.2295 23.8676H39.3224V26.8445C41.8335 27.1077 44.1795 28.2951 45.8799 30.1927C47.8185 32.356 48.7484 35.2529 48.4312 38.1404L47.6005 45.6995H22.6209L21.7902 38.1403C21.4727 35.2528 22.4027 32.356 24.3412 30.1926ZM25.9764 28.7233C27.2883 27.7778 28.8104 27.1536 30.4142 26.9074V23.8676H28.5071C27.9196 23.8676 27.4433 23.3912 27.4433 22.8037V21.2294C25.6218 21.7025 24.2729 23.3606 24.2729 25.3281C24.2728 26.6815 24.9123 27.931 25.9764 28.7233Z" fill="white"/>
<path d="M47.3584 47.8271L47.1258 49.9433C46.9279 51.7442 45.4125 53.1021 43.6009 53.1021H26.604C24.7924 53.1021 23.277 51.7442 23.0791 49.9433L22.8465 47.8271H47.3584Z" fill="white"/>
</svg>
