<svg width="83" height="83" viewBox="0 0 83 83" fill="none" xmlns="http://www.w3.org/2000/svg">
<circle fill="#D8E4F1" class="st0" cx="41.5" cy="41.5" r="41.5"/>
<path fill="#296DB3" d="M46.1,56.5v1.2c0,0.9-0.7,1.7-1.6,1.8l-0.3,1.1c-0.2,0.6-0.7,1-1.3,1h-2.9c-0.6,0-1.1-0.4-1.3-1l-0.3-1.1
	c-0.9-0.1-1.6-0.9-1.6-1.8v-1.2c0-0.6,0.5-1.1,1.1-1.1h6.9C45.6,55.3,46.1,55.8,46.1,56.5z M51.4,40.7c0,2.7-1.1,5.1-2.8,6.8
	c-1.3,1.3-2.1,3.1-2.4,4.9c-0.1,0.8-0.8,1.4-1.6,1.4h-6.1c-0.8,0-1.5-0.6-1.6-1.4c-0.3-1.8-1.1-3.6-2.4-4.9
	c-1.7-1.7-2.7-4.1-2.7-6.7c-0.1-5.5,4.3-9.9,9.8-10C46.9,30.8,51.4,35.2,51.4,40.7z M42.6,34.7c0-0.6-0.5-1.1-1.1-1.1
	c-3.9,0-7.1,3.2-7.1,7.1c0,0.6,0.5,1.1,1.1,1.1c0.6,0,1.1-0.5,1.1-1.1c0-2.7,2.2-4.9,4.9-4.9C42.1,35.8,42.6,35.4,42.6,34.7z
	 M41.5,27.6c0.6,0,1.1-0.5,1.1-1.1v-3.9c0-0.6-0.5-1.1-1.1-1.1s-1.1,0.5-1.1,1.1v3.9C40.4,27.1,40.9,27.6,41.5,27.6z M28.4,40.7
	c0-0.6-0.5-1.1-1.1-1.1h-3.9c-0.6,0-1.1,0.5-1.1,1.1c0,0.6,0.5,1.1,1.1,1.1h3.9C27.9,41.8,28.4,41.3,28.4,40.7z M59.6,39.6h-3.9
	c-0.6,0-1.1,0.5-1.1,1.1c0,0.6,0.5,1.1,1.1,1.1h3.9c0.6,0,1.1-0.5,1.1-1.1C60.7,40.1,60.2,39.6,59.6,39.6z M30.7,49.9l-2.8,2.8
	c-0.4,0.4-0.4,1.1,0,1.6c0.2,0.2,0.5,0.3,0.8,0.3c0.3,0,0.6-0.1,0.8-0.3l2.8-2.8c0.4-0.4,0.4-1.1,0-1.6
	C31.8,49.5,31.1,49.5,30.7,49.9z M51.5,31.8c0.3,0,0.6-0.1,0.8-0.3l2.8-2.8c0.4-0.4,0.4-1.1,0-1.6c-0.4-0.4-1.1-0.4-1.6,0l-2.8,2.8
	c-0.4,0.4-0.4,1.1,0,1.6C51,31.7,51.2,31.8,51.5,31.8z M30.7,31.4c0.2,0.2,0.5,0.3,0.8,0.3c0.3,0,0.6-0.1,0.8-0.3
	c0.4-0.4,0.4-1.1,0-1.6l-2.8-2.8c-0.4-0.4-1.1-0.4-1.6,0c-0.4,0.4-0.4,1.1,0,1.6L30.7,31.4z M52.3,49.9c-0.4-0.4-1.1-0.4-1.6,0
	c-0.4,0.4-0.4,1.1,0,1.6l2.8,2.8c0.2,0.2,0.5,0.3,0.8,0.3s0.6-0.1,0.8-0.3c0.4-0.4,0.4-1.1,0-1.6L52.3,49.9z"/>
</svg>
