<svg width="83" height="83" viewBox="0 0 83 83" fill="none" xmlns="http://www.w3.org/2000/svg">
<circle cx="41.5" cy="41.5" r="41.5" fill="#FDE7CB"/>
<path d="M48.25 24.5H45.535C45.02 23.045 43.63 22 42 22C40.37 22 38.98 23.045 38.4625 24.5H35.75C35.06 24.5 34.5 25.06 34.5 25.75V30.75C34.5 31.44 35.06 32 35.75 32H48.25C48.94 32 49.5 31.44 49.5 30.75V25.75C49.5 25.06 48.94 24.5 48.25 24.5Z" fill="#F79B24"/>
<path d="M54.5 27H52V30.75C52 32.8175 50.3175 34.5 48.25 34.5H35.75C33.6825 34.5 32 32.8175 32 30.75V27H29.5C28.1225 27 27 28.1225 27 29.5V59.5C27 60.9025 28.0975 62 29.5 62H54.5C55.9025 62 57 60.9025 57 59.5V29.5C57 28.0975 55.9025 27 54.5 27ZM41.635 49.135L36.635 54.135C36.39 54.3775 36.07 54.5 35.75 54.5C35.43 54.5 35.11 54.3775 34.865 54.135L32.365 51.635C31.8775 51.1475 31.8775 50.355 32.365 49.8675C32.8525 49.38 33.645 49.38 34.1325 49.8675L35.75 51.4825L39.865 47.3675C40.3525 46.88 41.145 46.88 41.6325 47.3675C42.12 47.855 42.1225 48.645 41.635 49.135ZM41.635 39.135L36.635 44.135C36.39 44.3775 36.07 44.5 35.75 44.5C35.43 44.5 35.11 44.3775 34.865 44.135L32.365 41.635C31.8775 41.1475 31.8775 40.355 32.365 39.8675C32.8525 39.38 33.645 39.38 34.1325 39.8675L35.75 41.4825L39.865 37.3675C40.3525 36.88 41.145 36.88 41.6325 37.3675C42.12 37.855 42.1225 38.645 41.635 39.135ZM50.75 52H45.75C45.06 52 44.5 51.44 44.5 50.75C44.5 50.06 45.06 49.5 45.75 49.5H50.75C51.44 49.5 52 50.06 52 50.75C52 51.44 51.44 52 50.75 52ZM50.75 42H45.75C45.06 42 44.5 41.44 44.5 40.75C44.5 40.06 45.06 39.5 45.75 39.5H50.75C51.44 39.5 52 40.06 52 40.75C52 41.44 51.44 42 50.75 42Z" fill="#F79B24"/>
</svg>
