<svg width="83" height="83" viewBox="0 0 83 83" fill="none" xmlns="http://www.w3.org/2000/svg">
<circle cx="41.5" cy="41.5" r="41.5" fill="#D8F1D9"/>
<path d="M61.0431 39.7796C60.9813 39.2174 60.3392 38.7945 59.7839 38.7945C57.9895 38.7945 56.397 37.7188 55.7291 36.054C55.0473 34.3493 55.4872 32.3615 56.8241 31.1089C57.2452 30.7157 57.2966 30.0573 56.9436 29.6003C56.0248 28.4091 54.9811 27.3329 53.8412 26.4004C53.3952 26.035 52.7398 26.0859 52.3528 26.5234C51.1856 27.8436 49.0888 28.3342 47.4685 27.6438C45.783 26.9195 44.7191 25.1746 44.8236 23.3017C44.858 22.713 44.4366 22.2015 43.8622 22.1332C42.3992 21.9602 40.9234 21.9552 39.4562 22.1214C38.8891 22.1854 38.4681 22.6848 38.4869 23.2661C38.5504 25.1206 37.4745 26.8348 35.8052 27.5331C34.2044 28.201 32.1222 27.714 30.9573 26.4054C30.5723 25.9743 29.9285 25.9214 29.4795 26.2789C28.306 27.2195 27.2387 28.2963 26.3115 29.4778C25.9502 29.9371 26.0036 30.6027 26.4282 30.9973C27.7916 32.2582 28.2311 34.2631 27.5233 35.9878C26.8474 37.632 25.1758 38.6912 23.2623 38.6912C22.6414 38.6708 22.1994 39.0968 22.1308 39.6736C21.9587 41.1756 21.9569 42.7069 22.1225 44.2212C22.1844 44.7858 22.8455 45.2052 23.4068 45.2052C25.1125 45.1609 26.749 46.2386 27.4366 47.9454C28.1207 49.6502 27.6803 51.6371 26.3412 52.8914C25.9223 53.2846 25.8688 53.9415 26.2224 54.398C27.1318 55.5817 28.1766 56.6585 29.3199 57.5991C29.7688 57.9682 30.4216 57.9165 30.8106 57.4785C31.9824 56.1552 34.0789 55.6654 35.6926 56.3572C37.383 57.0796 38.4464 58.8243 38.3425 60.6978C38.3085 61.2864 38.7309 61.7995 39.3033 61.8663C40.0519 61.9557 40.8045 62 41.5594 62C42.2759 62 42.9926 61.96 43.7092 61.8786C44.277 61.8146 44.6974 61.3146 44.6783 60.7332C44.6127 58.8795 45.691 57.1652 47.3582 56.4683C48.9697 55.796 51.0426 56.288 52.2081 57.5947C52.5952 58.025 53.2351 58.0772 53.686 57.721C54.8575 56.7829 55.9227 55.7066 56.854 54.522C57.2156 54.0636 57.1643 53.3971 56.7373 53.0018C55.3742 51.7418 54.9323 49.736 55.6402 48.0131C56.3055 46.391 57.915 45.3019 59.646 45.3019L59.8883 45.3084C60.4503 45.355 60.9667 44.913 61.0346 44.3274C61.2076 42.824 61.2094 41.2945 61.0431 39.7796ZM41.583 53.5303C35.3475 53.5303 30.293 48.3682 30.293 42.0002C30.293 35.6323 35.3477 30.4702 41.583 30.4702C47.8183 30.4702 52.873 35.6323 52.873 42.0002C52.873 44.1617 52.2895 46.1834 51.276 47.9122L46.3325 42.8633C46.6904 42.0015 46.8794 41.0672 46.8792 40.1029C46.8792 38.2148 46.1592 36.4398 44.8517 35.1049C43.5446 33.7699 41.8066 33.0347 39.9581 33.0347C39.3412 33.0347 38.7272 33.1185 38.1332 33.2837C37.873 33.3561 37.6603 33.5751 37.591 33.8414C37.5202 34.1136 37.6 34.3927 37.8083 34.6056C37.8083 34.6056 40.2489 37.1174 41.0655 37.9512C41.1511 38.0385 41.1509 38.247 41.1389 38.322L41.1313 38.3769C41.0489 39.2937 40.8902 40.3942 40.7593 40.8172C40.7417 40.835 40.7251 40.8501 40.7071 40.8684C40.6883 40.8876 40.671 40.9061 40.6529 40.9251C40.2334 41.0627 39.1392 41.2267 38.2272 41.31L38.2274 41.305L38.1864 41.3156C38.1791 41.3164 38.1655 41.3175 38.1476 41.3175C38.049 41.3175 37.904 41.2893 37.7722 41.1549C36.9223 40.2868 34.5774 37.9091 34.5774 37.9091C34.367 37.695 34.1512 37.65 34.0074 37.65C33.6722 37.65 33.372 37.8974 33.2775 38.2522C32.632 40.6918 33.3163 43.316 35.0638 45.1008C36.3713 46.4359 38.1095 47.1711 39.9583 47.1711C40.9024 47.1711 41.8172 46.9783 42.6609 46.6127L47.6582 51.7163C45.9038 52.8629 43.8204 53.5303 41.583 53.5303Z" fill="#29B32F"/>
</svg>
