<svg width="16" height="12" viewBox="0 0 16 12" fill="none" xmlns="http://www.w3.org/2000/svg">
<path d="M15.3216 5.48919L10.6992 0.866791C10.4172 0.584767 9.95977 0.584767 9.67774 0.866791C9.39566 1.14887 9.39566 1.60614 9.67774 1.88823L13.0672 5.27766H0.72225C0.323395 5.27766 0 5.60105 0 5.99991C0 6.3987 0.323395 6.72216 0.72225 6.72216H13.0672L9.67786 10.1116C9.39577 10.3937 9.39577 10.8509 9.67786 11.133C9.81884 11.2739 10.0037 11.3446 10.1886 11.3446C10.3734 11.3446 10.5583 11.2739 10.6993 11.133L15.3216 6.51062C15.6037 6.22854 15.6037 5.77127 15.3216 5.48919Z" fill="white"/>
</svg>
