<svg width="16" height="11" viewBox="0 0 16 11" fill="none" xmlns="http://www.w3.org/2000/svg">
<path d="M15.3216 4.86321L10.6992 0.240815C10.4172 -0.0412091 9.95977 -0.0412091 9.67774 0.240815C9.39566 0.522897 9.39566 0.980168 9.67774 1.26225L13.0672 4.65168H0.72225C0.323395 4.65168 0 4.97507 0 5.37393C0 5.77273 0.323395 6.09618 0.72225 6.09618H13.0672L9.67786 9.48561C9.39577 9.76769 9.39577 10.225 9.67786 10.507C9.81884 10.648 10.0037 10.7186 10.1886 10.7186C10.3734 10.7186 10.5583 10.648 10.6993 10.507L15.3216 5.88465C15.6037 5.60257 15.6037 5.14529 15.3216 4.86321Z" fill="#296DB3"/>
</svg>
