<svg width="43" height="43" viewBox="0 0 43 43" fill="none" xmlns="http://www.w3.org/2000/svg">
<circle cx="21.5" cy="21.5" r="21.5" fill="#1E5083"/>
<path d="M18.8156 16.486C18.8156 16.9396 18.8156 18.9643 18.8156 18.9643H17V21.9947H18.8156V31H22.5454V21.9949H25.0482C25.0482 21.9949 25.2826 20.5419 25.3962 18.9531C25.0704 18.9531 22.5595 18.9531 22.5595 18.9531C22.5595 18.9531 22.5595 17.1901 22.5595 16.8811C22.5595 16.5714 22.9661 16.1548 23.368 16.1548C23.7692 16.1548 24.6159 16.1548 25.4001 16.1548C25.4001 15.7422 25.4001 14.3166 25.4001 13C24.3532 13 23.1622 13 22.6372 13C18.7234 12.9998 18.8156 16.0332 18.8156 16.486Z" fill="white"/>
</svg>
