<?xml version="1.0" encoding="utf-8"?>
<!-- Generator: Adobe Illustrator 24.0.1, SVG Export Plug-In . SVG Version: 6.00 Build 0)  -->
<svg version="1.1" id="Layer_1" xmlns="http://www.w3.org/2000/svg" xmlns:xlink="http://www.w3.org/1999/xlink" x="0px" y="0px"
	 viewBox="0 0 301 571.4" style="enable-background:new 0 0 301 571.4;" xml:space="preserve">
<style type="text/css">
	.st0{fill-rule:evenodd;clip-rule:evenodd;fill:#0B2641;}
	.st1{fill-rule:evenodd;clip-rule:evenodd;fill:#396EAE;}
	.st2{fill-rule:evenodd;clip-rule:evenodd;fill:#EF7438;}
</style>
<path class="st0" d="M289.9,563.9c1.3-2.5,4.5-3.5,7-2.3c2.5,1.3,3.5,4.4,2.3,6.9c-1.2,2.6-4.4,3.6-7,2.3
	C289.6,569.5,288.6,566.4,289.9,563.9L289.9,563.9z"/>
<path class="st0" d="M266,550c1.6-2.4,4.7-3.1,7.1-1.6c2.3,1.5,3.2,4.5,1.7,7c-1.4,2.4-4.7,3.3-7.2,1.7
	C265.2,555.6,264.5,552.4,266,550L266,550z"/>
<path class="st0" d="M243.4,534.2c1.8-2.2,4.9-2.6,7.2-1c2.3,1.6,2.8,4.8,1.1,7.1c-1.7,2.3-4.9,2.8-7.3,1.1
	C242.1,539.8,241.7,536.4,243.4,534.2L243.4,534.2z"/>
<path class="st0" d="M222.3,516.4c1.9-2.1,5.2-2.3,7.3-0.4c2.1,1.9,2.3,5.1,0.4,7.3c-1.9,2.2-5.1,2.4-7.3,0.4
	C220.5,521.7,220.4,518.5,222.3,516.4z"/>
<path class="st0" d="M202.9,496.8c2.1-1.9,5.4-1.8,7.3,0.3c1.9,2,1.8,5.3-0.3,7.3c-2.1,2-5.3,1.9-7.3-0.2
	C200.6,502,200.8,498.7,202.9,496.8z"/>
<path class="st0" d="M185.2,475.6c2.3-1.7,5.5-1.3,7.2,0.9c1.7,2.2,1.4,5.4-0.8,7.2c-2.2,1.8-5.6,1.5-7.3-0.8
	C182.5,480.6,182.9,477.3,185.2,475.6L185.2,475.6z"/>
<path class="st0" d="M169.5,452.9c2.4-1.5,5.5-0.8,7.1,1.5c1.6,2.3,0.9,5.5-1.4,7.1c-2.4,1.6-5.6,1-7.2-1.4
	C166.3,457.7,167.1,454.4,169.5,452.9L169.5,452.9z"/>
<path class="st0" d="M155.7,429c2.5-1.3,5.6-0.3,7,2.1c1.3,2.4,0.4,5.6-2.1,7c-2.5,1.4-5.6,0.5-7-2.1
	C152.2,433.4,153.2,430.3,155.7,429L155.7,429z"/>
<path class="st0" d="M144.2,403.9c2.6-1.1,5.7,0.1,6.8,2.7c1.1,2.6-0.1,5.6-2.7,6.8c-2.6,1.2-5.6,0-6.8-2.7
	C140.4,408,141.6,405,144.2,403.9z"/>
<path class="st0" d="M134.9,377.9c2.7-0.8,5.6,0.6,6.5,3.3c0.8,2.7-0.7,5.6-3.3,6.5c-2.7,0.9-5.6-0.5-6.5-3.3
	C130.7,381.7,132.2,378.7,134.9,377.9z"/>
<path class="st0" d="M127.9,351.2c2.8-0.6,5.5,1.1,6.1,3.9c0.5,2.7-1,5.5-3.8,6.2c-2.7,0.7-5.7-1-6.2-3.8
	C123.4,354.6,125.1,351.8,127.9,351.2L127.9,351.2z"/>
<path class="st0" d="M123.2,324c2.8-0.4,5.4,1.6,5.7,4.4c0.5,2.8-1.5,5.4-4.3,5.9c-2.8,0.5-5.5-1.5-5.9-4.3
	C118.4,327,120.4,324.4,123.2,324L123.2,324z"/>
<path class="st0" d="M120.9,296.5c2.8-0.1,5.2,2.1,5.4,4.8c0.2,2.8-2,5.2-4.8,5.5c-2.8,0.2-5.3-1.9-5.5-4.8
	C115.8,299.1,118.1,296.6,120.9,296.5L120.9,296.5z"/>
<path class="st0" d="M121,268.9c2.8,0.1,5.1,2.5,5,5.3c-0.1,2.8-2.5,5.1-5.3,5c-2.8,0-5.1-2.4-5-5.3
	C115.8,271,118.1,268.8,121,268.9L121,268.9z"/>
<path class="st0" d="M123.6,241.4c2.8,0.4,4.8,2.9,4.4,5.7c-0.4,2.8-3,4.8-5.8,4.5c-2.8-0.3-4.8-2.8-4.4-5.7
	C118.2,243.1,120.8,241.1,123.6,241.4L123.6,241.4z"/>
<path class="st0" d="M128.5,214.3c2.8,0.6,4.5,3.3,3.9,6.1c-0.7,2.7-3.3,4.6-6.1,4c-2.8-0.5-4.7-3.3-4-6.1
	C123,215.5,125.8,213.7,128.5,214.3L128.5,214.3z"/>
<path class="st0" d="M135.8,187.6c2.7,0.9,4.1,3.7,3.3,6.4c-0.8,2.7-3.6,4.3-6.3,3.5c-2.7-0.8-4.3-3.6-3.5-6.5
	C130.1,188.3,133.1,186.8,135.8,187.6L135.8,187.6z"/>
<path class="st0" d="M145.4,161.7c2.6,1.1,3.9,4.1,2.9,6.7c-1,2.6-4,3.9-6.7,2.9c-2.6-1-3.9-4-2.9-6.7
	C139.8,161.9,142.7,160.6,145.4,161.7L145.4,161.7z"/>
<path class="st0" d="M157.3,136.8c2.5,1.3,3.5,4.4,2.2,6.9c-1.3,2.5-4.4,3.5-7,2.3c-2.6-1.2-3.5-4.3-2.2-6.9
	C151.6,136.5,154.8,135.5,157.3,136.8L157.3,136.8z"/>
<path class="st0" d="M171.2,113c2.4,1.5,3.1,4.7,1.5,7c-1.5,2.4-4.6,3.2-7.1,1.8c-2.4-1.4-3.3-4.7-1.7-7.1
	C165.6,112.2,168.8,111.4,171.2,113z"/>
<path class="st0" d="M187.1,90.4c2.2,1.7,2.6,4.9,1,7.2c-1.7,2.3-4.9,2.8-7.2,1.1c-2.3-1.6-2.8-4.9-1.1-7.3
	C181.5,89.1,184.9,88.6,187.1,90.4z"/>
<path class="st0" d="M205,69.3c2.1,1.9,2.2,5.2,0.4,7.3c-1.9,2.1-5.1,2.3-7.3,0.5c-2.1-1.8-2.3-5.1-0.4-7.3
	C199.6,67.6,202.9,67.3,205,69.3L205,69.3z"/>
<path class="st0" d="M224.6,49.8c1.9,2.1,1.8,5.3-0.3,7.3c-2.1,1.9-5.4,1.8-7.3-0.2c-2-2-1.8-5.3,0.3-7.3
	C219.4,47.7,222.7,47.7,224.6,49.8L224.6,49.8z"/>
<path class="st0" d="M245.9,32.2c1.7,2.3,1.3,5.5-1,7.2c-2.3,1.7-5.4,1.5-7.2-0.8c-1.8-2.2-1.5-5.5,0.9-7.3
	C240.9,29.5,244.2,29.9,245.9,32.2L245.9,32.2z"/>
<path class="st0" d="M268.6,16.4c1.5,2.4,0.7,5.5-1.6,7.1c-2.3,1.6-5.5,1-7.1-1.4c-1.6-2.3-0.9-5.6,1.5-7.2
	C263.9,13.3,267.1,14.1,268.6,16.4z"/>
<path class="st0" d="M292.6,2.7c1.3,2.5,0.3,5.6-2.2,7c-2.5,1.4-5.6,0.5-7-2c-1.4-2.5-0.4-5.6,2.2-7C288.2-0.8,291.3,0.2,292.6,2.7
	L292.6,2.7z"/>
<path class="st0" d="M303.3,539.3c1.3-2.5,4.4-3.5,6.9-2.3c2.5,1.3,3.5,4.4,2.2,6.9c-1.2,2.6-4.3,3.6-6.9,2.3
	C303,544.9,302,541.8,303.3,539.3L303.3,539.3z"/>
<path class="st0" d="M279.6,525.4c1.6-2.4,4.7-3.1,7.1-1.6c2.3,1.5,3.1,4.6,1.6,7c-1.5,2.4-4.7,3.3-7.1,1.7
	C278.8,531,278.1,527.8,279.6,525.4L279.6,525.4z"/>
<path class="st0" d="M257.4,509.4c1.8-2.2,5-2.6,7.2-0.9c2.2,1.7,2.7,4.8,1,7.1c-1.7,2.3-5,2.8-7.3,1.1
	C255.9,514.9,255.6,511.6,257.4,509.4L257.4,509.4z"/>
<path class="st0" d="M236.7,491.3c2-2,5.2-2.1,7.2-0.2c2.1,1.8,2.2,5,0.3,7.2c-1.9,2.1-5.2,2.3-7.4,0.4
	C234.8,496.7,234.7,493.4,236.7,491.3L236.7,491.3z"/>
<path class="st0" d="M217.9,471.4c2.2-1.9,5.3-1.6,7.2,0.5c1.9,2,1.7,5.3-0.4,7.2c-2.1,1.9-5.4,1.8-7.3-0.3
	C215.4,476.5,215.7,473.2,217.9,471.4L217.9,471.4z"/>
<path class="st0" d="M201.1,449.7c2.4-1.7,5.4-1,7.1,1.1c1.7,2.2,1.2,5.4-1.1,7.1c-2.3,1.7-5.5,1.3-7.3-1
	C198.1,454.6,198.7,451.3,201.1,449.7L201.1,449.7z"/>
<path class="st0" d="M186.4,426.5c2.5-1.4,5.5-0.5,7,1.8c1.4,2.4,0.6,5.5-1.8,7c-2.4,1.5-5.6,0.7-7.1-1.7
	C182.9,431.1,183.9,427.9,186.4,426.5L186.4,426.5z"/>
<path class="st0" d="M174,402c2.6-1.2,5.5,0,6.8,2.5c1.2,2.5,0.1,5.5-2.4,6.8c-2.6,1.3-5.7,0.2-6.9-2.4
	C170.1,406.3,171.4,403.2,174,402L174,402z"/>
<path class="st0" d="M164,376.5c2.7-0.9,5.5,0.5,6.5,3.1c1,2.6-0.4,5.5-3.1,6.6c-2.7,1-5.6-0.3-6.6-3
	C159.8,380.4,161.3,377.4,164,376.5L164,376.5z"/>
<path class="st0" d="M156.4,350.1c2.8-0.7,5.5,1,6.2,3.7c0.7,2.7-0.9,5.5-3.7,6.2c-2.7,0.8-5.6-0.9-6.3-3.7
	C151.9,353.6,153.7,350.7,156.4,350.1z"/>
<path class="st0" d="M151.4,323.1c2.8-0.4,5.3,1.5,5.8,4.3c0.4,2.7-1.5,5.4-4.3,5.9c-2.8,0.5-5.5-1.4-5.9-4.3
	C146.5,326.2,148.6,323.5,151.4,323.1L151.4,323.1z"/>
<path class="st0" d="M149,295.8c2.8-0.1,5.2,2,5.4,4.8c0.2,2.8-2,5.2-4.8,5.5c-2.8,0.2-5.3-1.9-5.5-4.8
	C143.9,298.4,146.1,295.9,149,295.8L149,295.8z"/>
<path class="st0" d="M149.2,268.3c2.8,0.1,5,2.5,4.9,5.3c-0.1,2.8-2.5,5-5.3,5c-2.8,0-5.1-2.4-5-5.3
	C143.9,270.4,146.3,268.2,149.2,268.3z"/>
<path class="st0" d="M151.9,241c2.8,0.4,4.8,3,4.4,5.8c-0.4,2.8-2.9,4.7-5.8,4.5c-2.8-0.3-4.8-2.9-4.4-5.8
	C146.5,242.6,149.1,240.6,151.9,241z"/>
<path class="st0" d="M157.4,214.1c2.8,0.7,4.5,3.4,3.9,6.2c-0.6,2.7-3.4,4.4-6.2,3.9c-2.8-0.6-4.5-3.3-3.9-6.2
	C151.8,215.2,154.6,213.4,157.4,214.1L157.4,214.1z"/>
<path class="st0" d="M165.4,187.9c2.7,0.9,4.1,3.9,3.2,6.5c-0.9,2.6-3.8,4.1-6.5,3.3c-2.7-0.8-4.2-3.7-3.2-6.5
	C159.8,188.4,162.7,186.9,165.4,187.9L165.4,187.9z"/>
<path class="st0" d="M175.8,162.5c2.6,1.2,3.7,4.2,2.6,6.8c-1.2,2.5-4.2,3.7-6.8,2.6c-2.6-1.1-3.8-4.1-2.6-6.8
	C170.2,162.5,173.3,161.3,175.8,162.5L175.8,162.5z"/>
<path class="st0" d="M188.6,138.2c2.4,1.4,3.3,4.6,1.9,7c-1.4,2.4-4.6,3.3-7,2c-2.5-1.3-3.4-4.5-1.9-7
	C183,137.6,186.2,136.8,188.6,138.2L188.6,138.2z"/>
<path class="st0" d="M203.6,115.2c2.3,1.7,2.8,4.8,1.2,7.1c-1.7,2.2-4.7,2.9-7.1,1.4c-2.3-1.5-3.1-4.8-1.3-7.2
	C198.1,114.1,201.3,113.5,203.6,115.2L203.6,115.2z"/>
<path class="st0" d="M220.8,93.7c2.1,1.9,2.3,5.1,0.5,7.2c-1.8,2.2-5,2.5-7.2,0.7c-2.2-1.8-2.5-5.1-0.7-7.3
	C215.3,92.1,218.6,91.8,220.8,93.7z"/>
<path class="st0" d="M239.8,74c1.9,2.1,1.8,5.2-0.2,7.2c-2,2-5.2,2-7.2,0c-2-2-2-5.3,0.1-7.3C234.6,71.8,237.9,71.9,239.8,74
	L239.8,74z"/>
<path class="st0" d="M260.8,56.1c1.7,2.3,1.3,5.4-0.9,7.2c-2.1,1.8-5.4,1.5-7.2-0.7c-1.8-2.2-1.5-5.4,0.8-7.3
	C255.7,53.4,259.1,53.9,260.8,56.1L260.8,56.1z"/>
<path class="st0" d="M283.3,40.4c1.5,2.4,0.7,5.4-1.5,7.1c-2.3,1.6-5.5,1-7.1-1.4c-1.6-2.3-0.9-5.5,1.5-7.2
	C278.5,37.2,281.8,38,283.3,40.4L283.3,40.4z"/>
<path class="st0" d="M307.2,26.8c1.3,2.5,0.2,5.5-2.2,6.9c-2.5,1.3-5.5,0.4-6.9-2c-1.4-2.5-0.4-5.6,2.2-7
	C302.7,23.2,305.9,24.3,307.2,26.8L307.2,26.8z"/>
<path class="st0" d="M293.3,500.8c1.6-2.4,4.8-3.1,7.1-1.6c2.3,1.5,3,4.7,1.5,7.1c-1.5,2.5-4.7,3.2-7.1,1.6
	C292.4,506.4,291.7,503.2,293.3,500.8L293.3,500.8z"/>
<path class="st0" d="M271.3,484.6c1.8-2.2,5.1-2.6,7.2-0.9c2.1,1.7,2.5,5,0.8,7.2c-1.7,2.3-4.9,2.7-7.2,0.9
	C269.9,490,269.5,486.8,271.3,484.6L271.3,484.6z"/>
<path class="st0" d="M251.2,466.2c2-2,5.3-2,7.3-0.1c2,1.9,2,5.2,0,7.2c-1.9,2.1-5.2,2.1-7.3,0.1
	C249.2,471.5,249.2,468.2,251.2,466.2z"/>
<path class="st0" d="M233.2,445.8c2.2-1.7,5.5-1.5,7.2,0.6c1.8,2.1,1.4,5.3-0.7,7.2c-2.2,1.9-5.4,1.6-7.3-0.6
	C230.6,450.8,230.9,447.6,233.2,445.8z"/>
<path class="st0" d="M217.4,423.6c2.4-1.5,5.5-0.8,7.1,1.4c1.5,2.3,0.9,5.4-1.5,7.1c-2.3,1.6-5.6,1-7.2-1.3
	C214.2,428.4,215,425.1,217.4,423.6L217.4,423.6z"/>
<path class="st0" d="M204.1,399.9c2.6-1.3,5.6-0.3,6.8,2.2c1.3,2.4,0.4,5.5-2.1,6.9c-2.5,1.4-5.6,0.5-7-2.1
	C200.4,404.3,201.5,401.1,204.1,399.9L204.1,399.9z"/>
<path class="st0" d="M193.2,374.9c2.7-1,5.6,0.3,6.6,2.9c0.9,2.6-0.2,5.5-2.9,6.6c-2.6,1.1-5.7-0.1-6.7-2.8
	C189.2,378.8,190.6,375.8,193.2,374.9L193.2,374.9z"/>
<path class="st0" d="M185.1,348.9c2.8-0.7,5.6,0.9,6.3,3.5c0.7,2.7-0.9,5.5-3.6,6.3c-2.7,0.8-5.6-0.7-6.3-3.5
	C180.7,352.4,182.3,349.6,185.1,348.9z"/>
<path class="st0" d="M179.6,322.2c2.8-0.4,5.5,1.4,5.9,4.2c0.4,2.7-1.5,5.4-4.3,5.9c-2.8,0.6-5.4-1.3-5.9-4.1
	C174.9,325.2,176.8,322.6,179.6,322.2L179.6,322.2z"/>
<path class="st0" d="M177,295.1c2.8-0.1,5.2,2,5.4,4.7c0.2,2.7-2,5.2-4.8,5.4c-2.8,0.3-5.3-1.9-5.5-4.7
	C172,297.6,174.2,295.2,177,295.1L177,295.1z"/>
<path class="st0" d="M177.4,267.8c2.9,0.2,4.9,2.5,4.8,5.3c-0.1,2.8-2.5,5-5.3,4.9c-2.8,0-5.1-2.4-5-5.3
	C171.9,269.8,174.6,267.6,177.4,267.8L177.4,267.8z"/>
<path class="st0" d="M180.5,240.7c2.8,0.5,4.7,3,4.2,5.8c-0.4,2.7-2.9,4.7-5.7,4.3c-2.8-0.3-4.8-2.9-4.4-5.8
	C175,242.2,177.7,240.3,180.5,240.7L180.5,240.7z"/>
<path class="st0" d="M186.5,214.2c2.7,0.8,4.3,3.5,3.6,6.2c-0.8,2.7-3.4,4.3-6.2,3.7c-2.7-0.6-4.6-3.4-3.8-6.2
	C180.9,215,183.8,213.4,186.5,214.2z"/>
<path class="st0" d="M195.2,188.3c2.6,1,3.9,4,2.9,6.5c-1.1,2.6-3.9,3.9-6.6,3c-2.7-0.9-4.1-3.9-3-6.6
	C189.6,188.6,192.6,187.3,195.2,188.3L195.2,188.3z"/>
<path class="st1" d="M206.6,163.6c2.5,1.3,3.5,4.4,2.2,6.8c-1.3,2.4-4.4,3.5-6.9,2.3c-2.6-1.2-3.7-4.3-2.3-6.9
	C201,163.3,204.1,162.3,206.6,163.6L206.6,163.6z"/>
<path class="st0" d="M220.5,140.1c2.4,1.6,3,4.7,1.5,7c-1.5,2.3-4.7,3-7.1,1.6c-2.5-1.5-3.2-4.6-1.6-7.1
	C214.9,139.2,218.1,138.5,220.5,140.1L220.5,140.1z"/>
<path class="st0" d="M236.7,118.2c2.2,1.8,2.5,5,0.8,7.2c-1.7,2.2-5,2.5-7.2,0.8c-2.3-1.7-2.6-4.9-0.8-7.2
	C231.3,116.7,234.5,116.4,236.7,118.2L236.7,118.2z"/>
<path class="st0" d="M255.2,98.1c2,2,2,5.3,0.1,7.2c-1.9,2-5.2,2-7.3,0.1c-2.1-1.9-2.1-5.2-0.1-7.2C249.9,96.1,253.2,96,255.2,98.1z
	"/>
<path class="st0" d="M275.6,80c1.7,2.2,1.4,5.5-0.7,7.2c-2.1,1.8-5.4,1.5-7.2-0.7c-1.8-2.1-1.5-5.4,0.7-7.2
	C270.7,77.5,273.9,77.8,275.6,80L275.6,80z"/>
<path class="st0" d="M297.9,64.3c1.5,2.4,0.8,5.5-1.5,7.1c-2.3,1.6-5.5,0.9-7.1-1.4c-1.6-2.3-1-5.5,1.4-7.2
	C293.2,61.1,296.4,61.9,297.9,64.3z"/>
<path class="st0" d="M295.4,467.9c1.7-2.2,5-2.7,7.2-1.1c2.2,1.6,2.7,4.8,1.1,7.2c-1.6,2.3-4.9,2.9-7.2,1.2
	C294.1,473.5,293.6,470.2,295.4,467.9L295.4,467.9z"/>
<path class="st0" d="M274.6,449.9c2-2,5.2-2.1,7.2-0.2c2,1.9,2.2,5,0.3,7.2c-1.9,2.1-5.2,2.3-7.4,0.3
	C272.7,455.2,272.6,451.9,274.6,449.9L274.6,449.9z"/>
<path class="st0" d="M256.1,429.5c2.2-1.8,5.5-1.5,7.3,0.6c1.8,2.1,1.5,5.4-0.7,7.3c-2.1,1.9-5.4,1.6-7.3-0.6
	C253.6,434.6,253.9,431.3,256.1,429.5L256.1,429.5z"/>
<path class="st0" d="M240.2,407.1c2.4-1.5,5.5-0.8,7.1,1.5c1.6,2.3,0.9,5.5-1.4,7.1c-2.3,1.6-5.6,1-7.2-1.4
	C237,411.8,237.8,408.5,240.2,407.1L240.2,407.1z"/>
<path class="st0" d="M227,382.9c2.6-1.2,5.7-0.2,6.9,2.3c1.2,2.5,0.2,5.6-2.3,6.9c-2.5,1.4-5.7,0.3-6.9-2.3
	C223.4,387.2,224.5,384.1,227,382.9L227,382.9z"/>
<path class="st0" d="M216.8,357.4c2.7-0.9,5.5,0.5,6.5,3.1c1,2.6-0.4,5.5-3.1,6.6c-2.7,1-5.6-0.3-6.6-3.1
	C212.6,361.3,214.2,358.2,216.8,357.4L216.8,357.4z"/>
<path class="st0" d="M209.7,330.8c2.8-0.6,5.5,1.2,6.1,3.9c0.5,2.7-1.1,5.5-3.9,6.2c-2.8,0.7-5.6-1-6.2-3.8
	C205.2,334.1,206.9,331.4,209.7,330.8L209.7,330.8z"/>
<path class="st0" d="M205.8,303.6c2.8-0.2,5.2,1.8,5.6,4.6c0.3,2.7-1.7,5.3-4.5,5.7c-2.8,0.4-5.4-1.6-5.7-4.5
	C200.7,306.4,202.9,303.8,205.8,303.6L205.8,303.6z"/>
<path class="st0" d="M205.1,276c2.8,0.1,5.1,2.4,5,5.2c-0.1,2.8-2.3,5.1-5.2,5.1c-2.8,0.1-5.3-2.3-5.1-5.2
	C199.9,278.2,202.2,276,205.1,276L205.1,276z"/>
<path class="st0" d="M207.6,248.6c2.8,0.4,4.7,3,4.4,5.8c-0.4,2.8-2.9,4.8-5.8,4.5c-2.8-0.3-4.8-2.9-4.4-5.8
	C202.2,250.2,204.8,248.2,207.6,248.6L207.6,248.6z"/>
<path class="st0" d="M213.5,221.8c2.7,0.8,4.3,3.5,3.6,6.2c-0.7,2.7-3.4,4.4-6.2,3.8c-2.8-0.6-4.5-3.4-3.8-6.3
	C207.9,222.7,210.8,221,213.5,221.8z"/>
<path class="st0" d="M222.5,195.7c2.6,1.1,3.9,4.1,2.9,6.6c-1,2.6-4,3.9-6.7,3c-2.7-0.9-4-3.9-2.9-6.6
	C216.9,196,219.9,194.6,222.5,195.7L222.5,195.7z"/>
<path class="st0" d="M234.5,170.9c2.5,1.4,3.3,4.4,2.1,6.9c-1.3,2.5-4.4,3.5-6.9,2.2c-2.5-1.2-3.5-4.4-2.2-7
	C228.8,170.5,232,169.6,234.5,170.9L234.5,170.9z"/>
<path class="st0" d="M249.3,147.7c2.3,1.7,2.8,4.8,1.2,7.1c-1.6,2.3-4.7,3-7.1,1.4c-2.4-1.5-3-4.8-1.4-7.2
	C243.8,146.7,247,146.1,249.3,147.7z"/>
<path class="st0" d="M266.8,126.4c2.1,1.9,2.3,5.2,0.4,7.3c-1.9,2.1-5.1,2.3-7.3,0.5c-2.2-1.8-2.4-5.1-0.4-7.3
	C261.4,124.7,264.7,124.5,266.8,126.4z"/>
<path class="st0" d="M286.7,107.3c1.9,2.2,1.5,5.3-0.5,7.2c-2.1,1.9-5.3,1.8-7.2-0.3c-1.9-2.1-1.8-5.3,0.4-7.3
	C281.5,104.9,284.9,105.2,286.7,107.3z"/>
<path class="st0" d="M308.7,90.7c1.6,2.4,0.9,5.6-1.4,7.1c-2.3,1.5-5.5,1.1-7.2-1.2c-1.7-2.3-1.2-5.6,1.3-7.2
	C303.9,87.8,307.1,88.4,308.7,90.7L308.7,90.7z"/>
<path class="st0" d="M289.2,424.7c2.1-1.9,5.3-1.9,7.2,0c2,1.9,1.9,5.1,0,7.2c-2,2.1-5.2,2.1-7.3,0.1
	C287.1,430,287.2,426.7,289.2,424.7L289.2,424.7z"/>
<path class="st0" d="M271.8,403.8c2.3-1.7,5.5-1.2,7.2,0.9c1.6,2.2,1.2,5.4-1,7.2c-2.2,1.8-5.5,1.4-7.2-0.9
	C269,408.7,269.5,405.4,271.8,403.8L271.8,403.8z"/>
<path class="st0" d="M257.3,380.6c2.5-1.3,5.6-0.5,6.9,1.9c1.3,2.4,0.6,5.4-1.9,6.9c-2.4,1.5-5.7,0.7-7.1-1.8
	C253.9,385.1,254.8,382,257.3,380.6L257.3,380.6z"/>
<path class="st0" d="M246.1,355.8c2.7-1,5.6,0.3,6.6,2.8c1.1,2.5-0.2,5.5-2.8,6.6c-2.6,1.1-5.7-0.1-6.8-2.7
	C242,359.8,243.4,356.8,246.1,355.8z"/>
<path class="st0" d="M238.2,329.7c2.8-0.6,5.4,1,6.2,3.7c0.7,2.6-1,5.4-3.7,6.2c-2.7,0.8-5.6-0.8-6.3-3.6
	C233.6,333.1,235.5,330.3,238.2,329.7L238.2,329.7z"/>
<path class="st0" d="M233.9,302.7c2.8-0.3,5.4,1.7,5.7,4.4c0.3,2.7-1.7,5.3-4.5,5.7c-2.8,0.4-5.4-1.6-5.7-4.4
	C229,305.5,231,303,233.9,302.7z"/>
<path class="st0" d="M233.2,275.5c2.8,0.1,5.1,2.4,5,5.2c-0.1,2.7-2.4,5-5.2,5.1c-2.8,0.1-5.2-2.3-5.1-5.2
	C228,277.6,230.4,275.3,233.2,275.5z"/>
<path class="st0" d="M236.2,248.3c2.8,0.5,4.7,3.1,4.2,5.8c-0.4,2.7-2.9,4.7-5.8,4.3c-2.8-0.3-4.8-2.9-4.4-5.8
	C230.7,249.8,233.4,247.8,236.2,248.3z"/>
<path class="st0" d="M242.8,221.9c2.7,0.9,4.1,3.7,3.4,6.3c-0.8,2.6-3.6,4.2-6.3,3.5c-2.7-0.7-4.3-3.5-3.5-6.4
	C237.1,222.5,240.1,221,242.8,221.9L242.8,221.9z"/>
<path class="st0" d="M252.8,196.5c2.6,1.2,3.7,4.2,2.6,6.7c-1.2,2.5-4.2,3.7-6.8,2.6c-2.7-1.1-3.8-4.1-2.6-6.8
	C247.2,196.4,250.3,195.3,252.8,196.5z"/>
<path class="st0" d="M266.2,172.7c2.4,1.5,3.1,4.7,1.6,7c-1.4,2.4-4.5,3.2-7,1.8c-2.5-1.4-3.3-4.6-1.8-7.1
	C260.6,171.9,263.9,171.1,266.2,172.7z"/>
<path class="st0" d="M282.6,150.8c2.1,1.8,2.4,5,0.7,7.2c-1.7,2.1-5,2.5-7.2,0.8c-2.2-1.7-2.6-5-0.8-7.2
	C277.1,149.2,280.4,149,282.6,150.8z"/>
<path class="st0" d="M301.7,131.3c1.9,2.1,1.7,5.4-0.3,7.2c-2.1,1.8-5.3,1.8-7.2-0.2c-2-2-1.9-5.3,0.2-7.3
	C296.6,129.1,299.9,129.2,301.7,131.3L301.7,131.3z"/>
<path class="st0" d="M294.8,387.3c2.3-1.7,5.5-1.2,7.1,1c1.5,2.3,1.3,5.4-0.9,7.2c-2.2,1.8-5.7,1.6-7.3-0.9
	C292,392.2,292.4,389,294.8,387.3z"/>
<path class="st2" d="M280.2,363.8c1.3-0.6,2.7-0.7,3.9-0.3c1.3,0.4,2.4,1.2,3.1,2.4c1.4,2.4,0.5,5.5-2,6.9c-2.5,1.4-5.6,0.6-7.1-2
	c-0.7-1.3-0.9-2.7-0.5-4C278.1,365.5,279,364.4,280.2,363.8L280.2,363.8z"/>
<path class="st0" d="M269.8,338.2c2.7-0.9,5.6,0.5,6.5,3.1c0.9,2.6-0.5,5.6-3.2,6.6c-2.6,1.1-5.6-0.3-6.5-3.1
	C265.7,342,267.1,339.1,269.8,338.2L269.8,338.2z"/>
<path class="st0" d="M263.4,311.3c2.8-0.4,5.4,1.4,5.8,4.1c0.5,2.7-1.1,5.4-3.9,6c-2.7,0.6-5.7-1.2-6.2-4.1
	C258.6,314.5,260.6,311.8,263.4,311.3L263.4,311.3z"/>
<path class="st0" d="M261.1,283.8c2.8,0,5.3,2.2,5.4,5c0.1,2.8-2.1,5.2-4.9,5.3s-5.2-2-5.4-5C256,286.2,258.2,283.8,261.1,283.8
	L261.1,283.8z"/>
<path class="st0" d="M263.5,256.3c2.8,0.5,4.7,3,4.3,5.8c-0.4,2.7-3.1,4.7-5.9,4.5c-2.8-0.2-4.8-2.8-4.3-5.8
	C258,257.8,260.7,255.8,263.5,256.3L263.5,256.3z"/>
<path class="st0" d="M270,229.4c2.8,0.9,3.9,3.7,3.3,6.4c-0.7,2.7-3.5,4.3-6.2,3.6c-2.7-0.7-4.4-3.6-3.6-6.5
	C264.1,230,267.3,228.5,270,229.4z"/>
<path class="st0" d="M280.7,203.9c2.5,1.3,3.6,4.4,2.4,6.9c-1.2,2.5-4.3,3.6-6.9,2.5c-2.6-1.1-3.7-4.2-2.4-6.9
	C275,203.7,278.1,202.6,280.7,203.9L280.7,203.9z"/>
<path class="st0" d="M295.1,180.3c2.3,1.7,2.7,4.8,1.1,7c-1.5,2.4-4.6,3.1-7,1.6c-2.4-1.5-3.1-4.8-1.5-7.3
	C289.5,179.2,292.9,178.7,295.1,180.3z"/>
<path class="st0" d="M299,336.7c2.7-1,5.4,0.3,6.6,2.7c1.1,2.5-0.1,5.4-2.6,6.7c-2.6,1.2-5.7,0-6.9-2.6
	C294.8,340.8,296.4,337.7,299,336.7L299,336.7z"/>
<path class="st0" d="M291.6,310.4c1.4-0.3,2.7,0.1,3.8,0.8c1.1,0.7,2,1.8,2.3,3.1c0.6,2.6-1.1,5.4-3.9,6.1c-2.8,0.7-5.5-1-6.2-3.9
	c-0.3-1.4-0.1-2.8,0.6-3.9C289,311.4,290.2,310.6,291.6,310.4L291.6,310.4z"/>
<path class="st0" d="M289.2,283.1c2.8,0,5.2,2.2,5.3,4.9c0.1,2.7-2.1,5.1-4.9,5.3c-2.8,0.2-5.2-2-5.4-4.9
	C284.1,285.5,286.3,283.1,289.2,283.1z"/>
<path class="st0" d="M291.9,255.9c2.8,0.5,4.7,3.2,4.3,5.8c-0.4,2.7-3,4.6-5.9,4.3c-2.8-0.3-4.8-2.9-4.3-5.8
	C286.5,257.3,289.1,255.4,291.9,255.9z"/>
<path class="st0" d="M299.7,229.7c2.6,1,4,4,3.1,6.5c-0.9,2.6-3.9,4-6.6,3.1c-2.7-0.8-4.1-3.7-3.1-6.5
	C294.1,230.1,297,228.7,299.7,229.7z"/>
</svg>
