<svg width="335" height="223" viewBox="0 0 335 223" fill="none" xmlns="http://www.w3.org/2000/svg">
<path d="M110.601 332.987C110.601 332.987 101.575 328.348 92.3407 323.673C82.9135 318.901 73.7762 314.154 65.0861 308.959C60.7415 306.363 56.5104 303.653 52.4113 300.775C9.23379 271.192 -19.2837 216.54 -5.87348 163.044C2.26424 130.11 26.0679 104.613 53.8504 87.4757C60.1589 83.4805 66.7373 79.9 73.5076 76.7504C87.0481 70.4511 101.345 65.8645 115.588 63.075C124.284 61.5106 133.158 60.9281 141.934 61.4899C150.711 62.0516 159.389 63.7557 167.665 66.7413C181.951 71.8939 194.442 81.059 204.624 92.1908C215.274 103.833 223.991 117.652 237.384 126.49C258.466 140.399 283.747 144.081 301.845 162.987C314.999 176.73 322.421 196.018 320.615 215.093C320.103 220.507 318.871 225.902 316.899 231.135L110.601 332.987Z" fill="#F4F7FB"/>
<path d="M227.569 116.442C229.58 115.782 231.745 116.876 232.405 118.887C233.064 120.898 231.971 123.063 229.96 123.723C227.949 124.383 225.784 123.289 225.124 121.278C224.464 119.267 225.558 117.102 227.569 116.442Z" fill="#296DB3"/>
<path d="M211.551 126.487C213.562 125.827 215.727 126.921 216.387 128.931C217.047 130.942 215.953 133.108 213.942 133.767C211.932 134.427 209.766 133.333 209.106 131.321C208.445 129.312 209.541 127.146 211.551 126.487Z" fill="#296DB3"/>
<path d="M221.495 122.47C221.964 123.897 222.817 125.097 223.904 125.988C224.83 126.747 225.922 127.282 227.091 127.543C228.395 127.842 229.79 127.799 231.15 127.352C233.589 126.551 235.356 124.631 236.07 122.353C236.53 120.884 236.554 119.269 236.037 117.697C235.131 114.938 232.795 113.037 230.118 112.555C228.906 112.332 227.626 112.402 226.377 112.812C222.371 114.125 220.179 118.461 221.495 122.47ZM229.957 113.039C232.484 113.47 234.701 115.252 235.555 117.853C236.114 119.556 235.995 121.325 235.344 122.858C234.566 124.692 233.031 126.2 230.991 126.87C229.96 127.208 228.9 127.301 227.886 127.169C226.513 126.999 225.219 126.431 224.165 125.547C223.181 124.721 222.407 123.621 221.977 122.311C220.748 118.567 222.793 114.519 226.535 113.291C227.677 112.917 228.848 112.846 229.957 113.039Z" fill="#296DB3"/>
<path d="M0.813238 150.919C0.813238 150.919 -4.15873 148.709 -6.17271 145.958C-8.1867 143.207 -8.28292 141.862 -7.4535 140.33C-6.62408 138.799 -3.91356 139.736 -2.85501 141.268C-1.79876 142.799 -0.304879 145.607 0.813238 150.919Z" fill="#D8E4F1"/>
<path d="M7.06579 152.135C7.06579 152.135 2.37347 148.236 1.03542 144.653C-0.300335 141.073 0.004392 139.589 1.36535 138.191C2.72631 136.793 5.36574 138.629 6.04164 140.603C6.71983 142.576 7.47591 146.063 7.06579 152.135Z" fill="#D8E4F1"/>
<path d="M10.2988 151.182C10.2988 151.182 7.54475 145.735 7.74409 141.918C7.94342 138.102 8.81408 136.864 10.6196 136.123C12.4251 135.383 14.116 138.118 13.9487 140.199C13.7838 142.276 13.0895 145.774 10.2988 151.182Z" fill="#D8E4F1"/>
<path d="M12.1569 152.759C12.1569 152.759 13.0848 149.197 14.6955 147.551C16.3085 145.905 17.1952 145.692 18.3064 146.077C19.4177 146.462 19.09 148.374 18.1873 149.249C17.2823 150.123 15.5753 151.427 12.1569 152.759Z" fill="#D8E4F1"/>
<path d="M0.439689 152.802C0.439689 152.802 -4.99961 152.695 -7.98962 154.329C-10.9796 155.966 -11.6372 157.144 -11.5341 158.882C-11.431 160.619 -8.58075 160.922 -6.97233 159.984C-5.3685 159.047 -2.82526 157.139 0.439689 152.802Z" fill="#D8E4F1"/>
<path d="M6.61906 154.354C6.61906 154.354 0.716933 155.895 -2.01188 158.572C-4.7407 161.248 -5.09126 162.722 -4.45202 164.565C-3.81277 166.408 -0.644042 165.864 0.806287 164.365C2.25432 162.864 4.41492 160.028 6.61906 154.354Z" fill="#D8E4F1"/>
<path d="M9.13938 156.589C9.13938 156.589 4.33702 160.353 2.90044 163.895C1.46156 167.437 1.72735 168.927 3.04708 170.364C4.36681 171.801 7.05896 170.041 7.78986 168.086C8.52075 166.132 9.37766 162.671 9.13938 156.589Z" fill="#D8E4F1"/>
<path d="M11.4924 155.95C11.4924 155.95 10.8234 159.57 11.5841 161.745C12.3471 163.921 13.0596 164.489 14.2304 164.611C15.4013 164.732 15.9145 162.864 15.4654 161.688C15.0163 160.512 14.0242 158.605 11.4924 155.95Z" fill="#D8E4F1"/>
<path d="M-5.95051 150.932C-5.46248 151.043 -4.7545 151.194 -3.85864 151.375C-2.58931 151.634 -0.946522 151.959 0.982668 152.335C1.22783 152.384 1.47756 152.432 1.73188 152.48H1.73417C1.80749 152.494 1.88311 152.51 1.95872 152.523C1.96101 152.523 1.961 152.523 1.96329 152.523C2.05265 152.542 2.13973 152.558 2.23138 152.574C2.23367 152.574 2.23365 152.574 2.23365 152.574C3.74814 152.867 5.40469 153.186 7.1735 153.521C7.29951 153.543 7.42551 153.569 7.55382 153.592C7.55382 153.594 7.55611 153.592 7.55611 153.592C7.62714 153.605 7.69818 153.619 7.7692 153.633C7.81503 153.642 7.86085 153.651 7.90667 153.658C8.74983 153.819 9.6159 153.981 10.5026 154.149H10.5049C10.5484 154.158 10.5943 154.167 10.6424 154.174C10.647 154.176 10.6515 154.176 10.6561 154.176C10.734 154.19 10.8142 154.206 10.8921 154.222C10.9815 154.24 11.0731 154.256 11.1648 154.275H11.167C11.1877 154.279 11.2083 154.282 11.2289 154.286C16.2902 155.24 21.9105 156.285 27.3796 157.291C31.3892 158.027 35.314 158.743 38.8768 159.387C39.1564 159.437 39.4336 159.488 39.7085 159.538C39.6284 159.352 39.5481 159.162 39.4657 158.972C39.193 158.921 38.9158 158.873 38.6363 158.823C34.9428 158.158 30.8714 157.415 26.7289 156.65C21.5072 155.689 16.1733 154.697 11.3504 153.789C11.2862 153.775 11.2198 153.764 11.1533 153.752C11.0548 153.734 10.9586 153.715 10.8623 153.697C10.8188 153.69 10.7752 153.681 10.7317 153.674H10.7294C10.7157 153.67 10.6973 153.667 10.6813 153.665C10.679 153.665 10.679 153.665 10.6767 153.665C10.5667 153.644 10.4545 153.624 10.3422 153.601H10.3399C9.51738 153.445 8.71316 153.291 7.92499 153.142C7.73024 153.106 7.5355 153.069 7.34304 153.032H7.34075C5.50779 152.684 3.79396 152.356 2.23365 152.053C1.95413 151.998 1.6769 151.946 1.40653 151.893C-1.15961 151.396 -3.2446 150.981 -4.63536 150.69H-4.63765C-5.10048 150.591 -5.48768 150.508 -5.78783 150.44C-6.1086 150.369 -6.27357 150.859 -5.95051 150.932Z" fill="#D8E4F1"/>
<path d="M-0.705855 153.466C0.0754454 153.314 0.758217 152.883 1.53493 152.716C1.86028 152.647 1.76176 152.141 1.43641 152.21C0.659696 152.377 -0.0253658 152.808 -0.804375 152.959C-1.12973 153.023 -1.03121 153.53 -0.705855 153.466Z" fill="#D8E4F1"/>
<path d="M-0.242998 150.015C0.48785 150.847 1.2187 151.679 1.94955 152.514C2.16949 152.764 2.55897 152.422 2.33444 152.17C1.6036 151.338 0.872749 150.506 0.144192 149.674C-0.0757499 149.426 -0.46294 149.765 -0.242998 150.015Z" fill="#D8E4F1"/>
<path d="M6.35103 151.619C6.81387 152.078 7.35005 152.786 7.46461 153.442C7.5219 153.769 8.02826 153.671 7.97098 153.343C7.84037 152.6 7.26297 151.798 6.73827 151.278C6.50456 151.046 6.11503 151.385 6.35103 151.619Z" fill="#D8E4F1"/>
<path d="M5.89951 155.248C6.22257 155.037 6.5044 154.772 6.7931 154.519C6.96495 154.37 7.49422 153.834 7.64774 153.85C7.97768 153.887 8.00976 153.371 7.68211 153.334C7.35446 153.3 7.00162 153.667 6.77478 153.855C6.41047 154.157 6.07136 154.522 5.67497 154.781C5.40002 154.962 5.62226 155.429 5.89951 155.248Z" fill="#D8E4F1"/>
<path d="M10.1177 149.974C10.0696 150.655 10.0238 151.349 10.0811 152.032C10.1315 152.654 10.3675 153.261 10.3514 153.889C10.3423 154.222 10.8577 154.256 10.8669 153.924C10.8806 153.364 10.7157 152.823 10.6286 152.275C10.5118 151.533 10.5782 150.756 10.6332 150.01C10.6561 149.676 10.1407 149.644 10.1177 149.974Z" fill="#D8E4F1"/>
<path d="M8.91023 157.68C9.15767 156.922 9.76939 156.303 10.1635 155.645C10.4521 155.161 10.8325 154.749 11.2059 154.329C11.4351 154.07 10.9952 153.777 10.7844 154.036C9.9527 155.056 8.8392 156.248 8.42222 157.52C8.31683 157.832 8.80484 157.997 8.91023 157.68Z" fill="#D8E4F1"/>
<path d="M12.3745 152.009C11.7559 152.61 11.1946 153.265 10.5508 153.841C10.3033 154.063 10.6447 154.45 10.8922 154.228C11.5337 153.653 12.0973 152.997 12.7159 152.396C12.9519 152.167 12.6128 151.777 12.3745 152.009Z" fill="#D8E4F1"/>
<path d="M11.9874 156.736C11.6483 156.356 11.4948 155.776 11.3688 155.294C11.245 154.822 11.1213 154.311 11.1534 153.818C11.1763 153.486 10.6608 153.454 10.6379 153.784C10.599 154.368 10.7433 154.978 10.8991 155.537C11.048 156.067 11.2221 156.656 11.5956 157.075C11.8224 157.325 12.2096 156.986 11.9874 156.736Z" fill="#D8E4F1"/>
<path d="M236.602 223.998C236.602 223.998 241.483 221.696 243.419 218.927C245.355 216.156 245.421 214.819 244.564 213.32C243.707 211.821 241.043 212.809 240.028 214.352C239.013 215.892 237.595 218.709 236.602 223.998Z" fill="#D8E4F1"/>
<path d="M241.116 224.312C241.116 224.312 246.278 225.878 249.573 225.121C252.866 224.365 253.809 223.416 254.181 221.729C254.55 220.042 251.91 218.987 250.123 219.45C248.336 219.913 245.396 221.05 241.116 224.312Z" fill="#D8E4F1"/>
<path d="M230.43 225.344C230.43 225.344 234.996 221.373 236.243 217.795C237.489 214.214 237.152 212.752 235.771 211.397C234.391 210.04 231.814 211.92 231.188 213.891C230.563 215.86 229.889 219.333 230.43 225.344Z" fill="#D8E4F1"/>
<path d="M227.206 224.468C227.206 224.468 229.816 219.008 229.534 215.228C229.252 211.447 228.361 210.239 226.556 209.545C224.75 208.85 223.135 211.601 223.346 213.657C223.554 215.718 224.319 219.17 227.206 224.468Z" fill="#D8E4F1"/>
<path d="M225.399 226.073C225.399 226.073 224.4 222.563 222.766 220.966C221.132 219.368 220.248 219.178 219.153 219.586C218.06 219.991 218.426 221.88 219.341 222.726C220.259 223.574 221.98 224.831 225.399 226.073Z" fill="#D8E4F1"/>
<path d="M237.631 223.081C236.926 223.922 236.218 224.764 235.512 225.605C235.299 225.857 234.907 225.527 235.122 225.272C235.828 224.431 236.534 223.59 237.239 222.751C237.45 222.499 237.842 222.829 237.631 223.081Z" fill="#D8E4F1"/>
<path d="M227.36 223.269C227.424 223.943 227.484 224.631 227.442 225.309C227.406 225.926 227.186 226.533 227.216 227.155C227.232 227.483 226.721 227.528 226.707 227.198C226.682 226.644 226.833 226.105 226.906 225.559C227.005 224.821 226.922 224.051 226.853 223.313C226.819 222.985 227.328 222.941 227.36 223.269Z" fill="#D8E4F1"/>
<path d="M159.314 126.647C148.663 126.647 140 117.977 140 107.323C140 96.6689 148.663 87.9995 159.314 87.9995C169.963 87.9995 178.628 96.6689 178.628 107.323C178.628 117.977 169.963 126.647 159.314 126.647ZM159.314 89.9151C149.721 89.9151 141.916 97.7232 141.916 107.321C141.916 116.919 149.721 124.727 159.314 124.727C168.907 124.727 176.711 116.919 176.711 107.321C176.711 97.7232 168.907 89.9151 159.314 89.9151Z" fill="white"/>
<path d="M169.226 109.626C170.502 104.148 167.098 98.6719 161.623 97.3951C156.148 96.1183 150.675 99.524 149.399 105.002C148.123 110.48 151.527 115.955 157.002 117.232C162.477 118.509 167.95 115.103 169.226 109.626Z" fill="white"/>
<path d="M156.852 172.271L156.057 174.332L152.57 183.362L113.109 200.773L70.8218 193.361L55.8996 181.994L69.1887 141.286C69.1887 141.286 76.2057 131.414 91.74 127.86C94.0295 127.333 96.5066 126.948 99.1738 126.75C108.037 126.093 115.25 126.69 121.282 128.329C129.372 130.518 135.337 134.581 140.299 139.996L155.464 169.564L156.852 172.271Z" fill="#9DDCA0"/>
<path d="M140.367 94.2044C140.367 91.4108 139.163 88.9039 137.254 87.1553C138.392 85.5812 139.069 83.6528 139.069 81.5602C139.069 76.2753 134.787 71.9884 129.503 71.9884C129.482 71.9884 129.461 71.991 129.437 71.991C129.476 71.6366 129.503 71.277 129.503 70.9122C129.503 65.6272 125.22 61.3404 119.936 61.3404C117.641 61.3404 115.536 62.1508 113.887 63.4981C112.356 60.2511 109.066 57.9995 105.24 57.9995C100.82 57.9995 97.1108 61.0042 96.0116 65.08C94.6598 64.3477 93.11 63.9307 91.4639 63.9307C86.1816 63.9307 81.8969 68.215 81.8969 73.5025C81.8969 73.9533 81.9386 74.3937 81.9985 74.8289C77.2997 75.4361 73.6635 79.4441 73.6635 84.3121C73.6635 86.5272 74.4215 88.5599 75.6848 90.1808C73.6349 91.9372 72.33 94.5406 72.33 97.4515C72.33 101.704 75.1039 105.303 78.938 106.552C78.4353 107.714 78.1566 108.993 78.1566 110.341C78.1566 115.626 82.4387 119.912 87.7236 119.912C88.9269 119.912 90.073 119.681 91.1331 119.277C92.7584 122.24 95.9049 124.251 99.5227 124.251C102.651 124.251 105.417 122.743 107.165 120.421C108.91 122.743 111.679 124.251 114.804 124.251C119.446 124.251 123.314 120.942 124.184 116.551C124.478 116.577 124.772 116.595 125.075 116.595C130.357 116.595 134.642 112.311 134.642 107.023C134.642 105.686 134.365 104.415 133.871 103.258C137.647 101.978 140.367 98.4131 140.367 94.2044ZM122.004 97.9675C118.805 99.0542 116.367 101.78 115.7 105.152C115.406 105.124 115.112 105.108 114.81 105.108C111.681 105.108 108.915 106.617 107.17 108.939C105.425 106.617 102.656 105.108 99.5279 105.108C98.3246 105.108 97.1785 105.34 96.1184 105.744C94.9567 103.628 93.0163 101.999 90.6851 101.241C91.1878 100.078 91.4665 98.7988 91.4665 97.4515C91.4665 95.2364 90.7085 93.2037 89.4452 91.5828C91.4951 89.8264 92.8001 87.223 92.8001 84.3121C92.8001 83.8613 92.7584 83.4209 92.6985 82.9857C96.5664 82.4879 99.6999 79.6839 100.695 75.9938C102.047 76.7261 103.596 77.1431 105.243 77.1431C107.537 77.1431 109.642 76.3326 111.291 74.9853C112.822 78.2324 116.112 80.4839 119.938 80.4839C119.959 80.4839 119.982 80.4813 120.003 80.4813C119.964 80.8357 119.938 81.1954 119.938 81.5602C119.938 84.3538 121.142 86.8608 123.051 88.6094C121.912 90.1834 121.235 92.1118 121.235 94.2044C121.233 95.5413 121.509 96.813 122.004 97.9675Z" fill="#202020"/>
<path d="M26.4772 211.737C28.9386 203.68 40.6909 203.033 46.7885 204.443C50.9455 205.405 54.5296 207.146 58.3324 209.077C62.4296 211.159 66.8107 212.642 70.8193 215.005C80.6077 220.777 91.5838 224.241 103.003 224.699C112.994 225.098 123.814 222.086 133.204 218.982C141.167 216.35 149.262 213.752 157.159 210.812C160.811 209.454 165.45 207.409 169.357 207.273C174.082 207.112 185.081 209.157 184.813 214.135C184.068 227.999 160.603 239.134 150.246 245.167C143.706 248.977 137.08 252.664 130.555 256.498C125.934 259.213 120.965 261.261 115.635 261.775C105.295 262.77 94.3422 258.103 85.5878 253.008C74.8045 246.733 65.5214 238.321 55.3657 231.014C51.2894 228.082 46.9812 226.091 26.4772 211.737Z" fill="#1E5083"/>
<path d="M76.8335 178.086C76.7527 175.35 77.6383 172.798 78.1332 170.185C78.7948 166.69 79.808 165.637 79.808 165.637C79.808 165.637 86.9188 175.835 86.4447 177.815C85.9811 179.741 79.6934 180.903 76.8335 178.086Z" fill="#9DDCA0"/>
<path d="M127.95 180.593C127.885 178.378 131.323 163.748 131.74 161.629C134.571 165.001 137.757 173.272 137.788 175.175C137.827 177.413 137.041 177.038 134.676 177.494C133.196 177.781 130.399 183.053 127.95 180.593Z" fill="#9DDCA0"/>
<path d="M108.629 159.601C108.629 159.601 94.0425 146.743 90.7528 135.504C90.06 133.137 90.5236 130.967 91.779 129.106C94.0685 128.58 96.5456 128.194 99.2127 127.996C108.076 127.339 115.289 127.936 121.321 129.575C127.367 140.445 108.629 159.601 108.629 159.601Z" fill="white"/>
<path d="M141.375 218.992C139.724 220.094 137.939 221.574 136.08 222.611C135.392 222.995 134.694 223.318 133.991 223.534C134.009 223.143 134.327 222.288 134.832 221.139C135.637 219.318 136.926 216.761 138.28 214.147C140.729 209.399 143.383 204.458 143.724 203.353C144.399 201.18 143.125 193.857 143.365 191.592C143.823 187.285 147.816 189.132 151.007 185.567C152.296 184.121 153.724 182.667 155.208 181.137C155.469 184.939 157.18 188.666 157.555 192.463C158.147 198.527 145.964 215.938 141.375 218.992Z" fill="#A37661"/>
<path d="M77.2685 214.223C76.9768 216.363 76.4897 218.45 76.1849 220.579C76.0547 221.502 75.9583 222.44 75.9323 223.388C75.9323 223.435 75.9271 223.49 75.9271 223.537C75.888 223.506 75.8542 223.472 75.8151 223.438C72.0018 220.128 62.8229 207.471 60.3355 203.307C58.5721 200.354 55.5559 195.121 55.9336 191.593C57.8714 192.223 59.4994 193.378 61.0882 194.347C61.9764 194.892 62.8568 195.371 63.7711 195.676C65.8053 196.346 70.1369 196.474 71.4783 198.238C72.7103 199.856 77.5159 212.383 77.2685 214.223Z" fill="#A37661"/>
<path d="M141.375 218.992C139.723 220.094 137.939 221.574 136.08 222.612C135.41 222.195 135.014 221.697 134.829 221.139C134.175 219.179 136.171 216.508 138.278 214.147C139.585 212.675 140.935 211.32 141.708 210.332C143.594 207.932 144.756 205.104 146.488 202.657C148.03 200.474 150.074 198.449 151.239 196.01C152.619 193.096 152.374 188.843 151.004 185.567C152.294 184.121 153.721 182.667 155.206 181.137C155.466 184.939 157.177 188.666 157.552 192.463C158.146 198.527 145.964 215.938 141.375 218.992Z" fill="#7F5C4C"/>
<path d="M76.599 222.8C76.4765 223.061 76.2421 223.254 75.9322 223.389C75.8983 223.41 75.854 223.423 75.815 223.436C72.0017 220.126 62.8229 207.469 60.3354 203.305C58.5721 200.352 55.5559 195.119 55.9336 191.591C57.8714 192.221 59.4993 193.376 61.0882 194.345C61.6143 195.065 62.1431 195.753 62.4609 196.383C63.3438 198.142 64.0966 199.972 64.9379 201.71C66.5267 204.993 68.4594 208.254 70.5666 211.193C71.3662 212.308 74.8851 217.419 76.1822 220.577C76.5989 221.58 76.7891 222.383 76.599 222.8Z" fill="#7F5C4C"/>
<path d="M156.852 172.273L156.057 174.334C154.023 175.348 151.702 176.041 149.83 177.234C147.342 178.811 143.789 179.757 141.862 181.996C145.589 176.393 151.481 171.913 155.464 169.565L156.852 172.273Z" fill="#9DDCA0"/>
<path d="M69.8659 190.12C68.8032 188.322 66.6569 187.022 65.0603 185.724C62.9869 184.051 60.9371 181.977 58.6736 180.827C57.551 180.257 56.8712 180.4 56.0689 180.523C56.4466 179.634 56.8269 178.75 57.2019 177.862C59.0226 178.38 60.8537 179.225 61.5986 179.618C64.9717 181.393 68.7745 184.017 69.8659 190.12Z" fill="#9DDCA0"/>
<path d="M116.995 127.903C116.922 130.691 116.508 133.813 114.507 135.932C110.15 140.557 105.227 139.541 101.034 136.726C99.7547 135.869 97.038 132.351 96.5718 130.819C96.0586 129.127 96.6421 127.36 96.8973 125.677C97.1422 124.082 97.2073 122.472 97.2464 120.859C97.2646 120.178 97.2724 119.496 97.2724 118.81C97.2672 116.04 97.0849 113.244 96.4233 110.562C114.776 111.206 114.768 108.501 115.669 113.038C115.825 113.843 115.956 114.654 116.078 115.464C116.242 116.556 116.391 117.658 116.521 118.766C116.883 121.794 117.078 124.856 116.995 127.903Z" fill="#A37661"/>
<path d="M116.526 118.768C116.346 118.974 116.151 119.159 115.938 119.339C112.367 122.331 106.725 122.206 102.511 121.234C100.39 120.746 98.7364 119.923 97.2778 118.813C97.2726 116.043 97.0903 113.246 96.4287 110.565C114.781 111.208 114.773 108.503 115.674 113.04C115.831 113.846 115.961 114.656 116.083 115.467C116.248 116.559 116.393 117.661 116.526 118.768Z" fill="#7F5C4C"/>
<path d="M105.352 260.858C102.57 258.825 99.8093 257.167 97.189 254.866C93.9748 252.047 90.1199 249.951 87.1662 246.809C81.4463 240.721 74.6325 235.874 68.7772 229.927C61.8696 222.912 54.2483 214.672 45.7544 209.676C39.0552 205.736 27.7092 202.486 26.1099 213.483C25.1931 219.774 30.2253 227.673 33.2363 232.976C37.5523 240.578 44.6969 244.919 51.7947 249.532C63.9481 257.428 77.6565 263.25 91.529 267.636C98.6737 269.895 106.032 271.597 113.2 273.755C114.729 274.216 116.24 274.768 117.771 275.23C118.342 275.402 119.133 275.894 119.719 275.894C121.337 275.897 120.748 275.701 121.618 274.8C124.515 271.8 124.082 267.38 120.22 265.645C117.901 264.608 115.198 264.467 105.352 260.858Z" fill="#296DB3"/>
<path d="M122.944 95.3769C122.756 99.8071 122.069 104.3 119.834 107.849C119.076 109.056 118.183 110.281 117.182 111.435C113.268 115.956 107.686 119.438 102.039 116.71C98.6554 115.076 95.4517 112.563 93.1439 109.465C91.2321 106.903 89.9402 103.94 89.6641 100.761C89.4375 98.1262 89.4818 95.4941 89.6302 92.8751C89.7995 89.8131 90.1173 86.7719 90.3309 83.7698C94.1962 81.1873 97.5537 79.2354 100.497 77.8151C109.876 73.2885 115.062 74.2084 119.227 77.6588C121.303 79.3787 122.267 81.9196 122.689 84.5334C122.897 85.8311 122.973 87.1524 122.986 88.3928C123.009 90.6001 123.051 92.9768 122.944 95.3769Z" fill="#A37661"/>
<path d="M122.944 95.3766C121.868 94.2091 120.483 93.3596 118.803 93.125C115.505 92.6716 112.999 95.4209 109.973 95.9656C107.368 96.432 104.456 96.3851 101.961 95.5356C98.8222 94.4775 96.4389 92.6429 93.0606 92.4866C92.0865 92.4423 90.8571 92.6924 89.6302 92.8775C89.7996 89.8154 90.1173 86.7742 90.3309 83.7721C94.1963 81.1896 97.5537 79.2377 100.497 77.8174C103.117 77.5256 105.8 77.5386 108.509 77.7836C112.645 78.1588 116.891 78.6592 120.204 81.4398C121.126 82.2163 121.975 83.2509 122.691 84.5383C122.9 85.8361 122.975 87.1573 122.988 88.3978C123.009 90.5998 123.051 92.9765 122.944 95.3766Z" fill="#7F5C4C"/>
<path d="M26.4303 210.65C28.488 223.526 38.2529 232.851 47.7704 240.833C57.973 249.388 70.155 254.981 81.574 261.66C88.0987 265.478 95.2381 267.779 102.174 270.697C102.755 270.942 103.008 269.994 102.435 269.751C98.6476 268.159 94.7745 266.783 90.9768 265.214C86.924 263.541 83.1967 261.433 79.3938 259.27C72.3768 255.278 65.1671 251.614 58.348 247.285C51.4951 242.933 45.1423 237.721 39.4068 231.972C33.5697 226.122 28.699 218.677 27.3732 210.39C27.2742 209.767 26.3313 210.03 26.4303 210.65Z" fill="#1E5083"/>
<path d="M91.4405 279.183C91.4405 279.183 174.178 266.555 187.464 222.983C188.368 220.017 188.142 216.796 186.68 214.062C184.948 210.826 181.26 207.691 173.423 208.611C158.287 210.388 120.884 257.084 92.7715 269.135C92.7715 269.135 89.2265 272.666 91.4405 279.183Z" fill="#296DB3"/>
<path d="M91.1227 277.428C100.341 275.729 109.418 272.255 118.146 268.904C127.263 265.407 136.038 261.208 144.638 256.593C158.764 249.01 174.926 240.658 182.281 225.566C185.039 219.906 186.55 212.62 180.372 208.687C179.838 208.349 179.346 209.196 179.877 209.534C186.282 213.61 183.445 221.566 180.46 226.94C176.749 233.616 171.089 238.873 164.973 243.337C158.329 248.186 151.017 252.072 143.779 255.947C135.493 260.382 127.046 264.429 118.276 267.812C109.428 271.226 100.216 274.76 90.8648 276.485C90.2423 276.599 90.5054 277.543 91.1227 277.428Z" fill="#1E5083"/>
<path d="M87.6454 89.1174C88.5128 88.2574 88.8749 87.8718 90.1433 88.0021C92.1776 88.2131 94.4984 86.4958 96.1836 85.5289C96.6081 85.2866 97.0457 85.0312 97.3296 84.6325C98.0485 83.6161 97.5797 82.2063 98.1006 81.0466C98.6033 79.9287 99.5436 78.9983 100.69 78.5475C101.239 78.3312 101.875 78.2713 102.419 78.5032C104.026 79.1886 103.451 81.1457 104.534 82.1438C105.863 83.3686 106.944 81.8232 107.777 80.8434C108.845 79.5925 110.942 79.6446 110.934 81.6643C110.931 81.9796 110.856 82.3027 110.955 82.6024C111.056 82.9047 111.325 83.1262 111.619 83.2461C112.718 83.6943 113.69 82.9881 114.659 82.5555C117.13 81.4558 117.18 83.4858 116.807 85.1042C116.352 87.0769 117.227 88.0021 119.238 88.2913C119.865 88.3825 120.527 88.4763 120.923 89.0106C121.446 89.7142 121.368 90.595 122.277 91.0615C122.699 91.2778 123.194 91.3091 123.668 91.2752C126.773 91.0563 129.315 88.3513 129 85.211C128.711 82.3522 126.778 79.7749 124.991 77.6432C121.754 73.7811 118.136 71.8396 113.367 70.3412C108.285 68.7437 102.966 70.3203 98.2569 72.34C94.7041 73.8645 92.0187 76.7937 89.1275 79.3215C87.8642 80.4264 87.1974 81.4167 86.5124 82.9047C85.9993 84.0175 85.2934 84.669 85.4523 86.0085L87.6454 89.1174Z" fill="#202020"/>
<path d="M99.528 105.107H112.846C112.846 105.107 111.731 112.691 106.063 112.253C100.398 111.813 99.528 105.107 99.528 105.107Z" fill="white"/>
<path d="M131.185 76.0273C132.186 76.0273 133.186 76.3818 134.045 76.9551C134.907 77.5336 135.611 78.3779 136.043 79.3369C136.259 79.8164 136.402 80.322 136.501 80.8302C136.538 81.0856 136.585 81.3409 136.59 81.5989C136.613 81.8543 136.608 82.1097 136.603 82.3651C136.567 83.3814 136.34 84.3691 135.939 85.2786C135.915 84.2831 135.905 83.3241 135.785 82.3964C135.73 81.9325 135.644 81.4791 135.535 81.0386C135.415 80.6008 135.28 80.1708 135.095 79.7643C134.725 78.9539 134.207 78.219 133.54 77.5961C132.873 76.9707 132.081 76.4469 131.185 76.0273Z" fill="#333333"/>
<path d="M132.834 79.1758C133.165 79.1784 133.488 79.3035 133.769 79.4989C134.045 79.697 134.282 79.9836 134.402 80.3198C134.522 80.6534 134.553 81.0156 134.483 81.3466C134.459 81.5134 134.384 81.6671 134.332 81.8209C134.254 81.9668 134.17 82.1101 134.071 82.2378C134.061 82.0684 134.076 81.9147 134.082 81.7609C134.074 81.6072 134.087 81.4586 134.071 81.3153C134.061 81.0261 134.001 80.7576 133.912 80.5049C133.733 79.9967 133.342 79.5823 132.834 79.1758Z" fill="#333333"/>
<path d="M77.9405 87.5042C77.232 86.7953 76.7762 85.839 76.573 84.8252C76.3725 83.8063 76.4715 82.7118 76.8439 81.7267C77.0315 81.2342 77.2867 80.7755 77.5758 80.3455C77.7321 80.1397 77.878 79.926 78.0551 79.7383C78.2192 79.5403 78.4015 79.3631 78.5865 79.1885C79.3288 78.4953 80.1883 77.9558 81.1156 77.5962C80.4305 78.3154 79.7585 79.0008 79.1881 79.7435C78.899 80.111 78.6385 80.4915 78.4041 80.8798C78.1775 81.2733 77.9717 81.6746 77.8155 82.0915C77.5029 82.9254 77.3492 83.8141 77.3831 84.7262C77.417 85.6435 77.6045 86.5738 77.9405 87.5042Z" fill="#333333"/>
<path d="M79.0006 84.1114C78.7688 83.8742 78.6281 83.5589 78.5682 83.2227C78.5109 82.8865 78.55 82.5165 78.701 82.1959C78.8521 81.8754 79.0866 81.5992 79.3705 81.4141C79.5059 81.3125 79.6674 81.2552 79.8133 81.1848C79.9722 81.1353 80.1311 81.0936 80.2926 81.0728C80.1806 81.1978 80.0608 81.2969 79.9487 81.4011C79.8446 81.5158 79.7299 81.6122 79.6388 81.7243C79.4408 81.9379 79.2949 82.1699 79.1777 82.4096C78.9459 82.8944 78.9303 83.4651 79.0006 84.1114Z" fill="#333333"/>
<path d="M89.5209 116.76C88.6327 117.286 87.5465 117.442 86.4864 117.31C85.4211 117.177 84.3766 116.695 83.5535 115.978C83.142 115.618 82.7903 115.204 82.4882 114.763C82.3475 114.537 82.199 114.315 82.0896 114.075C82.0323 113.958 81.9672 113.844 81.9177 113.721L81.7719 113.356C81.4072 112.382 81.2509 111.357 81.3395 110.338C81.8813 111.206 82.3423 112.043 82.8658 112.798C83.1237 113.179 83.392 113.536 83.6759 113.872C83.965 114.203 84.2594 114.518 84.5823 114.797C85.2257 115.352 85.9524 115.798 86.7781 116.116C87.6012 116.439 88.5103 116.645 89.5209 116.76Z" fill="#333333"/>
<path d="M131.11 104.297C131.8 105.066 132.165 106.101 132.24 107.167C132.316 108.238 132.05 109.356 131.508 110.304C131.235 110.778 130.899 111.206 130.526 111.589C130.331 111.771 130.143 111.961 129.93 112.115C129.826 112.193 129.724 112.282 129.617 112.352L129.289 112.566C128.406 113.113 127.432 113.468 126.414 113.577C127.158 112.876 127.888 112.261 128.529 111.599C128.851 111.274 129.148 110.937 129.424 110.596C129.693 110.249 129.945 109.898 130.154 109.528C130.573 108.787 130.867 107.99 131.018 107.114C131.17 106.241 131.196 105.311 131.11 104.297Z" fill="#333333"/>
<path d="M87.2782 114.166C86.9761 114.302 86.6296 114.325 86.2936 114.265C85.9576 114.2 85.6268 114.039 85.3768 113.783C85.1293 113.531 84.9496 113.215 84.8767 112.884C84.8272 112.723 84.8324 112.551 84.8141 112.389C84.8246 112.222 84.8402 112.061 84.8767 111.902C84.9548 112.05 85.0069 112.199 85.0668 112.34C85.1372 112.475 85.1892 112.616 85.2622 112.741C85.3924 113.002 85.5591 113.218 85.744 113.411C86.1191 113.796 86.6505 114.007 87.2782 114.166Z" fill="#333333"/>
<path d="M119.269 83.1284C119.316 83.6652 119.357 84.1473 119.449 84.5904C119.537 85.0308 119.678 85.4138 119.891 85.7265C120.1 86.0419 120.402 86.2999 120.782 86.5318C121.162 86.7689 121.61 86.9644 122.092 87.2093C121.582 87.3943 121.032 87.423 120.48 87.2927C119.936 87.165 119.373 86.8315 119.029 86.3077C118.678 85.7891 118.571 85.1637 118.633 84.6086C118.698 84.0561 118.904 83.5349 119.269 83.1284Z" fill="#333333"/>
<path d="M98.283 80.4837C98.2569 80.7286 98.2387 80.9684 98.1501 81.2055C98.1085 81.3228 98.059 81.4401 98.0069 81.5547C97.9522 81.6642 97.8871 81.7554 97.8219 81.8544C97.6891 82.0603 97.5485 82.1802 97.4052 82.3261C97.3349 82.3913 97.2698 82.4356 97.1994 82.4903C97.1317 82.5398 97.0588 82.5997 96.9989 82.6336C96.4858 82.9594 96.069 83.121 95.7695 83.2773L95.5794 83.3789C95.5585 83.392 95.5377 83.405 95.5142 83.418L95.4804 83.4363L95.4647 83.4493C95.4543 83.4571 95.4413 83.4623 95.4283 83.4676C95.4283 83.4676 95.4283 83.4675 95.4231 83.4649C95.4204 83.4649 95.4153 83.4623 95.4127 83.4597C95.4153 83.4571 95.4153 83.4545 95.4153 83.4519C95.4153 83.4467 95.41 83.4389 95.4048 83.4311C95.41 83.418 95.371 83.4285 95.3658 83.418C95.3449 83.4154 95.358 83.4233 95.3501 83.4389C95.3449 83.4467 95.3658 83.4623 95.371 83.478C95.384 83.4936 95.3788 83.5092 95.4048 83.5301C95.5429 83.6969 95.8789 83.921 96.2644 84.1738C96.4623 84.3093 96.6733 84.45 96.8973 84.6533L97.064 84.8097C97.1213 84.8696 97.176 84.9373 97.2307 85.0025C97.3401 85.1198 97.4365 85.3048 97.525 85.4664C97.6787 85.8338 97.7438 86.2273 97.6761 86.6C97.6578 86.6938 97.6526 86.7876 97.6162 86.8762C97.5823 86.9674 97.5484 87.056 97.5094 87.1446C97.4755 87.2358 97.4182 87.3062 97.3687 87.3818C97.3166 87.4521 97.2646 87.5381 97.2099 87.5929C96.7462 88.0828 96.2826 88.2704 95.8945 88.4659C95.509 88.6457 95.1704 88.8203 94.9907 88.9923C94.9152 89.0809 94.8501 89.1434 94.8344 89.2503C94.798 89.3545 94.8162 89.464 94.8396 89.5682C94.9178 89.7819 95.1991 90.0425 95.5455 90.2692C95.8893 90.5064 96.2852 90.7331 96.6472 91.0901C96.8218 91.2752 96.9937 91.4967 97.0692 91.7703C97.163 92.0361 97.1369 92.3176 97.0796 92.5756C96.9885 92.8283 96.8504 93.0681 96.6603 93.2218C96.4805 93.3912 96.2826 93.5085 96.0872 93.618C95.6939 93.829 95.2954 93.988 94.9386 94.2095C94.5818 94.4206 94.277 94.7568 94.2432 95.2024C94.2093 94.762 94.4854 94.3346 94.8318 94.0662C95.1756 93.7821 95.5585 93.5658 95.8945 93.3183C96.2357 93.0759 96.5066 92.7736 96.5561 92.4557C96.5613 92.2915 96.5587 92.1221 96.4805 91.9866C96.4232 91.8459 96.3034 91.7312 96.168 91.6217C95.8789 91.4054 95.496 91.2413 95.0975 91.0458C94.8943 90.9442 94.686 90.8373 94.475 90.6836C94.264 90.5429 94.0504 90.3292 93.8837 90.0607C93.7353 89.7741 93.6467 89.4483 93.678 89.1226C93.6858 89.0418 93.6832 88.9584 93.7066 88.8776C93.73 88.7968 93.7535 88.7161 93.7821 88.6353C93.8056 88.5519 93.8499 88.4841 93.8889 88.4137C93.9306 88.346 93.9697 88.2652 94.0166 88.2079C94.3995 87.7153 94.8344 87.4652 95.1939 87.2202C95.5507 86.9909 95.8606 86.7537 95.9596 86.5817C95.9935 86.4957 96.0091 86.4645 95.9883 86.4045C95.9909 86.3472 95.9466 86.3055 95.931 86.2794C95.8685 86.2195 95.6366 86.0475 95.2746 85.8807C94.9178 85.7009 94.475 85.5315 93.9619 85.1276C93.9019 85.0859 93.8316 85.0103 93.7691 84.9504C93.704 84.8826 93.6415 84.8279 93.5816 84.7419C93.4618 84.5751 93.342 84.4083 93.2638 84.1946C93.0867 83.7829 93.0711 83.3451 93.1362 82.9099C93.1622 82.8004 93.1961 82.691 93.2326 82.5841L93.2925 82.4225C93.3159 82.373 93.342 82.3287 93.368 82.2818C93.4201 82.188 93.4748 82.0968 93.5347 82.0056C93.592 81.93 93.6545 81.857 93.717 81.7841L93.8108 81.6772L93.9019 81.5912L94.0869 81.4244C94.2015 81.3306 94.3213 81.2394 94.4307 81.1612C94.8631 80.8589 95.2277 80.6426 95.4153 80.4654C95.4465 80.442 95.4517 80.4263 95.4673 80.4081C95.4804 80.3925 95.5038 80.3742 95.5064 80.3612C95.5012 80.343 95.5299 80.3221 95.4986 80.3351C95.4882 80.3403 95.4908 80.3456 95.4778 80.356C95.4621 80.3664 95.4517 80.382 95.4465 80.4003C95.4387 80.4342 95.4048 80.4524 95.4153 80.4863H98.283V80.4837Z" fill="#333333"/>
<path d="M126.716 88.8598C126.624 89.0866 126.544 89.3159 126.393 89.5192C126.32 89.6208 126.242 89.7224 126.161 89.8162C126.08 89.9074 125.992 89.9778 125.9 90.0534C125.715 90.2176 125.549 90.2931 125.369 90.3948C125.283 90.4391 125.208 90.4651 125.127 90.499C125.049 90.5277 124.96 90.5668 124.895 90.5824C124.312 90.757 123.869 90.7987 123.538 90.8691L123.327 90.916C123.304 90.9238 123.28 90.9316 123.254 90.9368L123.218 90.9446C123.212 90.9472 123.207 90.9498 123.199 90.9524C123.186 90.9577 123.173 90.9603 123.158 90.9603C123.158 90.9629 123.158 90.9603 123.152 90.9551C123.15 90.9524 123.147 90.9498 123.145 90.9472C123.147 90.9446 123.15 90.9446 123.15 90.9394C123.152 90.9342 123.15 90.9238 123.145 90.916C123.152 90.9055 123.113 90.9055 123.111 90.8925C123.093 90.8821 123.1 90.8951 123.09 90.9081C123.082 90.9134 123.098 90.9368 123.1 90.9498C123.108 90.9681 123.1 90.9811 123.119 91.0098C123.207 91.2078 123.47 91.5127 123.772 91.8619C123.926 92.047 124.09 92.2398 124.252 92.4952L124.369 92.6906C124.408 92.7636 124.442 92.8444 124.478 92.92C124.551 93.0633 124.595 93.2666 124.637 93.4464C124.687 93.8425 124.642 94.236 124.476 94.5774C124.434 94.6634 124.403 94.7494 124.343 94.8276C124.285 94.9057 124.228 94.9839 124.166 95.0569C124.108 95.135 124.035 95.1872 123.968 95.2471C123.897 95.3018 123.827 95.3696 123.757 95.4061C123.179 95.7527 122.678 95.8074 122.254 95.8908C121.832 95.9611 121.459 96.0367 121.241 96.1514C121.144 96.2165 121.064 96.2582 121.019 96.3573C120.954 96.4459 120.944 96.5579 120.938 96.6648C120.954 96.8915 121.157 97.2172 121.428 97.53C121.694 97.8505 122.017 98.1788 122.267 98.6193C122.384 98.8434 122.491 99.104 122.488 99.388C122.504 99.6695 122.405 99.9327 122.28 100.165C122.124 100.384 121.926 100.576 121.702 100.673C121.483 100.787 121.261 100.847 121.043 100.899C120.608 100.996 120.181 101.04 119.777 101.157C119.376 101.262 118.993 101.507 118.839 101.924C118.925 101.491 119.305 101.155 119.714 100.988C120.121 100.808 120.55 100.701 120.941 100.556C121.334 100.415 121.678 100.198 121.811 99.904C121.861 99.7476 121.902 99.5835 121.866 99.4323C121.85 99.2812 121.764 99.1379 121.663 98.9971C121.444 98.7105 121.121 98.4499 120.787 98.1528C120.621 97.999 120.449 97.8401 120.287 97.6342C120.123 97.4413 119.975 97.1781 119.889 96.8732C119.824 96.5579 119.826 96.2191 119.946 95.9142C119.977 95.8387 119.996 95.7579 120.04 95.6875C120.084 95.6146 120.128 95.5442 120.178 95.4738C120.222 95.3983 120.282 95.3461 120.339 95.2888C120.397 95.2341 120.457 95.1689 120.517 95.1272C121.017 94.7572 121.506 94.6347 121.915 94.4966C122.322 94.3715 122.684 94.2282 122.827 94.0901C122.884 94.0171 122.905 93.9884 122.902 93.9285C122.921 93.8738 122.889 93.8216 122.882 93.793C122.84 93.7174 122.663 93.4907 122.358 93.2327C122.064 92.9617 121.681 92.6802 121.298 92.1512C121.251 92.0939 121.204 92.0027 121.16 91.9271C121.116 91.8437 121.069 91.7759 121.035 91.6769C120.965 91.4815 120.894 91.2912 120.879 91.0645C120.819 90.6189 120.923 90.1941 121.105 89.7928C121.16 89.6964 121.222 89.5999 121.288 89.5061L121.386 89.368C121.423 89.3263 121.459 89.2898 121.499 89.2507C121.574 89.1752 121.652 89.1022 121.733 89.0292C121.808 88.9719 121.887 88.9198 121.967 88.8651L122.087 88.7869L122.197 88.7295L122.418 88.6175C122.556 88.5576 122.694 88.5028 122.819 88.4559C123.317 88.2813 123.725 88.1745 123.955 88.0546C123.991 88.0416 123.999 88.0259 124.02 88.0155C124.035 88.0025 124.064 87.9921 124.069 87.9816C124.069 87.9634 124.103 87.9504 124.069 87.953C124.059 87.9556 124.059 87.9608 124.043 87.9686C124.025 87.9764 124.009 87.9868 124.002 88.0025C123.986 88.0338 123.947 88.0416 123.949 88.0754L126.716 88.8598Z" fill="#333333"/>
<path d="M139.656 233.396C141.166 231.708 142.734 230.074 144.336 228.468C145.936 226.866 147.571 225.294 149.241 223.759C152.596 220.708 156.086 217.794 159.8 215.155C161.655 213.836 163.569 212.585 165.559 211.449C167.554 210.328 169.654 209.346 171.878 208.681C172.99 208.356 174.131 208.095 175.293 207.959C176.455 207.832 177.64 207.808 178.807 207.988C179.971 208.157 181.114 208.533 182.133 209.109C183.151 209.69 184.039 210.466 184.732 211.376L184.636 211.464C183.807 210.698 182.878 210.068 181.867 209.643C180.862 209.208 179.788 208.976 178.708 208.9C177.624 208.832 176.533 208.905 175.457 209.098C174.381 209.283 173.316 209.567 172.274 209.924C170.182 210.623 168.159 211.563 166.174 212.582C164.189 213.607 162.264 214.769 160.392 216.012C156.651 218.511 153.098 221.305 149.673 224.244C146.238 227.173 142.927 230.259 139.752 233.48L139.656 233.396Z" fill="#1E5083"/>
<path d="M52.1775 180.181L51.1669 191.043C51.0835 191.934 51.6435 192.758 52.5005 193.008L69.9753 198.118C71.3324 198.514 72.6191 197.318 72.3248 195.934L70.241 186.219C70.116 185.63 69.7123 185.138 69.1601 184.898L54.7796 178.644C53.6153 178.135 52.2973 178.915 52.1775 180.181Z" fill="#9DDCA0"/>
<path d="M161.173 172.978L162.184 183.839C162.267 184.731 161.707 185.554 160.85 185.804L143.375 190.912C142.018 191.308 140.732 190.112 141.026 188.728L143.11 179.013C143.235 178.424 143.638 177.932 144.191 177.692L158.571 171.438C159.735 170.932 161.056 171.711 161.173 172.978Z" fill="#9DDCA0"/>
<path d="M149.994 175.1C151.26 174.383 152.549 173.718 153.843 173.056C155.148 172.41 156.456 171.78 157.831 171.24C158.172 171.102 158.524 170.974 158.883 170.847L159.162 170.758C159.261 170.729 159.329 170.696 159.475 170.675L159.67 170.643C159.738 170.638 159.808 170.641 159.879 170.641C160.019 170.636 160.162 170.672 160.306 170.703C160.579 170.795 160.845 170.943 161.025 171.128C161.217 171.311 161.355 171.506 161.47 171.704C161.691 172.1 161.809 172.496 161.897 172.885C162.059 173.664 162.074 174.422 162.03 175.17C161.983 175.918 161.871 176.653 161.65 177.372L161.519 177.364C161.368 176.637 161.249 175.923 161.116 175.225C160.983 174.529 160.837 173.838 160.636 173.215C160.54 172.905 160.42 172.611 160.29 172.371C160.157 172.129 160.014 171.988 159.899 171.926C159.865 171.92 159.837 171.892 159.793 171.892L159.73 171.879C159.707 171.881 159.681 171.881 159.655 171.881C159.618 171.873 159.514 171.899 159.436 171.912L159.188 171.957C158.852 172.03 158.511 172.118 158.172 172.223C157.493 172.426 156.813 172.663 156.136 172.905C155.456 173.143 154.779 173.393 154.101 173.648C152.744 174.146 151.398 174.685 150.046 175.212L149.994 175.1Z" fill="#9DDCA0"/>
<path d="M60.5958 181.242C60.0671 181.125 59.5514 180.984 59.0304 180.846L58.2568 180.627L57.4911 180.39C57.2358 180.309 56.9727 180.252 56.7122 180.186C56.4518 180.119 56.2069 180.017 55.9803 179.874C55.5271 179.584 55.0974 179.243 54.7535 178.701L54.8056 178.581C55.436 178.464 55.9803 178.545 56.4987 178.678C56.7565 178.748 56.9988 178.857 57.2254 179.001C57.452 179.147 57.6734 179.3 57.9052 179.431L58.6006 179.829L59.2883 180.246C59.7441 180.53 60.1999 180.814 60.6453 181.119L60.5958 181.242Z" fill="#9DDCA0"/>
<path d="M137.082 176.455L136.538 174.341C136.434 173.995 136.363 173.648 136.254 173.307C136.158 172.963 136.069 172.619 135.965 172.28C135.874 171.939 135.78 171.597 135.681 171.256C135.585 170.914 135.512 170.568 135.413 170.226C135.322 169.882 135.241 169.533 135.137 169.192C135.03 168.85 134.918 168.512 134.806 168.173C134.691 167.834 134.548 167.506 134.42 167.172L134.222 166.672C134.152 166.508 134.074 166.346 134.001 166.182L133.558 165.199L133.063 164.24C132.753 163.586 132.363 162.982 132.003 162.351L131.865 162.117L131.714 161.89L131.412 161.436L130.815 160.522L130.917 160.441C131.388 160.996 131.883 161.538 132.331 162.119C132.764 162.711 133.233 163.281 133.621 163.907C134.459 165.121 135.142 166.437 135.77 167.779C136.379 169.127 136.991 170.51 137.233 171.988C137.262 172.173 137.299 172.355 137.325 172.54L137.385 173.098C137.421 173.471 137.442 173.843 137.444 174.219C137.447 174.967 137.403 175.72 137.213 176.457L137.082 176.455Z" fill="#9DDCA0"/>
<path d="M132.871 159.093L133.952 164.383L133.175 164.485L132.871 159.093Z" fill="#9DDCA0"/>
<path d="M77.2138 175.725C77.0549 175.188 76.9872 174.652 76.9533 174.115C76.9169 173.578 76.9273 173.041 76.9689 172.507C77.0419 171.436 77.4195 170.412 77.7608 169.395C78.0994 168.376 78.5265 167.376 79.1021 166.456C79.3965 166 79.7272 165.565 80.1101 165.176C80.4904 164.791 80.9332 164.457 81.428 164.249L81.4905 164.363C80.6362 164.952 80.0815 165.841 79.6777 166.763C79.4668 167.225 79.3027 167.707 79.1542 168.194C79.0005 168.679 78.8755 169.174 78.7661 169.674C78.6541 170.172 78.5864 170.683 78.5265 171.193C78.464 171.702 78.3728 172.205 78.2582 172.708C78.141 173.208 78.016 173.711 77.8649 174.214C77.7191 174.717 77.5576 175.222 77.344 175.733L77.2138 175.725Z" fill="#9DDCA0"/>
<path d="M77.9536 163.002L78.9277 168.334L78.1515 168.42L77.9536 163.002Z" fill="#9DDCA0"/>
<path d="M26.0448 213.483C26.0239 212.467 26.2115 211.461 26.5631 210.505C26.9226 209.553 27.4773 208.665 28.2145 207.94C28.5843 207.583 28.9933 207.26 29.4309 206.989C29.8737 206.728 30.3347 206.486 30.8191 206.314C31.7829 205.949 32.8039 205.756 33.8249 205.678C34.8434 205.597 35.8826 205.655 36.8907 205.806C37.9013 205.96 38.8989 206.184 39.8678 206.489C40.8394 206.788 41.7953 207.132 42.7278 207.528C43.1992 207.716 43.655 207.938 44.1186 208.141C44.5719 208.362 45.0329 208.574 45.4809 208.811C49.0727 210.666 52.4953 212.866 55.5454 215.519C57.0665 216.848 58.5303 218.239 59.8796 219.74C61.2366 221.231 62.4973 222.815 63.5704 224.52L63.4662 224.598C60.7469 221.661 57.8036 218.995 54.7119 216.519C53.1699 215.279 51.5915 214.083 49.987 212.928C48.3851 211.766 46.7181 210.692 44.9938 209.731C44.564 209.486 44.1239 209.267 43.6863 209.032C43.2435 208.818 42.8033 208.589 42.3527 208.391C41.4593 207.974 40.5424 207.612 39.6126 207.291C38.6853 206.966 37.7346 206.718 36.7735 206.541C35.8097 206.364 34.8434 206.28 33.864 206.325C32.8899 206.358 31.9183 206.502 30.9989 206.807C30.5352 206.947 30.0977 207.156 29.6705 207.385C29.2485 207.625 28.8552 207.909 28.4932 208.229C27.0502 209.532 26.2532 211.508 26.1776 213.475L26.0448 213.483Z" fill="#1E5083"/>
<path d="M120.933 129.479C122.03 130.128 123.007 130.957 123.908 131.858C124.807 132.765 125.63 133.755 126.341 134.826C127.041 135.903 127.69 137.023 128.174 138.222C128.445 138.808 128.646 139.423 128.859 140.033C128.974 140.336 129.042 140.653 129.128 140.964L129.372 141.902C129.461 142.24 129.263 142.587 128.927 142.683L128.883 142.697C128.336 142.853 127.745 143.08 127.187 143.312C126.625 143.549 126.078 143.82 125.546 144.114C125.012 144.406 124.504 144.74 124.02 145.099C123.53 145.454 123.095 145.865 122.676 146.293L122.606 145.454C123.064 145.842 123.481 146.233 123.898 146.645C124.309 147.056 124.71 147.484 125.088 147.935C125.466 148.385 125.828 148.86 126.138 149.386C126.437 149.912 126.731 150.491 126.76 151.215C126.768 151.374 126.692 151.518 126.575 151.606L126.57 151.612C125.841 152.148 125.117 152.763 124.429 153.389C123.739 154.02 123.072 154.676 122.429 155.359C121.147 156.725 119.967 158.189 118.907 159.734C117.85 161.282 116.92 162.924 116.17 164.647C115.972 165.074 115.813 165.517 115.636 165.952C115.485 166.398 115.31 166.836 115.177 167.287C114.88 168.18 114.667 169.1 114.469 170.023L114.341 169.999C114.638 168.126 115.12 166.273 115.831 164.503C116.524 162.729 117.404 161.027 118.42 159.409C119.433 157.79 120.6 156.268 121.863 154.835C122.496 154.119 123.158 153.428 123.845 152.761C124.538 152.094 125.239 151.458 126.015 150.848L125.822 151.244C125.799 150.822 125.57 150.337 125.291 149.897C125.01 149.449 124.666 149.024 124.301 148.612C123.934 148.203 123.541 147.812 123.134 147.434C122.728 147.059 122.301 146.686 121.879 146.353C121.629 146.155 121.587 145.792 121.785 145.545L121.809 145.519L121.811 145.516C122.262 145.016 122.733 144.534 123.257 144.119C123.775 143.7 124.317 143.309 124.89 142.975C125.458 142.634 126.049 142.332 126.653 142.066C126.955 141.933 127.263 141.811 127.575 141.698C127.89 141.584 128.193 141.485 128.542 141.386L128.052 142.181C127.776 140.995 127.479 139.809 127.036 138.67C126.619 137.521 126.088 136.416 125.486 135.348C124.895 134.271 124.187 133.258 123.421 132.286C122.65 131.319 121.803 130.396 120.858 129.581L120.933 129.479Z" fill="white"/>
<path d="M92.2792 129.39C91.3337 130.206 90.4872 131.126 89.7162 132.095C88.9505 133.067 88.242 134.081 87.6507 135.157C87.049 136.226 86.5177 137.331 86.1009 138.48C85.6582 139.619 85.3612 140.805 85.0851 141.99L84.5954 141.195C84.9445 141.292 85.2466 141.394 85.5618 141.508C85.8743 141.62 86.1791 141.743 86.4838 141.876C87.0881 142.141 87.6794 142.444 88.2472 142.785C88.8202 143.119 89.362 143.51 89.8803 143.929C90.4039 144.343 90.8753 144.826 91.3259 145.326L91.3285 145.329C91.5421 145.566 91.5213 145.928 91.2868 146.142C91.279 146.149 91.2686 146.157 91.2582 146.165C90.8362 146.499 90.4065 146.871 90.0027 147.247C89.5964 147.624 89.2031 148.015 88.8358 148.424C88.4712 148.834 88.1274 149.261 87.8461 149.709C87.5674 150.152 87.3382 150.634 87.3147 151.056L87.122 150.66C87.8981 151.27 88.5988 151.906 89.2917 152.573C89.9793 153.24 90.6409 153.931 91.2738 154.648C92.5371 156.081 93.704 157.603 94.7172 159.221C95.733 160.837 96.6134 162.538 97.3062 164.316C98.0147 166.085 98.4991 167.938 98.7961 169.812L98.6685 169.835C98.4705 168.913 98.2569 167.993 97.96 167.099C97.8272 166.648 97.6526 166.208 97.5016 165.765C97.3218 165.329 97.1656 164.886 96.9676 164.459C96.2175 162.734 95.2876 161.095 94.2301 159.547C93.17 157.999 91.9901 156.537 90.7086 155.171C90.0678 154.489 89.4011 153.832 88.7082 153.201C88.0206 152.576 87.2965 151.961 86.5672 151.424L86.562 151.421C86.4343 151.328 86.3692 151.176 86.3744 151.03C86.4057 150.303 86.6974 149.727 86.9969 149.201C87.3069 148.675 87.6689 148.2 88.0466 147.75C88.4243 147.296 88.8254 146.871 89.2369 146.46C89.6537 146.048 90.0705 145.657 90.5289 145.269L90.4585 146.108C90.0392 145.68 89.6042 145.269 89.1145 144.914C88.6301 144.555 88.1222 144.224 87.5882 143.929C87.0568 143.635 86.5099 143.364 85.9473 143.126C85.3899 142.895 84.7986 142.668 84.2516 142.511L84.21 142.498C83.8714 142.402 83.676 142.053 83.7646 141.717L84.0094 140.779C84.0953 140.466 84.1631 140.15 84.2777 139.848C84.4913 139.238 84.6918 138.623 84.9627 138.037C85.4472 136.838 86.0983 135.718 86.7964 134.641C87.5074 133.57 88.3305 132.58 89.2292 131.673C90.1304 130.772 91.1071 129.943 92.2037 129.294L92.2792 129.39Z" fill="white"/>
<path d="M109.892 155.385L108.72 170.017L106.509 155.505L109.892 155.385Z" fill="white"/>
<path d="M140.398 228.887H76L63.745 171.514H152.656L140.398 228.887Z" fill="white"/>
<path d="M140.398 231.062H76L63.745 173.689H152.656L140.398 231.062Z" fill="#9DBCDC"/>
<path d="M114.56 202.371L108.199 196.007L101.837 202.371L108.199 208.736L114.56 202.371Z" fill="#296DB3"/>
<path d="M104.409 209.295L97.4938 202.376L104.409 195.458L111.325 202.376L104.409 209.295ZM98.6008 202.376L104.409 208.188L110.218 202.376L104.409 196.565L98.6008 202.376Z" fill="#296DB3"/>
</svg>
