<svg width="316" height="150" viewBox="0 0 316 150" fill="none" xmlns="http://www.w3.org/2000/svg">
<path d="M-62.6107 167.364C-61.1258 171.954 -59.4824 176.496 -57.6979 180.98C-56.385 184.286 -54.9883 187.565 -53.5211 190.809C-50.4149 197.681 -46.9826 204.412 -43.2771 210.984C-42.9775 211.514 -42.6779 212.043 -42.3739 212.568C-38.5143 219.308 -34.3682 225.875 -29.9931 232.258C-27.5565 235.815 -24.9174 239.615 -22.0931 243.495C-21.7362 243.989 -21.3749 244.488 -21.0004 244.982V244.986C-16.9205 250.525 -12.466 256.17 -7.67673 261.409C-5.26663 264.049 -2.76843 266.587 -0.190948 268.952C5.74835 274.416 12.115 278.993 18.8562 281.897C18.8562 281.897 21.9052 281.897 27.3025 281.897H250.021C257.361 281.814 267.385 273.595 275.77 264.684C276.074 264.362 276.373 264.04 276.669 263.718C282.784 257.097 287.921 250.239 290.332 246.165C292.098 243.177 293.825 240.158 295.495 237.104C295.733 236.671 295.971 236.234 296.205 235.802C303.889 221.559 310.273 206.584 313.67 190.708C328.39 121.979 271.024 77.9447 207.38 76.3602C206.966 76.3514 206.556 76.3426 206.142 76.3381C205.723 76.3293 205.3 76.3249 204.882 76.3205C192.003 76.2234 179.018 77.8476 166.052 79.3262C165.571 79.3835 165.087 79.4365 164.606 79.4895C150.498 81.0828 136.417 82.4201 122.507 81.1004C117.498 80.6238 112.66 79.8558 107.967 78.8186C107.408 78.695 106.844 78.567 106.289 78.4346C80.5004 72.3571 59.0785 58.2953 37.8813 41.6869C37.0177 41.0072 36.1497 40.3275 35.2861 39.639C34.9998 39.4139 34.709 39.1844 34.4225 38.9549C25.659 31.9814 15.8557 25.6258 4.77023 24.0634C0.0910645 23.4058 -4.53082 23.6397 -9.01611 24.5666C-12.5321 25.2948 -15.9644 26.4512 -19.2689 27.9341C-25.3139 30.6441 -30.9359 34.453 -35.8751 38.7651C-35.9059 38.7916 -35.9412 38.8225 -35.972 38.849C-36.3773 39.2065 -36.7827 39.564 -37.1792 39.9259C-49.071 50.6554 -57.4512 63.1503 -62.8441 76.6736C-63.0468 77.1723 -63.2451 77.6755 -63.439 78.183C-65.5803 83.8148 -67.2149 89.6187 -68.3781 95.5417C-69.0566 98.9888 -69.5721 102.48 -69.9378 105.998C-72.0262 126.124 -69.1227 147.229 -62.6107 167.364Z" fill="#F4F7FB"/>
<path d="M163.241 35.6845C174.987 38.2973 181.653 49.8036 167.391 54.076C160.275 56.2077 153.014 55.8591 145.546 55.8723C127.984 55.9076 109.743 52.0236 93.1324 46.3831C81.928 42.5785 52.4959 29.4745 63.0483 13.8592C72.0938 0.477157 94.3132 2.88257 106.831 8.43047C122.208 15.2539 132.042 29.6687 163.241 35.6845Z" fill="#F4F7FB"/>
<path d="M238.587 94.6063C238.587 96.7116 240.293 98.4197 242.394 98.4197C244.496 98.4197 246.201 96.7116 246.201 94.6063C246.201 92.501 244.496 90.793 242.394 90.793C240.293 90.793 238.587 92.4966 238.587 94.6063Z" fill="#F4F7FB"/>
<path d="M277.929 150.249C277.929 151.131 278.642 151.846 279.524 151.846C280.405 151.846 281.119 151.131 281.119 150.249C281.119 149.366 280.405 148.651 279.524 148.651C278.638 148.655 277.929 149.366 277.929 150.249Z" fill="#F4F7FB"/>
<path d="M279.524 143.756C279.792 143.756 280.052 143.774 280.312 143.809C282.877 144.122 284.978 145.941 285.71 148.355C285.899 148.955 285.996 149.595 285.996 150.253C285.996 153.828 283.088 156.741 279.519 156.741C275.942 156.741 273.038 153.828 273.038 150.253C273.042 146.669 275.946 143.756 279.524 143.756ZM279.524 156.101C282.744 156.101 285.362 153.475 285.362 150.253C285.362 149.185 285.075 148.192 284.577 147.326C283.894 146.139 282.81 145.221 281.52 144.749C280.894 144.519 280.224 144.396 279.524 144.396C276.298 144.396 273.677 147.022 273.677 150.253C273.677 153.475 276.298 156.101 279.524 156.101Z" fill="#F4F7FB"/>
<path d="M296.205 99.5889C290.004 99.5889 284.978 94.554 284.978 88.343C284.978 82.1321 290.004 77.0972 296.205 77.0972C302.405 77.0972 307.431 82.1321 307.431 88.343C307.431 94.554 302.405 99.5889 296.205 99.5889Z" fill="#F4F7FB"/>
<path d="M121.297 59.3134C119.464 59.3134 117.978 57.8275 117.978 55.9946C117.978 54.1617 119.464 52.6758 121.297 52.6758C123.13 52.6758 124.616 54.1617 124.616 55.9946C124.616 57.8275 123.13 59.3134 121.297 59.3134Z" fill="#F4F7FB"/>
<path d="M121.438 64.5636C126.239 64.5636 130.147 60.6559 130.147 55.8541C130.147 51.0522 126.239 47.1445 121.438 47.1445C116.636 47.1445 112.728 51.0522 112.728 55.8541C112.728 60.6559 116.632 64.5636 121.438 64.5636ZM121.438 47.5212C126.03 47.5212 129.767 51.2577 129.767 55.8503C129.767 60.4429 126.03 64.1793 121.438 64.1793C116.845 64.1793 113.109 60.4429 113.109 55.8503C113.109 51.2615 116.845 47.5212 121.438 47.5212Z" fill="#F4F7FB"/>
<path d="M158.444 168.981C158.444 168.981 162.008 162.224 161.843 157.442C161.676 152.659 160.612 151.091 158.369 150.125C156.124 149.159 153.949 152.546 154.112 155.153C154.272 157.761 155.064 162.153 158.444 168.981Z" fill="#D8E4F1"/>
<path d="M163.816 165.494C163.816 165.494 170.992 162.87 174.075 159.209C177.159 155.549 177.42 153.673 176.403 151.451C175.386 149.23 171.5 150.284 169.872 152.327C168.245 154.37 165.887 158.16 163.816 165.494Z" fill="#D8E4F1"/>
<path d="M9.44477 109.616C20.2058 98.8549 20.2058 81.4078 9.44477 70.6468C-1.31627 59.8857 -18.7634 59.8857 -29.5244 70.6468C-40.2854 81.4078 -40.2854 98.8549 -29.5244 109.616C-18.7634 120.377 -1.31627 120.377 9.44477 109.616Z" fill="#9DBCDC"/>
<path d="M-23.9864 87.8315C-23.2786 88.0869 -22.6008 88.383 -21.9351 88.6925C-21.2679 89.0006 -20.6172 89.3312 -19.9726 89.6693C-18.6862 90.3501 -17.439 91.0804 -16.2202 91.8498C-15.0045 92.6222 -13.8023 93.4141 -12.6663 94.2902C-12.0967 94.726 -11.5392 95.1798 -10.9922 95.6457C-10.4452 96.113 -9.91027 96.5939 -9.37078 97.0703L-11.7706 97.4159C-11.1034 96.6435 -10.4407 95.8696 -9.79456 95.0822L-7.86504 92.7139L-5.93403 90.3471L-3.98048 87.9968C-2.68362 86.4264 -1.35971 84.8741 -0.0493259 83.3143C1.27308 81.7619 2.59548 80.2096 3.93892 78.6738L4.23496 78.8917C3.16351 80.6289 2.07103 82.351 0.978539 84.0716C-0.124468 85.7848 -1.21695 87.5069 -2.33499 89.211L-4.00302 91.7716L-5.6936 94.3158L-7.38717 96.8584C-7.9492 97.7074 -8.49319 98.57 -9.03267 99.4356C-9.49251 100.17 -10.4603 100.393 -11.1951 99.9345L-11.2146 99.9225L-11.434 99.7797C-12.0366 99.386 -12.6422 98.9968 -13.2373 98.5926C-13.8324 98.1883 -14.417 97.7721 -14.988 97.3363C-16.1346 96.4722 -17.2151 95.5225 -18.282 94.5532C-19.3459 93.5809 -20.3798 92.5696 -21.3776 91.5102C-21.8735 90.9782 -22.3649 90.4387 -22.8398 89.8752C-23.3146 89.3147 -23.779 88.7391 -24.2118 88.1245L-23.9864 87.8315Z" fill="white"/>
<path d="M-10.3671 100.972C-10.8059 100.972 -11.2372 100.849 -11.6189 100.612L-12.238 100.209C-12.7144 99.8995 -13.2058 99.5795 -13.6851 99.2534C-14.3133 98.8266 -14.9144 98.3953 -15.4704 97.973C-16.6891 97.0549 -17.8462 96.0285 -18.817 95.1449C-19.932 94.126 -20.9884 93.0877 -21.9562 92.0583C-22.5708 91.4001 -23.0291 90.8862 -23.4469 90.3918C-24.0194 89.7155 -24.4688 89.1415 -24.861 88.587C-25.0623 88.3015 -25.0548 87.9183 -24.8429 87.6403L-24.6205 87.3487C-24.4086 87.0707 -24.0405 86.9625 -23.7129 87.0812C-23.0742 87.3126 -22.4025 87.5937 -21.597 87.9693C-20.8472 88.315 -20.1364 88.6831 -19.5999 88.9642C-18.3466 89.6284 -17.0663 90.3722 -15.792 91.1762C-14.683 91.881 -13.3861 92.7255 -12.1764 93.6602C-11.685 94.0359 -11.1756 94.4461 -10.6631 94.8789C-10.579 94.7782 -10.4963 94.6775 -10.4137 94.5754L-6.55467 89.8417L-4.5951 87.4855C-3.69797 86.4005 -2.77379 85.305 -1.87966 84.2471C-1.47242 83.7647 -1.06668 83.2838 -0.660946 82.7999C0.637417 81.2762 1.97635 79.7043 3.33783 78.1475C3.61132 77.8349 4.08017 77.7838 4.41378 78.0303L4.70982 78.2482C5.04493 78.4946 5.13359 78.9575 4.9157 79.3106C3.83223 81.0688 2.72471 82.8135 1.65326 84.4995C1.30913 85.033 0.969515 85.5635 0.629898 86.0939C-0.118464 87.2616 -0.892366 88.4683 -1.66628 89.6479L-3.33281 92.2071L-6.72147 97.2998C-7.24743 98.0963 -7.75535 98.8987 -8.35494 99.8575C-8.69005 100.394 -9.21451 100.768 -9.83063 100.909C-10.0095 100.953 -10.1883 100.972 -10.3671 100.972ZM-22.114 89.4916C-21.7428 89.9274 -21.328 90.3872 -20.7901 90.9643C-19.8509 91.9621 -18.8245 92.9719 -17.7395 93.9622C-16.7973 94.8188 -15.6733 95.8151 -14.5041 96.6972C-13.9677 97.1045 -13.3906 97.5192 -12.7865 97.9295C-12.3192 98.2465 -11.8338 98.5621 -11.3649 98.8672L-10.7668 99.2579C-10.597 99.3646 -10.3911 99.3991 -10.1898 99.3526C-9.98991 99.306 -9.8186 99.1857 -9.71041 99.0114C-9.42188 98.5501 -9.15289 98.1233 -8.89442 97.7161C-8.99961 97.7927 -9.12284 97.8453 -9.25658 97.8648L-11.658 98.2075C-11.9886 98.2541 -12.3131 98.0918 -12.4724 97.7987C-12.6317 97.5057 -12.5942 97.145 -12.3763 96.8926C-12.1373 96.6161 -11.9119 96.3531 -11.694 96.0991C-12.1869 95.6829 -12.6768 95.2877 -13.1502 94.9255C-14.3133 94.0284 -15.5696 93.2079 -16.647 92.5241C-17.8868 91.7427 -19.131 91.0184 -20.3453 90.3752C-20.8261 90.1258 -21.4528 89.8012 -22.114 89.4916ZM-9.45494 95.9278C-9.35727 96.015 -9.25959 96.1006 -9.16341 96.1863L-8.83882 96.4748C-8.62243 96.6657 -8.52776 96.9572 -8.58636 97.2352C-8.40754 96.9587 -8.23172 96.6882 -8.05289 96.4177L-4.66723 91.3295L-3.00371 88.7748C-2.3365 87.7575 -1.66928 86.7191 -1.01709 85.7032C-1.79551 86.6244 -2.59046 87.5696 -3.36287 88.5058L-5.31792 90.8576L-9.17243 95.5867C-9.2671 95.7009 -9.36177 95.8151 -9.45494 95.9278Z" fill="white"/>
<path d="M43.59 92.3332C42.0392 93.7728 39.6153 93.6841 38.1742 92.1333C36.7346 90.5825 36.8232 88.1586 38.374 86.7175C39.9249 85.2778 42.3488 85.3665 43.7899 86.9173C45.231 88.4681 45.1408 90.892 43.59 92.3332Z" fill="#D8E4F1"/>
<path d="M54.089 76.3638C55.5571 74.8396 55.5116 72.4139 53.9875 70.9458C52.4633 69.4777 50.0375 69.5232 48.5694 71.0473C47.1013 72.5715 47.1468 74.9973 48.671 76.4654C50.1952 77.9335 52.6209 77.888 54.089 76.3638Z" fill="#296DB3"/>
<path d="M35.3656 50.387C34.5947 51.1038 33.3895 51.0588 32.6727 50.2879C31.9559 49.517 32.0009 48.3118 32.7718 47.595C33.5427 46.8797 34.7479 46.9232 35.4647 47.6941C36.1815 48.465 36.1365 49.6702 35.3656 50.387Z" fill="#296DB3"/>
<path d="M46.5895 84.3175C45.5661 83.216 44.2888 82.4841 42.9303 82.128C41.7717 81.8259 40.556 81.7959 39.3854 82.0468C38.075 82.3203 36.8262 82.9425 35.7773 83.9162C33.8959 85.6624 33.0934 88.1464 33.3985 90.5147C33.5954 92.0415 34.249 93.5172 35.3746 94.7299C37.3507 96.8578 40.2675 97.6076 42.9018 96.9269C44.095 96.6233 45.2295 96.0237 46.1928 95.1296C49.2809 92.2639 49.4612 87.4101 46.5895 84.3175ZM42.8432 96.422C40.3667 97.0877 37.6092 96.3934 35.7458 94.3873C34.527 93.0754 33.8959 91.4179 33.8448 89.7528C33.7847 87.7602 34.5496 85.7496 36.1214 84.2889C36.9164 83.5511 37.8406 83.0236 38.8174 82.7201C40.1352 82.2993 41.5493 82.2752 42.8762 82.6374C44.116 82.9755 45.2791 83.6518 46.2183 84.6631C48.8992 87.5498 48.7339 92.0821 45.8486 94.7615C44.9665 95.5789 43.9312 96.1319 42.8432 96.422Z" fill="#D8E4F1"/>
<path d="M43.0806 59.0717C42.5261 59.5871 41.6575 59.5555 41.1421 58.9995C40.6267 58.445 40.6582 57.5764 41.2142 57.061C41.7687 56.5456 42.6373 56.5771 43.1527 57.1331C43.6667 57.6891 43.6351 58.5562 43.0806 59.0717Z" fill="#D8E4F1"/>
<path d="M46.0786 54.4143C45.3618 53.6419 44.4661 53.128 43.5134 52.8785C42.7004 52.6667 41.8484 52.6456 41.0279 52.8214C40.1097 53.0138 39.2336 53.4496 38.4973 54.1333C37.1779 55.3581 36.6159 57.0997 36.8292 58.7617C36.9675 59.8317 37.4258 60.8686 38.2148 61.7176C39.6003 63.2098 41.647 63.7358 43.4939 63.2579C44.3309 63.0445 45.1258 62.6253 45.8021 61.9971C47.966 59.9865 48.0922 56.5828 46.0786 54.4143ZM43.4518 62.9033C41.7146 63.3706 39.7806 62.8837 38.4747 61.4772C37.6197 60.556 37.1764 59.3944 37.1418 58.2268C37.0997 56.8292 37.6362 55.4197 38.7392 54.3948C39.2967 53.8764 39.9444 53.5082 40.6297 53.2948C41.5538 53.0003 42.5456 52.9822 43.4758 53.2362C44.3459 53.4736 45.1604 53.947 45.8186 54.6563C47.6985 56.6805 47.5828 59.8587 45.5586 61.7387C44.941 62.3112 44.2137 62.7004 43.4518 62.9033Z" fill="#D8E4F1"/>
<path d="M26.0216 69.1835C26.9803 69.6163 27.4071 70.7463 26.9728 71.7051C26.54 72.6638 25.4114 73.0891 24.4512 72.6563C23.4925 72.2235 23.0657 71.095 23.5 70.1347C23.9343 69.176 25.0628 68.7507 26.0216 69.1835Z" fill="#D8E4F1"/>
<path d="M250.569 117.442C252.58 116.782 254.745 117.876 255.405 119.887C256.064 121.898 254.971 124.063 252.96 124.723C250.949 125.383 248.784 124.289 248.124 122.278C247.464 120.267 248.558 118.102 250.569 117.442Z" fill="#296DB3"/>
<path d="M234.551 127.487C236.562 126.827 238.727 127.921 239.387 129.931C240.047 131.942 238.953 134.108 236.942 134.767C234.932 135.427 232.766 134.333 232.106 132.321C231.445 130.312 232.541 128.146 234.551 127.487Z" fill="#296DB3"/>
<path d="M244.495 123.47C244.964 124.897 245.817 126.097 246.904 126.988C247.83 127.747 248.922 128.282 250.091 128.543C251.395 128.842 252.79 128.799 254.15 128.352C256.589 127.551 258.356 125.631 259.07 123.353C259.53 121.884 259.554 120.269 259.037 118.697C258.131 115.938 255.795 114.037 253.118 113.555C251.906 113.332 250.626 113.402 249.377 113.812C245.371 115.125 243.179 119.461 244.495 123.47ZM252.957 114.039C255.484 114.47 257.701 116.252 258.555 118.853C259.114 120.556 258.995 122.325 258.344 123.858C257.566 125.692 256.031 127.2 253.991 127.87C252.96 128.208 251.9 128.301 250.886 128.169C249.513 127.999 248.219 127.431 247.165 126.547C246.181 125.721 245.407 124.621 244.977 123.311C243.748 119.567 245.793 115.519 249.535 114.291C250.677 113.917 251.848 113.846 252.957 114.039Z" fill="#296DB3"/>
<path d="M237.13 147.869C237.85 147.633 238.624 148.026 238.861 148.744C239.097 149.464 238.705 150.238 237.987 150.475C237.267 150.711 236.493 150.319 236.255 149.601C236.018 148.881 236.41 148.107 237.13 147.869Z" fill="#D8E4F1"/>
<path d="M232.46 150.848C232.789 151.85 233.387 152.69 234.149 153.316C234.798 153.847 235.564 154.223 236.383 154.406C237.298 154.617 238.277 154.587 239.229 154.273C240.94 153.711 242.179 152.364 242.68 150.765C243.001 149.736 243.019 148.603 242.657 147.5C242.022 145.564 240.384 144.231 238.507 143.893C237.658 143.737 236.759 143.785 235.883 144.074C233.074 144.996 231.537 148.036 232.46 150.848ZM238.394 144.235C240.167 144.537 241.721 145.787 242.319 147.611C242.711 148.804 242.627 150.046 242.172 151.122C241.625 152.409 240.549 153.466 239.12 153.935C238.397 154.172 237.653 154.237 236.942 154.144C235.979 154.025 235.071 153.625 234.332 153.006C233.641 152.427 233.098 151.655 232.798 150.735C231.937 148.11 233.37 145.271 235.994 144.41C236.795 144.149 237.615 144.101 238.394 144.235Z" fill="#D8E4F1"/>
<path d="M259.733 145.826C260.433 145.04 260.363 143.836 259.577 143.136C258.79 142.436 257.586 142.506 256.886 143.292C256.187 144.079 256.257 145.283 257.043 145.983C257.829 146.682 259.033 146.612 259.733 145.826Z" fill="#D8E4F1"/>
<path d="M233.408 105.033C244.169 94.2724 244.169 76.8253 233.408 66.0643C222.647 55.3032 205.2 55.3032 194.439 66.0643C183.678 76.8253 183.678 94.2724 194.439 105.033C205.2 115.794 222.647 115.794 233.408 105.033Z" fill="#296DB3"/>
<path d="M230.512 82.7791L229.832 75.5017C229.809 75.2538 229.674 75.0301 229.465 74.8943C229.257 74.7584 228.997 74.7252 228.761 74.8043L223.057 76.7142C222.765 76.8121 222.454 76.8411 222.148 76.7988L207.54 74.7772C207.235 74.7349 206.943 74.6225 206.688 74.4488L201.717 71.0616C201.511 70.9214 201.253 70.8829 201.015 70.9571C200.777 71.0311 200.587 71.2098 200.497 71.442L197.866 78.2613C197.73 78.6145 197.855 79.0151 198.168 79.2284L202.279 82.0324C202.906 82.4603 203.237 83.2066 203.133 83.9589L201.48 95.9077C201.418 96.3538 201.73 96.7655 202.176 96.8272L221.321 99.4768C221.767 99.5385 222.179 99.2269 222.241 98.7808L223.894 86.8328C223.998 86.0805 224.519 85.4521 225.239 85.2107L229.959 83.6281C230.318 83.5077 230.547 83.156 230.512 82.7791ZM216.401 88.4234L209.912 87.5254C209.466 87.4637 209.155 87.052 209.216 86.6059C209.278 86.1598 209.69 85.8482 210.136 85.9099L216.625 86.8079C217.071 86.8696 217.382 87.2813 217.321 87.7274C217.259 88.1736 216.847 88.4851 216.401 88.4234ZM207.79 82.0183C206.518 81.8422 205.739 80.5297 206.194 79.3286L206.742 77.8825C207.072 77.0101 207.962 76.482 208.886 76.6099L220.353 78.1969C221.278 78.3247 221.991 79.0746 222.072 80.004L222.206 81.5446C222.318 82.8241 221.212 83.8757 219.94 83.6997L207.79 82.0183Z" fill="white"/>
<path d="M78.772 38.5504C80.1771 42.1209 80.4897 46.0415 79.9051 49.7052C79.3341 53.3839 77.956 56.8312 76.1227 59.9358C72.4215 66.2969 66.5653 70.4384 63.1241 76.1338C62.2991 77.5599 61.6273 79.0611 61.2291 80.642C61.1224 81.0342 61.0894 81.4414 61.0127 81.8412C60.9391 82.2424 60.873 82.6451 60.8835 83.0554L60.8459 84.2831C60.864 84.6918 60.9241 85.1006 60.9601 85.5108C61.2472 88.8108 62.8671 91.8929 65.0956 94.4085C67.3798 96.8985 70.2185 98.9032 73.287 100.433C76.3466 101.997 79.6316 103.123 82.9947 103.909C79.597 103.282 76.2459 102.311 73.0752 100.876C69.8969 99.4727 66.8959 97.5748 64.3788 95.0817C61.9219 92.5692 59.9894 89.3173 59.4965 85.7077C59.4349 85.2599 59.3507 84.8151 59.3101 84.3643L59.2846 82.9998C59.256 82.5429 59.3041 82.0891 59.3642 81.6368C59.4258 81.1845 59.4469 80.7231 59.5446 80.2783C59.9052 78.481 60.5769 76.7724 61.4079 75.1675C64.9078 68.823 70.5716 64.3644 73.5425 58.4977C75.0843 55.5839 76.1528 52.4312 76.4894 49.2514C76.838 46.0761 76.4037 42.8918 75.1399 40.0712C74.6951 39.0794 75.1384 37.9148 76.1317 37.4699C77.1235 37.0251 78.2881 37.4699 78.733 38.4618C78.745 38.4873 78.7555 38.5128 78.766 38.5384L78.772 38.5504Z" fill="#202020"/>
<path d="M110.131 39.4275C107.084 36.6114 103.104 35.0681 100.269 31.7605C97.3759 28.3854 94.3794 24.594 93.873 20.0407C92.6032 8.61995 103.04 2.37459 113.574 3.42349C124.012 4.46339 132.669 9.51708 135.484 20.0242C137.699 28.2952 138.107 36.7376 143.065 44.1941C145.624 48.0442 149.33 50.9985 152.807 54.1212C153.966 55.1626 155.1 56.222 156.157 57.3401C161.188 62.9648 165.197 69.1711 167.31 76.0145C167.839 77.7246 168.248 79.4753 168.524 81.2681C171.198 94.2592 163.703 107.001 153.96 115.245C146.464 121.241 136.72 121.991 129.226 117.493C116.485 109.249 117.234 93.5093 113.085 81.1358C112.36 78.8352 111.662 76.6051 110.974 74.5118C110.755 72.9204 110.668 71.3395 110.741 69.7872C111.144 61.2983 115.706 53.2616 113.117 44.5894C112.376 42.1084 110.923 40.8806 110.131 39.4275Z" fill="#202020"/>
<path d="M98.6892 84.128V84.1385C98.6742 84.3684 98.6742 84.5683 98.6577 84.7696C98.6577 84.7711 98.6577 84.7712 98.6577 84.7742C98.6006 86.3325 98.5269 87.7601 98.4112 89.0705C98.4112 89.072 98.4112 89.072 98.4112 89.075C97.185 103.651 92.9127 104.834 93.087 106.613C93.5424 111.138 93.7407 115.621 93.9947 120.099C94.0097 120.395 94.0278 120.692 94.0458 120.992C94.2426 124.383 94.4861 127.773 94.9114 131.183C95.4358 135.382 96.0189 139.423 96.384 143.475C96.4577 144.102 96.5148 144.73 96.5433 145.357C96.7913 148.389 96.895 151.45 96.7627 154.63C96.6891 156.279 96.6605 157.942 96.6605 159.604C96.6425 162.205 96.6846 164.807 96.7492 167.408C96.7777 168.67 96.8138 169.93 96.8514 171.19C96.8559 171.353 96.8604 171.516 96.8649 171.677C96.8649 171.954 96.8799 172.23 96.8799 172.507C96.8799 172.508 96.8799 172.508 96.8799 172.511C96.9085 173.341 96.937 174.158 96.9536 174.986V175.001C96.9536 175.201 96.9671 175.399 96.9671 175.599C96.9987 177.087 97.0107 178.575 97.0272 180.076C97.0407 184.305 96.9385 188.547 96.5027 192.791C96.4712 193.054 96.4426 193.33 96.4141 193.595C96.0204 197.4 95.4959 201.745 94.3448 205.827C94.3433 205.833 94.3403 205.842 94.3388 205.849C93.5003 208.817 92.3357 211.641 90.6661 214.014H60.7317C59.7549 212.742 58.9825 211.298 58.4731 209.677C58.3273 209.27 58.2251 208.859 58.1229 208.424C58.0208 207.985 57.9486 207.549 57.875 207.11C56.766 200.854 57.7443 195.051 60.0329 189.567C60.1351 189.306 60.2523 189.043 60.3665 188.781C60.4702 188.547 60.5724 188.329 60.6746 188.095C60.8624 187.687 61.0533 187.294 61.2561 186.883C62.2479 184.829 65.4668 180.253 66.7787 178.286C69.8563 173.649 70.2094 171.034 71.4792 165.596C71.4792 165.582 71.4792 165.567 71.4943 165.552C71.4958 165.543 71.4988 165.533 71.5003 165.524C71.7753 164.324 71.9917 163.109 72.1645 161.878C72.441 159.764 72.5567 157.634 72.4695 155.491C72.4695 155.23 72.148 153.727 71.6821 151.524C71.5965 151.19 72.2637 150.577 72.175 150.211C71.7828 148.424 71.5168 146.275 71.3425 144.046C70.8105 137.328 71.081 129.862 71.0705 129.27C71.6776 129.096 71.0645 128.756 70.7098 128.03C70.6828 127.979 70.6618 127.927 70.6407 127.873C70.4213 127.335 70.3777 126.606 70.9818 125.612C70.9833 125.611 70.9833 125.608 70.9863 125.606C71.1546 125.322 71.329 125.026 71.5093 124.721C71.616 124.539 71.7242 124.356 71.8354 124.165C71.8414 124.152 71.8489 124.138 71.8579 124.125C72.19 123.509 72.5327 122.862 72.9053 122.174C72.9113 122.164 72.9159 122.152 72.9234 122.141C77.5172 113.278 82.9526 99.1794 86.0302 90.8091C86.0317 90.8076 86.0317 90.8076 86.0317 90.8046C87.548 86.7067 88.4962 83.9957 88.4962 83.9957C88.4962 83.9957 92.1133 83.1948 95.1308 81.5012C95.1323 81.5012 95.1323 81.4997 95.1353 81.4997C95.7469 81.1661 96.3299 80.7889 96.8664 80.3666C96.8679 80.3651 96.8724 80.3621 96.8754 80.3606C96.9686 80.281 97.0497 80.2254 97.1414 80.1487C97.1474 80.1442 97.1519 80.1382 97.1594 80.1337C97.4645 79.8722 97.7575 79.5957 98.0055 79.3042C98.007 79.3027 98.01 79.2982 98.0115 79.2952C98.2865 78.9616 98.5314 78.616 98.7193 78.2388C98.7478 80.3666 98.7478 82.3202 98.6892 84.128Z" fill="#9DDCA0"/>
<path d="M113.508 79.2457L111.446 72.6247L111.399 72.4744L111.384 72.3542C111.178 70.7793 111.088 69.1759 111.16 67.5635C111.264 65.9676 111.435 64.3882 111.737 62.8629C112.296 59.7974 113.137 56.8745 113.72 53.9788C114.325 51.089 114.654 48.2068 114.328 45.4057C114.223 44.7114 114.137 44.0111 113.945 43.3364C113.789 42.6301 113.611 42.0215 113.327 41.434C113.052 40.8434 112.699 40.2814 112.28 39.6953C111.865 39.1047 111.368 38.4871 110.924 37.6801L111.18 38.0092C108.633 35.5973 105.013 34.015 102.112 31.0861C101.376 30.3363 100.784 29.5909 100.171 28.8516C99.5608 28.1017 98.9643 27.3323 98.3932 26.5329C97.2496 24.94 96.2278 23.1983 95.514 21.2868C95.1608 20.3311 94.9054 19.3272 94.7581 18.3054C94.6694 17.7884 94.6619 17.2956 94.6289 16.7936C94.6048 16.2932 94.5492 15.7973 94.5913 15.2894C94.5928 13.2802 94.9865 11.2245 95.816 9.33708C96.6395 7.44664 97.9349 5.76057 99.5158 4.46522C101.095 3.16235 102.924 2.23215 104.811 1.5995C108.607 0.349229 112.618 0.149365 116.483 0.637754C120.354 1.12013 124.149 2.26221 127.585 4.14964C129.3 5.09186 130.927 6.22492 132.361 7.59391C132.705 7.95156 133.063 8.29418 133.393 8.66535C133.706 9.05156 134.032 9.43175 134.331 9.82547L135.149 11.0517C135.282 11.2576 135.425 11.4574 135.551 11.6678L135.9 12.314C136.13 12.7468 136.369 13.1736 136.588 13.6109L137.17 14.9528C137.376 15.3961 137.536 15.8544 137.693 16.3128C137.849 16.7711 138.022 17.2264 138.166 17.6878C138.724 19.5376 139.18 21.4085 139.555 23.2794C140.325 27.0167 140.9 30.757 141.995 34.335C142.55 36.1173 143.229 37.8544 144.102 39.4894C144.291 39.9147 144.575 40.2844 144.807 40.6841C145.061 41.0718 145.272 41.482 145.56 41.8532L146.386 42.9848L147.262 44.0833C152.045 49.8718 158.339 54.398 162.96 60.5592C165.251 63.6263 167.142 67 168.442 70.605C169.734 74.2026 170.401 78.0706 170.057 81.898C169.732 85.745 168.149 89.3681 166.025 92.5164C163.891 95.6826 161.241 98.4537 158.402 100.974L158.409 100.966C157.173 102.416 156.088 104.011 155.327 105.764C154.559 107.514 154.131 109.406 154.003 111.314C154.106 109.404 154.508 107.502 155.257 105.734C155.997 103.963 157.067 102.343 158.292 100.867L158.295 100.863L158.3 100.858C161.098 98.3079 163.701 95.5113 165.771 92.3466C167.836 89.1983 169.337 85.6128 169.603 81.8575C169.89 78.1051 169.187 74.3243 167.872 70.8109C166.551 67.29 164.646 63.993 162.357 61.0146C157.756 55.0322 151.438 50.6187 146.449 44.761L145.535 43.646L144.667 42.4904C144.368 42.1132 144.132 41.6804 143.863 41.2777C143.613 40.8614 143.311 40.4722 143.107 40.0319C142.168 38.3293 141.438 36.5275 140.841 34.6957C139.664 31.0215 139.036 27.2406 138.225 23.5604C137.829 21.7151 137.359 19.9013 136.799 18.1236C136.181 16.3744 135.533 14.6267 134.582 13.0548L134.248 12.4522C134.128 12.2569 133.991 12.0736 133.864 11.8827L133.088 10.7511C132.809 10.395 132.51 10.0584 132.224 9.70975C131.919 9.37765 131.586 9.06809 131.269 8.745C129.939 7.50825 128.413 6.47287 126.793 5.6118C123.55 3.88366 119.932 2.84377 116.273 2.43953C112.62 2.02177 108.858 2.28024 105.452 3.45688C103.756 4.05046 102.161 4.898 100.826 6.02956C99.4887 7.15811 98.4338 8.57519 97.7606 10.1726C97.0858 11.7685 96.7597 13.5252 96.7853 15.3089C96.7507 15.7507 96.8123 16.2001 96.8379 16.6479C96.8739 17.0927 96.8845 17.551 96.9671 17.9688C97.1024 18.8223 97.3263 19.6654 97.6419 20.4859C98.279 22.1253 99.2062 23.6807 100.296 25.1518C100.838 25.8897 101.414 26.6125 102.01 27.3278C102.616 28.0416 103.223 28.7734 103.826 29.367C106.304 31.8661 109.871 33.3673 112.926 36.1128L113.069 36.2405L113.183 36.4419C113.771 37.4758 114.973 38.726 115.703 40.2949C116.089 41.0658 116.348 41.9148 116.528 42.6827C116.757 43.4626 116.872 44.2651 117 45.0646C117.418 48.2804 117.071 51.4948 116.48 54.5198C115.906 57.5628 115.113 60.4766 114.627 63.3709C114.36 64.8165 114.229 66.2531 114.152 67.6747C114.109 69.0858 114.205 70.5118 114.411 71.9334L114.349 71.6644L116.51 78.293L113.508 79.2457Z" fill="#202020"/>
<path d="M98.8636 19.3962C88.8208 16.1758 72.417 23.8292 73.8175 35.9848C74.8093 44.5895 82.045 53.0228 79.1191 61.8814C77.1746 67.7691 71.0284 70.8332 67.7044 75.9094C63.895 81.725 63.8995 88.1191 68.5174 93.5064C75.2631 102.5 85.0069 96.5044 90.7864 91.5649C91.8022 90.8947 92.8196 90.2966 93.8474 89.8353C99.5714 87.2701 105.446 82.1819 107.319 76.0312C109.524 68.791 108.042 62.3698 106.407 55.2363C104.697 47.7798 103.378 39.079 98.8636 19.3962Z" fill="#202020"/>
<path d="M50.0443 135L19.0624 128.01L6.8437 132.467L40.7288 154.55C42.6328 155.436 44.6359 155.992 46.6586 156.224C51.5635 156.79 56.5872 155.46 60.6235 152.356C60.6506 152.333 60.6791 152.312 60.7062 152.291L71.8279 143.67L73.4448 142.416C74.9851 138.11 75.8928 133.831 76.5765 129.314C78.4685 116.858 86.8763 104.913 98.6847 76.4735C91.3409 75.8108 80.7045 84.7025 76.3992 89.7442C72.3508 94.4898 68.9186 99.2204 66.2317 104.533C65.0641 106.842 63.7477 109.069 62.1834 111.13L49.7888 129.7C49.1727 130.507 52.0685 134.362 50.0443 135Z" fill="#9DDCA0"/>
<path d="M95.8326 86.2996C98.0581 92.5329 107.919 88.2502 110.753 85.0103C114.515 80.72 114.011 76.9496 114.611 71.5292C114.955 68.4486 115.201 66.0563 115.308 64.2184C115.838 54.7978 112.597 59.8485 99.0544 60.1581C100.688 63.407 101.164 68.1301 100.369 72.0327C100.351 72.1829 100.317 72.3422 100.281 72.491C99.4527 76.1021 94.5883 82.8027 95.8326 86.2996Z" fill="#A37661"/>
<path d="M113.916 77.1523C113.916 77.1523 97.4089 98.12 98.025 77.8511C98.025 77.8511 73.6462 102.177 83.4185 165.214C84.0286 169.151 86.7155 172.481 90.4347 173.745C93.9301 174.934 99.068 175.663 106.265 174.477L113.916 77.1523Z" fill="white"/>
<path d="M100.371 72.0326C108.537 72.8712 113.022 68.1481 115.31 64.2199C115.84 54.7993 112.599 59.85 99.0559 60.1595C100.689 63.4069 101.166 68.13 100.371 72.0326Z" fill="#7F5C4C"/>
<path d="M88.9019 41.3618C88.8974 42.2574 88.9125 43.2026 88.9591 44.1764C88.9019 54.8608 96.8484 68.9865 108.801 64.9096C109.799 64.6632 110.774 64.3266 111.703 63.8998C114.49 62.6194 116.865 60.5201 118.28 57.5597C118.91 56.6115 119.454 55.6017 119.918 54.5603C120.661 52.8998 121.199 51.1611 121.543 49.466C121.976 47.3472 121.958 45.4402 121.242 43.5423C119.732 39.5525 115.08 35.6409 104.891 29.9906C102.066 28.4188 98.817 26.7147 95.0827 24.8438C92.6362 29.4616 90.2709 32.5603 89.3347 37.0985C89.0612 38.3864 88.911 39.7809 88.9019 41.3618Z" fill="#A37661"/>
<path d="M150.221 207.147C148.569 210.395 145.729 212.913 142.595 214.772C131.473 221.365 112.959 221.018 104.476 210.036C102.033 206.871 100.724 202.965 99.9741 199.037C98.1347 189.402 98.7674 180.689 99.6901 171.005C101.241 154.732 98.1302 138.632 99.7141 122.402C101.208 107.1 105.449 92.044 113.016 78.6111C115.634 73.9632 123.943 80.9358 126.834 83.0246C126.862 83.0457 126.89 83.0637 126.918 83.0817C127.101 83.205 127.282 83.3267 127.456 83.4499C133.18 87.4141 133.462 90.8043 133.67 97.4734C133.901 104.91 133.96 112.352 134.241 119.788C134.734 132.845 135.844 146.07 139.84 158.584C141.77 164.625 144.9 170.013 147.184 175.9C149.901 182.899 151.943 190.523 152.065 198.063C152.114 201.185 151.637 204.366 150.221 207.147Z" fill="#9DDCA0"/>
<path d="M143.169 166.844C138.175 165.801 132.785 163.166 128.561 157.287C123.68 150.496 118.374 122.479 126.382 123.127C126.912 125.608 136.923 147.494 137.538 149.957C137.846 151.175 139.625 157.989 140.032 159.171C140.109 159.395 140.413 160.267 140.494 160.489C140.782 161.296 141.083 162.027 141.403 162.823C141.935 164.142 142.586 165.544 143.169 166.844Z" fill="#9DDCA0"/>
<path d="M89.3347 37.097C90.8615 33.7429 92.761 32.2853 94.7912 37.2037C98.7734 46.8618 114.426 52.751 119.917 54.5603C120.659 52.8998 121.197 51.1611 121.541 49.466C121.974 47.3472 121.956 45.4402 121.241 43.5423L109.799 37.883L104.891 29.9906C102.066 28.4188 98.817 26.7147 95.0827 24.8438C92.6378 29.4601 90.271 32.5588 89.3347 37.097Z" fill="#7F5C4C"/>
<path d="M166.623 77.1162C166.984 77.8826 167.242 78.5333 167.51 79.2456C167.773 79.9429 168.015 80.6431 168.234 81.3494C168.685 82.7575 169.058 84.1851 169.361 85.6262C169.967 88.5084 170.326 91.4448 170.323 94.3946C170.34 100.276 168.962 106.232 165.989 111.29C164.52 113.817 162.743 116.147 160.715 118.21C160.214 118.731 159.661 119.2 159.138 119.696L158.343 120.43L157.499 121.103L155.808 122.439L154.027 123.645C149.256 126.828 143.991 129.112 138.603 130.863C143.881 128.806 148.977 126.226 153.461 122.841L155.13 121.564L156.698 120.171L157.478 119.474L158.204 118.721C158.68 118.213 159.185 117.734 159.636 117.206C161.466 115.114 163.017 112.808 164.257 110.361C166.765 105.461 167.699 99.9097 167.375 94.4833C167.22 91.7634 166.729 89.066 166.016 86.4377C165.66 85.1243 165.239 83.8259 164.751 82.5606C164.512 81.9265 164.255 81.2983 163.982 80.6852C163.717 80.0841 163.409 79.4349 163.134 78.9345L166.623 77.1162Z" fill="#333333"/>
<path d="M129.578 53.5264C132.798 56.1381 135.569 59.3239 137.772 62.8884C139.962 66.4544 141.498 70.5148 141.89 74.7931C142.263 79.0638 141.441 83.4638 139.637 87.3784C137.852 91.3126 135.288 94.8365 132.363 97.9442C131.767 98.5783 130.771 98.6114 130.137 98.0163C129.503 97.4212 129.47 96.4249 130.065 95.7907C130.087 95.7682 130.114 95.7396 130.138 95.7171C133.069 92.9746 135.643 89.8564 137.514 86.3461C139.4 82.8507 140.408 78.891 140.319 74.8832C140.207 70.8739 139.006 66.8902 137.089 63.2761C135.162 59.6665 132.624 56.3335 129.578 53.5264Z" fill="#333333"/>
<path d="M147.014 61.5493C148.897 63.4217 150.576 65.512 152.029 67.7586C152.755 68.8827 153.425 70.0443 154.036 71.2389C154.633 72.4216 155.246 73.6268 155.76 74.8801C156.764 77.3926 157.461 80.0359 157.846 82.7348C158.207 85.4368 158.261 88.1883 158.001 90.9232C157.717 93.6552 157.131 96.3707 156.217 98.9929C155.282 101.605 154.044 104.134 152.463 106.463C150.87 108.78 148.977 110.929 146.774 112.747C144.572 114.563 142.096 116.076 139.452 117.214C138.253 117.729 136.865 117.176 136.348 115.978C135.832 114.779 136.385 113.391 137.583 112.874C137.636 112.851 137.687 112.832 137.739 112.812L137.748 112.809C140.047 112.014 142.237 110.895 144.245 109.479C146.251 108.062 148.039 106.317 149.602 104.374C151.154 102.419 152.438 100.231 153.467 97.9155C154.477 95.5907 155.206 93.1293 155.659 90.6077C156.089 88.0816 156.233 85.4954 156.082 82.9137C155.906 80.335 155.431 77.7668 154.648 75.2828C154.244 74.0445 153.742 72.8408 153.231 71.6116C152.722 70.4019 152.15 69.2148 151.519 68.0592C150.26 65.748 148.753 63.5555 147.014 61.5493Z" fill="#202020"/>
<path d="M128.284 68.5355C132.006 62.0211 126.078 51.7454 120.528 47.8639C117.863 45.999 114.668 44.8749 111.795 43.3391C108.697 41.6831 105.675 39.8528 102.963 37.6107C97.1504 32.805 89.2476 21.1317 96.4997 14.2297C103.107 7.94075 115.138 17.2306 120.027 21.7824C124.409 25.8624 128.287 30.9416 130.604 36.4581C133.03 42.2331 132.072 47.4972 128.284 68.5355Z" fill="#202020"/>
<path d="M110.311 8.38889C106.177 9.2214 101.839 11.6273 100.19 15.62C99.34 17.5886 99.1852 19.8412 99.4917 22.0472C99.636 23.1593 99.9125 24.2382 100.269 25.2931C100.658 26.3345 101.161 27.3323 101.776 28.2655C103.028 30.1199 104.718 31.6828 106.61 32.9721C108.495 34.2795 110.552 35.3569 112.617 36.4269C114.68 37.5013 116.779 38.5427 118.724 39.8546C120.658 41.153 122.461 42.7669 123.555 44.8407C122.372 42.815 120.527 41.3063 118.564 40.1026C116.59 38.8899 114.465 37.9431 112.358 36.9574C110.248 35.9746 108.123 34.9767 106.123 33.7114C104.12 32.4657 102.252 30.8968 100.811 28.9448C100.102 27.962 99.5053 26.8966 99.0319 25.774C98.5931 24.6425 98.2415 23.4703 98.0356 22.2787C97.8327 21.084 97.7155 19.8608 97.7861 18.6225C97.8613 17.3873 98.1032 16.146 98.5465 14.9664C99.4211 12.592 101.122 10.5679 103.139 9.12523C104.144 8.39039 105.225 7.78028 106.349 7.27386C107.489 6.76744 108.598 6.3587 109.894 6.06566C110.529 5.9214 111.162 6.31962 111.306 6.95678C111.45 7.59244 111.051 8.22509 110.415 8.36935C110.408 8.37086 110.4 8.37236 110.393 8.37386L110.311 8.38889Z" fill="#202020"/>
<path d="M95.4599 24.4709C95.4358 24.5025 95.3412 24.7399 95.2871 24.9037C95.2315 25.09 95.1728 25.2824 95.1293 25.4807C95.0391 25.8805 94.9955 26.2997 94.9579 26.722C94.9309 27.574 95.0015 28.4501 95.2029 29.3187C95.5846 31.0619 96.4276 32.754 97.5021 34.3063C97.998 35.1118 98.6637 35.8135 99.2543 36.5694C99.9335 37.2547 100.568 37.9895 101.299 38.6357C102.735 39.9475 104.269 41.2053 105.883 42.3324C107.474 43.4985 109.183 44.4918 110.923 45.4325C112.671 46.3627 114.502 47.1471 116.336 47.9736C118.159 48.8032 120.036 49.6853 121.564 51.0573C123.092 52.4277 124.143 54.2085 124.901 56.0569C124.024 54.2581 122.867 52.578 121.311 51.3593C119.756 50.1376 117.897 49.4058 116.035 48.7025C114.166 48.0022 112.259 47.3305 110.409 46.4965C108.567 45.6519 106.736 44.7413 105.017 43.6473C103.273 42.5909 101.617 41.4082 100.007 40.1189C99.1942 39.4892 98.4593 38.7499 97.6854 38.0601C96.9851 37.2847 96.2202 36.5694 95.5996 35.7053C94.2922 34.0523 93.1652 32.1649 92.5385 30.022C92.217 28.9551 92.0397 27.8295 92.0066 26.6784C92.0141 26.0999 92.0366 25.5183 92.1283 24.9322C92.1719 24.6392 92.238 24.3447 92.3071 24.0471C92.3973 23.7316 92.4544 23.4896 92.6407 23.0658L92.7279 22.869C93.084 22.065 94.0263 21.7014 94.8302 22.059C95.6342 22.4152 95.9978 23.3574 95.6402 24.1613C95.5951 24.2695 95.529 24.3777 95.4599 24.4709Z" fill="#202020"/>
<path d="M71.8279 143.671L60.7062 152.292C60.6791 152.313 60.6506 152.334 60.6235 152.357C56.5872 155.461 51.5636 156.791 46.6586 156.225C55.3745 154.51 69.2627 137.535 71.8354 123.127C70.5912 130.25 70.5476 137.107 71.8279 143.671Z" fill="#9DDCA0"/>
<path d="M98.6862 53.3882H110.137C110.137 53.3882 108.866 60.1745 104.132 59.8019C99.4 59.4292 98.6862 53.3882 98.6862 53.3882Z" fill="white"/>
<path d="M126.272 136.358C125.491 133.632 124.858 130.856 124.107 128.222C122.637 125.284 122.139 121.32 121.236 118.152C120.232 114.628 119.227 111.104 118.223 107.579C116.422 101.26 116.076 94.6371 118.833 88.503C119.917 86.0926 122.075 84.8528 119.43 82.9323C118.162 82.0112 114.775 80.7038 111.105 79.0117C115.699 81.0013 121.199 80.7053 126.132 81.4056C132.468 82.3057 136.369 87.7982 138.59 92.5889C142.807 101.685 145.059 106.104 147.931 115.632L152.316 127.601L187.998 121.538L194.08 129.637C188.019 134.41 183.146 137.415 176.351 141.33C169.27 145.41 161.502 149.818 153.638 152.174C146.019 154.458 137.478 154.205 131.889 147.859C129.023 144.609 127.473 140.543 126.272 136.358Z" fill="#9DDCA0"/>
<path d="M126.382 82.6601C122.659 83.8292 119.34 86.2802 117.311 89.5216C116.267 91.1235 115.574 92.9283 115.17 94.7857C114.764 96.6461 114.656 98.5681 114.761 100.477C114.881 102.386 115.173 104.29 115.664 106.152C115.759 106.626 115.908 107.074 116.028 107.533L116.21 108.22C116.24 108.33 116.27 108.459 116.3 108.552L116.414 108.866C116.749 109.772 117.084 110.688 117.436 111.595C117.774 112.507 118.13 113.414 118.503 114.311C118.856 115.218 119.259 116.1 119.648 116.992C120.456 118.759 121.314 120.493 122.523 122.042L122.392 122.188C121.565 121.609 120.844 120.876 120.196 120.104C119.87 119.716 119.579 119.307 119.272 118.905C118.988 118.491 118.7 118.075 118.435 117.65C117.358 115.952 116.449 114.163 115.624 112.345C115.219 111.431 114.839 110.509 114.495 109.565L114.36 109.183C114.318 109.041 114.297 108.929 114.264 108.802L114.083 108.055C113.972 107.556 113.841 107.057 113.766 106.56L113.521 105.064L113.35 103.556C113.279 103.055 113.269 102.546 113.236 102.041L113.192 101.283L113.194 100.522C113.183 98.4944 113.4 96.4507 113.933 94.4821C114.465 92.5165 115.306 90.6201 116.501 88.9716C117.087 88.1406 117.768 87.3817 118.501 86.6874C119.232 85.9887 120.027 85.3635 120.868 84.818C122.55 83.7256 124.392 82.8945 126.344 82.4678L126.382 82.6601Z" fill="#9DDCA0"/>
<path d="M81.5641 92.5178C78.3077 99.1523 75.9003 106.124 74.1376 113.216L73.5425 115.893L73.2405 117.229L73 118.577L72.4981 121.27L72.1194 123.982L71.9226 125.339C71.855 125.791 71.8354 126.248 71.7904 126.702L71.5529 129.434L71.4973 130.118L71.4823 130.803L71.4522 132.173C71.4372 133.087 71.4011 134.002 71.4026 134.917L71.5304 137.658C71.5785 138.575 71.5995 139.481 71.6792 140.41C71.8084 142.26 71.9692 144.104 72.0623 145.956C72.3013 149.655 72.4185 153.368 72.3959 157.083C72.3434 160.794 72.1119 164.529 71.3455 168.186C70.9323 170.006 70.3733 171.798 69.6144 173.5C68.857 175.204 67.9148 176.809 66.9515 178.387L66.7817 178.288C67.6819 176.674 68.5535 175.043 69.2312 173.338C69.9194 171.637 70.4078 169.865 70.752 168.066C71.3831 164.452 71.4868 160.761 71.4147 157.084C71.341 153.404 71.1261 149.722 70.791 146.048C70.6498 144.21 70.4409 142.375 70.2636 140.539C70.0847 138.7 69.9796 136.82 69.8353 134.961C69.5543 127.497 70.2696 119.95 72.2397 112.725C73.266 109.127 74.4983 105.593 76.01 102.182C76.7644 100.476 77.5834 98.8007 78.473 97.1642L79.1507 95.944L79.866 94.7448C80.3499 93.9499 80.8578 93.17 81.4003 92.4126L81.5641 92.5178Z" fill="#9DDCA0"/>
<path d="M53.7395 136.599C52.103 131.684 49.2584 131.314 48.489 130.956C48.9368 130.555 49.368 130.134 49.7888 129.702C55.0258 133.308 53.7395 136.599 53.7395 136.599Z" fill="#9DDCA0"/>
<path d="M18.2735 128.275L14.2988 137.325L8.51474 133.554L18.2735 128.275Z" fill="#9DDCA0"/>
<path d="M45.4008 134.604C45.4008 134.604 45.3272 134.225 45.2776 133.678C45.1033 131.811 45.1754 127.983 49.2629 130.572C49.2629 130.572 49.2644 130.572 49.2674 130.573C49.3004 130.593 49.3335 130.615 49.3665 130.638C49.867 130.961 50.4245 131.382 51.0496 131.909C58.4115 138.139 48.6903 143.244 45.4008 134.604Z" fill="#9DDCA0"/>
<path d="M148.017 131.413C149.038 126.334 151.815 125.618 152.537 125.169C152.044 124.826 151.564 124.461 151.093 124.083C146.338 128.304 148.017 131.413 148.017 131.413Z" fill="#9DDCA0"/>
<path d="M156.05 128.41C156.05 128.41 156.076 128.026 156.059 127.477C156.003 125.603 155.462 121.812 151.724 124.884C151.724 124.884 151.722 124.884 151.719 124.887C151.689 124.911 151.659 124.936 151.628 124.963C151.171 125.345 150.669 125.832 150.114 126.43C143.57 133.514 153.844 137.388 156.05 128.41Z" fill="#9DDCA0"/>
<path d="M185.959 124.613L189.615 133.005L195.387 128.657L185.959 124.613Z" fill="#9DDCA0"/>
<path d="M192.153 119.4L199.374 120.98L204.482 119.938L206.136 119.6L208.485 119.121L216.601 117.576L217.123 117.475L218.326 117.247C219.233 117.074 220.095 116.709 220.851 116.172L225.654 112.782C226.494 112.189 227.078 111.299 227.29 110.289L227.463 109.473C222.998 110.309 218.451 110.477 213.844 110.133L213.034 109.554C212.138 108.916 211.065 108.578 209.968 108.587L200.97 108.671C199.61 108.683 198.322 109.3 197.452 110.355L195.132 113.171C194.911 113.439 194.714 113.724 194.54 114.028L192.153 119.4Z" fill="#A37661"/>
<path d="M200.806 119.771C200.442 119.602 200.04 119.495 199.647 119.405C195.435 118.431 187.329 116.617 185.039 121.824C183.942 124.316 186.097 126.145 188.081 127.234C189.229 127.865 190.467 128.385 191.705 128.81C193.73 129.505 195.751 130.312 197.688 128.956C199.804 127.474 201.941 124.768 202.094 122.087C202.128 121.467 201.99 120.813 201.586 120.341C201.371 120.092 201.102 119.911 200.806 119.771Z" fill="#9DDCA0"/>
<path d="M202.396 116.853L204.483 119.937L206.138 119.599L208.487 119.119L216.603 117.573L214.926 114.713L202.396 116.853Z" fill="#7F5C4C"/>
<path d="M10.312 124.789L3.04178 126.116L-2.02695 124.897L-3.66943 124.502L-6.00017 123.94L-14.0578 122.114L-14.5763 121.995L-15.7709 121.725C-16.6711 121.52 -17.5201 121.125 -18.258 120.563L-22.9405 117.008C-23.7595 116.386 -24.3125 115.476 -24.4898 114.459L-24.6341 113.637C-20.2115 114.72 -15.7108 115.281 -11.0448 114.769L-10.2153 114.219C-9.29717 113.611 -8.21369 113.311 -7.1182 113.359L1.87115 113.756C3.22962 113.814 4.49492 114.477 5.32894 115.561L7.54998 118.455C7.76036 118.73 7.9482 119.023 8.112 119.331L10.312 124.789Z" fill="#A37661"/>
<path d="M0.650932 125.594C2.2273 124.568 4.49342 124.55 6.25913 124.288C8.4411 123.965 10.6561 123.952 12.8291 124.358C14.5272 124.675 18.26 125.15 18.8535 127.144C19.4546 129.165 16.8188 131.021 15.3612 131.913C13.4347 133.091 11.143 133.679 8.88741 133.533C5.48973 133.314 3.0523 131.413 0.706532 129.154C0.270739 128.735 -0.144011 128.262 -0.322837 127.685C-0.612864 126.75 -0.0929214 126.078 0.650932 125.594Z" fill="#9DDCA0"/>
<path d="M0.164058 121.889L-2.02843 124.899L-3.67092 124.503L-6.00166 123.941L-14.0593 122.116L-12.2846 119.316L0.164058 121.889Z" fill="#7F5C4C"/>
</svg>
