<svg width="754" height="624" viewBox="0 0 754 624" fill="none" xmlns="http://www.w3.org/2000/svg">
<circle cx="105" cy="523" r="15" fill="#9DDCA0"/>
<g filter="url(#filter0_d)">
<rect x="25.4102" y="30" width="739" height="493.07" rx="10" fill="white"/>
</g>
<rect x="67" y="111" width="186" height="109" rx="5" fill="#F4F7FB"/>
<circle cx="109" cy="150" r="22" fill="white"/>
<rect x="273" y="111" width="186" height="109" rx="5" fill="#F4F7FB"/>
<rect x="479" y="111" width="186" height="109" rx="5" fill="#F4F7FB"/>
<rect x="685" y="111" width="186" height="109" rx="5" fill="#F4F7FB"/>
<rect x="67" y="238" width="186" height="109" rx="5" fill="#F4F7FB"/>
<rect x="273" y="238" width="186" height="109" rx="5" fill="#F4F7FB"/>
<rect x="479" y="238" width="186" height="109" rx="5" fill="#F4F7FB"/>
<rect x="685" y="238" width="186" height="109" rx="5" fill="#F4F7FB"/>
<rect x="67" y="365" width="186" height="109" rx="5" fill="#F4F7FB"/>
<rect x="273" y="365" width="186" height="109" rx="5" fill="#F4F7FB"/>
<rect x="479" y="365" width="186" height="109" rx="5" fill="#F4F7FB"/>
<rect x="685" y="365" width="186" height="109" rx="5" fill="#F4F7FB"/>
<path d="M758.515 565.1C759.005 564.979 759.545 564.435 759.815 563.745C760.72 561.441 761.589 559.086 762.397 556.753C762.681 555.938 762.453 555.283 761.893 555.29C761.338 555.287 760.649 555.955 760.372 556.765C759.587 559.036 758.741 561.323 757.862 563.56C757.544 564.374 757.724 565.067 758.263 565.122C758.339 565.127 758.427 565.123 758.515 565.1ZM763.293 551.309C763.839 551.176 764.431 550.516 764.657 549.761C765.348 547.464 766.005 545.121 766.599 542.808C766.809 542.001 766.494 541.435 765.904 541.546C765.303 541.66 764.665 542.389 764.459 543.197C763.876 545.452 763.239 547.732 762.568 549.967C762.324 550.779 762.592 551.388 763.171 551.33C763.211 551.327 763.248 551.323 763.293 551.309ZM766.813 537.643C767.429 537.483 768.057 536.709 768.228 535.911C768.714 533.646 769.154 531.353 769.541 529.102C769.676 528.315 769.293 527.831 768.675 528.046C768.062 528.249 767.457 529.052 767.322 529.84C766.944 532.037 766.514 534.272 766.042 536.479C765.874 537.272 766.218 537.789 766.813 537.643ZM769.102 524.29C769.151 524.277 769.196 524.263 769.247 524.244C769.866 523.993 770.447 523.166 770.544 522.394C770.823 520.192 771.058 517.974 771.238 515.811C771.3 515.056 770.849 514.673 770.221 514.971C769.599 515.264 769.043 516.115 768.978 516.875C768.803 518.985 768.576 521.149 768.302 523.297C768.212 524.009 768.563 524.425 769.102 524.29ZM770.166 511.43C770.254 511.407 770.344 511.372 770.441 511.321C771.066 510.986 771.598 510.111 771.622 509.372C771.698 507.259 771.722 505.146 771.694 503.1C771.687 502.378 771.169 502.109 770.541 502.486C769.916 502.863 769.414 503.757 769.424 504.473C769.451 506.47 769.425 508.533 769.354 510.593C769.329 511.222 769.676 511.551 770.166 511.43ZM770.002 499.226C770.129 499.194 770.265 499.133 770.406 499.036C771.03 498.616 771.5 497.715 771.456 497.015C771.324 495.026 771.14 493.049 770.903 491.139C770.82 490.473 770.253 490.296 769.629 490.76C769.007 491.217 768.571 492.138 768.654 492.804C768.884 494.669 769.063 496.596 769.194 498.536C769.228 499.075 769.56 499.334 770.002 499.226ZM768.593 487.852C768.763 487.811 768.945 487.718 769.131 487.564C769.749 487.063 770.147 486.14 770.027 485.496C769.682 483.653 769.281 481.847 768.831 480.116C768.672 479.506 768.051 479.451 767.449 479.986C766.841 480.526 766.48 481.452 766.635 482.061C767.071 483.747 767.464 485.508 767.801 487.3C767.884 487.758 768.198 487.952 768.593 487.852ZM709.879 501.437C710.19 501.36 710.499 501.278 710.816 501.178C711.85 500.869 712.894 500.476 713.916 500.011C714.537 499.73 715.104 498.882 715.172 498.122C715.246 497.357 714.795 496.975 714.175 497.256C713.247 497.675 712.296 498.033 711.356 498.315C710.646 498.527 709.952 498.688 709.272 498.796C708.687 498.878 708.031 499.621 707.814 500.426C707.596 501.232 707.897 501.813 708.483 501.719C708.944 501.646 709.411 501.551 709.879 501.437ZM703.852 501.631C704.31 501.521 704.824 501.026 705.109 500.382C705.465 499.578 705.336 498.834 704.821 498.724C703.435 498.429 702.169 497.874 701.062 497.062C700.648 496.761 699.933 497.124 699.462 497.879C698.992 498.633 698.943 499.489 699.356 499.79C700.587 500.691 701.99 501.313 703.53 501.637C703.63 501.666 703.741 501.66 703.852 501.631ZM719.032 496.919C719.179 496.885 719.34 496.806 719.503 496.684C721.342 495.317 723.159 493.695 724.906 491.849C725.488 491.236 725.763 490.31 725.529 489.774C725.291 489.244 724.628 489.308 724.049 489.922C722.482 491.576 720.85 493.039 719.198 494.265C718.574 494.728 718.14 495.643 718.223 496.309C718.291 496.8 718.617 497.021 719.032 496.919ZM696.92 496.534C697.187 496.467 697.479 496.276 697.75 495.959C698.312 495.305 698.537 494.385 698.256 493.9C697.497 492.599 696.953 491.078 696.632 489.388C696.51 488.75 695.916 488.634 695.301 489.136C694.687 489.638 694.285 490.56 694.408 491.199C694.766 493.099 695.378 494.806 696.229 496.269C696.373 496.521 696.628 496.603 696.92 496.534ZM728.808 486.645C729.131 486.566 729.492 486.299 729.787 485.884C731.259 483.818 732.661 481.577 733.96 479.227C734.392 478.445 734.369 477.628 733.916 477.398C733.462 477.167 732.74 477.614 732.311 478.39C731.114 480.555 729.825 482.614 728.478 484.507C727.964 485.228 727.846 486.116 728.205 486.497C728.358 486.66 728.572 486.702 728.808 486.645ZM765.908 477.52C766.123 477.464 766.356 477.328 766.586 477.111C767.181 476.538 767.503 475.603 767.309 475.028C766.744 473.38 766.121 471.774 765.452 470.255C765.217 469.72 764.554 469.784 763.975 470.398C763.392 471.011 763.111 471.942 763.348 472.472C763.998 473.95 764.606 475.51 765.153 477.111C765.273 477.468 765.568 477.601 765.908 477.52ZM694.917 485.783C694.992 485.763 695.066 485.737 695.145 485.7C695.768 485.395 696.316 484.537 696.372 483.78C696.482 482.162 696.717 480.543 697.068 478.962C697.178 478.474 697.296 477.994 697.424 477.516C697.642 476.711 697.345 476.131 696.757 476.218C696.173 476.305 695.518 477.036 695.295 477.847C695.15 478.388 695.013 478.937 694.887 479.494C694.491 481.273 694.23 483.088 694.102 484.891C694.065 485.547 694.413 485.907 694.917 485.783ZM761.916 468.461C762.178 468.398 762.47 468.208 762.735 467.901C763.298 467.253 763.533 466.33 763.259 465.84C762.467 464.428 761.616 463.07 760.725 461.812C760.41 461.368 759.717 461.56 759.173 462.243C758.629 462.925 758.443 463.836 758.758 464.279C759.623 465.501 760.45 466.817 761.218 468.187C761.362 468.446 761.621 468.529 761.916 468.461ZM736.105 473.504C736.573 473.389 737.092 472.884 737.373 472.221C738.372 469.889 739.265 467.49 740.029 465.099C740.289 464.285 740.036 463.66 739.464 463.695C738.897 463.726 738.222 464.416 737.962 465.23C737.247 467.468 736.413 469.709 735.478 471.89C735.132 472.697 735.276 473.426 735.798 473.52C735.896 473.536 736.001 473.529 736.105 473.504ZM756.587 460.944C756.901 460.868 757.256 460.606 757.55 460.203C758.068 459.49 758.199 458.598 757.849 458.207C756.832 457.08 755.753 456.024 754.636 455.069C754.244 454.736 753.529 455.063 753.042 455.802C752.552 456.539 752.475 457.413 752.864 457.752C753.946 458.674 754.993 459.698 755.976 460.787C756.123 460.955 756.342 461.004 756.587 460.944ZM698.667 472.279C699.092 472.173 699.569 471.744 699.866 471.152C700.895 469.107 702.147 467.113 703.585 465.235C704.12 464.537 704.28 463.633 703.949 463.217C703.617 462.794 702.916 463.02 702.388 463.712C700.74 465.867 699.3 468.16 698.117 470.512C697.717 471.307 697.786 472.091 698.271 472.268C698.391 472.314 698.527 472.314 698.667 472.279ZM740.495 459.771C741.114 459.606 741.742 458.832 741.912 458.035C742.411 455.681 742.768 453.375 742.972 451.174C742.981 451.103 742.98 451.036 742.976 450.974C743.088 450.828 743.19 450.662 743.273 450.485C743.655 449.686 743.559 448.92 743.061 448.771C741.634 448.35 740.14 448.019 738.623 447.792C738.095 447.709 737.394 448.301 737.055 449.11C736.716 449.918 736.872 450.637 737.399 450.72C738.596 450.899 739.777 451.148 740.923 451.456C740.81 451.699 740.731 451.962 740.711 452.207C740.519 454.258 740.188 456.411 739.719 458.613C739.556 459.4 739.9 459.918 740.495 459.771ZM749.935 455.264C750.312 455.172 750.731 454.827 751.038 454.317C751.493 453.553 751.517 452.71 751.087 452.435C749.854 451.644 748.556 450.935 747.228 450.33C746.764 450.115 746.045 450.581 745.623 451.365C745.202 452.148 745.24 452.957 745.704 453.172C746.986 453.761 748.241 454.441 749.432 455.205C749.573 455.292 749.749 455.307 749.935 455.264ZM707.514 460.58C707.719 460.529 707.943 460.402 708.158 460.2C709.72 458.74 711.4 457.399 713.149 456.207C713.776 455.781 714.241 454.873 714.188 454.183C714.136 453.494 713.589 453.272 712.965 453.699C711.054 455.001 709.219 456.472 707.507 458.069C706.905 458.629 706.566 459.56 706.745 460.149C706.864 460.518 707.16 460.665 707.514 460.58ZM733.102 450.304C733.609 450.18 734.168 449.593 734.425 448.881C734.719 448.069 734.506 447.398 733.95 447.388C732.362 447.353 730.721 447.409 729.066 447.56C728.493 447.613 727.822 448.31 727.575 449.121C727.328 449.932 727.593 450.548 728.17 450.495C729.769 450.35 731.355 450.293 732.885 450.328C732.957 450.332 733.027 450.323 733.102 450.304ZM718.055 453.33C718.124 453.315 718.194 453.288 718.27 453.25C719.967 452.443 721.669 451.797 723.319 451.339C723.924 451.171 724.546 450.39 724.708 449.596C724.869 448.802 724.537 448.276 723.904 448.462C722.131 448.953 720.307 449.645 718.481 450.514C717.856 450.813 717.303 451.664 717.244 452.42C717.195 453.087 717.545 453.453 718.055 453.33ZM741.874 446.799C741.966 446.777 742.065 446.739 742.164 446.682C742.791 446.335 743.313 445.458 743.331 444.723C743.383 442.61 743.363 440.518 743.279 438.509C743.248 437.806 742.717 437.558 742.089 437.959C741.465 438.361 740.981 439.259 741.01 439.968C741.093 441.91 741.111 443.934 741.062 445.981C741.045 446.6 741.388 446.921 741.874 446.799ZM741.356 434.839C741.499 434.804 741.66 434.724 741.821 434.608C742.443 434.15 742.883 433.237 742.803 432.565C742.576 430.64 742.276 428.74 741.908 426.93C741.78 426.296 741.181 426.191 740.567 426.7C739.954 427.208 739.559 428.132 739.688 428.766C740.042 430.519 740.332 432.355 740.552 434.217C740.611 434.719 740.94 434.94 741.356 434.839ZM739.193 424.087C739.395 424.036 739.613 423.914 739.832 423.713C740.434 423.159 740.78 422.224 740.604 421.635C740.103 419.94 739.526 418.284 738.891 416.706C738.668 416.161 738.011 416.201 737.429 416.796C736.841 417.396 736.545 418.324 736.766 418.875C737.382 420.4 737.94 422.003 738.422 423.645C738.536 424.024 738.834 424.177 739.193 424.087ZM735.445 414.779C735.7 414.714 735.983 414.534 736.248 414.24C736.819 413.6 737.061 412.678 736.801 412.173C736.051 410.746 735.229 409.358 734.353 408.049C734.05 407.595 733.357 407.768 732.811 408.439C732.263 409.114 732.064 410.028 732.367 410.481C733.213 411.753 734.011 413.099 734.74 414.485C734.881 414.761 735.144 414.851 735.445 414.779ZM730.304 407.042C730.611 406.964 730.953 406.724 731.243 406.338C731.77 405.639 731.923 404.734 731.58 404.326C730.62 403.169 729.588 402.051 728.516 401.003C728.143 400.637 727.433 400.935 726.93 401.657C726.425 402.385 726.322 403.266 726.692 403.63C727.738 404.648 728.739 405.741 729.67 406.868C729.83 407.05 730.056 407.101 730.304 407.042ZM723.999 400.86C724.352 400.775 724.746 400.461 725.049 399.993C725.532 399.247 725.593 398.382 725.192 398.059C724.056 397.155 722.859 396.292 721.628 395.495C721.201 395.215 720.481 395.614 720.022 396.377C719.566 397.141 719.543 397.985 719.97 398.264C721.17 399.042 722.343 399.881 723.449 400.766C723.598 400.886 723.793 400.911 723.999 400.86ZM716.739 396.154C717.132 396.06 717.579 395.679 717.881 395.136C718.314 394.361 718.301 393.54 717.846 393.303C716.573 392.637 715.238 392.011 713.879 391.448C713.407 391.249 712.69 391.728 712.277 392.52C711.866 393.306 711.917 394.105 712.392 394.304C713.722 394.861 715.03 395.469 716.275 396.122C716.411 396.184 716.573 396.196 716.739 396.154ZM613.897 417.203C614.044 417.169 614.201 417.088 614.362 416.972C616.1 415.692 617.863 414.443 619.602 413.255C620.226 412.828 620.691 411.92 620.639 411.23C620.586 410.541 620.04 410.326 619.413 410.752C617.64 411.962 615.841 413.241 614.069 414.543C613.448 415.001 613.01 415.915 613.087 416.586C613.149 417.082 613.478 417.303 613.897 417.203ZM708.717 392.802C709.149 392.698 709.634 392.252 709.931 391.642C710.319 390.844 710.235 390.068 709.743 389.908C708.354 389.454 706.909 389.048 705.452 388.694C704.943 388.572 704.234 389.12 703.87 389.923C703.506 390.726 703.62 391.478 704.13 391.6C705.559 391.947 706.975 392.347 708.341 392.79C708.454 392.834 708.583 392.833 708.717 392.802ZM624.5 409.954C624.618 409.926 624.738 409.874 624.864 409.793C626.608 408.691 628.382 407.615 630.136 406.595C630.763 406.23 631.276 405.345 631.279 404.619C631.281 403.893 630.777 403.602 630.149 403.961C628.361 404.997 626.553 406.096 624.776 407.221C624.151 407.617 623.663 408.514 623.688 409.221C623.707 409.787 624.045 410.065 624.5 409.954ZM700.081 390.69C700.549 390.576 701.07 390.065 701.351 389.402C701.694 388.595 701.55 387.866 701.025 387.778C699.541 387.528 698.012 387.317 696.472 387.158C695.932 387.103 695.238 387.715 694.916 388.527C694.595 389.34 694.772 390.039 695.311 390.094C696.824 390.253 698.328 390.459 699.787 390.703C699.875 390.723 699.976 390.715 700.081 390.69ZM635.14 403.777C635.225 403.753 635.312 403.724 635.405 403.672C637.151 402.748 638.919 401.86 640.663 401.027C641.287 400.729 641.84 399.877 641.899 399.121C641.958 398.365 641.504 397.988 640.877 398.292C639.099 399.141 637.296 400.046 635.516 400.987C634.89 401.315 634.354 402.189 634.326 402.928C634.302 403.563 634.65 403.898 635.14 403.777ZM690.943 389.741C691.446 389.617 692 389.04 692.262 388.336C692.559 387.524 692.358 386.844 691.807 386.823C690.248 386.758 688.642 386.736 687.04 386.759C686.477 386.766 685.797 387.43 685.521 388.247C685.243 389.057 685.471 389.713 686.034 389.706C687.613 389.684 689.191 389.705 690.725 389.765C690.79 389.768 690.864 389.76 690.943 389.741ZM645.733 398.73C645.785 398.718 645.84 398.7 645.897 398.676C647.624 397.943 649.376 397.247 651.1 396.605C651.716 396.378 652.309 395.559 652.421 394.779C652.537 393.999 652.126 393.552 651.512 393.786C649.749 394.443 647.968 395.152 646.207 395.901C645.587 396.164 645.015 396.999 644.925 397.772C644.855 398.459 645.203 398.861 645.733 398.73ZM681.389 389.883C681.926 389.754 682.51 389.11 682.747 388.364C683.001 387.555 682.745 386.929 682.176 386.965C680.548 387.079 678.886 387.235 677.235 387.435C676.655 387.506 675.994 388.217 675.757 389.03C675.524 389.838 675.803 390.439 676.387 390.369C678.012 390.175 679.646 390.02 681.25 389.906C681.29 389.903 681.343 389.89 681.389 389.883ZM656.202 394.828C656.225 394.821 656.247 394.814 656.27 394.807C657.21 394.507 658.153 394.219 659.094 393.943C659.856 393.719 660.621 393.507 661.383 393.301C661.988 393.139 662.609 392.363 662.776 391.565C662.943 390.766 662.596 390.248 661.981 390.421C661.203 390.629 660.429 390.845 659.653 391.073C658.695 391.35 657.734 391.646 656.774 391.954C656.164 392.152 655.554 392.948 655.416 393.734C655.28 394.497 655.63 394.967 656.202 394.828ZM671.513 391.074C672.085 390.935 672.696 390.224 672.9 389.447C673.114 388.64 672.805 388.07 672.216 388.169C670.535 388.454 668.825 388.788 667.131 389.162C666.548 389.256 665.897 390.048 665.707 390.854C665.519 391.654 665.847 392.198 666.448 392.066C668.115 391.698 669.796 391.37 671.453 391.085C671.47 391.083 671.49 391.081 671.513 391.074Z" fill="#9DBCDC"/>
<path d="M586.281 414.975C586.436 414.937 586.603 414.845 586.77 414.708C587.551 414.055 588.332 413.419 589.114 412.789C589.678 412.336 590.052 411.481 589.953 410.875C589.854 410.269 589.32 410.146 588.757 410.599C587.961 411.243 587.164 411.892 586.368 412.553C585.81 413.019 585.445 413.875 585.555 414.473C585.635 414.888 585.924 415.062 586.281 414.975Z" fill="#9DBCDC"/>
<path d="M615.936 428.666L616.24 436.957L548.646 445.345L615.936 428.666Z" fill="#9DBCDC"/>
<path d="M609.035 400.925L609.132 413.246L548.646 445.345L609.035 400.925Z" fill="#9DBCDC"/>
<path d="M609.035 400.925L593.818 391.195L548.646 445.345L609.035 400.925Z" fill="#D8E4F1"/>
<path d="M619.13 407.94L641.564 422.912L548.646 445.345L619.13 407.94Z" fill="#D8E4F1"/>
<circle cx="44.188" cy="59.9905" r="4.24016" fill="#D8E4F1"/>
<circle cx="57.5143" cy="59.9905" r="4.24016" fill="#D8E4F1"/>
<circle cx="70.8405" cy="59.9905" r="4.24016" fill="#D8E4F1"/>
<circle cx="609" cy="30" r="8" fill="#296DB3"/>
<circle cx="25" cy="439" r="9" fill="#F79B24"/>
<circle cx="139.248" cy="29.4604" r="5.36957" fill="#29B32F"/>
<path d="M127.013 24.9678C126.024 27.3223 125.784 29.8123 126.185 32.164C126.528 34.1682 127.333 36.0715 128.541 37.7086C129.881 39.5451 131.718 41.0439 133.961 41.9858C137.98 43.675 142.387 43.1801 145.841 41.0508C148.066 39.6786 149.895 37.6335 150.985 35.0413C152.896 30.4915 152.017 25.4517 149.119 21.8508C147.814 20.2165 146.093 18.8783 144.034 18.0129C137.431 15.2392 129.79 18.359 127.013 24.9678ZM148.372 22.2964C151.136 25.6651 151.992 30.4199 150.19 34.7083C149.011 37.5139 146.888 39.6515 144.346 40.8944C141.302 42.3814 137.656 42.6052 134.294 41.1926C132.595 40.478 131.133 39.4165 129.978 38.1173C128.405 36.3704 127.378 34.198 127.01 31.8922C126.667 29.7359 126.9 27.4627 127.808 25.3015C130.401 19.13 137.533 16.2159 143.7 18.8074C145.582 19.5985 147.163 20.8143 148.372 22.2964Z" fill="#29B32F"/>
<defs>
<filter id="filter0_d" x="0.410156" y="0" width="869" height="623.07" filterUnits="userSpaceOnUse" color-interpolation-filters="sRGB">
<feFlood flood-opacity="0" result="BackgroundImageFix"/>
<feColorMatrix in="SourceAlpha" type="matrix" values="0 0 0 0 0 0 0 0 0 0 0 0 0 0 0 0 0 0 127 0"/>
<feOffset dx="40" dy="35"/>
<feGaussianBlur stdDeviation="32.5"/>
<feColorMatrix type="matrix" values="0 0 0 0 0.0745098 0 0 0 0 0.196078 0 0 0 0 0.321569 0 0 0 0.1 0"/>
<feBlend mode="normal" in2="BackgroundImageFix" result="effect1_dropShadow"/>
<feBlend mode="normal" in="SourceGraphic" in2="effect1_dropShadow" result="shape"/>
</filter>
</defs>
</svg>
