<svg width="406" height="282" viewBox="0 0 406 282" fill="none" xmlns="http://www.w3.org/2000/svg">
<g clip-path="url(#clip0)">
<path d="M239.242 273.672C237.899 277.821 236.414 281.926 234.801 285.98C233.614 288.968 232.351 291.932 231.025 294.865C228.217 301.077 225.115 307.161 221.765 313.101C221.494 313.58 221.224 314.059 220.949 314.534C217.46 320.626 213.712 326.563 209.757 332.332C207.555 335.547 205.169 338.982 202.616 342.489C202.294 342.936 201.967 343.387 201.628 343.834V343.838C197.94 348.845 193.914 353.947 189.585 358.683C187.406 361.069 185.148 363.363 182.818 365.501C177.449 370.441 171.694 374.578 165.6 377.203C165.6 377.203 162.844 377.203 157.965 377.203H-43.3589C-49.9942 377.127 -59.055 369.699 -66.6342 361.643C-66.909 361.352 -67.1798 361.061 -67.4467 360.77C-72.9747 354.785 -77.6186 348.585 -79.7972 344.903C-81.3943 342.202 -82.9555 339.473 -84.465 336.712C-84.6801 336.321 -84.8951 335.926 -85.1062 335.535C-92.0521 322.661 -97.8232 309.124 -100.894 294.773C-114.2 232.646 -62.3447 192.842 -4.8138 191.41C-4.43942 191.402 -4.06903 191.394 -3.69465 191.39C-3.31628 191.382 -2.93394 191.378 -2.55559 191.374C9.08601 191.286 20.8232 192.754 32.5445 194.091C32.9786 194.142 33.4167 194.19 33.8508 194.238C46.6036 195.678 59.3325 196.887 71.9061 195.694C76.4344 195.264 80.8075 194.569 85.0492 193.632C85.555 193.52 86.0648 193.404 86.5666 193.285C109.878 187.791 129.242 175.08 148.403 160.067C149.184 159.453 149.968 158.838 150.749 158.216C151.008 158.012 151.27 157.805 151.529 157.597C159.451 151.294 168.313 145.549 178.333 144.136C182.563 143.542 186.741 143.753 190.795 144.591C193.974 145.249 197.076 146.295 200.063 147.635C205.528 150.085 210.61 153.528 215.074 157.426C215.102 157.45 215.134 157.478 215.162 157.502C215.528 157.825 215.895 158.148 216.253 158.475C227.003 168.174 234.578 179.469 239.453 191.693C239.636 192.144 239.815 192.598 239.99 193.057C241.926 198.148 243.404 203.394 244.455 208.749C245.068 211.864 245.534 215.02 245.865 218.2C247.753 236.393 245.128 255.471 239.242 273.672Z" fill="#F4F7FB"/>
<path d="M35.0855 154.641C24.4674 157.003 18.4415 167.404 31.3337 171.266C37.7659 173.193 44.3295 172.878 51.0802 172.889C66.9555 172.921 83.4441 169.411 98.4591 164.312C108.587 160.873 135.192 149.027 125.653 134.912C117.477 122.816 97.3917 124.99 86.0767 130.005C72.1769 136.173 63.2874 149.203 35.0855 154.641Z" fill="#F4F7FB"/>
<path d="M233.562 262.15C233.562 264.843 231.384 267.025 228.695 267.025C226.007 267.025 223.828 264.843 223.828 262.15C223.828 259.457 226.007 257.274 228.695 257.274C231.384 257.274 233.562 259.457 233.562 262.15Z" fill="#D8E4F1"/>
<path d="M228.695 252.415C225.159 252.415 222.056 254.326 220.359 257.163C219.483 258.619 218.981 260.323 218.981 262.146C218.981 265.409 220.598 268.31 223.064 270.077C224.653 271.214 226.592 271.884 228.691 271.884C234.052 271.884 238.409 267.516 238.409 262.15C238.413 256.784 234.056 252.415 228.695 252.415ZM228.695 271.238C226.421 271.238 224.334 270.392 222.745 269C220.837 267.328 219.627 264.879 219.627 262.146C219.627 260.765 219.937 259.449 220.495 258.276C221.945 255.2 225.075 253.061 228.695 253.061C233.702 253.061 237.772 257.139 237.772 262.146C237.772 267.161 233.702 271.238 228.695 271.238Z" fill="#D8E4F1"/>
<path d="M260 233C262.209 233 264 231.209 264 229C264 226.791 262.209 225 260 225C257.791 225 256 226.791 256 229C256 231.209 257.791 233 260 233Z" fill="#296DB3"/>
<path d="M73 176C74.6569 176 76 174.657 76 173C76 171.343 74.6569 170 73 170C71.3432 170 70 171.343 70 173C70 174.657 71.3432 176 73 176Z" fill="#296DB3"/>
<path d="M72.8729 180.746C68.5323 180.746 65 177.214 65 172.873C65 168.532 68.5323 165 72.8729 165C77.2135 165 80.7458 168.532 80.7458 172.873C80.7458 177.214 77.217 180.746 72.8729 180.746ZM72.8729 165.341C68.7215 165.341 65.3439 168.718 65.3439 172.869C65.3439 177.021 68.7215 180.398 72.8729 180.398C77.0243 180.398 80.4019 177.021 80.4019 172.869C80.4019 168.721 77.0243 165.341 72.8729 165.341Z" fill="#296DB3"/>
<path d="M58.3375 350.96C71.5099 342.238 75.0423 328.589 78.8707 317.664C80.3606 313.407 82.3043 308.972 84.2087 304.498V304.488C84.3271 304.203 84.4455 303.927 84.5737 303.632C87.001 297.88 89.3198 292.068 90.5038 286.522C87.524 286.571 84.9783 288.509 82.0873 289.61C82.3636 283.307 85.5013 276.522 87.6424 270.14C87.7608 269.796 87.8792 269.451 87.9877 269.117C88.4317 267.721 88.8166 266.354 89.1126 265.017C90.3953 259.136 91.1649 253.049 92.2009 247.012C92.2108 246.972 92.2206 246.933 92.2404 246.894C92.6351 244.455 93.0988 242.046 93.6711 239.656C93.681 239.617 93.6908 239.568 93.7007 239.529C93.7993 239.086 93.898 238.653 94.0164 238.211C94.3322 236.952 94.6775 235.703 95.0623 234.455C94.865 234.779 94.6775 235.094 94.4999 235.428L94.4901 235.438C90.2966 242.774 88.1258 251.791 83.518 259.264C78.7325 267.023 74.6476 274.26 71.283 281.871C71.1744 282.117 71.0659 282.373 70.9574 282.618C68.2143 288.931 65.9548 295.52 64.1788 302.895C63.1921 307.015 62.4224 311.194 61.8304 315.422C61.7712 315.816 61.7219 316.219 61.6726 316.602C60.972 321.903 60.5477 327.232 60.3011 332.503C60.084 337.115 61.1693 344.008 59.4722 348.748V348.757C59.3143 349.21 59.1269 349.623 58.9098 350.036C58.742 350.35 58.5447 350.665 58.3375 350.96Z" fill="#FF2E57"/>
<path d="M94.3913 236.145C94.2927 236.853 94.1644 237.541 94.0164 238.22C94.3321 236.961 94.6775 235.712 95.0623 234.463C94.865 234.788 94.6775 235.103 94.4999 235.437L94.4901 235.447C94.4604 235.683 94.4308 235.909 94.3913 236.145Z" fill="white"/>
<path d="M58.9097 350.025C60.9522 348.855 61.9981 346.288 63.0045 344.331C65.0371 340.388 67.0993 336.484 68.3426 332.217C68.5301 331.558 68.7273 330.899 68.905 330.24C68.9543 330.103 68.9937 329.965 69.0234 329.817C71.1053 322.521 72.9504 315.097 74.4699 307.643C74.5291 307.368 74.5883 307.093 74.6377 306.817C75.2001 304.034 75.7132 301.261 76.1769 298.479C77.6964 289.314 80.0941 280.326 83.0641 271.515C83.1332 271.299 83.2121 271.073 83.291 270.857C84.0607 268.565 84.8796 266.294 85.7282 264.022C87.7707 258.575 90.1091 253.235 91.9543 247.719C92.0332 247.483 92.1121 247.237 92.2009 247.001C92.2108 246.962 92.2207 246.922 92.2404 246.883C92.6351 244.444 93.0988 242.035 93.6711 239.646C93.2666 241.18 92.7831 242.704 92.2897 244.257C90.6321 249.499 88.6094 254.582 86.5965 259.715C82.6596 269.765 79.2653 280.021 76.9466 290.543C76.9268 290.641 76.9071 290.72 76.8874 290.818C76.8479 290.986 76.8183 291.133 76.7887 291.3C74.4897 301.842 72.6347 312.344 69.9213 322.826C69.4279 324.694 68.9839 326.563 68.5004 328.392C68.3919 328.805 68.2833 329.208 68.1748 329.611C67.2572 333.033 66.1817 336.386 64.5635 339.67C63.4189 342.001 61.8106 346.593 59.4721 348.717V348.727C59.3142 349.199 59.1268 349.622 58.9097 350.025Z" fill="white"/>
<path d="M55.7619 175.247C55.7619 178.364 58.2977 180.891 61.4256 180.891C64.5534 180.891 67.0893 178.364 67.0893 175.247C67.0893 172.13 64.5534 169.603 61.4256 169.603C58.2977 169.603 55.7619 172.12 55.7619 175.247Z" fill="white"/>
<path d="M180.106 272.115C176.79 275.714 173.584 277.386 169.203 277.307C166.016 277.238 162.671 277.12 159.296 277.15C159.286 277.15 159.286 277.15 159.286 277.15C153.889 277.179 148.462 277.583 143.667 279.126C135.379 281.811 128.995 284.082 121.585 279.097C114.5 274.338 109.162 266.097 104.426 258.673C101.476 254.051 97.6276 248.584 94.8451 243.028C93.3848 240.127 92.2204 237.207 91.5988 234.375C89.9313 226.724 96.2758 219.91 109.537 217.756C113.188 224.945 116.947 232.467 119.809 239.99C121.022 243.195 122.453 246.342 123.637 249.528C124.485 251.799 129.794 258.516 131.037 259.745C134.096 262.754 150.554 265.379 155.734 265.379C164.881 265.389 168.157 261.721 176.405 265.861C180.155 267.739 183.816 268.103 180.106 272.115Z" fill="#A37661"/>
<path d="M159.306 277.151C159.296 277.151 159.296 277.151 159.306 277.151C153.899 277.18 148.472 277.584 143.677 279.127C135.389 281.812 129.005 284.083 121.595 279.098C114.51 274.339 109.172 266.098 104.436 258.674C101.486 254.052 97.6375 248.585 94.855 243.029L109.231 220.442C109.231 220.442 111.984 239.499 112.468 245.566C112.951 251.643 120.292 270.317 126.232 270.159C132.162 270.002 135.685 272.097 144.437 271.143C153.179 270.179 159.336 272.608 159.336 272.608C159.336 272.608 159.277 275.44 160.964 276.335C161.506 276.63 160.668 276.905 159.306 277.151Z" fill="#7F5C4C"/>
<path d="M25.4901 323.288C29.6243 326.14 55.0219 327.576 63.2312 327.969C64.8395 328.048 65.7868 328.087 65.7868 328.087L46.2502 291.379L38.2876 276.432L34.7157 269.716L32.8805 266.265L30.1572 261.141L29.871 260.61L28.835 275.459L25.7565 319.473L25.4901 323.288Z" fill="#9DDCA0"/>
<path d="M62.1163 185.424C56.6204 185.03 53.463 188.325 48.1249 190.567C42.7869 192.809 34.8045 198.119 30.2657 201.836C26.2893 205.1 23.6548 209.879 21.8294 214.845C19.9941 219.84 18.8693 225.131 18.5141 230.47C18.445 231.503 18.4253 232.614 18.9285 233.509C19.3232 234.207 19.9941 234.679 20.6552 235.102C27.9173 239.743 36.916 241.208 45.1648 239.104C43.1519 247.187 36.1563 252.517 34.1434 260.6C32.7916 266.038 36.4128 274.357 36.8766 279.952C37.1627 283.384 38.1198 286.707 39.0769 289.992C42.4613 301.644 45.8555 313.287 49.2399 324.939C65.5895 331.292 83.725 326.798 100.617 322.245C101.338 322.048 102.107 321.822 102.571 321.213C103.035 320.593 103.074 319.738 103.084 318.951C103.114 317.053 103.143 315.155 103.153 313.267C102.492 294.308 102.492 275.999 102.038 256.371C101.94 254.474 101.841 252.586 101.732 250.688C101.663 249.4 101.584 248.111 101.634 246.823C101.673 245.683 101.811 244.552 101.959 243.421C102.275 240.913 102.63 238.416 102.976 235.918C103.193 234.345 103.42 232.761 103.637 231.198C103.952 228.897 105.245 226.547 105.709 224.216C106.172 221.886 106.409 219.496 106.35 217.117C106.251 212.888 105.206 208.739 103.242 205.051C100.015 198.984 94.7366 194.362 88.6684 191.756C85.215 190.272 81.505 189.918 77.8937 189.013C75.0914 188.315 72.309 187.479 69.5758 186.515C68.3424 186.083 67.0893 185.453 65.8164 185.227C64.5436 185.011 63.3299 185.512 62.1163 185.424Z" fill="#9DDCA0"/>
<path d="M79.8275 199.339C79.9854 202.633 80.5676 206.596 77.9528 208.622C76.5418 209.703 74.5487 209.792 72.8516 209.251C71.1544 208.7 69.704 207.589 68.3522 206.429C62.5505 201.453 57.7256 194.658 57.4789 187.038C57.3112 181.875 60.6561 169.219 59.5016 164.922L65.0567 162.474L66.3887 161.884L80.6366 184.205C78.7619 187.637 79.5118 194.265 79.7683 198.513C79.7979 198.808 79.8176 199.083 79.8275 199.339Z" fill="#A37661"/>
<path d="M79.7781 198.513C54.4002 189.162 63.3989 167.391 63.3989 167.391C63.8134 165.335 64.3758 163.713 65.0665 162.464L66.3985 161.874L80.6464 184.196C78.7816 187.628 79.5216 194.265 79.7781 198.513Z" fill="#7F5C4C"/>
<path d="M92.5167 165.719C92.0925 168.964 90.6617 172.228 87.9877 174.274C84.2087 177.145 78.17 176.86 74.7462 173.634C72.6149 171.628 71.5393 168.846 70.6316 166.122C69.5758 162.955 68.6385 159.72 68.3425 156.416C68.0958 153.663 68.303 150.87 68.9542 148.166L69.9903 148.225L91.1649 149.484C91.4609 151.627 91.757 153.791 92.0628 155.934C92.2306 157.223 92.418 158.511 92.5364 159.819C92.7239 161.795 92.7831 163.772 92.5167 165.719Z" fill="#A37661"/>
<path d="M92.5261 159.829C90.089 159.918 87.1486 159.573 83.9616 158.275C75.2491 154.745 68.3423 156.417 68.3423 156.417L69.9802 148.226L91.1547 149.484C91.4507 151.628 91.7467 153.791 92.0525 155.935C92.2301 157.243 92.4077 158.531 92.5261 159.829Z" fill="#7F5C4C"/>
<path d="M65.3921 160.163C63.9219 156.387 67.1583 152.158 70.9965 150.831C74.8348 149.503 79.0282 150.143 83.0934 150.369C89.4379 150.723 96.6902 149.503 100.242 144.252C103.094 140.024 102.502 133.898 99.0878 130.112C95.6739 126.326 89.8228 125.058 85.0373 126.828C80.5774 128.48 77.2917 132.334 73.0292 134.449C70.74 135.579 68.2042 136.199 65.6486 136.228C63.3299 136.258 60.9914 135.815 58.7023 136.199C52.644 137.231 48.9241 145.059 51.973 150.379C53.1274 152.394 55.0022 153.987 55.7915 156.17C56.9262 159.297 55.5547 162.7 55.1206 166.004C54.6963 169.298 56.0974 173.566 59.4226 173.782C61.3565 173.91 63.1227 172.484 63.991 170.753C64.8593 169.023 65.0171 167.036 65.1553 165.109C65.3033 163.113 65.4513 161.107 65.5993 159.111L65.3921 160.163Z" fill="#202020"/>
<path d="M54.5288 142.256C51.4701 140.457 50.2367 136.759 51.5194 133.475C51.8648 132.58 53.1869 133.288 52.8416 134.173C51.8648 136.681 52.9304 139.582 55.2293 140.939C56.0581 141.43 55.3675 142.748 54.5288 142.256Z" fill="#202020"/>
<path d="M52.6343 141.991C51.2628 140.958 49.398 140.791 47.8587 141.548C47.0003 141.971 46.1912 140.722 47.0496 140.289C49.25 139.198 51.6871 139.414 53.6407 140.889C54.4202 141.469 53.4039 142.561 52.6343 141.991Z" fill="#202020"/>
<path d="M70.227 148.707C69.5461 152.886 68.8752 157.144 69.4869 161.323C70.0987 165.512 72.2398 169.691 75.9104 171.667C76.1768 171.815 76.4826 171.943 76.7787 171.874C77.124 171.785 77.3312 171.451 77.5088 171.136C78.8704 168.678 80.2617 165.807 82.9159 165C85.9944 164.066 89.2505 166.633 90.326 169.72C91.4015 172.808 90.8884 176.21 90.3654 179.446C89.9806 181.825 89.507 184.372 87.8099 186.044C84.8992 188.895 80.1433 187.765 76.3544 186.329C75.0421 185.827 73.71 185.306 72.6049 184.431C70.3947 182.671 69.4179 179.79 68.5496 177.076C66.0434 169.239 63.5174 160.88 65.481 152.896L70.227 148.707Z" fill="#202020"/>
<path d="M65.5698 158.826C65.1751 157.321 63.2214 156.525 61.8104 157.203C60.4093 157.872 59.7877 159.74 60.3698 161.186C60.9619 162.622 62.59 163.516 64.1391 163.398C64.7015 163.359 65.2639 163.202 65.8165 163.31L65.5698 158.826Z" fill="#A37661"/>
<path d="M86.3793 171.559L81.6825 171.186C81.2187 171.146 80.824 171.51 80.8141 171.982C80.7747 174.165 81.2286 179.298 86.922 172.897C87.3561 172.395 87.0305 171.608 86.3793 171.559Z" fill="#A37661"/>
<path d="M25.7567 319.473C26.8717 319.886 27.9965 320.004 29.1806 319.778C35.4461 318.578 38.5936 313.622 40.0243 307.732C40.7249 304.831 40.6656 301.841 41.5833 298.95C46.2109 284.486 61.6724 290.818 73.1279 289.904C78.7028 289.461 79.1764 287.249 79.1764 282.362C57.844 278.9 45.6584 277.268 38.2779 276.432C37.5477 276.343 36.8768 276.265 36.2453 276.196C32.7129 275.812 30.4731 275.626 28.8253 275.458L25.7567 319.473Z" fill="#9DDCA0"/>
<path d="M87.9777 126.002C93.3256 126.316 99.0584 127.103 102.857 131.263C106.439 135.176 106.498 141.548 103.903 146.042C101.426 150.339 95.5457 152.798 90.849 153.506C81.9885 154.843 74.2329 148.087 65.7078 153.938C64.9086 154.489 64.1094 153.22 64.8987 152.68C74.0257 146.416 82.6989 154.115 92.2403 151.696C98.2295 150.172 103.42 146.789 104.031 140.26C104.949 130.633 95.822 127.968 88.027 127.506C87.0897 127.437 87.0206 125.943 87.9777 126.002Z" fill="#202020"/>
<path d="M89.3394 182.425C87.7212 190.243 78.9692 191.629 72.7531 188.119C63.9814 183.172 64.9188 172.493 65.9943 163.791C66.1127 162.837 67.5631 163.181 67.4545 164.125C66.7145 170.104 65.6292 178.905 69.8423 183.821C74.5785 189.338 86.034 191.019 87.889 182.081C88.0863 181.147 89.5367 181.481 89.3394 182.425Z" fill="#202020"/>
<path d="M95.9898 129.079C99.3149 131.478 100.4 135.687 98.6736 139.414C96.6903 143.711 92.1713 145.58 87.6423 145.58C87.1588 145.58 87.1292 144.832 87.6127 144.832C91.4213 144.832 95.2596 143.544 97.3712 140.181C99.6208 136.592 98.9795 132.147 95.4865 129.63C95.0918 129.345 95.6049 128.794 95.9898 129.079Z" fill="#372D5E"/>
<path d="M96.4239 132.776C96.6607 134.93 96.8975 137.29 95.7332 139.237C94.7465 140.889 93.2862 141.351 91.4806 141.656C91.007 141.735 90.9774 140.987 91.451 140.909C93.5033 140.564 94.9439 139.798 95.5853 137.703C96.0687 136.12 95.8516 134.409 95.674 132.796C95.6247 132.324 96.3746 132.304 96.4239 132.776Z" fill="#372D5E"/>
<path d="M123.459 285.233C120.697 287.534 117.391 289.196 113.879 289.973C105.906 291.753 97.7164 289.127 89.8919 286.787C84.3072 285.115 78.6238 283.571 72.7924 283.316C68.3326 283.119 63.8925 283.67 59.4326 283.945C45.5004 284.83 31.4005 282.981 18.159 278.556C16.2745 277.927 14.3603 277.209 12.8901 275.882C9.01239 272.361 9.69321 266.166 11.1535 261.151C14.38 250.118 15.5246 239.036 20.9712 228.917L35.6137 234.159L41.7312 236.342L43.9414 237.138C45.1847 237.276 46.1911 237.62 46.9509 238.171C46.7535 238.544 46.5759 238.898 46.4181 239.233C43.2606 245.536 44.05 245.211 40.4584 252.252C39.7085 253.717 38.9389 255.359 39.3336 256.962C39.8861 259.116 42.2443 260.207 44.346 260.994C49.3091 262.862 54.2722 264.731 59.255 266.599C67.336 269.637 75.5651 272.705 84.179 273.266C84.9091 273.315 85.6393 273.345 86.3793 273.364C93.1875 273.522 100.223 272.548 106.666 274.161C108.027 274.495 108.175 276.334 106.883 276.855C105.432 277.435 103.982 278.055 102.561 278.694C101.417 279.215 101.801 280.926 103.064 280.926C109.527 280.906 116 281.221 122.433 281.86C124.12 282.027 124.752 284.151 123.459 285.233Z" fill="#A37661"/>
<path d="M86.3892 273.365C80.9821 273.807 74.5685 273.876 68.7174 272.735C55.1601 270.1 50.0392 265.065 39.6986 265.547C29.358 266.029 25.7467 261.476 29.8613 256.304C33.2654 252.016 35.0907 238.663 35.6038 234.169L41.7213 236.352L46.418 239.253C43.2606 245.556 44.05 245.231 40.4584 252.272C39.7085 253.737 38.9389 255.38 39.3335 256.982C39.8861 259.136 42.2443 260.227 44.346 261.014C49.3091 262.882 54.2722 264.751 59.255 266.619C67.336 269.658 75.5651 272.726 84.179 273.286C84.919 273.325 85.6491 273.345 86.3892 273.365Z" fill="#7F5C4C"/>
<path d="M22.757 233.127C22.757 233.127 31.6669 238.584 41.1688 238.427C50.6707 238.269 49.2893 228.918 49.2893 228.918L20.2409 226.941L18.9187 230.344L22.757 233.127Z" fill="#9DDCA0"/>
<path d="M97.3513 243.903C98.1999 244.621 99.3148 245.034 100.242 245.565C102.147 243.598 103.656 240.049 105.117 237.659C106.281 235.751 107.435 233.745 108.333 231.671C109.863 228.15 110.642 224.374 111.58 220.765C112.961 215.436 111.994 211.021 106.498 205.799C83.5967 184.028 97.1343 202.072 94.2334 207.51C90.8884 213.744 90.4937 223.706 97.3513 243.903Z" fill="#9DDCA0"/>
<path d="M162.868 281.889C161.911 281.329 161.526 280.247 161.96 279.225C163.145 276.422 166.519 271.053 175.419 269.195C183.786 267.454 187.901 268.9 189.677 270.001C190.446 270.483 190.801 271.309 190.634 272.184C190.209 274.288 188.917 278.713 185.128 282.302C180.185 286.973 173.229 287.976 162.868 281.889Z" fill="#A37661"/>
<path d="M108.61 212.545C116.434 223.549 107.169 242.763 97.1343 249.43C95.9799 250.197 97.0652 252.065 98.2295 251.289C109.182 244.022 119.039 223.49 110.484 211.454C109.685 210.333 107.81 211.405 108.61 212.545Z" fill="#9DDCA0"/>
<path d="M35.15 272.371C32.989 276.108 31.4004 283.601 34.3014 287.308C34.8737 288.036 35.89 287.013 35.3177 286.295C32.9002 283.207 34.6171 276.167 36.3933 273.099C36.857 272.292 35.6137 271.565 35.15 272.371Z" fill="#454545"/>
<path d="M37.3208 278.94C36.9163 280.632 36.6696 282.461 37.3208 284.122C37.6563 284.978 39.0475 284.604 38.712 283.739C38.1496 282.303 38.3568 280.789 38.712 279.324C38.9291 278.419 37.5379 278.036 37.3208 278.94Z" fill="#454545"/>
<path d="M40.8531 279.894C40.3104 282.589 40.3104 285.322 41.1787 287.948C41.4648 288.823 42.8559 288.449 42.5698 287.564C41.7904 285.175 41.7509 282.726 42.2443 280.278C42.4317 279.373 41.0405 278.99 40.8531 279.894Z" fill="#454545"/>
<path d="M194.146 198.784C195.075 198.966 196.199 199.551 196.161 200.641C196.151 200.955 195.664 200.955 195.674 200.641C195.704 199.782 194.722 199.389 194.017 199.252C193.711 199.195 193.84 198.724 194.146 198.784Z" fill="white"/>
<path d="M197.364 247.804C196.33 250.634 195.103 253.485 193.644 256.311C187.035 269.104 175.722 281.363 156.541 288.762C156.541 288.762 136.134 283.895 122.381 262.181C122.03 261.628 121.685 261.066 121.344 260.493C120 258.225 118.73 255.788 117.562 253.164C112.42 241.622 109.236 226.5 110.345 206.773C110.345 206.773 126.648 203.641 128.758 187.13C128.758 187.13 155.462 180.583 183.293 187.13C183.293 187.13 183.293 193.153 187.257 198.682C189.941 202.421 194.442 205.934 201.984 207.199C201.984 207.199 204.982 226.946 197.364 247.804Z" fill="#9DBCDC"/>
<path d="M190.105 236.319C187.17 250.472 178.827 267.73 156.494 276.342C156.494 276.342 156.444 276.329 156.345 276.304C154.195 275.732 129.285 268.465 122.696 236.317C121.374 229.871 120.79 222.425 121.275 213.833C121.275 213.833 133.706 211.446 135.314 198.856C135.314 198.856 144.199 196.678 156.347 196.64C162.588 196.618 169.691 197.161 176.89 198.856C176.89 198.856 176.89 211.772 191.144 214.157C191.141 214.159 192.647 224.08 190.105 236.319Z" fill="#296DB3"/>
<path d="M190.105 236.32H156.345V196.643C162.585 196.621 169.688 197.164 176.888 198.859C176.888 198.859 176.888 211.775 191.141 214.16C191.141 214.16 192.647 224.081 190.105 236.32Z" fill="#D8E4F1"/>
<path d="M156.345 236.319V276.306C154.195 275.734 129.285 268.467 122.696 236.319H156.345Z" fill="#D8E4F1"/>
<path d="M171.743 192.916C171.622 192.916 171.5 192.899 171.376 192.861C166.169 191.253 159.593 190.641 151.829 191.044C151.148 191.084 150.559 190.551 150.524 189.866C150.489 189.179 151.016 188.594 151.7 188.559C159.754 188.141 166.621 188.788 172.106 190.484C172.762 190.685 173.13 191.382 172.926 192.04C172.765 192.572 172.273 192.916 171.743 192.916Z" fill="white"/>
<path d="M136.947 192.916C136.375 192.916 135.863 192.52 135.734 191.937C135.588 191.265 136.01 190.603 136.681 190.453C136.818 190.424 140.064 189.712 144.915 189.136C145.596 189.054 146.215 189.545 146.294 190.227C146.374 190.909 145.887 191.529 145.206 191.609C140.486 192.169 137.248 192.876 137.215 192.883C137.126 192.906 137.037 192.916 136.947 192.916Z" fill="white"/>
<path d="M120.833 249.775C120.368 249.775 119.923 249.513 119.709 249.065C112.228 233.346 113.839 215.546 113.911 214.796C113.978 214.112 114.585 213.611 115.268 213.676C115.951 213.741 116.451 214.351 116.386 215.035C116.369 215.212 114.778 232.915 121.953 247.995C122.249 248.615 121.986 249.359 121.367 249.655C121.195 249.735 121.011 249.775 120.833 249.775Z" fill="white"/>
</g>
<defs>
<clipPath id="clip0">
<rect width="462" height="308" fill="white" transform="translate(-33)"/>
</clipPath>
</defs>
</svg>
