<svg xmlns="http://www.w3.org/2000/svg" width="43" height="43" viewBox="0 0 43 43"><circle cx="21.5" cy="21.5" r="21.5"/><path fill="white" d="M6.432,0A6.445,6.445,0,0,0,0,6.432v9.3A6.445,6.445,0,0,0,6.432,22.16h9.3a6.445,6.445,0,0,0,6.432-6.432v-9.3A6.445,6.445,0,0,0,15.728,0Zm0,1.7h9.3a4.714,4.714,0,0,1,4.728,4.728v9.3a4.714,4.714,0,0,1-4.728,4.728h-9.3A4.714,4.714,0,0,1,1.7,15.728v-9.3A4.714,4.714,0,0,1,6.432,1.7Zm11.04,1.7a1.278,1.278,0,1,0,1.278,1.278A1.279,1.279,0,0,0,17.472,3.409Zm-6.392,1.7a5.966,5.966,0,1,0,5.966,5.966A5.978,5.978,0,0,0,11.08,5.114Zm0,1.7A4.262,4.262,0,1,1,6.818,11.08,4.249,4.249,0,0,1,11.08,6.818Z" transform="translate(10 10)"/></svg>