<svg width="43" height="43" viewBox="0 0 43 43" fill="none" xmlns="http://www.w3.org/2000/svg">
<path d="M21.5 43C33.3741 43 43 33.3741 43 21.5C43 9.62588 33.3741 0 21.5 0C9.62588 0 0 9.62588 0 21.5C0 33.3741 9.62588 43 21.5 43Z" fill="#1E5083"/>
<path d="M16.432 10C14.7272 10.0034 13.0932 10.6822 11.8877 11.8877C10.6822 13.0932 10.0034 14.7272 10 16.432V25.732C10.0045 27.4361 10.6837 29.0691 11.8891 30.2737C13.0945 31.4784 14.7279 32.1566 16.432 32.16H25.732C27.4368 32.1566 29.0708 31.4778 30.2763 30.2723C31.4818 29.0668 32.1606 27.4328 32.164 25.728V16.428C32.1595 14.7232 31.4797 13.0896 30.2735 11.8849C29.0673 10.6801 27.4328 10.0024 25.728 10H16.432ZM16.432 11.7H25.732C26.3534 11.6982 26.9691 11.8192 27.5435 12.0561C28.118 12.2931 28.6399 12.6413 29.0793 13.0807C29.5187 13.5201 29.8669 14.042 30.1039 14.6165C30.3408 15.191 30.4618 15.8066 30.46 16.428V25.728C30.4618 26.3494 30.3408 26.9651 30.1039 27.5395C29.8669 28.114 29.5187 28.6359 29.0793 29.0753C28.6399 29.5147 28.118 29.8629 27.5435 30.0999C26.9691 30.3368 26.3534 30.4578 25.732 30.456H16.432C15.8103 30.4584 15.1942 30.3377 14.6193 30.101C14.0443 29.8643 13.5219 29.5162 13.0821 29.0767C12.6423 28.6373 12.2937 28.1152 12.0565 27.5404C11.8193 26.9657 11.6981 26.3497 11.7 25.728V16.428C11.6981 15.8063 11.8193 15.1903 12.0565 14.6156C12.2937 14.0408 12.6423 13.5187 13.0821 13.0793C13.5219 12.6398 14.0443 12.2917 14.6193 12.055C15.1942 11.8183 15.8103 11.6976 16.432 11.7V11.7ZM27.472 13.4C27.2192 13.4 26.9721 13.475 26.762 13.6154C26.5518 13.7558 26.388 13.9554 26.2913 14.1889C26.1946 14.4225 26.1692 14.6794 26.2186 14.9273C26.2679 15.1752 26.3896 15.403 26.5683 15.5817C26.747 15.7604 26.9748 15.8821 27.2227 15.9314C27.4706 15.9808 27.7275 15.9554 27.9611 15.8587C28.1946 15.762 28.3942 15.5982 28.5346 15.388C28.675 15.1779 28.75 14.9308 28.75 14.678C28.7474 14.3407 28.6116 14.0181 28.3722 13.7804C28.1329 13.5427 27.8093 13.4093 27.472 13.409V13.4ZM21.08 15.1C19.9 15.1 18.7466 15.4499 17.7655 16.1055C16.7844 16.761 16.0197 17.6928 15.5681 18.7829C15.1166 19.8731 14.9984 21.0726 15.2286 22.2299C15.4588 23.3872 16.027 24.4502 16.8614 25.2846C17.6958 26.119 18.7588 26.6872 19.9161 26.9174C21.0734 27.1476 22.2729 27.0294 23.3631 26.5779C24.4532 26.1263 25.385 25.3616 26.0405 24.3805C26.6961 23.3994 27.046 22.246 27.046 21.066C27.0391 19.4871 26.4079 17.9751 25.2902 16.8599C24.1724 15.7448 22.6589 15.1172 21.08 15.114V15.1ZM21.08 16.8C21.9222 16.8 22.7455 17.0495 23.446 17.517C24.1464 17.9846 24.6927 18.6491 25.0158 19.4269C25.3389 20.2046 25.4244 21.0606 25.2614 21.8869C25.0984 22.7131 24.6942 23.4726 24.1 24.0693C23.5057 24.6661 22.748 25.0734 21.9225 25.2399C21.0969 25.4064 20.2405 25.3245 19.4614 25.0047C18.6824 24.6849 18.0155 24.1414 17.545 23.4429C17.0745 22.7444 16.8216 21.9222 16.818 21.08C16.8163 20.5198 16.9254 19.9648 17.1389 19.447C17.3525 18.9291 17.6664 18.4586 18.0625 18.0625C18.4586 17.6664 18.9291 17.3525 19.447 17.1389C19.9648 16.9254 20.5198 16.8163 21.08 16.818V16.8Z" fill="white"/>
</svg>
