<svg width="31" height="31" viewBox="0 0 31 31" fill="none" xmlns="http://www.w3.org/2000/svg">
<circle r="15.2143" transform="matrix(-1 0 0 1 15.2145 15.2143)" fill="#1E5083"/>
<path d="M9.00312 14.7781L12.8968 10.8306C13.1343 10.5898 13.5196 10.5898 13.7572 10.8306C13.9948 11.0715 13.9948 11.462 13.7572 11.7029L10.9021 14.5975H21.3008C21.6368 14.5975 21.9092 14.8736 21.9092 15.2143C21.9092 15.5548 21.6368 15.8311 21.3008 15.8311H10.9021L13.7571 18.7256C13.9947 18.9665 13.9947 19.357 13.7571 19.5979C13.6383 19.7183 13.4826 19.7786 13.3269 19.7786C13.1712 19.7786 13.0155 19.7183 12.8967 19.5979L9.00312 15.6504C8.76551 15.4095 8.76551 15.019 9.00312 14.7781Z" fill="white"/>
</svg>
