<svg width="43" height="43" viewBox="0 0 43 43" fill="none" xmlns="http://www.w3.org/2000/svg">
<circle cx="21.5" cy="21.5" r="21.5" fill="#1E5083"/>
<path d="M16.2792 17.8486H12.2329V29.9997H16.2792V17.8486Z" fill="white"/>
<path d="M29.5585 18.9587C28.7085 18.0309 27.5843 17.5669 26.1866 17.5669C25.6716 17.5669 25.2035 17.6302 24.7824 17.757C24.3615 17.8837 24.006 18.0615 23.7157 18.2904C23.4256 18.5193 23.1946 18.7318 23.023 18.9279C22.8599 19.1142 22.7004 19.3311 22.5448 19.5766V17.8487H18.5105L18.5229 18.4373C18.5312 18.8298 18.5353 20.0396 18.5353 22.0667C18.5353 24.094 18.5271 26.7384 18.5107 30H22.5448V23.2192C22.5448 22.8024 22.5895 22.4714 22.6796 22.226C22.8514 21.8089 23.1106 21.4597 23.4583 21.1778C23.8058 20.8955 24.2369 20.7545 24.752 20.7545C25.4548 20.7545 25.972 20.9977 26.3032 21.4841C26.6341 21.9704 26.7997 22.6428 26.7997 23.5011V29.9996H30.8337V23.0355C30.8334 21.2451 30.4087 19.8863 29.5585 18.9587Z" fill="white"/>
<path d="M14.2806 12C13.6022 12 13.0525 12.1984 12.6315 12.5947C12.2104 12.9912 12 13.4917 12 14.0967C12 14.6933 12.2043 15.1921 12.6131 15.5925C13.0217 15.993 13.5613 16.1934 14.2315 16.1934H14.2561C14.9428 16.1934 15.4967 15.9932 15.9176 15.5925C16.3385 15.1921 16.5449 14.6935 16.5368 14.0967C16.5286 13.4917 16.32 12.9912 15.9114 12.5947C15.5029 12.1982 14.9591 12 14.2806 12Z" fill="white"/>
</svg>
