<svg width="31" height="31" viewBox="0 0 31 31" fill="none" xmlns="http://www.w3.org/2000/svg">
<circle cx="15.786" cy="15.2143" r="15.2143" fill="#1E5083"/>
<path d="M21.9979 14.7781L18.1042 10.8306C17.8666 10.5898 17.4814 10.5898 17.2438 10.8306C17.0062 11.0715 17.0062 11.462 17.2438 11.7029L20.0989 14.5975H9.70018C9.36421 14.5975 9.0918 14.8736 9.0918 15.2143C9.0918 15.5548 9.36421 15.8311 9.70018 15.8311H20.0989L17.2439 18.7256C17.0063 18.9665 17.0063 19.357 17.2439 19.5979C17.3627 19.7183 17.5184 19.7786 17.6741 19.7786C17.8298 19.7786 17.9855 19.7183 18.1043 19.5979L21.9979 15.6504C22.2355 15.4095 22.2355 15.019 21.9979 14.7781Z" fill="white"/>
</svg>
