<svg width="307" height="218" viewBox="0 0 307 218" fill="none" xmlns="http://www.w3.org/2000/svg">
<path d="M74.9064 59.6035C74.4767 55.0751 80.2261 52.8589 84.7249 52.1955C105.73 49.0919 130.14 48.1589 151.354 47.2196C163.985 46.8054 176.651 47.4367 189.181 49.108C192.957 49.6114 197.833 51.6277 197.195 55.3853C196.735 58.0994 193.59 59.3084 190.919 59.983C162.902 67.0524 133.901 70.2136 105.016 69.3482C96.8774 69.1052 88.5978 68.5091 81.0081 65.5637C78.2145 64.4715 75.1915 62.5895 74.9064 59.6035Z" fill="#F4F7FB"/>
<path d="M29.1439 248.455C30.9204 254.273 33.8724 260.061 38.6979 264.585C38.7897 264.672 38.8851 264.757 38.9805 264.842C39.0308 264.892 39.0833 264.937 39.1372 264.985C39.4382 265.26 39.7499 265.53 40.0695 265.79C41.6527 267.101 43.4166 268.283 45.3804 269.298C47.8146 270.558 50.597 271.478 53.6212 272.117C54.0047 272.201 54.3891 272.277 54.7794 272.346C55.6402 272.507 56.5207 272.646 57.4171 272.762C75.2656 275.109 99.4603 269.477 112.793 265.751C116.026 264.63 119.302 263.637 122.608 262.77L122.622 262.764C122.625 262.763 122.625 262.763 122.625 262.763C128.391 261.247 134.254 260.107 140.166 259.362C160.474 256.795 181.175 258.821 201.447 255.97C219.585 253.421 238.358 245.869 248.981 231.351C251.213 228.3 252.567 224.689 252.997 220.932C253.486 216.656 253.826 212.883 254.277 209.271C254.348 208.708 254.42 208.152 254.497 207.595C254.51 207.51 254.519 207.426 254.532 207.341C255.14 203.009 255.983 198.812 257.528 194.129C257.76 193.427 258.007 192.711 258.273 191.984L258.275 191.979C258.406 191.614 258.543 191.244 258.689 190.865C258.731 190.75 258.776 190.633 258.821 190.516C259.242 189.432 259.699 188.318 260.2 187.169C261.933 183.194 263.965 179.355 265.837 175.442C266.003 175.096 266.168 174.747 266.332 174.398C266.463 174.122 266.59 173.843 266.719 173.563C267.217 172.482 267.696 171.393 268.15 170.292C276.503 149.965 274.824 125.784 263.74 106.803C252.657 87.8257 232.424 74.4801 210.613 71.7664C206.605 71.2674 202.595 71.1102 198.583 71.1983C198.054 71.2081 197.527 71.2249 196.996 71.243C183.783 71.7424 170.569 74.7874 157.453 77.0389C130.824 81.6192 103.644 82.9785 76.6917 81.0793C72.2067 80.7635 67.7131 80.3588 63.2114 79.9649C62.6598 79.9146 62.106 79.8691 61.5557 79.8224C47.0963 78.574 32.617 77.5774 18.4164 80.1944C12.312 81.3222 6.24394 83.1502 1.04367 86.536C-12.7872 95.5514 -17.7188 115.009 -12.0388 130.512C-5.55264 148.224 11.995 160.214 18.1478 178.044C20.3363 184.385 20.9318 191.049 20.6059 197.759C20.3027 204.071 19.1839 210.422 17.8105 216.581C17.7222 216.975 17.6325 217.364 17.5407 217.759C16.6015 221.899 15.561 226.036 14.6029 230.18L27.9938 244.006C28.3055 245.479 28.6866 246.967 29.1439 248.455Z" fill="#F4F7FB"/>
<path d="M231.569 152.442C233.58 151.782 235.745 152.876 236.405 154.887C237.065 156.898 235.971 159.063 233.96 159.723C231.949 160.383 229.784 159.289 229.124 157.278C228.464 155.267 229.558 153.102 231.569 152.442Z" fill="#296DB3"/>
<path d="M215.551 162.487C217.562 161.827 219.727 162.921 220.387 164.931C221.047 166.942 219.953 169.108 217.942 169.767C215.932 170.427 213.766 169.333 213.106 167.321C212.445 165.312 213.541 163.146 215.551 162.487Z" fill="#296DB3"/>
<path d="M225.495 158.47C225.964 159.897 226.817 161.097 227.904 161.988C228.83 162.747 229.922 163.282 231.091 163.543C232.395 163.842 233.79 163.799 235.15 163.352C237.589 162.551 239.356 160.631 240.07 158.353C240.53 156.884 240.554 155.269 240.037 153.697C239.131 150.938 236.795 149.037 234.118 148.555C232.906 148.332 231.626 148.402 230.377 148.812C226.371 150.125 224.179 154.461 225.495 158.47ZM233.957 149.039C236.484 149.47 238.701 151.252 239.555 153.853C240.114 155.556 239.995 157.325 239.344 158.858C238.566 160.692 237.031 162.2 234.991 162.87C233.96 163.208 232.9 163.301 231.886 163.169C230.513 162.999 229.219 162.431 228.165 161.547C227.181 160.721 226.407 159.621 225.977 158.311C224.748 154.567 226.793 150.519 230.535 149.291C231.677 148.917 232.848 148.846 233.957 149.039Z" fill="#296DB3"/>
<path d="M61.5557 79.8224L97.0561 176.647C97.1986 177.036 97.6332 177.237 98.0219 177.095C98.4141 176.951 98.612 176.518 98.4695 176.129L63.2114 79.965C62.6598 79.9147 62.106 79.8692 61.5557 79.8224Z" fill="white"/>
<path d="M46.1589 157.621C44.0708 158.386 41.7574 157.314 40.9918 155.226C40.2262 153.138 41.2983 150.825 43.3864 150.059C45.4745 149.293 47.7879 150.366 48.5535 152.454C49.3191 154.542 48.247 156.855 46.1589 157.621Z" fill="#296DB3"/>
<path d="M47.7381 161.928C52.1974 160.293 54.4958 155.334 52.8608 150.874C51.2258 146.415 46.2664 144.117 41.8071 145.752C37.3478 147.387 35.0495 152.346 36.6844 156.805C38.3194 161.265 43.2753 163.564 47.7381 161.928ZM41.9354 146.101C46.2003 144.538 50.9424 146.735 52.5061 151C54.0699 155.265 51.8722 160.007 47.6072 161.571C43.3423 163.135 38.6002 160.937 37.0365 156.672C35.4741 152.411 37.6704 147.665 41.9354 146.101Z" fill="#296DB3"/>
<path d="M58.857 86.4563C58.0764 86.7425 57.2116 86.3418 56.9254 85.5612C56.6392 84.7806 57.04 83.9157 57.8206 83.6295C58.6012 83.3433 59.466 83.7441 59.7522 84.5247C60.0384 85.3053 59.6376 86.1701 58.857 86.4563Z" fill="#296DB3"/>
<path d="M236.558 102.888C239.441 101.831 240.927 98.6246 239.87 95.7413C238.813 92.858 235.607 91.372 232.723 92.4291C229.84 93.4863 228.354 96.6928 229.411 99.5761C230.465 102.461 233.671 103.947 236.558 102.888ZM232.982 93.1358C235.477 92.2212 238.249 93.5058 239.163 96.0004C240.078 98.4951 238.794 101.267 236.299 102.182C233.804 103.096 231.032 101.812 230.118 99.317C229.2 96.8236 230.488 94.0505 232.982 93.1358Z" fill="#296DB3"/>
<path d="M170.046 57.9471C170.479 59.1273 171.788 59.7337 172.968 59.301C174.148 58.8683 174.755 57.5597 174.322 56.3795C173.889 55.1993 172.581 54.5928 171.4 55.0255C170.22 55.4582 169.614 56.7669 170.046 57.9471Z" fill="#296DB3"/>
<path d="M-30.4602 161.009C-30.5327 158.286 -30.4168 155.453 -29.1682 153.031C-26.7985 148.43 -20.7323 146.619 -15.731 147.96C-10.7298 149.301 -6.74501 153.14 -3.8308 157.414C0.00795074 164.517 1.68081 169.932 2.31361 178.655C2.6207 182.904 2.32381 187.342 0.349933 191.12C-1.62394 194.898 -5.56748 197.864 -9.82449 197.689C-13.886 197.522 -17.3392 194.664 -19.9417 191.545C-26.9723 183.128 -30.1633 171.975 -30.4602 161.009Z" fill="#F4F7FB"/>
<path d="M70.1886 235.303C71.7825 242.481 84.8259 249.033 107.702 242.481C120.773 238.734 127.111 244.119 130.139 249.423C131.139 251.179 133.83 250.576 134.021 248.567C135.306 235.124 134.081 222.494 132.355 212.694C130.26 200.806 127.422 193.068 127.422 193.068L85.965 190.117C85.965 190.117 77.6731 208.262 73.0724 221.842C71.0168 227.923 69.6944 233.085 70.1886 235.303Z" fill="#9DDCA0"/>
<path d="M73.0724 221.842C93.2059 208.852 119.244 210.645 132.352 212.694C130.257 200.806 127.42 193.068 127.42 193.068L85.9627 190.117C85.965 190.115 77.6731 208.26 73.0724 221.842Z" fill="#9DDCA0"/>
<path d="M7.84146 156.099C7.84146 156.099 -0.578054 155.98 -7.9373 153.301C-8.61012 153.055 -9.22957 153.762 -8.91636 154.405C-7.85609 156.581 -4.81913 160.179 3.77903 161.196C16.3584 162.683 7.84146 156.099 7.84146 156.099Z" fill="#7F5C4C"/>
<path d="M72.1119 164.399L43.9092 163.856L45.3198 173.666L78.4596 177.937L80.0953 170.805L72.1119 164.399Z" fill="#7F5C4C"/>
<path d="M88.3129 73.4041C88.3129 73.4041 102.734 55.8784 125.601 64.2793C148.468 72.6803 149.236 97.8205 147.846 115.091C147.862 114.875 158.493 119.926 159.154 120.367C178.144 133.016 173.828 160.024 157.804 173.311C150.147 179.658 139.976 182.208 130.169 181.243C125.299 180.765 117.585 179.48 114.588 174.991C109.627 167.564 80.673 153.743 80.673 153.743C80.673 153.743 50.5887 142.006 79.6962 108.481C79.6962 108.484 41.6239 68.6897 88.3129 73.4041Z" fill="#202020"/>
<path d="M81.6892 115.919C80.8168 117.251 80.0373 118.648 79.3111 120.07C78.5872 121.495 77.926 122.956 77.3414 124.45C76.7567 125.947 76.2486 127.476 75.838 129.042C75.4343 130.61 75.1396 132.213 74.9842 133.847C74.6501 137.099 75.0027 140.535 76.3646 143.691C77.0513 145.264 78.0234 146.711 79.1556 148.011L80.0442 148.953C80.3574 149.247 80.6869 149.523 81.0094 149.809L81.4989 150.233L82.0186 150.609L83.0626 151.361L84.6565 148.718L83.7146 148.147L83.2413 147.862L82.8004 147.535C82.5104 147.315 82.2065 147.106 81.9212 146.876L81.1091 146.143C80.0697 145.124 79.1464 143.976 78.448 142.677C77.0653 140.074 76.4574 137.013 76.527 133.928C76.5479 132.383 76.7056 130.828 76.9724 129.285C77.2462 127.742 77.6221 126.211 78.0745 124.699C78.5292 123.186 79.0628 121.694 79.6661 120.225C80.2646 118.764 80.9259 117.316 81.6892 115.919Z" fill="#333333"/>
<path d="M139.431 119.601C142.955 120.513 146.254 122.162 149.175 124.288C152.094 126.415 154.655 129.039 156.592 132.058C157.558 133.566 158.383 135.164 159.022 136.835C159.669 138.5 160.156 140.224 160.451 141.978C161.063 145.481 160.917 149.103 160.003 152.5C159.07 155.889 157.351 159.045 154.964 161.585C154.379 162.23 153.734 162.817 153.08 163.39L152.05 164.204C151.876 164.337 151.711 164.483 151.53 164.603L150.987 164.975L150.447 165.346C150.268 165.471 150.087 165.592 149.894 165.701L148.765 166.369C148.386 166.587 147.987 166.773 147.6 166.974L147.015 167.274L146.412 167.536C140.013 170.378 132.654 171.03 125.93 169.408L125.255 172.42C127.13 172.784 129.021 173.016 130.916 173.09C132.812 173.132 134.707 173.074 136.584 172.83C140.331 172.348 144.006 171.301 147.393 169.633L148.031 169.327L148.651 168.984C149.061 168.749 149.481 168.536 149.88 168.285L151.073 167.522C151.275 167.399 151.467 167.262 151.655 167.121L152.226 166.701L152.794 166.281C152.985 166.142 153.159 165.979 153.34 165.831L154.418 164.914C155.11 164.265 155.79 163.601 156.402 162.877C158.901 160.021 160.636 156.537 161.499 152.882C162.348 149.221 162.358 145.4 161.59 141.765C161.219 139.943 160.648 138.171 159.917 136.47C159.196 134.765 158.286 133.148 157.235 131.631C155.131 128.596 152.428 126.023 149.398 123.974C146.366 121.928 142.985 120.39 139.431 119.601Z" fill="#333333"/>
<path d="M82.0812 171.571L83.9837 193.609L100.454 194.365L108.11 194.908L115.541 195.44L115.745 194.314L115.908 193.428L117.868 182.621L138.197 191.637C138.197 191.637 152.498 143.586 142.948 135.034C138.637 131.174 133.563 128.399 129.299 126.518C124.114 124.235 120.119 123.267 120.119 123.267L112.012 124.429C110.535 124.573 109.101 124.81 107.704 125.125C82.9768 130.705 71.4043 161.33 71.4043 161.33L82.0812 171.571Z" fill="#9DDCA0"/>
<path d="M87.6958 175.666C91.2455 180.923 98.1755 191.043 100.454 194.365L108.11 194.908L115.745 194.312L115.908 193.426L110.704 188.47L99.4168 179.125C99.4191 179.129 83.413 169.318 87.6958 175.666Z" fill="#9DDCA0"/>
<path d="M104.375 150.024C115.581 147.997 125.392 133.197 129.302 126.515C124.116 124.232 120.121 123.265 120.121 123.265L112.015 124.427C110.537 124.571 109.103 124.807 107.706 125.123C102.136 135.466 104.375 150.024 104.375 150.024Z" fill="white"/>
<path d="M106.458 144.507C110.17 145.398 118.133 136.002 119.483 133.796C123.281 127.606 122.151 122.044 118.1 115.889C115.945 112.616 115.945 112.616 114.537 109.732C113.822 108.268 113.036 107.136 112.117 106.85C111.885 106.778 111.65 106.744 111.411 106.737C110.632 106.718 109.813 107.045 109.001 107.59C106.405 109.344 103.804 113.367 102.222 115.847C104.514 118.476 106.88 121.643 108.303 125.051C108.857 126.369 109.27 127.722 109.483 129.093C109.971 132.218 104.048 143.927 106.458 144.507Z" fill="#A37661"/>
<path d="M102.219 115.85C104.512 118.478 106.878 121.645 108.3 125.053C113.298 121.114 114.386 114.154 114.534 109.732C113.82 108.268 113.033 107.135 112.115 106.85C111.883 106.778 111.648 106.743 111.409 106.736L108.999 107.59C106.405 109.346 103.804 113.372 102.219 115.85Z" fill="#7F5C4C"/>
<path d="M82.5591 94.5561C82.5615 97.1941 82.9442 100.31 83.7308 103.444C85.7492 111.421 90.4357 119.541 98.3866 120.348C101.915 120.706 105.505 119.397 107.98 116.845C110.156 114.599 112.685 112.14 113.841 109.182C113.912 108.982 113.966 108.783 113.987 108.569C114.066 107.736 113.667 106.792 112.52 105.588C110.787 103.771 108.961 102.881 107.702 101.117C107.196 100.412 106.781 99.5675 106.507 98.4608C106.052 96.6488 107.017 96.15 105.53 94.1873C104.537 92.8834 103.052 91.9925 101.554 91.4658C95.12 89.1968 88.8349 97.614 82.5591 94.5561Z" fill="#A37661"/>
<path d="M81.7239 160.27L74.7243 156.161C73.9865 155.727 73.033 155.996 72.6339 156.755L69.0146 163.588C68.7037 164.175 68.8847 164.903 69.4369 165.277L78.9607 171.71L83.4153 169.321L81.7239 160.27Z" fill="#9DDCA0"/>
<path d="M69.7269 173.355C69.8382 173.583 69.9913 173.852 70.1909 174.13C71.1073 175.42 73.0051 176.942 76.5734 175.678C77.9538 175.188 78.8006 174.65 79.2925 174.109C80.826 172.443 78.9584 170.81 78.9584 170.81C78.9584 170.81 78.3853 171.165 77.3924 171.578H77.39C76.81 171.819 76.0815 172.081 75.244 172.297C73.8125 172.675 72.0562 172.931 70.1236 172.773C69.8034 172.743 69.5853 173.07 69.7269 173.355Z" fill="#A37661"/>
<path d="M104.268 193.227L63.7017 190.164L64.7713 195.361L104.268 193.227Z" fill="#9DBCDC"/>
<path d="M70.1885 174.128C71.1049 175.418 73.0028 176.94 76.571 175.675C77.9515 175.186 78.7983 174.647 79.2902 174.107L79.485 172.689C79.485 172.689 78.5477 171.877 77.39 171.573H77.3877C76.8077 171.815 76.0792 172.077 75.2416 172.292C74.7219 173.336 73.2835 175.299 70.1885 174.128Z" fill="#7F5C4C"/>
<path d="M24.0192 196.078L68.6643 195.816L48.475 140.178L3.76276 140.255L24.0192 196.078Z" fill="white"/>
<path d="M22.1191 198.866L66.7641 198.604L46.575 142.967L1.86264 143.043L22.1191 198.866Z" fill="#9DBCDC"/>
<path d="M39 170.915L34.1791 166.092L29.3582 170.915L34.1791 175.739L39 170.915Z" fill="#296DB3"/>
<path d="M31.3072 176.162L26.0667 170.919L31.3072 165.676L36.5478 170.919L31.3072 176.162ZM26.9055 170.919L31.3072 175.323L35.709 170.919L31.3072 166.515L26.9055 170.919Z" fill="#296DB3"/>
<path d="M82.5591 94.5563C82.5615 97.1942 82.9442 100.31 83.7308 103.444C84.2365 103.683 84.7423 103.904 85.2295 104.096C87.2828 104.911 89.3407 106.052 91.6213 105.934C94.9343 105.762 96.8995 102.983 99.7903 101.841C102.159 100.904 104.966 100.354 107.474 101.036C107.549 101.057 107.627 101.083 107.702 101.115C107.196 100.41 106.781 99.5653 106.507 98.4586C106.052 96.6466 107.017 96.1478 105.53 94.185C104.537 92.8812 103.052 91.9903 101.554 91.4636C95.12 89.1969 88.8349 97.6141 82.5591 94.5563Z" fill="#7F5C4C"/>
<path d="M77.23 91.8882C78.6894 93.8857 80.5431 95.1896 82.601 95.9529C86.6379 97.461 91.4451 96.9111 95.5539 95.4634C97.6837 94.7163 101.08 93.4542 104.21 93.2129C104.338 93.192 104.463 93.1851 104.591 93.1805C107.535 93.025 110.173 93.8231 111.2 96.8647C115.704 99.0456 121.369 95.5585 118.186 89.4683C116.158 85.5938 112.135 83.2738 108.191 81.8121C102.762 79.7914 76.7915 79.4387 75.7127 87.4522C75.5364 88.7143 75.9819 90.1852 77.23 91.8882Z" fill="#202020"/>
<path d="M66.0751 186.536C66.1563 186.768 66.372 186.954 66.6667 186.956C68.6109 186.965 72.2047 186.095 76.1465 180.738L80.5639 184.397C80.7866 184.582 81.0882 184.645 81.3666 184.571L89.285 182.36C89.691 182.246 89.7583 181.692 89.3848 181.49C88.2897 180.896 86.2248 180.184 83.4268 181.012L82.5986 180.061C82.5986 180.061 88.0299 180.33 90.271 176.903C90.271 176.903 120.557 207.458 130.373 201.417C130.673 201.231 130.946 201.039 131.183 200.832C138.811 194.352 117.304 178.416 117.304 178.416L87.3547 166.98C86.835 166.781 86.2736 166.72 85.7237 166.799L80.7448 167.521C79.6289 167.681 78.6521 168.358 78.1046 169.344C76.1117 172.947 70.9402 181.817 66.2491 185.865C66.0403 186.051 65.9962 186.316 66.0751 186.536Z" fill="#A37661"/>
<path d="M78.6151 92.35C78.6267 92.4126 78.6336 92.4428 78.6429 92.4799L78.6684 92.5843C78.6847 92.6516 78.7032 92.7165 78.7218 92.7769C78.7589 92.9045 78.8007 93.0228 78.8424 93.1434C78.9306 93.3801 79.0257 93.6098 79.1324 93.8325C79.3459 94.2779 79.5918 94.7048 79.8795 95.0992C80.4479 95.895 81.1602 96.5771 81.9467 97.12C83.5406 98.1988 85.3966 98.6698 87.1807 98.7673C88.9741 98.8786 90.7328 98.6513 92.4334 98.28C94.1363 97.9065 95.7859 97.3752 97.3983 96.765C95.7302 97.1966 94.0412 97.5423 92.3429 97.7256C90.6492 97.9088 88.9394 97.9367 87.3084 97.6513C85.6797 97.3868 84.1345 96.7743 82.9629 95.7767C82.3852 95.2732 81.8956 94.6863 81.5314 94.0343C81.3458 93.7118 81.1973 93.3685 81.0743 93.0205C81.014 92.8465 80.963 92.6725 80.9189 92.4984C80.9003 92.4126 80.8794 92.3244 80.8655 92.2432C80.8562 92.2015 80.8516 92.1597 80.847 92.1226L80.84 92.0669C80.8377 92.053 80.8354 92.0275 80.8377 92.0391L78.6151 92.35Z" fill="#202020"/>
<path d="M143.904 116.752C144.398 116.71 144.973 116.696 145.514 116.694C146.064 116.689 146.616 116.703 147.168 116.726C148.275 116.768 149.377 116.882 150.477 117.026C152.671 117.332 154.845 117.828 156.938 118.554C159.031 119.283 161.042 120.246 162.887 121.471C164.731 122.693 166.404 124.181 167.826 125.888L168.364 126.526L168.847 127.206C169.16 127.665 169.515 128.099 169.777 128.593C170.056 129.076 170.348 129.554 170.617 130.043L171.339 131.561L171.52 131.941L171.668 132.336L171.965 133.124L172.262 133.913C172.371 134.173 172.425 134.452 172.508 134.721L172.972 136.347C173.102 136.895 173.202 137.451 173.318 138.004C173.58 139.106 173.663 140.235 173.821 141.358L173.875 141.781C173.888 141.922 173.893 142.064 173.902 142.205L173.951 143.054L174.049 144.755C174.049 145.889 174.039 147.026 174.023 148.163L173.793 151.569L174.162 148.17C174.225 147.033 174.281 145.892 174.329 144.75L174.304 143.036L174.29 142.177C174.285 142.033 174.288 141.892 174.281 141.748L174.243 141.321C174.132 140.182 174.093 139.034 173.875 137.904C173.779 137.338 173.703 136.767 173.592 136.203L173.188 134.526C173.114 134.247 173.067 133.962 172.97 133.691L172.698 132.869L172.427 132.046L172.29 131.635L172.121 131.236L171.438 129.637C171.181 129.118 170.898 128.612 170.629 128.097C170.376 127.573 170.028 127.104 169.719 126.61L169.241 125.877L168.705 125.185C167.288 123.334 165.587 121.689 163.689 120.318C161.792 118.942 159.706 117.835 157.53 116.977C155.353 116.118 153.087 115.501 150.788 115.084C149.637 114.884 148.477 114.717 147.31 114.624C146.725 114.573 146.14 114.536 145.551 114.515C144.955 114.494 144.389 114.483 143.746 114.508L143.904 116.752Z" fill="#202020"/>
<path d="M97.3728 73.26C94.7001 73.3343 92.0204 73.3343 89.3709 73.1162C88.0508 73.0234 86.7283 72.8285 85.3873 72.6893C84.051 72.5454 82.7053 72.4271 81.3504 72.3691C78.6545 72.2647 75.8751 72.2345 73.1977 73.0141C72.5319 73.2043 71.8753 73.4433 71.235 73.7124C70.9194 73.8655 70.5993 74.0001 70.2953 74.1741C70.1422 74.2576 69.9868 74.3365 69.836 74.4247L69.3952 74.7077C68.2212 75.4594 67.2143 76.4849 66.5276 77.6612L66.6389 77.747C67.6296 76.8399 68.7038 76.1021 69.88 75.5685C71.0494 75.0302 72.279 74.6381 73.5434 74.3713C74.8032 74.0929 76.0885 73.8957 77.3901 73.7403C78.6893 73.5755 80.0094 73.5013 81.3319 73.4874C82.6543 73.4735 83.9837 73.5199 85.3131 73.5941C86.6425 73.6614 87.9812 73.7867 89.3361 73.8122C90.6864 73.8307 92.032 73.7983 93.373 73.724C94.714 73.6544 96.0527 73.5477 97.3844 73.3946L97.3728 73.26Z" fill="white"/>
<path d="M125.585 158.574C125.585 158.574 122.197 170.429 120.947 176.877L118.931 175.642L114.455 177.394L126.617 153.569L125.585 158.574Z" fill="#9DDCA0"/>
<path d="M140.67 182.48C140.67 182.48 134.842 184.626 128.063 181.239L139.208 188.069L140.67 182.48Z" fill="#9DDCA0"/>
<path d="M95.1085 142.695C95.1085 142.695 93.2292 149.897 91.5379 151.152C89.8465 152.405 83.9049 157.147 83.4061 161.882L76.8171 157.391C76.8171 157.391 87.5404 156.546 95.1085 142.695Z" fill="#9DDCA0"/>
<path d="M95.4588 141.303C94.9182 143.707 94.1735 146.073 93.0065 148.205C92.7188 148.746 92.4102 149.242 92.0506 149.716C91.6817 150.182 91.2803 150.625 90.8511 151.047C89.988 151.89 89.0368 152.66 88.0925 153.479C87.6216 153.89 87.146 154.305 86.6959 154.76C86.2458 155.207 85.7911 155.699 85.4082 156.2C84.6148 157.198 83.942 158.312 83.4547 159.518C82.9675 160.72 82.6845 162.033 82.7054 163.346C82.7332 164.657 83.116 165.954 83.8074 167.007L83.935 166.949C83.6218 165.747 83.5359 164.553 83.6914 163.397C83.7912 162.822 83.8932 162.251 84.0881 161.701C84.167 161.423 84.283 161.151 84.3781 160.88C84.5011 160.613 84.6032 160.342 84.7401 160.082C85.2482 159.029 85.8537 158.01 86.5288 157.022C86.8583 156.514 87.2086 156.068 87.603 155.613C87.9928 155.163 88.422 154.736 88.8559 154.305C89.7305 153.453 90.6562 152.614 91.5123 151.681C91.9369 151.212 92.3406 150.716 92.7072 150.191C93.0668 149.66 93.38 149.087 93.6398 148.521C94.1618 147.375 94.5679 146.187 94.888 144.983C95.2105 143.779 95.4425 142.556 95.6026 141.329L95.4588 141.303Z" fill="#9DDCA0"/>
<path d="M78.3668 158.36C77.7915 157.75 77.1581 157.202 76.4876 156.68C75.7939 156.184 75.0955 155.685 74.1049 155.471C73.8543 155.425 73.5713 155.397 73.2465 155.467C73.1676 155.488 73.0794 155.513 73.0052 155.539L72.8149 155.622C72.7523 155.652 72.685 155.68 72.627 155.713L72.4576 155.819C72.0122 156.116 71.7036 156.515 71.4925 156.928C71.2814 157.344 71.1468 157.778 71.0702 158.216C71.0006 158.657 70.9774 159.102 71.0656 159.559L71.2025 159.594C71.7894 158.917 72.2233 158.242 72.6827 157.673C72.91 157.39 73.1165 157.128 73.3184 156.912L73.3926 156.829C73.4181 156.803 73.446 156.787 73.4715 156.764L73.5504 156.694C73.5713 156.68 73.5829 156.671 73.5991 156.657C73.6734 156.608 73.8126 156.583 73.968 156.585C74.2858 156.592 74.6594 156.689 75.0213 156.819C75.3902 156.942 75.7591 157.102 76.121 157.279C76.8565 157.618 77.5687 158.037 78.2763 158.467L78.3668 158.36Z" fill="#9DDCA0"/>
<path d="M90.2711 176.902C90.2711 176.902 120.557 207.457 130.373 201.416C130.673 201.23 130.946 201.038 131.183 200.831L127.42 193.068L114.708 177.907L116.151 187.67C116.423 189.514 114.402 190.825 112.829 189.825L91.2966 176.137C91.2966 176.137 91.9044 173.241 90.2177 171.698C90.22 171.698 91.0158 174.619 90.2711 176.902Z" fill="#7F5C4C"/>
<path d="M141.633 192.069C141.417 195.934 140.101 203.04 133.445 204.446C130.42 205.084 127.348 203.558 125.979 200.783L114.455 177.394L118.931 175.643L139.702 188.375C140.978 189.155 141.716 190.575 141.633 192.069Z" fill="#9DDCA0"/>
<path d="M136.584 186.38C134.849 185.185 133.092 184.023 131.348 182.842L128.717 181.093L126.074 179.362C125.197 178.779 124.323 178.192 123.453 177.599C122.578 177.012 121.682 176.457 120.766 175.942L120.592 175.847L120.383 175.738C120.237 175.668 120.088 175.606 119.935 175.555C119.629 175.455 119.314 175.39 118.996 175.376C118.678 175.362 118.362 175.392 118.056 175.462C117.903 175.497 117.755 175.541 117.608 175.596C117.462 175.652 117.321 175.724 117.212 175.78C116.267 176.255 115.332 176.754 114.428 177.325L114.479 177.455C115.532 177.257 116.557 176.991 117.571 176.698C117.706 176.659 117.81 176.631 117.917 176.612C118.024 176.592 118.13 176.575 118.237 176.568C118.451 176.552 118.664 176.564 118.87 176.606C119.077 176.645 119.276 176.703 119.462 176.789C119.555 176.831 119.645 176.882 119.731 176.935L120.028 177.134C120.905 177.719 121.803 178.267 122.724 178.777C123.647 179.283 124.569 179.796 125.485 180.313L128.225 181.881L130.977 183.431C132.821 184.45 134.654 185.487 136.505 186.491L136.584 186.38Z" fill="#9DDCA0"/>
<path d="M123.42 201.451C121.388 200.565 119.437 199.498 117.543 198.356C115.639 197.229 113.797 196.001 111.996 194.721C111.11 194.059 110.217 193.412 109.365 192.707C108.934 192.361 108.491 192.034 108.054 191.695C107.621 191.357 107.175 191.027 106.73 190.702L106.052 190.224C105.829 190.06 105.611 189.89 105.386 189.73C104.934 189.41 104.491 189.081 104.027 188.772C103.12 188.132 102.215 187.484 101.24 186.904L101.145 187.009C101.851 187.888 102.6 188.728 103.389 189.526C104.191 190.308 104.999 191.09 105.862 191.804C107.556 193.28 109.488 194.445 111.37 195.651C113.272 196.832 115.212 197.952 117.205 198.969C117.708 199.215 118.205 199.47 118.715 199.699C119.221 199.938 119.729 200.168 120.244 200.389C121.269 200.832 122.307 201.247 123.376 201.583L123.42 201.451Z" fill="#9DDCA0"/>
<path d="M77.7427 170.019C76.9052 171.158 76.121 172.325 75.3415 173.494C74.5596 174.661 73.8474 175.873 73.0794 177.049C72.3161 178.23 71.5203 179.387 70.7083 180.534C69.9032 181.687 69.0587 182.81 68.191 183.919L68.2351 183.956C69.1608 182.895 70.0657 181.812 70.9334 180.703C71.7941 179.587 72.6386 178.455 73.4506 177.304C74.2626 176.151 75.0955 175.009 75.8148 173.796C76.534 172.583 77.2184 171.346 77.7891 170.049L77.7427 170.019Z" fill="white"/>
<path d="M77.745 176.398C77.1604 177.825 76.5595 179.245 75.9864 180.677L75.9423 180.786L76.0375 180.867L78.1998 182.753C78.5594 183.066 78.912 183.391 79.2786 183.7C79.6382 184.015 80.0117 184.312 80.3899 184.607L80.4409 184.646L80.4804 184.656C80.7866 184.732 81.0604 184.765 81.3504 184.765C81.6358 184.767 81.9235 184.741 82.2019 184.679C82.761 184.567 83.2807 184.301 83.696 183.946L83.6658 183.899C83.4153 184.006 83.174 184.117 82.9164 184.173C82.6635 184.243 82.406 184.282 82.1485 184.301C81.891 184.317 81.6334 184.314 81.3806 184.284C81.1323 184.254 80.8655 184.208 80.6521 184.134L80.7425 184.182C80.3829 183.867 80.0233 183.554 79.6452 183.259C79.2739 182.957 78.8911 182.672 78.5153 182.377L76.2602 180.605L76.3112 180.795C76.8216 179.34 77.3042 177.876 77.803 176.417L77.745 176.398Z" fill="white"/>
<path d="M66.7549 198.6H102.827L104.268 193.227L65.4533 195.006L66.7549 198.6Z" fill="white"/>
<path d="M0.941529 159.551L-0.0862444 162.061C-0.213848 162.372 -0.130351 162.727 0.120216 162.95L0.665454 163.432C1.29419 163.989 1.6213 164.815 1.54242 165.653L1.36841 167.488C1.33593 167.829 1.50994 168.156 1.81155 168.321L2.57719 168.738C3.22912 169.093 3.63512 169.775 3.63512 170.515V171.875C3.63512 172.258 3.91122 172.587 4.28939 172.652L7.50036 173.214C8.3263 173.357 9.17545 173.139 9.82507 172.608C11.3981 171.327 14.5998 168.903 17.6623 167.72C17.6623 167.72 16.3212 165.302 12.746 166.04C12.746 166.04 11.3609 155.479 2.30341 158.293C1.69091 158.488 1.18746 158.95 0.941529 159.551Z" fill="#A37661"/>
<path d="M16.6739 166.654C16.0429 166.267 15.326 166.042 14.5905 165.919C13.855 165.808 13.0964 165.812 12.3517 165.938C11.6185 166.084 10.8645 166.267 10.2218 166.668C9.89005 166.847 9.60237 167.095 9.30541 167.32C9.027 167.569 8.76945 167.845 8.53281 168.128L8.56994 168.169C8.91098 168.009 9.21956 167.821 9.53277 167.645C9.69749 167.569 9.85292 167.483 10.0107 167.402C10.1661 167.316 10.3216 167.228 10.4863 167.165C10.6464 167.091 10.8065 167.019 10.9643 166.938C11.122 166.861 11.2891 166.803 11.4491 166.729C11.767 166.569 12.108 166.483 12.4468 166.376C13.1335 166.207 13.8481 166.144 14.5604 166.197C15.2726 166.242 15.9895 166.404 16.6461 166.703L16.6739 166.654Z" fill="white"/>
<path d="M111.644 104.336C113.819 104.336 115.583 102.038 115.583 99.2038C115.583 96.3694 113.819 94.0718 111.644 94.0718C109.468 94.0718 107.704 96.3694 107.704 99.2038C107.704 102.038 109.468 104.336 111.644 104.336Z" fill="#202020"/>
<path d="M99.7949 89.1294C101.215 90.1967 102.672 91.2152 103.744 92.4866C104.836 93.7371 105.282 95.2637 105.611 96.9759C105.792 97.8227 105.957 98.7136 106.242 99.6138C106.525 100.507 106.925 101.419 107.516 102.215C108.676 103.771 110.263 104.911 111.887 105.72C113.509 106.558 115.17 107.168 116.722 107.931C117.504 108.307 118.242 108.732 118.94 109.224C119.645 109.708 120.302 110.265 120.917 110.871C122.163 112.066 123.221 113.465 124.139 114.952C125.056 116.444 125.835 118.026 126.536 119.645C126.555 119.687 126.603 119.708 126.647 119.689C126.689 119.671 126.708 119.624 126.694 119.585C126.401 118.75 126.086 117.921 125.743 117.102C125.395 116.286 125.007 115.483 124.589 114.694C123.745 113.124 122.747 111.615 121.52 110.284C120.307 108.947 118.817 107.82 117.228 106.961C115.648 106.091 114.012 105.398 112.534 104.539C111.794 104.11 111.094 103.641 110.477 103.096C109.862 102.551 109.321 101.943 108.887 101.268C108.031 99.9595 107.702 98.3331 107.252 96.5931C107.01 95.7277 106.755 94.8252 106.326 93.9621C106.217 93.7464 106.108 93.5329 105.973 93.3287C105.853 93.1199 105.711 92.9204 105.567 92.7232C105.275 92.3358 104.948 91.9831 104.595 91.6676C103.187 90.3985 101.53 89.6398 99.8785 88.9879C99.8344 88.9717 99.7857 88.9925 99.7671 89.0366C99.7532 89.0668 99.7648 89.1062 99.7949 89.1294Z" fill="#333333"/>
<path d="M3.76279 140.255L1.86264 143.044L7.1083 143.034L3.76279 140.255Z" fill="white"/>
<path d="M115.462 100.961C117.398 100.729 118.679 98.148 118.325 95.1964C117.97 92.2448 116.114 90.0404 114.179 90.2727C112.244 90.505 110.963 93.0861 111.317 96.0377C111.671 98.9893 113.527 101.194 115.462 100.961Z" fill="#C2E5C2"/>
<path d="M115.78 96.0898L116.826 95.765C116.42 94.4519 106.748 63.6136 95.9132 62.8178C92.4447 62.5626 89.2825 65.3582 86.5193 71.1259L87.5076 71.5992C90.0574 66.2793 92.8577 63.6924 95.832 63.9105C99.9525 64.2121 104.699 69.836 109.562 80.1695C113.288 88.0879 115.757 96.0109 115.78 96.0898Z" fill="#C2E5C2"/>
<path d="M103.718 111.24C107.75 109.407 111.021 105.649 113.056 102.818C115.249 99.7698 116.481 97.1876 116.534 97.0808L115.543 96.6099C115.495 96.7119 110.583 106.913 103.266 110.24L103.718 111.24Z" fill="#C2E5C2"/>
<path d="M103.538 113.135C105.221 112.349 106.151 110.78 105.614 109.631C105.077 108.481 103.277 108.187 101.594 108.973C99.9106 109.76 98.9812 111.329 99.518 112.478C100.055 113.627 101.855 113.921 103.538 113.135Z" fill="#C2E5C2"/>
<path d="M116.858 100.437C118.489 100.241 119.569 98.0663 119.27 95.5791C118.972 93.0919 117.408 91.2343 115.777 91.4301C114.146 91.6259 113.065 93.801 113.364 96.2882C113.663 98.7754 115.227 100.633 116.858 100.437Z" fill="#F4FBF4"/>
</svg>
