<svg width="20" height="15" viewBox="0 0 20 15" fill="none" xmlns="http://www.w3.org/2000/svg">
<path d="M0.815596 8.00661C0.67014 7.87186 0.597412 7.66973 0.597412 7.53497C0.597412 7.40022 0.67014 7.19808 0.815596 7.06333L1.83379 6.12004C2.1247 5.85053 2.56107 5.85053 2.85198 6.12004L2.92471 6.18742L6.92475 10.1627C7.07021 10.2974 7.28839 10.2974 7.43385 10.1627L17.1794 0.797225H17.2521C17.543 0.527715 17.9794 0.527715 18.2703 0.797225L19.2885 1.74051C19.5794 2.01002 19.5794 2.41428 19.2885 2.68379L7.65203 13.8685C7.50658 14.0032 7.36112 14.0706 7.14293 14.0706C6.92475 14.0706 6.77929 14.0032 6.63384 13.8685L0.961052 8.20875L0.815596 8.00661Z" fill="#9DBCDC"/>
</svg>
