<svg width="20" height="14" viewBox="0 0 20 14" fill="none" xmlns="http://www.w3.org/2000/svg">
<path d="M1.14616 7.50344C1.00071 7.36869 0.927979 7.16655 0.927979 7.0318C0.927979 6.89704 1.00071 6.69491 1.14616 6.56016L2.16436 5.61687C2.45527 5.34736 2.89164 5.34736 3.18255 5.61687L3.25528 5.68425L7.25532 9.65952C7.40077 9.79427 7.61896 9.79427 7.76441 9.65952L17.51 0.294051H17.5827C17.8736 0.0245415 18.31 0.0245415 18.6009 0.294051L19.6191 1.23734C19.91 1.50685 19.91 1.91111 19.6191 2.18062L7.9826 13.3653C7.83714 13.5 7.69169 13.5674 7.4735 13.5674C7.25532 13.5674 7.10986 13.5 6.96441 13.3653L1.29162 7.70557L1.14616 7.50344Z" fill="#29B32F"/>
</svg>
