<svg width="56" height="56" viewBox="0 0 56 56" fill="none" xmlns="http://www.w3.org/2000/svg">
<circle cx="28" cy="28" r="28" fill="#D8E4F1"/>
<path d="M18.1562 27.125C18.8181 27.125 19.4171 26.8595 19.8597 26.4331L22.2879 27.6471C22.2758 27.746 22.2578 27.8432 22.2578 27.9453C22.2578 29.3022 23.3618 30.4062 24.7188 30.4062C26.0757 30.4062 27.1797 29.3022 27.1797 27.9453C27.1797 27.5666 27.0865 27.2119 26.933 26.8911L30.227 23.597C30.5479 23.7506 30.9025 23.8438 31.2812 23.8438C32.6382 23.8438 33.7422 22.7397 33.7422 21.3828C33.7422 21.1273 33.692 20.8857 33.6194 20.6539L36.4815 18.5079C36.872 18.7687 37.34 18.9219 37.8438 18.9219C39.2007 18.9219 40.3047 17.8179 40.3047 16.4609C40.3047 15.104 39.2007 14 37.8438 14C36.4868 14 35.3828 15.104 35.3828 16.4609C35.3828 16.7164 35.433 16.958 35.5056 17.1898L32.6435 19.3359C32.253 19.075 31.785 18.9219 31.2812 18.9219C29.9243 18.9219 28.8203 20.0259 28.8203 21.3828C28.8203 21.7616 28.9135 22.1162 29.067 22.437L25.773 25.7311C25.4521 25.5775 25.0975 25.4844 24.7188 25.4844C24.0569 25.4844 23.4579 25.7499 23.0153 26.1763L20.5871 24.9623C20.5992 24.8634 20.6172 24.7662 20.6172 24.6641C20.6172 23.3071 19.5132 22.2031 18.1562 22.2031C16.7993 22.2031 15.6953 23.3071 15.6953 24.6641C15.6953 26.021 16.7993 27.125 18.1562 27.125Z" fill="#296DB3"/>
<path d="M41.1797 40.3594H40.3047V23.0234C40.3047 22.5701 39.9377 22.2031 39.4844 22.2031H36.2031C35.7498 22.2031 35.3828 22.5701 35.3828 23.0234V40.3594H33.7422V27.9453C33.7422 27.492 33.3752 27.125 32.9219 27.125H29.6406C29.1873 27.125 28.8203 27.492 28.8203 27.9453V40.3594H27.1797V34.5078C27.1797 34.0545 26.8127 33.6875 26.3594 33.6875H23.0781C22.6248 33.6875 22.2578 34.0545 22.2578 34.5078V40.3594H20.6172V31.2266C20.6172 30.7733 20.2502 30.4062 19.7969 30.4062H16.5156C16.0623 30.4062 15.6953 30.7733 15.6953 31.2266V40.3594H14.8203C14.367 40.3594 14 40.7264 14 41.1797C14 41.633 14.367 42 14.8203 42H41.1797C41.633 42 42 41.633 42 41.1797C42 40.7264 41.633 40.3594 41.1797 40.3594Z" fill="#296DB3"/>
</svg>
