<svg width="56" height="56" viewBox="0 0 56 56" fill="none" xmlns="http://www.w3.org/2000/svg">
<circle cx="28" cy="28" r="28" fill="#991FA4"/>
<rect width="56" height="56" rx="10" fill="#29B32F"/>
<path d="M25.8139 35.4971H39.0165C40.1114 35.4971 41 36.3716 41 37.4497V41.0002H23.8304V37.4497C23.8304 36.3716 24.7189 35.4971 25.8139 35.4971Z" fill="white"/>
<path d="M14.9407 35.7724L26.9924 23.9088L24.6646 21.6214C24.2808 21.9546 23.6906 21.9383 23.3274 21.5808C22.9477 21.203 22.9477 20.5976 23.3274 20.2197L28.3462 15.2834C28.7259 14.9055 29.345 14.9055 29.7247 15.2834C30.1085 15.6572 30.1085 16.2666 29.7247 16.6404L29.766 16.5997L36.1386 22.8687L36.0973 22.9133C36.477 22.5355 37.0961 22.5355 37.4758 22.9133C37.8596 23.2871 37.8596 23.8966 37.4758 24.2704L32.4611 29.2108C32.0773 29.5846 31.4582 29.5846 31.0785 29.2108C30.6987 28.8329 30.6987 28.2276 31.0785 27.8498L31.0372 27.8903L28.7094 25.603L16.6618 37.4625C16.1872 37.9297 15.4153 37.9297 14.9407 37.4625C14.4661 36.9953 14.4661 36.2396 14.9407 35.7724Z" fill="white"/>
</svg>
