<svg width="56" height="56" viewBox="0 0 56 56" fill="none" xmlns="http://www.w3.org/2000/svg">
<circle cx="28" cy="28" r="28" fill="#ECD6EE"/>
<path d="M29.9998 27.9999C33.2991 27.9999 36.2141 24.893 36.4997 21.0737C36.6416 19.155 36.0397 17.3656 34.8048 16.0362C33.5829 14.7231 31.8748 14 29.9998 14C28.1098 14 26.4004 14.7187 25.1873 16.0237C23.9605 17.3431 23.3623 19.1362 23.4998 21.0725C23.7805 24.8924 26.6948 27.9999 29.9998 27.9999Z" fill="#991FA4"/>
<path d="M42.9611 39.4848C42.4336 36.5586 40.7867 34.1005 38.1993 32.3755C35.9012 30.8436 32.9893 29.9999 29.9999 29.9999C27.0106 29.9999 24.0987 30.8436 21.8006 32.3749C19.2131 34.0998 17.5663 36.558 17.0388 39.4842C16.9182 40.1548 17.0819 40.8179 17.4882 41.3035C17.6724 41.5249 17.9038 41.7022 18.1653 41.8227C18.4269 41.9431 18.7121 42.0036 19 41.9998H40.9999C41.288 42.0039 41.5733 41.9436 41.8351 41.8232C42.0969 41.7029 42.3285 41.5255 42.513 41.3042C42.918 40.8186 43.0817 40.1554 42.9611 39.4848Z" fill="#991FA4"/>
<path d="M18.5 29.9999V27.5H20.9999C21.2652 27.5 21.5195 27.3946 21.707 27.2071C21.8946 27.0195 21.9999 26.7652 21.9999 26.5C21.9999 26.2348 21.8946 25.9804 21.707 25.7929C21.5195 25.6053 21.2652 25.5 20.9999 25.5H18.5V23C18.5 22.7348 18.3946 22.4804 18.2071 22.2929C18.0195 22.1054 17.7652 22 17.5 22C17.2348 22 16.9804 22.1054 16.7929 22.2929C16.6053 22.4804 16.5 22.7348 16.5 23V25.5H14C13.7348 25.5 13.4804 25.6053 13.2929 25.7929C13.1054 25.9804 13 26.2348 13 26.5C13 26.7652 13.1054 27.0195 13.2929 27.2071C13.4804 27.3946 13.7348 27.5 14 27.5H16.5V29.9999C16.5 30.2652 16.6053 30.5195 16.7929 30.707C16.9804 30.8946 17.2348 30.9999 17.5 30.9999C17.7652 30.9999 18.0195 30.8946 18.2071 30.707C18.3946 30.5195 18.5 30.2652 18.5 29.9999Z" fill="#991FA4"/>
</svg>
