<svg width="56" height="56" viewBox="0 0 56 56" fill="none" xmlns="http://www.w3.org/2000/svg">
<circle cx="28" cy="28" r="28" fill="#991FA4"/>
<rect width="56" height="56" rx="10" fill="#1F74A4"/>
<path d="M28.027 27.9999C31.3333 27.9999 34.2543 24.893 34.5405 21.0737C34.6827 19.155 34.0796 17.3656 32.842 16.0362C31.6176 14.7231 29.9059 14 28.027 14C26.1331 14 24.4202 14.7187 23.2045 16.0237C21.9751 17.3431 21.3758 19.1362 21.5135 21.0724C21.7948 24.8924 24.7152 27.9999 28.027 27.9999Z" fill="white"/>
<path d="M41.0152 39.4848C40.4866 36.5586 38.8363 34.1005 36.2434 32.3755C33.9405 30.8436 31.0226 29.9999 28.027 29.9999C25.0314 29.9999 22.1135 30.8436 19.8106 32.3749C17.2178 34.0999 15.5675 36.558 15.0389 39.4842C14.918 40.1548 15.0821 40.8179 15.4892 41.3036C15.6738 41.5249 15.9057 41.7022 16.1678 41.8227C16.4299 41.9431 16.7156 42.0036 17.0042 41.9998H39.0499C39.3386 42.0039 39.6245 41.9436 39.8869 41.8232C40.1492 41.7029 40.3813 41.5255 40.5661 41.3042C40.972 40.8186 41.1361 40.1554 41.0152 39.4848Z" fill="white"/>
</svg>
