<svg width="56" height="56" viewBox="0 0 56 56" fill="none" xmlns="http://www.w3.org/2000/svg">
<circle cx="28" cy="28" r="28" fill="#E5CCC0"/>
<path d="M40.9184 27.0602C40.8653 26.9331 40.7893 26.8175 40.6924 26.7206L37.5685 23.5967C37.1612 23.1904 36.5028 23.1904 36.0956 23.5967C35.6883 24.004 35.6883 24.6633 36.0956 25.0696L37.4424 26.4164H31.6237C31.0477 26.4164 30.582 26.8831 30.582 27.4581C30.582 28.0331 31.0477 28.4997 31.6237 28.4997H37.4424L36.0955 29.8466C35.6882 30.2539 35.6882 30.9132 36.0955 31.3195C36.2986 31.5236 36.5653 31.6247 36.832 31.6247C37.0987 31.6247 37.3653 31.5237 37.5685 31.3195L40.6924 28.1955C40.7893 28.0997 40.8653 27.9841 40.9184 27.8559C41.0236 27.6019 41.0236 27.3144 40.9184 27.0602Z" fill="#7F5C4C"/>
<path d="M33.7072 30.5833C33.1312 30.5833 32.6656 31.0499 32.6656 31.6249V36.8332H28.4989V20.1666C28.4989 19.7073 28.1968 19.301 27.7562 19.1687L24.1385 18.0833H32.6656V23.2917C32.6656 23.8667 33.1312 24.3333 33.7072 24.3333C34.2832 24.3333 34.7489 23.8667 34.7489 23.2917V17.0417C34.7489 16.4666 34.2832 16 33.7072 16H17.0407C17.0032 16 16.9698 16.0156 16.9334 16.0198C16.8844 16.025 16.8396 16.0333 16.7928 16.0448C16.6834 16.0729 16.5844 16.1156 16.4917 16.1739C16.4688 16.1885 16.4407 16.1895 16.4188 16.2062C16.4104 16.2125 16.4073 16.224 16.399 16.2302C16.2854 16.3198 16.1907 16.4291 16.1219 16.5594C16.1073 16.5875 16.1042 16.6177 16.0928 16.6469C16.0594 16.726 16.023 16.8031 16.0105 16.8906C16.0053 16.9219 16.0146 16.951 16.0136 16.9812C16.0126 17.0021 15.999 17.0208 15.999 17.0416V37.8749C15.999 38.3717 16.35 38.7988 16.8365 38.8957L27.2531 40.979C27.3208 40.9936 27.3896 40.9999 27.4573 40.9999C27.6958 40.9999 27.9302 40.9176 28.1176 40.7634C28.3583 40.5655 28.4989 40.2707 28.4989 39.9582V38.9166H33.7072C34.2832 38.9166 34.7489 38.4499 34.7489 37.8749V31.6249C34.7489 31.0499 34.2832 30.5833 33.7072 30.5833Z" fill="#7F5C4C"/>
</svg>
