<svg width="56" height="56" viewBox="0 0 56 56" fill="none" xmlns="http://www.w3.org/2000/svg">
<circle cx="28" cy="28" r="28" fill="#991FA4"/>
<rect width="56" height="56" rx="10" fill="#7F5C4C"/>
<path d="M42.9089 26.8294C42.8473 26.6819 42.759 26.5478 42.6466 26.4354L39.0221 22.8108C38.5495 22.3394 37.7857 22.3394 37.3131 22.8108C36.8406 23.2833 36.8406 24.0484 37.3131 24.5197L38.8758 26.0824H32.1246C31.4563 26.0824 30.916 26.6239 30.916 27.291C30.916 27.9581 31.4563 28.4996 32.1246 28.4996H38.8758L37.3131 30.0623C36.8405 30.5348 36.8405 31.2999 37.3131 31.7712C37.5487 32.0081 37.8581 32.1254 38.1676 32.1254C38.477 32.1254 38.7864 32.0081 39.0221 31.7712L42.6466 28.1466C42.759 28.0354 42.8473 27.9013 42.9089 27.7526C43.0309 27.4578 43.0309 27.1243 42.9089 26.8294Z" fill="white"/>
<path d="M34.5421 30.9171C33.8738 30.9171 33.3335 31.4586 33.3335 32.1257V38.1687H28.4992V18.8312C28.4992 18.2982 28.1487 17.8268 27.6375 17.6734L23.44 16.414H33.3335V22.457C33.3335 23.1242 33.8738 23.6656 34.5421 23.6656C35.2104 23.6656 35.7507 23.1242 35.7507 22.457V15.2055C35.7507 14.5383 35.2104 13.9968 34.5421 13.9968H15.2047C15.1612 13.9968 15.1225 14.015 15.0802 14.0198C15.0234 14.0258 14.9714 14.0355 14.917 14.0488C14.7901 14.0814 14.6753 14.131 14.5678 14.1986C14.5412 14.2156 14.5086 14.2168 14.4832 14.2361C14.4734 14.2434 14.4698 14.2567 14.4601 14.2639C14.3284 14.3678 14.2185 14.4947 14.1387 14.6458C14.1217 14.6785 14.1181 14.7135 14.1049 14.7474C14.0662 14.8392 14.0239 14.9287 14.0094 15.0302C14.0033 15.0664 14.0142 15.1003 14.013 15.1353C14.0118 15.1595 13.9961 15.1813 13.9961 15.2054V39.3773C13.9961 39.9538 14.4034 40.4493 14.9678 40.5617L27.0537 42.9789C27.1323 42.9958 27.212 43.0031 27.2906 43.0031C27.5673 43.0031 27.8392 42.9076 28.0568 42.7287C28.336 42.4991 28.4991 42.157 28.4991 41.7945V40.5859H34.5421C35.2104 40.5859 35.7507 40.0445 35.7507 39.3773V32.1257C35.7507 31.4586 35.2104 30.9171 34.5421 30.9171Z" fill="white"/>
</svg>
