<svg width="56" height="56" viewBox="0 0 56 56" fill="none" xmlns="http://www.w3.org/2000/svg">
<circle cx="28" cy="28" r="28" fill="#FAF4C3"/>
<path d="M40.0534 17.159H34.8155V15H32.9223V17.159H23.0777V15H21.1845V17.159H15.9466C15.4102 17.159 15 17.5599 15 18.0842V40.0747C15 40.5991 15.4102 41 15.9466 41H40.0534C40.5898 41 41 40.5991 41 40.0747V18.0842C41 17.5907 40.5898 17.159 40.0534 17.159ZM21.4684 36.2503C20.4272 36.2503 19.6068 35.4484 19.6068 34.4306C19.6068 33.4128 20.4272 32.6109 21.4684 32.6109C22.5097 32.6109 23.3301 33.4128 23.3301 34.4306C23.3301 35.4484 22.5097 36.2503 21.4684 36.2503ZM21.4684 30.8221C20.4272 30.8221 19.6068 30.0202 19.6068 29.0024C19.6068 27.9846 20.4272 27.1827 21.4684 27.1827C22.5097 27.1827 23.3301 27.9846 23.3301 29.0024C23.3301 30.0202 22.5097 30.8221 21.4684 30.8221ZM28 36.2503C26.9587 36.2503 26.1384 35.4484 26.1384 34.4306C26.1384 33.4128 26.9587 32.6109 28 32.6109C29.0413 32.6109 29.8617 33.4128 29.8617 34.4306C29.8617 35.4176 29.0413 36.2503 28 36.2503ZM28 30.8221C26.9587 30.8221 26.1384 30.0202 26.1384 29.0024C26.1384 27.9846 26.9587 27.1827 28 27.1827C29.0413 27.1827 29.8617 27.9846 29.8617 29.0024C29.8617 29.9893 29.0413 30.8221 28 30.8221ZM34.5316 36.2503C33.4903 36.2503 32.6699 35.4484 32.6699 34.4306C32.6699 33.4128 33.4903 32.6109 34.5316 32.6109C35.5728 32.6109 36.3932 33.4128 36.3932 34.4306C36.3932 35.4484 35.5728 36.2503 34.5316 36.2503ZM34.5316 30.8221C33.4903 30.8221 32.6699 30.0202 32.6699 29.0024C32.6699 27.9846 33.4903 27.1827 34.5316 27.1827C35.5728 27.1827 36.3932 27.9846 36.3932 29.0024C36.3932 30.0202 35.5728 30.8221 34.5316 30.8221ZM39.1068 22.2788V22.6489H16.8932V19.0095H21.1845V21.2301H23.0777V19.0095H32.9223V21.2301H34.8155V19.0095H39.1068V22.2788Z" fill="#686016"/>
</svg>
