<svg width="567" height="262" viewBox="0 0 567 262" fill="none" xmlns="http://www.w3.org/2000/svg">
<path d="M30.6937 260.782C29.8228 260.623 29.1411 259.897 29.081 258.974C28.8772 255.889 28.7768 252.736 28.7793 249.614C28.7778 248.523 29.6622 247.642 30.7452 247.65C31.826 247.643 32.7138 248.535 32.7068 249.62C32.6998 252.66 32.8019 255.721 33 258.716C33.0692 259.804 32.2528 260.735 31.167 260.811C31.0167 260.818 30.8494 260.813 30.6937 260.782ZM30.7106 242.32C29.7391 242.145 29.0345 241.263 29.1053 240.253C29.3112 237.176 29.6142 234.04 30.0212 230.941C30.1573 229.86 31.1502 229.1 32.2232 229.246C33.3121 229.396 34.0605 230.37 33.917 231.452C33.5288 234.472 33.2286 237.525 33.0255 240.517C32.9508 241.604 32.0195 242.423 30.9341 242.348C30.8578 242.344 30.789 242.339 30.7106 242.32ZM33.089 224.019C31.9987 223.808 31.3019 222.773 31.508 221.705C32.091 218.671 32.7818 215.599 33.549 212.584C33.8176 211.529 34.8872 210.879 35.9428 211.164C36.9962 211.433 37.6307 212.507 37.3621 213.562C36.6147 216.506 35.9426 219.499 35.371 222.455C35.1638 223.516 34.1463 224.212 33.089 224.019ZM37.6467 206.132C37.5609 206.114 37.4824 206.095 37.3955 206.07C36.363 205.737 35.7919 204.631 36.1241 203.597C37.0673 200.647 38.1057 197.675 39.2154 194.777C39.6038 193.765 40.7386 193.249 41.7576 193.645C42.7682 194.034 43.2759 195.172 42.8886 196.192C41.8061 199.018 40.7875 201.919 39.8715 204.797C39.5654 205.751 38.6034 206.309 37.6467 206.132ZM44.2525 188.898C44.0968 188.868 43.9462 188.822 43.7924 188.754C42.8039 188.308 42.3595 187.138 42.8116 186.147C44.0898 183.314 45.4666 180.483 46.9019 177.74C47.4027 176.773 48.59 176.409 49.5565 176.911C50.5157 177.414 50.8882 178.609 50.3863 179.57C48.9867 182.246 47.6456 185.012 46.3946 187.772C46.0192 188.616 45.1234 189.058 44.2525 188.898ZM52.8025 172.538C52.5769 172.496 52.3531 172.415 52.1451 172.287C51.2153 171.726 50.9095 170.521 51.4676 169.582C53.0652 166.915 54.7561 164.264 56.5056 161.703C57.1158 160.81 58.3364 160.57 59.2368 161.188C60.136 161.798 60.3626 163.031 59.7524 163.924C58.0471 166.425 56.3994 169.009 54.8375 171.61C54.4065 172.333 53.5876 172.681 52.8025 172.538ZM63.2099 157.285C62.9069 157.231 62.6163 157.107 62.3592 156.902C61.4968 156.233 61.3454 154.998 62.0128 154.134C63.9268 151.663 65.9235 149.24 67.9652 146.916C68.6847 146.098 69.9293 146.021 70.7379 146.736C71.5551 147.457 71.6314 148.696 70.9193 149.513C68.9367 151.775 66.9842 154.138 65.1207 156.542C64.6512 157.156 63.9102 157.417 63.2099 157.285ZM168.126 175.203C167.574 175.102 167.028 174.993 166.479 174.861C164.679 174.452 162.915 173.93 161.243 173.312C160.227 172.939 159.697 171.804 160.077 170.786C160.449 169.762 161.583 169.246 162.599 169.62C164.118 170.177 165.724 170.653 167.36 171.026C168.597 171.307 169.839 171.518 171.085 171.661C172.168 171.767 172.942 172.76 172.82 173.838C172.699 174.917 171.724 175.697 170.647 175.575C169.801 175.479 168.957 175.353 168.126 175.203ZM179.705 175.433C178.889 175.288 178.225 174.627 178.106 173.766C177.955 172.689 178.709 171.692 179.783 171.541C182.675 171.139 185.508 170.389 188.207 169.295C189.214 168.889 190.359 169.373 190.765 170.382C191.17 171.39 190.688 172.537 189.681 172.943C186.682 174.157 183.537 174.998 180.326 175.44C180.113 175.479 179.9 175.472 179.705 175.433ZM153.389 169.193C153.125 169.148 152.868 169.042 152.632 168.88C149.981 167.057 147.544 164.892 145.396 162.426C144.678 161.607 144.768 160.367 145.585 159.648C146.404 158.936 147.649 159.019 148.36 159.839C150.289 162.048 152.475 164 154.856 165.635C155.756 166.253 155.982 167.478 155.372 168.371C154.909 169.03 154.128 169.327 153.389 169.193ZM196.611 168.567C196.137 168.478 195.698 168.224 195.386 167.8C194.736 166.926 194.918 165.694 195.791 165.043C198.144 163.295 200.227 161.254 201.989 158.986C202.658 158.13 203.89 157.972 204.745 158.642C205.6 159.312 205.759 160.546 205.091 161.402C203.113 163.951 200.771 166.243 198.132 168.207C197.683 168.546 197.131 168.658 196.611 168.567ZM141.324 155.47C140.749 155.365 140.228 155.01 139.934 154.454C138.469 151.692 137.257 148.695 136.318 145.551C136.005 144.506 136.601 143.411 137.637 143.099C138.673 142.788 139.774 143.384 140.086 144.422C140.951 147.318 142.067 150.071 143.407 152.602C143.919 153.565 143.55 154.756 142.596 155.268C142.189 155.487 141.744 155.545 141.324 155.47ZM75.3954 143.422C75.014 143.349 74.6543 143.167 74.3546 142.878C73.5838 142.112 73.589 140.861 74.3531 140.089C76.5625 137.877 78.8558 135.722 81.1813 133.682C81.9986 132.963 83.2439 133.046 83.9546 133.866C84.6727 134.684 84.5912 135.932 83.7728 136.643C81.5148 138.627 79.2806 140.721 77.1377 142.87C76.6633 143.349 76.0014 143.53 75.3954 143.422ZM207.754 154.145C207.621 154.119 207.495 154.085 207.367 154.035C206.362 153.63 205.875 152.482 206.278 151.467C207.155 149.3 207.789 147.13 208.174 145.013C208.29 144.359 208.384 143.716 208.457 143.077C208.578 141.998 209.545 141.219 210.629 141.333C211.705 141.447 212.484 142.424 212.371 143.509C212.289 144.234 212.185 144.969 212.053 145.716C211.624 148.097 210.907 150.529 209.938 152.945C209.568 153.825 208.648 154.309 207.754 154.145ZM89.2609 131.259C88.7947 131.176 88.3564 130.922 88.0466 130.513C87.3897 129.647 87.5558 128.41 88.42 127.753C90.9102 125.856 93.4791 124.031 96.0602 122.341C96.9712 121.744 98.1886 121.997 98.7843 122.91C99.38 123.823 99.128 125.042 98.217 125.638C95.712 127.28 93.218 129.048 90.8027 130.888C90.3469 131.236 89.7885 131.348 89.2609 131.259ZM136.009 137.89C135.177 137.74 134.51 137.065 134.41 136.178C134.042 133.057 133.926 129.846 134.053 126.644C134.097 125.554 135.01 124.715 136.098 124.76C137.178 124.798 138.025 125.719 137.981 126.809C137.861 129.805 137.97 132.805 138.316 135.725C138.444 136.805 137.672 137.782 136.594 137.91C136.393 137.932 136.195 137.923 136.009 137.89ZM104.685 121.156C104.126 121.056 103.613 120.707 103.314 120.168C102.788 119.215 103.134 118.019 104.078 117.494C106.814 115.978 109.624 114.557 112.438 113.272C113.424 112.824 114.593 113.258 115.04 114.246C115.496 115.232 115.055 116.403 114.07 116.859C111.348 118.1 108.622 119.478 105.978 120.943C105.58 121.168 105.12 121.236 104.685 121.156ZM209.574 136.062C208.82 135.923 208.183 135.35 208.006 134.557C207.385 131.822 206.297 129.155 204.77 126.644C204.202 125.712 204.5 124.501 205.424 123.941C206.354 123.373 207.563 123.672 208.123 124.598C209.871 127.478 211.124 130.545 211.836 133.691C212.075 134.755 211.413 135.807 210.351 136.046C210.088 136.108 209.823 136.109 209.574 136.062ZM136.74 119.505C135.649 119.286 134.952 118.252 135.158 117.184C135.777 114.031 136.639 110.941 137.726 107.993C137.758 107.897 137.805 107.807 137.853 107.724C137.734 107.53 137.648 107.307 137.606 107.071C137.403 106.002 138.107 104.974 139.174 104.772C142.23 104.201 145.357 103.749 148.458 103.437C149.538 103.324 150.502 104.114 150.616 105.196C150.729 106.278 149.941 107.243 148.86 107.356C146.415 107.602 143.953 107.941 141.518 108.36C141.573 108.685 141.549 109.037 141.424 109.367C140.413 112.114 139.604 114.999 139.031 117.948C138.815 119.003 137.798 119.698 136.74 119.505ZM121.439 113.51C120.77 113.388 120.188 112.928 119.936 112.245C119.567 111.223 120.089 110.093 121.109 109.724C124.039 108.656 127.038 107.7 130.027 106.882C131.074 106.591 132.157 107.213 132.447 108.261C132.737 109.31 132.117 110.394 131.071 110.684C128.184 111.48 125.285 112.398 122.456 113.428C122.125 113.545 121.772 113.567 121.439 113.51ZM200.277 120.424C199.911 120.357 199.561 120.188 199.279 119.919C197.23 117.97 194.871 116.18 192.277 114.591C191.346 114.023 191.054 112.808 191.622 111.883C192.189 110.959 193.401 110.659 194.325 111.228C197.16 112.963 199.733 114.927 201.984 117.059C202.774 117.806 202.806 119.052 202.06 119.844C201.581 120.339 200.906 120.536 200.277 120.424ZM157.491 106.777C156.589 106.614 155.899 105.829 155.88 104.877C155.856 103.789 156.723 102.889 157.81 102.873C160.919 102.818 164.068 102.885 167.184 103.079C168.261 103.148 169.093 104.079 169.026 105.164C168.959 106.25 168.029 107.077 166.944 107.009C163.936 106.822 160.892 106.754 157.896 106.808C157.754 106.814 157.623 106.803 157.491 106.777ZM184.685 110.758C184.561 110.739 184.442 110.703 184.321 110.653C181.569 109.58 178.696 108.721 175.8 108.117C174.739 107.894 174.055 106.85 174.277 105.787C174.499 104.724 175.5 104.016 176.603 104.263C179.717 104.911 182.795 105.83 185.757 106.986C186.769 107.383 187.269 108.522 186.873 109.535C186.52 110.428 185.594 110.92 184.685 110.758ZM142.81 102.123C142.647 102.094 142.48 102.043 142.325 101.967C141.342 101.505 140.92 100.332 141.381 99.3473C142.704 96.5156 144.153 93.711 145.671 91.0174C146.206 90.0749 147.405 89.7395 148.354 90.2744C149.295 90.8105 149.631 92.0115 149.097 92.9614C147.626 95.5647 146.224 98.279 144.94 101.022C144.556 101.851 143.673 102.284 142.81 102.123ZM151.884 86.0877C151.628 86.042 151.37 85.9359 151.136 85.7809C150.236 85.1705 149.996 83.9479 150.605 83.0475C152.344 80.4655 154.209 77.918 156.144 75.4889C156.821 74.6391 158.056 74.4955 158.905 75.174C159.754 75.8524 159.898 77.0892 159.22 77.9389C157.349 80.2904 155.548 82.7529 153.865 85.2509C153.411 85.9238 152.623 86.2216 151.884 86.0877ZM163.337 71.6655C162.979 71.5969 162.637 71.4349 162.348 71.1667C161.551 70.4276 161.511 69.1756 162.249 68.385C164.366 66.1111 166.604 63.8876 168.903 61.7689C169.703 61.0374 170.952 61.0888 171.681 61.8833C172.419 62.6841 172.368 63.9269 171.568 64.6658C169.342 66.7132 167.177 68.8654 165.133 71.068C164.656 71.5777 163.975 71.7839 163.337 71.6655ZM176.896 59.1691C176.445 59.0839 176.016 58.8438 175.701 58.4506C175.023 57.5955 175.174 56.3607 176.02 55.6832C178.44 53.7664 180.972 51.9012 183.558 50.1419C184.452 49.533 185.681 49.7615 186.29 50.6572C186.899 51.5603 186.67 52.7837 185.776 53.3925C183.274 55.1018 180.816 56.9105 178.464 58.7718C178.004 59.1425 177.432 59.2645 176.896 59.1691ZM192.103 48.772C191.558 48.6702 191.057 48.3498 190.755 47.8336C190.201 46.8995 190.515 45.6864 191.455 45.1389C194.102 43.5828 196.861 42.0783 199.65 40.668C200.622 40.1766 201.8 40.5718 202.29 41.5379C202.781 42.5114 202.387 43.6909 201.422 44.1812C198.703 45.551 196.022 47.0213 193.453 48.5357C193.02 48.7812 192.546 48.8509 192.103 48.772ZM208.524 40.4547C207.894 40.3426 207.341 39.9238 207.067 39.2972C206.633 38.3001 207.098 37.1405 208.094 36.7062C210.911 35.4888 213.819 34.3262 216.748 33.2515C217.767 32.8743 218.896 33.4054 219.273 34.426C219.643 35.4477 219.121 36.5779 218.102 36.955C215.245 38.004 212.4 39.1346 209.655 40.3263C209.285 40.4867 208.889 40.5222 208.524 40.4547ZM225.802 34.1104C225.102 33.9858 224.49 33.4771 224.27 32.7517C223.951 31.715 224.531 30.6143 225.573 30.2943C228.498 29.3946 231.513 28.5496 234.534 27.7873C235.584 27.5193 236.653 28.1577 236.923 29.2169C237.191 30.2687 236.554 31.3399 235.496 31.609C232.535 32.3626 229.584 33.1829 226.726 34.0655C226.42 34.1483 226.097 34.1654 225.802 34.1104ZM411.423 61.8133C411.159 61.7687 410.908 61.6615 410.674 61.5066C408.161 59.7997 405.578 58.1334 403 56.5498C402.076 55.9808 401.784 54.7658 402.352 53.8412C402.92 52.9166 404.125 52.6257 405.056 53.1936C407.684 54.8077 410.318 56.512 412.881 58.2495C413.78 58.8599 414.013 60.0836 413.411 60.9829C412.957 61.6483 412.168 61.9461 411.423 61.8133ZM243.649 29.5769C242.879 29.4399 242.24 28.8444 242.074 28.0276C241.857 26.9607 242.543 25.9201 243.609 25.7029C246.612 25.087 249.694 24.5354 252.763 24.0539C253.836 23.8886 254.843 24.6195 255.009 25.694C255.174 26.7684 254.445 27.7774 253.372 27.9427C250.363 28.4155 247.34 28.9583 244.387 29.5592C244.139 29.6185 243.889 29.6173 243.649 29.5769ZM395.71 52.1502C395.5 52.1129 395.301 52.0437 395.111 51.9352C392.467 50.4674 389.744 49.0338 387.025 47.6755C386.053 47.1894 385.652 46.0056 386.137 45.0325C386.622 44.0595 387.798 43.6669 388.776 44.1445C391.551 45.5248 394.323 46.989 397.018 48.4873C397.965 49.0149 398.308 50.2148 397.782 51.1637C397.364 51.9223 396.519 52.2966 395.71 52.1502ZM261.853 26.7035C261.021 26.5529 260.354 25.8706 260.253 24.9835C260.132 23.9026 260.904 22.9252 261.983 22.8044C265.035 22.4619 268.147 22.171 271.247 21.9502C272.333 21.8739 273.27 22.691 273.347 23.7785C273.423 24.866 272.608 25.8043 271.522 25.8806C268.475 26.1012 265.415 26.3844 262.415 26.7193C262.23 26.7465 262.039 26.7367 261.853 26.7035ZM379.203 43.9227C379.054 43.8914 378.905 43.8528 378.758 43.7834C375.99 42.5535 373.153 41.3717 370.327 40.264C369.316 39.8671 368.815 38.7282 369.211 37.7152C369.607 36.7022 370.743 36.1942 371.755 36.5985C374.638 37.7282 377.531 38.9321 380.355 40.184C381.35 40.6212 381.802 41.79 381.357 42.7799C380.976 43.6317 380.073 44.0826 379.203 43.9227ZM280.248 25.3858C279.354 25.2217 278.666 24.4514 278.633 23.509C278.602 22.4223 279.451 21.5094 280.536 21.4787C283.609 21.3831 286.744 21.3466 289.841 21.3686C290.932 21.375 291.804 22.2623 291.79 23.3555C291.783 24.4401 290.899 25.3203 289.808 25.3139C286.756 25.2928 283.675 25.3291 280.654 25.4171C280.526 25.4207 280.388 25.4107 280.248 25.3858ZM362.025 37.2106C361.932 37.194 361.838 37.17 361.742 37.1386C358.883 36.1646 355.948 35.2397 353.031 34.3879C351.988 34.0866 351.388 32.9926 351.696 31.9471C351.996 30.9026 353.095 30.3014 354.132 30.6113C357.113 31.4841 360.096 32.4247 363.011 33.4207C364.039 33.7698 364.589 34.8862 364.242 35.9224C363.915 36.8418 362.966 37.383 362.025 37.2106ZM298.715 25.5277C297.759 25.3575 297.058 24.4983 297.1 23.4993C297.152 22.4156 298.073 21.5755 299.154 21.6211C302.239 21.7662 305.363 21.9662 308.435 22.2268C309.516 22.3181 310.321 23.2682 310.232 24.3574C310.141 25.4392 309.193 26.2455 308.105 26.1553C305.08 25.9029 302.009 25.7027 298.969 25.5586C298.893 25.5546 298.799 25.538 298.715 25.5277ZM344.316 32.0317C344.277 32.0223 344.238 32.0129 344.199 32.0035C342.574 31.6058 340.937 31.2251 339.294 30.8603C337.965 30.5633 336.622 30.2833 335.281 30.0106C334.213 29.7963 333.531 28.7599 333.744 27.6904C333.958 26.6208 334.983 25.9245 336.06 26.1526C337.432 26.4282 338.791 26.7135 340.144 27.0147C341.817 27.3826 343.486 27.7737 345.142 28.1819C346.195 28.444 346.843 29.5081 346.582 30.5619C346.331 31.5839 345.334 32.2154 344.316 32.0317ZM317.1 27.0759C316.082 26.8922 315.375 25.9428 315.502 24.9011C315.63 23.8213 316.615 23.0552 317.693 23.1846C320.767 23.5587 323.865 23.9974 326.903 24.4904C327.973 24.6135 328.704 25.673 328.53 26.752C328.354 27.8235 327.35 28.5547 326.272 28.3797C323.281 27.895 320.236 27.4636 317.208 27.0904C317.177 27.0873 317.139 27.0853 317.1 27.0759Z" fill="#9DBCDC"/>
<path d="M422.851 70.1295C422.548 70.0756 422.256 69.9442 422 69.7469C420.803 68.8089 419.595 67.8954 418.38 66.9904C417.505 66.3385 417.323 65.1072 417.974 64.2311C418.624 63.3549 419.854 63.1742 420.729 63.826C421.962 64.7511 423.196 65.6836 424.418 66.6331C425.273 67.3031 425.432 68.5377 424.764 69.4012C424.292 70.001 423.55 70.2541 422.851 70.1295Z" fill="#9DBCDC"/>
<path d="M417.367 102.52L418.298 116.811L550.117 128.166L417.367 102.52Z" fill="#296DB3"/>
<path d="M425.596 54.4336L427.663 75.6553L550.117 128.165L425.596 54.4336Z" fill="#296DB3"/>
<path d="M425.596 54.4342L453.148 36.9855L550.117 128.166L425.596 54.4342Z" fill="#9DBCDC"/>
<path d="M407.421 66.9745L366.917 93.7819L550.117 128.165L407.421 66.9745Z" fill="#9DBCDC"/>
</svg>
