<svg width="37" height="37" viewBox="0 0 37 37" fill="none" xmlns="http://www.w3.org/2000/svg">
<circle cx="18.5" cy="18.5" r="18.5" fill="#29B32F"/>
<path d="M9.04336 18.8082C8.8875 18.6584 8.80957 18.4338 8.80957 18.284C8.80957 18.1343 8.8875 17.9096 9.04336 17.7599L10.1344 16.7115C10.4461 16.412 10.9137 16.412 11.2254 16.7115L11.3033 16.7864L15.5895 21.2044C15.7454 21.3541 15.9792 21.3541 16.135 21.2044L26.5777 10.7959H26.6556C26.9674 10.4964 27.4349 10.4964 27.7467 10.7959L28.8377 11.8443C29.1494 12.1438 29.1494 12.5931 28.8377 12.8926L16.3688 25.3228C16.213 25.4726 16.0571 25.5475 15.8233 25.5475C15.5895 25.5475 15.4337 25.4726 15.2778 25.3228L9.19922 19.0328L9.04336 18.8082Z" fill="#D8F1D9"/>
</svg>
