<svg width="24" height="25" viewBox="0 0 24 25" fill="none" xmlns="http://www.w3.org/2000/svg">
<rect y="0.192383" width="24" height="24" rx="3" fill="#29B32F"/>
<path d="M18.0945 7.12231C18.0172 7.03899 17.9251 6.97286 17.8237 6.92774C17.7223 6.88261 17.6135 6.85938 17.5037 6.85938C17.3938 6.85938 17.2851 6.88261 17.1837 6.92774C17.0823 6.97286 16.9902 7.03899 16.9129 7.12231L10.7133 13.7534L8.1087 10.9623C8.02838 10.8794 7.93356 10.8143 7.82967 10.7705C7.72577 10.7268 7.61482 10.7053 7.50316 10.7074C7.39151 10.7095 7.28132 10.735 7.1789 10.7825C7.07648 10.8301 6.98383 10.8987 6.90624 10.9845C6.82865 11.0703 6.76765 11.1716 6.7267 11.2826C6.68576 11.3936 6.66568 11.5121 6.66761 11.6314C6.66954 11.7506 6.69345 11.8683 6.73796 11.9777C6.78247 12.0871 6.84673 12.1861 6.92705 12.269L10.1225 15.6823C10.1999 15.7656 10.2919 15.8317 10.3933 15.8769C10.4947 15.922 10.6035 15.9452 10.7133 15.9452C10.8232 15.9452 10.932 15.922 11.0334 15.8769C11.1348 15.8317 11.2268 15.7656 11.3042 15.6823L18.0945 8.42897C18.179 8.34574 18.2464 8.24471 18.2925 8.13227C18.3386 8.01982 18.3624 7.8984 18.3624 7.77564C18.3624 7.65288 18.3386 7.53146 18.2925 7.41901C18.2464 7.30657 18.179 7.20554 18.0945 7.12231Z" fill="#F5F5F5"/>
</svg>
