<svg width="36" height="36" viewBox="0 0 36 36" fill="none" xmlns="http://www.w3.org/2000/svg">
<rect width="36" height="36" rx="10" fill="#D8E4F1"/>
<path d="M18 8C14.13 8 11 11.13 11 15C11 20.25 18 28 18 28C18 28 25 20.25 25 15C25 11.13 21.87 8 18 8ZM18 17.5C17.337 17.5 16.7011 17.2366 16.2322 16.7678C15.7634 16.2989 15.5 15.663 15.5 15C15.5 14.337 15.7634 13.7011 16.2322 13.2322C16.7011 12.7634 17.337 12.5 18 12.5C18.663 12.5 19.2989 12.7634 19.7678 13.2322C20.2366 13.7011 20.5 14.337 20.5 15C20.5 15.663 20.2366 16.2989 19.7678 16.7678C19.2989 17.2366 18.663 17.5 18 17.5Z" fill="#296DB3"/>
</svg>
