<svg width="36" height="36" viewBox="0 0 36 36" fill="none" xmlns="http://www.w3.org/2000/svg">
<rect width="36" height="36" rx="10" fill="#D8E4F1"/>
<path d="M26 10H10C8.9 10 8.01 10.9 8.01 12L8 24C8 25.1 8.9 26 10 26H26C27.1 26 28 25.1 28 24V12C28 10.9 27.1 10 26 10ZM25.6 14.25L18.53 18.67C18.21 18.87 17.79 18.87 17.47 18.67L10.4 14.25C10.2997 14.1937 10.2119 14.1177 10.1419 14.0265C10.0719 13.9352 10.0211 13.8308 9.99258 13.7194C9.96409 13.608 9.9585 13.4919 9.97616 13.3783C9.99381 13.2647 10.0343 13.1558 10.0953 13.0583C10.1562 12.9608 10.2363 12.8767 10.3307 12.811C10.4251 12.7453 10.5319 12.6995 10.6445 12.6763C10.7571 12.6531 10.8733 12.653 10.986 12.6759C11.0986 12.6989 11.2055 12.7445 11.3 12.81L18 17L24.7 12.81C24.7945 12.7445 24.9014 12.6989 25.014 12.6759C25.1267 12.653 25.2429 12.6531 25.3555 12.6763C25.4681 12.6995 25.5749 12.7453 25.6693 12.811C25.7637 12.8767 25.8438 12.9608 25.9047 13.0583C25.9657 13.1558 26.0062 13.2647 26.0238 13.3783C26.0415 13.4919 26.0359 13.608 26.0074 13.7194C25.9789 13.8308 25.9281 13.9352 25.8581 14.0265C25.7881 14.1177 25.7003 14.1937 25.6 14.25Z" fill="#296DB3"/>
</svg>
