<svg width="28" height="28" viewBox="0 0 28 28" fill="none" xmlns="http://www.w3.org/2000/svg">
<g clip-path="url(#clip0)">
<path d="M13.9995 14.8235C11.729 14.8235 9.88184 16.6707 9.88184 18.9411C9.88184 21.2116 11.729 23.0588 13.9995 23.0588C16.2699 23.0588 18.1171 21.2116 18.1171 18.9411C18.1171 16.6707 16.2699 14.8235 13.9995 14.8235ZM16.4701 19.7647H14.823V21.4117H13.1759V19.7647H11.5289V18.1176H13.1759V16.4705H14.823V18.1176H16.4701V19.7647Z" fill="#296DB3"/>
<path d="M21.4114 0H18.1173V3.29412H16.4702V0H14.8232V3.29412H13.1761V0H11.5291V3.29412H9.88201V0H6.58789V5.76471H21.4114V0Z" fill="#296DB3"/>
<path d="M20.1056 7.41174H7.89393L5.42334 9.88233H22.5761L20.1056 7.41174Z" fill="#296DB3"/>
<path d="M4.94092 11.5294V28H23.0586V11.5294H4.94092ZM13.9997 24.7059C10.821 24.7059 8.23504 22.1198 8.23504 18.9412C8.23504 15.7625 10.821 13.1765 13.9997 13.1765C17.1785 13.1765 19.7644 15.7625 19.7644 18.9412C19.7644 22.1198 17.1784 24.7059 13.9997 24.7059Z" fill="#296DB3"/>
</g>
<defs>
<clipPath id="clip0">
<rect width="28" height="28" rx="2" fill="white"/>
</clipPath>
</defs>
</svg>
