<svg width="28" height="28" viewBox="0 0 28 28" fill="none" xmlns="http://www.w3.org/2000/svg">
<path d="M14 6.01562C12.3415 6.01562 10.9922 4.66632 10.9922 3.00781C10.9922 1.3493 12.3415 0 14 0C15.6585 0 17.0078 1.3493 17.0078 3.00781C17.0078 4.66632 15.6585 6.01562 14 6.01562Z" fill="#296DB3"/>
<path d="M26.7247 6.65173C25.932 7.27976 24.9313 7.65623 23.8438 7.65623C22.7562 7.65623 21.7555 7.27976 20.9628 6.65173C20.2094 7.39537 19.7422 8.42815 19.7422 9.5703V12.3047C19.7422 12.7577 20.1095 13.125 20.5625 13.125H27.125C27.578 13.125 27.9453 12.7577 27.9453 12.3047V9.5703C27.9453 8.42815 27.4781 7.39537 26.7247 6.65173Z" fill="#296DB3"/>
<path d="M23.8438 6.01562C22.1852 6.01562 20.8359 4.66632 20.8359 3.00781C20.8359 1.3493 22.1852 0 23.8438 0C25.5023 0 26.8516 1.3493 26.8516 3.00781C26.8516 4.66632 25.5023 6.01562 23.8438 6.01562Z" fill="#296DB3"/>
<path d="M7.03724 6.65173C6.24455 7.27976 5.24382 7.65623 4.15625 7.65623C3.06868 7.65623 2.06795 7.27976 1.27526 6.65173C0.521938 7.39537 0.0546875 8.42815 0.0546875 9.5703V12.3047C0.0546875 12.7577 0.421969 13.125 0.875 13.125H7.4375C7.89053 13.125 8.25781 12.7577 8.25781 12.3047V9.5703C8.25781 8.42815 7.79056 7.39537 7.03724 6.65173Z" fill="#296DB3"/>
<path d="M4.15625 6.01562C2.49774 6.01562 1.14844 4.66632 1.14844 3.00781C1.14844 1.3493 2.49774 0 4.15625 0C5.81476 0 7.16406 1.3493 7.16406 3.00781C7.16406 4.66632 5.81476 6.01562 4.15625 6.01562Z" fill="#296DB3"/>
<path d="M14 9.02342C15.9224 9.02342 17.4863 10.5874 17.4863 12.5097V13.0981C17.8399 13.0069 18.1016 12.6868 18.1016 12.3047V9.5703C18.1016 8.42815 17.6343 7.39537 16.881 6.65173C16.0883 7.27976 15.0876 7.65623 14 7.65623C12.9124 7.65623 11.9117 7.27976 11.119 6.65173C10.3657 7.39537 9.89844 8.42815 9.89844 9.5703V12.3047C9.89844 12.6868 10.1601 13.0069 10.5137 13.0981V12.5097C10.5137 10.5874 12.0776 9.02342 14 9.02342Z" fill="#296DB3"/>
<path d="M25.0742 16.3516C24.0548 16.3516 23.2285 17.1779 23.2285 18.1973V17.6504C23.2285 16.631 22.4022 15.8047 21.3828 15.8047C20.3634 15.8047 19.5371 16.631 19.5371 17.6504V17.1035C19.5371 16.0841 18.7108 15.2578 17.6914 15.2578C16.672 15.2578 15.8457 16.0841 15.8457 17.1035V12.5098C15.8457 11.4904 15.0194 10.6641 14 10.6641C12.9806 10.6641 12.1543 11.4904 12.1543 12.5098V21.7109C12.1543 22.164 11.787 22.5312 11.334 22.5312C10.881 22.5312 10.5137 22.164 10.5137 21.7109V19.3003L9.91233 19.6092C9.27423 19.9371 8.87305 20.5943 8.87305 21.3117V22.2578C8.87305 25.4291 11.4439 28 14.6152 28H22.8184C25.0836 28 26.9199 26.1636 26.9199 23.8984V18.1973C26.9199 17.1779 26.0936 16.3516 25.0742 16.3516Z" fill="#296DB3"/>
</svg>
