<svg xmlns="http://www.w3.org/2000/svg" xmlns:xlink="http://www.w3.org/1999/xlink" viewBox="0 0 495.77 375"><defs><style>.cls-1{fill:#fff;}.cls-2{mask:url(#mask);}.cls-3,.cls-6{opacity:0.5;}.cls-4{fill:#d8f1d9;}.cls-5{fill:#9ddca0;}.cls-6{fill:#29b32f;}.cls-13,.cls-6{isolation:isolate;}.cls-7{fill:#454545;}.cls-8{fill:#333;}.cls-9{fill:#c69076;}.cls-10{fill:#a37661;}.cls-11{fill:#f1f2f2;}.cls-12,.cls-13{fill:#932020;}.cls-13{opacity:0.88;}.cls-14{fill:#c25353;}.cls-15{fill:#94372f;}.cls-16{fill:#9c3738;}.cls-17{fill:#aaa;}.cls-18{fill:#ddd;}.cls-19{fill:#f79b24;}</style><mask id="mask" x="-754.23" y="-35" width="1250" height="410" maskUnits="userSpaceOnUse"><g id="mask0"><rect class="cls-1" x="-754.23" y="-35" width="1250" height="410" rx="10"/></g></mask></defs><title>Hero</title><g id="Layer_2" data-name="Layer 2"><g id="Layer_1-2" data-name="Layer 1"><g class="cls-2"><g class="cls-3"><path class="cls-4" d="M186.69,190.22c0-11.4,11.52-15.61,20.37-16.24,41.3-2.93,88.83.33,130.15,2.85a354.64,354.64,0,0,1,73.05,13.37c7.24,2.12,16.34,8.27,14.43,17.5-1.37,6.67-7.69,9-13,10a476.2,476.2,0,0,1-168.33,3.69c-15.74-2.47-31.7-5.85-45.9-14.94C192.24,203.12,186.71,197.73,186.69,190.22Z"/><path class="cls-4" d="M467.61,245.26a138.48,138.48,0,0,0-23.88-.84c-1.07,0-2.13.1-3.2.17-15.12,1-30.53,3.85-46,7.23-11.76,2.56-23.54,5.41-35.23,7.92q-6.09,1.31-12.17,2.48-15.91,3.11-31.79,5.36h0l-4,.56q-14,1.88-27.91,3.11h0q-16.17,1.42-32.23,2-27.71.93-55-.78c-8.86-.55-17.72-1.32-26.59-2.06-1.09-.1-2.18-.18-3.27-.27-28.51-2.34-57.15-4.09-86.5,2.61-12.62,2.88-25.41,7.4-37,15.53C16.56,306.67.55,342.52,0,375H485.77a10,10,0,0,0,10-10V252.83A108.53,108.53,0,0,0,467.61,245.26Z"/></g><path class="cls-5" d="M388.93,62.1h-.64l5.91,7.67s10.53,1.68,31.7,12.58c0,0,20.78,58.44,23.88,75.11,0,0-5,12-15.29,8s-34-13-34-13-11.19,17.46-13.74,23.92-6.29,25.12-7.72,28.78c0,0-44.48,1.5-71.45-6.53L277.48,168s-19-1.47-7.29-35.26l48.14-64.37,36.06-3,5.9-4s.27,12.59,1.58,16.35a8,8,0,0,0,5.44,2.16c2.27.11,5.27-.49,9-2.73C376.32,77.12,391.61,68,388.93,62.1Z"/><path class="cls-6" d="M379.37,194.28v5.21a.43.43,0,0,0,.84.11l1.93-7.69,5.44-17.61a2.83,2.83,0,0,1,.25-.59l12.29-21.78,2-4.55a3.45,3.45,0,0,0,.18-.57l7.48-36a3.09,3.09,0,0,1,.17-.54l7.32-17.64a1.51,1.51,0,0,0-1.39-2.09,1.55,1.55,0,0,0-.91.3l-4.53,3.39a3,3,0,0,0-.92,1.12L399.4,116.76a3,3,0,0,1-2.18,1.67L349,127.22a3,3,0,0,0-1.2,5.39l8.49,6a2.58,2.58,0,0,0,.51.29l25.62,11.5a3,3,0,0,1,1.77,2.73V174a42.17,42.17,0,0,1-1.12,11.23C382.41,187.56,379.37,191.85,379.37,194.28Z"/><path class="cls-6" d="M268.73,146.42c5.53-3.45,9-3.45,13.14-1.38L277,178.81l33.88,3.45,9,14.48H322l4.84-17.93V165c.23-25.28.55-76.79,0-80.65S322,75.87,319.9,74c1.38,4.82,4,15.16,3.46,17.92s-4.38,5.28-6.22,6.2L296.39,114l-8.3,29-6.22-15.17,2.07,12.41c-.69,0-2.35-.69-3.46-3.45-1.38-3.44-9-1.37-6.91-.68,1.66.55,3,3,3.46,4.13C274.49,141.82,269.42,143.66,268.73,146.42Z"/><path class="cls-7" d="M443.24,375H414.41l-30-48.46-3.32-5.74,0,0-33.88-58.55-8.3-14.34,0-.06s-14.57,10.66-27.5,20.32c-3.86,2.87-7.57,5.65-10.7,8-13.66,10.4-31.39,28.93-31.39,28.93l.08,1.06h0L274.77,375h-25l-15.09-77.9,16.52-23.88L283.83,226l14.49-20.94,5.75-8.31a24,24,0,0,0,2.44.77c1.44.4,3.56.91,6.52,1.46,10.24,1.89,30.54,4.19,66.8,3.38H380s2.37,8,5.87,19.83c2.49,8.41,5.54,18.78,8.72,29.61,7.14,24.32,14.9,51,18.26,63.38C412.81,315.2,429.56,346.38,443.24,375Z"/><polygon class="cls-8" points="418.03 375 413.69 375 388.98 335.68 381.05 320.8 381.03 320.77 378 315.08 410.94 365.3 418.03 375"/><path class="cls-8" d="M269.26,291.16c-4.46,7-1.86,12.95,0,15.06l70-58.67c-3.45.26-13.85,0-24.66,3.17-13.53,4-25.46,8.72-27.05,13.48S274.82,282.43,269.26,291.16Z"/><path class="cls-9" d="M362.41,11.84s-12.08,12.61-15.54,20.84c-2.65,6.31-2.75,16.38,1.38,19.3s9.44,3.87,12.85,2.88l-.73,22.25s7.75,13.07,29.22-11.3l-5.84-20.92s10.85-1.76,7.46-14.48S368.42,1.82,362.41,11.84Z"/><path class="cls-1" d="M361.64,39.9a17.55,17.55,0,0,1-.56,3.26c-.51,1.79-1.41,3.41-3,3.81a7.08,7.08,0,0,1-7.37-2.16,11.48,11.48,0,0,1-1.77-2.67,16.61,16.61,0,0,1-.67-1.58l13.46-3.06A22.42,22.42,0,0,1,361.64,39.9Z"/><path class="cls-10" d="M369.33,51.2s4.62,27.27-5.79,28.69c0,0-3.69-.81-3.46-4.42s1-20.6,1-20.6Z"/><path class="cls-8" d="M383.75,44.9A12,12,0,0,0,397,38c4.24-8.93,7-19.26,4.32-21.14,0,0-9.53-13-22.38-15.39S360.59-.07,359.07,2s-4.07,3.36-.44,14.1c0,0,2.79-4.18,5.87-4.5s9.25-1,18,10.11c0,0,1.33,1.29,2.17,1.33,0,0-4.33,5.7-3.73,11.5,0,0,4.85-5.41,8.91-2C393.25,35.47,388.63,43.75,383.75,44.9Z"/><path class="cls-4" d="M370.6,90.87l-3.3-11s19.26-4.35,21-18.28l6.5,7.69Z"/><path class="cls-4" d="M355.54,87.74l8.95-8.49s-5-1.14-3.61-19.17l-5.55,4.81S352.38,80.81,355.54,87.74Z"/><path class="cls-5" d="M400.46,152.44l-47.07-20.26s2.56-9.44.22-14.25c0,0,60.12,8.51,68.79,12.21,0,0,20.67,4,23,11.4l4.41,15.92s-4.58,9.18-10.13,8.84S400.46,152.44,400.46,152.44Z"/><path class="cls-11" d="M359.31,118.87s3.15,10.47-1.75,14.95L353,132.45s3-9.72-.14-14.75Z"/><path class="cls-11" d="M288.77,149.84s-6.55-5.44-16,8.53c0,0-2.15,8.94-5.59,2.41,0,0,4.14-16.33,14.45-14.64Z"/><path class="cls-12" d="M369.13,87l-5.64,4.86-3.81-3.43-1.25-3.16,6.06-6,2.82.59Z"/><path class="cls-13" d="M291,143.93s-18.55,49-123.85-6.33l-9.7,31.28,1.88,9.15S319.8,221.15,291,143.93Z"/><path class="cls-14" d="M187.82,43.88l-4.59,39s51.16-9.37,90.19,19.89C313.93,133.12,291.64,206.3,169.57,143L159.33,178S329.47,263.68,343,147.57,187.82,43.88,187.82,43.88Z"/><path class="cls-15" d="M343.4,120.63s5.87,2,3.72-1l-2.15-3-10.5-.6-8.41,9.28L326.7,136s2.14,1.3,2.84-.75l1.07,7.39s3,.91,3-1.69a39.19,39.19,0,0,1,1-6.68l5.54-4.24a9,9,0,0,1,3.21,4.31C343.4,128.52,342.75,127.15,343.4,120.63Z"/><path class="cls-9" d="M353.55,118.86a18,18,0,0,1-4.77-4.56l-2.15-3-10.5-.6L327.72,120l.64,10.65s2.13,1.3,2.84-.75l1.06,7.38s3,.92,3.05-1.69a39.38,39.38,0,0,1,1-6.68l5.54-4.23s5.45,9.68,10.62,7.62A20.51,20.51,0,0,0,353.55,118.86Z"/><path class="cls-16" d="M287.08,153.78l9.59,2.91,1.76,13.7s-3.76,1.11-4.67-7Z"/><path class="cls-16" d="M287.36,153.51l7.27,5-1.58,7.73-1.65,7.4s-2.82.29-2.34-5.15l.2-6.9-4,10.5s-4.23.55-1.14-9.52l-4.93-1s-5,1.55-5.84.25C273.37,161.84,281.68,149.73,287.36,153.51Z"/><path class="cls-10" d="M287.08,149.86l9.59,2.91,1.76,13.71s-3.76,1.11-4.67-7Z"/><path class="cls-9" d="M287.36,149.6l7.27,5-1.58,7.73-1.65,7.4s-2.82.29-2.34-5.15l.2-6.91-4,10.51s-4.23.55-1.14-9.53l-4.93-1s-5,1.55-5.84.26C273.37,157.93,281.68,145.82,287.36,149.6Z"/><path class="cls-17" d="M187.55,43.62l-4.62,39.24a161.77,161.77,0,0,1,40.14.17l7.58-38.59A267.73,267.73,0,0,0,187.55,43.62Z"/><path class="cls-17" d="M169.56,143s21,10,26.06,12.06l-11.57,34.06-24.86-10.79Z"/><path class="cls-18" d="M167,137.45l-9.83,31.43,2.08,9.35,10.58-34.82,25.78,11.78-1.29-5.11Z"/><path class="cls-19" d="M140.13,153.88l-18.65,2.56-6-7.34-21.68-.9,24.64-4.82,4.23,6.85Z"/><path class="cls-19" d="M124,42.23,143,46l4.14,7.88,21.07,7.56-25.35-3.81-2.5-6.93Z"/></g></g></g></svg>