<svg width="28" height="28" viewBox="0 0 28 28" fill="none" xmlns="http://www.w3.org/2000/svg">
<g clip-path="url(#clip0)">
<path d="M17.5001 5.54167C16.855 5.54167 16.3335 5.019 16.3335 4.375V2.33333H11.6668V4.375C11.6668 5.019 11.1453 5.54167 10.5002 5.54167C9.855 5.54167 9.3335 5.019 9.3335 4.375V2.33333C9.3335 1.0465 10.38 0 11.6668 0H16.3335C17.6203 0 18.6668 1.0465 18.6668 2.33333V4.375C18.6668 5.019 18.1453 5.54167 17.5001 5.54167Z" fill="#296DB3"/>
<path d="M16.3801 25.8651V26.7051C16.3801 27.4168 15.7968 28.0001 15.0734 28.0001H12.9268C12.2968 28.0001 11.6201 27.5334 11.6201 26.4951V25.8651H16.3801Z" fill="#296DB3"/>
<path d="M24.7917 3.5H3.20833C1.4385 3.5 0 4.9385 0 6.70833V18.9583C0 20.7282 1.4385 22.1667 3.20833 22.1667H7.0245C6.6115 21.1995 6.3945 20.1495 6.41783 19.0598C6.50183 15.0348 9.85367 11.718 13.8892 11.6667L14.0478 11.6655C16.03 11.6655 17.9095 12.4437 19.3398 13.8577C20.783 15.2693 21.5845 17.1757 21.5845 19.215C21.5845 20.2475 21.3663 21.2462 20.9732 22.1667H24.7917C26.5615 22.1667 28 20.7282 28 18.9583V6.70833C28 4.9385 26.5615 3.5 24.7917 3.5Z" fill="#296DB3"/>
<path d="M19.2512 19.215C19.2512 20.79 18.5512 22.26 17.3262 23.2517C16.8362 23.6483 16.5212 24.1617 16.4162 24.6983H11.5979C11.5162 24.1733 11.2245 23.6833 10.7462 23.31C9.4512 22.295 8.7162 20.7667 8.7512 19.11C8.80953 16.3333 11.1312 14.035 13.9195 14C15.3312 13.965 16.6845 14.5133 17.6995 15.5167C18.7029 16.4967 19.2512 17.815 19.2512 19.215Z" fill="#296DB3"/>
</g>
<defs>
<clipPath id="clip0">
<rect width="28" height="28" fill="white"/>
</clipPath>
</defs>
</svg>
