<svg width="28" height="28" viewBox="0 0 28 28" fill="none" xmlns="http://www.w3.org/2000/svg">
<g clip-path="url(#clip0)">
<path d="M17.5002 7.58337C16.8562 7.58337 16.3335 7.06071 16.3335 6.41671V4.66671H11.6668V6.41671C11.6668 7.06071 11.1442 7.58337 10.5002 7.58337C9.85616 7.58337 9.3335 7.06071 9.3335 6.41671V4.66671C9.3335 3.37987 10.38 2.33337 11.6668 2.33337H16.3335C17.6203 2.33337 18.6668 3.37987 18.6668 4.66671V6.41671C18.6668 7.06071 18.1442 7.58337 17.5002 7.58337Z" fill="#296DB3"/>
<path d="M14.8283 17.9433C14.6183 18.025 14.315 18.0833 14 18.0833C13.685 18.0833 13.3817 18.025 13.1017 17.92L0 13.5566V22.4583C0 24.2316 1.435 25.6666 3.20833 25.6666H24.7917C26.565 25.6666 28 24.2316 28 22.4583V13.5566L14.8283 17.9433Z" fill="#296DB3"/>
<path d="M28 9.04171V11.7134L14.28 16.2867C14.1867 16.3217 14.0933 16.3334 14 16.3334C13.9067 16.3334 13.8133 16.3217 13.72 16.2867L0 11.7134V9.04171C0 7.26837 1.435 5.83337 3.20833 5.83337H24.7917C26.565 5.83337 28 7.26837 28 9.04171Z" fill="#296DB3"/>
</g>
<defs>
<clipPath id="clip0">
<rect width="28" height="28" fill="white"/>
</clipPath>
</defs>
</svg>
