<svg width="28" height="28" viewBox="0 0 28 28" fill="none" xmlns="http://www.w3.org/2000/svg">
<g clip-path="url(#clip0)">
<path d="M9.08643 20.3435V22.1033C9.46146 22.0138 9.85204 21.9663 10.2533 21.9663H17.1706C17.5767 21.9663 17.9718 22.015 18.3511 22.1068V20.3435H9.08643Z" fill="#296DB3"/>
<path d="M17.1697 23.5521H10.2525C8.26359 23.5521 6.64551 25.2148 6.64551 27.2586C6.64551 27.668 6.9685 27.9999 7.3669 27.9999H20.0552C20.4536 27.9999 20.7766 27.668 20.7766 27.2586C20.7766 25.2148 19.1586 23.5521 17.1697 23.5521Z" fill="#296DB3"/>
<path d="M27.3357 17.8824V16.0784H0.0874023V17.8824C0.0874023 18.3354 0.444824 18.7027 0.885693 18.7027H26.5374C26.9783 18.7027 27.3357 18.3354 27.3357 17.8824Z" fill="#296DB3"/>
<path d="M27.3357 0.820557C27.3357 0.367525 26.9783 0.000244141 26.5374 0.000244141H0.885693C0.444824 0.000244141 0.0874023 0.367525 0.0874023 0.820557V14.4378H27.3357V0.820557ZM8.24801 8.97742L5.82317 11.4691C5.67347 11.623 5.47044 11.7094 5.25873 11.7094C5.04697 11.7094 4.84399 11.623 4.69428 11.4691L3.55145 10.2948C3.23969 9.97442 3.23969 9.45506 3.55145 9.1347C3.86321 8.81434 4.36864 8.81434 4.68039 9.1347L5.25873 9.72899L7.11907 7.81733C7.43077 7.49697 7.93625 7.49697 8.24801 7.81733C8.55977 8.13769 8.55977 8.65706 8.24801 8.97742ZM8.24801 4.00063L5.82317 6.49231C5.67347 6.64614 5.47044 6.73255 5.25873 6.73255C5.04697 6.73255 4.84399 6.64614 4.69428 6.49231L3.55145 5.318C3.23969 4.99764 3.23969 4.47828 3.55145 4.15792C3.86316 3.83756 4.36864 3.83756 4.68039 4.15792L5.25873 4.75215L7.11907 2.84049C7.43077 2.52013 7.93625 2.52013 8.24801 2.84049C8.55977 3.16085 8.55977 3.68028 8.24801 4.00063ZM23.3072 10.7299H11.8512C11.4104 10.7299 11.0529 10.3626 11.0529 9.90956C11.0529 9.45653 11.4104 9.08925 11.8512 9.08925H23.3072C23.748 9.08925 24.1055 9.45653 24.1055 9.90956C24.1055 10.3626 23.748 10.7299 23.3072 10.7299ZM23.3072 5.7531H11.8512C11.4104 5.7531 11.0529 5.38581 11.0529 4.93278C11.0529 4.47975 11.4104 4.11247 11.8512 4.11247H23.3072C23.748 4.11247 24.1055 4.47975 24.1055 4.93278C24.1055 5.38581 23.748 5.7531 23.3072 5.7531Z" fill="#296DB3"/>
</g>
<defs>
<clipPath id="clip0">
<rect width="27.2483" height="28" fill="white" transform="translate(0.0874023)"/>
</clipPath>
</defs>
</svg>
