<svg width="28" height="28" viewBox="0 0 28 28" fill="none" xmlns="http://www.w3.org/2000/svg">
<path d="M20.0156 9.57031C20.4687 9.57031 20.8359 9.20305 20.8359 8.75C20.8359 8.29695 20.4687 7.92969 20.0156 7.92969C19.5626 7.92969 19.1953 8.29695 19.1953 8.75C19.1953 9.20305 19.5626 9.57031 20.0156 9.57031Z" fill="#296DB3"/>
<path d="M21.9297 2.46094C22.3827 2.46094 22.75 2.09367 22.75 1.64062C22.75 1.18758 22.3827 0.820312 21.9297 0.820312C21.4766 0.820312 21.1094 1.18758 21.1094 1.64062C21.1094 2.09367 21.4766 2.46094 21.9297 2.46094Z" fill="#296DB3"/>
<path d="M7.98438 9.57031C8.43742 9.57031 8.80469 9.20305 8.80469 8.75C8.80469 8.29695 8.43742 7.92969 7.98438 7.92969C7.53133 7.92969 7.16406 8.29695 7.16406 8.75C7.16406 9.20305 7.53133 9.57031 7.98438 9.57031Z" fill="#296DB3"/>
<path d="M6.07031 2.46094C6.52336 2.46094 6.89062 2.09367 6.89062 1.64062C6.89062 1.18758 6.52336 0.820312 6.07031 0.820312C5.61727 0.820312 5.25 1.18758 5.25 1.64062C5.25 2.09367 5.61727 2.46094 6.07031 2.46094Z" fill="#296DB3"/>
<path d="M26.3886 2.29688C25.0213 2.29688 23.8587 3.27452 23.6242 4.62159L22.6237 10.3684C23.309 10.5079 23.9623 10.8421 24.4927 11.3726C25.932 12.8119 25.932 15.1538 24.4927 16.5931L20.6836 20.4023C20.3632 20.7226 19.8439 20.7226 19.5235 20.4023C19.2031 20.0819 19.2031 19.5625 19.5235 19.2422L23.3327 15.433C24.1323 14.6334 24.1323 13.3323 23.3327 12.5327C23.0503 12.2504 22.7054 12.0683 22.3422 11.9853L22.3413 11.9843C21.6763 11.8324 20.9503 12.0148 20.4324 12.5327L16.3967 16.5685C15.4154 17.5497 14.875 18.8544 14.875 20.2421V27.1797C14.875 27.6327 15.2423 28 15.6953 28H22.8047C23.2577 28 23.625 27.6327 23.625 27.1797V21.3162L26.7986 18.1425C27.5733 17.3678 28 16.3378 28 15.2422V3.9083C28 3.01973 27.2771 2.29688 26.3886 2.29688Z" fill="#296DB3"/>
<path d="M11.6033 16.5685L7.5676 12.5327C7.04971 12.0148 6.3239 11.8324 5.65895 11.9843L5.6578 11.9853C5.29457 12.0683 4.94966 12.2504 4.6673 12.5327C3.86772 13.3323 3.86772 14.6334 4.6673 15.433L8.47656 19.2421C8.79692 19.5625 8.79692 20.0819 8.47656 20.4022C8.1562 20.7226 7.63684 20.7226 7.31648 20.4022L3.50733 16.593C2.06806 15.1537 2.06806 12.8119 3.50733 11.3726C4.03785 10.8421 4.69104 10.5078 5.37638 10.3684L4.37582 4.62159C4.14132 3.27452 2.97872 2.29688 1.61142 2.29688C0.722914 2.29688 0 3.01973 0 3.9083V15.2422C0 16.3378 0.426672 17.3679 1.20138 18.1425L4.375 21.3162V27.1797C4.375 27.6327 4.74228 28 5.19531 28H12.3047C12.7577 28 13.125 27.6327 13.125 27.1797V20.2421C13.125 18.8544 12.5846 17.5497 11.6033 16.5685Z" fill="#296DB3"/>
<path d="M17.3798 12.0428C17.2493 12.0428 17.1182 12.0117 16.9981 11.9486L14 10.3724L11.0019 11.9486C10.7255 12.0939 10.3906 12.0696 10.138 11.8861C9.88538 11.7026 9.75883 11.3916 9.81166 11.0838L10.3842 7.74528L7.95869 5.38103C7.73512 5.1631 7.65462 4.83711 7.75109 4.54016C7.84762 4.2432 8.10432 4.02675 8.4133 3.98185L11.7653 3.4948L13.2644 0.457352C13.4026 0.177297 13.6878 0 14 0C14.3123 0 14.5974 0.177297 14.7356 0.457297L16.2347 3.49475L19.5867 3.9818C19.8957 4.0267 20.1525 4.24315 20.2489 4.5401C20.3454 4.83705 20.2649 5.16305 20.0413 5.38098L17.6157 7.74528L18.1884 11.0838C18.2411 11.3915 18.1146 11.7026 17.862 11.8861C17.7191 11.99 17.5499 12.0428 17.3798 12.0428Z" fill="#296DB3"/>
<path d="M14 14.4922C14.453 14.4922 14.8203 14.1249 14.8203 13.6719C14.8203 13.2188 14.453 12.8516 14 12.8516C13.547 12.8516 13.1797 13.2188 13.1797 13.6719C13.1797 14.1249 13.547 14.4922 14 14.4922Z" fill="#296DB3"/>
</svg>
