<svg width="56" height="56" viewBox="0 0 56 56" fill="none" xmlns="http://www.w3.org/2000/svg">
<circle cx="28" cy="28" r="28" fill="#991FA4"/>
<rect width="56" height="56" rx="10" fill="#991FA4"/>
<path d="M30.2602 27.9999C33.5664 27.9999 36.4875 24.893 36.7737 21.0737C36.9158 19.155 36.3127 17.3656 35.0752 16.0362C33.8507 14.7231 32.1391 14 30.2602 14C28.3663 14 26.6533 14.7187 25.4377 16.0237C24.2083 17.3431 23.6089 19.1362 23.7467 21.0724C24.0279 24.8924 26.9483 27.9999 30.2602 27.9999Z" fill="white"/>
<path d="M43.2483 39.4848C42.7198 36.5586 41.0695 34.1005 38.4766 32.3755C36.1737 30.8436 33.2558 29.9999 30.2602 29.9999C27.2646 29.9999 24.3467 30.8436 22.0438 32.3749C19.4509 34.0999 17.8006 36.558 17.272 39.4842C17.1511 40.1548 17.3152 40.8179 17.7223 41.3036C17.907 41.5249 18.1388 41.7022 18.4009 41.8227C18.663 41.9431 18.9488 42.0036 19.2373 41.9998H41.283C41.5717 42.0039 41.8577 41.9436 42.12 41.8232C42.3824 41.7029 42.6145 41.5255 42.7993 41.3042C43.2051 40.8186 43.3692 40.1554 43.2483 39.4848Z" fill="white"/>
<path d="M18.7363 29.9999V27.5H21.2415C21.5072 27.5 21.7621 27.3946 21.9501 27.2071C22.138 27.0195 22.2436 26.7652 22.2436 26.5C22.2436 26.2348 22.138 25.9804 21.9501 25.7929C21.7621 25.6053 21.5072 25.5 21.2415 25.5H18.7363V23C18.7363 22.7348 18.6307 22.4804 18.4428 22.2929C18.2549 22.1054 18 22 17.7342 22C17.4684 22 17.2136 22.1054 17.0256 22.2929C16.8377 22.4804 16.7321 22.7348 16.7321 23V25.5H14.2269C13.9612 25.5 13.7063 25.6053 13.5184 25.7929C13.3304 25.9804 13.2249 26.2348 13.2249 26.5C13.2249 26.7652 13.3304 27.0195 13.5184 27.2071C13.7063 27.3946 13.9612 27.5 14.2269 27.5H16.7321V29.9999C16.7321 30.2652 16.8377 30.5195 17.0256 30.707C17.2136 30.8946 17.4684 30.9999 17.7342 30.9999C18 30.9999 18.2549 30.8946 18.4428 30.707C18.6307 30.5195 18.7363 30.2652 18.7363 29.9999Z" fill="white"/>
</svg>
