<svg width="56" height="56" viewBox="0 0 56 56" fill="none" xmlns="http://www.w3.org/2000/svg">
<circle cx="28" cy="28" r="28" fill="#F5D8D8"/>
<path d="M17.2225 24.8493C17.0651 24.8507 16.9101 24.8105 16.7733 24.7326C16.673 24.6762 16.5849 24.6004 16.5142 24.5095C16.4435 24.4187 16.3917 24.3146 16.3617 24.2035C16.3317 24.0923 16.3242 23.9763 16.3396 23.8622C16.3549 23.7482 16.3929 23.6383 16.4513 23.5391C17.576 21.6618 20.998 17.2803 28.4649 17.2803C31.7008 17.2803 34.5388 18.1302 36.8961 19.8056C38.8363 21.1806 39.9237 22.737 40.4417 23.4866C40.5074 23.5811 40.5536 23.6877 40.5774 23.8003C40.6013 23.9129 40.6024 24.0291 40.5806 24.1421C40.5589 24.2552 40.5147 24.3627 40.4508 24.4584C40.3869 24.5541 40.3045 24.636 40.2084 24.6994C40.0121 24.8292 39.7729 24.8774 39.5416 24.8338C39.3103 24.7903 39.105 24.6584 38.9694 24.466C38.0319 23.1179 35.1735 19.0158 28.4649 19.0158C21.9167 19.0158 18.9562 22.7906 17.9919 24.4094C17.9144 24.5446 17.8023 24.6567 17.667 24.734C17.5317 24.8113 17.3783 24.8511 17.2225 24.8493Z" fill="#C92B2B"/>
<path d="M32.227 42C32.1525 42.0009 32.0782 41.9924 32.0059 41.9749C26.5894 40.6332 24.5669 35.2185 24.4847 34.9933L24.4718 34.9437C24.4275 34.7874 23.3407 31.0743 25.0091 28.8996C25.7739 27.9079 26.9371 27.3992 28.4731 27.3992C29.9011 27.3992 30.9313 27.8431 31.6395 28.7619C32.2229 29.5121 32.4562 30.4373 32.682 31.3287C33.1562 33.1849 33.4987 34.1597 35.4698 34.26C36.3355 34.3038 36.9043 33.7974 37.2269 33.3663C38.099 32.1909 38.2507 30.2745 37.5932 28.5828C36.7485 26.3993 33.7507 22.2826 28.4649 22.2826C26.2085 22.2826 24.1352 23.0077 22.4727 24.3704C21.0966 25.4992 20.0063 27.0929 19.4812 28.731C18.5076 31.7808 19.7846 36.5748 19.7968 36.6185C19.8267 36.7301 19.8338 36.8465 19.8179 36.9609C19.802 37.0753 19.7634 37.1853 19.7043 37.2846C19.6452 37.3838 19.5669 37.4702 19.4738 37.5386C19.3808 37.6071 19.275 37.6562 19.1627 37.6831C18.9358 37.7435 18.6944 37.7125 18.49 37.5969C18.2857 37.4814 18.1347 37.2903 18.0695 37.0648C18.0112 36.846 16.6473 31.7329 17.772 28.2083C18.9971 24.3891 22.7778 20.5389 28.4667 20.5389C31.0958 20.5389 33.5798 21.4326 35.653 23.1203C37.2584 24.4328 38.5698 26.1957 39.2558 27.958C40.1279 30.208 39.894 32.7334 38.6614 34.3831C37.84 35.4833 36.6704 36.0585 35.3747 35.9961C31.9994 35.8269 31.3928 33.4707 30.9506 31.7522C30.4956 29.9893 30.2045 29.1393 28.4667 29.1393C27.5123 29.1393 26.842 29.4018 26.4249 29.9455C25.8561 30.6893 25.8118 31.8519 25.8748 32.6955C25.9162 33.2832 26.0158 33.8653 26.1723 34.4333C26.3112 34.7833 28.119 39.2168 32.4486 40.2896C32.5605 40.3161 32.6661 40.3646 32.7591 40.4322C32.8521 40.4998 32.9307 40.5853 32.9904 40.6836C33.0501 40.7819 33.0897 40.8911 33.1069 41.0048C33.124 41.1185 33.1184 41.2345 33.0903 41.346C33.0375 41.5343 32.9245 41.7001 32.7686 41.8182C32.6127 41.9363 32.4225 42.0001 32.227 42Z" fill="#C92B2B"/>
<path d="M25.2747 41.5997C25.1533 41.5999 25.033 41.5757 24.9212 41.5285C24.8093 41.4813 24.7081 41.4121 24.6236 41.3249C22.4559 39.0498 21.2297 36.5058 20.7682 33.3248V33.3079C20.5092 31.202 20.8884 28.2204 22.7464 26.1705C24.1179 24.6579 26.0459 23.889 28.4668 23.889C31.3299 23.889 33.5799 25.2203 34.9828 27.7328C36.0008 29.5581 36.2026 31.377 36.2079 31.4516C36.2186 31.5668 36.2064 31.6829 36.1722 31.7933C36.1379 31.9037 36.0822 32.0063 36.0082 32.0952C35.9342 32.1841 35.8435 32.2575 35.7411 32.3112C35.6387 32.3649 35.5268 32.3979 35.4116 32.4083C35.1793 32.4336 34.9463 32.3664 34.7631 32.2213C34.5798 32.0763 34.461 31.865 34.4322 31.6331C34.2785 30.5417 33.9253 29.4879 33.3903 28.5244C32.3029 26.6057 30.6485 25.6304 28.4604 25.6304C26.5703 25.6304 25.0915 26.1991 24.0741 27.3221C22.6076 28.9409 22.3241 31.4347 22.5253 33.0845C22.9296 35.8974 24.0105 38.1351 25.9193 40.1349C25.9989 40.2177 26.0611 40.3158 26.1021 40.4232C26.1431 40.5306 26.1622 40.6451 26.158 40.76C26.1539 40.8749 26.1267 40.9878 26.0781 41.0919C26.0294 41.1961 25.9603 41.2894 25.8749 41.3663C25.7104 41.5154 25.4967 41.5985 25.2747 41.5997Z" fill="#C92B2B"/>
<path d="M35.2609 39.0936C33.365 39.0936 31.7532 38.5686 30.4634 37.525C27.8722 35.4371 27.5817 32.0368 27.5688 31.8933C27.5506 31.6577 27.6266 31.4245 27.7803 31.2451C27.9339 31.0656 28.1526 30.9545 28.3881 30.9363C28.6237 30.918 28.8569 30.9941 29.0363 31.1477C29.2158 31.3014 29.3269 31.52 29.3451 31.7556C29.3516 31.8057 29.6106 34.5872 31.608 36.1891C32.7898 37.1329 34.3696 37.5075 36.3162 37.2887C36.5489 37.2605 36.7833 37.3255 36.9681 37.4696C37.1529 37.6137 37.2732 37.8251 37.3027 38.0576C37.3154 38.1724 37.3052 38.2887 37.2725 38.3995C37.2398 38.5104 37.1854 38.6136 37.1124 38.7032C37.0395 38.7928 36.9494 38.867 36.8474 38.9214C36.7455 38.9758 36.6337 39.0093 36.5187 39.0201C36.1012 39.0688 35.6812 39.0933 35.2609 39.0936Z" fill="#C92B2B"/>
<path d="M36.7591 15.9117C36.0194 15.4305 33.3966 13.9989 28.465 13.9989C23.2883 13.9989 20.6591 15.5804 20.0775 15.9823C20.0391 16.0059 20.0031 16.0332 19.9702 16.064C19.9667 16.0673 19.9622 16.0694 19.9573 16.0698C19.8645 16.1509 19.7899 16.2509 19.7387 16.363C19.6875 16.4752 19.6608 16.597 19.6604 16.7202C19.662 16.8358 19.6864 16.9499 19.7322 17.0561C19.7779 17.1622 19.8442 17.2583 19.9272 17.3387C20.0101 17.4192 20.1082 17.4825 20.2157 17.525C20.3231 17.5676 20.4379 17.5885 20.5535 17.5865C20.7388 17.5864 20.9195 17.5296 21.0715 17.4238C21.0966 17.4051 23.3594 15.7425 28.4667 15.7425C33.574 15.7425 35.8491 17.3993 35.8736 17.4115C36.0289 17.5267 36.2175 17.5881 36.4108 17.5865C36.5265 17.5883 36.6414 17.5672 36.7489 17.5245C36.8564 17.4817 36.9544 17.4182 37.0372 17.3375C37.1201 17.2568 37.1862 17.1605 37.2318 17.0542C37.2774 16.9479 37.3015 16.8336 37.3028 16.7179C37.3028 16.5447 37.2511 16.3753 37.1542 16.2317C37.0574 16.088 36.9198 15.9766 36.7591 15.9117Z" fill="#C92B2B"/>
</svg>
