<svg width="56" height="56" viewBox="0 0 56 56" fill="none" xmlns="http://www.w3.org/2000/svg">
<circle cx="28" cy="28" r="28" fill="#FDE7CB"/>
<path d="M16.8456 22.9232C16.3394 23.8099 15.9431 24.7538 15.6624 25.7317H32.4429C32.7385 25.7317 33.0112 25.8908 33.1568 26.148L34.0173 27.6682L34.7089 26.202C34.8444 25.9149 35.1333 25.7317 35.4508 25.7317H40.3641C40.0834 24.7538 39.6872 23.8099 39.1809 22.9232C39.0349 22.6675 38.763 22.5096 38.4686 22.5096H17.558C17.2635 22.5096 16.9916 22.6675 16.8456 22.9232Z" fill="#F79B24"/>
<path d="M35.9707 27.3724L34.8254 29.8005C34.6947 30.0777 34.4203 30.2589 34.114 30.2703C34.1038 30.2706 34.0935 30.2708 34.0834 30.2708C33.7887 30.2708 33.5155 30.1124 33.3696 29.8546L31.9646 27.3724H15.305C15.2101 28.0039 15.1616 28.6437 15.1616 29.2864C15.1616 32.7192 16.4984 35.9465 18.9258 38.3738C21.3531 40.8012 24.5804 42.138 28.0132 42.138C31.4459 42.138 34.6732 40.8012 37.1006 38.3738C39.528 35.9465 40.8647 32.7192 40.8647 29.2864C40.8647 28.6437 40.8162 28.0038 40.7213 27.3723H35.9707V27.3724Z" fill="#F79B24"/>
<path d="M18.6007 20.389L18.8781 20.8694H20.7725L20.0215 19.5687L23.3922 17.6227C23.676 17.4588 23.8351 17.1417 23.7967 16.8163C23.7584 16.4908 23.53 16.2194 23.2159 16.126L16.6465 14.1724C16.4305 14.1081 16.1977 14.1356 16.0025 14.2482C15.8074 14.3609 15.6672 14.5488 15.6148 14.768L14.022 21.434C13.9458 21.7528 14.0667 22.0862 14.3294 22.2821C14.4742 22.3902 14.6467 22.445 14.82 22.445C14.9611 22.445 15.1026 22.4086 15.2301 22.335L18.6007 20.389Z" fill="#F79B24"/>
<path d="M41.1945 14.1379H37.0804C36.7669 14.1379 36.4809 14.3165 36.3433 14.5982L33.2803 20.8691H35.1062L37.5927 15.7786H41.1945C41.6475 15.7786 42.0148 15.4113 42.0148 14.9583C42.0148 14.5053 41.6475 14.1379 41.1945 14.1379Z" fill="#F79B24"/>
</svg>
