<?xml version="1.0" encoding="utf-8"?>
<!-- Generator: Adobe Illustrator 24.0.1, SVG Export Plug-In . SVG Version: 6.00 Build 0)  -->
<svg version="1.1" id="Layer_1" xmlns="http://www.w3.org/2000/svg" xmlns:xlink="http://www.w3.org/1999/xlink" x="0px" y="0px"
	 viewBox="0 0 56 56" style="enable-background:new 0 0 56 56;" xml:space="preserve">
<style type="text/css">
	.st0{fill:#DCDFF1;}
	.st1{fill:#3F51B5;}
</style>
<circle class="st0" cx="28" cy="28" r="28"/>
<path class="st1" d="M41.7,14.3c-2.1-0.7-4.5-0.2-6.1,1.4l-5.8,5.8l-12.2-5.2l-2.3,2.3l9.9,7.5l-5.3,5.3l-3.5-1.2L14,32.7l5.8,3.5
	l3.5,5.8l2.3-2.3l-1.2-3.5l5.3-5.3l7.5,9.9l2.3-2.3l-5.2-12.2l5.8-5.8C41.9,18.8,42.4,16.5,41.7,14.3z"/>
<path class="st1" d="M40.2,28.5c-0.6-0.6-1.7-0.6-2.3,0L37.4,29l1.4,3.2l1.4-1.4C40.9,30.2,40.9,29.2,40.2,28.5z"/>
<path class="st1" d="M27.5,15.8c-0.6-0.6-1.7-0.6-2.3,0l-1.4,1.4l3.2,1.4l0.5-0.5C28.1,17.5,28.1,16.4,27.5,15.8z"/>
</svg>
