<?xml version="1.0" encoding="utf-8"?>
<!-- Generator: Adobe Illustrator 24.0.1, SVG Export Plug-In . SVG Version: 6.00 Build 0)  -->
<svg version="1.1" id="Layer_1" xmlns="http://www.w3.org/2000/svg" xmlns:xlink="http://www.w3.org/1999/xlink" x="0px" y="0px"
	 viewBox="0 0 411.9 405.8" style="enable-background:new 0 0 411.9 405.8;" xml:space="preserve">
<style type="text/css">
	.st0{opacity:0.5;}
	.st1{fill:#D8E4F1;}
	.st2{fill:#202020;}
	.st3{fill:#7F99B4;}
	.st4{fill:#FFFFFF;}
	.st5{fill:#454545;}
	.st6{fill:#C69076;}
	.st7{fill:#F4F7FB;}
	.st8{fill:#1E5083;}
	.st9{fill:#133252;}
	.st10{fill:#A37661;}
	.st11{fill:#333333;}
	.st12{fill:#9DBCDC;}
	.st13{fill:#C92B2B;}
</style>
<g class="st0">
	<path class="st1" d="M80.4,122.7c-3.9-6.8,1.8-15.5,7.1-20.7c24.6-24,55.2-47.7,81.7-68.5c15.9-12.1,32.6-22.7,49.8-31.4
		c5.2-2.6,12.9-3.9,14.9,2.6c1.4,4.7-1.7,9.5-4.7,13c-30.7,36.7-65.5,68.1-103.1,93c-10.6,7-21.6,13.6-33.5,15.9
		C88.2,127.4,82.9,127.2,80.4,122.7z"/>
	<path class="st1" d="M411.9,166.6v127.5c-6.7,10.4-14.6,19.8-23,27.8c-11.5,10.9-24,20.1-36.6,29.2c-3.8,2.7-7.5,5.4-11.2,8.1
		c-0.2,0.1-0.4,0.3-0.5,0.4c-2.9,2.1-5.8,4.3-8.8,6.5c-6.2,4.8-12.3,9.8-18.2,15.2c-6.9,6.4-13.5,13.4-19.7,20.9
		c-1,1.2-1.9,2.4-2.9,3.6H120.8c-1.9-6.1-4-12-6.5-17.8c-4.7-11-10.5-21.2-18.1-29.4c-21.4-23.1-52.9-26.8-74.6-49.4
		C2.5,289.4-6,253.9,4.7,227.3c4.1-9.9,10.4-18.2,17.3-25.4c13.7-14.2,29.7-24.5,46.1-33.8c2.8-1.6,5.7-3.2,8.5-4.8
		c0.7-0.4,1.5-0.8,2.2-1.2c4.7-2.6,9.4-5.2,14.1-7.9c1.3-0.8,2.6-1.5,3.9-2.2c10.9-6.3,21.7-13.2,32.2-20.5
		c11-7.7,21.8-16,32.3-24.7c0.2-0.2,0.4-0.3,0.6-0.5l0,0c0.1-0.1,0.3-0.2,0.4-0.4c0.7-0.6,1.3-1.1,2-1.7s1.5-1.2,2.2-1.9
		c0,0,0,0,0.1,0c1.4-1.2,2.8-2.5,4.3-3.7c0,0,0,0,0-0.1c0.6-0.5,1.3-1.1,1.9-1.7c0.7-0.6,1.3-1.2,2-1.8c3.1-2.8,6.2-5.7,9.3-8.5
		c4.2-4,8.3-8,12.3-12.1c1.2-1.2,2.3-2.3,3.4-3.5c8.9-9.2,17.7-18.6,26.8-27.2c5.1-4.8,10.2-9.3,15.6-13.4c0.7-0.5,1.3-1,2-1.5
		c5-3.7,10.2-7,15.7-9.7c29.8-14.9,65.7-11.4,94.3,9.2s49.1,57.8,54,97.7c0.3,2.2,0.5,4.3,0.7,6.5c0,0.6,0.1,1.1,0.1,1.7
		c0.1,0.7,0.1,1.4,0.2,2.1c0.6,7.9,1,15.8,1.8,23.7C411.3,162.3,411.6,164.5,411.9,166.6z"/>
	<path class="st1" d="M81.2,405.8H38.9c-7.5-7.3-13.8-16.6-18.8-26.7c-2.1-4.2-4-8.8-4.2-13.8c-0.4-9.4,6.1-17.8,13.5-20.3
		c7.4-2.4,15.3,0,22.2,4.1c10.1,7.8,16.3,14.8,23.5,28c3.5,6.4,6.4,13.7,6.7,21.5C81.9,401,81.7,403.5,81.2,405.8z"/>
</g>
<path class="st2" d="M142.6,85.3c-25.8,5.7-24.1,51.2,0.8,56.9c8.7,2,17.5-0.9,25.5-4.1c4.5-1.8,8.9-3.9,13.1-6.3
	c0.4-0.3,5.2-2.5,5.2-3C187.2,128.8,183.7,76.2,142.6,85.3z"/>
<path class="st2" d="M121.7,60.1c0,0-15.6-20.3,4.7-35.2c18-13.2,44.5-11.7,55.5,11.7c2.3,5,7.9,7.6,13.2,6
	c10.7-3.1,28.3-5.1,42.3,8.3c21.8,20.9,14.5,60-21.7,62.8C179.4,116.6,121.7,60.1,121.7,60.1z"/>
<path class="st3" d="M169.2,215.1c0,0-30.8-96.7-2.7-112.8s45.3,115.9,45.3,115.9L169.2,215.1z"/>
<path class="st4" d="M155.9,120.2c-1.5,3.2-3.1,6.3-4.8,9.4c-0.6,1-1.1,2.1-1.7,3.1c-4.7,9-11.3,17.8-10.5,28
	c1.5,10.9,13.8,13.1,23.6,12.3c1.2-0.2,2.3-0.6,3.2-1.1c0.8-0.5,1.5-1,2.3-1.6c5.1-4.1,8.7-10.7,8.7-10.7s-0.4-0.5-1-1.3
	s-1.5-2-2.7-3.5c-3.6-5-4.3-10.1-5.5-16.1c-0.2-1.6-0.4-3.2-0.7-4.7c-0.3-6-3.9-11.8-9.4-13.7C156.4,120.2,155.9,120.2,155.9,120.2z
	"/>
<path class="st5" d="M317.1,231.6c-1.3-0.7-2.5-1.6-3.6-2.6s-2.1-2.2-2.9-3.5s-1.5-2.8-2-4.5c-0.4-1.7-0.6-3.6-0.3-5.5
	c0.3-1.9,1.3-3.9,2.5-5.3c0.6-0.8,1.3-1.4,2.1-1.9c0.4-0.3,0.7-0.5,1.1-0.7s0.8-0.4,1.1-0.6c0.8-0.4,1.5-0.7,2.3-1s1.5-0.5,2.3-0.7
	c1.5-0.3,3-0.7,4.6-0.8c3.1-0.4,6.5-0.1,9.6,1.3c1.5,0.7,2.9,1.7,4,2.9s2,2.4,2.8,3.8c1.4,2.7,2.2,5.5,2.7,8.3
	c0.4,2.8,0.5,5.6,0.3,8.4h-0.8c-0.2-1.3-0.5-2.7-0.8-4s-0.7-2.6-1.2-3.8c-0.9-2.5-2.1-4.8-3.6-6.7c-0.8-1-1.6-1.8-2.5-2.5
	s-1.9-1.1-2.9-1.4c-2-0.6-4.3-0.5-6.5,0.1c-0.6,0.1-1.1,0.4-1.7,0.5c-0.6,0.2-1.1,0.5-1.7,0.7c-0.5,0.3-1,0.5-1.5,0.8
	s-1,0.6-1.3,0.9c-0.8,0.6-1.5,1.3-2,1.9c-0.5,0.6-0.9,1.2-1.2,1.9c-0.6,1.4-0.7,3.6-0.3,6c0.4,2.4,1.1,5,1.9,7.8L317.1,231.6z"/>
<path class="st6" d="M305.2,205h18.5c0,0-13.4,5.6-12.5,16l-13.3-12.6L305.2,205z"/>
<path class="st1" d="M408.4,248.4c0,0-43-34.6-52.1-45.4l-50.4,43c0,0,25.9,35.7,54.1,51.8C360,297.9,390.7,273,408.4,248.4z"/>
<path class="st7" d="M407.7,241.3c0,0-43-34.6-52.1-45.4L305.2,239c0,0,25.9,35.7,54.1,51.8C359.3,290.8,390,266,407.7,241.3z"/>
<path class="st8" d="M257.6,266.9c-0.7,0.2-1.3,0.5-2,0.7c-10,3.3-20.3,4.6-30.4,4.6c-43.3,0-84.1-24.3-87.9-25.8
	c10.9,16.8,22.6,92.9,22.6,92.9l-12.7,2.8c0,0-66.6-101.2-37.7-120.9c29-19.7,123.2,1.2,123.2,1.2S308,248.8,257.6,266.9z"/>
<path class="st9" d="M257.6,266.9c-0.7,0.2-1.3,0.5-2,0.7c-10,3.3-20.3,4.6-30.4,4.6c-43.3,0-84.1-24.3-87.9-25.8
	c68.2,7.4,93.1-4,93.1-4L257.6,266.9z"/>
<path class="st8" d="M383.7,392.5l-15.6,2.8c-2.7-1.5-5.8-3.7-9.3-6.3l0,0c-1.4-1-2.8-2.1-4.2-3.3l-0.2-0.1l0,0
	C325.2,362.4,278,314,278,314c-67-68.5-70.5-109.1-70.5-109.1l79.6,32.3l23.7,69.3c16.1,10.3,51.5,56.9,66.2,76.8
	c0.7,0.9,1.3,1.7,1.8,2.5C381.9,390,383.7,392.5,383.7,392.5z"/>
<path class="st3" d="M220.8,111.6l37.9,44.3l48.5,48.6l-7.8,5.5l-69.5-47.3L220.8,111.6z"/>
<path class="st4" d="M168.9,101c0,0-21.8,8.7-14.1,43.4c7.7,34.7,28.8,80.6,58.3,73.1C242.6,210,178.4,101.4,168.9,101z"/>
<path class="st6" d="M147,88.1c0,0,7.8,1,13.8,14c1.6,3.5,3.1,7.9,4.3,13.3c5.5,25.8,25-20.9,25-20.9l-14.3-18.9l-21.2-8.3l-3.4,9.4
	L147,88.1z"/>
<path class="st10" d="M147,88.1c0,0,7.8,1,13.8,14c7-9.7-2.2-29-2.2-29l-7.5,3.7L147,88.1z"/>
<path class="st6" d="M129.5,88.8c12.3,12.5,32.7,3,36.2-15.9c0.9-4.9-0.5-12.7-2.2-19.3c-0.6-2.4-1.2-4.7-1.8-6.5
	c-1-3.2-1.7-5.3-1.7-5.3l-5-0.1l-24.6-0.5c-1.9,0-5.7,11.5-6.2,13.2c-2.9,8.7-3.7,18.6,0.6,27.4C126.1,84.7,127.7,86.9,129.5,88.8z"
	/>
<path class="st10" d="M121.8,65c4.6,2.3,10.4,3.2,16.3-1.7c13-10.6,25.4-3.8,25.4-3.8v-6v-5.1l-1.8-1.4l-6.7-5.4l-24.6-0.4
	C130.4,41.2,123.1,52.2,121.8,65z"/>
<path class="st6" d="M100.4,159.8l-19.3-14.3c0,0-11.3,2.1-17.1,10.3c-5.9,8.2,6.6,13.7,6.6,13.7h12.3h13.8L100.4,159.8z"/>
<path class="st1" d="M408.4,248.4l-0.7-7l-3.8,5.1l2.2,2h2.3V248.4z"/>
<path class="st1" d="M305.9,246l-0.7-7l4,5.2L305.9,246z"/>
<path class="st1" d="M379.1,224.8c0,0-33.6,39.9-51.9,40l3.6,3.6C330.8,268.4,351.6,264.7,379.1,224.8z"/>
<path class="st5" d="M357.8,247.9c3.1,3.1,6.5,4.8,7.5,3.8s-0.7-4.4-3.8-7.5s-6.5-4.8-7.5-3.8C353,241.4,354.7,244.8,357.8,247.9z"
	/>
<polygon class="st11" points="397.1,405.8 375.1,405.8 373,402.6 374,402.4 388.8,399.6 389.3,399.5 "/>
<path class="st6" d="M158.4,336l4.5,23.9l-12,1.1l-3.1-18.8L158.4,336z"/>
<path class="st11" d="M163.6,357.7l3.6,10.7l-43.4-0.3c0,0,5-9.7,27.9-10.4L163.6,357.7L163.6,357.7z"/>
<path class="st6" d="M388.8,399.6l-5.8-7.1l-14.9,2.8l6.1,7.3L388.8,399.6z"/>
<path class="st11" d="M159.9,340l-13.3,2.9c-0.5,0.1-1-0.1-1.3-0.5l-4.5-7.1c-0.5-0.8,0-1.9,0.9-1.9L159,332
	c0.7-0.1,1.3,0.5,1.3,1.1l0.5,5.5C161,339.3,160.5,339.9,159.9,340z"/>
<path class="st6" d="M324.7,213.8l2-2.5c1-1.2,1.2-2.9,0.4-4.3c-0.7-1.3-2-2.1-3.4-2.1h-3.9c-0.9,0-1.8,0.3-2.5,0.9l-4.2,3.5
	l-5.8,4.9c-0.8,0.6-1.2,1.5-1.4,2.5l-0.2,1.7c-0.1,0.7,0,1.3,0.3,2l0.4,0.9c0.6,1.5,2,2.4,3.6,2.4h3.7c1.1,0,2.1-0.5,2.9-1.2l8-8.6
	C324.6,213.9,324.7,213.9,324.7,213.8z"/>
<path class="st9" d="M378.9,385.9l-20.1,3.1l0,0l-4.2-3.3l-0.2-0.1c11.4,1.1,19.5-1.1,22.6-2.2C377.7,384.3,378.3,385.2,378.9,385.9
	z"/>
<path class="st11" d="M380.6,385.7l-21.3,3.1c-0.5,0.1-0.7,0.8-0.3,1.1l8.5,6c0.1,0.1,0.3,0.1,0.5,0.1l16.9-3.4
	c0.4-0.1,0.6-0.6,0.4-1l-4.1-5.8C381,385.7,380.8,385.6,380.6,385.7z"/>
<path class="st9" d="M370.6,387.2L331,350.8l-19.8-18.2l-9.9-9.1l-2.5-2.3l-1.2-1.1c-0.2-0.2-0.4-0.3-0.7-0.6
	c-0.3-0.3-0.5-0.6-0.6-0.9c-0.3-0.7-0.4-1.5-0.3-2.2c0-0.4,0.2-0.8,0.3-1.1c0.1-0.2,0.2-0.4,0.3-0.5l0.2-0.4l1.8-2.9
	c0.1-0.1,0.1-0.2,0.1-0.2c0-0.1,0.1-0.1,0.1-0.2s0-0.3,0-0.4c-0.1-0.3-0.2-0.5-0.4-0.6c-0.1-0.1-0.2-0.1-0.3-0.1H298h-0.1h-0.1h-0.4
	h-1.7h-3.4h-0.8c-0.2,0-0.7,0-1,0c-0.7-0.1-1.4-0.3-2-0.7c-0.6-0.4-1.2-0.9-1.6-1.5c-0.2-0.3-0.4-0.6-0.5-0.9l-0.4-0.8l-1.5-3
	l-3.1-6.1l-11.7-24.2l-23.5-48.5l3.9-1.9l22.5,48.9l11.2,24.5l2.8,6.1l1.4,3.1l0.4,0.8c0.1,0.2,0.2,0.4,0.3,0.5
	c0.2,0.3,0.5,0.6,0.8,0.8c0.3,0.2,0.7,0.4,1.1,0.4c0.3,0.1,1,0,1.5,0.1h3.4h1.7h0.4h0.1h0.2c0.1,0,0.2,0,0.3,0
	c0.4,0.1,0.8,0.2,1.2,0.5c0.7,0.5,1.3,1.2,1.4,2.1c0.1,0.4,0.1,0.9,0,1.3c0,0.2-0.1,0.4-0.2,0.6s-0.2,0.4-0.3,0.5l-1.8,2.8l-0.2,0.4
	c-0.1,0.1-0.1,0.2-0.2,0.3c-0.1,0.2-0.1,0.3-0.2,0.5c-0.1,0.3,0,0.7,0.1,1.1c0.1,0.2,0.2,0.3,0.3,0.5c0.1,0.1,0.4,0.3,0.5,0.5
	l1.2,1.2l2.4,2.3l9.7,9.3l19.4,18.6L370.6,387.2z"/>
<path class="st12" d="M186.1,154c1.8,6-3.4,10.2-2.2,15.9c1.6,7.1,5.1,14.9,9.4,22.2c5.9,10.1,13.1,19.6,18.5,26.1
	c4.8,5.8,11.5,9.8,18.9,11.1c12.5,2.2,32.8,6,44.5,8.7c17.9,4.2,20.9,1.1,20.9,1.1c-13-14.7-29.2-26.8-41.3-42.1
	c-5.1-6.5-10.9-15.6-15.8-25.1c-1.6-3.2-3.1-6.4-4.5-9.6c-6.4-14.1-7.8-30.1-10-45.4c-2.2-14.6-13.1-27.7-28.3-26.9
	c-8,0.7-14.5,5.8-16,13.1c-4.4,13.8,0,27.7,3.3,40.8C184.3,147.5,185.1,150.9,186.1,154z"/>
<path class="st3" d="M179.1,152.2c1.8,6,3.6,11.9,4.8,17.6c1.6,7.1,5.1,14.9,9.4,22.2c22.3-27.5,12.8-63.3,12.8-63.3L179.1,152.2z"
	/>
<path class="st12" d="M205.7,144c-7.1,12.7-17.8,33.8-20.9,40c-0.8,1.7-2.2,3.1-3.8,4.1c-3.9,2.3-12.3,5.2-28.2,2.5
	c-11.8-2-25.3-6.9-36.1-11.4c-2.9-1.2-5.6-2.4-8.1-3.5c-7.3-3.3-12.1-5.8-12.1-5.8l4-10.5c0,0,3-0.1,8.1,0c1.2,0,2.5,0.1,3.9,0.1
	c10.2,0.4,28.9,2.8,46,7c0.4,0.1,0.7,0.2,1.1,0.3c0.9,0.2,1.9,0.5,2.8,0.7l0.9-2.2l0.9-2.3l20-50.6c0,0-6.8-14.1,14.2-15.1
	C219.4,96.1,214.2,129,205.7,144z"/>
<path class="st12" d="M107.6,162.3c0,0,0,11,0,11.5c0,0.2,0.5,0.9,1.1,1.8c2.4,1.1,5.2,2.3,8.1,3.5c-3.1-6.7-4-17.1-4.1-19.6
	c-1.4-0.1-2.7-0.1-3.9-0.1L107.6,162.3z"/>
<path class="st3" d="M109.1,158.4l-7.9-0.8c-0.8-0.1-1.5,0.4-1.8,1.1l-3.9,10.8c-0.3,0.9,0.1,1.8,0.9,2.2l13.7,6.3
	c1.2,0.6,2.6-0.4,2.5-1.8l-1.9-16.3C110.6,159.1,109.9,158.5,109.1,158.4z"/>
<path class="st2" d="M128.5,37.4c0,0-4.1,9,6,15c10,6,17.7,0.1,24.2,11.2s10.6-14.8,10.6-14.8l-9-12.9l-17.2-1.5L128.5,37.4z"/>
<path class="st2" d="M164.4,67.8c-3.5-0.5-3.5,24.9-3.1,27.4c1.3,7.2,5.1,14.3,11.4,18.2c1.3,0.8,2.6,1.4,4,1.9
	c10.9,4.4,20.1-2.5,28.5-8.6c6.8-5,14.1,3.7,21.2,2.6c4-0.7,7.2-4.2,8.2-8.1c2-8-3.2-14.5-9-19.2c-4.1-3.4-8.6-6.5-13.6-8.5
	c-7.5-2.9-15.6-2.9-23.5-3.1C180.4,70.1,172.5,69,164.4,67.8z"/>
<path class="st4" d="M150.1,79.9c-0.1,0.9-0.2,2.1-0.5,3.1c-0.5,1.7-1.3,3.3-2.9,3.7c-3.2,0.8-5.4-0.3-7-2.1
	c-0.7-0.8-1.2-1.6-1.7-2.6c-0.3-0.5-0.5-1-0.6-1.5l12.9-2.9C150.1,77.6,150.2,78.6,150.1,79.9z"/>
<path class="st13" d="M139.3,76.8c-1.1-0.5-1.8,2.4-2,4l10.6-2.6c-1.3-0.7-4.4-2.1-6-2.6C140,74.8,140.6,77.4,139.3,76.8z"/>
<path class="st5" d="M167,68.3c-0.7,3.1-1,6.3-0.8,9.5c0.1,3.2,0.6,6.4,1.6,9.5c0.9,3.1,2.3,6,4.2,8.5c1.9,2.5,4.3,4.7,7.1,6.1
	c1.4,0.7,2.9,1.3,4.4,1.6c1.5,0.3,3.1,0.5,4.7,0.5c3.2,0,6.3-0.8,9.3-2.1c1.4-0.7,2.9-1.5,4.3-2.3c1.5-0.8,3-1.6,4.6-2.2
	s3.3-1.2,5-1.3c1.8-0.2,3.6,0.1,5.2,0.9c1.6,0.7,3,1.7,4.4,2.4c1.4,0.7,3,1.3,4.5,1.6c3.1,0.8,6.4,0.7,9.4-0.6
	c1.5-0.6,2.8-1.5,4-2.6s2.2-2.4,3-3.8c1.6-2.8,2.6-6,3.1-9.2s0.5-6.6-0.1-9.8c-0.6-3.2-1.8-6.4-3.4-9.2c-1.6-2.9-3.7-5.5-6.3-7.6
	c-2.6-2.1-5.5-3.7-8.2-5.6c2.8,1.8,5.7,3.4,8.3,5.5c2.6,2,4.8,4.7,6.5,7.5c1.7,2.9,3,6,3.6,9.3s0.7,6.7,0.3,10
	c-0.4,3.3-1.3,6.6-3,9.6c-0.8,1.5-1.8,2.9-3.1,4.1c-1.2,1.2-2.7,2.2-4.3,2.9c-3.2,1.4-6.8,1.6-10.1,0.9c-1.7-0.4-3.3-0.9-4.8-1.7
	c-1.6-0.7-2.9-1.7-4.4-2.3c-1.4-0.6-2.9-0.8-4.5-0.7c-1.5,0.2-3.1,0.7-4.5,1.3c-1.5,0.6-2.9,1.4-4.3,2.2c-1.4,0.8-2.8,1.7-4.4,2.5
	c-3.1,1.5-6.5,2.3-10,2.5c-1.7,0.1-3.5-0.1-5.2-0.4c-1.8-0.4-3.4-1-5-1.7c-3.2-1.5-5.9-3.9-8-6.6c-2.2-2.8-3.7-5.9-4.8-9.2
	c-1.1-3.3-1.7-6.7-1.9-10.1c-0.2-3.4,0-6.9,0.7-10.3L167,68.3z"/>
<path class="st6" d="M154.9,60.7c0,0,2.9-5.3,11.6-2.8c8.7,2.6,2.5,14-5.5,15.3C152.9,74.6,154.9,60.7,154.9,60.7z"/>
<path class="st10" d="M157.2,65.7c0.3-1.1,0.5-2.6,1.1-3.9c0.3-0.7,0.8-1.3,1.4-1.8s1.3-0.9,2-1.1c1.5-0.3,2.8,0,4,0.5
	c1.2,0.6,2.2,1.5,2.6,2.7c-0.6-1.1-1.8-1.7-2.9-2s-2.4-0.2-3.3,0.2s-1.5,1.3-1.7,2.3c-0.3,1-0.2,2.1-0.2,3.4l0,0
	c0,0.9-0.7,1.5-1.6,1.5c-0.8,0-1.5-0.7-1.5-1.6C157.2,65.9,157.2,65.8,157.2,65.7z"/>
<path class="st2" d="M155.4,49.5c0.1,0.2,0.1,0.3,0.2,0.4c0.1,0.1,0.1,0.2,0.1,0.3c0.1,0.2,0.1,0.4,0.2,0.7c0.1,0.4,0.2,0.9,0.3,1.3
	c0.2,0.9,0.2,1.7,0.3,2.6c0.1,1.7-0.1,3.4-0.5,5.1c-0.4,1.6-1,3.2-1.9,4.5c-0.4,0.7-0.9,1.3-1.3,2c-0.5,0.6-1.1,1.2-1.6,1.7
	c0.3-0.7,0.7-1.4,1-2.1s0.5-1.4,0.7-2.1c0.4-1.4,0.5-2.9,0.4-4.3c0-1.4-0.3-2.8-0.8-4.1c-0.2-0.6-0.5-1.3-0.8-1.9
	c-0.2-0.3-0.3-0.6-0.5-0.9c-0.1-0.1-0.2-0.3-0.3-0.4c0-0.1-0.1-0.1-0.1-0.2c0-0.1-0.1-0.1-0.1-0.1L155.4,49.5z"/>
</svg>
