<?xml version="1.0" encoding="utf-8"?>
<!-- Generator: Adobe Illustrator 24.0.1, SVG Export Plug-In . SVG Version: 6.00 Build 0)  -->
<svg version="1.1" id="Layer_1" xmlns="http://www.w3.org/2000/svg" xmlns:xlink="http://www.w3.org/1999/xlink" x="0px" y="0px"
	 viewBox="0 0 1440 1648" style="enable-background:new 0 0 1440 1648;" xml:space="preserve">
<style type="text/css">
	.st0{fill:url(#SVGID_1_);}
	.st1{display:none;opacity:0.2;}
	.st2{display:inline;fill-rule:evenodd;clip-rule:evenodd;fill:#9DBCDC;}
</style>
<linearGradient id="SVGID_1_" gradientUnits="userSpaceOnUse" x1="1339.8422" y1="1484.3956" x2="-113.8785" y2="1316.4437" gradientTransform="matrix(1 0 0 -1 0 2216)">
	<stop  offset="0" style="stop-color:#FEF9EB"/>
	<stop  offset="1" style="stop-color:#E9F2FF"/>
</linearGradient>
<path class="st0" d="M-3.1,0h720h720v1578.5c-697,214-873-144.2-1440-37.5L-3.1,0L-3.1,0z"/>
<g class="st1">
	<path class="st2" d="M569.4,586.5c-0.4,2.7-2.9,4.6-5.5,4.2c-2.6-0.4-4.5-2.6-4.2-5.4c0.3-2.7,2.8-4.8,5.5-4.4
		C567.9,581.3,569.8,583.8,569.4,586.5z"/>
	<path class="st2" d="M595.1,591.2c-0.6,2.6-3.2,4.2-5.8,3.8c-2.6-0.5-4.2-3.1-3.7-5.7c0.5-2.7,3.2-4.4,5.8-3.9
		C594.2,585.9,595.8,588.6,595.1,591.2z"/>
	<path class="st2" d="M620.3,598.3c-0.9,2.6-3.6,4.1-6.1,3.3s-3.9-3.5-3.2-6.1c0.8-2.6,3.5-4.1,6.1-3.3
		C619.8,592.9,621.2,595.7,620.3,598.3z"/>
	<path class="st2" d="M644.8,607.5c-1.1,2.5-3.9,3.7-6.4,2.7c-2.4-1-3.6-3.9-2.6-6.4s3.8-3.7,6.3-2.7
		C644.7,602.1,645.9,605,644.8,607.5z"/>
	<path class="st2" d="M668.4,618.9c-1.3,2.4-4.2,3.3-6.5,2.1c-2.3-1.3-3.3-4.1-2.1-6.5s4.2-3.5,6.6-2.2
		C668.8,613.5,669.7,616.5,668.4,618.9z"/>
	<path class="st2" d="M690.9,632.2c-1.5,2.3-4.4,2.9-6.7,1.5c-2.2-1.4-2.9-4.4-1.5-6.7s4.4-3.1,6.8-1.7
		C691.8,626.8,692.4,630,690.9,632.2z"/>
	<path class="st2" d="M712.1,647.4c-1.7,2.1-4.7,2.6-6.8,1s-2.5-4.7-0.9-6.9s4.7-2.7,6.8-1C713.5,642.2,713.8,645.3,712.1,647.4z"/>
	<path class="st2" d="M732,664.5c-1.9,2-4.9,2.2-6.9,0.4c-1.9-1.8-2.1-4.9-0.3-7s4.9-2.2,6.9-0.4C733.7,659.4,733.8,662.5,732,664.5
		z"/>
	<path class="st2" d="M750.2,683.3c-2,1.8-5.1,1.7-6.8-0.3c-1.8-2-1.6-5.1,0.4-7c1.9-1.9,5-1.8,6.8,0.3
		C752.4,678.3,752.2,681.5,750.2,683.3z"/>
	<path class="st2" d="M766.7,703.5c-2.2,1.6-5.2,1.2-6.7-0.9c-1.5-2.2-1.2-5.2,0.9-6.9c2.1-1.7,5.2-1.4,6.8,0.8
		C769.3,698.8,768.9,701.9,766.7,703.5z"/>
	<path class="st2" d="M781.5,725.1c-2.3,1.5-5.2,0.8-6.6-1.5c-1.5-2.2-0.8-5.2,1.4-6.8c2.2-1.5,5.3-0.9,6.8,1.4
		C784.5,720.6,783.8,723.7,781.5,725.1z"/>
	<path class="st2" d="M794.3,747.9c-2.4,1.2-5.2,0.3-6.5-2c-1.2-2.3-0.3-5.3,2-6.7c2.3-1.3,5.3-0.4,6.6,2
		C797.8,743.6,796.7,746.7,794.3,747.9z"/>
	<path class="st2" d="M805.1,771.8c-2.5,1-5.3-0.1-6.3-2.6s0.2-5.4,2.6-6.5c2.5-1.1,5.3,0,6.3,2.6
		C808.8,767.8,807.6,770.7,805.1,771.8z"/>
	<path class="st2" d="M813.7,796.5c-2.6,0.8-5.3-0.6-6-3.2c-0.8-2.5,0.7-5.3,3.2-6.2s5.2,0.5,6,3.2
		C817.7,792.9,816.3,795.7,813.7,796.5z"/>
	<path class="st2" d="M820.1,821.8c-2.6,0.6-5.2-1.1-5.7-3.7s1.1-5.3,3.7-5.9c2.6-0.7,5.3,0.9,5.8,3.7
		C824.5,818.6,822.8,821.3,820.1,821.8z"/>
	<path class="st2" d="M824.3,847.7c-2.7,0.3-5-1.6-5.3-4.2c-0.4-2.6,1.5-5.1,4.1-5.6c2.6-0.4,5.1,1.4,5.5,4.2
		C829,844.8,827,847.3,824.3,847.7z"/>
	<path class="st2" d="M826.3,873.8c-2.7,0.1-4.9-2-5-4.7s2-5,4.6-5.2s4.9,1.9,5,4.7C831.1,871.3,829,873.7,826.3,873.8z"/>
	<path class="st2" d="M825.9,900c-2.7-0.1-4.7-2.4-4.6-5.1c0.1-2.7,2.4-4.8,5.1-4.8c2.7,0,4.7,2.3,4.6,5.1
		C830.8,898,828.5,900.1,825.9,900z"/>
	<path class="st2" d="M823.2,926c-2.6-0.4-4.4-2.8-4-5.5s2.7-4.6,5.4-4.3c2.6,0.3,4.6,2.7,4.2,5.5
		C828.4,924.4,825.9,926.4,823.2,926z"/>
	<path class="st2" d="M818.4,951.8c-2.6-0.6-4.1-3.2-3.6-5.8s3.1-4.4,5.7-3.9c2.6,0.5,4.3,3.1,3.7,5.8
		C823.7,950.7,821,952.4,818.4,951.8z"/>
	<path class="st2" d="M811.4,977c-2.5-0.8-3.9-3.6-3.1-6.2c0.8-2.6,3.5-4.1,6.1-3.3c2.6,0.7,4,3.5,3.1,6.1
		C816.6,976.3,813.9,977.8,811.4,977z"/>
	<path class="st2" d="M802.1,1001.5c-2.4-1-3.6-3.9-2.5-6.4c1-2.5,3.9-3.7,6.4-2.8c2.5,1,3.6,3.8,2.5,6.4
		C807.3,1001.3,804.5,1002.5,802.1,1001.5z"/>
	<path class="st2" d="M790.7,1025.1c-2.3-1.3-3.2-4.2-1.9-6.6s4.1-3.4,6.5-2.2c2.3,1.2,3.4,4.2,2,6.7
		C796,1025.4,793,1026.3,790.7,1025.1z"/>
	<path class="st2" d="M777.3,1047.6c-2.2-1.5-2.7-4.4-1.3-6.8c1.4-2.3,4.4-3,6.6-1.7c2.3,1.4,2.9,4.4,1.5,6.8
		C782.6,1048.4,779.5,1049,777.3,1047.6z"/>
	<path class="st2" d="M762,1068.9c-2-1.6-2.4-4.7-0.8-6.9c1.6-2.2,4.6-2.6,6.8-1.1c2.1,1.6,2.5,4.7,0.9,6.9
		C767.1,1070.1,764.1,1070.6,762,1068.9z"/>
	<path class="st2" d="M744.9,1088.7c-1.9-1.8-2-5-0.2-7s4.9-2.2,6.9-0.4c2,1.8,2.1,4.9,0.2,7
		C749.9,1090.4,746.8,1090.6,744.9,1088.7z"/>
	<path class="st2" d="M726.1,1107c-1.8-2-1.6-5.1,0.4-6.9s5.1-1.7,6.9,0.2c1.8,1.9,1.7,5-0.4,6.9
		C730.9,1109.1,727.8,1109,726.1,1107z"/>
	<path class="st2" d="M705.8,1123.6c-1.6-2.2-1.1-5.2,1-6.9c2.2-1.6,5.1-1.3,6.8,0.8c1.6,2.1,1.3,5.3-0.9,6.9
		C710.4,1126.1,707.4,1125.7,705.8,1123.6z"/>
	<path class="st2" d="M684.2,1138.4c-1.4-2.3-0.6-5.3,1.6-6.7c2.2-1.5,5.2-0.9,6.6,1.3c1.5,2.2,0.8,5.3-1.5,6.9
		C688.6,1141.4,685.5,1140.7,684.2,1138.4z"/>
	<path class="st2" d="M661.4,1151.3c-1.2-2.4-0.2-5.3,2.1-6.7c2.3-1.3,5.2-0.4,6.5,1.9c1.3,2.4,0.3,5.4-2.1,6.7
		C665.5,1154.7,662.5,1153.7,661.4,1151.3z"/>
	<path class="st2" d="M637.5,1162.1c-1-2.5,0.2-5.4,2.7-6.5c2.4-1.1,5.3,0.1,6.3,2.5c1.1,2.5-0.1,5.4-2.7,6.5
		C641.3,1165.7,638.5,1164.6,637.5,1162.1z"/>
	<path class="st2" d="M612.8,1170.7c-0.7-2.6,0.7-5.4,3.2-6.2c2.5-0.8,5.2,0.6,6.1,3.1c0.8,2.6-0.6,5.3-3.2,6.2
		C616.2,1174.7,613.5,1173.3,612.8,1170.7z"/>
	<path class="st2" d="M587.4,1177.2c-0.5-2.6,1.2-5.3,3.8-5.8s5.2,1,5.8,3.6s-1,5.4-3.7,5.9C590.5,1181.5,587.9,1179.9,587.4,1177.2
		z"/>
	<path class="st2" d="M561.5,1181.5c-0.3-2.7,1.6-5.1,4.3-5.5c2.6-0.4,5,1.4,5.4,4c0.4,2.7-1.5,5.2-4.2,5.7
		C564.3,1186.1,561.8,1184.1,561.5,1181.5z"/>
	<path class="st2" d="M535.4,1183.5c0-2.7,2.1-5.1,4.7-5.2c2.6-0.2,4.9,1.9,5,4.6s-2,5-4.7,5.2
		C537.7,1188.2,535.5,1186.2,535.4,1183.5z"/>
	<path class="st2" d="M509.2,1183.1c0.2-2.7,2.5-4.8,5.1-4.7c2.6,0.1,4.7,2.4,4.6,5.1c-0.1,2.7-2.4,4.8-5.1,4.7
		C511.1,1188.1,509.1,1185.8,509.2,1183.1z"/>
	<path class="st2" d="M483.2,1180.5c0.4-2.7,2.9-4.6,5.5-4.2s4.5,2.6,4.2,5.4c-0.3,2.7-2.8,4.8-5.5,4.4
		C484.6,1185.7,482.8,1183.2,483.2,1180.5z"/>
	<path class="st2" d="M457.5,1175.7c0.6-2.6,3.2-4.2,5.8-3.8c2.6,0.5,4.2,3.1,3.7,5.7c-0.5,2.7-3.2,4.4-5.8,3.9
		C458.4,1181.1,456.8,1178.4,457.5,1175.7z"/>
	<path class="st2" d="M432.3,1168.7c0.9-2.6,3.6-4.1,6.1-3.3c2.5,0.8,3.9,3.5,3.2,6.1c-0.8,2.6-3.5,4.1-6.1,3.3
		C432.8,1174,431.4,1171.3,432.3,1168.7z"/>
	<path class="st2" d="M407.8,1159.5c1.1-2.5,3.9-3.7,6.4-2.7c2.4,1,3.6,3.9,2.6,6.4s-3.8,3.7-6.4,2.7
		C407.9,1164.8,406.7,1162,407.8,1159.5z"/>
	<path class="st2" d="M384.2,1148.1c1.3-2.4,4.2-3.3,6.5-2.1c2.3,1.3,3.3,4.1,2.1,6.6c-1.2,2.4-4.2,3.5-6.6,2.2
		S382.9,1150.5,384.2,1148.1z"/>
	<path class="st2" d="M361.7,1134.8c1.5-2.3,4.4-2.9,6.7-1.5c2.2,1.4,2.9,4.4,1.5,6.7c-1.4,2.3-4.4,3.1-6.8,1.7
		C360.8,1140.2,360.2,1137,361.7,1134.8z"/>
	<path class="st2" d="M340.4,1119.5c1.7-2.1,4.7-2.6,6.8-1s2.5,4.7,0.9,6.9c-1.6,2.2-4.7,2.7-6.8,1
		C339.1,1124.8,338.7,1121.7,340.4,1119.5z"/>
	<path class="st2" d="M320.6,1102.4c1.9-2,4.9-2.2,6.9-0.4c1.9,1.8,2.1,4.9,0.3,7c-1.8,2.1-4.9,2.2-6.9,0.4
		C318.9,1107.5,318.8,1104.4,320.6,1102.4z"/>
	<path class="st2" d="M302.4,1083.7c2-1.8,5.1-1.7,6.8,0.3c1.8,2,1.6,5.1-0.4,7c-1.9,1.9-5,1.8-6.8-0.3
		C300.2,1088.6,300.4,1085.5,302.4,1083.7z"/>
	<path class="st2" d="M285.8,1063.4c2.2-1.6,5.2-1.2,6.7,0.9c1.5,2.2,1.2,5.2-0.9,6.9c-2.1,1.7-5.2,1.4-6.8-0.8
		C283.2,1068.2,283.7,1065.1,285.8,1063.4z"/>
	<path class="st2" d="M271.1,1041.8c2.3-1.4,5.2-0.8,6.6,1.5c1.5,2.2,0.8,5.2-1.4,6.8c-2.2,1.5-5.3,0.9-6.8-1.4
		C268.1,1046.4,268.8,1043.3,271.1,1041.8z"/>
	<path class="st2" d="M258.2,1019c2.4-1.2,5.2-0.3,6.5,2c1.2,2.3,0.3,5.3-2,6.7c-2.4,1.3-5.3,0.4-6.6-2
		C254.8,1023.3,255.8,1020.3,258.2,1019z"/>
	<path class="st2" d="M247.5,995.2c2.5-1,5.3,0.1,6.3,2.6s-0.2,5.4-2.6,6.5c-2.4,1.1-5.3,0-6.3-2.6
		C243.8,999.1,245,996.2,247.5,995.2z"/>
	<path class="st2" d="M238.9,970.5c2.6-0.8,5.3,0.6,6,3.2c0.8,2.5-0.7,5.3-3.2,6.2s-5.2-0.5-6-3.2
		C234.9,974.1,236.3,971.3,238.9,970.5z"/>
	<path class="st2" d="M232.4,945.1c2.6-0.6,5.2,1.1,5.7,3.7s-1.1,5.3-3.7,5.9c-2.6,0.7-5.3-0.9-5.8-3.7
		C228.1,948.4,229.8,945.7,232.4,945.1z"/>
	<path class="st2" d="M228.2,919.3c2.7-0.3,5,1.6,5.3,4.2c0.4,2.6-1.5,5.1-4.1,5.6c-2.6,0.4-5.1-1.4-5.5-4.2
		C223.6,922.2,225.6,919.6,228.2,919.3z"/>
	<path class="st2" d="M226.3,893.2c2.7-0.1,4.9,2,5,4.7s-2,5-4.6,5.2c-2.7,0.2-4.9-1.9-5-4.7C221.5,895.6,223.6,893.3,226.3,893.2z"
		/>
	<path class="st2" d="M226.7,867c2.7,0.1,4.7,2.4,4.6,5.1c-0.1,2.7-2.4,4.8-5.1,4.8c-2.7,0-4.7-2.3-4.6-5.1
		C221.8,869,224.1,866.9,226.7,867z"/>
	<path class="st2" d="M229.3,841c2.6,0.4,4.4,2.8,4,5.5s-2.7,4.6-5.4,4.3c-2.6-0.3-4.6-2.7-4.2-5.5
		C224.2,842.5,226.7,840.6,229.3,841z"/>
	<path class="st2" d="M234.1,815.2c2.6,0.6,4.1,3.2,3.6,5.8s-3.1,4.4-5.7,3.9c-2.6-0.5-4.3-3.1-3.7-5.8
		C228.9,816.3,231.6,814.6,234.1,815.2z"/>
	<path class="st2" d="M241.2,790c2.5,0.8,3.9,3.6,3.1,6.1c-0.8,2.6-3.5,4.1-6.1,3.3c-2.6-0.7-4-3.5-3.1-6.1S238.7,789.2,241.2,790z"
		/>
	<path class="st2" d="M250.5,765.5c2.4,1.1,3.6,3.9,2.5,6.4c-1,2.5-3.9,3.7-6.4,2.8c-2.5-1-3.6-3.8-2.5-6.4S248.1,764.5,250.5,765.5
		z"/>
	<path class="st2" d="M261.9,741.9c2.3,1.3,3.2,4.2,1.9,6.6c-1.3,2.4-4.1,3.4-6.5,2.2c-2.3-1.2-3.4-4.2-2-6.7
		C256.6,741.6,259.6,740.6,261.9,741.9z"/>
	<path class="st2" d="M275.3,719.4c2.2,1.5,2.7,4.4,1.3,6.8c-1.4,2.3-4.4,3-6.6,1.7c-2.3-1.4-2.9-4.4-1.5-6.8
		C270,718.6,273.1,717.9,275.3,719.4z"/>
	<path class="st2" d="M290.6,698.1c2,1.6,2.4,4.7,0.8,6.9s-4.6,2.6-6.8,1.1c-2.1-1.6-2.5-4.7-0.9-6.9
		C285.4,696.9,288.5,696.4,290.6,698.1z"/>
	<path class="st2" d="M307.7,678.3c1.9,1.8,2,5,0.2,7s-4.9,2.2-6.8,0.4c-2-1.8-2.1-4.9-0.2-7C302.7,676.6,305.8,676.4,307.7,678.3z"
		/>
	<path class="st2" d="M326.5,660c1.7,2,1.6,5.1-0.4,6.9c-2,1.8-5.1,1.7-6.9-0.2s-1.6-5,0.4-6.9C321.7,657.9,324.8,658,326.5,660z"/>
	<path class="st2" d="M346.8,643.4c1.6,2.2,1.1,5.2-1,6.9c-2.2,1.6-5.1,1.4-6.8-0.8c-1.6-2.1-1.3-5.3,0.9-7
		C342.2,640.8,345.2,641.2,346.8,643.4z"/>
	<path class="st2" d="M368.4,628.6c1.4,2.3,0.6,5.3-1.6,6.7c-2.2,1.5-5.2,0.9-6.6-1.3c-1.5-2.2-0.8-5.3,1.5-6.9
		C364,625.6,367,626.3,368.4,628.6z"/>
	<path class="st2" d="M391.2,615.7c1.2,2.4,0.2,5.3-2.1,6.7c-2.3,1.3-5.2,0.4-6.5-1.9c-1.3-2.4-0.3-5.4,2.1-6.7
		C387.1,612.3,390.1,613.3,391.2,615.7z"/>
	<path class="st2" d="M415.1,604.9c1,2.5-0.2,5.4-2.7,6.5c-2.4,1.1-5.3-0.1-6.3-2.5c-1.1-2.5,0.1-5.4,2.7-6.5
		C411.3,601.2,414.1,602.4,415.1,604.9z"/>
	<path class="st2" d="M439.8,596.2c0.7,2.6-0.7,5.4-3.2,6.2s-5.2-0.6-6.1-3.1c-0.8-2.6,0.6-5.3,3.2-6.2
		C436.4,592.2,439.1,593.6,439.8,596.2z"/>
	<path class="st2" d="M465.2,589.8c0.5,2.7-1.2,5.3-3.8,5.8c-2.6,0.5-5.2-1-5.8-3.6c-0.6-2.6,1-5.4,3.7-5.9
		C462.1,585.5,464.7,587.1,465.2,589.8z"/>
	<path class="st2" d="M491,585.5c0.3,2.7-1.6,5.1-4.3,5.5c-2.6,0.4-5-1.4-5.4-4c-0.4-2.7,1.5-5.2,4.2-5.7
		C488.3,580.9,490.8,582.8,491,585.5z"/>
	<path class="st2" d="M517.2,583.5c0,2.7-2.1,5.1-4.7,5.2c-2.6,0.2-4.9-1.9-5-4.6c-0.1-2.7,2-5,4.7-5.2S517.1,580.8,517.2,583.5z"/>
	<path class="st2" d="M543.3,583.9c-0.2,2.7-2.5,4.8-5.1,4.7s-4.7-2.4-4.6-5.1c0.1-2.7,2.4-4.8,5.1-4.7
		C541.5,578.9,543.5,581.2,543.3,583.9z"/>
	<path class="st2" d="M567.3,613c-0.4,2.7-2.9,4.6-5.5,4.2c-2.6-0.4-4.4-2.7-4.1-5.4s2.8-4.7,5.5-4.3S567.8,610.4,567.3,613z"/>
	<path class="st2" d="M592.9,618.1c-0.7,2.6-3.3,4.3-5.8,3.6c-2.5-0.6-4.2-3.1-3.6-5.8c0.6-2.6,3.2-4.4,5.9-3.8
		C592,612.8,593.6,615.5,592.9,618.1z"/>
	<path class="st2" d="M617.8,625.5c-0.9,2.6-3.7,3.9-6.1,3.1c-2.5-0.8-3.8-3.5-3-6.1s3.6-4.1,6.2-3.3
		C617.4,620.1,618.7,623,617.8,625.5z"/>
	<path class="st2" d="M641.9,635.4c-1.2,2.5-4,3.5-6.4,2.5s-3.5-3.9-2.4-6.4s3.9-3.7,6.5-2.7C642,629.9,643,632.9,641.9,635.4z"/>
	<path class="st2" d="M664.9,647.4c-1.4,2.4-4.3,3.1-6.6,1.9c-2.3-1.2-3.1-4.2-1.8-6.6c1.3-2.4,4.3-3.3,6.7-2
		C665.6,642,666.3,645.1,664.9,647.4z"/>
	<path class="st2" d="M686.7,661.6c-1.6,2.2-4.5,2.7-6.7,1.2s-2.7-4.5-1.2-6.8s4.5-2.9,6.8-1.4C687.9,656.3,688.3,659.5,686.7,661.6
		z"/>
	<path class="st2" d="M707,677.9c-1.8,2.1-4.8,2.2-6.8,0.6c-2-1.7-2.2-4.7-0.5-6.9c1.7-2.1,4.8-2.4,6.9-0.7
		C708.7,672.6,708.8,675.8,707,677.9z"/>
	<path class="st2" d="M725.7,695.9c-2,1.9-5,1.8-6.8,0c-1.8-1.9-1.8-5,0.1-6.9c1.9-1.9,5-2,6.9,0
		C727.8,690.9,727.7,694.1,725.7,695.9z"/>
	<path class="st2" d="M742.6,715.7c-2.1,1.7-5.1,1.3-6.8-0.7c-1.6-2-1.3-5.1,0.8-6.9c2.1-1.8,5.1-1.5,6.8,0.6
		C745.2,710.9,744.7,714,742.6,715.7z"/>
	<path class="st2" d="M757.6,737c-2.3,1.5-5.2,0.8-6.7-1.3c-1.4-2.2-0.8-5.2,1.4-6.8s5.2-1,6.7,1.3
		C760.6,732.4,759.8,735.5,757.6,737z"/>
	<path class="st2" d="M770.4,759.6c-2.4,1.2-5.2,0.3-6.5-2c-1.2-2.3-0.3-5.3,2-6.6s5.3-0.5,6.6,1.9
		C773.8,755.3,772.8,758.4,770.4,759.6z"/>
	<path class="st2" d="M781.1,783.3c-2.5,1-5.3-0.2-6.3-2.6s0.2-5.3,2.6-6.4c2.5-1.1,5.3,0,6.3,2.6
		C784.8,779.4,783.6,782.3,781.1,783.3z"/>
	<path class="st2" d="M789.4,808c-2.5,0.8-5.3-0.7-6-3.2c-0.8-2.5,0.7-5.3,3.2-6.2s5.2,0.6,6,3.2C793.5,804.5,792,807.2,789.4,808z"
		/>
	<path class="st2" d="M795.3,833.3c-2.6,0.5-5.2-1.2-5.7-3.8s1.2-5.2,3.8-5.8s5.2,1.1,5.7,3.8C799.7,830.2,798,832.8,795.3,833.3z"
		/>
	<path class="st2" d="M798.8,859.1c-2.7,0.3-5-1.7-5.3-4.3c-0.2-2.6,1.7-5.1,4.4-5.4c2.6-0.4,5,1.6,5.3,4.3
		C803.4,856.4,801.5,858.9,798.8,859.1z"/>
	<path class="st2" d="M799.8,885.1c-2.7,0-4.8-2.2-4.8-4.8c0-2.7,2.2-4.9,4.9-5s4.8,2,4.8,4.8C804.6,882.9,802.4,885.1,799.8,885.1z
		"/>
	<path class="st2" d="M798.3,911.1c-2.7-0.3-4.6-2.6-4.3-5.3s2.6-4.7,5.3-4.5c2.7,0.1,4.7,2.5,4.3,5.3
		C803.3,909.3,800.9,911.4,798.3,911.1z"/>
	<path class="st2" d="M794.4,936.9c-2.6-0.5-4.3-3-3.8-5.7c0.6-2.6,2.9-4.4,5.6-4c2.6,0.4,4.5,3,3.9,5.7
		C799.6,935.6,797,937.4,794.4,936.9z"/>
	<path class="st2" d="M788.1,962.1c-2.5-0.8-4-3.4-3.2-6c0.7-2.6,3.3-4.1,5.9-3.5c2.6,0.7,4.1,3.4,3.4,6.1
		C793.4,961.3,790.7,962.9,788.1,962.1z"/>
	<path class="st2" d="M779.4,986.7c-2.5-1-3.6-3.8-2.6-6.3c0.9-2.5,3.7-3.8,6.2-2.9s3.8,3.7,2.8,6.4
		C784.8,986.4,781.9,987.7,779.4,986.7z"/>
	<path class="st2" d="M768.4,1010.3c-2.4-1.3-3.2-4.1-2-6.5s4-3.4,6.4-2.3s3.4,4.1,2.2,6.6C773.8,1010.6,770.7,1011.5,768.4,1010.3z
		"/>
	<path class="st2" d="M755.2,1032.7c-2.2-1.5-2.7-4.4-1.4-6.7c1.4-2.3,4.3-3,6.6-1.7c2.3,1.4,2.9,4.4,1.5,6.8
		C760.6,1033.6,757.4,1034.2,755.2,1032.7z"/>
	<path class="st2" d="M740,1053.8c-2.1-1.7-2.3-4.7-0.8-6.9c1.6-2.1,4.6-2.6,6.7-1c2.1,1.6,2.5,4.7,0.9,6.9
		C745.2,1055.2,742,1055.5,740,1053.8z"/>
	<path class="st2" d="M722.7,1073.4c-1.9-1.9-1.9-4.9-0.1-6.9c1.8-2,4.8-2.1,6.8-0.4c2,1.8,2.1,4.9,0.2,7
		C727.8,1075.2,724.6,1075.3,722.7,1073.4z"/>
	<path class="st2" d="M703.8,1091.3c-1.7-2-1.4-5.1,0.5-6.9c2-1.8,5-1.7,6.8,0.3s1.6,5.1-0.5,7
		C708.6,1093.5,705.5,1093.3,703.8,1091.3z"/>
	<path class="st2" d="M683.2,1107.2c-1.5-2.2-0.9-5.2,1.1-6.9c2.1-1.6,5.1-1.2,6.7,1c1.6,2.1,1.1,5.2-1.1,6.9
		C687.8,1110,684.7,1109.4,683.2,1107.2z"/>
	<path class="st2" d="M661.2,1121.2c-1.3-2.3-0.4-5.3,1.8-6.7c2.3-1.4,5.2-0.7,6.6,1.6c1.4,2.3,0.6,5.3-1.7,6.8
		C665.5,1124.4,662.5,1123.6,661.2,1121.2z"/>
	<path class="st2" d="M638,1133c-1-2.4,0-5.3,2.4-6.6c2.4-1.2,5.2-0.2,6.4,2.2c1.2,2.4,0.1,5.4-2.4,6.6
		C641.9,1136.6,639,1135.5,638,1133z"/>
	<path class="st2" d="M613.7,1142.6c-0.8-2.5,0.5-5.4,3-6.3s5.2,0.3,6.1,2.9c0.9,2.5-0.4,5.4-3,6.4
		C617.3,1146.4,614.6,1145.2,613.7,1142.6z"/>
	<path class="st2" d="M588.7,1149.8c-0.6-2.6,1-5.3,3.6-6c2.5-0.7,5.2,0.9,5.8,3.5c0.7,2.6-0.9,5.3-3.6,6
		C591.9,1154,589.3,1152.4,588.7,1149.8z"/>
	<path class="st2" d="M563.1,1154.5c-0.3-2.7,1.5-5.2,4.1-5.7c2.6-0.4,5,1.4,5.5,4c0.4,2.7-1.4,5.2-4.1,5.7
		S563.4,1157.2,563.1,1154.5z"/>
	<path class="st2" d="M537.2,1156.8c-0.1-2.7,2-5.1,4.6-5.2c2.6-0.2,4.9,1.9,5.1,4.6s-1.9,5-4.6,5.2
		C539.5,1161.5,537.2,1159.5,537.2,1156.8z"/>
	<path class="st2" d="M511.1,1156.6c0.2-2.7,2.5-4.8,5.1-4.7c2.6,0.1,4.7,2.4,4.6,5.1c-0.1,2.7-2.3,4.8-5.1,4.7
		C513,1161.5,510.9,1159.3,511.1,1156.6z"/>
	<path class="st2" d="M485.2,1153.9c0.4-2.7,2.9-4.6,5.5-4.2s4.4,2.7,4.1,5.4c-0.3,2.7-2.8,4.7-5.5,4.3
		C486.6,1159.1,484.8,1156.6,485.2,1153.9z"/>
	<path class="st2" d="M459.7,1148.9c0.7-2.6,3.3-4.3,5.8-3.6c2.5,0.6,4.2,3.1,3.6,5.8c-0.6,2.6-3.2,4.4-5.9,3.8
		C460.6,1154.2,459,1151.5,459.7,1148.9z"/>
	<path class="st2" d="M434.8,1141.4c0.9-2.6,3.7-3.9,6.1-3.1c2.5,0.8,3.8,3.5,3,6.1s-3.6,4.1-6.2,3.3
		C435.2,1146.8,433.9,1144,434.8,1141.4z"/>
	<path class="st2" d="M410.7,1131.6c1.2-2.5,4-3.5,6.4-2.5s3.5,3.9,2.4,6.4s-3.9,3.7-6.4,2.7
		C410.6,1137.1,409.5,1134.1,410.7,1131.6z"/>
	<path class="st2" d="M387.7,1119.6c1.4-2.4,4.3-3.1,6.6-1.9c2.3,1.2,3.1,4.2,1.8,6.6c-1.3,2.4-4.3,3.3-6.7,2
		C387,1125,386.3,1121.9,387.7,1119.6z"/>
	<path class="st2" d="M365.9,1105.3c1.6-2.2,4.5-2.7,6.7-1.2s2.7,4.5,1.2,6.8s-4.5,2.9-6.8,1.4
		C364.7,1110.7,364.3,1107.5,365.9,1105.3z"/>
	<path class="st2" d="M345.6,1089.1c1.8-2.1,4.8-2.2,6.8-0.6c2,1.7,2.2,4.7,0.5,6.9c-1.7,2.1-4.8,2.4-6.9,0.7
		C343.9,1094.4,343.8,1091.1,345.6,1089.1z"/>
	<path class="st2" d="M326.9,1071c2-1.9,5-1.8,6.8,0.1s1.8,5-0.1,6.9c-1.9,2-5,2-6.9,0C324.7,1076.1,324.9,1072.9,326.9,1071z"/>
	<path class="st2" d="M310,1051.3c2.1-1.7,5.1-1.3,6.8,0.7c1.6,2,1.3,5.1-0.8,6.9s-5.1,1.5-6.8-0.6
		C307.4,1056.1,307.8,1052.9,310,1051.3z"/>
	<path class="st2" d="M295,1030c2.3-1.5,5.2-0.8,6.7,1.3c1.4,2.2,0.8,5.2-1.4,6.8c-2.2,1.6-5.2,1-6.7-1.3
		C292,1034.5,292.7,1031.4,295,1030z"/>
	<path class="st2" d="M282.2,1007.4c2.4-1.2,5.2-0.3,6.5,2c1.2,2.3,0.3,5.3-2,6.6s-5.3,0.5-6.6-1.9
		C278.8,1011.6,279.8,1008.6,282.2,1007.4z"/>
	<path class="st2" d="M271.5,983.6c2.5-1,5.3,0.2,6.3,2.6s-0.2,5.3-2.6,6.4c-2.5,1.1-5.3,0-6.3-2.6
		C267.8,987.5,269,984.6,271.5,983.6z"/>
	<path class="st2" d="M263.2,959c2.5-0.8,5.3,0.7,6,3.2c0.8,2.5-0.7,5.3-3.2,6.2s-5.3-0.6-6-3.2C259.1,962.5,260.6,959.8,263.2,959z
		"/>
	<path class="st2" d="M257.2,933.7c2.6-0.5,5.2,1.2,5.7,3.8s-1.2,5.2-3.8,5.8c-2.6,0.6-5.2-1.1-5.7-3.8S254.6,934.2,257.2,933.7z"/>
	<path class="st2" d="M253.8,907.9c2.7-0.3,5,1.7,5.3,4.3c0.2,2.6-1.7,5.1-4.4,5.4c-2.7,0.4-5-1.6-5.3-4.3
		C249.2,910.5,251.1,908.1,253.8,907.9z"/>
	<path class="st2" d="M252.8,881.8c2.7,0,4.8,2.2,4.8,4.8c0,2.7-2.2,4.9-4.9,5s-4.8-2-4.8-4.8C248,884.1,250.2,881.8,252.8,881.8z"
		/>
	<path class="st2" d="M254.3,855.9c2.6,0.3,4.6,2.6,4.3,5.3c-0.3,2.6-2.6,4.7-5.3,4.5c-2.7-0.1-4.7-2.5-4.4-5.3
		C249.3,857.6,251.6,855.6,254.3,855.9z"/>
	<path class="st2" d="M258.2,830.1c2.6,0.5,4.3,3,3.7,5.7c-0.6,2.6-2.9,4.4-5.6,4c-2.6-0.4-4.5-3-3.9-5.7
		C253,831.4,255.6,829.6,258.2,830.1z"/>
	<path class="st2" d="M264.5,804.8c2.5,0.8,4,3.4,3.2,6c-0.7,2.6-3.3,4.1-5.9,3.5s-4.1-3.4-3.4-6.1
		C259.2,805.6,261.9,804.1,264.5,804.8z"/>
	<path class="st2" d="M273.1,780.3c2.5,1,3.6,3.8,2.6,6.3c-0.9,2.5-3.7,3.8-6.2,2.9s-3.7-3.8-2.8-6.4
		C267.8,780.5,270.7,779.3,273.1,780.3z"/>
	<path class="st2" d="M284.1,756.7c2.4,1.3,3.2,4.1,2,6.5s-4,3.4-6.4,2.3s-3.4-4.1-2.2-6.6C278.8,756.4,281.8,755.5,284.1,756.7z"/>
	<path class="st2" d="M297.4,734.2c2.2,1.5,2.7,4.4,1.4,6.7c-1.4,2.3-4.3,3-6.6,1.7c-2.3-1.4-2.9-4.4-1.5-6.8
		C292,733.4,295.2,732.8,297.4,734.2z"/>
	<path class="st2" d="M312.6,713.1c2.1,1.7,2.3,4.7,0.8,6.9c-1.6,2.1-4.6,2.6-6.7,1s-2.5-4.7-0.9-6.9
		C307.4,711.8,310.6,711.5,312.6,713.1z"/>
	<path class="st2" d="M329.8,693.6c1.9,1.9,1.9,4.9,0.1,6.9s-4.8,2.1-6.8,0.4c-2-1.8-2.1-4.9-0.2-7
		C324.8,691.7,328,691.7,329.8,693.6z"/>
	<path class="st2" d="M348.8,675.7c1.7,2.1,1.4,5.1-0.5,6.9c-2,1.8-5,1.7-6.8-0.3s-1.6-5.1,0.5-7C344,673.4,347.1,673.7,348.8,675.7
		z"/>
	<path class="st2" d="M369.4,659.7c1.5,2.2,0.9,5.2-1.2,6.9c-2.1,1.6-5.1,1.2-6.7-1c-1.6-2.1-1.1-5.2,1.1-6.9
		S367.9,657.5,369.4,659.7z"/>
	<path class="st2" d="M391.4,645.8c1.3,2.3,0.5,5.3-1.8,6.7s-5.2,0.7-6.6-1.6s-0.6-5.3,1.7-6.8C387.1,642.6,390.1,643.4,391.4,645.8
		z"/>
	<path class="st2" d="M414.6,634c1,2.4,0,5.3-2.4,6.6c-2.4,1.2-5.2,0.2-6.4-2.2c-1.2-2.4-0.1-5.4,2.4-6.6
		C410.7,630.4,413.6,631.5,414.6,634z"/>
	<path class="st2" d="M438.9,624.4c0.8,2.5-0.5,5.4-3,6.3c-2.5,0.9-5.2-0.3-6.1-2.9c-0.9-2.5,0.4-5.4,3-6.4
		C435.3,620.5,438,621.8,438.9,624.4z"/>
	<path class="st2" d="M463.9,617.2c0.6,2.6-1,5.3-3.6,6c-2.5,0.7-5.1-0.9-5.8-3.5c-0.7-2.6,0.9-5.3,3.6-6
		C460.7,613,463.3,614.6,463.9,617.2z"/>
	<path class="st2" d="M489.5,612.5c0.3,2.7-1.5,5.2-4.1,5.7c-2.6,0.4-5-1.4-5.5-4c-0.4-2.7,1.4-5.2,4.1-5.7S489.2,609.8,489.5,612.5
		z"/>
	<path class="st2" d="M515.4,610.2c0.1,2.7-2,5.1-4.6,5.2c-2.6,0.2-4.9-1.9-5.1-4.6c-0.2-2.7,1.9-5,4.6-5.2
		C513.1,605.5,515.4,607.5,515.4,610.2z"/>
	<path class="st2" d="M541.5,610.4c-0.2,2.7-2.5,4.8-5.1,4.7s-4.7-2.4-4.6-5.1c0.1-2.7,2.3-4.8,5.1-4.7
		C539.6,605.4,541.6,607.7,541.5,610.4z"/>
	<path class="st2" d="M565.3,639.6c-0.5,2.7-2.9,4.6-5.5,4.2c-2.6-0.4-4.4-2.8-4-5.5c0.3-2.7,2.8-4.6,5.5-4.3
		C563.9,634.5,565.7,636.9,565.3,639.6z"/>
	<path class="st2" d="M590.6,644.9c-0.7,2.6-3.4,4.3-5.9,3.6c-2.5-0.6-4-3.3-3.4-5.9c0.6-2.7,3.2-4.3,5.9-3.6
		C589.7,639.7,591.3,642.3,590.6,644.9z"/>
	<path class="st2" d="M615.1,652.9c-1,2.5-3.8,3.9-6.2,3s-3.7-3.7-2.8-6.3s3.7-3.9,6.2-3C614.9,647.5,616.1,650.4,615.1,652.9z"/>
	<path class="st2" d="M638.8,663.4c-1.2,2.4-4.1,3.5-6.5,2.4c-2.3-1.1-3.3-4-2.1-6.5c1.1-2.5,4-3.5,6.5-2.4
		C639,658,640,660.9,638.8,663.4z"/>
	<path class="st2" d="M661.1,676.3c-1.5,2.3-4.4,2.9-6.6,1.6c-2.2-1.3-2.9-4.3-1.5-6.7c1.4-2.3,4.4-3.1,6.7-1.7
		C662,670.9,662.6,674.1,661.1,676.3z"/>
	<path class="st2" d="M681.9,691.6c-1.7,2.1-4.7,2.5-6.7,0.9c-2.1-1.6-2.4-4.6-0.8-6.8c1.6-2.2,4.7-2.7,6.8-1
		C683.4,686.3,683.6,689.4,681.9,691.6z"/>
	<path class="st2" d="M701.1,708.9c-1.9,1.9-4.9,2-6.8,0.2c-1.8-1.9-1.9-4.8-0.1-6.9c1.8-2,5-2.2,6.9-0.3
		C703,703.8,703,706.9,701.1,708.9z"/>
	<path class="st2" d="M718.4,728.1c-2.1,1.7-5.1,1.5-6.8-0.5c-1.6-2-1.3-5.1,0.7-6.9c2-1.8,5.1-1.6,6.8,0.5
		C720.8,723.2,720.5,726.3,718.4,728.1z"/>
	<path class="st2" d="M733.6,748.9c-2.3,1.5-5.3,0.9-6.7-1.2c-1.4-2.2-0.8-5.2,1.4-6.8s5.2-1.1,6.7,1.2S735.8,747.4,733.6,748.9z"/>
	<path class="st2" d="M746.5,771.3c-2.4,1.2-5.3,0.4-6.5-1.9s-0.3-5.3,2-6.6c2.3-1.4,5.3-0.5,6.5,1.9
		C749.9,767.1,748.9,770,746.5,771.3z"/>
	<path class="st2" d="M757,794.9c-2.5,1-5.2-0.2-6.2-2.6s0.2-5.3,2.7-6.4s5.3,0,6.3,2.6C760.8,791,759.4,793.9,757,794.9z"/>
	<path class="st2" d="M764.9,819.5c-2.6,0.7-5.2-0.8-5.8-3.3c-0.7-2.5,0.7-5.2,3.3-6.1c2.6-0.8,5.3,0.6,6,3.2
		C769.1,816,767.5,818.8,764.9,819.5z"/>
	<path class="st2" d="M770.2,844.8c-2.6,0.4-5.1-1.3-5.5-3.9s1.3-5.1,3.9-5.7c2.6-0.6,5.2,1.2,5.6,3.9
		C774.7,841.8,772.9,844.3,770.2,844.8z"/>
	<path class="st2" d="M772.9,870.5c-2.7,0.2-4.9-1.9-5-4.5s1.8-5,4.5-5.3c2.6-0.3,5.1,1.7,5.1,4.5
		C777.6,868,775.5,870.3,772.9,870.5z"/>
	<path class="st2" d="M772.8,896.3c-2.7-0.1-4.7-2.4-4.6-5c0.2-2.6,2.4-4.8,5-4.8c2.7,0,4.8,2.2,4.6,5
		C777.7,894.3,775.5,896.4,772.8,896.3z"/>
	<path class="st2" d="M770.1,922c-2.6-0.4-4.4-2.9-4-5.5s2.9-4.5,5.5-4.2c2.7,0.3,4.5,2.7,4.1,5.5
		C775.2,920.5,772.7,922.4,770.1,922z"/>
	<path class="st2" d="M764.7,947.3c-2.6-0.7-4.1-3.3-3.5-5.9c0.7-2.6,3.3-4.2,5.9-3.6c2.6,0.6,4.1,3.2,3.5,5.9
		C769.9,946.4,767.3,948,764.7,947.3z"/>
	<path class="st2" d="M756.7,971.9c-2.5-1-3.8-3.7-2.8-6.2c0.9-2.5,3.7-3.8,6.2-3s3.8,3.6,2.8,6.2
		C762,971.5,759.2,972.9,756.7,971.9z"/>
	<path class="st2" d="M746.2,995.5c-2.3-1.2-3.3-4.1-2.2-6.5s4-3.4,6.5-2.3c2.4,1.1,3.4,4,2.2,6.5
		C751.4,995.7,748.6,996.8,746.2,995.5z"/>
	<path class="st2" d="M733.2,1017.9c-2.2-1.5-2.8-4.4-1.4-6.7c1.4-2.3,4.3-3,6.6-1.6s3,4.4,1.5,6.8
		C738.5,1018.7,735.4,1019.4,733.2,1017.9z"/>
	<path class="st2" d="M717.9,1038.8c-2.1-1.7-2.3-4.7-0.7-6.8c1.6-2.1,4.6-2.6,6.7-1c2.1,1.6,2.5,4.7,0.9,6.9
		C723.1,1040.1,720,1040.5,717.9,1038.8z"/>
	<path class="st2" d="M700.6,1058c-1.9-1.9-1.9-5,0-6.9s4.8-2.1,6.8-0.2c1.9,1.8,2.1,5,0.1,7C705.5,1059.8,702.4,1059.9,700.6,1058z
		"/>
	<path class="st2" d="M681.4,1075.3c-1.6-2.1-1.3-5.2,0.7-6.9c2-1.7,5.1-1.5,6.8,0.5c1.8,2,1.5,5.2-0.6,6.9
		C686.1,1077.7,683,1077.4,681.4,1075.3z"/>
	<path class="st2" d="M660.5,1090.5c-1.4-2.3-0.8-5.3,1.3-6.8c2.2-1.5,5.2-0.9,6.7,1.3c1.5,2.2,0.9,5.2-1.3,6.8
		C664.9,1093.4,661.9,1092.8,660.5,1090.5z"/>
	<path class="st2" d="M638.1,1103.5c-1.2-2.4-0.3-5.4,2-6.7c2.3-1.3,5.2-0.4,6.5,1.9s0.4,5.3-2,6.7
		C642.2,1106.8,639.3,1105.9,638.1,1103.5z"/>
	<path class="st2" d="M614.4,1114c-0.9-2.6,0.3-5.3,2.7-6.4s5.2,0.1,6.2,2.6s-0.2,5.4-2.7,6.5C618.2,1117.9,615.3,1116.5,614.4,1114
		z"/>
	<path class="st2" d="M589.8,1122c-0.6-2.6,0.9-5.3,3.4-6c2.5-0.8,5.1,0.6,5.9,3.2s-0.7,5.4-3.3,6.2
		C593.2,1126.1,590.5,1124.6,589.8,1122z"/>
	<path class="st2" d="M564.6,1127.4c-0.4-2.7,1.4-5.2,4-5.6s5,1.2,5.5,3.9c0.5,2.6-1.2,5.3-3.9,5.8
		C567.4,1131.8,564.9,1130,564.6,1127.4z"/>
	<path class="st2" d="M538.8,1130c-0.1-2.7,1.9-5,4.5-5.2c2.6-0.1,4.9,1.8,5.1,4.5s-1.8,5.2-4.5,5.3
		C541.2,1134.8,538.9,1132.7,538.8,1130z"/>
	<path class="st2" d="M513,1130c0.2-2.7,2.4-4.8,5-4.7c2.6,0.1,4.6,2.3,4.6,5c-0.1,2.7-2.3,4.9-5,4.8
		C514.9,1135,512.8,1132.7,513,1130z"/>
	<path class="st2" d="M487.3,1127.3c0.5-2.7,2.9-4.6,5.5-4.2s4.4,2.8,4,5.5c-0.3,2.7-2.8,4.6-5.5,4.3
		C488.7,1132.5,486.9,1130,487.3,1127.3z"/>
	<path class="st2" d="M462,1122c0.7-2.6,3.4-4.3,5.9-3.6c2.5,0.6,4,3.3,3.4,5.9c-0.6,2.7-3.2,4.3-5.9,3.6
		C462.8,1127.3,461.3,1124.6,462,1122z"/>
	<path class="st2" d="M437.4,1114.1c1-2.5,3.8-3.9,6.2-3c2.4,0.9,3.7,3.7,2.8,6.3c-0.9,2.6-3.7,3.9-6.2,3
		C437.7,1119.4,436.4,1116.6,437.4,1114.1z"/>
	<path class="st2" d="M413.8,1103.6c1.2-2.4,4.1-3.5,6.5-2.4c2.3,1.1,3.3,4,2.1,6.5c-1.1,2.5-4,3.5-6.5,2.4
		C413.5,1108.9,412.6,1106.1,413.8,1103.6z"/>
	<path class="st2" d="M391.5,1090.6c1.5-2.3,4.4-2.9,6.6-1.6s2.9,4.3,1.5,6.7c-1.4,2.3-4.4,3.1-6.7,1.7
		C390.6,1096,390,1092.9,391.5,1090.6z"/>
	<path class="st2" d="M370.6,1075.4c1.7-2.1,4.7-2.5,6.7-0.9c2.1,1.6,2.4,4.6,0.8,6.8c-1.6,2.2-4.7,2.7-6.8,1
		C369.2,1080.7,368.9,1077.5,370.6,1075.4z"/>
	<path class="st2" d="M351.5,1058.1c1.9-1.9,4.9-2,6.8-0.2c1.8,1.9,1.9,4.8,0.1,6.9c-1.8,2-5,2.2-6.9,0.3
		C349.5,1063.2,349.6,1060,351.5,1058.1z"/>
	<path class="st2" d="M334.2,1038.9c2.1-1.7,5.1-1.5,6.8,0.5c1.6,2,1.3,5.1-0.7,6.9s-5.1,1.6-6.8-0.5
		C331.8,1043.7,332.1,1040.6,334.2,1038.9z"/>
	<path class="st2" d="M319,1018c2.3-1.5,5.3-0.9,6.7,1.2c1.4,2.2,0.8,5.2-1.4,6.8c-2.2,1.6-5.2,1.1-6.7-1.2
		C316.1,1022.6,316.7,1019.5,319,1018z"/>
	<path class="st2" d="M306.1,995.7c2.4-1.2,5.3-0.4,6.5,1.9c1.2,2.3,0.3,5.3-2,6.6c-2.3,1.4-5.3,0.5-6.5-1.9
		C302.7,999.9,303.7,996.9,306.1,995.7z"/>
	<path class="st2" d="M295.6,972.1c2.5-1,5.2,0.2,6.2,2.6s-0.2,5.3-2.7,6.4s-5.3,0-6.3-2.6C291.7,976,293.2,973,295.6,972.1z"/>
	<path class="st2" d="M287.7,947.5c2.6-0.7,5.2,0.8,5.8,3.3c0.8,2.5-0.7,5.2-3.3,6.1c-2.6,0.8-5.3-0.6-6.1-3.2
		C283.5,950.9,285.1,948.2,287.7,947.5z"/>
	<path class="st2" d="M282.4,922.2c2.6-0.4,5.1,1.3,5.5,3.9s-1.3,5.1-3.9,5.7c-2.6,0.6-5.2-1.2-5.6-3.9
		C277.9,925.2,279.7,922.6,282.4,922.2z"/>
	<path class="st2" d="M279.7,896.5c2.7-0.2,4.9,1.9,5,4.5s-1.8,5-4.5,5.3c-2.6,0.3-5.1-1.7-5.1-4.5C275,899,277.1,896.7,279.7,896.5
		z"/>
	<path class="st2" d="M279.8,870.7c2.7,0.1,4.7,2.4,4.6,5c-0.2,2.6-2.4,4.8-5,4.8c-2.7,0-4.8-2.2-4.6-5
		C274.8,872.7,277.1,870.5,279.8,870.7z"/>
	<path class="st2" d="M282.5,844.9c2.6,0.4,4.4,2.9,4,5.5s-2.9,4.5-5.5,4.2c-2.7-0.3-4.5-2.7-4.1-5.5
		C277.4,846.4,279.9,844.5,282.5,844.9z"/>
	<path class="st2" d="M287.9,819.7c2.6,0.7,4.1,3.3,3.5,5.9c-0.7,2.6-3.3,4.2-5.9,3.6c-2.6-0.6-4.1-3.2-3.5-5.9
		C282.7,820.6,285.3,819,287.9,819.7z"/>
	<path class="st2" d="M295.9,795.1c2.5,1,3.8,3.7,2.8,6.2c-0.9,2.5-3.7,3.8-6.2,3s-3.8-3.6-2.8-6.2
		C290.6,795.4,293.4,794.1,295.9,795.1z"/>
	<path class="st2" d="M306.4,771.4c2.3,1.2,3.3,4.1,2.2,6.5s-4,3.4-6.4,2.3s-3.4-4-2.2-6.5C301.1,771.3,304,770.2,306.4,771.4z"/>
	<path class="st2" d="M319.4,749.1c2.2,1.5,2.8,4.4,1.5,6.7c-1.4,2.3-4.3,3-6.6,1.6c-2.3-1.4-3-4.4-1.5-6.8
		C314.1,748.3,317.2,747.6,319.4,749.1z"/>
	<path class="st2" d="M334.6,728.2c2.1,1.7,2.3,4.7,0.7,6.8s-4.6,2.6-6.7,1s-2.5-4.7-0.9-6.9C329.5,726.8,332.6,726.5,334.6,728.2z"
		/>
	<path class="st2" d="M352,709c1.9,1.9,1.9,5,0,6.9s-4.8,2.1-6.8,0.2c-1.9-1.8-2.1-5-0.1-7C347,707.1,350.1,707.1,352,709z"/>
	<path class="st2" d="M371.2,691.7c1.6,2.1,1.4,5.2-0.7,6.9c-2,1.7-5.1,1.5-6.8-0.5c-1.8-2-1.5-5.2,0.6-6.9
		C366.5,689.3,369.6,689.6,371.2,691.7z"/>
	<path class="st2" d="M392.1,676.4c1.4,2.3,0.8,5.3-1.3,6.8c-2.2,1.5-5.2,0.9-6.7-1.3s-0.9-5.2,1.3-6.8
		C387.7,673.6,390.7,674.2,392.1,676.4z"/>
	<path class="st2" d="M414.5,663.5c1.2,2.4,0.3,5.4-2,6.7s-5.2,0.4-6.5-1.9c-1.3-2.3-0.4-5.3,2-6.7
		C410.4,660.2,413.3,661.1,414.5,663.5z"/>
	<path class="st2" d="M438.1,653c0.9,2.6-0.3,5.3-2.7,6.4c-2.4,1.1-5.2-0.1-6.2-2.6s0.2-5.4,2.7-6.5
		C434.4,649.1,437.2,650.5,438.1,653z"/>
	<path class="st2" d="M462.7,645c0.7,2.6-0.9,5.3-3.4,6c-2.5,0.8-5.1-0.6-5.9-3.2c-0.8-2.6,0.7-5.4,3.3-6.2
		C459.4,640.8,462.1,642.4,462.7,645z"/>
	<path class="st2" d="M488,639.6c0.4,2.7-1.4,5.2-4,5.6c-2.6,0.4-5-1.2-5.5-3.9c-0.5-2.6,1.2-5.4,3.9-5.8
		C485.2,635.1,487.6,637,488,639.6z"/>
	<path class="st2" d="M513.7,636.9c0.1,2.7-1.9,5-4.5,5.2c-2.6,0.1-4.9-1.8-5.1-4.5s1.8-5.2,4.5-5.3
		C511.4,632.2,513.6,634.2,513.7,636.9z"/>
	<path class="st2" d="M539.6,637c-0.2,2.7-2.4,4.8-5,4.7s-4.6-2.3-4.6-5c0.1-2.7,2.3-4.9,5-4.8C537.7,632,539.8,634.2,539.6,637z"/>
	<path class="st2" d="M563.6,666.3c-0.5,2.7-3,4.6-5.6,4.2c-2.6-0.4-4.4-2.8-4-5.5s2.8-4.6,5.6-4.2
		C562.3,661.1,564.1,663.6,563.6,666.3z"/>
	<path class="st2" d="M589,672.1c-0.8,2.6-3.4,4-6,3.4c-2.5-0.6-4-3.3-3.4-5.9c0.7-2.6,3.4-4.3,6-3.6
		C588.3,666.7,589.8,669.6,589,672.1z"/>
	<path class="st2" d="M613.5,681c-1.1,2.5-3.9,3.7-6.3,2.7c-2.4-1-3.6-3.8-2.6-6.3s3.9-3.9,6.4-2.8
		C613.5,675.6,614.6,678.5,613.5,681z"/>
	<path class="st2" d="M636.9,692.7c-1.4,2.3-4.3,3.2-6.6,2s-3.1-4.2-1.9-6.6c1.3-2.4,4.2-3.3,6.6-2
		C637.5,687.3,638.3,690.3,636.9,692.7z"/>
	<path class="st2" d="M658.6,707.1c-1.6,2.2-4.6,2.7-6.7,1.1c-2.1-1.6-2.6-4.5-1.1-6.8c1.5-2.2,4.6-2.9,6.8-1.3
		C659.8,701.8,660.2,704.9,658.6,707.1z"/>
	<path class="st2" d="M678.5,723.9c-1.8,1.9-4.9,2.1-6.9,0.4c-1.9-1.8-2-4.9-0.3-6.9c1.8-2.1,4.8-2.2,6.9-0.4
		C680.3,718.8,680.4,721.9,678.5,723.9z"/>
	<path class="st2" d="M696.2,743.1c-2.1,1.7-5.1,1.5-6.7-0.5c-1.7-2-1.5-5,0.5-6.9c2-1.8,5.1-1.7,6.9,0.4
		C698.6,738.2,698.3,741.3,696.2,743.1z"/>
	<path class="st2" d="M711.7,764.1c-2.3,1.5-5.3,0.9-6.7-1.3s-0.8-5.3,1.4-6.8c2.2-1.6,5.2-1,6.7,1.3
		C714.6,759.5,714,762.6,711.7,764.1z"/>
	<path class="st2" d="M724.4,786.8c-2.4,1.2-5.3,0.3-6.4-2.1c-1.2-2.3-0.3-5.3,2-6.6s5.3-0.4,6.6,2
		C727.9,782.6,726.8,785.6,724.4,786.8z"/>
	<path class="st2" d="M734.5,810.9c-2.5,0.9-5.3-0.4-6.2-2.8c-0.9-2.5,0.5-5.3,2.9-6.4c2.5-1,5.3,0.2,6.2,2.8
		C738.3,807.1,737,810,734.5,810.9z"/>
	<path class="st2" d="M741.5,836c-2.6,0.6-5.1-1-5.7-3.6c-0.6-2.6,1-5.2,3.5-6c2.6-0.7,5.2,0.9,5.9,3.6
		C745.9,832.7,744.1,835.4,741.5,836z"/>
	<path class="st2" d="M745.6,861.8c-2.7,0.3-5-1.6-5.3-4.3c-0.2-2.6,1.6-5.1,4.2-5.5c2.6-0.4,5.2,1.5,5.4,4.3
		C750.2,859.1,748.2,861.5,745.6,861.8z"/>
	<path class="st2" d="M746.6,887.9c-2.6,0-4.8-2.2-4.8-4.9s2.2-4.9,4.9-5s4.8,2.1,4.8,4.9C751.4,885.7,749.3,887.9,746.6,887.9z"/>
	<path class="st2" d="M744.4,913.9c-2.7-0.4-4.4-2.8-4.1-5.4c0.3-2.6,2.7-4.6,5.3-4.4c2.7,0.2,4.6,2.6,4.3,5.4
		S747,914.3,744.4,913.9z"/>
	<path class="st2" d="M739.3,939.5c-2.6-0.7-4.1-3.3-3.5-5.9c0.7-2.6,3.2-4.3,5.8-3.7c2.6,0.5,4.3,3.2,3.6,5.9
		C744.5,938.5,741.8,940.2,739.3,939.5z"/>
	<path class="st2" d="M731.1,964.3c-2.4-1-3.7-3.8-2.8-6.3s3.7-3.8,6.2-3s3.8,3.7,2.8,6.3C736.4,964,733.6,965.3,731.1,964.3z"/>
	<path class="st2" d="M720.1,988c-2.3-1.3-3.2-4.2-1.9-6.6c1.2-2.4,4-3.4,6.4-2.3s3.4,4.1,2.1,6.7
		C725.4,988.3,722.4,989.3,720.1,988z"/>
	<path class="st2" d="M706.3,1010.2c-2.2-1.5-2.7-4.6-1.2-6.8s4.5-2.8,6.7-1.4s2.8,4.5,1.2,6.8
		C711.5,1011.1,708.5,1011.8,706.3,1010.2z"/>
	<path class="st2" d="M690,1030.6c-2-1.8-2.1-4.9-0.3-6.9c1.7-2.1,4.7-2.4,6.8-0.7c2,1.7,2.3,4.8,0.5,7
		C695.1,1032.2,691.9,1032.4,690,1030.6z"/>
	<path class="st2" d="M671.4,1049c-1.7-2-1.6-5.1,0.4-6.9c1.9-1.8,5-1.7,6.8,0.2c1.9,2,1.7,5-0.4,7
		C676.2,1051.1,673.1,1051,671.4,1049z"/>
	<path class="st2" d="M650.8,1065c-1.5-2.2-0.9-5.2,1.2-6.8c2.1-1.6,5.1-1.2,6.7,1c1.6,2.1,1.1,5.3-1.1,7
		C655.3,1067.8,652.2,1067.2,650.8,1065z"/>
	<path class="st2" d="M628.4,1078.5c-1.2-2.4-0.3-5.4,2-6.7c2.3-1.3,5.2-0.5,6.6,1.8c1.3,2.3,0.5,5.4-2,6.7
		C632.6,1081.8,629.6,1080.9,628.4,1078.5z"/>
	<path class="st2" d="M604.6,1089.3c-0.9-2.6,0.4-5.3,2.8-6.4c2.4-1.1,5.2,0.1,6.3,2.6c1,2.5-0.2,5.4-2.7,6.5
		C608.4,1093.2,605.5,1091.8,604.6,1089.3z"/>
	<path class="st2" d="M579.7,1097.2c-0.6-2.6,0.9-5.3,3.5-6c2.5-0.6,5.2,0.7,5.9,3.3c0.7,2.6-0.8,5.4-3.5,6.1
		C583,1101.3,580.3,1099.8,579.7,1097.2z"/>
	<path class="st2" d="M554.1,1102c-0.3-2.7,1.6-5.2,4.1-5.6c2.6-0.4,5,1.4,5.5,4c0.4,2.7-1.4,5.2-4.1,5.7
		C556.8,1106.6,554.4,1104.8,554.1,1102z"/>
	<path class="st2" d="M528,1103.8c0-2.7,2.2-5,4.8-5c2.6-0.2,4.8,1.9,4.9,4.6c0.1,2.7-2,5.1-4.8,5.2
		C530.2,1108.6,528,1106.5,528,1103.8z"/>
	<path class="st2" d="M501.9,1102.5c0.3-2.7,2.7-4.7,5.3-4.5c2.6,0.3,4.5,2.6,4.4,5.3c-0.2,2.7-2.6,4.8-5.3,4.5
		C503.6,1107.6,501.6,1105.2,501.9,1102.5z"/>
	<path class="st2" d="M476.2,1098.2c0.6-2.6,3.2-4.3,5.8-3.8c2.6,0.5,4.2,3.1,3.7,5.7c-0.5,2.7-3.1,4.4-5.8,3.9
		C477.2,1103.5,475.6,1100.8,476.2,1098.2z"/>
	<path class="st2" d="M451.2,1090.8c0.9-2.6,3.7-3.9,6.1-3c2.5,0.8,3.8,3.5,3,6.1s-3.6,4.1-6.2,3.3
		C451.6,1096.1,450.2,1093.3,451.2,1090.8z"/>
	<path class="st2" d="M427.2,1080.5c1.2-2.4,4.1-3.5,6.5-2.4c2.3,1.1,3.3,4.1,2.2,6.5c-1.1,2.5-4,3.6-6.5,2.4
		C427,1085.9,426,1082.9,427.2,1080.5z"/>
	<path class="st2" d="M404.6,1067.4c1.5-2.3,4.4-2.9,6.7-1.5c2.2,1.3,2.9,4.3,1.5,6.7c-1.4,2.3-4.4,3.1-6.8,1.7
		C403.7,1072.8,403.2,1069.6,404.6,1067.4z"/>
	<path class="st2" d="M383.8,1051.8c1.8-2.1,4.8-2.4,6.8-0.7c2,1.7,2.3,4.8,0.7,6.9c-1.7,2.2-4.8,2.6-6.8,0.8
		C382.3,1056.9,382,1053.8,383.8,1051.8z"/>
	<path class="st2" d="M364.9,1033.7c2-1.9,4.9-1.7,6.8,0.1c1.8,1.9,1.8,5-0.1,6.9c-1.9,2-5,2-6.9,0
		C362.8,1038.8,363,1035.6,364.9,1033.7z"/>
	<path class="st2" d="M348.3,1013.6c2.2-1.6,5.2-1.2,6.7,0.9s1.2,5.2-0.9,6.9s-5.2,1.4-6.8-0.8
		C345.7,1018.3,346.1,1015.2,348.3,1013.6z"/>
	<path class="st2" d="M334.2,991.7c2.4-1.3,5.2-0.5,6.6,1.7c1.3,2.3,0.6,5.3-1.7,6.7c-2.3,1.5-5.3,0.7-6.7-1.6
		C330.9,996.1,331.9,993,334.2,991.7z"/>
	<path class="st2" d="M322.8,968.2c2.5-1.1,5.3,0.1,6.3,2.5c1,2.5,0,5.3-2.5,6.5c-2.4,1.2-5.4,0.2-6.4-2.4
		C319.1,972.2,320.3,969.3,322.8,968.2z"/>
	<path class="st2" d="M314.2,943.6c2.5-0.7,5.2,0.7,6,3.2s-0.7,5.3-3.2,6.2s-5.2-0.5-6-3.2C310.1,947.2,311.6,944.4,314.2,943.6z"/>
	<path class="st2" d="M308.7,918.1c2.6-0.4,5.1,1.3,5.5,3.9s-1.2,5.2-3.9,5.7c-2.6,0.6-5.2-1.2-5.7-3.9
		C304.2,921.1,306,918.5,308.7,918.1z"/>
	<path class="st2" d="M306.1,892.1c2.7-0.1,4.9,1.9,5,4.6c0.1,2.6-2,5-4.6,5.3c-2.7,0.3-4.9-1.8-5.1-4.6
		C301.4,894.6,303.5,892.3,306.1,892.1z"/>
	<path class="st2" d="M306.7,866c2.7,0.2,4.5,2.5,4.4,5.2s-2.4,4.8-5.1,4.7s-4.7-2.4-4.5-5.2C301.6,867.9,304.1,865.8,306.7,866z"/>
	<path class="st2" d="M310.4,840.2c2.6,0.5,4.3,3,3.8,5.7c-0.5,2.6-2.9,4.4-5.6,4.1c-2.6-0.4-4.5-2.9-3.9-5.7
		C305.2,841.5,307.8,839.7,310.4,840.2z"/>
	<path class="st2" d="M317,814.9c2.5,0.8,3.9,3.6,3.1,6.1s-3.5,4-6.1,3.3s-4-3.4-3.1-6.1C311.8,815.6,314.5,814.1,317,814.9z"/>
	<path class="st2" d="M326.6,790.6c2.4,1.1,3.3,4,2.3,6.4c-1,2.5-3.9,3.6-6.3,2.6c-2.5-1-3.6-3.9-2.5-6.5
		C321.2,790.6,324.3,789.5,326.6,790.6z"/>
	<path class="st2" d="M339.1,767.7c2.2,1.4,3,4.4,1.6,6.7s-4.3,3.1-6.6,1.8c-2.3-1.3-3.1-4.4-1.7-6.7
		C333.8,767,336.8,766.2,339.1,767.7z"/>
	<path class="st2" d="M354.1,746.3c2.1,1.7,2.3,4.7,0.8,6.9c-1.6,2.1-4.6,2.6-6.8,1c-2.1-1.6-2.5-4.7-0.9-6.9
		C348.9,745,352.1,744.6,354.1,746.3z"/>
	<path class="st2" d="M371.6,726.9c1.8,1.9,1.8,5,0,6.9c-1.9,1.9-4.8,2.1-6.8,0.2c-1.9-1.8-2.1-5-0.1-7
		C366.7,725.1,369.8,725,371.6,726.9z"/>
	<path class="st2" d="M391.3,709.7c1.6,2.1,1.2,5.2-0.8,6.9s-5.1,1.4-6.8-0.6c-1.7-2-1.4-5.2,0.8-7
		C386.5,707.2,389.6,707.5,391.3,709.7z"/>
	<path class="st2" d="M412.8,694.9c1.3,2.3,0.6,5.3-1.6,6.7s-5.2,0.9-6.6-1.4c-1.4-2.2-0.8-5.4,1.5-6.9
		C408.4,691.9,411.5,692.6,412.8,694.9z"/>
	<path class="st2" d="M435.9,682.7c1,2.4,0,5.4-2.4,6.6c-2.4,1.2-5.2,0.2-6.4-2.2c-1.2-2.4-0.1-5.4,2.4-6.6
		C431.9,679.2,434.8,680.2,435.9,682.7z"/>
	<path class="st2" d="M460.3,673.4c0.8,2.6-0.6,5.3-3.1,6.2s-5.2-0.4-6.1-2.9s0.5-5.4,3.1-6.4C456.8,669.4,459.5,670.8,460.3,673.4z
		"/>
	<path class="st2" d="M485.6,667c0.5,2.7-1.3,5.3-3.8,5.9c-2.6,0.6-5.1-1.1-5.7-3.7c-0.6-2.6,1.1-5.3,3.8-5.9
		C482.6,662.6,485.2,664.3,485.6,667z"/>
	<path class="st2" d="M511.5,663.7c0.1,2.7-1.9,5-4.5,5.3s-4.9-1.6-5.2-4.3c-0.3-2.7,1.7-5.1,4.5-5.5
		C509,658.9,511.4,661,511.5,663.7z"/>
	<path class="st2" d="M537.6,663.5c-0.2,2.7-2.4,4.8-5,4.7c-2.6-0.2-4.7-2.2-4.7-4.9s2.3-5,5-4.9
		C535.7,658.5,537.8,660.8,537.6,663.5z"/>
	<path class="st2" d="M561.5,692.9c-0.5,2.7-3,4.4-5.5,4.1c-2.5-0.4-4.3-2.8-4-5.5c0.4-2.7,2.9-4.6,5.6-4.2
		C560.2,687.6,562,690.2,561.5,692.9z"/>
	<path class="st2" d="M586.6,699.2c-0.9,2.6-3.6,4.1-6,3.3s-3.9-3.4-3.2-6s3.4-4.2,6-3.4C586,693.9,587.4,696.7,586.6,699.2z"/>
	<path class="st2" d="M610.5,708.9c-1.2,2.4-4,3.5-6.4,2.4c-2.3-1-3.4-3.8-2.4-6.4c1-2.5,4-3.7,6.4-2.6
		C610.7,703.5,611.7,706.4,610.5,708.9z"/>
	<path class="st2" d="M633,721.6c-1.5,2.3-4.4,2.9-6.6,1.6c-2.2-1.3-2.9-4.3-1.5-6.7s4.4-3.1,6.7-1.7
		C634,716.2,634.5,719.4,633,721.6z"/>
	<path class="st2" d="M653.6,737.3c-1.8,2-4.8,2.3-6.8,0.7s-2.2-4.7-0.6-6.9c1.7-2.2,4.7-2.5,6.8-0.7
		C655.2,732.1,655.4,735.2,653.6,737.3z"/>
	<path class="st2" d="M671.9,755.5c-2,1.8-5.1,1.7-6.8-0.2s-1.6-5,0.3-6.9c1.9-1.9,5.1-1.9,6.8,0.2
		C674.2,750.6,674,753.7,671.9,755.5z"/>
	<path class="st2" d="M687.7,776.1c-2.2,1.5-5.2,1-6.6-1.2c-1.4-2.2-1-5.1,1.2-6.8c2.1-1.6,5.3-1.2,6.8,1.1
		C690.5,771.5,689.9,774.5,687.7,776.1z"/>
	<path class="st2" d="M700.5,798.5c-2.4,1.2-5.2,0.3-6.4-2.1c-1.2-2.3-0.3-5.2,2.1-6.6c2.3-1.3,5.3-0.5,6.6,2
		C704,794.3,702.9,797.3,700.5,798.5z"/>
	<path class="st2" d="M710.3,822.4c-2.5,0.9-5.2-0.5-6.1-2.9c-0.9-2.4,0.5-5.3,3-6.3s5.3,0.3,6.2,2.9
		C714.3,818.7,712.8,821.6,710.3,822.4z"/>
	<path class="st2" d="M716.7,847.5c-2.6,0.5-5.2-1.1-5.7-3.7s1.2-5.2,3.8-5.8c2.6-0.7,5.2,1,5.7,3.7
		C721.1,844.4,719.4,847,716.7,847.5z"/>
	<path class="st2" d="M719.7,873.2c-2.7,0.2-4.9-1.8-5-4.5c-0.2-2.6,1.7-5,4.4-5.3c2.6-0.3,5.1,1.7,5.2,4.4
		C724.5,870.7,722.4,873,719.7,873.2z"/>
	<path class="st2" d="M719.3,899.1c-2.7-0.2-4.5-2.5-4.4-5.1s2.4-4.7,5.1-4.7c2.7,0.1,4.7,2.3,4.5,5.1
		C724.4,897.2,722,899.3,719.3,899.1z"/>
	<path class="st2" d="M715.5,924.7c-2.6-0.6-4.3-3.1-3.7-5.7s3-4.3,5.7-3.9c2.6,0.4,4.4,3,3.8,5.7S718.1,925.2,715.5,924.7z"/>
	<path class="st2" d="M708.3,949.5c-2.5-0.9-3.8-3.7-2.9-6.1c0.8-2.5,3.5-3.9,6-3.2c2.5,0.8,3.9,3.5,3.1,6.2
		C713.6,949.1,710.8,950.5,708.3,949.5z"/>
	<path class="st2" d="M697.8,973.2c-2.4-1.3-3.2-4.1-2.1-6.5c1.1-2.4,4-3.4,6.4-2.3s3.4,4,2.2,6.6
		C703.2,973.5,700.2,974.5,697.8,973.2z"/>
	<path class="st2" d="M684.3,995.3c-2.1-1.6-2.7-4.6-1.2-6.8s4.5-2.8,6.7-1.4c2.3,1.4,2.8,4.5,1.3,6.8
		C689.5,996.3,686.5,996.9,684.3,995.3z"/>
	<path class="st2" d="M667.9,1015.4c-1.9-1.8-2.1-4.9-0.3-6.9c1.8-1.9,4.7-2.2,6.8-0.5c2,1.7,2.3,4.9,0.4,6.9
		C672.9,1017,669.8,1017.2,667.9,1015.4z"/>
	<path class="st2" d="M649,1033.1c-1.7-2.1-1.4-5.2,0.6-6.8c2-1.8,4.9-1.6,6.7,0.4s1.6,5.1-0.5,7
		C653.8,1035.4,650.7,1035.2,649,1033.1z"/>
	<path class="st2" d="M628,1048.2c-1.4-2.3-0.6-5.2,1.5-6.7s5.1-0.9,6.6,1.3c1.5,2.2,0.9,5.3-1.4,6.9
		C632.4,1051.2,629.3,1050.5,628,1048.2z"/>
	<path class="st2" d="M605.1,1060.4c-1-2.4,0-5.3,2.3-6.5s5.2-0.2,6.4,2.2c1.2,2.4,0.2,5.3-2.3,6.6
		C609.1,1063.9,606.2,1062.8,605.1,1060.4z"/>
	<path class="st2" d="M580.8,1069.3c-0.7-2.6,0.7-5.4,3.2-6.2c2.5-0.8,5.2,0.6,6,3.1c0.9,2.6-0.5,5.4-3.2,6.2
		C584.2,1073.3,581.5,1071.9,580.8,1069.3z"/>
	<path class="st2" d="M555.6,1074.9c-0.4-2.7,1.4-5.2,4-5.6c2.5-0.5,5,1.2,5.5,3.8c0.5,2.6-1.2,5.3-3.9,5.8
		C558.4,1079.4,555.9,1077.6,555.6,1074.9z"/>
	<path class="st2" d="M529.8,1077.2c0-2.7,2.1-4.9,4.7-5.1c2.6-0.2,4.8,1.9,5,4.6s-1.9,5-4.7,5.2
		C532,1082.1,529.8,1079.9,529.8,1077.2z"/>
	<path class="st2" d="M503.9,1076c0.3-2.7,2.7-4.7,5.3-4.5c2.6,0.3,4.5,2.6,4.3,5.3c-0.2,2.7-2.6,4.8-5.3,4.5
		S503.6,1078.6,503.9,1076z"/>
	<path class="st2" d="M478.5,1071.3c0.7-2.6,3.3-4.3,5.8-3.7c2.5,0.5,4.1,3,3.6,5.7s-3.1,4.4-5.8,3.9
		C479.4,1076.6,477.8,1073.9,478.5,1071.3z"/>
	<path class="st2" d="M453.9,1063.3c1-2.5,3.8-3.7,6.2-2.9c2.4,0.9,3.7,3.7,2.8,6.2c-0.9,2.6-3.7,3.9-6.2,3
		C454,1068.8,452.8,1065.9,453.9,1063.3z"/>
	<path class="st2" d="M430.6,1052.1c1.4-2.4,4.3-3.3,6.5-2.1c2.3,1.2,3.1,4.2,1.9,6.6c-1.2,2.5-4.2,3.4-6.6,2.1
		C430.1,1057.5,429.2,1054.5,430.6,1052.1z"/>
	<path class="st2" d="M409,1037.9c1.6-2.2,4.7-2.7,6.7-1.1s2.6,4.5,1,6.8c-1.5,2.2-4.6,2.9-6.8,1.3
		C407.8,1043.1,407.3,1040,409,1037.9z"/>
	<path class="st2" d="M389.5,1020.9c1.9-1.9,4.9-2,6.7-0.2c1.9,1.7,2,4.8,0.2,6.8s-4.9,2.2-6.9,0.3
		C387.6,1026,387.6,1022.8,389.5,1020.9z"/>
	<path class="st2" d="M372.4,1001.4c2.2-1.7,5.1-1.3,6.7,0.7s1.3,5.1-0.8,6.9c-2,1.8-5.1,1.5-6.8-0.6
		C369.8,1006.3,370.3,1003.1,372.4,1001.4z"/>
	<path class="st2" d="M358.1,979.9c2.3-1.3,5.3-0.7,6.6,1.6c1.3,2.2,0.6,5.2-1.7,6.7c-2.3,1.5-5.2,0.8-6.6-1.6
		C355,984.3,355.7,981.3,358.1,979.9z"/>
	<path class="st2" d="M346.8,956.7c2.5-1,5.3,0.1,6.3,2.5c0.9,2.4-0.1,5.3-2.5,6.5s-5.4,0.1-6.4-2.4
		C343.1,960.6,344.3,957.7,346.8,956.7z"/>
	<path class="st2" d="M338.7,932.1c2.6-0.7,5.2,0.8,5.8,3.3c0.7,2.5-0.7,5.2-3.3,6.1c-2.5,0.8-5.3-0.6-6-3.3
		S336.1,932.8,338.7,932.1z"/>
	<path class="st2" d="M333.9,906.7c2.7-0.3,4.9,1.5,5.4,4.1c0.4,2.6-1.5,5.1-4.1,5.6s-5.1-1.3-5.5-4.1S331.3,907,333.9,906.7z"/>
	<path class="st2" d="M332.6,880.8c2.7,0,4.8,2.2,4.8,4.8s-2.2,4.9-4.8,5c-2.7,0.1-4.9-2-4.8-4.8C327.8,883,329.9,880.8,332.6,880.8
		z"/>
	<path class="st2" d="M334.8,855c2.6,0.4,4.4,2.8,4,5.4c-0.3,2.6-2.7,4.5-5.3,4.3s-4.6-2.7-4.3-5.4
		C329.6,856.6,332.1,854.7,334.8,855z"/>
	<path class="st2" d="M340.3,829.7c2.5,0.7,4,3.4,3.4,5.9c-0.7,2.5-3.3,4.1-5.9,3.6c-2.6-0.6-4.1-3.2-3.4-5.9
		C334.9,830.6,337.7,829,340.3,829.7z"/>
	<path class="st2" d="M349.1,805.4c2.4,1.1,3.6,3.9,2.5,6.4c-1.1,2.4-3.8,3.6-6.3,2.7s-3.7-3.8-2.6-6.4S346.7,804.3,349.1,805.4z"/>
	<path class="st2" d="M361.2,782.5c2.3,1.4,3,4.4,1.6,6.6c-1.3,2.3-4.2,3.2-6.5,1.9s-3.2-4.3-1.8-6.7
		C355.9,781.9,358.9,781.1,361.2,782.5z"/>
	<path class="st2" d="M376.2,761.4c2.1,1.7,2.3,4.7,0.7,6.8c-1.6,2.1-4.6,2.6-6.7,1s-2.5-4.7-0.9-6.9
		C371,760,374.1,759.7,376.2,761.4z"/>
	<path class="st2" d="M393.8,742.4c1.8,2,1.7,5-0.1,6.9c-1.8,1.9-4.9,1.9-6.8,0s-1.9-5,0.1-7C388.9,740.4,392,740.4,393.8,742.4z"/>
	<path class="st2" d="M413.8,725.9c1.5,2.2,1.1,5.3-1,6.9c-2.1,1.6-5.1,1.2-6.7-0.9c-1.7-2.1-1.2-5.2,1-6.9S412.3,723.7,413.8,725.9
		z"/>
	<path class="st2" d="M435.8,712.3c1.2,2.4,0.4,5.4-1.9,6.6c-2.3,1.2-5.1,0.6-6.5-1.8c-1.3-2.3-0.6-5.4,1.9-6.8
		C431.7,709.1,434.6,709.9,435.8,712.3z"/>
	<path class="st2" d="M459.5,701.8c0.9,2.5-0.4,5.4-2.8,6.3c-2.4,1.1-5.2-0.1-6.2-2.6s0.2-5.4,2.7-6.5
		C455.8,698,458.6,699.2,459.5,701.8z"/>
	<path class="st2" d="M484.3,694.4c0.5,2.7-1.1,5.2-3.6,5.9s-5.1-0.9-5.8-3.5c-0.7-2.6,0.9-5.3,3.6-6
		C481.1,690.1,483.8,691.8,484.3,694.4z"/>
	<path class="st2" d="M509.9,690.4c0.2,2.7-1.7,5.1-4.3,5.4c-2.6,0.3-4.9-1.6-5.3-4.3c-0.3-2.7,1.6-5.2,4.3-5.5
		C507.3,685.8,509.7,687.8,509.9,690.4z"/>
	<path class="st2" d="M535.8,690c-0.2,2.7-2.4,4.8-5,4.7c-2.6,0-4.7-2.1-4.6-4.9c0-2.7,2.2-5,5-4.9C533.8,685,535.9,687.3,535.8,690
		z"/>
	<path class="st2" d="M559.8,719.8c-0.6,2.7-3.1,4.3-5.6,3.8c-2.6-0.3-4.3-2.7-4-5.4c0.4-2.7,2.9-4.6,5.7-4.3
		C558.6,714.5,560.4,717.2,559.8,719.8z"/>
	<path class="st2" d="M585,726.9c-1,2.5-3.8,4-6.2,3.1c-2.5-0.8-3.8-3.6-3-6.2c0.8-2.6,3.6-4,6.2-3.1
		C584.6,721.6,586,724.4,585,726.9z"/>
	<path class="st2" d="M608.7,738.1c-1.4,2.4-4.3,3.2-6.5,1.9c-2.2-1.4-3.2-4.1-2-6.6c1.2-2.4,4.3-3.6,6.6-2.2
		C609.2,732.7,610,735.7,608.7,738.1z"/>
	<path class="st2" d="M630.5,752.7c-0.8,1.1-2,1.7-3.2,1.8c-1.2,0.2-2.5,0-3.6-0.8c-2.1-1.5-2.5-4.5-1-6.8c1.5-2.2,4.6-2.8,6.9-1.1
		c1.1,0.8,1.8,2,2,3.2C631.7,750.3,631.3,751.6,630.5,752.7z"/>
	<path class="st2" d="M649.5,770.6c-2,1.8-5.1,1.8-6.8-0.1c-1.8-1.9-1.7-5,0.2-7s4.9-1.9,6.8,0.1S651.5,768.8,649.5,770.6z"/>
	<path class="st2" d="M665.6,791.3c-2.2,1.5-5.2,0.9-6.6-1.3c-1.5-2.2-1.1-5.1,1.1-6.8c2.1-1.6,5.3-1.3,6.9,1
		C668.5,786.6,667.9,789.8,665.6,791.3z"/>
	<path class="st2" d="M678.5,814.1c-2.4,1.1-5.4,0.2-6.5-2.2c-1.2-2.3-0.2-5.3,2.2-6.6s5.3-0.3,6.5,2.2S680.9,813,678.5,814.1z"/>
	<path class="st2" d="M687.2,838.8c-2.6,0.7-5.2-0.7-5.9-3.2s0.8-5.3,3.3-6.2s5.2,0.5,5.9,3.2C691.3,835.3,689.8,838.1,687.2,838.8z
		"/>
	<path class="st2" d="M692.3,864.5c-2.7,0.3-4.8-1.6-5.3-4.2c-0.4-2.6,1.3-5.1,4-5.6c2.6-0.5,5.2,1.3,5.6,4.1
		C697.1,861.6,694.8,864.2,692.3,864.5z"/>
	<path class="st2" d="M693.1,890.7c-2.7-0.1-4.8-2.3-4.7-5c0.1-2.6,2.3-4.8,5-4.9s4.8,2.2,4.7,5S695.7,890.8,693.1,890.7z"/>
	<path class="st2" d="M689.9,916.7c-2.6-0.5-4.2-3-3.7-5.6c0.3-2.6,2.8-4.5,5.4-4.1c2.6,0.3,4.5,2.9,4.1,5.7
		C695.1,915.4,692.5,917.2,689.9,916.7z"/>
	<path class="st2" d="M682.7,941.9c-2.5-0.9-3.8-3.7-3-6.3c0.9-2.5,3.6-3.9,6.2-3.2c2.5,0.8,3.9,3.6,3,6.2
		C687.9,941.5,685.2,942.9,682.7,941.9z"/>
	<path class="st2" d="M671.5,965.7c-2.3-1.3-3.1-4.3-1.8-6.6c1.4-2.3,4.1-3.3,6.5-2.2s3.5,4.2,2,6.7
		C676.8,966.1,673.8,967,671.5,965.7z"/>
	<path class="st2" d="M656.9,987.5c-1-0.8-1.6-2-1.7-3.2c-0.2-1.3,0.1-2.6,0.9-3.7c1.5-2.2,4.5-2.7,6.7-1.2s2.6,4.7,1,7
		c-0.8,1.2-2,1.9-3.2,2.1C659.3,988.6,658,988.3,656.9,987.5z"/>
	<path class="st2" d="M638.9,1006.6c-1.8-2-1.7-5.1,0.2-7c1.9-1.8,5-1.8,6.9,0c1.9,1.9,1.8,5-0.2,6.9
		C643.8,1008.6,640.7,1008.6,638.9,1006.6z"/>
	<path class="st2" d="M618.3,1022.7c-1.4-2.3-0.8-5.3,1.4-6.7c2.2-1.5,5-1.2,6.7,1c1.6,2.1,1.1,5.4-1.2,7
		C622.8,1025.5,619.7,1024.9,618.3,1022.7z"/>
	<path class="st2" d="M595.4,1035.6c-1.1-2.5,0-5.5,2.3-6.7s5.2-0.3,6.4,2.1s0.2,5.4-2.3,6.7C599.4,1039,596.5,1038,595.4,1035.6z"
		/>
	<path class="st2" d="M570.7,1044.4c-0.7-2.6,0.8-5.3,3.3-6.1c2.5-0.8,5.2,0.7,6.1,3.3c0.8,2.5-0.6,5.3-3.3,6.1
		S571.4,1047,570.7,1044.4z"/>
	<path class="st2" d="M545,1049.5c-0.3-2.8,1.7-4.9,4.2-5.5c2.6-0.5,5,1.3,5.4,3.9c0.4,2.7-1.4,5.3-4.2,5.8
		C547.7,1054.3,545.2,1052.1,545,1049.5z"/>
	<path class="st2" d="M518.8,1050.3c0.2-2.7,2.4-4.9,5-4.9s4.7,2.3,4.8,5c0,2.7-2.2,4.9-5,4.9S518.6,1053,518.8,1050.3z"/>
	<path class="st2" d="M492.8,1047.2c0.6-2.7,3.1-4.3,5.6-3.8c2.6,0.3,4.4,2.7,4,5.4c-0.4,2.7-2.9,4.6-5.7,4.3
		C494,1052.5,492.2,1049.8,492.8,1047.2z"/>
	<path class="st2" d="M467.6,1040c1-2.5,3.8-4,6.2-3.1c2.5,0.8,3.8,3.6,3,6.2s-3.6,4-6.2,3.1C468,1045.3,466.6,1042.6,467.6,1040z"
		/>
	<path class="st2" d="M443.9,1028.9c1.4-2.4,4.3-3.2,6.5-2c2.2,1.4,3.2,4.1,2,6.6c-1.2,2.4-4.3,3.6-6.6,2.2
		C443.4,1034.3,442.5,1031.2,443.9,1028.9z"/>
	<path class="st2" d="M422.1,1014.3c0.8-1.1,2-1.7,3.2-1.8c1.3-0.2,2.5,0,3.6,0.8c2.1,1.5,2.5,4.5,1,6.8c-1.5,2.2-4.6,2.7-6.9,1.1
		c-1.1-0.8-1.8-2-2-3.2C420.9,1016.7,421.3,1015.4,422.1,1014.3z"/>
	<path class="st2" d="M403,996.4c2-1.8,5.1-1.8,6.8,0.1c1.8,1.9,1.7,5-0.2,7c-1.9,2-4.9,1.9-6.8-0.1
		C401,1001.3,401.1,998.2,403,996.4z"/>
	<path class="st2" d="M387,975.7c2.3-1.5,5.2-0.9,6.6,1.3c1.5,2.2,1.1,5.1-1.1,6.8c-2.1,1.6-5.3,1.3-6.9-1
		C384.1,980.4,384.7,977.2,387,975.7z"/>
	<path class="st2" d="M374.1,952.9c2.4-1.1,5.4-0.2,6.5,2.2c1.2,2.3,0.2,5.3-2.2,6.6c-2.4,1.3-5.3,0.3-6.5-2.2
		C370.7,957,371.7,954,374.1,952.9z"/>
	<path class="st2" d="M365.3,928.2c2.6-0.7,5.2,0.7,5.9,3.3c0.7,2.5-0.8,5.3-3.3,6.2s-5.2-0.5-5.9-3.2
		C361.3,931.7,362.8,928.9,365.3,928.2z"/>
	<path class="st2" d="M360.3,902.5c2.7-0.3,4.8,1.6,5.3,4.2c0.4,2.6-1.3,5.1-4,5.6c-2.6,0.5-5.1-1.3-5.6-4.1
		S357.7,902.8,360.3,902.5z"/>
	<path class="st2" d="M359.5,876.3c2.7,0.1,4.8,2.3,4.7,5c-0.1,2.6-2.3,4.8-5,4.9s-4.8-2.2-4.7-5
		C354.6,878.4,356.9,876.2,359.5,876.3z"/>
	<path class="st2" d="M362.7,850.3c2.6,0.5,4.2,3,3.7,5.6c-0.3,2.6-2.8,4.5-5.4,4.1c-2.6-0.3-4.5-2.9-4.1-5.7
		C357.4,851.6,360.1,849.7,362.7,850.3z"/>
	<path class="st2" d="M369.9,825c2.5,0.9,3.8,3.7,3,6.3c-0.9,2.5-3.6,3.9-6.2,3.2c-2.5-0.8-3.9-3.6-3-6.3
		C364.6,825.5,367.4,824.1,369.9,825z"/>
	<path class="st2" d="M381.1,801.3c2.3,1.3,3.1,4.3,1.8,6.6c-1.4,2.3-4.1,3.3-6.5,2.2s-3.5-4.3-2-6.7
		C375.8,800.9,378.8,800,381.1,801.3z"/>
	<path class="st2" d="M395.7,779.5c1,0.8,1.6,2,1.7,3.2c0.2,1.3-0.1,2.6-0.9,3.7c-1.5,2.2-4.5,2.7-6.7,1.2s-2.6-4.7-1-7
		c0.8-1.2,2-1.9,3.2-2.1C393.3,778.4,394.6,778.7,395.7,779.5z"/>
	<path class="st2" d="M413.6,760.4c1.8,2,1.7,5.1-0.2,7c-1.9,1.8-5,1.8-6.9,0c-1.9-1.9-1.8-5,0.2-6.9
		C408.8,758.4,411.9,758.4,413.6,760.4z"/>
	<path class="st2" d="M434.3,744.3c1.4,2.3,0.8,5.3-1.4,6.7c-2.1,1.5-5,1.2-6.7-0.9c-1.6-2.1-1.1-5.4,1.2-7
		C429.8,741.5,432.9,742,434.3,744.3z"/>
	<path class="st2" d="M457.2,731.4c1.1,2.5,0,5.5-2.3,6.7s-5.2,0.3-6.4-2.1c-1.2-2.4-0.2-5.4,2.3-6.7
		C453.2,728,456.1,728.9,457.2,731.4z"/>
	<path class="st2" d="M481.9,722.6c0.7,2.6-0.8,5.3-3.3,6.1s-5.2-0.7-6.1-3.3c-0.8-2.6,0.6-5.3,3.3-6.1
		C478.5,718.5,481.2,720,481.9,722.6z"/>
	<path class="st2" d="M507.6,717.5c0.3,2.8-1.7,4.9-4.2,5.5c-2.6,0.5-5-1.3-5.4-3.9c-0.4-2.7,1.4-5.3,4.2-5.8
		C504.9,712.7,507.3,714.9,507.6,717.5z"/>
	<path class="st2" d="M533.8,716.7c-0.2,2.7-2.4,4.9-5,4.9s-4.7-2.3-4.7-5s2.2-4.9,5-4.9C531.8,711.7,533.9,713.9,533.8,716.7z"/>
	<path class="st2" d="M557.6,746.6c-0.6,2.6-3.2,4.4-5.7,3.8c-2.5-0.7-4.2-2.9-3.8-5.6c0.4-2.6,3-4.7,5.7-4.1
		C556.6,741.3,558.2,743.9,557.6,746.6z"/>
	<path class="st2" d="M582.2,754.6c-1.1,2.5-3.9,3.7-6.2,2.6c-2.4-0.8-3.6-3.5-2.7-6.1c0.9-2.6,3.8-4,6.4-3.1
		C582.2,749.2,583.3,752.1,582.2,754.6z"/>
	<path class="st2" d="M604.9,767c-1.6,2.3-4.4,2.8-6.6,1.5s-2.9-4.2-1.5-6.6c1.3-2.4,4.4-3.2,6.8-1.8
		C606,761.5,606.4,764.8,604.9,767z"/>
	<path class="st2" d="M625,783.4c-1.9,2-4.8,1.9-6.8,0.3c-1.9-1.7-2-4.7-0.3-6.8c1.8-2.1,4.9-2.3,6.9-0.5
		C627,778.2,626.9,781.5,625,783.4z"/>
	<path class="st2" d="M641.7,803.2c-1.1,0.8-2.4,1-3.6,0.8c-1.2-0.2-2.4-0.7-3.2-1.8c-1.6-2-1.1-5.1,1-6.8s5.2-1.4,6.8,0.8
		c0.8,1.1,1.2,2.4,1,3.7S642.8,802.4,641.7,803.2z"/>
	<path class="st2" d="M654.5,825.7c-2.4,1.1-5.3,0.2-6.5-2.1c-1.1-2.3-0.2-5.2,2.2-6.6c2.4-1.3,5.3-0.4,6.5,2.1
		C658,821.7,657,824.6,654.5,825.7z"/>
	<path class="st2" d="M662.9,850.3c-2.6,0.6-5.3-0.8-6-3.3s0.8-5.2,3.4-6.1c2.5-0.9,5.2,0.6,5.9,3.3
		C667,846.9,665.5,849.6,662.9,850.3z"/>
	<path class="st2" d="M666.5,875.9c-2.7,0.2-5-1.8-5.2-4.4s1.8-5,4.5-5.4c2.6-0.4,5,1.6,5.2,4.4
		C671.2,873.4,669.2,875.8,666.5,875.9z"/>
	<path class="st2" d="M665.4,901.8c-2.6-0.3-4.5-2.7-4.2-5.3c0.4-2.6,2.7-4.6,5.3-4.5c2.7,0.1,4.7,2.5,4.3,5.3
		C670.5,900.2,668,902.2,665.4,901.8z"/>
	<path class="st2" d="M659.7,927.1c-2.5-0.8-3.9-3.5-3.1-6c0.8-2.5,3.2-4.1,5.9-3.4c2.5,0.6,4.3,3.4,3.4,6.1
		C665,926.4,662.2,927.9,659.7,927.1z"/>
	<path class="st2" d="M649.4,950.9c-2.3-1.3-3.1-4.2-1.9-6.5c1.1-2.4,3.9-3.4,6.3-2.3c2.4,1.1,3.4,4.1,2.3,6.7
		C654.8,951.3,651.7,952.2,649.4,950.9z"/>
	<path class="st2" d="M634.9,972.4c-2.1-1.8-2.2-4.6-0.7-6.8c1.5-2.1,4.5-2.6,6.6-1.1c2.2,1.5,2.6,4.7,1,7S636.8,974,634.9,972.4z"
		/>
	<path class="st2" d="M616.7,990.9c-1.7-2.1-1.4-5,0.5-6.9c1.9-1.8,4.9-1.7,6.7,0.2s1.7,5.1-0.3,7
		C621.5,993.2,618.3,992.9,616.7,990.9z"/>
	<path class="st2" d="M595.4,1005.7c-1.2-2.3-0.5-5.3,1.7-6.8c2.2-1.4,5.1-0.8,6.6,1.5c1.5,2.2,0.7,5.3-1.6,6.8
		C599.7,1008.9,596.7,1008.1,595.4,1005.7z"/>
	<path class="st2" d="M571.8,1016.4c-0.8-2.6,0.4-5.4,2.8-6.4c2.4-1,5.2,0.2,6.2,2.7s-0.2,5.4-2.8,6.4
		C575.3,1020.2,572.6,1019,571.8,1016.4z"/>
	<path class="st2" d="M546.5,1022.5c-0.3-2.7,1.4-5.3,3.9-5.8s5,1.3,5.6,3.9c0.6,2.6-1.2,5.2-3.9,5.8
		C549.4,1026.9,546.9,1025.2,546.5,1022.5z"/>
	<path class="st2" d="M520.7,1023.8c0.2-2.7,2.4-4.9,4.9-4.9c2.6,0,4.7,2.3,4.7,5c0.1,2.7-2.1,4.9-4.9,4.9
		C522.6,1028.7,520.5,1026.5,520.7,1023.8z"/>
	<path class="st2" d="M495,1020.4c0.6-2.6,3.2-4.4,5.7-3.8c2.5,0.7,4.2,2.9,3.8,5.6c-0.4,2.6-3,4.7-5.7,4.1
		C496,1025.7,494.3,1023,495,1020.4z"/>
	<path class="st2" d="M470.4,1012.4c1.1-2.5,3.9-3.7,6.2-2.6c2.4,0.8,3.6,3.5,2.7,6.1s-3.8,4-6.4,3.1
		C470.4,1017.8,469.3,1014.9,470.4,1012.4z"/>
	<path class="st2" d="M447.6,1000c1.6-2.3,4.4-2.8,6.6-1.5s2.9,4.2,1.5,6.6c-1.3,2.4-4.4,3.2-6.8,1.8
		C446.6,1005.4,446.1,1002.2,447.6,1000z"/>
	<path class="st2" d="M427.6,983.6c1.9-2,4.8-1.9,6.8-0.3c1.9,1.7,2,4.7,0.3,6.8s-4.9,2.3-6.9,0.5
		C425.6,988.8,425.7,985.5,427.6,983.6z"/>
	<path class="st2" d="M410.9,963.8c1.1-0.8,2.4-1,3.6-0.8s2.4,0.7,3.2,1.8c1.6,2,1.1,5.1-1,6.8s-5.2,1.4-6.8-0.8
		c-0.8-1.1-1.2-2.4-1-3.7C409.1,965.7,409.8,964.6,410.9,963.8z"/>
	<path class="st2" d="M398.1,941.2c2.4-1.1,5.3-0.2,6.5,2.1c1.1,2.3,0.2,5.2-2.2,6.6c-2.4,1.3-5.3,0.4-6.5-2.1
		C394.6,945.3,395.6,942.4,398.1,941.2z"/>
	<path class="st2" d="M389.7,916.7c2.6-0.7,5.3,0.8,6,3.3s-0.8,5.2-3.4,6.1c-2.5,0.9-5.2-0.6-6-3.3
		C385.6,920.1,387.1,917.4,389.7,916.7z"/>
	<path class="st2" d="M386.1,891c2.7-0.2,5,1.8,5.2,4.4s-1.8,5-4.5,5.4c-2.6,0.4-5-1.6-5.2-4.4S383.4,891.2,386.1,891z"/>
	<path class="st2" d="M387.2,865.2c2.6,0.3,4.5,2.7,4.2,5.3c-0.4,2.6-2.7,4.6-5.3,4.5c-2.7-0.1-4.7-2.5-4.3-5.3
		C382.1,866.8,384.5,864.8,387.2,865.2z"/>
	<path class="st2" d="M392.9,839.9c2.5,0.8,3.9,3.5,3.1,6s-3.2,4.1-5.9,3.4c-2.5-0.6-4.3-3.4-3.4-6.1
		C387.6,840.6,390.4,839,392.9,839.9z"/>
	<path class="st2" d="M403.2,816.1c2.3,1.3,3.1,4.2,1.9,6.5c-1.1,2.4-3.9,3.4-6.3,2.3s-3.4-4.1-2.3-6.7
		C397.8,815.7,400.9,814.8,403.2,816.1z"/>
	<path class="st2" d="M417.7,794.6c2.1,1.8,2.2,4.6,0.7,6.8c-1.5,2.1-4.5,2.6-6.6,1.1c-2.2-1.5-2.6-4.7-1-7
		C412.4,793.1,415.7,792.9,417.7,794.6z"/>
	<path class="st2" d="M435.9,776.1c1.7,2.1,1.4,5-0.5,6.9c-1.9,1.8-4.9,1.7-6.7-0.2c-1.8-1.9-1.7-5.1,0.3-7
		C431,773.7,434.2,774,435.9,776.1z"/>
	<path class="st2" d="M457.2,761.2c1.2,2.3,0.5,5.3-1.7,6.8c-2.2,1.4-5.1,0.8-6.6-1.5c-1.5-2.2-0.7-5.3,1.6-6.8
		C452.9,758.1,455.9,758.8,457.2,761.2z"/>
	<path class="st2" d="M480.8,750.5c0.8,2.6-0.4,5.4-2.8,6.4s-5.2-0.2-6.2-2.7s0.2-5.4,2.8-6.4C477.2,746.8,480,748,480.8,750.5z"/>
	<path class="st2" d="M506,744.5c0.3,2.7-1.4,5.3-3.9,5.8s-5-1.3-5.6-3.9s1.2-5.2,3.9-5.8C503.2,740.1,505.7,741.8,506,744.5z"/>
	<path class="st2" d="M531.9,743.2c-0.2,2.7-2.3,4.9-4.9,4.9c-2.6,0-4.7-2.3-4.7-5c-0.1-2.7,2.1-4.9,4.9-4.9
		C530,738.2,532.1,740.5,531.9,743.2z"/>
	<path class="st2" d="M555.3,773.3c-0.7,2.6-3.3,4.3-5.7,3.8s-4-3.2-3.5-5.8c0.5-2.7,3-4.4,5.7-3.8
		C554.5,768.1,556,770.7,555.3,773.3z"/>
	<path class="st2" d="M579.1,782.5c-0.6,1.2-1.7,2-2.8,2.4c-1.2,0.5-2.4,0.5-3.6,0c-2.3-1-3.2-3.9-2.2-6.4s3.9-3.7,6.4-2.5
		c1.2,0.6,2.1,1.6,2.5,2.7C579.8,779.9,579.7,781.3,579.1,782.5z"/>
	<path class="st2" d="M600.2,796.8c-1.8,2.1-4.7,2.4-6.6,0.8c-2-1.4-2.4-4.4-0.8-6.6c1.6-2.2,4.6-2.7,6.9-1.1
		C601.7,791.6,601.9,794.7,600.2,796.8z"/>
	<path class="st2" d="M617.6,815.4c-2.2,1.6-5.2,1.4-6.7-0.6s-1.2-5,0.8-6.8c2-1.9,5.1-1.7,6.8,0.6
		C620.2,810.6,619.8,813.7,617.6,815.4z"/>
	<path class="st2" d="M630.5,837.3c-2.4,1.1-5.2,0.1-6.4-2.1c-1.1-2.2-0.1-5.1,2.2-6.5c2.3-1.3,5.3-0.4,6.5,2
		C634.1,833.3,633,836.2,630.5,837.3z"/>
	<path class="st2" d="M638,861.7c-2.6,0.5-5.1-1.1-5.6-3.5c-0.7-2.4,0.9-5,3.5-5.8s5.2,0.8,6,3.4C642.4,858.5,640.6,861.2,638,861.7
		z"/>
	<path class="st2" d="M640,887.1c-2.7-0.1-4.8-2.2-4.7-4.7c0.2-2.5,2.1-4.7,4.8-4.9c2.6-0.2,5.1,1.9,4.9,4.7
		C644.9,885,642.7,887.2,640,887.1z"/>
	<path class="st2" d="M636.4,912.4c-2.6-0.7-4.2-3.2-3.6-5.7c0.6-2.5,3.2-4.1,5.8-3.7s4.3,3,3.6,5.7
		C641.6,911.4,638.9,913,636.4,912.4z"/>
	<path class="st2" d="M627.2,936.2c-1.2-0.6-2-1.6-2.3-2.8c-0.4-1.2-0.4-2.5,0.1-3.6c1-2.3,3.9-3.4,6.3-2.4c2.5,1,3.5,3.9,2.4,6.5
		c-0.6,1.3-1.6,2.2-2.7,2.6C629.7,936.9,628.4,936.8,627.2,936.2z"/>
	<path class="st2" d="M612.8,957.3c-2-1.8-2.3-4.7-0.6-6.7c1.5-2.1,4.4-2.5,6.6-1c2.2,1.5,2.6,4.7,1,7
		C617.9,958.7,614.8,959,612.8,957.3z"/>
	<path class="st2" d="M594.3,974.7c-1.6-2.2-1.2-5.2,0.8-6.8c2-1.5,5-1.3,6.7,0.7c1.8,2,1.5,5.2-0.7,6.9
		C598.8,977.2,595.8,976.9,594.3,974.7z"/>
	<path class="st2" d="M572.3,987.7c-1-2.4,0-5.3,2.2-6.5s5.1-0.2,6.3,2.1c1.3,2.3,0.3,5.3-2.2,6.6
		C576.2,991.2,573.3,990.2,572.3,987.7z"/>
	<path class="st2" d="M547.9,995.2c-0.5-2.7,1.2-5.2,3.6-5.7c2.4-0.7,4.9,0.8,5.6,3.4s-0.9,5.3-3.5,6.1
		C550.9,999.7,548.4,997.9,547.9,995.2z"/>
	<path class="st2" d="M522.5,997.3c0.1-2.7,2.3-4.9,4.8-4.9c2.5,0.1,4.6,2,4.7,4.7c0.1,2.7-2,5.2-4.8,5.1
		C524.5,1002.2,522.4,1000,522.5,997.3z"/>
	<path class="st2" d="M497.3,993.7c0.7-2.6,3.3-4.3,5.7-3.8c2.4,0.5,4,3.2,3.5,5.8c-0.5,2.7-3,4.4-5.7,3.8
		C498.1,998.9,496.5,996.3,497.3,993.7z"/>
	<path class="st2" d="M473.5,984.5c0.6-1.2,1.7-2,2.8-2.4c1.2-0.5,2.4-0.5,3.6,0c2.3,1,3.2,3.9,2.2,6.4s-3.9,3.7-6.4,2.5
		c-1.2-0.6-2.1-1.6-2.5-2.7C472.7,987.1,472.9,985.7,473.5,984.5z"/>
	<path class="st2" d="M452.4,970.2c1.8-2.1,4.7-2.4,6.6-0.8c2,1.4,2.4,4.4,0.8,6.6s-4.6,2.7-6.9,1.1
		C450.9,975.4,450.7,972.3,452.4,970.2z"/>
	<path class="st2" d="M435,951.6c2.2-1.6,5.2-1.3,6.7,0.6c1.5,2,1.2,5-0.8,6.8c-2,1.9-5.1,1.7-6.8-0.6
		C432.4,956.3,432.8,953.2,435,951.6z"/>
	<path class="st2" d="M422.1,929.6c2.4-1.1,5.2-0.1,6.4,2.1c1.1,2.2,0.1,5.1-2.2,6.5c-2.3,1.3-5.3,0.4-6.5-2
		C418.5,933.7,419.6,930.8,422.1,929.6z"/>
	<path class="st2" d="M414.6,905.3c2.6-0.5,5.1,1.1,5.6,3.5c0.7,2.4-0.9,5-3.5,5.8s-5.3-0.8-6-3.4
		C410.1,908.5,411.9,905.8,414.6,905.3z"/>
	<path class="st2" d="M412.6,879.9c2.7,0.1,4.8,2.2,4.7,4.7c-0.2,2.5-2.1,4.7-4.8,4.9c-2.6,0.2-5.1-1.9-4.9-4.7
		C407.7,882,409.9,879.8,412.6,879.9z"/>
	<path class="st2" d="M416.2,854.6c2.6,0.7,4.2,3.2,3.6,5.7s-3.2,4.1-5.8,3.7c-2.6-0.4-4.2-3-3.6-5.7
		C411,855.6,413.6,853.9,416.2,854.6z"/>
	<path class="st2" d="M425.4,830.8c1.2,0.6,2,1.6,2.3,2.8c0.4,1.2,0.4,2.5-0.1,3.6c-1,2.3-3.9,3.4-6.3,2.4c-2.5-1-3.5-3.9-2.4-6.5
		c0.6-1.3,1.6-2.2,2.7-2.6C422.9,830.1,424.2,830.2,425.4,830.8z"/>
	<path class="st2" d="M439.7,809.7c2,1.8,2.3,4.7,0.6,6.7c-1.5,2.1-4.4,2.5-6.6,1s-2.6-4.7-1-7C434.6,808.3,437.7,808,439.7,809.7z"
		/>
	<path class="st2" d="M458.3,792.2c1.6,2.2,1.2,5.2-0.8,6.8c-2,1.5-5,1.3-6.7-0.7c-1.8-2-1.5-5.2,0.7-6.9
		C453.7,789.7,456.8,790.1,458.3,792.2z"/>
	<path class="st2" d="M480.3,779.3c1,2.4,0,5.3-2.2,6.5s-5.1,0.2-6.3-2.1c-1.3-2.4-0.3-5.3,2.2-6.6
		C476.4,775.7,479.3,776.8,480.3,779.3z"/>
	<path class="st2" d="M504.7,771.7c0.5,2.7-1.2,5.2-3.6,5.7c-2.4,0.7-4.9-0.8-5.6-3.4s0.9-5.3,3.5-6.1
		C501.6,767.3,504.2,769.1,504.7,771.7z"/>
	<path class="st2" d="M530.1,769.7c-0.1,2.7-2.3,4.9-4.8,4.9c-2.5-0.1-4.6-2-4.7-4.7c-0.1-2.7,2-5.2,4.8-5.1
		C528.1,764.8,530.2,767,530.1,769.7z"/>
	<path class="st2" d="M553.7,800.6c-0.9,2.6-3.5,3.9-5.9,3.3c-2.4-0.5-4-3.1-3.4-5.8c0.5-2.7,3.2-4.3,6-3.7
		C553.2,795.1,554.6,798.1,553.7,800.6z"/>
	<path class="st2" d="M576.9,812.3c-1.6,2.2-4.5,2.8-6.6,1.4c-2.2-1.2-2.9-4.2-1.6-6.6s4.3-3.2,6.8-1.8
		C577.9,807,578.5,810.1,576.9,812.3z"/>
	<path class="st2" d="M595.6,830.4c-2.2,1.6-5.1,1.4-6.7-0.6c-1.6-1.9-1.5-4.9,0.4-6.8c1.9-1.9,5.1-1.8,7,0.3
		C598.1,825.6,597.7,828.7,595.6,830.4z"/>
	<path class="st2" d="M608.1,853.2c-2.5,0.9-5.3-0.2-6.2-2.6c-0.9-2.4,0-5.1,2.4-6.4c2.3-1.2,5.5-0.3,6.5,2.4
		C611.9,849.3,610.7,852.2,608.1,853.2z"/>
	<path class="st2" d="M613.4,878.6c-2.7,0.1-5-1.8-5.2-4.3c-0.1-2.5,1.5-4.9,4.2-5.5c2.5-0.5,5.3,1.4,5.4,4.3
		C618.1,876,616.1,878.5,613.4,878.6z"/>
	<path class="st2" d="M610.9,904.6c-2.6-0.7-4.2-3.2-3.6-5.7c0.6-2.5,2.8-4.3,5.5-4c2.6,0.3,4.6,2.9,4,5.7
		C616.1,903.4,613.5,905.2,610.9,904.6z"/>
	<path class="st2" d="M600.9,928.6c-2.3-1.4-3.1-4.3-1.8-6.6c1.3-2.2,3.9-3.3,6.4-2.2c2.4,1.1,3.5,4.2,2.1,6.7
		C606.2,929.1,603.2,930,600.9,928.6z"/>
	<path class="st2" d="M584.3,948.6c-1.7-2-1.7-5.1,0.2-6.9c1.9-1.7,4.7-2,6.7-0.2c2,1.7,2.2,5.1,0,7.1
		C589.2,950.7,586,950.7,584.3,948.6z"/>
	<path class="st2" d="M562.5,962.9c-1.1-2.5-0.1-5.4,2.1-6.6c1.1-0.6,2.4-0.6,3.6-0.3c1.1,0.3,2.2,1,2.9,2.2s0.8,2.5,0.5,3.8
		c-0.4,1.2-1.3,2.3-2.5,3C566.5,966.3,563.6,965.4,562.5,962.9z"/>
	<path class="st2" d="M537.5,970.1c-0.3-2.6,1.5-5.3,4-5.7s5,1.2,5.6,3.8c0.6,2.7-1.1,5.3-3.9,5.8
		C540.3,974.6,537.8,972.9,537.5,970.1z"/>
	<path class="st2" d="M511.5,969.6c0.5-2.7,2.9-4.6,5.4-4.3c1.3,0.1,2.3,0.8,3.1,1.8s1.2,2.1,1.1,3.5c-0.1,1.3-0.7,2.6-1.7,3.4
		s-2.3,1.2-3.7,1C512.9,974.7,511,972.3,511.5,969.6z"/>
	<path class="st2" d="M486.8,961.5c1.3-2.4,4.1-3.6,6.4-2.5c1.1,0.5,2,1.5,2.4,2.7c0.5,1.1,0.5,2.4,0.1,3.7
		c-0.5,1.3-1.4,2.3-2.6,2.8s-2.5,0.5-3.8-0.1C486.6,966.8,485.5,963.9,486.8,961.5z"/>
	<path class="st2" d="M465.6,946.4c1.9-1.9,4.9-2.2,6.8-0.5s2.1,4.8,0.5,6.9c-1.7,2.2-4.7,2.5-6.9,0.6
		C463.9,951.5,463.7,948.4,465.6,946.4z"/>
	<path class="st2" d="M449.9,925.7c1.2-0.7,2.5-0.8,3.6-0.5c1.2,0.3,2.3,1,2.9,2c1.3,2.1,0.6,5.2-1.5,6.8c-2.2,1.6-5.2,1-6.7-1.5
		c-0.7-1.2-1-2.6-0.7-3.8C447.9,927.4,448.7,926.3,449.9,925.7z"/>
	<path class="st2" d="M440.9,901.3c2.6-0.6,5,1.1,5.8,3.5c0.7,2.4-0.9,5.1-3.4,6s-5.2-0.6-6-3.4
		C436.4,904.6,438.3,901.8,440.9,901.3z"/>
	<path class="st2" d="M439.5,875.3c2.7,0.3,4.5,2.5,4.5,5.1c-0.1,2.5-2.3,4.7-5,4.8s-4.8-2.2-4.7-5.1
		C434.3,877.2,436.8,875,439.5,875.3z"/>
	<path class="st2" d="M445.7,850c2.4,1,3.5,3.8,2.8,6.2c-0.8,2.4-3.6,3.8-6.1,3.1c-2.6-0.7-3.9-3.5-3-6.3
		C440.3,850.3,443.3,849,445.7,850z"/>
	<path class="st2" d="M459.2,827.8c2,1.8,2.2,4.6,0.8,6.8c-1.5,2.1-4.5,2.6-6.7,1.2s-2.7-4.6-1-6.9
		C453.9,826.3,457.2,826.1,459.2,827.8z"/>
	<path class="st2" d="M478.7,810.4c1.4,2.3,0.8,5.1-1.2,6.7s-5,1.2-6.7-0.8c-1.7-2.1-1.2-5.2,1-7
		C474.1,807.5,477.3,808.2,478.7,810.4z"/>
	<path class="st2" d="M502.3,799.6c0.7,2.6-0.7,5.3-3.1,6.1c-2.3,1-5.1-0.3-6.1-2.8s0.3-5.4,3-6.5
		C498.8,795.5,501.6,797,502.3,799.6z"/>
	<path class="st2" d="M528.1,796.2c-0.1,2.7-2.2,4.9-4.7,4.9c-2.5,0.2-4.7-1.8-5-4.5c-0.2-2.7,1.9-5.1,4.7-5.4
		C526,791.3,528.2,793.6,528.1,796.2z"/>
	<path class="st2" d="M551,828c-1.2,2.5-3.8,3.5-6,2.9c-2.2-0.8-3.5-3.5-2.8-6.1c0.7-2.7,3.4-4.2,6.1-3.2
		C551,822.4,552.1,825.6,551,828z"/>
	<path class="st2" d="M571.4,842.8c-2,1.8-5,1.9-6.6,0.2c-1.8-1.5-1.8-4.6-0.2-6.7c1.7-2.1,4.8-2.4,6.9-0.5
		C573.5,837.8,573.4,841,571.4,842.8z"/>
	<path class="st2" d="M584,864.7c-2.5,0.8-5.2-0.3-6.1-2.5c-0.7-2.3,0.1-4.9,2.5-6.3c2.3-1.3,5.5-0.3,6.4,2.4
		C587.9,860.9,586.6,863.8,584,864.7z"/>
	<path class="st2" d="M586.6,889.8c-2.7-0.3-4.5-2.5-4.5-4.9c0-1.2,0.6-2.3,1.5-3.2c0.8-0.8,2-1.4,3.3-1.5s2.6,0.4,3.5,1.3
		c0.8,0.9,1.4,2.2,1.3,3.6C591.8,888,589.2,890.1,586.6,889.8z"/>
	<path class="st2" d="M578.8,913.8c-2.3-1.4-3-4.1-2.1-6.3c1-2.2,3.9-3.2,6.3-2.3c2.6,0.9,3.6,3.8,2.4,6.5
		C584.2,914.3,581,915.1,578.8,913.8z"/>
	<path class="st2" d="M562,932.6c-1.5-2.2-1.2-5.2,0.6-6.7c1.8-1.6,4.7-1.5,6.6,0.4c1.9,1.9,1.8,5.1-0.4,7
		C566.5,935.1,563.5,934.8,562,932.6z"/>
	<path class="st2" d="M538.9,942.9c-0.3-1.3,0-2.6,0.6-3.6c0.6-1.1,1.5-1.9,2.7-2.3c2.3-0.6,4.8,0.6,5.8,3.1s-0.4,5.5-3.2,6.3
		c-1.4,0.4-2.7,0.3-3.8-0.4S539.2,944.2,538.9,942.9z"/>
	<path class="st2" d="M513.7,942.9c0.6-2.7,3-4.3,5.3-4.1c1.2,0.1,2.2,0.8,2.9,1.8c0.7,0.9,1.2,2.1,1.1,3.5
		c-0.1,2.8-2.5,4.8-5.4,4.5C514.8,948.3,513.1,945.5,513.7,942.9z"/>
	<path class="st2" d="M490.6,932.6c1.6-2.2,4.4-2.8,6.5-1.6c2,1.2,2.7,4.1,1.5,6.6c-1.2,2.4-4.2,3.3-6.6,1.9
		C489.5,938,489,934.8,490.6,932.6z"/>
	<path class="st2" d="M473.7,913.9c2.3-1.3,5.3-0.8,6.5,1.2c1.3,2,0.9,4.8-1.2,6.6c-2,1.7-5.2,1.4-6.8-1
		C470.7,918.3,471.4,915.3,473.7,913.9z"/>
	<path class="st2" d="M466,889.9c1.3-0.2,2.6,0.2,3.5,0.9c1,0.7,1.7,1.7,1.9,2.9c0.3,2.4-1.2,4.9-3.8,5.6c-2.6,0.8-5.3-0.9-5.7-3.7
		c-0.2-1.4,0.1-2.8,0.8-3.8C463.5,890.7,464.6,890,466,889.9z"/>
	<path class="st2" d="M468.6,864.8c2.6,0.9,3.8,3.4,3.4,5.7c-0.6,2.3-3.1,4-5.7,3.6c-2.7-0.4-4.4-3-3.7-5.8
		C463.2,865.5,466.1,863.9,468.6,864.8z"/>
	<path class="st2" d="M481.2,842.9c2,1.8,2.2,4.8,0.7,6.7c-1.4,2-4.3,2.4-6.6,1c-2.2-1.4-2.7-4.5-1-6.9
		C476.1,841.4,479.3,841.1,481.2,842.9z"/>
	<path class="st2" d="M501.6,828c1,2.4,0.1,5.4-2,6.5s-4.8,0.5-6.3-1.8c-1.4-2.2-0.8-5.5,1.8-6.8C497.7,824.6,500.6,825.5,501.6,828
		z"/>
	<path class="st2" d="M526.3,822.8c-0.1,2.7-2,4.8-4.4,5.1c-1.2,0.1-2.3-0.4-3.2-1.1s-1.6-1.8-1.8-3.2c-0.2-1.3,0.2-2.6,0.9-3.7
		c0.8-1,2-1.6,3.4-1.8C524.1,817.8,526.4,820.1,526.3,822.8z"/>
	<path class="st2" d="M548.8,857.9c-1.8,2-4.7,2.4-6.6,1.1c-1-0.6-1.6-1.6-1.9-2.8c-0.3-1.1-0.3-2.5,0.3-3.7s1.6-2.1,2.9-2.5
		c1.3-0.3,2.8-0.1,4.1,0.7C550.3,852.5,550.7,855.9,548.8,857.9z"/>
	<path class="st2" d="M560.3,881.3c-2.7,0.1-4.9-1.7-5.4-3.9c-0.5-2.3,0.9-4.9,3.4-5.9c2.5-1.1,5.4,0.6,6.1,3.8
		C565.1,878.5,562.9,881.2,560.3,881.3z"/>
	<path class="st2" d="M551.8,906.1c-1.9-1.8-2.2-4.7-0.9-6.7c0.6-1,1.6-1.7,2.8-2c1.1-0.4,2.4-0.4,3.6,0.2c1.2,0.5,2.1,1.6,2.4,2.9
		s0,2.8-0.8,4.2C557.1,907.4,553.8,907.9,551.8,906.1z"/>
	<path class="st2" d="M528.4,917.6c-0.1-2.7,1.7-5,4-5.5c2.2-0.5,4.8,0.9,5.7,3.3c1,2.5-0.7,5.5-3.8,6.3
		C531.2,922.4,528.5,920.3,528.4,917.6z"/>
	<path class="st2" d="M503.8,909.1c1.8-2,4.7-2.4,6.6-1.1c1,0.6,1.6,1.6,1.9,2.8c0.3,1.1,0.3,2.5-0.3,3.7c-0.6,1.2-1.6,2.1-2.9,2.5
		c-1.3,0.3-2.8,0.1-4.1-0.7C502.3,914.5,501.9,911.1,503.8,909.1z"/>
	<path class="st2" d="M492.3,885.6c2.7-0.1,4.9,1.7,5.3,3.9c0.5,2.3-0.9,4.9-3.4,5.9c-2.5,1.1-5.4-0.6-6.1-3.8
		C487.5,888.5,489.7,885.7,492.3,885.6z"/>
	<path class="st2" d="M500.7,860.9c1.9,1.8,2.2,4.7,1,6.7c-0.6,1-1.6,1.7-2.8,2c-1.1,0.4-2.4,0.4-3.6-0.2c-1.2-0.5-2.1-1.6-2.4-2.9
		s0-2.8,0.8-4.2C495.5,859.6,498.8,859.1,500.7,860.9z"/>
	<path class="st2" d="M524.2,849.4c0.1,2.7-1.7,5-4,5.5c-2.2,0.5-4.8-0.9-5.7-3.3c-1-2.5,0.7-5.5,3.8-6.3
		C521.4,844.6,524.1,846.7,524.2,849.4z"/>
</g>
</svg>
