<?xml version="1.0" encoding="utf-8"?>
<!-- Generator: Adobe Illustrator 24.0.1, SVG Export Plug-In . SVG Version: 6.00 Build 0)  -->
<svg version="1.1" id="Layer_1" xmlns="http://www.w3.org/2000/svg" xmlns:xlink="http://www.w3.org/1999/xlink" x="0px" y="0px"
	 viewBox="0 0 568.5 405.8" style="enable-background:new 0 0 568.5 405.8;" xml:space="preserve">
<style type="text/css">
	.st0{opacity:0.5;}
	.st1{fill:#D8E4F1;}
	.st2{fill:#FFBC00;}
	.st3{fill:#FBC922;}
	.st4{fill:#F09E00;}
	.st5{fill:#FFA800;}
	.st6{fill:#F4F7FB;}
	.st7{fill:#FFFFFF;}
	.st8{fill:#202020;}
	.st9{fill:#7F99B4;}
	.st10{fill:#454545;}
	.st11{fill:#C69076;}
	.st12{fill:#1E5083;}
	.st13{fill:#133252;}
	.st14{fill:#A37661;}
	.st15{fill:#333333;}
	.st16{fill:#9DBCDC;}
	.st17{fill:#C92B2B;}
</style>
<g>
	<g class="st0">
		<path class="st1" d="M237,122.7c-3.9-6.8,1.8-15.5,7.1-20.7c24.6-24,55.2-47.7,81.7-68.5c15.9-12.1,32.6-22.7,49.8-31.4
			c5.2-2.6,12.9-3.9,14.9,2.6c1.4,4.7-1.7,9.5-4.7,13c-30.7,36.7-65.5,68.1-103.1,93c-10.6,7-21.6,13.6-33.5,15.9
			C244.8,127.4,239.5,127.2,237,122.7z"/>
		<path class="st1" d="M568.5,166.6v127.5c-6.7,10.4-14.6,19.8-23,27.8c-11.5,10.9-24,20.1-36.6,29.2c-3.8,2.7-7.5,5.4-11.2,8.1
			c-0.2,0.1-0.4,0.3-0.5,0.4c-2.9,2.1-5.8,4.3-8.8,6.5c-6.2,4.8-12.3,9.8-18.2,15.2c-6.9,6.4-13.5,13.4-19.7,20.9
			c-1,1.2-1.9,2.4-2.9,3.6H277.4c-1.9-6.1-4-12-6.5-17.8c-4.7-11-10.5-21.2-18.1-29.4c-21.4-23.1-52.9-26.8-74.6-49.4
			c-19.1-19.8-27.6-55.3-16.9-81.9c4.1-9.9,10.4-18.2,17.3-25.4c13.7-14.2,29.7-24.5,46.1-33.8c2.8-1.6,5.7-3.2,8.5-4.8
			c0.7-0.4,1.5-0.8,2.2-1.2c4.7-2.6,9.4-5.2,14.1-7.9c1.3-0.8,2.6-1.5,3.9-2.2c10.9-6.3,21.7-13.2,32.2-20.5
			c11-7.7,21.8-16,32.3-24.7c0.2-0.2,0.4-0.3,0.6-0.5c0,0,0,0,0,0c0.1-0.1,0.3-0.2,0.4-0.4c0.7-0.6,1.3-1.1,2-1.7
			c0.7-0.6,1.5-1.2,2.2-1.9c0,0,0,0,0.1,0c1.4-1.2,2.8-2.5,4.3-3.7c0,0,0,0,0-0.1c0.6-0.5,1.3-1.1,1.9-1.7c0.7-0.6,1.3-1.2,2-1.8
			c3.1-2.8,6.2-5.7,9.3-8.5c4.2-4,8.3-8,12.3-12.1c1.2-1.2,2.3-2.3,3.4-3.5c8.9-9.2,17.7-18.6,26.8-27.2c5.1-4.8,10.2-9.3,15.6-13.4
			c0.7-0.5,1.3-1,2-1.5c5-3.7,10.2-7,15.7-9.7c29.8-14.9,65.7-11.4,94.3,9.2c28.6,20.6,49.1,57.8,54,97.7c0.3,2.2,0.5,4.3,0.7,6.5
			c0,0.6,0.1,1.1,0.1,1.7c0.1,0.7,0.1,1.4,0.2,2.1c0.6,7.9,1,15.8,1.8,23.7C567.9,162.3,568.2,164.5,568.5,166.6z"/>
		<path class="st1" d="M237.8,405.8h-42.3c-7.5-7.3-13.8-16.6-18.8-26.7c-2.1-4.2-4-8.8-4.2-13.8c-0.4-9.4,6.1-17.8,13.5-20.3
			c7.4-2.4,15.3,0,22.2,4.1c10.1,7.8,16.3,14.8,23.5,28c3.5,6.4,6.4,13.7,6.7,21.5C238.5,401,238.3,403.5,237.8,405.8z"/>
	</g>
	<path class="st2" d="M33.8,101.9c0,49.4,20.8,89.4,46.5,89.4c12.2,0,23.3-9,31.6-23.7c7.9-14.1,13.3-33.5,14.6-55.2
		c0.1-2.1,0.2-4.2,0.3-6.3c0-1.4,0.1-2.8,0.1-4.2C126.9,101.9,33.8,101.9,33.8,101.9z"/>
	<path class="st3" d="M63.5,106.1c0,28.8,12.2,52.1,27.1,52.1c7.1,0,13.6-5.2,18.4-13.8c4.6-8.2,7.8-19.5,8.5-32.2
		c0.1-1.2,0.1-2.4,0.2-3.7c0-0.8,0-1.6,0-2.4H63.5L63.5,106.1z"/>
	<path class="st3" d="M52.9,227.6c0,0.5,0.1,1,0.3,1.4c3,7.3,31.1,3.5,31.1,3.5v-0.2c9.3,0.5,22.7,0.3,22.6-5.7
		c0,0-27.3-11.7-11.1-42.7H75.5v1H64c1.5,2.9,2.6,5.6,3.4,8.1C75.4,218,52.9,227.6,52.9,227.6z"/>
	<path class="st3" d="M92.2,186.8c0.4,0,0.9-0.1,1.3-0.2l11.6-4.3c21.7-7.9,39.5-24.6,48.9-45.7l6-13.3c5.1-11.3,3-24.7-5.2-33.9
		l-0.4-0.4c-2.1-2.4-5.4-3.2-8.4-2.2c-3,1.1-5,3.8-5.2,7l-0.5,12c-0.1,1.9-1.7,3.5-3.6,3.5H122c-2,0-3.7,1.7-3.7,3.7
		s1.7,3.7,3.7,3.7h14.7c5.9,0,10.8-4.6,11-10.6l0.5-12c0-0.1,0-0.3,0.3-0.3c0.2-0.1,0.4,0,0.4,0.1l0.4,0.4c6.3,7.1,7.9,17.3,4,26
		l-6,13.3c-8.6,19.3-24.9,34.5-44.7,41.7L91,179.6c-1.9,0.7-2.9,2.8-2.2,4.7C89.2,185.8,90.7,186.8,92.2,186.8z"/>
	<path class="st4" d="M70.5,186.8c1.5,0,2.9-0.9,3.5-2.4c0.7-1.9-0.3-4.1-2.2-4.8l-11.6-4.3c-19.8-7.2-36.1-22.5-44.7-41.7l-6-13.3
		c-3.9-8.7-2.3-18.9,4-26l0.4-0.4c0.1-0.1,0.2-0.2,0.4-0.1s0.3,0.3,0.3,0.3l0.5,12c0.3,5.9,5.1,10.6,11,10.6h14.7
		c2,0,3.7-1.7,3.7-3.7s-1.7-3.7-3.7-3.7H26.1c-1.9,0-3.5-1.5-3.6-3.5l-0.5-12c-0.1-3.2-2.2-5.9-5.2-7s-6.3-0.2-8.4,2.2L8,89.3
		c-8.2,9.3-10.3,22.6-5.2,33.9l5.9,13.3c9.4,21.1,27.2,37.7,48.9,45.7l11.6,4.3C69.6,186.7,70.1,186.8,70.5,186.8z"/>
	<path class="st5" d="M33.8,101.9c0,49.4,20.8,89.4,46.5,89.4c12.2,0,23.3-9,31.6-23.7c-52.4,2.7-47.6-45.8-43.5-65.6H33.8V101.9z"
		/>
	<path class="st3" d="M26.7,101.9c0,1.1,0.5,2.2,1.2,2.9c0.7,0.8,1.8,1.2,2.9,1.2h98.9c2.3,0,4.2-1.9,4.2-4.2c0-1.1-0.5-2.2-1.2-2.9
		c-0.8-0.8-1.8-1.2-2.9-1.2H30.9C28.6,97.8,26.7,99.7,26.7,101.9z"/>
	<path class="st5" d="M26.7,101.9c0,1.1,0.5,2.2,1.2,2.9c0.7,0.8,1.8,1.2,2.9,1.2h37.4c-5.5-2.1-8.3-5.8-9.7-8.3H30.9
		C28.6,97.8,26.7,99.7,26.7,101.9z"/>
	<path class="st5" d="M52.9,227.6c0,0.5,0.1,1,0.3,1.4c9.5,2.6,26.7,6.8,23.9,1.7c-3.1-5.6-1.7-20-1-25.8c0.3-2.6-0.2-5.3-1.6-7.5
		c-2.8-4.4-7-4.4-7-4.4C75.4,218,52.9,227.6,52.9,227.6z"/>
	<path class="st3" d="M36.7,236.5v4h87.2v-4c0-5.4-4.4-9.8-9.8-9.8H46.6C41.1,226.6,36.7,231,36.7,236.5z"/>
	<rect x="30" y="243.8" class="st1" width="101" height="162"/>
	<rect x="37" y="251.6" class="st6" width="3" height="105"/>
	<rect x="46" y="251.6" class="st6" width="7" height="105"/>
	<rect x="64" y="251.6" class="st6" width="10" height="105"/>
	<rect x="83" y="251.6" class="st6" width="3" height="105"/>
	<rect x="102" y="251.6" class="st6" width="10" height="105"/>
	<rect x="111" y="251.6" class="st6" width="7" height="105"/>
	<rect x="121" y="251.6" class="st6" width="3" height="105"/>
	<path class="st1" d="M16.9,243.4h120.9c2,0,3.6,1.6,3.6,3.6l0,0c0,2-1.6,3.6-3.6,3.6H16.9c-2,0-3.6-1.6-3.6-3.6l0,0
		C13.3,245,14.9,243.4,16.9,243.4z"/>
	<path class="st5" d="M36.7,236.5v4H78c-13.7-7.5,3.1-13.9,3.1-13.9H46.6C41.1,226.6,36.7,231,36.7,236.5z"/>
	<path class="st5" d="M54.4,106.1l72.2,6.3c0.1-2.1,0.2-4.2,0.3-6.3H54.4z"/>
	<path class="st7" d="M65.6,128.4l0.7-1.3c1.3-2.2,3.2-4,5.5-5.2l1.4-0.7l-1.4-0.7c-2.3-1.2-4.2-3-5.5-5.2l-0.7-1.3l-0.7,1.3
		c-1.3,2.2-3.2,4-5.5,5.2l-1.4,0.7l1.4,0.7c2.3,1.2,4.2,3,5.5,5.2L65.6,128.4z"/>
	<path class="st7" d="M105.9,148.2l0.5-1c0.9-1.7,2.3-3.1,4-4l1-0.5l-1-0.5c-1.7-0.9-3.1-2.3-4-4l-0.5-1l-0.5,1
		c-0.9,1.7-2.3,3.1-4,4l-1,0.5l1,0.5c1.7,0.9,3.1,2.3,4,4L105.9,148.2z"/>
	<path class="st7" d="M115.1,132.6l0.3-0.6c0.5-1,1.3-1.8,2.3-2.3l0.6-0.3l-0.6-0.3c-1-0.5-1.8-1.3-2.3-2.3l-0.3-0.6l-0.3,0.6
		c-0.5,1-1.3,1.8-2.3,2.3l-0.6,0.3l0.6,0.3c1,0.5,1.8,1.3,2.3,2.3L115.1,132.6z"/>
	<path class="st7" d="M115.3,231.2c-1.1-0.4-2.2-0.6-3.3-0.8c-1.1-0.2-2.2-0.3-3.3-0.4c-1.1-0.1-2.2-0.1-3.3,0
		c-1.1,0.1-2.2,0.2-3.3,0.2l-3.3,0.2l-3.3,0.2c-2.2,0.2-4.4,0.3-6.5,0.5v0.3c2.2,0.2,4.4,0.4,6.5,0.5l3.3,0.2l3.3,0.2
		c1.1,0.1,2.2,0.2,3.3,0.2c1.1,0.1,2.2,0.1,3.3,0c1.1-0.1,2.2-0.2,3.3-0.4C113.1,231.9,114.2,231.7,115.3,231.2L115.3,231.2z"/>
	<path class="st8" d="M299.2,85.3c-25.8,5.7-24.1,51.2,0.8,56.9c8.7,2,17.5-0.9,25.5-4.1c4.5-1.8,8.9-3.9,13.1-6.3
		c0.4-0.3,5.2-2.5,5.2-3C343.8,128.8,340.3,76.2,299.2,85.3z"/>
	<path class="st8" d="M278.3,60.1c0,0-15.6-20.3,4.7-35.2c18-13.2,44.5-11.7,55.5,11.7c2.3,5,7.9,7.6,13.2,6
		c10.7-3.1,28.3-5.1,42.3,8.3c21.8,20.9,14.5,60-21.7,62.8C336,116.6,278.3,60.1,278.3,60.1z"/>
	<path class="st9" d="M325.8,215.1c0,0-30.8-96.7-2.7-112.8s45.3,115.9,45.3,115.9L325.8,215.1z"/>
	<path class="st7" d="M312.5,120.2c-1.5,3.2-3.1,6.3-4.8,9.4c-0.6,1-1.1,2.1-1.7,3.1c-4.7,9-11.3,17.8-10.5,28
		c1.5,10.9,13.8,13.1,23.6,12.3c1.2-0.2,2.3-0.6,3.2-1.1c0.8-0.5,1.5-1,2.3-1.6c5.1-4.1,8.7-10.7,8.7-10.7s-0.4-0.5-1-1.3
		s-1.5-2-2.7-3.5c-3.6-5-4.3-10.1-5.5-16.1c-0.2-1.6-0.4-3.2-0.7-4.7c-0.3-6-3.9-11.8-9.4-13.7C313,120.2,312.5,120.2,312.5,120.2z"
		/>
	<path class="st10" d="M473.7,231.6c-1.3-0.7-2.5-1.6-3.6-2.6s-2.1-2.2-2.9-3.5s-1.5-2.8-2-4.5c-0.4-1.7-0.6-3.6-0.3-5.5
		c0.3-1.9,1.3-3.9,2.5-5.3c0.6-0.8,1.3-1.4,2.1-1.9c0.4-0.3,0.7-0.5,1.1-0.7s0.8-0.4,1.1-0.6c0.8-0.4,1.5-0.7,2.3-1s1.5-0.5,2.3-0.7
		c1.5-0.3,3-0.7,4.6-0.8c3.1-0.4,6.5-0.1,9.6,1.3c1.5,0.7,2.9,1.7,4,2.9s2,2.4,2.8,3.8c1.4,2.7,2.2,5.5,2.7,8.3
		c0.4,2.8,0.5,5.6,0.3,8.4h-0.8c-0.2-1.3-0.5-2.7-0.8-4s-0.7-2.6-1.2-3.8c-0.9-2.5-2.1-4.8-3.6-6.7c-0.8-1-1.6-1.8-2.5-2.5
		s-1.9-1.1-2.9-1.4c-2-0.6-4.3-0.5-6.5,0.1c-0.6,0.1-1.1,0.4-1.7,0.5c-0.6,0.2-1.1,0.5-1.7,0.7c-0.5,0.3-1,0.5-1.5,0.8
		s-1,0.6-1.3,0.9c-0.8,0.6-1.5,1.3-2,1.9c-0.5,0.6-0.9,1.2-1.2,1.9c-0.6,1.4-0.7,3.6-0.3,6c0.4,2.4,1.1,5,1.9,7.8L473.7,231.6z"/>
	<path class="st11" d="M461.8,205h18.5c0,0-13.4,5.6-12.5,16l-13.3-12.6L461.8,205z"/>
	<path class="st1" d="M565,248.4c0,0-43-34.6-52.1-45.4l-50.4,43c0,0,25.9,35.7,54.1,51.8C516.6,297.9,547.3,273,565,248.4z"/>
	<path class="st6" d="M564.3,241.3c0,0-43-34.6-52.1-45.4L461.8,239c0,0,25.9,35.7,54.1,51.8C515.9,290.8,546.6,266,564.3,241.3z"/>
	<path class="st12" d="M414.2,266.9c-0.7,0.2-1.3,0.5-2,0.7c-10,3.3-20.3,4.6-30.4,4.6c-43.3,0-84.1-24.3-87.9-25.8
		c10.9,16.8,22.6,92.9,22.6,92.9l-12.7,2.8c0,0-66.6-101.2-37.7-120.9c29-19.7,123.2,1.2,123.2,1.2S464.6,248.8,414.2,266.9z"/>
	<path class="st13" d="M414.2,266.9c-0.7,0.2-1.3,0.5-2,0.7c-10,3.3-20.3,4.6-30.4,4.6c-43.3,0-84.1-24.3-87.9-25.8
		c68.2,7.4,93.1-4,93.1-4L414.2,266.9z"/>
	<path class="st12" d="M540.3,392.5l-15.6,2.8c-2.7-1.5-5.8-3.7-9.3-6.3l0,0c-1.4-1-2.8-2.1-4.2-3.3l-0.2-0.1l0,0
		c-29.2-23.2-76.4-71.6-76.4-71.6c-67-68.5-70.5-109.1-70.5-109.1l79.6,32.3l23.7,69.3c16.1,10.3,51.5,56.9,66.2,76.8
		c0.7,0.9,1.3,1.7,1.8,2.5C538.5,390,540.3,392.5,540.3,392.5z"/>
	<path class="st9" d="M377.4,111.6l37.9,44.3l48.5,48.6L456,210l-69.5-47.3L377.4,111.6z"/>
	<path class="st7" d="M325.5,101c0,0-21.8,8.7-14.1,43.4c7.7,34.7,28.8,80.6,58.3,73.1C399.2,210,335,101.4,325.5,101z"/>
	<path class="st11" d="M303.6,88.1c0,0,7.8,1,13.8,14c1.6,3.5,3.1,7.9,4.3,13.3c5.5,25.8,25-20.9,25-20.9l-14.3-18.9l-21.2-8.3
		l-3.4,9.4L303.6,88.1z"/>
	<path class="st14" d="M303.6,88.1c0,0,7.8,1,13.8,14c7-9.7-2.2-29-2.2-29l-7.5,3.7L303.6,88.1z"/>
	<path class="st11" d="M286.1,88.8c12.3,12.5,32.7,3,36.2-15.9c0.9-4.9-0.5-12.7-2.2-19.3c-0.6-2.4-1.2-4.7-1.8-6.5
		c-1-3.2-1.7-5.3-1.7-5.3l-5-0.1L287,41.2c-1.9,0-5.7,11.5-6.2,13.2c-2.9,8.7-3.7,18.6,0.6,27.4C282.7,84.7,284.3,86.9,286.1,88.8z"
		/>
	<path class="st14" d="M278.4,65c4.6,2.3,10.4,3.2,16.3-1.7c13-10.6,25.4-3.8,25.4-3.8v-6v-5.1l-1.8-1.4l-6.7-5.4L287,41.2
		C287,41.2,279.7,52.2,278.4,65z"/>
	<path class="st11" d="M257,159.8l-19.3-14.3c0,0-11.3,2.1-17.1,10.3c-5.9,8.2,6.6,13.7,6.6,13.7h12.3h13.8L257,159.8z"/>
	<path class="st1" d="M565,248.4l-0.7-7l-3.8,5.1l2.2,2h2.3V248.4z"/>
	<path class="st1" d="M462.5,246l-0.7-7l4,5.2L462.5,246z"/>
	<path class="st1" d="M535.7,224.8c0,0-33.6,39.9-51.9,40l3.6,3.6C487.4,268.4,508.2,264.7,535.7,224.8z"/>
	<path class="st10" d="M514.4,247.9c3.1,3.1,6.5,4.8,7.5,3.8s-0.7-4.4-3.8-7.5s-6.5-4.8-7.5-3.8
		C509.6,241.4,511.3,244.8,514.4,247.9z"/>
	<polygon class="st15" points="553.7,405.8 531.7,405.8 529.6,402.6 530.6,402.4 545.4,399.6 545.9,399.5 	"/>
	<path class="st11" d="M315,336l4.5,23.9l-12,1.1l-3.1-18.8L315,336z"/>
	<path class="st15" d="M320.2,357.7l3.6,10.7l-43.4-0.3c0,0,5-9.7,27.9-10.4L320.2,357.7L320.2,357.7z"/>
	<path class="st11" d="M545.4,399.6l-5.8-7.1l-14.9,2.8l6.1,7.3L545.4,399.6z"/>
	<path class="st15" d="M316.5,340l-13.3,2.9c-0.5,0.1-1-0.1-1.3-0.5l-4.5-7.1c-0.5-0.8,0-1.9,0.9-1.9l17.3-1.4
		c0.7-0.1,1.3,0.5,1.3,1.1l0.5,5.5C317.6,339.3,317.1,339.9,316.5,340z"/>
	<path class="st11" d="M481.3,213.8l2-2.5c1-1.2,1.2-2.9,0.4-4.3c-0.7-1.3-2-2.1-3.4-2.1h-3.9c-0.9,0-1.8,0.3-2.5,0.9l-4.2,3.5
		l-5.8,4.9c-0.8,0.6-1.2,1.5-1.4,2.5l-0.2,1.7c-0.1,0.7,0,1.3,0.3,2l0.4,0.9c0.6,1.5,2,2.4,3.6,2.4h3.7c1.1,0,2.1-0.5,2.9-1.2l8-8.6
		C481.2,213.9,481.3,213.9,481.3,213.8z"/>
	<path class="st13" d="M535.5,385.9l-20.1,3.1l0,0l-4.2-3.3l-0.2-0.1c11.4,1.1,19.5-1.1,22.6-2.2
		C534.3,384.3,534.9,385.2,535.5,385.9z"/>
	<path class="st15" d="M537.2,385.7l-21.3,3.1c-0.5,0.1-0.7,0.8-0.3,1.1l8.5,6c0.1,0.1,0.3,0.1,0.5,0.1l16.9-3.4
		c0.4-0.1,0.6-0.6,0.4-1l-4.1-5.8C537.6,385.7,537.4,385.6,537.2,385.7z"/>
	<path class="st13" d="M527.2,387.2l-39.6-36.4l-19.8-18.2l-9.9-9.1l-2.5-2.3l-1.2-1.1c-0.2-0.2-0.4-0.3-0.7-0.6
		c-0.3-0.3-0.5-0.6-0.6-0.9c-0.3-0.7-0.4-1.5-0.3-2.2c0-0.4,0.2-0.8,0.3-1.1c0.1-0.2,0.2-0.4,0.3-0.5l0.2-0.4l1.8-2.9
		c0.1-0.1,0.1-0.2,0.1-0.2c0-0.1,0.1-0.1,0.1-0.2s0-0.3,0-0.4c-0.1-0.3-0.2-0.5-0.4-0.6c-0.1-0.1-0.2-0.1-0.3-0.1h-0.1h-0.1h-0.1
		H454h-1.7h-3.4h-0.8c-0.2,0-0.7,0-1,0c-0.7-0.1-1.4-0.3-2-0.7c-0.6-0.4-1.2-0.9-1.6-1.5c-0.2-0.3-0.4-0.6-0.5-0.9l-0.4-0.8l-1.5-3
		L438,297l-11.7-24.2l-23.5-48.5l3.9-1.9l22.5,48.9l11.2,24.5l2.8,6.1l1.4,3.1l0.4,0.8c0.1,0.2,0.2,0.4,0.3,0.5
		c0.2,0.3,0.5,0.6,0.8,0.8c0.3,0.2,0.7,0.4,1.1,0.4c0.3,0.1,1,0,1.5,0.1h3.4h1.7h0.4h0.1h0.2c0.1,0,0.2,0,0.3,0
		c0.4,0.1,0.8,0.2,1.2,0.5c0.7,0.5,1.3,1.2,1.4,2.1c0.1,0.4,0.1,0.9,0,1.3c0,0.2-0.1,0.4-0.2,0.6s-0.2,0.4-0.3,0.5l-1.8,2.8
		l-0.2,0.4c-0.1,0.1-0.1,0.2-0.2,0.3c-0.1,0.2-0.1,0.3-0.2,0.5c-0.1,0.3,0,0.7,0.1,1.1c0.1,0.2,0.2,0.3,0.3,0.5
		c0.1,0.1,0.4,0.3,0.5,0.5l1.2,1.2l2.4,2.3l9.7,9.3l19.4,18.6L527.2,387.2z"/>
	<path class="st16" d="M342.7,154c1.8,6-3.4,10.2-2.2,15.9c1.6,7.1,5.1,14.9,9.4,22.2c5.9,10.1,13.1,19.6,18.5,26.1
		c4.8,5.8,11.5,9.8,18.9,11.1c12.5,2.2,32.8,6,44.5,8.7c17.9,4.2,20.9,1.1,20.9,1.1c-13-14.7-29.2-26.8-41.3-42.1
		c-5.1-6.5-10.9-15.6-15.8-25.1c-1.6-3.2-3.1-6.4-4.5-9.6c-6.4-14.1-7.8-30.1-10-45.4c-2.2-14.6-13.1-27.7-28.3-26.9
		c-8,0.7-14.5,5.8-16,13.1c-4.4,13.8,0,27.7,3.3,40.8C340.9,147.5,341.7,150.9,342.7,154z"/>
	<path class="st9" d="M335.7,152.2c1.8,6,3.6,11.9,4.8,17.6c1.6,7.1,5.1,14.9,9.4,22.2c22.3-27.5,12.8-63.3,12.8-63.3L335.7,152.2z"
		/>
	<path class="st16" d="M362.3,144c-7.1,12.7-17.8,33.8-20.9,40c-0.8,1.7-2.2,3.1-3.8,4.1c-3.9,2.3-12.3,5.2-28.2,2.5
		c-11.8-2-25.3-6.9-36.1-11.4c-2.9-1.2-5.6-2.4-8.1-3.5c-7.3-3.3-12.1-5.8-12.1-5.8l4-10.5c0,0,3-0.1,8.1,0c1.2,0,2.5,0.1,3.9,0.1
		c10.2,0.4,28.9,2.8,46,7c0.4,0.1,0.7,0.2,1.1,0.3c0.9,0.2,1.9,0.5,2.8,0.7l0.9-2.2l0.9-2.3l20-50.6c0,0-6.8-14.1,14.2-15.1
		C376,96.1,370.8,129,362.3,144z"/>
	<path class="st16" d="M264.2,162.3c0,0,0,11,0,11.5c0,0.2,0.5,0.9,1.1,1.8c2.4,1.1,5.2,2.3,8.1,3.5c-3.1-6.7-4-17.1-4.1-19.6
		c-1.4-0.1-2.7-0.1-3.9-0.1L264.2,162.3z"/>
	<path class="st9" d="M265.7,158.4l-7.9-0.8c-0.8-0.1-1.5,0.4-1.8,1.1l-3.9,10.8c-0.3,0.9,0.1,1.8,0.9,2.2l13.7,6.3
		c1.2,0.6,2.6-0.4,2.5-1.8l-1.9-16.3C267.2,159.1,266.5,158.5,265.7,158.4z"/>
	<path class="st8" d="M285.1,37.4c0,0-4.1,9,6,15c10,6,17.7,0.1,24.2,11.2s10.6-14.8,10.6-14.8l-9-12.9l-17.2-1.5L285.1,37.4z"/>
	<path class="st8" d="M321,67.8c-3.5-0.5-3.5,24.9-3.1,27.4c1.3,7.2,5.1,14.3,11.4,18.2c1.3,0.8,2.6,1.4,4,1.9
		c10.9,4.4,20.1-2.5,28.5-8.6c6.8-5,14.1,3.7,21.2,2.6c4-0.7,7.2-4.2,8.2-8.1c2-8-3.2-14.5-9-19.2c-4.1-3.4-8.6-6.5-13.6-8.5
		c-7.5-2.9-15.6-2.9-23.5-3.1C337,70.1,329.1,69,321,67.8z"/>
	<path class="st7" d="M306.7,79.9c-0.1,0.9-0.2,2.1-0.5,3.1c-0.5,1.7-1.3,3.3-2.9,3.7c-3.2,0.8-5.4-0.3-7-2.1
		c-0.7-0.8-1.2-1.6-1.7-2.6c-0.3-0.5-0.5-1-0.6-1.5l12.9-2.9C306.7,77.6,306.8,78.6,306.7,79.9z"/>
	<path class="st17" d="M295.9,76.8c-1.1-0.5-1.8,2.4-2,4l10.6-2.6c-1.3-0.7-4.4-2.1-6-2.6C296.6,74.8,297.2,77.4,295.9,76.8z"/>
	<path class="st10" d="M323.6,68.3c-0.7,3.1-1,6.3-0.8,9.5c0.1,3.2,0.6,6.4,1.6,9.5c0.9,3.1,2.3,6,4.2,8.5c1.9,2.5,4.3,4.7,7.1,6.1
		c1.4,0.7,2.9,1.3,4.4,1.6c1.5,0.3,3.1,0.5,4.7,0.5c3.2,0,6.3-0.8,9.3-2.1c1.4-0.7,2.9-1.5,4.3-2.3c1.5-0.8,3-1.6,4.6-2.2
		s3.3-1.2,5-1.3c1.8-0.2,3.6,0.1,5.2,0.9c1.6,0.7,3,1.7,4.4,2.4c1.4,0.7,3,1.3,4.5,1.6c3.1,0.8,6.4,0.7,9.4-0.6
		c1.5-0.6,2.8-1.5,4-2.6s2.2-2.4,3-3.8c1.6-2.8,2.6-6,3.1-9.2s0.5-6.6-0.1-9.8c-0.6-3.2-1.8-6.4-3.4-9.2c-1.6-2.9-3.7-5.5-6.3-7.6
		c-2.6-2.1-5.5-3.7-8.2-5.6c2.8,1.8,5.7,3.4,8.3,5.5c2.6,2,4.8,4.7,6.5,7.5c1.7,2.9,3,6,3.6,9.3s0.7,6.7,0.3,10
		c-0.4,3.3-1.3,6.6-3,9.6c-0.8,1.5-1.8,2.9-3.1,4.1c-1.2,1.2-2.7,2.2-4.3,2.9c-3.2,1.4-6.8,1.6-10.1,0.9c-1.7-0.4-3.3-0.9-4.8-1.7
		c-1.6-0.7-2.9-1.7-4.4-2.3c-1.4-0.6-2.9-0.8-4.5-0.7c-1.5,0.2-3.1,0.7-4.5,1.3c-1.5,0.6-2.9,1.4-4.3,2.2c-1.4,0.8-2.8,1.7-4.4,2.5
		c-3.1,1.5-6.5,2.3-10,2.5c-1.7,0.1-3.5-0.1-5.2-0.4c-1.8-0.4-3.4-1-5-1.7c-3.2-1.5-5.9-3.9-8-6.6c-2.2-2.8-3.7-5.9-4.8-9.2
		c-1.1-3.3-1.7-6.7-1.9-10.1c-0.2-3.4,0-6.9,0.7-10.3L323.6,68.3z"/>
	<path class="st11" d="M311.5,60.7c0,0,2.9-5.3,11.6-2.8c8.7,2.6,2.5,14-5.5,15.3C309.5,74.6,311.5,60.7,311.5,60.7z"/>
	<path class="st14" d="M313.8,65.7c0.3-1.1,0.5-2.6,1.1-3.9c0.3-0.7,0.8-1.3,1.4-1.8s1.3-0.9,2-1.1c1.5-0.3,2.8,0,4,0.5
		c1.2,0.6,2.2,1.5,2.6,2.7c-0.6-1.1-1.8-1.7-2.9-2s-2.4-0.2-3.3,0.2s-1.5,1.3-1.7,2.3c-0.3,1-0.2,2.1-0.2,3.4l0,0
		c0,0.9-0.7,1.5-1.6,1.5c-0.8,0-1.5-0.7-1.5-1.6C313.8,65.9,313.8,65.8,313.8,65.7z"/>
	<path class="st8" d="M312,49.5c0.1,0.2,0.1,0.3,0.2,0.4c0.1,0.1,0.1,0.2,0.1,0.3c0.1,0.2,0.1,0.4,0.2,0.7c0.1,0.4,0.2,0.9,0.3,1.3
		c0.2,0.9,0.2,1.7,0.3,2.6c0.1,1.7-0.1,3.4-0.5,5.1c-0.4,1.6-1,3.2-1.9,4.5c-0.4,0.7-0.9,1.3-1.3,2c-0.5,0.6-1.1,1.2-1.6,1.7
		c0.3-0.7,0.7-1.4,1-2.1s0.5-1.4,0.7-2.1c0.4-1.4,0.5-2.9,0.4-4.3c0-1.4-0.3-2.8-0.8-4.1c-0.2-0.6-0.5-1.3-0.8-1.9
		c-0.2-0.3-0.3-0.6-0.5-0.9c-0.1-0.1-0.2-0.3-0.3-0.4c0-0.1-0.1-0.1-0.1-0.2c0-0.1-0.1-0.1-0.1-0.1L312,49.5z"/>
</g>
</svg>
