<svg width="35" height="35" viewBox="0 0 35 35" fill="none" xmlns="http://www.w3.org/2000/svg">
<path d="M29.8185 29.8258H24.6356V21.7044C24.6356 19.7677 24.5963 17.2754 21.9348 17.2754C19.2325 17.2754 18.8198 19.3827 18.8198 21.5615V29.8258H13.6369V13.125H18.6156V15.4015H18.6827C19.3783 14.089 21.07 12.7035 23.5973 12.7035C28.8488 12.7035 29.82 16.1598 29.82 20.6588L29.8185 29.8258ZM7.78312 10.8398C7.38774 10.84 6.99619 10.7622 6.6309 10.6109C6.26561 10.4596 5.93375 10.2377 5.6543 9.95801C5.37486 9.67829 5.15332 9.34621 5.00237 8.98077C4.85141 8.61534 4.77401 8.22372 4.77458 7.82833C4.77487 7.23301 4.95169 6.65114 5.28267 6.15631C5.61365 5.66148 6.08394 5.27591 6.63405 5.04836C7.18417 4.8208 7.78941 4.76149 8.37323 4.87791C8.95706 4.99434 9.49325 5.28127 9.91401 5.70243C10.3348 6.12359 10.6212 6.66006 10.737 7.244C10.8529 7.82794 10.793 8.43312 10.5649 8.98302C10.3368 9.53291 9.95079 10.0028 9.45564 10.3333C8.96049 10.6638 8.37845 10.8401 7.78312 10.8398ZM10.3819 29.8258H5.18438V13.125H10.3819V29.8258ZM32.4115 0H2.58271C1.155 0 0 1.12875 0 2.52146V32.4785C0 33.8727 1.155 35 2.58271 35H32.4071C33.8333 35 35 33.8727 35 32.4785V2.52146C35 1.12875 33.8333 0 32.4071 0H32.4115Z" fill="#9DBCDC"/>
</svg>
