<svg width="35" height="35" viewBox="0 0 35 35" fill="none" xmlns="http://www.w3.org/2000/svg">
<g clip-path="url(#clip0)">
<path d="M32.8124 32.6182C35.5629 29.7614 34.9999 26.7266 34.9999 17.507C34.9999 9.85079 36.3358 2.17561 29.3445 0.368732C27.1614 -0.192722 7.81808 -0.192726 5.63788 0.371647C2.72704 1.12269 0.358715 3.48373 0.0349655 7.60059C-0.0102425 8.17517 -0.0102463 26.8287 0.0364227 27.4149C0.380589 31.8001 3.07996 34.3274 6.63684 34.8393C7.45204 34.9574 7.61538 34.9924 11.7979 34.9997C26.6335 34.9924 29.8856 35.653 32.8124 32.6182Z" fill="#9DBCDC"/>
<path d="M17.5027 30.4221C22.7979 30.4221 27.8263 30.8931 29.7469 25.964C30.5402 23.9282 30.425 21.2842 30.425 17.4984C30.425 14.1763 30.5315 11.054 29.7469 9.03423C27.8306 4.10216 22.7615 4.57465 17.5057 4.57465C12.435 4.57465 7.20691 4.04674 5.26295 9.03423C4.46816 11.0905 4.58482 13.6951 4.58482 17.4984C4.58482 22.5471 4.30628 25.8065 6.75482 28.2536C9.23399 30.7327 12.5867 30.4221 17.5086 30.4221H17.5027ZM18.6607 28.0931C7.61524 28.1106 6.20941 29.3386 6.98524 12.2805C7.26087 6.24736 11.8546 6.90944 17.5013 6.90944C27.7971 6.90944 28.0931 7.20402 28.0931 17.5042C28.0931 27.924 27.2765 28.0873 18.6607 28.0961V28.0931ZM10.6048 25.9479C11.4609 25.9479 12.155 25.2538 12.155 24.3977C12.155 23.5417 11.4609 22.8475 10.6048 22.8475C9.74878 22.8475 9.05462 23.5417 9.05462 24.3977C9.05462 25.2538 9.74878 25.9479 10.6048 25.9479ZM17.5027 24.1352C21.1675 24.1352 24.1381 21.1632 24.1381 17.4984C24.1381 13.8336 21.1675 10.863 17.5027 10.863C13.8379 10.863 10.8688 13.8336 10.8688 17.4984C10.8688 21.1632 13.8379 24.1352 17.5027 24.1352ZM17.5027 21.8063C11.8079 21.8063 11.8007 13.1905 17.5027 13.1905C23.1961 13.1905 23.2048 21.8063 17.5027 21.8063Z" fill="white"/>
</g>
<defs>
<clipPath id="clip0">
<rect width="35" height="34.9999" fill="white" transform="translate(35 35) rotate(-180)"/>
</clipPath>
</defs>
</svg>
