<svg width="35" height="35" viewBox="0 0 35 35" fill="none" xmlns="http://www.w3.org/2000/svg">
<g clip-path="url(#clip0)">
<path d="M17.5008 34.9996C27.1657 34.9996 35.0007 27.1647 35.0007 17.4998C35.0007 7.83493 27.1657 0 17.5008 0C7.83594 0 0.0010004 7.83493 0.0010004 17.4998C0.0010004 27.1647 7.83594 34.9996 17.5008 34.9996Z" fill="#9DBCDC"/>
<path d="M28.2194 12.5768C27.4695 12.9093 26.6628 13.1342 25.8168 13.2347C26.6806 12.7172 27.3435 11.8983 27.6564 10.9209C26.8481 11.4004 25.9525 11.7482 25.0001 11.9357C24.2371 11.1231 23.1499 10.6152 21.9461 10.6152C19.6364 10.6152 17.7631 12.4885 17.7631 14.7982C17.7631 15.126 17.8003 15.4452 17.872 15.7515C14.3956 15.5771 11.3132 13.9119 9.25 11.3804C8.89001 11.9981 8.6835 12.7172 8.6835 13.4836C8.6835 14.9345 9.42251 16.2154 10.5443 16.9653C9.85893 16.9438 9.2135 16.7557 8.64981 16.4415C8.64949 16.4593 8.64949 16.4771 8.64949 16.4946C8.64949 18.5213 10.092 20.2118 12.0052 20.5958C11.6545 20.6919 11.2842 20.7427 10.9033 20.7427C10.6332 20.7427 10.3715 20.7168 10.1163 20.6682C10.6485 22.3296 12.1929 23.539 14.0238 23.573C12.5919 24.6951 10.7885 25.3636 8.82824 25.3636C8.49133 25.3636 8.15755 25.344 7.83093 25.305C9.68112 26.4923 11.8804 27.1845 14.2425 27.1845C21.9364 27.1845 26.144 20.8107 26.144 15.2826C26.144 15.1014 26.14 14.9208 26.1319 14.7417C26.9498 14.1521 27.6589 13.4156 28.2194 12.5768Z" fill="#F1F2F2"/>
</g>
<defs>
<clipPath id="clip0">
<rect width="35" height="34.9999" fill="white"/>
</clipPath>
</defs>
</svg>
