<svg width="700" height="480" viewBox="0 0 700 480" fill="none" xmlns="http://www.w3.org/2000/svg">
<circle cx="130" cy="137" r="8" fill="#296DB3"/>
<circle cx="685" cy="465" r="15" fill="#9DDCA0"/>
<circle cx="645" cy="9" r="9" fill="#F79B24"/>
<circle cx="16.3057" cy="371.336" r="6.6087" fill="#29B32F"/>
<path d="M1.24693 365.807C0.0295667 368.704 -0.265582 371.769 0.227182 374.663C0.649795 377.13 1.64046 379.473 3.1273 381.487C4.77669 383.748 7.03775 385.592 9.79757 386.752C14.7449 388.831 20.1687 388.222 24.4197 385.601C27.1581 383.912 29.4097 381.395 30.7503 378.205C33.1029 372.605 32.0207 366.402 28.4541 361.97C26.8475 359.959 24.7302 358.312 22.1954 357.247C14.0691 353.833 4.66462 357.673 1.24693 365.807ZM27.5354 362.519C30.9368 366.665 31.9899 372.517 29.7725 377.795C28.3215 381.248 25.708 383.879 22.5795 385.409C18.8333 387.239 14.3454 387.514 10.2082 385.776C8.11653 384.896 6.31744 383.59 4.89646 381.991C2.96049 379.84 1.69606 377.167 1.24351 374.329C0.820893 371.675 1.10749 368.877 2.22476 366.217C5.4166 358.621 14.194 355.035 21.7847 358.225C24.1014 359.198 26.0468 360.695 27.5354 362.519Z" fill="#29B32F"/>
</svg>
