<svg width="70" height="70" viewBox="0 0 70 70" fill="none" xmlns="http://www.w3.org/2000/svg">
<rect width="70" height="70" rx="10" fill="#D8E4F1"/>
<path fill-rule="evenodd" clip-rule="evenodd" d="M40.0237 39.6203C40.0237 37.1146 42.0623 35.0757 44.5684 35.0757C47.0744 35.0757 49.1133 37.1146 49.1133 39.6203C49.1133 42.1263 47.0744 44.1652 44.5684 44.1652C42.0623 44.1652 40.0237 42.1263 40.0237 39.6203Z" fill="white"/>
<path fill-rule="evenodd" clip-rule="evenodd" d="M44.5647 44.1646C48.9154 44.1646 52.4424 47.6915 52.4424 52.0423C52.4424 52.6282 51.9675 53.103 51.3816 53.103H37.7474C37.1615 53.103 36.6867 52.6282 36.6867 52.0423C36.6867 47.6915 40.2137 44.1646 44.5647 44.1646Z" fill="white"/>
<path fill-rule="evenodd" clip-rule="evenodd" d="M26.3906 35.0757C28.8966 35.0757 30.9355 37.1146 30.9355 39.6203C30.9355 42.1263 28.8966 44.1652 26.3906 44.1652C23.8846 44.1652 21.846 42.1263 21.846 39.6203C21.846 37.1146 23.8846 35.0757 26.3906 35.0757Z" fill="white"/>
<path fill-rule="evenodd" clip-rule="evenodd" d="M26.3867 44.1646C30.7374 44.1646 34.2646 47.6915 34.2646 52.0423C34.2646 52.6282 33.7895 53.103 33.2039 53.103H19.5697C18.9838 53.103 18.5089 52.6282 18.5089 52.0423C18.5089 47.6915 22.0359 44.1646 26.3867 44.1646Z" fill="white"/>
<path fill-rule="evenodd" clip-rule="evenodd" d="M26.3843 32.6534C24.5465 32.6534 23.0512 31.1581 23.0512 29.3203V20.2308C23.0512 18.3736 24.5581 16.8977 26.3843 16.8977H44.5631C46.4217 16.8977 47.8965 18.4057 47.8965 20.2308V29.3203C47.8965 31.1581 46.4012 32.6534 44.5631 32.6534H39.2436L36.4224 38.2955C36.2429 38.6549 35.8755 38.882 35.4738 38.882C35.0719 38.882 34.7048 38.6549 34.525 38.2955L31.704 32.6534H26.3843Z" fill="white"/>
</svg>
