<svg width="70" height="70" viewBox="0 0 70 70" fill="none" xmlns="http://www.w3.org/2000/svg">
<rect width="70" height="70" rx="10" fill="#D8E4F1"/>
<path d="M43.2305 44.476V45.5367C43.2305 46.9509 42.297 48.1384 41.0186 48.5516C40.5908 51.0498 38.4236 53.1033 35.8053 53.1033C33.1869 53.1033 31.0198 51.0498 30.5919 48.5516C29.3135 48.1384 28.3801 46.9509 28.3801 45.5367V44.476H43.2305Z" fill="white"/>
<path d="M38.5392 17.1825C43.3271 18.1821 47.2262 22.0688 48.2414 26.8546C49.1042 30.9266 48.0393 35.0142 45.3212 38.0701C44.2223 39.3067 43.5519 40.7992 43.332 42.3545H28.2755C28.0481 40.8066 27.3581 39.2904 26.2278 38.0007C24.1954 35.6834 23.0059 32.7083 23.0059 29.6255C23.0059 21.5511 30.4825 15.4864 38.5392 17.1825ZM28.3804 30.6863C28.9667 30.6863 29.4411 30.2119 29.4411 29.6256C29.4411 26.116 32.297 23.2611 35.8066 23.2611C36.3929 23.2611 36.8674 22.7867 36.8674 22.2004C36.8674 21.6141 36.3929 21.1396 35.8066 21.1396C31.1265 21.1396 27.3196 24.9465 27.3196 29.6256C27.3196 30.2119 27.794 30.6863 28.3804 30.6863Z" fill="white"/>
<path d="M50.726 29.6256H52.8475C53.4338 29.6256 53.9082 30.1 53.9082 30.6864C53.9082 31.2727 53.4338 31.7471 52.8475 31.7471H50.726C50.1397 31.7471 49.6652 31.2727 49.6652 30.6864C49.6652 30.1 50.1397 29.6256 50.726 29.6256Z" fill="white"/>
<path d="M50.286 24.3219L51.786 22.8219C52.2004 22.4075 52.8716 22.4075 53.2859 22.8219C53.7003 23.2362 53.7003 23.9075 53.2859 24.3219L51.786 25.8218C51.3716 26.2362 50.7003 26.2362 50.286 25.8218C49.8717 25.4075 49.8717 24.7362 50.286 24.3219Z" fill="white"/>
<path d="M50.286 35.5509C50.7003 35.1366 51.3716 35.1365 51.786 35.5509L53.2859 37.0508C53.7003 37.4652 53.7003 38.1365 53.2859 38.5508C52.8716 38.9651 52.2003 38.9651 51.786 38.5508L50.286 37.0508C49.8717 36.6365 49.8717 35.9652 50.286 35.5509Z" fill="white"/>
<path d="M18.7621 29.6256H20.8836C21.4699 29.6256 21.9443 30.1 21.9443 30.6864C21.9443 31.2727 21.4699 31.7471 20.8836 31.7471H18.7621C18.1758 31.7471 17.7014 31.2727 17.7014 30.6864C17.7014 30.1 18.1758 29.6256 18.7621 29.6256Z" fill="white"/>
<path d="M18.3231 22.822C18.7374 22.4076 19.4088 22.4076 19.8231 22.822L21.323 24.3219C21.7374 24.7363 21.7374 25.4076 21.323 25.8219C20.9087 26.2362 20.2375 26.2362 19.8231 25.8219L18.3231 24.3219C17.9088 23.9076 17.9088 23.2363 18.3231 22.822Z" fill="white"/>
<path d="M18.3231 37.0508L19.8231 35.5509C20.2374 35.1365 20.9087 35.1365 21.323 35.5509C21.7374 35.9652 21.7374 36.6365 21.323 37.0508L19.8231 38.5508C19.4088 38.9651 18.7374 38.9651 18.3231 38.5508C17.9088 38.1365 17.9088 37.4651 18.3231 37.0508Z" fill="white"/>
</svg>
