<svg width="779" height="460" viewBox="0 0 779 460" fill="none" xmlns="http://www.w3.org/2000/svg">
<rect width="100" height="100" rx="5" fill="#9DBCDC"/>
<path d="M61.1518 60.488L53.5677 36.968H46.7038L39.1678 60.392L32.9278 36.968H25.9198L35.3758 71H42.2878L50.0638 46.76L57.8398 71H64.6558L74.0638 36.968H67.2958L61.1518 60.488Z" fill="#D8E4F1"/>
<rect y="120" width="100" height="100" rx="5" fill="#9DBCDC"/>
<rect y="240" width="100" height="100" rx="5" fill="#9DBCDC"/>
<rect x="120" width="100" height="100" rx="5" fill="#9DBCDC"/>
<path d="M180.156 71H187.356L174.396 36.968H166.716L153.66 71H160.668L163.5 63.224H177.324L180.156 71ZM170.412 44.312L175.116 57.176H165.708L170.412 44.312Z" fill="#D8E4F1"/>
<rect x="120" y="120" width="100" height="100" rx="5" fill="#9DBCDC"/>
<rect x="120" y="240" width="100" height="100" rx="5" fill="#9DBCDC"/>
<rect x="240" width="100" height="100" rx="5" fill="#9DBCDC"/>
<rect x="240" y="120" width="100" height="100" rx="5" fill="#9DBCDC"/>
<rect x="240" y="240" width="100" height="100" rx="5" fill="#9DBCDC"/>
<rect x="360" width="100" height="100" rx="5" fill="#9DBCDC"/>
<rect x="480" width="100" height="100" rx="5" fill="#9DBCDC"/>
<rect x="600" width="100" height="100" rx="5" fill="#9DBCDC"/>
<rect x="360" y="120" width="100" height="100" rx="5" fill="#9DBCDC"/>
<rect x="480" y="120" width="100" height="100" rx="5" fill="#9DBCDC"/>
<rect x="600" y="120" width="100" height="100" rx="5" fill="#9DBCDC"/>
<rect x="360" y="240" width="100" height="100" rx="5" fill="#9DBCDC"/>
<rect x="480" y="240" width="100" height="100" rx="5" fill="#9DBCDC"/>
<rect x="600" y="240" width="100" height="100" rx="5" fill="#9DBCDC"/>
<rect y="360" width="100" height="100" rx="5" fill="#9DBCDC"/>
<rect x="120" y="360" width="100" height="100" rx="5" fill="#9DBCDC"/>
<rect x="240" y="360" width="100" height="100" rx="5" fill="#9DBCDC"/>
<path d="M301.8 401.08C301.032 397.24 297.864 392.248 289.608 392.248C283.176 392.248 277.752 396.856 277.752 402.904C277.752 408.04 281.256 411.544 286.68 412.648L291.432 413.608C294.072 414.136 295.56 415.672 295.56 417.64C295.56 420.04 293.592 421.816 290.04 421.816C285.24 421.816 282.888 418.792 282.6 415.432L276.456 417.064C276.984 421.912 280.968 427.72 289.992 427.72C297.912 427.72 302.28 422.44 302.28 417.208C302.28 412.408 298.968 408.376 292.776 407.176L288.024 406.264C285.528 405.784 284.328 404.296 284.328 402.424C284.328 400.168 286.44 398.104 289.656 398.104C293.976 398.104 295.512 401.032 295.848 402.904L301.8 401.08Z" fill="#D8E4F1"/>
<rect x="360" y="360" width="100" height="100" rx="5" fill="#9DBCDC"/>
<path d="M406.005 408.472V398.728H411.237C414.549 398.728 416.565 400.6 416.565 403.624C416.565 406.552 414.549 408.472 411.237 408.472H406.005ZM412.053 414.184C418.773 414.184 423.237 409.768 423.237 403.576C423.237 397.432 418.773 392.968 412.053 392.968H399.333V427H405.957V414.184H412.053Z" fill="#D8E4F1"/>
<rect x="480" y="360" width="100" height="100" rx="5" fill="#9DBCDC"/>
<rect x="600" y="360" width="100" height="100" rx="5" fill="#9DBCDC"/>
<rect x="720" width="100" height="100" rx="5" fill="#9DBCDC"/>
<rect x="720" y="120" width="100" height="100" rx="5" fill="#9DBCDC"/>
<rect x="720" y="240" width="100" height="100" rx="5" fill="#9DBCDC"/>
<rect x="720" y="360" width="100" height="100" rx="5" fill="#9DBCDC"/>
<path d="M304.085 43.256V36.968H275.909V43.256H286.661V71H293.333V43.256H304.085Z" fill="#D8E4F1"/>
<path d="M293.866 310V275.968H287.146V310H293.866Z" fill="#D8E4F1"/>
<path d="M411.468 71.72C421.02 71.72 425.916 65.384 427.212 60.152L421.02 58.28C420.108 61.448 417.276 65.24 411.468 65.24C405.996 65.24 400.908 61.256 400.908 54.008C400.908 46.28 406.284 42.632 411.372 42.632C417.276 42.632 419.916 46.232 420.732 49.496L426.972 47.528C425.628 42.008 420.78 36.248 411.372 36.248C402.252 36.248 394.044 43.16 394.044 54.008C394.044 64.856 401.964 71.72 411.468 71.72Z" fill="#D8E4F1"/>
<path d="M539.156 426H546.356L533.396 391.968H525.716L512.66 426H519.668L522.5 418.224H536.324L539.156 426ZM529.412 399.312L534.116 412.176H524.708L529.412 399.312Z" fill="#D8E4F1"/>
<path d="M305.063 187V152.968H298.391V166.648H283.559V152.968H276.935V187H283.559V172.888H298.391V187H305.063Z" fill="#D8E4F1"/>
<path d="M647.468 426.72C657.02 426.72 661.916 420.384 663.212 415.152L657.02 413.28C656.108 416.448 653.276 420.24 647.468 420.24C641.996 420.24 636.908 416.256 636.908 409.008C636.908 401.28 642.284 397.632 647.372 397.632C653.276 397.632 655.916 401.232 656.732 404.496L662.972 402.528C661.628 397.008 656.78 391.248 647.372 391.248C638.252 391.248 630.044 398.16 630.044 409.008C630.044 419.856 637.964 426.72 647.468 426.72Z" fill="#D8E4F1"/>
<path d="M544.063 71V36.968H537.391V50.648H522.559V36.968H515.935V71H522.559V56.888H537.391V71H544.063Z" fill="#D8E4F1"/>
<path d="M781.231 427V420.76H766.543V412.888H779.839V406.984H766.543V399.208H781.231V392.968H759.919V427H781.231Z" fill="#D8E4F1"/>
<g opacity="0.4">
<path d="M50.0001 170C56.3451 170 61.9508 164.025 62.5001 156.68C62.7729 152.99 61.6155 149.549 59.2405 146.993C56.8907 144.467 53.6059 143.077 50.0001 143.077C46.3655 143.077 43.0782 144.459 40.7453 146.969C38.3859 149.506 37.2357 152.954 37.5001 156.678C38.0398 164.024 43.6444 170 50.0001 170Z" fill="#D8E4F1"/>
<path d="M74.9255 192.086C73.9111 186.459 70.744 181.732 65.7681 178.414C61.3486 175.469 55.7488 173.846 50 173.846C44.2512 173.846 38.6515 175.469 34.232 178.413C29.2561 181.731 26.089 186.458 25.0746 192.085C24.8426 193.375 25.1575 194.65 25.9388 195.584C26.2931 196.009 26.738 196.351 27.2411 196.582C27.7441 196.814 28.2925 196.93 28.8462 196.923H71.1539C71.7079 196.931 72.2567 196.815 72.7602 196.583C73.2636 196.352 73.709 196.011 74.0637 195.585C74.8426 194.651 75.1575 193.376 74.9255 192.086Z" fill="#D8E4F1"/>
</g>
<g opacity="0.4">
<path d="M50.0001 289.923C56.3451 289.923 61.9508 283.948 62.5001 276.603C62.7729 272.913 61.6155 269.472 59.2405 266.916C56.8907 264.391 53.6059 263 50.0001 263C46.3655 263 43.0782 264.382 40.7453 266.892C38.3859 269.429 37.2357 272.877 37.5001 276.601C38.0398 283.947 43.6444 289.923 50.0001 289.923Z" fill="#D8E4F1"/>
<path d="M74.9255 312.01C73.9111 306.382 70.744 301.655 65.7681 298.338C61.3486 295.392 55.7488 293.769 50 293.769C44.2512 293.769 38.6515 295.392 34.232 298.336C29.2561 301.654 26.089 306.381 25.0746 312.008C24.8426 313.298 25.1575 314.573 25.9388 315.507C26.2931 315.933 26.738 316.274 27.2411 316.505C27.7441 316.737 28.2925 316.853 28.8462 316.846H71.1539C71.7079 316.854 72.2567 316.738 72.7602 316.506C73.2636 316.275 73.709 315.934 74.0637 315.508C74.8426 314.574 75.1575 313.299 74.9255 312.01Z" fill="#D8E4F1"/>
</g>
<g opacity="0.4">
<path d="M50.0001 409.923C56.3451 409.923 61.9508 403.948 62.5001 396.603C62.7729 392.913 61.6155 389.472 59.2405 386.916C56.8907 384.391 53.6059 383 50.0001 383C46.3655 383 43.0782 384.382 40.7453 386.892C38.3859 389.429 37.2357 392.877 37.5001 396.601C38.0398 403.947 43.6444 409.923 50.0001 409.923Z" fill="#D8E4F1"/>
<path d="M74.9255 432.01C73.9111 426.382 70.744 421.655 65.7681 418.338C61.3486 415.392 55.7488 413.769 50 413.769C44.2512 413.769 38.6515 415.392 34.232 418.336C29.2561 421.654 26.089 426.381 25.0746 432.008C24.8426 433.298 25.1575 434.573 25.9388 435.507C26.2931 435.933 26.738 436.274 27.2411 436.505C27.7441 436.737 28.2925 436.853 28.8462 436.846H71.1539C71.7079 436.854 72.2567 436.738 72.7602 436.506C73.2636 436.275 73.709 435.934 74.0637 435.508C74.8426 434.574 75.1575 433.299 74.9255 432.01Z" fill="#D8E4F1"/>
</g>
<g opacity="0.4">
<path d="M170 170C176.345 170 181.951 164.025 182.5 156.68C182.773 152.99 181.615 149.549 179.24 146.993C176.891 144.467 173.606 143.077 170 143.077C166.366 143.077 163.078 144.459 160.745 146.969C158.386 149.506 157.236 152.954 157.5 156.678C158.04 164.024 163.644 170 170 170Z" fill="#D8E4F1"/>
<path d="M194.925 192.086C193.911 186.459 190.744 181.732 185.768 178.414C181.349 175.469 175.749 173.846 170 173.846C164.251 173.846 158.651 175.469 154.232 178.413C149.256 181.731 146.089 186.458 145.075 192.085C144.843 193.375 145.158 194.65 145.939 195.584C146.293 196.009 146.738 196.351 147.241 196.582C147.744 196.814 148.292 196.93 148.846 196.923H191.154C191.708 196.931 192.257 196.815 192.76 196.583C193.264 196.352 193.709 196.011 194.064 195.585C194.843 194.651 195.157 193.376 194.925 192.086Z" fill="#D8E4F1"/>
</g>
<g opacity="0.4">
<path d="M410 170C416.345 170 421.951 164.025 422.5 156.68C422.773 152.99 421.615 149.549 419.24 146.993C416.891 144.467 413.606 143.077 410 143.077C406.366 143.077 403.078 144.459 400.745 146.969C398.386 149.506 397.236 152.954 397.5 156.678C398.04 164.024 403.644 170 410 170Z" fill="#D8E4F1"/>
<path d="M434.925 192.086C433.911 186.459 430.744 181.732 425.768 178.414C421.349 175.469 415.749 173.846 410 173.846C404.251 173.846 398.651 175.469 394.232 178.413C389.256 181.731 386.089 186.458 385.075 192.085C384.843 193.375 385.158 194.65 385.939 195.584C386.293 196.009 386.738 196.351 387.241 196.582C387.744 196.814 388.292 196.93 388.846 196.923H431.154C431.708 196.931 432.257 196.815 432.76 196.583C433.264 196.352 433.709 196.011 434.064 195.585C434.843 194.651 435.157 193.376 434.925 192.086Z" fill="#D8E4F1"/>
</g>
<g opacity="0.4">
<path d="M530 170C536.345 170 541.951 164.025 542.5 156.68C542.773 152.99 541.615 149.549 539.24 146.993C536.891 144.467 533.606 143.077 530 143.077C526.366 143.077 523.078 144.459 520.745 146.969C518.386 149.506 517.236 152.954 517.5 156.678C518.04 164.024 523.644 170 530 170Z" fill="#D8E4F1"/>
<path d="M554.925 192.086C553.911 186.459 550.744 181.732 545.768 178.414C541.349 175.469 535.749 173.846 530 173.846C524.251 173.846 518.651 175.469 514.232 178.413C509.256 181.731 506.089 186.458 505.075 192.085C504.843 193.375 505.158 194.65 505.939 195.584C506.293 196.009 506.738 196.351 507.241 196.582C507.744 196.814 508.292 196.93 508.846 196.923H551.154C551.708 196.931 552.257 196.815 552.76 196.583C553.264 196.352 553.709 196.011 554.064 195.585C554.843 194.651 555.157 193.376 554.925 192.086Z" fill="#D8E4F1"/>
</g>
<g opacity="0.4">
<path d="M650 170C656.345 170 661.951 164.025 662.5 156.68C662.773 152.99 661.615 149.549 659.24 146.993C656.891 144.467 653.606 143.077 650 143.077C646.366 143.077 643.078 144.459 640.745 146.969C638.386 149.506 637.236 152.954 637.5 156.678C638.04 164.024 643.644 170 650 170Z" fill="#D8E4F1"/>
<path d="M674.925 192.086C673.911 186.459 670.744 181.732 665.768 178.414C661.349 175.469 655.749 173.846 650 173.846C644.251 173.846 638.651 175.469 634.232 178.413C629.256 181.731 626.089 186.458 625.075 192.085C624.843 193.375 625.158 194.65 625.939 195.584C626.293 196.009 626.738 196.351 627.241 196.582C627.744 196.814 628.292 196.93 628.846 196.923H671.154C671.708 196.931 672.257 196.815 672.76 196.583C673.264 196.352 673.709 196.011 674.064 195.585C674.843 194.651 675.157 193.376 674.925 192.086Z" fill="#D8E4F1"/>
</g>
<g opacity="0.4">
<path d="M650 49.923C656.345 49.923 661.951 43.9483 662.5 36.6034C662.773 32.9135 661.615 29.4723 659.24 26.9159C656.891 24.3906 653.606 23 650 23C646.366 23 643.078 24.3822 640.745 26.8918C638.386 29.4291 637.236 32.8774 637.5 36.6009C638.04 43.9471 643.644 49.923 650 49.923Z" fill="#D8E4F1"/>
<path d="M674.925 72.0095C673.911 66.3821 670.744 61.655 665.768 58.3377C661.349 55.3918 655.749 53.7692 650 53.7692C644.251 53.7692 638.651 55.3918 634.232 58.3365C629.256 61.6538 626.089 66.3809 625.075 72.0083C624.843 73.298 625.158 74.5732 625.939 75.5071C626.293 75.9327 626.738 76.2738 627.241 76.5054C627.744 76.7371 628.292 76.8535 628.846 76.8461H671.154C671.708 76.854 672.257 76.7379 672.76 76.5065C673.264 76.275 673.709 75.934 674.064 75.5083C674.843 74.5744 675.157 73.2992 674.925 72.0095Z" fill="#D8E4F1"/>
</g>
<g opacity="0.4">
<path d="M769 170C775.345 170 780.951 164.025 781.5 156.68C781.773 152.99 780.615 149.549 778.24 146.993C775.891 144.467 772.606 143.077 769 143.077C765.366 143.077 762.078 144.459 759.745 146.969C757.386 149.506 756.236 152.954 756.5 156.678C757.04 164.024 762.644 170 769 170Z" fill="#D8E4F1"/>
<path d="M793.925 192.086C792.911 186.459 789.744 181.732 784.768 178.414C780.349 175.469 774.749 173.846 769 173.846C763.251 173.846 757.651 175.469 753.232 178.413C748.256 181.731 745.089 186.458 744.075 192.085C743.843 193.375 744.158 194.65 744.939 195.584C745.293 196.009 745.738 196.351 746.241 196.582C746.744 196.814 747.292 196.93 747.846 196.923H790.154C790.708 196.931 791.257 196.815 791.76 196.583C792.264 196.352 792.709 196.011 793.064 195.585C793.843 194.651 794.157 193.376 793.925 192.086Z" fill="#D8E4F1"/>
</g>
<g opacity="0.4">
<path d="M769 49.923C775.345 49.923 780.951 43.9483 781.5 36.6034C781.773 32.9135 780.615 29.4723 778.24 26.9159C775.891 24.3906 772.606 23 769 23C765.366 23 762.078 24.3822 759.745 26.8918C757.386 29.4291 756.236 32.8774 756.5 36.6009C757.04 43.9471 762.644 49.923 769 49.923Z" fill="#D8E4F1"/>
<path d="M793.925 72.0095C792.911 66.3821 789.744 61.655 784.768 58.3377C780.349 55.3918 774.749 53.7692 769 53.7692C763.251 53.7692 757.651 55.3918 753.232 58.3365C748.256 61.6538 745.089 66.3809 744.075 72.0083C743.843 73.298 744.158 74.5732 744.939 75.5071C745.293 75.9327 745.738 76.2738 746.241 76.5054C746.744 76.7371 747.292 76.8535 747.846 76.8461H790.154C790.708 76.854 791.257 76.7379 791.76 76.5065C792.264 76.275 792.709 75.934 793.064 75.5083C793.843 74.5744 794.157 73.2992 793.925 72.0095Z" fill="#D8E4F1"/>
</g>
<g opacity="0.4">
<path d="M170 289.923C176.345 289.923 181.951 283.948 182.5 276.603C182.773 272.913 181.615 269.472 179.24 266.916C176.891 264.391 173.606 263 170 263C166.366 263 163.078 264.382 160.745 266.892C158.386 269.429 157.236 272.877 157.5 276.601C158.04 283.947 163.644 289.923 170 289.923Z" fill="#D8E4F1"/>
<path d="M194.925 312.01C193.911 306.382 190.744 301.655 185.768 298.338C181.349 295.392 175.749 293.769 170 293.769C164.251 293.769 158.651 295.392 154.232 298.336C149.256 301.654 146.089 306.381 145.075 312.008C144.843 313.298 145.158 314.573 145.939 315.507C146.293 315.933 146.738 316.274 147.241 316.505C147.744 316.737 148.292 316.853 148.846 316.846H191.154C191.708 316.854 192.257 316.738 192.76 316.506C193.264 316.275 193.709 315.934 194.064 315.508C194.843 314.574 195.157 313.299 194.925 312.01Z" fill="#D8E4F1"/>
</g>
<g opacity="0.4">
<path d="M410 289.923C416.345 289.923 421.951 283.948 422.5 276.603C422.773 272.913 421.615 269.472 419.24 266.916C416.891 264.391 413.606 263 410 263C406.366 263 403.078 264.382 400.745 266.892C398.386 269.429 397.236 272.877 397.5 276.601C398.04 283.947 403.644 289.923 410 289.923Z" fill="#D8E4F1"/>
<path d="M434.925 312.01C433.911 306.382 430.744 301.655 425.768 298.338C421.349 295.392 415.749 293.769 410 293.769C404.251 293.769 398.651 295.392 394.232 298.336C389.256 301.654 386.089 306.381 385.075 312.008C384.843 313.298 385.158 314.573 385.939 315.507C386.293 315.933 386.738 316.274 387.241 316.505C387.744 316.737 388.292 316.853 388.846 316.846H431.154C431.708 316.854 432.257 316.738 432.76 316.506C433.264 316.275 433.709 315.934 434.064 315.508C434.843 314.574 435.157 313.299 434.925 312.01Z" fill="#D8E4F1"/>
</g>
<g opacity="0.4">
<path d="M530 289.923C536.345 289.923 541.951 283.948 542.5 276.603C542.773 272.913 541.615 269.472 539.24 266.916C536.891 264.391 533.606 263 530 263C526.366 263 523.078 264.382 520.745 266.892C518.386 269.429 517.236 272.877 517.5 276.601C518.04 283.947 523.644 289.923 530 289.923Z" fill="#D8E4F1"/>
<path d="M554.925 312.01C553.911 306.382 550.744 301.655 545.768 298.338C541.349 295.392 535.749 293.769 530 293.769C524.251 293.769 518.651 295.392 514.232 298.336C509.256 301.654 506.089 306.381 505.075 312.008C504.843 313.298 505.158 314.573 505.939 315.507C506.293 315.933 506.738 316.274 507.241 316.505C507.744 316.737 508.292 316.853 508.846 316.846H551.154C551.708 316.854 552.257 316.738 552.76 316.506C553.264 316.275 553.709 315.934 554.064 315.508C554.843 314.574 555.157 313.299 554.925 312.01Z" fill="#D8E4F1"/>
</g>
<g opacity="0.4">
<path d="M650 289.923C656.345 289.923 661.951 283.948 662.5 276.603C662.773 272.913 661.615 269.472 659.24 266.916C656.891 264.391 653.606 263 650 263C646.366 263 643.078 264.382 640.745 266.892C638.386 269.429 637.236 272.877 637.5 276.601C638.04 283.947 643.644 289.923 650 289.923Z" fill="#D8E4F1"/>
<path d="M674.925 312.01C673.911 306.382 670.744 301.655 665.768 298.338C661.349 295.392 655.749 293.769 650 293.769C644.251 293.769 638.651 295.392 634.232 298.336C629.256 301.654 626.089 306.381 625.075 312.008C624.843 313.298 625.158 314.573 625.939 315.507C626.293 315.933 626.738 316.274 627.241 316.505C627.744 316.737 628.292 316.853 628.846 316.846H671.154C671.708 316.854 672.257 316.738 672.76 316.506C673.264 316.275 673.709 315.934 674.064 315.508C674.843 314.574 675.157 313.299 674.925 312.01Z" fill="#D8E4F1"/>
</g>
<g opacity="0.4">
<path d="M769 289.923C775.345 289.923 780.951 283.948 781.5 276.603C781.773 272.913 780.615 269.472 778.24 266.916C775.891 264.391 772.606 263 769 263C765.366 263 762.078 264.382 759.745 266.892C757.386 269.429 756.236 272.877 756.5 276.601C757.04 283.947 762.644 289.923 769 289.923Z" fill="#D8E4F1"/>
<path d="M793.925 312.01C792.911 306.382 789.744 301.655 784.768 298.338C780.349 295.392 774.749 293.769 769 293.769C763.251 293.769 757.651 295.392 753.232 298.336C748.256 301.654 745.089 306.381 744.075 312.008C743.843 313.298 744.158 314.573 744.939 315.507C745.293 315.933 745.738 316.274 746.241 316.505C746.744 316.737 747.292 316.853 747.846 316.846H790.154C790.708 316.854 791.257 316.738 791.76 316.506C792.264 316.275 792.709 315.934 793.064 315.508C793.843 314.574 794.157 313.299 793.925 312.01Z" fill="#D8E4F1"/>
</g>
<g opacity="0.4">
<path d="M170 409.923C176.345 409.923 181.951 403.948 182.5 396.603C182.773 392.913 181.615 389.472 179.24 386.916C176.891 384.391 173.606 383 170 383C166.366 383 163.078 384.382 160.745 386.892C158.386 389.429 157.236 392.877 157.5 396.601C158.04 403.947 163.644 409.923 170 409.923Z" fill="#D8E4F1"/>
<path d="M194.925 432.01C193.911 426.382 190.744 421.655 185.768 418.338C181.349 415.392 175.749 413.769 170 413.769C164.251 413.769 158.651 415.392 154.232 418.336C149.256 421.654 146.089 426.381 145.075 432.008C144.843 433.298 145.158 434.573 145.939 435.507C146.293 435.933 146.738 436.274 147.241 436.505C147.744 436.737 148.292 436.853 148.846 436.846H191.154C191.708 436.854 192.257 436.738 192.76 436.506C193.264 436.275 193.709 435.934 194.064 435.508C194.843 434.574 195.157 433.299 194.925 432.01Z" fill="#D8E4F1"/>
</g>
</svg>
