<svg width="617" height="460" viewBox="0 0 617 460" fill="none" xmlns="http://www.w3.org/2000/svg">
<rect width="100" height="100" rx="5" fill="#A7AFDD"/>
<path d="M61.1518 55.488L53.5677 31.968H46.7038L39.1678 55.392L32.9278 31.968H25.9198L35.3758 66H42.2878L50.0638 41.76L57.8398 66H64.6558L74.0638 31.968H67.2958L61.1518 55.488Z" fill="#454545"/>
<rect y="120" width="100" height="100" rx="5" fill="#9DDCA0"/>
<rect y="240" width="100" height="100" rx="5" fill="#FB8CAD"/>
<rect x="120" width="100" height="100" rx="5" fill="#FBCB8C"/>
<rect x="120" y="120" width="100" height="100" rx="5" fill="#D0A48E"/>
<rect x="120" y="240" width="100" height="100" rx="5" fill="#9C8CFB"/>
<rect x="240" width="100" height="100" rx="5" fill="#9DDCA0"/>
<rect x="240" y="120" width="100" height="100" rx="5" fill="#A7AFDD"/>
<rect x="240" y="240" width="100" height="100" rx="5" fill="#E5CCC0"/>
<rect x="360" width="100" height="100" rx="5" fill="#D099D5"/>
<rect x="480" width="100" height="100" rx="5" fill="#9DDCA0"/>
<rect x="600" width="100" height="100" rx="5" fill="#FBCB8C"/>
<rect x="360" y="120" width="100" height="100" rx="5" fill="#F2EAA0"/>
<rect x="480" y="120" width="100" height="100" rx="5" fill="#E69E9E"/>
<rect x="600" y="120" width="100" height="100" rx="5" fill="#F2EAA0"/>
<rect x="360" y="240" width="100" height="100" rx="5" fill="#DDDDDD"/>
<rect x="480" y="240" width="100" height="100" rx="5" fill="#FBCB8C"/>
<rect x="600" y="240" width="100" height="100" rx="5" fill="#DDDDDD"/>
<rect y="360" width="100" height="100" rx="5" fill="#FBCB8C"/>
<rect x="120" y="360" width="100" height="100" rx="5" fill="#FBA78C"/>
<rect x="240" y="360" width="100" height="100" rx="5" fill="#CA8CFB"/>
<rect x="360" y="360" width="100" height="100" rx="5" fill="#9DBCDC"/>
<rect x="480" y="360" width="100" height="100" rx="5" fill="#DDDDDD"/>
<rect x="600" y="360" width="100" height="100" rx="5" fill="#FBCB8C"/>
<path d="M159.877 49.96C159.877 42.28 165.253 38.632 170.485 38.632C175.765 38.632 181.141 42.28 181.141 49.96C181.141 57.64 175.765 61.288 170.485 61.288C165.253 61.288 159.877 57.64 159.877 49.96ZM153.013 50.008C153.013 60.952 161.269 67.72 170.485 67.72C179.749 67.72 188.005 60.952 188.005 50.008C188.005 39.016 179.749 32.248 170.485 32.248C161.269 32.248 153.013 39.016 153.013 50.008Z" fill="#454545"/>
<path d="M295.688 67H303.08L295.784 53.08C300.248 51.784 303.032 48.184 303.032 43.432C303.032 37.528 298.808 32.968 292.184 32.968H278.888V67H285.56V53.896H289.016L295.688 67ZM285.56 48.184V38.728H290.936C294.296 38.728 296.264 40.6 296.264 43.48C296.264 46.264 294.296 48.184 290.936 48.184H285.56Z" fill="#454545"/>
<path d="M417.866 67H426.17L412.586 47.8L426.074 32.968H417.386L403.754 48.376V32.968H397.13V67H403.754V57.544L407.978 52.888L417.866 67Z" fill="#454545"/>
<path d="M424.085 159.256V152.968H395.909V159.256H406.661V187H413.333V159.256H424.085Z" fill="#454545"/>
<path d="M409.967 307.768C417.263 307.768 423.071 303.304 423.071 294.952V272.968H416.447V294.472C416.447 298.936 413.999 301.288 409.967 301.288C406.031 301.288 403.535 298.936 403.535 294.472V272.968H396.911V294.952C396.911 303.304 402.719 307.768 409.967 307.768Z" fill="#454545"/>
<path d="M544.063 187V152.968H537.391V166.648H522.559V152.968H515.935V187H522.559V172.888H537.391V187H544.063Z" fill="#454545"/>
<path d="M541.8 281.08C541.032 277.24 537.864 272.248 529.608 272.248C523.176 272.248 517.752 276.856 517.752 282.904C517.752 288.04 521.256 291.544 526.68 292.648L531.432 293.608C534.072 294.136 535.56 295.672 535.56 297.64C535.56 300.04 533.592 301.816 530.04 301.816C525.24 301.816 522.888 298.792 522.6 295.432L516.456 297.064C516.984 301.912 520.968 307.72 529.992 307.72C537.912 307.72 542.28 302.44 542.28 297.208C542.28 292.408 538.968 288.376 532.776 287.176L528.024 286.264C525.528 285.784 524.328 284.296 524.328 282.424C524.328 280.168 526.44 278.104 529.656 278.104C533.976 278.104 535.512 281.032 535.848 282.904L541.8 281.08Z" fill="#454545"/>
<path d="M293.866 187V152.968H287.146V187H293.866Z" fill="#454545"/>
<path d="M181.152 176.488L173.568 152.968H166.704L159.168 176.392L152.928 152.968H145.92L155.376 187H162.288L170.064 162.76L177.84 187H184.656L194.064 152.968H187.296L181.152 176.488Z" fill="#454545"/>
<g opacity="0.4">
<path d="M50.0001 169.923C56.3451 169.923 61.9508 163.948 62.5001 156.603C62.7729 152.913 61.6155 149.472 59.2405 146.916C56.8907 144.391 53.6059 143 50.0001 143C46.3655 143 43.0782 144.382 40.7453 146.892C38.3859 149.429 37.2357 152.877 37.5001 156.601C38.0398 163.947 43.6444 169.923 50.0001 169.923Z" fill="white"/>
<path d="M74.9255 192.01C73.9111 186.382 70.744 181.655 65.7681 178.338C61.3486 175.392 55.7488 173.769 50 173.769C44.2512 173.769 38.6515 175.392 34.232 178.337C29.2561 181.654 26.089 186.381 25.0746 192.008C24.8426 193.298 25.1575 194.573 25.9388 195.507C26.2931 195.933 26.738 196.274 27.2411 196.506C27.7441 196.737 28.2925 196.854 28.8462 196.846H71.1539C71.7079 196.854 72.2567 196.738 72.7602 196.507C73.2636 196.275 73.709 195.934 74.0637 195.508C74.8426 194.575 75.1575 193.299 74.9255 192.01Z" fill="white"/>
</g>
<g opacity="0.4">
<path d="M50.0001 289.923C56.3451 289.923 61.9508 283.948 62.5001 276.603C62.7729 272.913 61.6155 269.472 59.2405 266.916C56.8907 264.391 53.6059 263 50.0001 263C46.3655 263 43.0782 264.382 40.7453 266.892C38.3859 269.429 37.2357 272.877 37.5001 276.601C38.0398 283.947 43.6444 289.923 50.0001 289.923Z" fill="white"/>
<path d="M74.9255 312.01C73.9111 306.382 70.744 301.655 65.7681 298.338C61.3486 295.392 55.7488 293.769 50 293.769C44.2512 293.769 38.6515 295.392 34.232 298.337C29.2561 301.654 26.089 306.381 25.0746 312.008C24.8426 313.298 25.1575 314.573 25.9388 315.507C26.2931 315.933 26.738 316.274 27.2411 316.506C27.7441 316.737 28.2925 316.854 28.8462 316.846H71.1539C71.7079 316.854 72.2567 316.738 72.7602 316.507C73.2636 316.275 73.709 315.934 74.0637 315.508C74.8426 314.575 75.1575 313.299 74.9255 312.01Z" fill="white"/>
</g>
<g opacity="0.4">
<path d="M170 289.923C176.345 289.923 181.951 283.948 182.5 276.603C182.773 272.913 181.615 269.472 179.24 266.916C176.891 264.391 173.606 263 170 263C166.366 263 163.078 264.382 160.745 266.892C158.386 269.429 157.236 272.877 157.5 276.601C158.04 283.947 163.644 289.923 170 289.923Z" fill="white"/>
<path d="M194.925 312.01C193.911 306.382 190.744 301.655 185.768 298.338C181.349 295.392 175.749 293.769 170 293.769C164.251 293.769 158.651 295.392 154.232 298.337C149.256 301.654 146.089 306.381 145.075 312.008C144.843 313.298 145.158 314.573 145.939 315.507C146.293 315.933 146.738 316.274 147.241 316.506C147.744 316.737 148.292 316.854 148.846 316.846H191.154C191.708 316.854 192.257 316.738 192.76 316.507C193.264 316.275 193.709 315.934 194.064 315.508C194.843 314.575 195.157 313.299 194.925 312.01Z" fill="white"/>
</g>
<g opacity="0.4">
<path d="M290 289.923C296.345 289.923 301.951 283.948 302.5 276.603C302.773 272.913 301.615 269.472 299.24 266.916C296.891 264.391 293.606 263 290 263C286.366 263 283.078 264.382 280.745 266.892C278.386 269.429 277.236 272.877 277.5 276.601C278.04 283.947 283.644 289.923 290 289.923Z" fill="white"/>
<path d="M314.925 312.01C313.911 306.382 310.744 301.655 305.768 298.338C301.349 295.392 295.749 293.769 290 293.769C284.251 293.769 278.651 295.392 274.232 298.337C269.256 301.654 266.089 306.381 265.075 312.008C264.843 313.298 265.158 314.573 265.939 315.507C266.293 315.933 266.738 316.274 267.241 316.506C267.744 316.737 268.292 316.854 268.846 316.846H311.154C311.708 316.854 312.257 316.738 312.76 316.507C313.264 316.275 313.709 315.934 314.064 315.508C314.843 314.575 315.157 313.299 314.925 312.01Z" fill="white"/>
</g>
<g opacity="0.4">
<path d="M50.0001 409.923C56.3451 409.923 61.9508 403.948 62.5001 396.603C62.7729 392.913 61.6155 389.472 59.2405 386.916C56.8907 384.391 53.6059 383 50.0001 383C46.3655 383 43.0782 384.382 40.7453 386.892C38.3859 389.429 37.2357 392.877 37.5001 396.601C38.0398 403.947 43.6444 409.923 50.0001 409.923Z" fill="white"/>
<path d="M74.9255 432.01C73.9111 426.382 70.744 421.655 65.7681 418.338C61.3486 415.392 55.7488 413.769 50 413.769C44.2512 413.769 38.6515 415.392 34.232 418.337C29.2561 421.654 26.089 426.381 25.0746 432.008C24.8426 433.298 25.1575 434.573 25.9388 435.507C26.2931 435.933 26.738 436.274 27.2411 436.506C27.7441 436.737 28.2925 436.854 28.8462 436.846H71.1539C71.7079 436.854 72.2567 436.738 72.7602 436.507C73.2636 436.275 73.709 435.934 74.0637 435.508C74.8426 434.575 75.1575 433.299 74.9255 432.01Z" fill="white"/>
</g>
<g opacity="0.4">
<path d="M170 409.923C176.345 409.923 181.951 403.948 182.5 396.603C182.773 392.913 181.615 389.472 179.24 386.916C176.891 384.391 173.606 383 170 383C166.366 383 163.078 384.382 160.745 386.892C158.386 389.429 157.236 392.877 157.5 396.601C158.04 403.947 163.644 409.923 170 409.923Z" fill="white"/>
<path d="M194.925 432.01C193.911 426.382 190.744 421.655 185.768 418.338C181.349 415.392 175.749 413.769 170 413.769C164.251 413.769 158.651 415.392 154.232 418.337C149.256 421.654 146.089 426.381 145.075 432.008C144.843 433.298 145.158 434.573 145.939 435.507C146.293 435.933 146.738 436.274 147.241 436.506C147.744 436.737 148.292 436.854 148.846 436.846H191.154C191.708 436.854 192.257 436.738 192.76 436.507C193.264 436.275 193.709 435.934 194.064 435.508C194.843 434.575 195.157 433.299 194.925 432.01Z" fill="white"/>
</g>
<g opacity="0.4">
<path d="M410 409.923C416.345 409.923 421.951 403.948 422.5 396.603C422.773 392.913 421.615 389.472 419.24 386.916C416.891 384.391 413.606 383 410 383C406.366 383 403.078 384.382 400.745 386.892C398.386 389.429 397.236 392.877 397.5 396.601C398.04 403.947 403.644 409.923 410 409.923Z" fill="white"/>
<path d="M434.925 432.01C433.911 426.382 430.744 421.655 425.768 418.338C421.349 415.392 415.749 413.769 410 413.769C404.251 413.769 398.651 415.392 394.232 418.337C389.256 421.654 386.089 426.381 385.075 432.008C384.843 433.298 385.158 434.573 385.939 435.507C386.293 435.933 386.738 436.274 387.241 436.506C387.744 436.737 388.292 436.854 388.846 436.846H431.154C431.708 436.854 432.257 436.738 432.76 436.507C433.264 436.275 433.709 435.934 434.064 435.508C434.843 434.575 435.157 433.299 434.925 432.01Z" fill="white"/>
</g>
<g opacity="0.4">
<path d="M290 409.923C296.345 409.923 301.951 403.948 302.5 396.603C302.773 392.913 301.615 389.472 299.24 386.916C296.891 384.391 293.606 383 290 383C286.366 383 283.078 384.382 280.745 386.892C278.386 389.429 277.236 392.877 277.5 396.601C278.04 403.947 283.644 409.923 290 409.923Z" fill="white"/>
<path d="M314.925 432.01C313.911 426.382 310.744 421.655 305.768 418.338C301.349 415.392 295.749 413.769 290 413.769C284.251 413.769 278.651 415.392 274.232 418.337C269.256 421.654 266.089 426.381 265.075 432.008C264.843 433.298 265.158 434.573 265.939 435.507C266.293 435.933 266.738 436.274 267.241 436.506C267.744 436.737 268.292 436.854 268.846 436.846H311.154C311.708 436.854 312.257 436.738 312.76 436.507C313.264 436.275 313.709 435.934 314.064 435.508C314.843 434.575 315.157 433.299 314.925 432.01Z" fill="white"/>
</g>
<g opacity="0.4">
<path d="M530 409.923C536.345 409.923 541.951 403.948 542.5 396.603C542.773 392.913 541.615 389.472 539.24 386.916C536.891 384.391 533.606 383 530 383C526.366 383 523.078 384.382 520.745 386.892C518.386 389.429 517.236 392.877 517.5 396.601C518.04 403.947 523.644 409.923 530 409.923Z" fill="white"/>
<path d="M554.925 432.01C553.911 426.382 550.744 421.655 545.768 418.338C541.349 415.392 535.749 413.769 530 413.769C524.251 413.769 518.651 415.392 514.232 418.337C509.256 421.654 506.089 426.381 505.075 432.008C504.843 433.298 505.158 434.573 505.939 435.507C506.293 435.933 506.738 436.274 507.241 436.506C507.744 436.737 508.292 436.854 508.846 436.846H551.154C551.708 436.854 552.257 436.738 552.76 436.507C553.264 436.275 553.709 435.934 554.064 435.508C554.843 434.575 555.157 433.299 554.925 432.01Z" fill="white"/>
</g>
<g opacity="0.4">
<path d="M530 48.923C536.345 48.923 541.951 42.9483 542.5 35.6034C542.773 31.9135 541.615 28.4723 539.24 25.9159C536.891 23.3906 533.606 22 530 22C526.366 22 523.078 23.3822 520.745 25.8918C518.386 28.4291 517.236 31.8774 517.5 35.6009C518.04 42.9471 523.644 48.923 530 48.923Z" fill="white"/>
<path d="M554.925 71.0097C553.911 65.3823 550.744 60.6551 545.768 57.3378C541.349 54.3919 535.749 52.7693 530 52.7693C524.251 52.7693 518.651 54.3919 514.232 57.3366C509.256 60.6539 506.089 65.3811 505.075 71.0085C504.843 72.2981 505.158 73.5734 505.939 74.5072C506.293 74.9328 506.738 75.2739 507.241 75.5056C507.744 75.7372 508.292 75.8536 508.846 75.8462H551.154C551.708 75.8541 552.257 75.7381 552.76 75.5066C553.264 75.2752 553.709 74.9341 554.064 74.5084C554.843 73.5746 555.157 72.2993 554.925 71.0097Z" fill="white"/>
</g>
</svg>
