<svg width="207" height="95" viewBox="0 0 207 95" fill="none" xmlns="http://www.w3.org/2000/svg">
<rect width="207" height="95" fill="white"/>
<path fill-rule="evenodd" clip-rule="evenodd" d="M49.13 83.3927H50.0849L52.3328 89.5929L54.7398 83.3927H55.7444L56.918 90.7443L56.0228 90.8919L55.0779 84.6032H55.0581L52.7505 90.7443H51.8653L49.7169 84.6032H49.687L48.6725 90.8919L47.7773 90.7443L49.13 83.3927ZM60.4191 83.3927H64.2385V84.1604H61.3342L61.3044 86.6601H64.1391V87.4179H61.3242L61.2944 89.9767H64.2783V90.7443H60.3495L60.4191 83.3927ZM69.0327 86.8963H69.9577C70.8727 86.8963 71.8176 86.5814 71.8176 85.5087C71.8176 84.7213 71.37 84.0324 70.1665 84.0324H69.0525V86.8963H69.0327ZM68.1275 83.3927H70.3655C71.7679 83.3927 72.7227 84.1013 72.7227 85.361C72.7682 86.4302 71.9421 87.3395 70.8628 87.4081C71.3601 87.5065 71.7778 88.1659 72.0862 88.5398L73.5781 90.5081L72.7625 91.0002L71.012 88.6382C70.5544 88.0576 70.3356 87.6541 69.6294 87.6541H69.0426V90.7935H68.1076L68.1673 83.4419L68.1275 83.3927ZM81.6247 84.5639C81.0612 84.181 80.3882 83.9877 79.7051 84.0127C78.0674 84.1047 76.7871 85.4455 76.7871 87.0685C76.7871 88.6915 78.0674 90.0323 79.7051 90.1243C80.3803 90.0976 81.0375 89.9012 81.6148 89.5535L81.9828 90.203C81.2951 90.6206 80.5112 90.8577 79.7051 90.8919C78.649 90.9688 77.6101 90.5954 76.85 89.8659C76.0899 89.1364 75.6811 88.1202 75.7265 87.0734C75.7089 86.0347 76.1264 85.035 76.8801 84.3117C77.6337 83.5884 78.6563 83.2059 79.7051 83.255C80.5131 83.2498 81.3084 83.4534 82.0126 83.8454L81.6247 84.5639ZM85.3446 83.3927H86.2796L86.2498 86.6601H90.2482L90.2979 83.3927H91.2329L91.1632 90.7443H90.2283L90.2581 87.4179H86.2597L86.2199 90.7443H85.285L85.3446 83.3927ZM97.6284 84.2194L96.3851 87.536H98.8219L97.6482 84.2194H97.6284ZM97.2106 83.3927H98.066L101.05 90.5869L100.125 90.8821L99.1302 88.2938H96.0767L94.9926 90.8821L94.0875 90.6262L97.2007 83.3927H97.2106ZM104.272 83.5797L105.038 83.2451L109.156 89.1992H109.176L109.216 83.3927H110.151L110.081 90.5967L109.276 90.8919L105.207 84.8788H105.178L105.138 90.7443H104.203L104.272 83.5797ZM113.334 83.3927H118.963V84.1604H116.606L116.546 90.7443H115.621L115.681 84.1604H113.334V83.3927ZM128.273 86.5617H128.969C130.193 86.5617 130.69 86.0401 130.69 85.302C130.69 84.5639 130.213 84.0423 129.039 84.0423H128.303V86.5715L128.273 86.5617ZM128.273 90.0456H129.357C130.302 90.0456 130.899 89.6322 130.899 88.6186C130.899 87.6049 130.252 87.2604 129.178 87.2604H128.313V90.0456H128.273ZM127.408 83.4026H129.467C131.098 83.4026 131.655 84.3867 131.655 85.1839C131.712 85.9993 131.151 86.7308 130.342 86.8963C131.231 87.0226 131.874 87.8004 131.824 88.6875C131.824 89.9964 130.879 90.7246 129.417 90.7246H127.338L127.398 83.3731L127.408 83.4026ZM137.782 84.2194L136.538 87.536H138.975L137.802 84.2194H137.782ZM137.364 83.3927H138.239L141.223 90.5869L140.298 90.8821L139.303 88.2938H136.23L135.146 90.8821L134.291 90.6164L137.404 83.3829L137.364 83.3927ZM144.167 83.5797L144.943 83.2451L149.051 89.1992H149.081L149.121 83.3927H150.055L149.986 90.5967L149.18 90.8919L145.102 84.8788H145.082L145.043 90.7443H144.108L144.167 83.5797ZM154.939 87.0046L158.629 83.2451L159.276 83.8061L156.093 86.9849L159.306 90.2916L158.609 90.8919L154.949 87.0046H154.939ZM154.044 83.3927H154.969L154.909 90.7443H153.984L154.044 83.3927Z" fill="#AAAAAA"/>
<path fill-rule="evenodd" clip-rule="evenodd" d="M12.3458 71.4603C10.1176 71.5703 7.94554 70.7428 6.35956 69.1798C4.77357 67.6168 3.91958 65.4619 4.00597 63.2411C4.00597 58.1908 7.67392 54.3783 12.5347 54.3783C14.496 54.2851 16.4388 54.7932 18.1012 55.834C18.2934 55.9812 18.513 56.0889 18.7474 56.1509C18.7907 56.1345 18.831 56.1111 18.8666 56.0816C18.9878 55.982 19.1373 55.9231 19.2941 55.9132C19.7314 55.9132 19.7414 56.2598 19.811 57.7056V57.973C19.811 58.2997 19.811 58.5869 19.8706 58.8444C19.9203 59.4682 19.9501 59.8346 19.7712 60.0426C19.6937 60.1233 19.585 60.1666 19.473 60.1614C19.1251 60.1614 18.9561 59.7455 18.8269 59.4484C18.8064 59.3977 18.7832 59.3481 18.7573 59.2999C17.1669 56.5569 15.4571 55.4478 12.8826 55.4478C8.76735 55.4478 6.41151 58.0225 6.41151 62.5182C6.41151 66.4001 8.65801 70.3215 12.9522 70.3215C16.5108 70.3215 18.6877 68.0538 18.9959 67.1031C19.0554 66.8618 19.264 66.686 19.5128 66.6674C19.6346 66.6746 19.7479 66.7321 19.8253 66.8261C19.9027 66.9202 19.9372 67.0421 19.9203 67.1626L19.4034 69.4798C19.4034 69.4798 17.982 71.4603 12.3458 71.4603ZM33.5782 71.4603C28.6081 71.4603 25.288 68.0043 25.288 62.8549C25.2624 60.5687 26.1757 58.3714 27.8163 56.7726C29.4568 55.1738 31.682 54.3124 33.9758 54.3882C36.233 54.3515 38.4156 55.1935 40.0592 56.7351C41.6713 58.3188 42.5621 60.4909 42.5244 62.746C42.5145 67.9548 38.926 71.4603 33.5782 71.4603ZM33.28 55.5468C30.4371 55.5468 27.3854 57.6264 27.3854 62.1816C27.3854 67.4893 31.0733 70.3611 34.5523 70.3611C38.0314 70.3611 40.4071 67.5884 40.4071 63.6174C40.4071 59.6465 37.7531 55.5567 33.28 55.5567V55.5468ZM71.4903 76.2829C67.6505 76.012 64.0164 74.4515 61.1823 71.8564C59.8696 70.6225 58.7144 69.2323 57.7429 67.7171C56.8682 66.3902 55.9736 64.9642 55.8046 64.6968L55.576 64.3205C55.1585 63.6372 55.1088 63.5679 54.0054 63.558H52.1168C51.8484 63.558 51.7688 63.6174 51.749 63.6372C51.7291 63.657 51.749 63.7759 51.749 63.8848V68.8361C51.749 69.8858 52.5144 70.0541 53.1903 70.2027C53.6674 70.3017 54.1843 70.4106 54.1843 70.876C54.1905 70.9829 54.1508 71.0873 54.075 71.1632C53.9572 71.2561 53.8058 71.2956 53.6575 71.2721H53.3394C53.0213 71.2721 52.3454 71.1929 50.9239 71.1929C50.4965 71.1929 50.0492 71.1929 49.6218 71.1929C49.1943 71.1929 48.747 71.1929 48.2798 71.1929C48.1603 71.193 48.0459 71.1444 47.9633 71.0584C47.8807 70.9723 47.837 70.8564 47.8424 70.7374C47.8424 70.3908 48.1605 70.2621 48.4786 70.1333C49.1312 69.9963 49.5815 69.3997 49.5323 68.7371V57.1213C49.5323 55.9033 48.9259 55.7944 48.3395 55.6855C47.9816 55.6161 47.5442 55.5369 47.5442 55.0715C47.5442 54.8338 47.7927 54.5863 48.2102 54.5863C48.3293 54.5762 48.449 54.5762 48.5681 54.5863C48.9399 54.6399 49.3159 54.6598 49.6913 54.6457C50.3474 54.6457 51.0034 54.6457 51.6794 54.6457H51.7688C52.405 54.6457 53.6575 54.6457 54.2638 54.6457H54.4925C56.9577 54.5367 58.2896 55.2794 58.9656 55.9231C59.7306 56.6948 60.1346 57.7513 60.0789 58.8345C60.0097 60.6212 58.915 62.2089 57.2658 62.9143C58.061 64.1522 60.3175 67.6379 61.0033 68.5192C61.6633 69.4053 62.4019 70.2305 63.2101 70.985C65.3403 73.1237 68.0242 74.632 70.9635 75.3421H71.1026C71.8382 75.5402 72.0966 75.6194 72.1662 75.8769C72.1831 75.9796 72.154 76.0845 72.0867 76.164C71.9227 76.3054 71.6962 76.3505 71.4903 76.2829ZM51.7291 62.2608C52.4243 62.4105 53.1387 62.4506 53.8464 62.3796H54.8404C55.6624 62.4325 56.4664 62.1239 57.0401 61.5351C57.6139 60.9464 57.8998 60.1367 57.8225 59.3197C57.8225 56.1212 54.8404 55.7746 53.6177 55.7746H52.6237C52.2758 55.7746 51.9975 55.7746 51.8682 55.9132C51.7612 56.0623 51.715 56.2464 51.739 56.4281L51.7291 62.2608ZM76.4306 71.4603C71.4605 71.4603 68.1404 68.0043 68.1404 62.8549C68.1147 60.5687 69.0281 58.3714 70.6687 56.7726C72.3092 55.1738 74.5344 54.3124 76.8282 54.3882C79.0854 54.3515 81.268 55.1935 82.9116 56.7351C84.5237 58.3188 85.4145 60.4909 85.3768 62.746C85.3768 67.9548 81.7784 71.4603 76.4306 71.4603ZM76.1324 55.5468C73.2895 55.5468 70.2378 57.6264 70.2378 62.1816C70.2378 67.4893 73.9356 70.3611 77.4047 70.3611C80.8739 70.3611 83.2794 67.5884 83.2794 63.6075C83.2794 59.6267 80.6055 55.5567 76.1324 55.5567V55.5468ZM105.476 71.391C105.208 71.391 104.919 71.1929 104.482 70.678L94.4523 59.4682C94.385 59.381 94.3119 59.2983 94.2336 59.2207C94.2283 59.3097 94.2283 59.399 94.2336 59.488V68.9054C94.2336 70.0739 94.8797 70.173 95.5159 70.2819C95.8538 70.3314 96.2713 70.4007 96.2713 70.7968C96.2889 70.9267 96.2483 71.0576 96.1602 71.1549C96.0721 71.2522 95.9455 71.3059 95.8141 71.3018C95.5755 71.3018 95.317 71.3018 95.0387 71.3018C94.7604 71.3018 94.1441 71.2424 93.4781 71.2424C92.8121 71.2424 92.1958 71.2424 91.7584 71.3118H91.341C91.2099 71.333 91.0763 71.2938 90.9777 71.2053C90.8791 71.1167 90.8262 70.9883 90.834 70.8562C90.834 70.4403 91.2018 70.3215 91.5099 70.2423C92.0865 70.0739 92.8717 69.8363 92.8717 67.8458V59.3296C92.8717 56.1212 91.5895 55.8043 90.8241 55.6161C90.4563 55.527 90.0785 55.428 90.0785 55.022C90.0785 54.616 90.4364 54.5863 90.6352 54.5863C90.7915 54.591 90.9475 54.6043 91.1024 54.6259C91.4314 54.6813 91.7674 54.6813 92.0964 54.6259C92.2851 54.6134 92.4743 54.6134 92.663 54.6259C92.9612 54.6259 93.1799 54.9031 93.329 55.1111L93.4185 55.2299L104.492 67.4002V57.9234C104.492 56.0717 103.498 55.834 102.752 55.6458C102.345 55.5468 101.927 55.4379 101.927 55.0319C101.924 54.9119 101.972 54.7962 102.059 54.7132C102.146 54.6303 102.264 54.5878 102.385 54.5962C102.723 54.5962 103.051 54.5962 103.379 54.5962C103.707 54.5962 104.104 54.5962 104.462 54.5962C104.82 54.5962 105.347 54.5962 105.774 54.5467C106.162 54.5467 106.51 54.5467 106.768 54.5467C106.883 54.5382 106.996 54.5786 107.08 54.6579C107.163 54.7371 107.209 54.8478 107.206 54.9626C107.206 55.3191 106.917 55.4478 106.649 55.5567C106.096 55.7146 105.747 56.2576 105.834 56.8243V70.2027C105.893 70.8661 105.893 71.391 105.476 71.391ZM115.704 71.3018H115.476C115.138 71.3018 114.78 71.3018 114.482 71.3018C114.184 71.3018 113.836 71.3018 113.488 71.3018C113.14 71.3018 112.852 71.3018 112.563 71.3018C112.275 71.3018 111.947 71.3018 111.639 71.3018C111.521 71.3024 111.408 71.2532 111.329 71.1664C111.249 71.0796 111.21 70.9633 111.221 70.8463C111.221 70.5096 111.52 70.4106 111.778 70.3314C112.304 70.2129 112.736 69.8418 112.931 69.3411L118.508 57.5967L119.313 55.8637C119.989 54.3981 120.068 54.21 120.426 54.21C120.784 54.21 120.923 54.6358 121.062 55.0715V55.2002L125.863 67.0833C125.953 67.3111 126.042 67.5389 126.132 67.7765C126.352 68.4374 126.645 69.0717 127.007 69.6679C127.308 70.0777 127.779 70.3291 128.289 70.3512C128.657 70.4106 129.074 70.4799 129.074 70.9057C129.074 71.3316 128.686 71.3217 128.547 71.3217C128.05 71.3217 127.553 71.3217 127.116 71.3217C126.341 71.2753 125.565 71.2753 124.79 71.3217C124.492 71.3217 124.164 71.3217 123.796 71.3217C123.428 71.3217 123.08 71.1731 123.08 70.8859C123.08 70.5988 123.478 70.3611 123.796 70.2522C124.114 70.1432 124.472 70.0046 124.472 69.6877C124.376 69.1264 124.205 68.5802 123.965 68.0637C123.895 67.8954 123.836 67.7369 123.786 67.6082L123.04 65.697C122.822 65.1919 122.722 64.9741 122.225 64.9741H117.136C116.669 64.9741 116.4 64.9741 116.231 65.3405L114.81 68.4895C114.723 68.7209 114.676 68.9653 114.671 69.2124C114.671 70.0442 115.128 70.1234 115.615 70.2027C115.923 70.2621 116.311 70.3314 116.311 70.7275C116.322 70.8809 116.268 71.032 116.162 71.1434C116.037 71.2552 115.872 71.3122 115.704 71.3018ZM117.196 63.4788H117.355H121.917C121.993 63.4888 122.07 63.4888 122.146 63.4788C122.134 63.4247 122.117 63.3717 122.096 63.3204L119.84 57.7848L117.225 63.3798C117.211 63.4149 117.201 63.4514 117.196 63.4887V63.4788ZM141.529 71.3018C141.271 71.3018 141.002 71.3018 140.724 71.3018H140.664C140.326 71.3018 139.998 71.3018 139.67 71.3018C137.563 71.3018 136.897 71.3613 136.688 71.3811H136.549C136.221 71.3811 136.062 71.2127 136.062 70.876C136.062 70.5394 136.42 70.3908 136.808 70.2522C137.195 70.1135 137.891 69.866 137.891 69.1728V56.7747C137.891 56.1212 137.831 56.0221 137.831 56.0221H134.044C132.891 56.0221 132.782 56.3687 132.444 57.4085L132.315 57.8343C132.265 58.0324 132.166 58.4087 131.758 58.4087C131.506 58.3878 131.314 58.175 131.32 57.9234L131.579 55.5666C131.579 55.2497 131.639 54.5764 132.195 54.5764C132.991 54.5764 133.766 54.5764 134.651 54.5764C135.724 54.5764 137.056 54.6358 138.756 54.6358C141.867 54.6358 143.865 54.5863 144.829 54.5566H145.525C146.161 54.5566 146.37 54.7645 146.4 55.4181L146.519 57.26C146.566 57.4614 146.526 57.6731 146.41 57.8442C146.32 57.9389 146.193 57.9896 146.062 57.9829C145.555 57.9829 145.515 57.5075 145.485 57.1609C145.485 56.5866 145.386 55.9924 144.104 55.9924H140.595C140.433 55.9678 140.269 55.9678 140.108 55.9924C140.081 56.1796 140.081 56.3697 140.108 56.5569C140.108 56.6559 140.108 56.7648 140.108 56.8837V68.8658C140.108 69.8561 140.674 70.0343 141.221 70.1531C141.559 70.2324 141.986 70.3215 141.986 70.7572C142.002 70.8891 141.962 71.0215 141.877 71.1236C141.799 71.2382 141.668 71.3054 141.529 71.3018ZM158.129 71.2226H157.344H157.235C156.768 71.2226 156.241 71.1632 155.615 71.1632C154.621 71.1632 154.143 71.1632 153.805 71.2325H153.398C153.08 71.2325 152.712 71.1731 152.712 70.678C152.712 70.1829 153.08 70.1928 153.378 70.1135C153.885 69.9848 154.521 69.8165 154.521 68.4895V56.6955C154.521 55.7746 153.855 55.6062 153.338 55.4775C153 55.3983 152.652 55.3092 152.652 54.9626C152.652 54.616 152.782 54.507 153.09 54.507C153.398 54.507 154.004 54.507 154.372 54.507C155.143 54.5507 155.917 54.5507 156.688 54.507C157.026 54.507 157.404 54.507 157.782 54.507C158.159 54.507 158.428 54.507 158.428 54.9428C158.428 55.3785 158.09 55.3884 157.782 55.4676C157.285 55.6062 156.788 55.7449 156.788 56.6856V69.0639C156.788 69.8462 157.364 69.9848 157.97 70.1333C158.378 70.2324 158.845 70.3512 158.845 70.7869C158.845 71.2226 158.368 71.2226 158.129 71.2226ZM172.473 71.4603C167.503 71.4603 164.183 68.0043 164.183 62.8549C164.157 60.5687 165.071 58.3714 166.711 56.7726C168.352 55.1738 170.577 54.3124 172.871 54.3882C175.128 54.3515 177.311 55.1935 178.954 56.7351C180.566 58.3188 181.457 60.4909 181.419 62.746C181.419 67.9548 177.821 71.4603 172.473 71.4603ZM172.175 55.5468C169.332 55.5468 166.28 57.6264 166.28 62.1816C166.28 67.4893 169.968 70.3611 173.447 70.3611C176.926 70.3611 179.322 67.5884 179.322 63.6075C179.322 59.6267 176.648 55.5567 172.175 55.5567V55.5468ZM201.28 71.391C201.012 71.391 200.723 71.1929 200.286 70.678L190.256 59.4682C190.189 59.3811 190.116 59.2985 190.038 59.2207C190.032 59.3097 190.032 59.399 190.038 59.488V68.9054C190.038 70.0739 190.684 70.173 191.32 70.2819C191.658 70.3314 192.075 70.4007 192.075 70.7968C192.093 70.9267 192.052 71.0576 191.964 71.1549C191.876 71.2522 191.75 71.3059 191.618 71.3018C191.38 71.3018 191.121 71.3018 190.843 71.3018C190.564 71.3018 189.948 71.2424 189.282 71.2424C188.616 71.2424 188 71.2424 187.553 71.3118H187.105C186.975 71.3293 186.843 71.2888 186.746 71.201C186.648 71.1133 186.594 70.9872 186.598 70.8562C186.598 70.4403 186.976 70.3215 187.274 70.2423C187.851 70.0739 188.636 69.8363 188.636 67.8458V59.3296C188.636 56.1212 187.354 55.8043 186.588 55.6161C186.221 55.527 185.843 55.428 185.843 55.022C185.843 54.616 186.191 54.5863 186.39 54.5863C186.578 54.5741 186.767 54.5741 186.956 54.5863C187.285 54.6428 187.621 54.6428 187.95 54.5863C188.139 54.5742 188.328 54.5742 188.517 54.5863C188.815 54.5863 189.034 54.8635 189.183 55.0715L189.272 55.1903L200.286 67.4002V57.9234C200.286 56.0717 199.292 55.834 198.546 55.6458C198.139 55.5468 197.721 55.4379 197.721 55.0319C197.718 54.9119 197.766 54.7962 197.853 54.7132C197.94 54.6303 198.059 54.5878 198.179 54.5962C198.527 54.5962 198.855 54.5962 199.173 54.5962C199.491 54.5962 199.888 54.5962 200.256 54.5962C200.624 54.5962 201.141 54.5962 201.568 54.5467C201.976 54.5467 202.304 54.5467 202.562 54.5467C202.677 54.5382 202.79 54.5786 202.874 54.6579C202.957 54.7371 203.003 54.8478 203 54.9626C203 55.3191 202.711 55.4478 202.453 55.5567C201.9 55.7146 201.551 56.2576 201.638 56.8243V70.2027C201.688 70.8661 201.688 71.391 201.28 71.391Z" fill="#133252"/>
<path d="M111.247 18.3559C111.247 19.1898 111.813 19.9742 113.353 19.4182C114.287 19.0806 115.538 20.1628 116.184 19.7061C116.512 19.4778 115.052 18.7133 114.386 18.0283C113.72 17.3432 114.783 17.7106 114.058 17.1149C113.333 16.5192 111.257 18.3559 111.257 18.3559H111.247ZM108.197 21.2052C107.555 20.3329 106.573 19.7737 105.495 19.6664C105.296 19.6664 105.048 19.7458 105.236 20.0337C105.542 20.5246 105.873 20.9985 106.23 21.4534C107.328 22.6331 107.289 24.472 106.14 25.6033C103.23 28.8498 110.949 32.3544 112.21 32.9004C115.946 34.5187 117.813 35.164 119.373 36.544C121.648 38.5296 122.075 41.1804 121.29 42.3221C121.161 42.5107 120.923 42.7093 120.198 42.4511C115.152 40.6607 109.845 39.718 104.491 39.6614C97.6288 39.4866 90.7828 40.4151 84.2151 42.4114C83.1522 42.7391 83.0627 41.5775 83.7681 41.1307C85.4271 40.1379 86.3113 39.9294 87.2849 38.7182C87.6516 38.4221 87.8474 37.9635 87.8076 37.494C87.7678 37.0246 87.4975 36.6054 87.0862 36.3752C85.5066 35.5313 84.2648 37.0205 83.182 37.8644C83.4787 36.3643 84.133 34.9578 85.0894 33.7641C84.3045 33.1585 83.1025 33.8336 81.0461 35.1838C81.4732 32.2054 84.7913 30.1504 86.6491 30.4978C85.5626 29.3433 83.9712 28.807 82.4071 29.0682C80.8217 29.8504 79.6339 31.2569 79.1287 32.95C79.1287 32.95 77.6982 29.098 82.4567 28.9788C83.5264 27.4117 85.2527 26.4175 87.1458 26.2784C86.9074 25.8317 85.1589 24.1936 81.6521 26.6061C81.6521 26.6061 83.0727 23.9751 84.4436 23.4986C84.1357 23.3993 82.8939 23.1114 82.3773 22.9724C80.2414 23.5284 79.2281 24.958 78.1551 26.6656C77.5094 23.6872 79.5261 22.1782 82.3673 22.7738C83.9072 21.2648 85.8642 21.1357 87.9107 21.3442C87.1198 20.2068 85.8641 19.4793 84.4834 19.3586C82.2596 18.9433 79.9777 19.6922 78.4333 21.3442C78.4333 21.0364 79.7447 15.447 84.99 18.7729C85.5861 18.6339 87.9008 18.346 88.3677 17.9389C87.6425 16.9461 84.0065 16.4497 83.6588 16.4398C84.8073 15.9172 86.0252 15.5628 87.2749 15.3874C88.7881 15.2629 90.2906 15.7291 91.4672 16.688C91.4672 16.688 90.6328 13.8982 88.318 13.4812C85.8103 13.1794 83.3025 14.0428 81.513 15.8242C81.513 15.8242 81.97 9.65896 88.2286 13.382C89.7782 12.8246 91.4855 12.9031 92.9773 13.6004C92.8382 12.27 91.1394 11.0985 90.6427 10.7312C88.0697 10.4929 85.606 10.8503 84.8509 11.724C87.5531 8.41796 89.0631 9.2817 90.9209 10.4333C92.8647 9.96821 94.9131 10.2667 96.6431 11.2673C96.1762 9.74831 94.8648 8.02084 90.3248 8.18962C94.2986 6.482 97.3683 7.32588 99.2658 9.80788C100.15 10.9496 99.4446 5.39985 94.2489 6.482C94.1197 6.482 94.2489 6.482 94.2489 6.482C97.0116 5.41741 100.145 6.15885 102.137 8.34846C102.206 8.43782 102.246 8.41796 102.246 8.29882C102.246 7.64358 102.355 5.46934 97.9345 4.7446C97.8749 4.7446 97.8749 4.6751 98.0538 4.64532C103.12 3.99007 104.362 8.05062 104.481 7.76271C105.505 4.4964 100.984 4 101.859 4C106.488 4 106.121 7.82228 106.488 7.43509C107.71 5.37999 104.601 4.03971 105.495 4.16878C106.388 4.22259 107.208 4.68452 107.716 5.42123C108.224 6.15794 108.365 7.08743 108.097 7.94142C109.776 6.83941 108.187 5.21122 108.703 5.4892C110.879 6.83941 109.041 8.72573 109.786 8.38818C111.237 6.78977 112.608 7.91163 112.33 8.03077C111.633 8.33159 111.113 8.93547 110.919 9.66889C112.618 8.24918 114.247 9.90716 113.82 9.9568C113.182 9.99021 112.628 10.4063 112.419 11.0092C113.919 9.72846 115.32 11.8928 114.843 11.7935C113.849 11.585 113.641 12.6969 113.641 12.6969C114.157 12.4388 115.24 13.4316 114.634 13.3919C113.641 13.3323 113.83 14.4939 113.81 14.4939C114.518 14.7766 115.136 15.2468 115.598 15.854C115.852 16.4311 116.186 16.9693 116.591 17.4524C116.959 17.7602 118.876 20.0039 119.373 20.4308C119.87 20.8577 121.36 22.4164 121.628 22.6448C121.93 23.208 121.884 23.8944 121.509 24.412C120.943 24.9481 120.128 25.1367 120.148 25.4743C120.213 26.0407 120.072 26.6116 119.751 27.0826C119.443 27.3507 119.045 27.5194 118.976 27.8967C118.929 28.4346 118.729 28.9479 118.399 29.376C117.514 30.2174 116.152 30.3012 115.171 29.5745C114.326 28.9987 113.412 28.3037 112.578 28.6612C111.743 29.0186 111.813 29.8823 112.022 31.0538C107.551 28.5619 107.054 25.8118 107.77 24.1836C108.266 23.0121 108.912 22.3767 108.266 21.2052H108.197Z" fill="#A7674C"/>
</svg>
