<svg width="28" height="28" viewBox="0 0 28 28" fill="none" xmlns="http://www.w3.org/2000/svg">
<path d="M19.7969 3.33594H13.1797V13.1797H9.84375C9.84375 10.4656 7.63596 8.25781 4.92188 8.25781C2.20779 8.25781 0 10.4656 0 13.1797V14.8203H13.1797V24.6641H19.7969V28H28V19.7422H19.7969V23.0234H14.8203V14.8203H19.7969V18.1016H28V9.89844H19.7969V13.1797H14.8203V4.97656H19.7969V8.25781H28V0H19.7969V3.33594ZM22.0175 22.4435L23.0781 23.5041L25.7794 20.8028L26.9394 21.9628L23.0781 25.824L20.8575 23.6034L22.0175 22.4435ZM22.0175 12.5997L23.0781 13.6603L25.7794 10.9591L26.9394 12.119L23.0781 15.9803L20.8575 13.7597L22.0175 12.5997ZM22.0175 2.75595L23.0781 3.81659L25.7794 1.11533L26.9394 2.2753L23.0781 6.13654L20.8575 3.91592L22.0175 2.75595Z" fill="#296DB3"/>
<path d="M7.38281 4.15625C7.38281 5.51532 6.28094 6.61719 4.92188 6.61719C3.56281 6.61719 2.46094 5.51532 2.46094 4.15625C2.46094 2.79718 3.56281 1.69531 4.92188 1.69531C6.28094 1.69531 7.38281 2.79718 7.38281 4.15625Z" fill="#296DB3"/>
</svg>
