<svg width="28" height="28" viewBox="0 0 28 28" fill="none" xmlns="http://www.w3.org/2000/svg">
<g clip-path="url(#clip0)">
<path d="M5.3464 9.11805C5.41242 9.51596 5.56587 9.76756 5.71754 9.92636C6.07798 12.3281 8.08537 14.5567 9.92147 14.5567C12.0609 14.5567 14.0094 12.1443 14.3841 9.93172C14.5394 9.77469 14.6946 9.52132 14.7624 9.11805C14.8837 8.6684 15.0408 7.88685 14.766 7.51928C14.7517 7.50143 14.7356 7.48181 14.7214 7.46753C14.9801 6.52361 15.3066 4.57153 14.1379 3.24219C14.0344 3.11015 13.3778 2.32682 11.977 1.91285L11.3079 1.68267C10.2052 1.34186 9.51285 1.26513 9.48252 1.26157C9.43256 1.258 9.38081 1.26157 9.33263 1.27406C9.29516 1.28476 9.16312 1.32045 9.06141 1.30617C8.79733 1.2687 8.4012 1.40431 8.33162 1.43108C8.24061 1.46855 6.10475 2.32325 5.45703 4.3128C5.39636 4.47339 5.13763 5.31918 5.48201 7.39259C5.43026 7.42828 5.38387 7.4711 5.34461 7.52285C5.06626 7.88685 5.22328 8.6684 5.3464 9.11805Z" fill="#296DB3"/>
<path d="M13.8894 24.2565C13.495 24.0352 13.0668 23.8229 12.61 23.6213C12.3887 23.5231 12.1639 23.4303 11.9409 23.3429C11.766 23.2769 11.559 23.1912 11.4145 23.1538L9.29824 22.5828L13.2577 14.5211L14.9546 15.5917C15.3133 15.8165 15.5774 16.0075 15.8664 16.2198L15.9271 16.2644C16.2144 16.4767 16.4963 16.6944 16.7729 16.9193C17.3742 17.4046 17.9059 17.8792 18.4002 18.3699C18.4377 18.4074 18.4734 18.4413 18.5108 18.4788C18.6768 18.295 18.8392 18.1308 19.0015 17.9542C18.7945 17.3386 18.543 16.7694 18.236 16.3126C18.236 16.3126 17.8007 15.7184 16.7675 15.3223C16.7675 15.3223 16.6801 15.2955 16.5463 15.2509C15.6273 14.8209 14.7548 14.5443 14.7548 14.5443C14.5674 14.4765 14.4033 14.4105 14.2552 14.3462C13.6306 14.0375 13.1114 13.6896 13.0043 13.3613C13.0043 13.3613 13.3648 16.8497 10.3153 16.9317L9.89065 16.9121C7.12669 16.6659 6.9429 13.3541 6.9429 13.3541C6.65384 14.2624 3.17793 15.3187 3.17793 15.3187C2.14479 15.7148 1.70762 16.3108 1.70762 16.3108C0.180219 18.5769 0 23.6195 0 23.6195C0.0196278 24.7722 0.517461 24.8917 0.517461 24.8917C4.03084 26.4602 9.5427 26.7367 9.5427 26.7367C9.84068 26.7439 10.1173 26.7278 10.3938 26.7118L10.401 26.7403C10.401 26.7403 13.0918 26.6029 15.9128 25.9855L15.5684 25.5341C15.2883 25.1647 14.662 24.6883 13.8894 24.2565Z" fill="#296DB3"/>
<path d="M12.8867 13.5093C12.9242 13.4612 12.9652 13.413 13.0045 13.3595C12.9956 13.3273 12.9938 13.3113 12.9938 13.3113C12.9599 13.3809 12.9206 13.4398 12.8867 13.5093Z" fill="#296DB3"/>
<path d="M6.95844 13.3487L6.94952 13.3113L6.94238 13.3505C6.94417 13.3434 6.9513 13.3363 6.95309 13.3291C6.95487 13.3309 6.95666 13.338 6.95844 13.3487Z" fill="#296DB3"/>
<path d="M24.7705 14.9671C23.7695 15.6737 22.8363 16.4731 21.9477 17.3136C21.0573 18.1593 20.2133 19.0497 19.4014 19.9687C19.0999 20.3113 18.8072 20.6574 18.5164 21.0054C18.5128 21 18.5092 20.9947 18.5075 20.9893C18.0792 20.4183 17.6153 19.9098 17.1335 19.4334C16.6517 18.9587 16.1521 18.5198 15.6382 18.1022C15.3795 17.8953 15.119 17.6918 14.8531 17.492C14.5765 17.2921 14.3339 17.1119 13.9948 16.8978L11.8857 21.1892C12.0785 21.2409 12.3586 21.3498 12.5959 21.4425C12.8475 21.5389 13.0937 21.6424 13.34 21.7512C13.8325 21.9689 14.3125 22.2062 14.771 22.4614C15.6775 22.9682 16.5215 23.5855 17.0033 24.2154L18.6252 26.3424L19.5584 24.3189C20.0277 23.3054 20.5898 22.2455 21.1661 21.2356C21.7478 20.2185 22.3688 19.221 23.0415 18.2593C23.7142 17.2975 24.4351 16.3679 25.2416 15.5114C26.0481 14.6602 26.9385 13.868 28.0002 13.3059C26.8475 13.6485 25.7698 14.2677 24.7705 14.9671Z" fill="#296DB3"/>
</g>
<defs>
<clipPath id="clip0">
<rect width="28" height="28" fill="white"/>
</clipPath>
</defs>
</svg>
