<?xml version="1.0" encoding="utf-8"?>
<!-- Generator: Adobe Illustrator 24.0.1, SVG Export Plug-In . SVG Version: 6.00 Build 0)  -->
<svg version="1.1" id="Layer_1" xmlns="http://www.w3.org/2000/svg" xmlns:xlink="http://www.w3.org/1999/xlink" x="0px" y="0px"
	 viewBox="0 0 1440 1648" style="enable-background:new 0 0 1440 1648;" xml:space="preserve">
<style type="text/css">
	.st0{fill:url(#SVGID_1_);}
	.st1{opacity:0.2;}
	.st2{fill-rule:evenodd;clip-rule:evenodd;fill:#9DBCDC;}
</style>
<linearGradient id="SVGID_1_" gradientUnits="userSpaceOnUse" x1="349.7545" y1="-573.1915" x2="1462.9745" y2="59.5446" gradientTransform="matrix(1 0 0 1 0 1152)">
	<stop  offset="0" style="stop-color:#F9F3FA"/>
	<stop  offset="1" style="stop-color:#ECF4FF"/>
</linearGradient>
<path class="st0" d="M1440,0H720H0v1578.5c697,214,873-144.2,1440-37.5V0z"/>
<g class="st1">
	<path class="st2" d="M478.8,871.7c-0.4,2.7-2.9,4.6-5.5,4.2c-2.6-0.4-4.5-2.6-4.2-5.4c0.3-2.7,2.8-4.8,5.5-4.4
		C477.3,866.5,479.2,869,478.8,871.7z"/>
	<path class="st2" d="M504.5,876.4c-0.6,2.6-3.2,4.2-5.8,3.8c-2.6-0.5-4.2-3.1-3.7-5.7c0.5-2.7,3.2-4.4,5.8-3.9
		C503.6,871.1,505.2,873.8,504.5,876.4z"/>
	<path class="st2" d="M529.7,883.5c-0.9,2.6-3.6,4.1-6.1,3.3s-3.9-3.5-3.2-6.1c0.8-2.6,3.5-4.1,6.1-3.3
		C529.2,878.1,530.6,880.9,529.7,883.5z"/>
	<path class="st2" d="M554.2,892.7c-1.1,2.5-3.9,3.7-6.4,2.7c-2.4-1-3.6-3.9-2.6-6.4s3.8-3.7,6.3-2.7
		C554.1,887.3,555.3,890.2,554.2,892.7z"/>
	<path class="st2" d="M577.8,904.1c-1.3,2.4-4.2,3.3-6.5,2.1c-2.3-1.3-3.3-4.1-2.1-6.5s4.2-3.5,6.6-2.2
		C578.2,898.7,579.1,901.7,577.8,904.1z"/>
	<path class="st2" d="M600.3,917.4c-1.5,2.3-4.4,2.9-6.7,1.5c-2.2-1.4-2.9-4.4-1.5-6.7s4.4-3.1,6.8-1.7
		C601.2,912,601.8,915.2,600.3,917.4z"/>
	<path class="st2" d="M621.5,932.6c-1.7,2.1-4.7,2.6-6.8,1s-2.5-4.7-0.9-6.9s4.7-2.7,6.8-1C622.9,927.4,623.2,930.5,621.5,932.6z"/>
	<path class="st2" d="M641.4,949.7c-1.9,2-4.9,2.2-6.9,0.4c-1.9-1.8-2.1-4.9-0.3-7s4.9-2.2,6.9-0.4
		C643.1,944.6,643.2,947.7,641.4,949.7z"/>
	<path class="st2" d="M659.6,968.5c-2,1.8-5.1,1.7-6.8-0.3c-1.8-2-1.6-5.1,0.4-7c1.9-1.9,5-1.8,6.8,0.3
		C661.8,963.5,661.6,966.7,659.6,968.5z"/>
	<path class="st2" d="M676.1,988.7c-2.2,1.6-5.2,1.2-6.7-0.9c-1.5-2.2-1.2-5.2,0.9-6.9c2.1-1.7,5.2-1.4,6.8,0.8
		C678.7,984,678.3,987.1,676.1,988.7z"/>
	<path class="st2" d="M690.9,1010.3c-2.3,1.5-5.2,0.8-6.6-1.5c-1.5-2.2-0.8-5.2,1.4-6.8c2.2-1.5,5.3-0.9,6.8,1.4
		C693.9,1005.8,693.2,1008.9,690.9,1010.3z"/>
	<path class="st2" d="M703.7,1033.1c-2.4,1.2-5.2,0.3-6.5-2c-1.2-2.3-0.3-5.3,2-6.7c2.3-1.3,5.3-0.4,6.6,2
		C707.2,1028.8,706.1,1031.9,703.7,1033.1z"/>
	<path class="st2" d="M714.5,1057c-2.5,1-5.3-0.1-6.3-2.6s0.2-5.4,2.6-6.5c2.5-1.1,5.3,0,6.3,2.6C718.2,1053,717,1055.9,714.5,1057z
		"/>
	<path class="st2" d="M723.1,1081.7c-2.6,0.8-5.3-0.6-6-3.2c-0.8-2.5,0.7-5.3,3.2-6.2c2.5-0.9,5.2,0.5,6,3.2
		C727.1,1078.1,725.7,1080.9,723.1,1081.7z"/>
	<path class="st2" d="M729.5,1107c-2.6,0.6-5.2-1.1-5.7-3.7s1.1-5.3,3.7-5.9c2.6-0.7,5.3,0.9,5.8,3.7
		C733.9,1103.8,732.2,1106.5,729.5,1107z"/>
	<path class="st2" d="M733.7,1132.9c-2.7,0.3-5-1.6-5.3-4.2c-0.4-2.6,1.5-5.1,4.1-5.6c2.6-0.4,5.1,1.4,5.5,4.2
		C738.4,1130,736.4,1132.5,733.7,1132.9z"/>
	<path class="st2" d="M735.7,1159c-2.7,0.1-4.9-2-5-4.7s2-5,4.6-5.2s4.9,1.9,5,4.7C740.5,1156.5,738.4,1158.9,735.7,1159z"/>
	<path class="st2" d="M735.3,1185.2c-2.7-0.1-4.7-2.4-4.6-5.1c0.1-2.7,2.4-4.8,5.1-4.8c2.7,0,4.7,2.3,4.6,5.1
		C740.2,1183.2,737.9,1185.3,735.3,1185.2z"/>
	<path class="st2" d="M732.6,1211.2c-2.6-0.4-4.4-2.8-4-5.5s2.7-4.6,5.4-4.3c2.6,0.3,4.6,2.7,4.2,5.5
		C737.8,1209.6,735.3,1211.6,732.6,1211.2z"/>
	<path class="st2" d="M727.8,1237c-2.6-0.6-4.1-3.2-3.6-5.8c0.5-2.6,3.1-4.4,5.7-3.9c2.6,0.5,4.3,3.1,3.7,5.8
		C733.1,1235.9,730.4,1237.6,727.8,1237z"/>
	<path class="st2" d="M720.8,1262.2c-2.5-0.8-3.9-3.6-3.1-6.2c0.8-2.6,3.5-4.1,6.1-3.3c2.6,0.7,4,3.5,3.1,6.1
		C726,1261.5,723.3,1263,720.8,1262.2z"/>
	<path class="st2" d="M711.5,1286.7c-2.4-1-3.6-3.9-2.5-6.4c1-2.5,3.9-3.7,6.4-2.8c2.5,1,3.6,3.8,2.5,6.4
		C716.7,1286.5,713.9,1287.7,711.5,1286.7z"/>
	<path class="st2" d="M700.1,1310.3c-2.3-1.3-3.2-4.2-1.9-6.6s4.1-3.4,6.5-2.2c2.3,1.2,3.4,4.2,2,6.7
		C705.4,1310.6,702.4,1311.5,700.1,1310.3z"/>
	<path class="st2" d="M686.7,1332.8c-2.2-1.5-2.7-4.4-1.3-6.8c1.4-2.3,4.4-3,6.6-1.7c2.3,1.4,2.9,4.4,1.5,6.8
		C692,1333.6,688.9,1334.2,686.7,1332.8z"/>
	<path class="st2" d="M671.4,1354.1c-2-1.6-2.4-4.7-0.8-6.9c1.6-2.2,4.6-2.6,6.8-1.1c2.1,1.6,2.5,4.7,0.9,6.9
		C676.5,1355.3,673.5,1355.8,671.4,1354.1z"/>
	<path class="st2" d="M654.3,1373.9c-1.9-1.8-2-5-0.2-7s4.9-2.2,6.9-0.4c2,1.8,2.1,4.9,0.2,7
		C659.3,1375.6,656.2,1375.8,654.3,1373.9z"/>
	<path class="st2" d="M635.5,1392.2c-1.8-2-1.6-5.1,0.4-6.9s5.1-1.7,6.9,0.2c1.8,1.9,1.7,5-0.4,6.9
		C640.3,1394.3,637.2,1394.2,635.5,1392.2z"/>
	<path class="st2" d="M615.2,1408.8c-1.6-2.2-1.1-5.2,1-6.9c2.2-1.6,5.1-1.3,6.8,0.8c1.6,2.1,1.3,5.3-0.9,6.9
		C619.8,1411.3,616.8,1410.9,615.2,1408.8z"/>
	<path class="st2" d="M593.6,1423.6c-1.4-2.3-0.6-5.3,1.6-6.7c2.2-1.5,5.2-0.9,6.6,1.3c1.5,2.2,0.8,5.3-1.5,6.9
		C598,1426.6,594.9,1425.9,593.6,1423.6z"/>
	<path class="st2" d="M570.8,1436.5c-1.2-2.4-0.2-5.3,2.1-6.7c2.3-1.3,5.2-0.4,6.5,1.9c1.3,2.4,0.3,5.4-2.1,6.7
		C574.9,1439.9,571.9,1438.9,570.8,1436.5z"/>
	<path class="st2" d="M546.9,1447.3c-1-2.5,0.2-5.4,2.7-6.5c2.4-1.1,5.3,0.1,6.3,2.5c1.1,2.5-0.1,5.4-2.7,6.5
		C550.7,1450.9,547.9,1449.8,546.9,1447.3z"/>
	<path class="st2" d="M522.2,1455.9c-0.7-2.6,0.7-5.4,3.2-6.2c2.5-0.8,5.2,0.6,6.1,3.1c0.8,2.6-0.6,5.3-3.2,6.2
		C525.6,1459.9,522.9,1458.5,522.2,1455.9z"/>
	<path class="st2" d="M496.8,1462.4c-0.5-2.6,1.2-5.3,3.8-5.8c2.6-0.5,5.2,1,5.8,3.6c0.6,2.6-1,5.4-3.7,5.9
		C499.9,1466.7,497.3,1465.1,496.8,1462.4z"/>
	<path class="st2" d="M470.9,1466.7c-0.3-2.7,1.6-5.1,4.3-5.5c2.6-0.4,5,1.4,5.4,4c0.4,2.7-1.5,5.2-4.2,5.7
		C473.7,1471.3,471.2,1469.3,470.9,1466.7z"/>
	<path class="st2" d="M444.8,1468.7c0-2.7,2.1-5.1,4.7-5.2c2.6-0.2,4.9,1.9,5,4.6s-2,5-4.7,5.2
		C447.1,1473.4,444.9,1471.4,444.8,1468.7z"/>
	<path class="st2" d="M418.6,1468.3c0.2-2.7,2.5-4.8,5.1-4.7c2.6,0.1,4.7,2.4,4.6,5.1s-2.4,4.8-5.1,4.7
		C420.5,1473.3,418.5,1471,418.6,1468.3z"/>
	<path class="st2" d="M392.6,1465.7c0.4-2.7,2.9-4.6,5.5-4.2s4.5,2.6,4.2,5.4c-0.3,2.7-2.8,4.8-5.5,4.4
		C394,1470.9,392.2,1468.4,392.6,1465.7z"/>
	<path class="st2" d="M366.9,1460.9c0.6-2.6,3.2-4.2,5.8-3.8c2.6,0.5,4.2,3.1,3.7,5.7c-0.5,2.7-3.2,4.4-5.8,3.9
		C367.8,1466.3,366.2,1463.6,366.9,1460.9z"/>
	<path class="st2" d="M341.7,1453.9c0.9-2.6,3.6-4.1,6.1-3.3c2.5,0.8,3.9,3.5,3.2,6.1c-0.8,2.6-3.5,4.1-6.1,3.3
		C342.2,1459.2,340.8,1456.5,341.7,1453.9z"/>
	<path class="st2" d="M317.2,1444.7c1.1-2.5,3.9-3.7,6.4-2.7c2.4,1,3.6,3.9,2.6,6.4s-3.8,3.7-6.4,2.7
		C317.3,1450,316.1,1447.2,317.2,1444.7z"/>
	<path class="st2" d="M293.6,1433.3c1.3-2.4,4.2-3.3,6.5-2.1c2.3,1.3,3.3,4.1,2.1,6.6c-1.2,2.4-4.2,3.5-6.6,2.2
		S292.3,1435.7,293.6,1433.3z"/>
	<path class="st2" d="M271.1,1420c1.5-2.3,4.4-2.9,6.7-1.5c2.2,1.4,2.9,4.4,1.5,6.7c-1.4,2.3-4.4,3.1-6.8,1.7
		C270.2,1425.4,269.6,1422.2,271.1,1420z"/>
	<path class="st2" d="M249.8,1404.7c1.7-2.1,4.7-2.6,6.8-1s2.5,4.7,0.9,6.9c-1.6,2.2-4.7,2.7-6.8,1
		C248.5,1410,248.1,1406.9,249.8,1404.7z"/>
	<path class="st2" d="M230,1387.6c1.9-2,4.9-2.2,6.9-0.4c1.9,1.8,2.1,4.9,0.3,7s-4.9,2.2-6.9,0.4
		C228.3,1392.7,228.2,1389.6,230,1387.6z"/>
	<path class="st2" d="M211.8,1368.9c2-1.8,5.1-1.7,6.8,0.3c1.8,2,1.6,5.1-0.4,7c-1.9,1.9-5,1.8-6.8-0.3
		C209.6,1373.8,209.8,1370.7,211.8,1368.9z"/>
	<path class="st2" d="M195.2,1348.6c2.2-1.6,5.2-1.2,6.7,0.9c1.5,2.2,1.2,5.2-0.9,6.9c-2.1,1.7-5.2,1.4-6.8-0.8
		C192.6,1353.4,193.1,1350.3,195.2,1348.6z"/>
	<path class="st2" d="M180.5,1327c2.3-1.4,5.2-0.8,6.6,1.5c1.5,2.2,0.8,5.2-1.4,6.8c-2.2,1.5-5.3,0.9-6.8-1.4
		C177.5,1331.6,178.2,1328.5,180.5,1327z"/>
	<path class="st2" d="M167.6,1304.2c2.4-1.2,5.2-0.3,6.5,2c1.2,2.3,0.3,5.3-2,6.7c-2.4,1.3-5.3,0.4-6.6-2
		C164.2,1308.5,165.2,1305.5,167.6,1304.2z"/>
	<path class="st2" d="M156.9,1280.4c2.5-1,5.3,0.1,6.3,2.6s-0.2,5.4-2.6,6.5c-2.4,1.1-5.3,0-6.3-2.6
		C153.2,1284.3,154.4,1281.4,156.9,1280.4z"/>
	<path class="st2" d="M148.3,1255.7c2.6-0.8,5.3,0.6,6,3.2c0.8,2.5-0.7,5.3-3.2,6.2c-2.5,0.9-5.2-0.5-6-3.2
		C144.3,1259.3,145.7,1256.5,148.3,1255.7z"/>
	<path class="st2" d="M141.8,1230.3c2.6-0.6,5.2,1.1,5.7,3.7s-1.1,5.3-3.7,5.9c-2.6,0.7-5.3-0.9-5.8-3.7
		C137.5,1233.6,139.2,1230.9,141.8,1230.3z"/>
	<path class="st2" d="M137.6,1204.5c2.7-0.3,5,1.6,5.3,4.2c0.4,2.6-1.5,5.1-4.1,5.6c-2.6,0.4-5.1-1.4-5.5-4.2
		C133,1207.4,135,1204.8,137.6,1204.5z"/>
	<path class="st2" d="M135.7,1178.4c2.7-0.1,4.9,2,5,4.7s-2,5-4.6,5.2c-2.7,0.2-4.9-1.9-5-4.7C130.9,1180.8,133,1178.5,135.7,1178.4
		z"/>
	<path class="st2" d="M136.1,1152.2c2.7,0.1,4.7,2.4,4.6,5.1c-0.1,2.7-2.4,4.8-5.1,4.8c-2.7,0-4.7-2.3-4.6-5.1
		C131.2,1154.2,133.5,1152.1,136.1,1152.2z"/>
	<path class="st2" d="M138.7,1126.2c2.6,0.4,4.4,2.8,4,5.5s-2.7,4.6-5.4,4.3c-2.6-0.3-4.6-2.7-4.2-5.5
		C133.6,1127.7,136.1,1125.8,138.7,1126.2z"/>
	<path class="st2" d="M143.5,1100.4c2.6,0.6,4.1,3.2,3.6,5.8c-0.5,2.6-3.1,4.4-5.7,3.9c-2.6-0.5-4.3-3.1-3.7-5.8
		C138.3,1101.5,141,1099.8,143.5,1100.4z"/>
	<path class="st2" d="M150.6,1075.2c2.5,0.8,3.9,3.6,3.1,6.1c-0.8,2.6-3.5,4.1-6.1,3.3c-2.6-0.7-4-3.5-3.1-6.1
		S148.1,1074.4,150.6,1075.2z"/>
	<path class="st2" d="M159.9,1050.7c2.4,1.1,3.6,3.9,2.5,6.4c-1,2.5-3.9,3.7-6.4,2.8c-2.5-1-3.6-3.8-2.5-6.4
		S157.5,1049.7,159.9,1050.7z"/>
	<path class="st2" d="M171.3,1027.1c2.3,1.3,3.2,4.2,1.9,6.6s-4.1,3.4-6.5,2.2c-2.3-1.2-3.4-4.2-2-6.7
		C166,1026.8,169,1025.8,171.3,1027.1z"/>
	<path class="st2" d="M184.7,1004.6c2.2,1.5,2.7,4.4,1.3,6.8c-1.4,2.3-4.4,3-6.6,1.7c-2.3-1.4-2.9-4.4-1.5-6.8
		C179.4,1003.8,182.5,1003.1,184.7,1004.6z"/>
	<path class="st2" d="M200,983.3c2,1.6,2.4,4.7,0.8,6.9c-1.6,2.2-4.6,2.6-6.8,1.1c-2.1-1.6-2.5-4.7-0.9-6.9
		C194.8,982.1,197.9,981.6,200,983.3z"/>
	<path class="st2" d="M217.1,963.5c1.9,1.8,2,5,0.2,7s-4.9,2.2-6.8,0.4c-2-1.8-2.1-4.9-0.2-7C212.1,961.8,215.2,961.6,217.1,963.5z"
		/>
	<path class="st2" d="M235.9,945.2c1.7,2,1.6,5.1-0.4,6.9c-2,1.8-5.1,1.7-6.9-0.2c-1.8-1.9-1.6-5,0.4-6.9
		C231.1,943.1,234.2,943.2,235.9,945.2z"/>
	<path class="st2" d="M256.2,928.6c1.6,2.2,1.1,5.2-1,6.9c-2.2,1.6-5.1,1.4-6.8-0.8c-1.6-2.1-1.3-5.3,0.9-7
		C251.6,926,254.6,926.4,256.2,928.6z"/>
	<path class="st2" d="M277.8,913.8c1.4,2.3,0.6,5.3-1.6,6.7c-2.2,1.5-5.2,0.9-6.6-1.3c-1.5-2.2-0.8-5.3,1.5-6.9
		C273.4,910.8,276.4,911.5,277.8,913.8z"/>
	<path class="st2" d="M300.6,900.9c1.2,2.4,0.2,5.3-2.1,6.7c-2.3,1.3-5.2,0.4-6.5-1.9c-1.3-2.4-0.3-5.4,2.1-6.7
		C296.5,897.5,299.5,898.5,300.6,900.9z"/>
	<path class="st2" d="M324.5,890.1c1,2.5-0.2,5.4-2.7,6.5c-2.4,1.1-5.3-0.1-6.3-2.5c-1.1-2.5,0.1-5.4,2.7-6.5
		C320.7,886.4,323.5,887.6,324.5,890.1z"/>
	<path class="st2" d="M349.2,881.4c0.7,2.6-0.7,5.4-3.2,6.2s-5.2-0.6-6.1-3.1c-0.8-2.6,0.6-5.3,3.2-6.2
		C345.8,877.4,348.5,878.8,349.2,881.4z"/>
	<path class="st2" d="M374.6,875c0.5,2.7-1.2,5.3-3.8,5.8c-2.6,0.5-5.2-1-5.8-3.6c-0.6-2.6,1-5.4,3.7-5.9
		C371.5,870.7,374.1,872.3,374.6,875z"/>
	<path class="st2" d="M400.4,870.7c0.3,2.7-1.6,5.1-4.3,5.5c-2.6,0.4-5-1.4-5.4-4c-0.4-2.7,1.5-5.2,4.2-5.7
		C397.7,866.1,400.2,868,400.4,870.7z"/>
	<path class="st2" d="M426.6,868.7c0,2.7-2.1,5.1-4.7,5.2c-2.6,0.2-4.9-1.9-5-4.6c-0.1-2.7,2-5,4.7-5.2
		C424.3,863.9,426.5,866,426.6,868.7z"/>
	<path class="st2" d="M452.7,869.1c-0.2,2.7-2.5,4.8-5.1,4.7s-4.7-2.4-4.6-5.1c0.1-2.7,2.4-4.8,5.1-4.7
		C450.9,864.1,452.9,866.4,452.7,869.1z"/>
	<path class="st2" d="M476.7,898.2c-0.4,2.7-2.9,4.6-5.5,4.2c-2.6-0.4-4.4-2.7-4.1-5.4s2.8-4.7,5.5-4.3
		C475.3,893.1,477.2,895.6,476.7,898.2z"/>
	<path class="st2" d="M502.3,903.3c-0.7,2.6-3.3,4.3-5.8,3.6c-2.5-0.6-4.2-3.1-3.6-5.8c0.6-2.6,3.2-4.4,5.9-3.8
		C501.4,898,503,900.7,502.3,903.3z"/>
	<path class="st2" d="M527.2,910.7c-0.9,2.6-3.7,3.9-6.1,3.1c-2.5-0.8-3.8-3.5-3-6.1s3.6-4.1,6.2-3.3
		C526.8,905.3,528.1,908.2,527.2,910.7z"/>
	<path class="st2" d="M551.3,920.6c-1.2,2.5-4,3.5-6.4,2.5s-3.5-3.9-2.4-6.4s3.9-3.7,6.5-2.7C551.4,915.1,552.4,918.1,551.3,920.6z"
		/>
	<path class="st2" d="M574.3,932.6c-1.4,2.4-4.3,3.1-6.6,1.9c-2.3-1.2-3.1-4.2-1.8-6.6c1.3-2.4,4.3-3.3,6.7-2
		C575,927.2,575.7,930.3,574.3,932.6z"/>
	<path class="st2" d="M596.1,946.8c-1.6,2.2-4.5,2.7-6.7,1.2s-2.7-4.5-1.2-6.8s4.5-2.9,6.8-1.4C597.3,941.5,597.7,944.7,596.1,946.8
		z"/>
	<path class="st2" d="M616.4,963.1c-1.8,2.1-4.8,2.2-6.8,0.6c-2-1.7-2.2-4.7-0.5-6.9c1.7-2.1,4.8-2.4,6.9-0.7
		C618.1,957.8,618.2,961,616.4,963.1z"/>
	<path class="st2" d="M635.1,981.1c-2,1.9-5,1.8-6.8,0c-1.8-1.9-1.8-5,0.1-6.9c1.9-1.9,5-2,6.9,0
		C637.2,976.1,637.1,979.3,635.1,981.1z"/>
	<path class="st2" d="M652,1000.9c-2.1,1.7-5.1,1.3-6.8-0.7c-1.6-2-1.3-5.1,0.8-6.9c2.1-1.8,5.1-1.5,6.8,0.6
		C654.6,996.1,654.1,999.2,652,1000.9z"/>
	<path class="st2" d="M667,1022.2c-2.3,1.5-5.2,0.8-6.7-1.3c-1.4-2.2-0.8-5.2,1.4-6.8s5.2-1,6.7,1.3
		C670,1017.6,669.2,1020.7,667,1022.2z"/>
	<path class="st2" d="M679.8,1044.8c-2.4,1.2-5.2,0.3-6.5-2c-1.2-2.3-0.3-5.3,2-6.6c2.3-1.3,5.3-0.5,6.6,1.9
		C683.2,1040.5,682.2,1043.6,679.8,1044.8z"/>
	<path class="st2" d="M690.5,1068.5c-2.5,1-5.3-0.2-6.3-2.6s0.2-5.3,2.6-6.4c2.5-1.1,5.3,0,6.3,2.6
		C694.2,1064.6,693,1067.5,690.5,1068.5z"/>
	<path class="st2" d="M698.8,1093.2c-2.5,0.8-5.3-0.7-6-3.2c-0.8-2.5,0.7-5.3,3.2-6.2c2.5-0.9,5.2,0.6,6,3.2
		C702.9,1089.7,701.4,1092.4,698.8,1093.2z"/>
	<path class="st2" d="M704.7,1118.5c-2.6,0.5-5.2-1.2-5.7-3.8c-0.5-2.6,1.2-5.2,3.8-5.8c2.6-0.6,5.2,1.1,5.7,3.8
		C709.1,1115.4,707.4,1118,704.7,1118.5z"/>
	<path class="st2" d="M708.2,1144.3c-2.7,0.3-5-1.7-5.3-4.3c-0.2-2.6,1.7-5.1,4.4-5.4c2.6-0.4,5,1.6,5.3,4.3
		C712.8,1141.6,710.9,1144.1,708.2,1144.3z"/>
	<path class="st2" d="M709.2,1170.3c-2.7,0-4.8-2.2-4.8-4.8c0-2.7,2.2-4.9,4.9-5s4.8,2,4.8,4.8
		C714,1168.1,711.8,1170.3,709.2,1170.3z"/>
	<path class="st2" d="M707.7,1196.3c-2.7-0.3-4.6-2.6-4.3-5.3c0.3-2.7,2.6-4.7,5.3-4.5c2.7,0.1,4.7,2.5,4.3,5.3
		C712.7,1194.5,710.3,1196.6,707.7,1196.3z"/>
	<path class="st2" d="M703.8,1222.1c-2.6-0.5-4.3-3-3.8-5.7c0.6-2.6,2.9-4.4,5.6-4c2.6,0.4,4.5,3,3.9,5.7
		C709,1220.8,706.4,1222.6,703.8,1222.1z"/>
	<path class="st2" d="M697.5,1247.3c-2.5-0.8-4-3.4-3.2-6c0.7-2.6,3.3-4.1,5.9-3.5c2.6,0.7,4.1,3.4,3.4,6.1
		C702.8,1246.5,700.1,1248.1,697.5,1247.3z"/>
	<path class="st2" d="M688.8,1271.9c-2.5-1-3.6-3.8-2.6-6.3c0.9-2.5,3.7-3.8,6.2-2.9s3.8,3.7,2.8,6.4
		C694.2,1271.6,691.3,1272.9,688.8,1271.9z"/>
	<path class="st2" d="M677.8,1295.5c-2.4-1.3-3.2-4.1-2-6.5s4-3.4,6.4-2.3s3.4,4.1,2.2,6.6C683.2,1295.8,680.1,1296.7,677.8,1295.5z
		"/>
	<path class="st2" d="M664.6,1317.9c-2.2-1.5-2.7-4.4-1.4-6.7c1.4-2.3,4.3-3,6.6-1.7c2.3,1.4,2.9,4.4,1.5,6.8
		C670,1318.8,666.8,1319.4,664.6,1317.9z"/>
	<path class="st2" d="M649.4,1339c-2.1-1.7-2.3-4.7-0.8-6.9c1.6-2.1,4.6-2.6,6.7-1c2.1,1.6,2.5,4.7,0.9,6.9
		C654.6,1340.4,651.4,1340.7,649.4,1339z"/>
	<path class="st2" d="M632.1,1358.6c-1.9-1.9-1.9-4.9-0.1-6.9c1.8-2,4.8-2.1,6.8-0.4c2,1.8,2.1,4.9,0.2,7
		C637.2,1360.4,634,1360.5,632.1,1358.6z"/>
	<path class="st2" d="M613.2,1376.5c-1.7-2-1.4-5.1,0.5-6.9c2-1.8,5-1.7,6.8,0.3s1.6,5.1-0.5,7
		C618,1378.7,614.9,1378.5,613.2,1376.5z"/>
	<path class="st2" d="M592.6,1392.4c-1.5-2.2-0.9-5.2,1.1-6.9c2.1-1.6,5.1-1.2,6.7,1c1.6,2.1,1.1,5.2-1.1,6.9
		C597.2,1395.2,594.1,1394.6,592.6,1392.4z"/>
	<path class="st2" d="M570.6,1406.4c-1.3-2.3-0.4-5.3,1.8-6.7c2.3-1.4,5.2-0.7,6.6,1.6c1.4,2.3,0.6,5.3-1.7,6.8
		C574.9,1409.6,571.9,1408.8,570.6,1406.4z"/>
	<path class="st2" d="M547.4,1418.2c-1-2.4,0-5.3,2.4-6.6c2.4-1.2,5.2-0.2,6.4,2.2c1.2,2.4,0.1,5.4-2.4,6.6
		C551.3,1421.8,548.4,1420.7,547.4,1418.2z"/>
	<path class="st2" d="M523.1,1427.8c-0.8-2.5,0.5-5.4,3-6.3s5.2,0.3,6.1,2.9c0.9,2.5-0.4,5.4-3,6.4
		C526.7,1431.6,524,1430.4,523.1,1427.8z"/>
	<path class="st2" d="M498.1,1435c-0.6-2.6,1-5.3,3.6-6c2.5-0.7,5.2,0.9,5.8,3.5c0.7,2.6-0.9,5.3-3.6,6
		C501.3,1439.2,498.7,1437.6,498.1,1435z"/>
	<path class="st2" d="M472.5,1439.7c-0.3-2.7,1.5-5.2,4.1-5.7c2.6-0.4,5,1.4,5.5,4c0.4,2.7-1.4,5.2-4.1,5.7
		S472.8,1442.4,472.5,1439.7z"/>
	<path class="st2" d="M446.6,1442c-0.1-2.7,2-5.1,4.6-5.2c2.6-0.2,4.9,1.9,5.1,4.6s-1.9,5-4.6,5.2
		C448.9,1446.7,446.6,1444.7,446.6,1442z"/>
	<path class="st2" d="M420.5,1441.8c0.2-2.7,2.5-4.8,5.1-4.7c2.6,0.1,4.7,2.4,4.6,5.1s-2.3,4.8-5.1,4.7
		C422.4,1446.7,420.3,1444.5,420.5,1441.8z"/>
	<path class="st2" d="M394.6,1439.1c0.4-2.7,2.9-4.6,5.5-4.2s4.4,2.7,4.1,5.4c-0.3,2.7-2.8,4.7-5.5,4.3
		C396,1444.3,394.2,1441.8,394.6,1439.1z"/>
	<path class="st2" d="M369.1,1434.1c0.7-2.6,3.3-4.3,5.8-3.6c2.5,0.6,4.2,3.1,3.6,5.8c-0.6,2.6-3.2,4.4-5.9,3.8
		C370,1439.4,368.4,1436.7,369.1,1434.1z"/>
	<path class="st2" d="M344.2,1426.6c0.9-2.6,3.7-3.9,6.1-3.1c2.5,0.8,3.8,3.5,3,6.1s-3.6,4.1-6.2,3.3
		C344.6,1432,343.3,1429.2,344.2,1426.6z"/>
	<path class="st2" d="M320.1,1416.8c1.2-2.5,4-3.5,6.4-2.5s3.5,3.9,2.4,6.4s-3.9,3.7-6.4,2.7C320,1422.3,318.9,1419.3,320.1,1416.8z
		"/>
	<path class="st2" d="M297.1,1404.8c1.4-2.4,4.3-3.1,6.6-1.9c2.3,1.2,3.1,4.2,1.8,6.6c-1.3,2.4-4.3,3.3-6.7,2
		C296.4,1410.2,295.7,1407.1,297.1,1404.8z"/>
	<path class="st2" d="M275.3,1390.5c1.6-2.2,4.5-2.7,6.7-1.2s2.7,4.5,1.2,6.8s-4.5,2.9-6.8,1.4
		C274.1,1395.9,273.7,1392.7,275.3,1390.5z"/>
	<path class="st2" d="M255,1374.3c1.8-2.1,4.8-2.2,6.8-0.6c2,1.7,2.2,4.7,0.5,6.9c-1.7,2.1-4.8,2.4-6.9,0.7
		C253.3,1379.6,253.2,1376.3,255,1374.3z"/>
	<path class="st2" d="M236.3,1356.2c2-1.9,5-1.8,6.8,0.1s1.8,5-0.1,6.9c-1.9,2-5,2-6.9,0C234.1,1361.3,234.3,1358.1,236.3,1356.2z"
		/>
	<path class="st2" d="M219.4,1336.5c2.1-1.7,5.1-1.3,6.8,0.7c1.6,2,1.3,5.1-0.8,6.9s-5.1,1.5-6.8-0.6
		C216.8,1341.3,217.2,1338.1,219.4,1336.5z"/>
	<path class="st2" d="M204.4,1315.2c2.3-1.5,5.2-0.8,6.7,1.3c1.4,2.2,0.8,5.2-1.4,6.8c-2.2,1.6-5.2,1-6.7-1.3
		C201.4,1319.7,202.1,1316.6,204.4,1315.2z"/>
	<path class="st2" d="M191.6,1292.6c2.4-1.2,5.2-0.3,6.5,2c1.2,2.3,0.3,5.3-2,6.6c-2.3,1.3-5.3,0.5-6.6-1.9
		C188.2,1296.8,189.2,1293.8,191.6,1292.6z"/>
	<path class="st2" d="M180.9,1268.8c2.5-1,5.3,0.2,6.3,2.6s-0.2,5.3-2.6,6.4c-2.5,1.1-5.3,0-6.3-2.6
		C177.2,1272.7,178.4,1269.8,180.9,1268.8z"/>
	<path class="st2" d="M172.6,1244.2c2.5-0.8,5.3,0.7,6,3.2c0.8,2.5-0.7,5.3-3.2,6.2c-2.5,0.9-5.3-0.6-6-3.2
		C168.5,1247.7,170,1245,172.6,1244.2z"/>
	<path class="st2" d="M166.6,1218.9c2.6-0.5,5.2,1.2,5.7,3.8c0.5,2.6-1.2,5.2-3.8,5.8c-2.6,0.6-5.2-1.1-5.7-3.8
		S164,1219.4,166.6,1218.9z"/>
	<path class="st2" d="M163.2,1193.1c2.7-0.3,5,1.7,5.3,4.3c0.2,2.6-1.7,5.1-4.4,5.4c-2.7,0.4-5-1.6-5.3-4.3
		C158.6,1195.7,160.5,1193.3,163.2,1193.1z"/>
	<path class="st2" d="M162.2,1167c2.7,0,4.8,2.2,4.8,4.8c0,2.7-2.2,4.9-4.9,5s-4.8-2-4.8-4.8C157.4,1169.3,159.6,1167,162.2,1167z"
		/>
	<path class="st2" d="M163.7,1141.1c2.6,0.3,4.6,2.6,4.3,5.3c-0.3,2.6-2.6,4.7-5.3,4.5c-2.7-0.1-4.7-2.5-4.4-5.3
		C158.7,1142.8,161,1140.8,163.7,1141.1z"/>
	<path class="st2" d="M167.6,1115.3c2.6,0.5,4.3,3,3.7,5.7c-0.6,2.6-2.9,4.4-5.6,4c-2.6-0.4-4.5-3-3.9-5.7
		C162.4,1116.6,165,1114.8,167.6,1115.3z"/>
	<path class="st2" d="M173.9,1090c2.5,0.8,4,3.4,3.2,6c-0.7,2.6-3.3,4.1-5.9,3.5c-2.6-0.6-4.1-3.4-3.4-6.1
		C168.6,1090.8,171.3,1089.3,173.9,1090z"/>
	<path class="st2" d="M182.5,1065.5c2.5,1,3.6,3.8,2.6,6.3c-0.9,2.5-3.7,3.8-6.2,2.9s-3.7-3.8-2.8-6.4
		C177.2,1065.7,180.1,1064.5,182.5,1065.5z"/>
	<path class="st2" d="M193.5,1041.9c2.4,1.3,3.2,4.1,2,6.5s-4,3.4-6.4,2.3s-3.4-4.1-2.2-6.6C188.2,1041.6,191.2,1040.7,193.5,1041.9
		z"/>
	<path class="st2" d="M206.8,1019.4c2.2,1.5,2.7,4.4,1.4,6.7c-1.4,2.3-4.3,3-6.6,1.7c-2.3-1.4-2.9-4.4-1.5-6.8
		C201.4,1018.6,204.6,1018,206.8,1019.4z"/>
	<path class="st2" d="M222,998.3c2.1,1.7,2.3,4.7,0.8,6.9c-1.6,2.1-4.6,2.6-6.7,1c-2.1-1.6-2.5-4.7-0.9-6.9
		C216.8,997,220,996.7,222,998.3z"/>
	<path class="st2" d="M239.2,978.8c1.9,1.9,1.9,4.9,0.1,6.9c-1.8,2-4.8,2.1-6.8,0.4c-2-1.8-2.1-4.9-0.2-7
		C234.2,976.9,237.4,976.9,239.2,978.8z"/>
	<path class="st2" d="M258.2,960.9c1.7,2.1,1.4,5.1-0.5,6.9c-2,1.8-5,1.7-6.8-0.3s-1.6-5.1,0.5-7
		C253.4,958.6,256.5,958.9,258.2,960.9z"/>
	<path class="st2" d="M278.8,944.9c1.5,2.2,0.9,5.2-1.2,6.9c-2.1,1.6-5.1,1.2-6.7-1c-1.6-2.1-1.1-5.2,1.1-6.9
		C274.2,942.2,277.3,942.7,278.8,944.9z"/>
	<path class="st2" d="M300.8,931c1.3,2.3,0.5,5.3-1.8,6.7s-5.2,0.7-6.6-1.6s-0.6-5.3,1.7-6.8C296.5,927.8,299.5,928.6,300.8,931z"/>
	<path class="st2" d="M324,919.2c1,2.4,0,5.3-2.4,6.6c-2.4,1.2-5.2,0.2-6.4-2.2c-1.2-2.4-0.1-5.4,2.4-6.6
		C320.1,915.6,323,916.7,324,919.2z"/>
	<path class="st2" d="M348.3,909.6c0.8,2.5-0.5,5.4-3,6.3c-2.5,0.9-5.2-0.3-6.1-2.9c-0.9-2.5,0.4-5.4,3-6.4
		C344.7,905.7,347.4,907,348.3,909.6z"/>
	<path class="st2" d="M373.3,902.4c0.6,2.6-1,5.3-3.6,6c-2.5,0.7-5.1-0.9-5.8-3.5c-0.7-2.6,0.9-5.3,3.6-6
		C370.1,898.2,372.7,899.8,373.3,902.4z"/>
	<path class="st2" d="M398.9,897.7c0.3,2.7-1.5,5.2-4.1,5.7c-2.6,0.4-5-1.4-5.5-4c-0.4-2.7,1.4-5.2,4.1-5.7S398.6,895,398.9,897.7z"
		/>
	<path class="st2" d="M424.8,895.4c0.1,2.7-2,5.1-4.6,5.2c-2.6,0.2-4.9-1.9-5.1-4.6c-0.2-2.7,1.9-5,4.6-5.2
		C422.5,890.7,424.8,892.7,424.8,895.4z"/>
	<path class="st2" d="M450.9,895.6c-0.2,2.7-2.5,4.8-5.1,4.7s-4.7-2.4-4.6-5.1c0.1-2.7,2.3-4.8,5.1-4.7
		C449,890.6,451,892.9,450.9,895.6z"/>
	<path class="st2" d="M474.7,924.8c-0.5,2.7-2.9,4.6-5.5,4.2c-2.6-0.4-4.4-2.8-4-5.5c0.3-2.7,2.8-4.6,5.5-4.3
		C473.3,919.7,475.1,922.1,474.7,924.8z"/>
	<path class="st2" d="M500,930.1c-0.7,2.6-3.4,4.3-5.9,3.6c-2.5-0.6-4-3.3-3.4-5.9c0.6-2.7,3.2-4.3,5.9-3.6
		C499.1,924.9,500.7,927.5,500,930.1z"/>
	<path class="st2" d="M524.5,938.1c-1,2.5-3.8,3.9-6.2,3s-3.7-3.7-2.8-6.3s3.7-3.9,6.2-3C524.3,932.7,525.5,935.6,524.5,938.1z"/>
	<path class="st2" d="M548.2,948.6c-1.2,2.4-4.1,3.5-6.5,2.4c-2.3-1.1-3.3-4-2.1-6.5c1.1-2.5,4-3.5,6.5-2.4
		C548.4,943.2,549.4,946.1,548.2,948.6z"/>
	<path class="st2" d="M570.5,961.5c-1.5,2.3-4.4,2.9-6.6,1.6c-2.2-1.3-2.9-4.3-1.5-6.7c1.4-2.3,4.4-3.1,6.7-1.7
		C571.4,956.1,572,959.3,570.5,961.5z"/>
	<path class="st2" d="M591.3,976.8c-1.7,2.1-4.7,2.5-6.7,0.9c-2.1-1.6-2.4-4.6-0.8-6.8c1.6-2.2,4.7-2.7,6.8-1
		C592.8,971.5,593,974.6,591.3,976.8z"/>
	<path class="st2" d="M610.5,994.1c-1.9,1.9-4.9,2-6.8,0.2c-1.8-1.9-1.9-4.8-0.1-6.9c1.8-2,5-2.2,6.9-0.3
		C612.4,989,612.4,992.1,610.5,994.1z"/>
	<path class="st2" d="M627.8,1013.3c-2.1,1.7-5.1,1.5-6.8-0.5c-1.6-2-1.3-5.1,0.7-6.9c2-1.8,5.1-1.6,6.8,0.5
		C630.2,1008.4,629.9,1011.5,627.8,1013.3z"/>
	<path class="st2" d="M643,1034.1c-2.3,1.5-5.3,0.9-6.7-1.2c-1.4-2.2-0.8-5.2,1.4-6.8c2.2-1.6,5.2-1.1,6.7,1.2
		C645.9,1029.6,645.2,1032.6,643,1034.1z"/>
	<path class="st2" d="M655.9,1056.5c-2.4,1.2-5.3,0.4-6.5-1.9s-0.3-5.3,2-6.6c2.3-1.4,5.3-0.5,6.5,1.9
		C659.3,1052.3,658.3,1055.2,655.9,1056.5z"/>
	<path class="st2" d="M666.4,1080.1c-2.5,1-5.2-0.2-6.2-2.6s0.2-5.3,2.7-6.4s5.3,0,6.3,2.6C670.2,1076.2,668.8,1079.1,666.4,1080.1z
		"/>
	<path class="st2" d="M674.3,1104.7c-2.6,0.7-5.2-0.8-5.8-3.3c-0.7-2.5,0.7-5.2,3.3-6.1c2.6-0.8,5.3,0.6,6,3.2
		C678.5,1101.2,676.9,1104,674.3,1104.7z"/>
	<path class="st2" d="M679.6,1130c-2.6,0.4-5.1-1.3-5.5-3.9s1.3-5.1,3.9-5.7c2.6-0.6,5.2,1.2,5.6,3.9
		C684.1,1127,682.3,1129.5,679.6,1130z"/>
	<path class="st2" d="M682.3,1155.7c-2.7,0.2-4.9-1.9-5-4.5s1.8-5,4.5-5.3c2.6-0.3,5.1,1.7,5.1,4.5
		C687,1153.2,684.9,1155.5,682.3,1155.7z"/>
	<path class="st2" d="M682.2,1181.5c-2.7-0.1-4.7-2.4-4.6-5c0.2-2.6,2.4-4.8,5-4.8c2.7,0,4.8,2.2,4.6,5
		C687.1,1179.5,684.9,1181.6,682.2,1181.5z"/>
	<path class="st2" d="M679.5,1207.2c-2.6-0.4-4.4-2.9-4-5.5s2.9-4.5,5.5-4.2c2.7,0.3,4.5,2.7,4.1,5.5
		C684.6,1205.7,682.1,1207.6,679.5,1207.2z"/>
	<path class="st2" d="M674.1,1232.5c-2.6-0.7-4.1-3.3-3.5-5.9c0.7-2.6,3.3-4.2,5.9-3.6c2.6,0.6,4.1,3.2,3.5,5.9
		C679.3,1231.6,676.7,1233.2,674.1,1232.5z"/>
	<path class="st2" d="M666.1,1257.1c-2.5-1-3.8-3.7-2.8-6.2c0.9-2.5,3.7-3.8,6.2-3s3.8,3.6,2.8,6.2
		C671.4,1256.7,668.6,1258.1,666.1,1257.1z"/>
	<path class="st2" d="M655.6,1280.7c-2.3-1.2-3.3-4.1-2.2-6.5s4-3.4,6.5-2.3c2.4,1.1,3.4,4,2.2,6.5
		C660.8,1280.9,658,1282,655.6,1280.7z"/>
	<path class="st2" d="M642.6,1303.1c-2.2-1.5-2.8-4.4-1.4-6.7c1.4-2.3,4.3-3,6.6-1.6s3,4.4,1.5,6.8
		C647.9,1303.9,644.8,1304.6,642.6,1303.1z"/>
	<path class="st2" d="M627.3,1324c-2.1-1.7-2.3-4.7-0.7-6.8c1.6-2.1,4.6-2.6,6.7-1c2.1,1.6,2.5,4.7,0.9,6.9
		C632.5,1325.3,629.4,1325.7,627.3,1324z"/>
	<path class="st2" d="M610,1343.2c-1.9-1.9-1.9-5,0-6.9s4.8-2.1,6.8-0.2c1.9,1.8,2.1,5,0.1,7C614.9,1345,611.8,1345.1,610,1343.2z"
		/>
	<path class="st2" d="M590.8,1360.5c-1.6-2.1-1.3-5.2,0.7-6.9c2-1.7,5.1-1.5,6.8,0.5c1.8,2,1.5,5.2-0.6,6.9
		C595.5,1362.9,592.4,1362.6,590.8,1360.5z"/>
	<path class="st2" d="M569.9,1375.7c-1.4-2.3-0.8-5.3,1.3-6.8c2.2-1.5,5.2-0.9,6.7,1.3c1.5,2.2,0.9,5.2-1.3,6.8
		C574.3,1378.6,571.3,1378,569.9,1375.7z"/>
	<path class="st2" d="M547.5,1388.7c-1.2-2.4-0.3-5.4,2-6.7c2.3-1.3,5.2-0.4,6.5,1.9s0.4,5.3-2,6.7
		C551.6,1392,548.7,1391.1,547.5,1388.7z"/>
	<path class="st2" d="M523.8,1399.2c-0.9-2.6,0.3-5.3,2.7-6.4s5.2,0.1,6.2,2.6s-0.2,5.4-2.7,6.5
		C527.6,1403.1,524.7,1401.7,523.8,1399.2z"/>
	<path class="st2" d="M499.2,1407.2c-0.6-2.6,0.9-5.3,3.4-6c2.5-0.8,5.1,0.6,5.9,3.2s-0.7,5.4-3.3,6.2
		C502.6,1411.3,499.9,1409.8,499.2,1407.2z"/>
	<path class="st2" d="M474,1412.6c-0.4-2.7,1.4-5.2,4-5.6s5,1.2,5.5,3.9c0.5,2.6-1.2,5.3-3.9,5.8
		C476.8,1417,474.3,1415.2,474,1412.6z"/>
	<path class="st2" d="M448.2,1415.2c-0.1-2.7,1.9-5,4.5-5.2c2.6-0.1,4.9,1.8,5.1,4.5s-1.8,5.2-4.5,5.3
		C450.6,1420,448.3,1417.9,448.2,1415.2z"/>
	<path class="st2" d="M422.4,1415.2c0.2-2.7,2.4-4.8,5-4.7c2.6,0.1,4.6,2.3,4.6,5c-0.1,2.7-2.3,4.9-5,4.8
		C424.3,1420.2,422.2,1417.9,422.4,1415.2z"/>
	<path class="st2" d="M396.7,1412.5c0.5-2.7,2.9-4.6,5.5-4.2s4.4,2.8,4,5.5c-0.3,2.7-2.8,4.6-5.5,4.3
		C398.1,1417.7,396.3,1415.2,396.7,1412.5z"/>
	<path class="st2" d="M371.4,1407.2c0.7-2.6,3.4-4.3,5.9-3.6c2.5,0.6,4,3.3,3.4,5.9c-0.6,2.7-3.2,4.3-5.9,3.6
		C372.2,1412.5,370.7,1409.8,371.4,1407.2z"/>
	<path class="st2" d="M346.8,1399.3c1-2.5,3.8-3.9,6.2-3c2.4,0.9,3.7,3.7,2.8,6.3c-0.9,2.6-3.7,3.9-6.2,3
		C347.1,1404.6,345.8,1401.8,346.8,1399.3z"/>
	<path class="st2" d="M323.2,1388.8c1.2-2.4,4.1-3.5,6.5-2.4c2.3,1.1,3.3,4,2.1,6.5c-1.1,2.5-4,3.5-6.5,2.4
		C322.9,1394.1,322,1391.3,323.2,1388.8z"/>
	<path class="st2" d="M300.9,1375.8c1.5-2.3,4.4-2.9,6.6-1.6s2.9,4.3,1.5,6.7c-1.4,2.3-4.4,3.1-6.7,1.7
		C300,1381.2,299.4,1378.1,300.9,1375.8z"/>
	<path class="st2" d="M280,1360.6c1.7-2.1,4.7-2.5,6.7-0.9c2.1,1.6,2.4,4.6,0.8,6.8c-1.6,2.2-4.7,2.7-6.8,1
		C278.6,1365.9,278.3,1362.7,280,1360.6z"/>
	<path class="st2" d="M260.9,1343.3c1.9-1.9,4.9-2,6.8-0.2c1.8,1.9,1.9,4.8,0.1,6.9c-1.8,2-5,2.2-6.9,0.3
		C258.9,1348.4,259,1345.2,260.9,1343.3z"/>
	<path class="st2" d="M243.6,1324.1c2.1-1.7,5.1-1.5,6.8,0.5c1.6,2,1.3,5.1-0.7,6.9s-5.1,1.6-6.8-0.5
		C241.2,1328.9,241.5,1325.8,243.6,1324.1z"/>
	<path class="st2" d="M228.4,1303.2c2.3-1.5,5.3-0.9,6.7,1.2c1.4,2.2,0.8,5.2-1.4,6.8c-2.2,1.6-5.2,1.1-6.7-1.2
		C225.5,1307.8,226.1,1304.7,228.4,1303.2z"/>
	<path class="st2" d="M215.5,1280.9c2.4-1.2,5.3-0.4,6.5,1.9s0.3,5.3-2,6.6c-2.3,1.4-5.3,0.5-6.5-1.9
		C212.1,1285.1,213.1,1282.1,215.5,1280.9z"/>
	<path class="st2" d="M205,1257.3c2.5-1,5.2,0.2,6.2,2.6s-0.2,5.3-2.7,6.4s-5.3,0-6.3-2.6C201.1,1261.2,202.6,1258.2,205,1257.3z"/>
	<path class="st2" d="M197.1,1232.7c2.6-0.7,5.2,0.8,5.8,3.3c0.8,2.5-0.7,5.2-3.3,6.1c-2.6,0.8-5.3-0.6-6.1-3.2
		C192.9,1236.1,194.5,1233.4,197.1,1232.7z"/>
	<path class="st2" d="M191.8,1207.4c2.6-0.4,5.1,1.3,5.5,3.9s-1.3,5.1-3.9,5.7c-2.6,0.6-5.2-1.2-5.6-3.9
		C187.3,1210.4,189.1,1207.8,191.8,1207.4z"/>
	<path class="st2" d="M189.1,1181.7c2.7-0.2,4.9,1.9,5,4.5s-1.8,5-4.5,5.3c-2.6,0.3-5.1-1.7-5.1-4.5
		C184.4,1184.2,186.5,1181.9,189.1,1181.7z"/>
	<path class="st2" d="M189.2,1155.9c2.7,0.1,4.7,2.4,4.6,5c-0.2,2.6-2.4,4.8-5,4.8c-2.7,0-4.8-2.2-4.6-5
		C184.2,1157.9,186.5,1155.7,189.2,1155.9z"/>
	<path class="st2" d="M191.9,1130.1c2.6,0.4,4.4,2.9,4,5.5s-2.9,4.5-5.5,4.2c-2.7-0.3-4.5-2.7-4.1-5.5
		C186.8,1131.6,189.3,1129.7,191.9,1130.1z"/>
	<path class="st2" d="M197.3,1104.9c2.6,0.7,4.1,3.3,3.5,5.9c-0.7,2.6-3.3,4.2-5.9,3.6c-2.6-0.6-4.1-3.2-3.5-5.9
		C192.1,1105.8,194.7,1104.2,197.3,1104.9z"/>
	<path class="st2" d="M205.3,1080.3c2.5,1,3.8,3.7,2.8,6.2c-0.9,2.5-3.7,3.8-6.2,3s-3.8-3.6-2.8-6.2
		C200,1080.6,202.8,1079.3,205.3,1080.3z"/>
	<path class="st2" d="M215.8,1056.6c2.3,1.2,3.3,4.1,2.2,6.5s-4,3.4-6.4,2.3s-3.4-4-2.2-6.5C210.5,1056.5,213.4,1055.4,215.8,1056.6
		z"/>
	<path class="st2" d="M228.8,1034.3c2.2,1.5,2.8,4.4,1.5,6.7c-1.4,2.3-4.3,3-6.6,1.6s-3-4.4-1.5-6.8
		C223.5,1033.5,226.6,1032.8,228.8,1034.3z"/>
	<path class="st2" d="M244,1013.4c2.1,1.7,2.3,4.7,0.7,6.8s-4.6,2.6-6.7,1c-2.1-1.6-2.5-4.7-0.9-6.9
		C238.9,1012,242,1011.7,244,1013.4z"/>
	<path class="st2" d="M261.4,994.2c1.9,1.9,1.9,5,0,6.9s-4.8,2.1-6.8,0.2c-1.9-1.8-2.1-5-0.1-7C256.4,992.3,259.5,992.3,261.4,994.2
		z"/>
	<path class="st2" d="M280.6,976.9c1.6,2.1,1.4,5.2-0.7,6.9c-2,1.7-5.1,1.5-6.8-0.5c-1.8-2-1.5-5.2,0.6-6.9
		C275.9,974.5,279,974.8,280.6,976.9z"/>
	<path class="st2" d="M301.5,961.6c1.4,2.3,0.8,5.3-1.3,6.8c-2.2,1.5-5.2,0.9-6.7-1.3s-0.9-5.2,1.3-6.8
		C297.1,958.8,300.1,959.4,301.5,961.6z"/>
	<path class="st2" d="M323.9,948.7c1.2,2.4,0.3,5.4-2,6.7s-5.2,0.4-6.5-1.9c-1.3-2.3-0.4-5.3,2-6.7
		C319.8,945.4,322.7,946.3,323.9,948.7z"/>
	<path class="st2" d="M347.5,938.2c0.9,2.6-0.3,5.3-2.7,6.4c-2.4,1.1-5.2-0.1-6.2-2.6s0.2-5.4,2.7-6.5
		C343.8,934.3,346.6,935.7,347.5,938.2z"/>
	<path class="st2" d="M372.1,930.2c0.7,2.6-0.9,5.3-3.4,6c-2.5,0.8-5.1-0.6-5.9-3.2c-0.8-2.6,0.7-5.4,3.3-6.2
		C368.8,926,371.5,927.6,372.1,930.2z"/>
	<path class="st2" d="M397.4,924.8c0.4,2.7-1.4,5.2-4,5.6c-2.6,0.4-5-1.2-5.5-3.9c-0.5-2.6,1.2-5.4,3.9-5.8
		C394.6,920.3,397,922.2,397.4,924.8z"/>
	<path class="st2" d="M423.1,922.1c0.1,2.7-1.9,5-4.5,5.2c-2.6,0.1-4.9-1.8-5.1-4.5s1.8-5.2,4.5-5.3
		C420.8,917.4,423,919.4,423.1,922.1z"/>
	<path class="st2" d="M449,922.2c-0.2,2.7-2.4,4.8-5,4.7s-4.6-2.3-4.6-5c0.1-2.7,2.3-4.9,5-4.8C447.1,917.2,449.2,919.4,449,922.2z"
		/>
	<path class="st2" d="M473,951.5c-0.5,2.7-3,4.6-5.6,4.2c-2.6-0.4-4.4-2.8-4-5.5s2.8-4.6,5.6-4.2C471.7,946.3,473.5,948.8,473,951.5
		z"/>
	<path class="st2" d="M498.4,957.3c-0.8,2.6-3.4,4-6,3.4c-2.5-0.6-4-3.3-3.4-5.9c0.7-2.6,3.4-4.3,6-3.6
		C497.7,951.9,499.2,954.8,498.4,957.3z"/>
	<path class="st2" d="M522.9,966.2c-1.1,2.5-3.9,3.7-6.3,2.7c-2.4-1-3.6-3.8-2.6-6.3s3.9-3.9,6.4-2.8
		C522.9,960.8,524,963.7,522.9,966.2z"/>
	<path class="st2" d="M546.3,977.9c-1.4,2.3-4.3,3.2-6.6,2s-3.1-4.2-1.9-6.6c1.3-2.4,4.2-3.3,6.6-2
		C546.9,972.5,547.7,975.5,546.3,977.9z"/>
	<path class="st2" d="M568,992.3c-1.6,2.2-4.6,2.7-6.7,1.1c-2.1-1.6-2.6-4.5-1.1-6.8c1.5-2.2,4.6-2.9,6.8-1.3
		C569.2,987,569.6,990.1,568,992.3z"/>
	<path class="st2" d="M587.9,1009.1c-1.8,1.9-4.9,2.1-6.9,0.4c-1.9-1.8-2-4.9-0.3-6.9c1.8-2.1,4.8-2.2,6.9-0.4
		C589.7,1004,589.8,1007.1,587.9,1009.1z"/>
	<path class="st2" d="M605.6,1028.3c-2.1,1.7-5.1,1.5-6.7-0.5c-1.7-2-1.5-5,0.5-6.9c2-1.8,5.1-1.7,6.9,0.4
		C608,1023.4,607.7,1026.5,605.6,1028.3z"/>
	<path class="st2" d="M621.1,1049.3c-2.3,1.5-5.3,0.9-6.7-1.3c-1.4-2.2-0.8-5.3,1.4-6.8c2.2-1.6,5.2-1,6.7,1.3
		C624,1044.7,623.4,1047.8,621.1,1049.3z"/>
	<path class="st2" d="M633.8,1072c-2.4,1.2-5.3,0.3-6.4-2.1c-1.2-2.3-0.3-5.3,2-6.6c2.3-1.3,5.3-0.4,6.6,2
		C637.3,1067.8,636.2,1070.8,633.8,1072z"/>
	<path class="st2" d="M643.9,1096.1c-2.5,0.9-5.3-0.4-6.2-2.8c-0.9-2.5,0.5-5.3,2.9-6.4c2.5-1,5.3,0.2,6.2,2.8
		C647.7,1092.3,646.4,1095.2,643.9,1096.1z"/>
	<path class="st2" d="M650.9,1121.2c-2.6,0.6-5.1-1-5.7-3.6c-0.6-2.6,1-5.2,3.5-6c2.6-0.7,5.2,0.9,5.9,3.6
		C655.3,1117.9,653.5,1120.6,650.9,1121.2z"/>
	<path class="st2" d="M655,1147c-2.7,0.3-5-1.6-5.3-4.3c-0.2-2.6,1.6-5.1,4.2-5.5c2.6-0.4,5.2,1.5,5.4,4.3
		C659.6,1144.3,657.6,1146.7,655,1147z"/>
	<path class="st2" d="M656,1173.1c-2.6,0-4.8-2.2-4.8-4.9c0-2.7,2.2-4.9,4.9-5s4.8,2.1,4.8,4.9
		C660.8,1170.9,658.7,1173.1,656,1173.1z"/>
	<path class="st2" d="M653.8,1199.1c-2.7-0.4-4.4-2.8-4.1-5.4c0.3-2.6,2.7-4.6,5.3-4.4c2.7,0.2,4.6,2.6,4.3,5.4
		S656.4,1199.5,653.8,1199.1z"/>
	<path class="st2" d="M648.7,1224.7c-2.6-0.7-4.1-3.3-3.5-5.9c0.7-2.6,3.2-4.3,5.8-3.7c2.6,0.5,4.3,3.2,3.6,5.9
		C653.9,1223.7,651.2,1225.4,648.7,1224.7z"/>
	<path class="st2" d="M640.5,1249.5c-2.4-1-3.7-3.8-2.8-6.3s3.7-3.8,6.2-3s3.8,3.7,2.8,6.3C645.8,1249.2,643,1250.5,640.5,1249.5z"
		/>
	<path class="st2" d="M629.5,1273.2c-2.3-1.3-3.2-4.2-1.9-6.6c1.2-2.4,4-3.4,6.4-2.3s3.4,4.1,2.1,6.7
		C634.8,1273.5,631.8,1274.5,629.5,1273.2z"/>
	<path class="st2" d="M615.7,1295.4c-2.2-1.5-2.7-4.6-1.2-6.8c1.5-2.2,4.5-2.8,6.7-1.4s2.8,4.5,1.2,6.8
		C620.9,1296.3,617.9,1297,615.7,1295.4z"/>
	<path class="st2" d="M599.4,1315.8c-2-1.8-2.1-4.9-0.3-6.9c1.7-2.1,4.7-2.4,6.8-0.7c2,1.7,2.3,4.8,0.5,7
		C604.5,1317.4,601.3,1317.6,599.4,1315.8z"/>
	<path class="st2" d="M580.8,1334.2c-1.7-2-1.6-5.1,0.4-6.9c1.9-1.8,5-1.7,6.8,0.2c1.9,2,1.7,5-0.4,7
		C585.6,1336.3,582.5,1336.2,580.8,1334.2z"/>
	<path class="st2" d="M560.2,1350.2c-1.5-2.2-0.9-5.2,1.2-6.8c2.1-1.6,5.1-1.2,6.7,1c1.6,2.1,1.1,5.3-1.1,7
		C564.7,1353,561.6,1352.4,560.2,1350.2z"/>
	<path class="st2" d="M537.8,1363.7c-1.2-2.4-0.3-5.4,2-6.7c2.3-1.3,5.2-0.5,6.6,1.8c1.3,2.3,0.5,5.4-2,6.7
		C542,1367,539,1366.1,537.8,1363.7z"/>
	<path class="st2" d="M514,1374.5c-0.9-2.6,0.4-5.3,2.8-6.4c2.4-1.1,5.2,0.1,6.3,2.6c1,2.5-0.2,5.4-2.7,6.5
		C517.8,1378.4,514.9,1377,514,1374.5z"/>
	<path class="st2" d="M489.1,1382.4c-0.6-2.6,0.9-5.3,3.5-6c2.5-0.6,5.2,0.7,5.9,3.3c0.7,2.6-0.8,5.4-3.5,6.1
		C492.4,1386.5,489.7,1385,489.1,1382.4z"/>
	<path class="st2" d="M463.5,1387.2c-0.3-2.7,1.6-5.2,4.1-5.6c2.6-0.4,5,1.4,5.5,4c0.4,2.7-1.4,5.2-4.1,5.7
		C466.2,1391.8,463.8,1390,463.5,1387.2z"/>
	<path class="st2" d="M437.4,1389c0-2.7,2.2-5,4.8-5c2.6-0.2,4.8,1.9,4.9,4.6s-2,5.1-4.8,5.2C439.6,1393.8,437.4,1391.7,437.4,1389z
		"/>
	<path class="st2" d="M411.3,1387.7c0.3-2.7,2.7-4.7,5.3-4.5c2.6,0.3,4.5,2.6,4.4,5.3c-0.2,2.7-2.6,4.8-5.3,4.5
		C413,1392.8,411,1390.4,411.3,1387.7z"/>
	<path class="st2" d="M385.6,1383.4c0.6-2.6,3.2-4.3,5.8-3.8c2.6,0.5,4.2,3.1,3.7,5.7c-0.5,2.7-3.1,4.4-5.8,3.9
		C386.6,1388.7,385,1386,385.6,1383.4z"/>
	<path class="st2" d="M360.6,1376c0.9-2.6,3.7-3.9,6.1-3c2.5,0.8,3.8,3.5,3,6.1s-3.6,4.1-6.2,3.3
		C361,1381.3,359.6,1378.5,360.6,1376z"/>
	<path class="st2" d="M336.6,1365.7c1.2-2.4,4.1-3.5,6.5-2.4c2.3,1.1,3.3,4.1,2.2,6.5c-1.1,2.5-4,3.6-6.5,2.4
		C336.4,1371.1,335.4,1368.1,336.6,1365.7z"/>
	<path class="st2" d="M314,1352.6c1.5-2.3,4.4-2.9,6.7-1.5c2.2,1.3,2.9,4.3,1.5,6.7c-1.4,2.3-4.4,3.1-6.8,1.7
		C313.1,1358,312.6,1354.8,314,1352.6z"/>
	<path class="st2" d="M293.2,1337c1.8-2.1,4.8-2.4,6.8-0.7c2,1.7,2.3,4.8,0.7,6.9c-1.7,2.2-4.8,2.6-6.8,0.8
		C291.7,1342.1,291.4,1339,293.2,1337z"/>
	<path class="st2" d="M274.3,1318.9c2-1.9,4.9-1.7,6.8,0.1c1.8,1.9,1.8,5-0.1,6.9c-1.9,2-5,2-6.9,0
		C272.2,1324,272.4,1320.8,274.3,1318.9z"/>
	<path class="st2" d="M257.7,1298.8c2.2-1.6,5.2-1.2,6.7,0.9s1.2,5.2-0.9,6.9c-2.1,1.7-5.2,1.4-6.8-0.8
		C255.1,1303.5,255.5,1300.4,257.7,1298.8z"/>
	<path class="st2" d="M243.6,1276.9c2.4-1.3,5.2-0.5,6.6,1.7c1.3,2.3,0.6,5.3-1.7,6.7c-2.3,1.5-5.3,0.7-6.7-1.6
		C240.3,1281.3,241.3,1278.2,243.6,1276.9z"/>
	<path class="st2" d="M232.2,1253.4c2.5-1.1,5.3,0.1,6.3,2.5c1,2.5,0,5.3-2.5,6.5c-2.4,1.2-5.4,0.2-6.4-2.4
		C228.5,1257.4,229.7,1254.5,232.2,1253.4z"/>
	<path class="st2" d="M223.6,1228.8c2.5-0.7,5.2,0.7,6,3.2s-0.7,5.3-3.2,6.2c-2.5,0.9-5.2-0.5-6-3.2
		C219.5,1232.4,221,1229.6,223.6,1228.8z"/>
	<path class="st2" d="M218.1,1203.3c2.6-0.4,5.1,1.3,5.5,3.9s-1.2,5.2-3.9,5.7c-2.6,0.6-5.2-1.2-5.7-3.9
		C213.6,1206.3,215.4,1203.7,218.1,1203.3z"/>
	<path class="st2" d="M215.5,1177.3c2.7-0.1,4.9,1.9,5,4.6c0.1,2.6-2,5-4.6,5.3c-2.7,0.3-4.9-1.8-5.1-4.6
		C210.8,1179.8,212.9,1177.5,215.5,1177.3z"/>
	<path class="st2" d="M216.1,1151.2c2.7,0.2,4.5,2.5,4.4,5.2s-2.4,4.8-5.1,4.7c-2.7-0.1-4.7-2.4-4.5-5.2
		C211,1153.1,213.5,1151,216.1,1151.2z"/>
	<path class="st2" d="M219.8,1125.4c2.6,0.5,4.3,3,3.8,5.7c-0.5,2.6-2.9,4.4-5.6,4.1c-2.6-0.4-4.5-2.9-3.9-5.7
		C214.6,1126.7,217.2,1124.9,219.8,1125.4z"/>
	<path class="st2" d="M226.4,1100.1c2.5,0.8,3.9,3.6,3.1,6.1c-0.8,2.5-3.5,4-6.1,3.3s-4-3.4-3.1-6.1
		C221.2,1100.8,223.9,1099.3,226.4,1100.1z"/>
	<path class="st2" d="M236,1075.8c2.4,1.1,3.3,4,2.3,6.4c-1,2.5-3.9,3.6-6.3,2.6c-2.5-1-3.6-3.9-2.5-6.5
		C230.6,1075.8,233.7,1074.7,236,1075.8z"/>
	<path class="st2" d="M248.5,1052.9c2.2,1.4,3,4.4,1.6,6.7c-1.4,2.3-4.3,3.1-6.6,1.8c-2.3-1.3-3.1-4.4-1.7-6.7
		C243.2,1052.2,246.2,1051.4,248.5,1052.9z"/>
	<path class="st2" d="M263.5,1031.5c2.1,1.7,2.3,4.7,0.8,6.9c-1.6,2.1-4.6,2.6-6.8,1c-2.1-1.6-2.5-4.7-0.9-6.9
		C258.3,1030.2,261.5,1029.8,263.5,1031.5z"/>
	<path class="st2" d="M281,1012.1c1.8,1.9,1.8,5,0,6.9c-1.9,1.9-4.8,2.1-6.8,0.2c-1.9-1.8-2.1-5-0.1-7
		C276.1,1010.3,279.2,1010.2,281,1012.1z"/>
	<path class="st2" d="M300.7,994.9c1.6,2.1,1.2,5.2-0.8,6.9s-5.1,1.4-6.8-0.6c-1.7-2-1.4-5.2,0.8-7
		C295.9,992.4,299,992.7,300.7,994.9z"/>
	<path class="st2" d="M322.2,980.1c1.3,2.3,0.6,5.3-1.6,6.7s-5.2,0.9-6.6-1.4c-1.4-2.2-0.8-5.4,1.5-6.9
		C317.8,977.1,320.9,977.8,322.2,980.1z"/>
	<path class="st2" d="M345.3,967.9c1,2.4,0,5.4-2.4,6.6c-2.4,1.2-5.2,0.2-6.4-2.2c-1.2-2.4-0.1-5.4,2.4-6.6
		C341.3,964.4,344.2,965.4,345.3,967.9z"/>
	<path class="st2" d="M369.7,958.6c0.8,2.6-0.6,5.3-3.1,6.2s-5.2-0.4-6.1-2.9s0.5-5.4,3.1-6.4C366.2,954.6,368.9,956,369.7,958.6z"
		/>
	<path class="st2" d="M395,952.2c0.5,2.7-1.3,5.3-3.8,5.9c-2.6,0.6-5.1-1.1-5.7-3.7c-0.6-2.6,1.1-5.3,3.8-5.9
		C392,947.8,394.6,949.5,395,952.2z"/>
	<path class="st2" d="M420.9,948.9c0.1,2.7-1.9,5-4.5,5.3s-4.9-1.6-5.2-4.3c-0.3-2.7,1.7-5.1,4.5-5.5
		C418.4,944.1,420.8,946.2,420.9,948.9z"/>
	<path class="st2" d="M447,948.7c-0.2,2.7-2.4,4.8-5,4.7c-2.6-0.2-4.7-2.2-4.7-4.9s2.3-5,5-4.9C445.1,943.7,447.2,946,447,948.7z"/>
	<path class="st2" d="M470.9,978.1c-0.5,2.7-3,4.4-5.5,4.1c-2.5-0.4-4.3-2.8-4-5.5c0.4-2.7,2.9-4.6,5.6-4.2
		C469.6,972.8,471.4,975.4,470.9,978.1z"/>
	<path class="st2" d="M496,984.4c-0.9,2.6-3.6,4.1-6,3.3s-3.9-3.4-3.2-6c0.7-2.6,3.4-4.2,6-3.4S496.8,981.9,496,984.4z"/>
	<path class="st2" d="M519.9,994.1c-1.2,2.4-4,3.5-6.4,2.4c-2.3-1-3.4-3.8-2.4-6.4c1-2.5,4-3.7,6.4-2.6
		C520.1,988.7,521.1,991.6,519.9,994.1z"/>
	<path class="st2" d="M542.4,1006.8c-1.5,2.3-4.4,2.9-6.6,1.6c-2.2-1.3-2.9-4.3-1.5-6.7s4.4-3.1,6.7-1.7
		C543.4,1001.4,543.9,1004.6,542.4,1006.8z"/>
	<path class="st2" d="M563,1022.5c-1.8,2-4.8,2.3-6.8,0.7c-2-1.6-2.2-4.7-0.6-6.9c1.7-2.2,4.7-2.5,6.8-0.7
		C564.6,1017.3,564.8,1020.4,563,1022.5z"/>
	<path class="st2" d="M581.3,1040.7c-2,1.8-5.1,1.7-6.8-0.2c-1.7-1.9-1.6-5,0.3-6.9c1.9-1.9,5.1-1.9,6.8,0.2
		C583.6,1035.8,583.4,1038.9,581.3,1040.7z"/>
	<path class="st2" d="M597.1,1061.3c-2.2,1.5-5.2,1-6.6-1.2c-1.4-2.2-1-5.1,1.2-6.8c2.1-1.6,5.3-1.2,6.8,1.1
		C599.9,1056.7,599.3,1059.7,597.1,1061.3z"/>
	<path class="st2" d="M609.9,1083.7c-2.4,1.2-5.2,0.3-6.4-2.1c-1.2-2.3-0.3-5.2,2.1-6.6c2.3-1.3,5.3-0.5,6.6,2
		C613.4,1079.5,612.3,1082.5,609.9,1083.7z"/>
	<path class="st2" d="M619.7,1107.6c-2.5,0.9-5.2-0.5-6.1-2.9c-0.9-2.4,0.5-5.3,3-6.3s5.3,0.3,6.2,2.9
		C623.7,1103.9,622.2,1106.8,619.7,1107.6z"/>
	<path class="st2" d="M626.1,1132.7c-2.6,0.5-5.2-1.1-5.7-3.7s1.2-5.2,3.8-5.8c2.6-0.7,5.2,1,5.7,3.7
		C630.5,1129.6,628.8,1132.2,626.1,1132.7z"/>
	<path class="st2" d="M629.1,1158.4c-2.7,0.2-4.9-1.8-5-4.5c-0.2-2.6,1.7-5,4.4-5.3c2.6-0.3,5.1,1.7,5.2,4.4
		C633.9,1155.9,631.8,1158.2,629.1,1158.4z"/>
	<path class="st2" d="M628.7,1184.3c-2.7-0.2-4.5-2.5-4.4-5.1s2.4-4.7,5.1-4.7c2.7,0.1,4.7,2.3,4.5,5.1
		C633.8,1182.4,631.4,1184.5,628.7,1184.3z"/>
	<path class="st2" d="M624.9,1209.9c-2.6-0.6-4.3-3.1-3.7-5.7s3-4.3,5.7-3.9c2.6,0.4,4.4,3,3.8,5.7S627.5,1210.4,624.9,1209.9z"/>
	<path class="st2" d="M617.7,1234.7c-2.5-0.9-3.8-3.7-2.9-6.1c0.8-2.5,3.5-3.9,6-3.2c2.5,0.8,3.9,3.5,3.1,6.2
		C623,1234.3,620.2,1235.7,617.7,1234.7z"/>
	<path class="st2" d="M607.2,1258.4c-2.4-1.3-3.2-4.1-2.1-6.5c1.1-2.4,4-3.4,6.4-2.3s3.4,4,2.2,6.6
		C612.6,1258.7,609.6,1259.7,607.2,1258.4z"/>
	<path class="st2" d="M593.7,1280.5c-2.1-1.6-2.7-4.6-1.2-6.8c1.5-2.2,4.5-2.8,6.7-1.4c2.3,1.4,2.8,4.5,1.3,6.8
		C598.9,1281.5,595.9,1282.1,593.7,1280.5z"/>
	<path class="st2" d="M577.3,1300.6c-1.9-1.8-2.1-4.9-0.3-6.9c1.8-1.9,4.7-2.2,6.8-0.5c2,1.7,2.3,4.9,0.4,6.9
		C582.3,1302.2,579.2,1302.4,577.3,1300.6z"/>
	<path class="st2" d="M558.4,1318.3c-1.7-2.1-1.4-5.2,0.6-6.8c2-1.8,4.9-1.6,6.7,0.4s1.6,5.1-0.5,7
		C563.2,1320.6,560.1,1320.4,558.4,1318.3z"/>
	<path class="st2" d="M537.4,1333.4c-1.4-2.3-0.6-5.2,1.5-6.7s5.1-0.9,6.6,1.3c1.5,2.2,0.9,5.3-1.4,6.9
		C541.8,1336.4,538.7,1335.7,537.4,1333.4z"/>
	<path class="st2" d="M514.5,1345.6c-1-2.4,0-5.3,2.3-6.5s5.2-0.2,6.4,2.2c1.2,2.4,0.2,5.3-2.3,6.6
		C518.5,1349.1,515.6,1348,514.5,1345.6z"/>
	<path class="st2" d="M490.2,1354.5c-0.7-2.6,0.7-5.4,3.2-6.2c2.5-0.8,5.2,0.6,6,3.1c0.9,2.6-0.5,5.4-3.2,6.2
		C493.6,1358.5,490.9,1357.1,490.2,1354.5z"/>
	<path class="st2" d="M465,1360.1c-0.4-2.7,1.4-5.2,4-5.6c2.5-0.5,5,1.2,5.5,3.8c0.5,2.6-1.2,5.3-3.9,5.8
		C467.8,1364.6,465.3,1362.8,465,1360.1z"/>
	<path class="st2" d="M439.2,1362.4c0-2.7,2.1-4.9,4.7-5.1s4.8,1.9,5,4.6s-1.9,5-4.7,5.2C441.4,1367.3,439.2,1365.1,439.2,1362.4z"
		/>
	<path class="st2" d="M413.3,1361.2c0.3-2.7,2.7-4.7,5.3-4.5c2.6,0.3,4.5,2.6,4.3,5.3c-0.2,2.7-2.6,4.8-5.3,4.5
		S413,1363.8,413.3,1361.2z"/>
	<path class="st2" d="M387.9,1356.5c0.7-2.6,3.3-4.3,5.8-3.7c2.5,0.5,4.1,3,3.6,5.7s-3.1,4.4-5.8,3.9
		C388.8,1361.8,387.2,1359.1,387.9,1356.5z"/>
	<path class="st2" d="M363.3,1348.5c1-2.5,3.8-3.7,6.2-2.9c2.4,0.9,3.7,3.7,2.8,6.2c-0.9,2.6-3.7,3.9-6.2,3
		C363.4,1354,362.2,1351.1,363.3,1348.5z"/>
	<path class="st2" d="M340,1337.3c1.4-2.4,4.3-3.3,6.5-2.1c2.3,1.2,3.1,4.2,1.9,6.6c-1.2,2.5-4.2,3.4-6.6,2.1
		C339.5,1342.7,338.6,1339.7,340,1337.3z"/>
	<path class="st2" d="M318.4,1323.1c1.6-2.2,4.7-2.7,6.7-1.1s2.6,4.5,1,6.8c-1.5,2.2-4.6,2.9-6.8,1.3
		C317.2,1328.3,316.7,1325.2,318.4,1323.1z"/>
	<path class="st2" d="M298.9,1306.1c1.9-1.9,4.9-2,6.7-0.2c1.9,1.7,2,4.8,0.2,6.8s-4.9,2.2-6.9,0.3
		C297,1311.2,297,1308,298.9,1306.1z"/>
	<path class="st2" d="M281.8,1286.6c2.2-1.7,5.1-1.3,6.7,0.7s1.3,5.1-0.8,6.9c-2,1.8-5.1,1.5-6.8-0.6
		C279.2,1291.5,279.7,1288.3,281.8,1286.6z"/>
	<path class="st2" d="M267.5,1265.1c2.3-1.3,5.3-0.7,6.6,1.6c1.3,2.2,0.6,5.2-1.7,6.7c-2.3,1.5-5.2,0.8-6.6-1.6
		C264.4,1269.5,265.1,1266.5,267.5,1265.1z"/>
	<path class="st2" d="M256.2,1241.9c2.5-1,5.3,0.1,6.3,2.5c0.9,2.4-0.1,5.3-2.5,6.5s-5.4,0.1-6.4-2.4
		C252.5,1245.8,253.7,1242.9,256.2,1241.9z"/>
	<path class="st2" d="M248.1,1217.3c2.6-0.7,5.2,0.8,5.8,3.3c0.7,2.5-0.7,5.2-3.3,6.1c-2.5,0.8-5.3-0.6-6-3.3
		C243.9,1220.7,245.5,1218,248.1,1217.3z"/>
	<path class="st2" d="M243.3,1191.9c2.7-0.3,4.9,1.5,5.4,4.1c0.4,2.6-1.5,5.1-4.1,5.6s-5.1-1.3-5.5-4.1
		C238.7,1194.7,240.7,1192.2,243.3,1191.9z"/>
	<path class="st2" d="M242,1166c2.7,0,4.8,2.2,4.8,4.8c0,2.6-2.2,4.9-4.8,5c-2.7,0.1-4.9-2-4.8-4.8
		C237.2,1168.2,239.3,1166,242,1166z"/>
	<path class="st2" d="M244.2,1140.2c2.6,0.4,4.4,2.8,4,5.4c-0.3,2.6-2.7,4.5-5.3,4.3s-4.6-2.7-4.3-5.4
		C239,1141.8,241.5,1139.9,244.2,1140.2z"/>
	<path class="st2" d="M249.7,1114.9c2.5,0.7,4,3.4,3.4,5.9c-0.7,2.5-3.3,4.1-5.9,3.6c-2.6-0.6-4.1-3.2-3.4-5.9
		C244.3,1115.8,247.1,1114.2,249.7,1114.9z"/>
	<path class="st2" d="M258.5,1090.6c2.4,1.1,3.6,3.9,2.5,6.4c-1.1,2.4-3.8,3.6-6.3,2.7c-2.5-0.9-3.7-3.8-2.6-6.4
		C253.2,1090.7,256.1,1089.5,258.5,1090.6z"/>
	<path class="st2" d="M270.6,1067.7c2.3,1.4,3,4.4,1.6,6.6c-1.3,2.3-4.2,3.2-6.5,1.9c-2.3-1.3-3.2-4.3-1.8-6.7
		C265.3,1067.1,268.3,1066.3,270.6,1067.7z"/>
	<path class="st2" d="M285.6,1046.6c2.1,1.7,2.3,4.7,0.7,6.8c-1.6,2.1-4.6,2.6-6.7,1s-2.5-4.7-0.9-6.9
		C280.4,1045.2,283.5,1044.9,285.6,1046.6z"/>
	<path class="st2" d="M303.2,1027.6c1.8,2,1.7,5-0.1,6.9c-1.8,1.9-4.9,1.9-6.8,0s-1.9-5,0.1-7
		C298.3,1025.6,301.4,1025.6,303.2,1027.6z"/>
	<path class="st2" d="M323.2,1011.1c1.5,2.2,1.1,5.3-1,6.9c-2.1,1.6-5.1,1.2-6.7-0.9c-1.7-2.1-1.2-5.2,1-6.9
		C318.7,1008.5,321.7,1008.9,323.2,1011.1z"/>
	<path class="st2" d="M345.2,997.5c1.2,2.4,0.4,5.4-1.9,6.6c-2.3,1.2-5.1,0.6-6.5-1.8c-1.3-2.3-0.6-5.4,1.9-6.8
		C341.1,994.3,344,995.1,345.2,997.5z"/>
	<path class="st2" d="M368.9,987c0.9,2.5-0.4,5.4-2.8,6.3c-2.4,1.1-5.2-0.1-6.2-2.6s0.2-5.4,2.7-6.5
		C365.2,983.2,368,984.4,368.9,987z"/>
	<path class="st2" d="M393.7,979.6c0.5,2.7-1.1,5.2-3.6,5.9s-5.1-0.9-5.8-3.5c-0.7-2.6,0.9-5.3,3.6-6
		C390.5,975.3,393.2,977,393.7,979.6z"/>
	<path class="st2" d="M419.3,975.6c0.2,2.7-1.7,5.1-4.3,5.4c-2.6,0.3-4.9-1.6-5.3-4.3c-0.3-2.7,1.6-5.2,4.3-5.5
		C416.7,971,419.1,973,419.3,975.6z"/>
	<path class="st2" d="M445.2,975.2c-0.2,2.7-2.4,4.8-5,4.7c-2.6,0-4.7-2.1-4.6-4.9c0-2.7,2.2-5,5-4.9
		C443.2,970.2,445.3,972.5,445.2,975.2z"/>
	<path class="st2" d="M469.2,1005c-0.6,2.7-3.1,4.3-5.6,3.8c-2.6-0.3-4.3-2.7-4-5.4c0.4-2.7,2.9-4.6,5.7-4.3
		C468,999.7,469.8,1002.4,469.2,1005z"/>
	<path class="st2" d="M494.4,1012.1c-1,2.5-3.8,4-6.2,3.1c-2.5-0.8-3.8-3.6-3-6.2c0.8-2.6,3.6-4,6.2-3.1S495.4,1009.6,494.4,1012.1z
		"/>
	<path class="st2" d="M518.1,1023.3c-1.4,2.4-4.3,3.2-6.5,1.9c-2.2-1.4-3.2-4.1-2-6.6c1.2-2.4,4.3-3.6,6.6-2.2
		C518.6,1017.9,519.4,1020.9,518.1,1023.3z"/>
	<path class="st2" d="M539.9,1037.9c-0.8,1.1-2,1.7-3.2,1.8c-1.2,0.2-2.5,0-3.6-0.8c-2.1-1.5-2.5-4.5-1-6.8c1.5-2.2,4.6-2.8,6.9-1.1
		c1.1,0.8,1.8,2,2,3.2C541.1,1035.5,540.7,1036.8,539.9,1037.9z"/>
	<path class="st2" d="M558.9,1055.8c-2,1.8-5.1,1.8-6.8-0.1c-1.8-1.9-1.7-5,0.2-7s4.9-1.9,6.8,0.1S560.9,1054,558.9,1055.8z"/>
	<path class="st2" d="M575,1076.5c-2.2,1.5-5.2,0.9-6.6-1.3c-1.5-2.2-1.1-5.1,1.1-6.8c2.1-1.6,5.3-1.3,6.9,1
		C577.9,1071.8,577.3,1075,575,1076.5z"/>
	<path class="st2" d="M587.9,1099.3c-2.4,1.1-5.4,0.2-6.5-2.2c-1.2-2.3-0.2-5.3,2.2-6.6c2.4-1.3,5.3-0.3,6.5,2.2
		C591.3,1095.2,590.3,1098.2,587.9,1099.3z"/>
	<path class="st2" d="M596.6,1124c-2.6,0.7-5.2-0.7-5.9-3.2s0.8-5.3,3.3-6.2c2.5-0.9,5.2,0.5,5.9,3.2
		C600.7,1120.5,599.2,1123.3,596.6,1124z"/>
	<path class="st2" d="M601.7,1149.7c-2.7,0.3-4.8-1.6-5.3-4.2c-0.4-2.6,1.3-5.1,4-5.6c2.6-0.5,5.2,1.3,5.6,4.1
		C606.5,1146.8,604.2,1149.4,601.7,1149.7z"/>
	<path class="st2" d="M602.5,1175.9c-2.7-0.1-4.8-2.3-4.7-5c0.1-2.6,2.3-4.8,5-4.9s4.8,2.2,4.7,5S605.1,1176,602.5,1175.9z"/>
	<path class="st2" d="M599.3,1201.9c-2.6-0.5-4.2-3-3.7-5.6c0.3-2.6,2.8-4.5,5.4-4.1c2.6,0.3,4.5,2.9,4.1,5.7
		C604.5,1200.6,601.9,1202.4,599.3,1201.9z"/>
	<path class="st2" d="M592.1,1227.1c-2.5-0.9-3.8-3.7-3-6.3c0.9-2.5,3.6-3.9,6.2-3.2c2.5,0.8,3.9,3.6,3,6.2
		C597.3,1226.7,594.6,1228.1,592.1,1227.1z"/>
	<path class="st2" d="M580.9,1250.9c-2.3-1.3-3.1-4.3-1.8-6.6c1.4-2.3,4.1-3.3,6.5-2.2c2.4,1.1,3.5,4.2,2,6.7
		C586.2,1251.3,583.2,1252.2,580.9,1250.9z"/>
	<path class="st2" d="M566.3,1272.7c-1-0.8-1.6-2-1.7-3.2c-0.2-1.3,0.1-2.6,0.9-3.7c1.5-2.2,4.5-2.7,6.7-1.2s2.6,4.7,1,7
		c-0.8,1.2-2,1.9-3.2,2.1C568.7,1273.8,567.4,1273.5,566.3,1272.7z"/>
	<path class="st2" d="M548.3,1291.8c-1.8-2-1.7-5.1,0.2-7c1.9-1.8,5-1.8,6.9,0c1.9,1.9,1.8,5-0.2,6.9
		C553.2,1293.8,550.1,1293.8,548.3,1291.8z"/>
	<path class="st2" d="M527.7,1307.9c-1.4-2.3-0.8-5.3,1.4-6.7c2.2-1.5,5-1.2,6.7,1c1.6,2.1,1.1,5.4-1.2,7
		C532.2,1310.7,529.1,1310.1,527.7,1307.9z"/>
	<path class="st2" d="M504.8,1320.8c-1.1-2.5,0-5.5,2.3-6.7s5.2-0.3,6.4,2.1s0.2,5.4-2.3,6.7
		C508.8,1324.2,505.9,1323.2,504.8,1320.8z"/>
	<path class="st2" d="M480.1,1329.6c-0.7-2.6,0.8-5.3,3.3-6.1c2.5-0.8,5.2,0.7,6.1,3.3c0.8,2.5-0.6,5.3-3.3,6.1
		C483.5,1333.7,480.8,1332.2,480.1,1329.6z"/>
	<path class="st2" d="M454.4,1334.7c-0.3-2.8,1.7-4.9,4.2-5.5c2.6-0.5,5,1.3,5.4,3.9c0.4,2.7-1.4,5.3-4.2,5.8
		C457.1,1339.5,454.6,1337.3,454.4,1334.7z"/>
	<path class="st2" d="M428.2,1335.5c0.2-2.7,2.4-4.9,5-4.9s4.7,2.3,4.8,5c0,2.7-2.2,4.9-5,4.9S428,1338.2,428.2,1335.5z"/>
	<path class="st2" d="M402.2,1332.4c0.6-2.7,3.1-4.3,5.6-3.8c2.6,0.3,4.4,2.7,4,5.4c-0.4,2.7-2.9,4.6-5.7,4.3
		C403.4,1337.7,401.6,1335,402.2,1332.4z"/>
	<path class="st2" d="M377,1325.2c1-2.5,3.8-4,6.2-3.1c2.5,0.8,3.8,3.6,3,6.2s-3.6,4-6.2,3.1C377.4,1330.5,376,1327.8,377,1325.2z"
		/>
	<path class="st2" d="M353.3,1314.1c1.4-2.4,4.3-3.2,6.5-2c2.2,1.4,3.2,4.1,2,6.6c-1.2,2.4-4.3,3.6-6.6,2.2
		C352.8,1319.5,351.9,1316.4,353.3,1314.1z"/>
	<path class="st2" d="M331.5,1299.5c0.8-1.1,2-1.7,3.2-1.8c1.3-0.2,2.5,0,3.6,0.8c2.1,1.5,2.5,4.5,1,6.8c-1.5,2.2-4.6,2.7-6.9,1.1
		c-1.1-0.8-1.8-2-2-3.2C330.3,1301.9,330.7,1300.6,331.5,1299.5z"/>
	<path class="st2" d="M312.4,1281.6c2-1.8,5.1-1.8,6.8,0.1c1.8,1.9,1.7,5-0.2,7c-1.9,2-4.9,1.9-6.8-0.1
		C310.4,1286.5,310.5,1283.4,312.4,1281.6z"/>
	<path class="st2" d="M296.4,1260.9c2.3-1.5,5.2-0.9,6.6,1.3c1.5,2.2,1.1,5.1-1.1,6.8c-2.1,1.6-5.3,1.3-6.9-1
		C293.5,1265.6,294.1,1262.4,296.4,1260.9z"/>
	<path class="st2" d="M283.5,1238.1c2.4-1.1,5.4-0.2,6.5,2.2c1.2,2.3,0.2,5.3-2.2,6.6c-2.4,1.3-5.3,0.3-6.5-2.2
		C280.1,1242.2,281.1,1239.2,283.5,1238.1z"/>
	<path class="st2" d="M274.7,1213.4c2.6-0.7,5.2,0.7,5.9,3.3c0.7,2.5-0.8,5.3-3.3,6.2c-2.5,0.9-5.2-0.5-5.9-3.2
		C270.7,1216.9,272.2,1214.1,274.7,1213.4z"/>
	<path class="st2" d="M269.7,1187.7c2.7-0.3,4.8,1.6,5.3,4.2c0.4,2.6-1.3,5.1-4,5.6c-2.6,0.5-5.1-1.3-5.6-4.1
		S267.1,1188,269.7,1187.7z"/>
	<path class="st2" d="M268.9,1161.5c2.7,0.1,4.8,2.3,4.7,5c-0.1,2.6-2.3,4.8-5,4.9s-4.8-2.2-4.7-5
		C264,1163.6,266.3,1161.4,268.9,1161.5z"/>
	<path class="st2" d="M272.1,1135.5c2.6,0.5,4.2,3,3.7,5.6c-0.3,2.6-2.8,4.5-5.4,4.1c-2.6-0.3-4.5-2.9-4.1-5.7
		C266.8,1136.8,269.5,1134.9,272.1,1135.5z"/>
	<path class="st2" d="M279.3,1110.2c2.5,0.9,3.8,3.7,3,6.3c-0.9,2.5-3.6,3.9-6.2,3.2c-2.5-0.8-3.9-3.6-3-6.3
		C274,1110.7,276.8,1109.3,279.3,1110.2z"/>
	<path class="st2" d="M290.5,1086.5c2.3,1.3,3.1,4.3,1.8,6.6c-1.4,2.3-4.1,3.3-6.5,2.2c-2.4-1.1-3.5-4.3-2-6.7
		C285.2,1086.1,288.2,1085.2,290.5,1086.5z"/>
	<path class="st2" d="M305.1,1064.7c1,0.8,1.6,2,1.7,3.2c0.2,1.3-0.1,2.6-0.9,3.7c-1.5,2.2-4.5,2.7-6.7,1.2s-2.6-4.7-1-7
		c0.8-1.2,2-1.9,3.2-2.1C302.7,1063.6,304,1063.9,305.1,1064.7z"/>
	<path class="st2" d="M323,1045.6c1.8,2,1.7,5.1-0.2,7c-1.9,1.8-5,1.8-6.9,0c-1.9-1.9-1.8-5,0.2-6.9
		C318.2,1043.6,321.3,1043.6,323,1045.6z"/>
	<path class="st2" d="M343.7,1029.5c1.4,2.3,0.8,5.3-1.4,6.7c-2.1,1.5-5,1.2-6.7-0.9c-1.6-2.1-1.1-5.4,1.2-7
		C339.2,1026.7,342.3,1027.2,343.7,1029.5z"/>
	<path class="st2" d="M366.6,1016.6c1.1,2.5,0,5.5-2.3,6.7s-5.2,0.3-6.4-2.1c-1.2-2.4-0.2-5.4,2.3-6.7
		C362.6,1013.2,365.5,1014.1,366.6,1016.6z"/>
	<path class="st2" d="M391.3,1007.8c0.7,2.6-0.8,5.3-3.3,6.1s-5.2-0.7-6.1-3.3c-0.8-2.6,0.6-5.3,3.3-6.1
		C387.9,1003.7,390.6,1005.2,391.3,1007.8z"/>
	<path class="st2" d="M417,1002.7c0.3,2.8-1.7,4.9-4.2,5.5c-2.6,0.5-5-1.3-5.4-3.9c-0.4-2.7,1.4-5.3,4.2-5.8
		C414.3,997.9,416.7,1000.1,417,1002.7z"/>
	<path class="st2" d="M443.2,1001.9c-0.2,2.7-2.4,4.9-5,4.9s-4.7-2.3-4.7-5s2.2-4.9,5-4.9C441.2,996.9,443.3,999.1,443.2,1001.9z"/>
	<path class="st2" d="M467,1031.8c-0.6,2.6-3.2,4.4-5.7,3.8c-2.5-0.7-4.2-2.9-3.8-5.6c0.4-2.6,3-4.7,5.7-4.1
		C466,1026.5,467.6,1029.1,467,1031.8z"/>
	<path class="st2" d="M491.6,1039.8c-1.1,2.5-3.9,3.7-6.2,2.6c-2.4-0.8-3.6-3.5-2.7-6.1s3.8-4,6.4-3.1
		C491.6,1034.4,492.7,1037.3,491.6,1039.8z"/>
	<path class="st2" d="M514.3,1052.2c-1.6,2.3-4.4,2.8-6.6,1.5s-2.9-4.2-1.5-6.6c1.3-2.4,4.4-3.2,6.8-1.8
		C515.4,1046.7,515.8,1050,514.3,1052.2z"/>
	<path class="st2" d="M534.4,1068.6c-1.9,2-4.8,1.9-6.8,0.3c-1.9-1.7-2-4.7-0.3-6.8c1.8-2.1,4.9-2.3,6.9-0.5
		C536.4,1063.4,536.3,1066.7,534.4,1068.6z"/>
	<path class="st2" d="M551.1,1088.4c-1.1,0.8-2.4,1-3.6,0.8c-1.2-0.2-2.4-0.7-3.2-1.8c-1.6-2-1.1-5.1,1-6.8c2.1-1.7,5.2-1.4,6.8,0.8
		c0.8,1.1,1.2,2.4,1,3.7C552.9,1086.4,552.2,1087.6,551.1,1088.4z"/>
	<path class="st2" d="M563.9,1110.9c-2.4,1.1-5.3,0.2-6.5-2.1c-1.1-2.3-0.2-5.2,2.2-6.6c2.4-1.3,5.3-0.4,6.5,2.1
		C567.4,1106.9,566.4,1109.8,563.9,1110.9z"/>
	<path class="st2" d="M572.3,1135.5c-2.6,0.6-5.3-0.8-6-3.3s0.8-5.2,3.4-6.1c2.5-0.9,5.2,0.6,5.9,3.3
		C576.4,1132.1,574.9,1134.8,572.3,1135.5z"/>
	<path class="st2" d="M575.9,1161.1c-2.7,0.2-5-1.8-5.2-4.4s1.8-5,4.5-5.4c2.6-0.4,5,1.6,5.2,4.4
		C580.6,1158.6,578.6,1161,575.9,1161.1z"/>
	<path class="st2" d="M574.8,1187c-2.6-0.3-4.5-2.7-4.2-5.3c0.4-2.6,2.7-4.6,5.3-4.5c2.7,0.1,4.7,2.5,4.3,5.3
		C579.9,1185.4,577.4,1187.4,574.8,1187z"/>
	<path class="st2" d="M569.1,1212.3c-2.5-0.8-3.9-3.5-3.1-6c0.8-2.5,3.2-4.1,5.9-3.4c2.5,0.6,4.3,3.4,3.4,6.1
		C574.4,1211.6,571.6,1213.1,569.1,1212.3z"/>
	<path class="st2" d="M558.8,1236.1c-2.3-1.3-3.1-4.2-1.9-6.5c1.1-2.4,3.9-3.4,6.3-2.3c2.4,1.1,3.4,4.1,2.3,6.7
		C564.2,1236.5,561.1,1237.4,558.8,1236.1z"/>
	<path class="st2" d="M544.3,1257.6c-2.1-1.8-2.2-4.6-0.7-6.8c1.5-2.1,4.5-2.6,6.6-1.1c2.2,1.5,2.6,4.7,1,7
		S546.2,1259.2,544.3,1257.6z"/>
	<path class="st2" d="M526.1,1276.1c-1.7-2.1-1.4-5,0.5-6.9c1.9-1.8,4.9-1.7,6.7,0.2c1.8,1.9,1.7,5.1-0.3,7
		C530.9,1278.4,527.7,1278.1,526.1,1276.1z"/>
	<path class="st2" d="M504.8,1290.9c-1.2-2.3-0.5-5.3,1.7-6.8c2.2-1.4,5.1-0.8,6.6,1.5c1.5,2.2,0.7,5.3-1.6,6.8
		C509.1,1294.1,506.1,1293.3,504.8,1290.9z"/>
	<path class="st2" d="M481.2,1301.6c-0.8-2.6,0.4-5.4,2.8-6.4s5.2,0.2,6.2,2.7s-0.2,5.4-2.8,6.4
		C484.7,1305.4,482,1304.2,481.2,1301.6z"/>
	<path class="st2" d="M455.9,1307.7c-0.3-2.7,1.4-5.3,3.9-5.8s5,1.3,5.6,3.9s-1.2,5.2-3.9,5.8
		C458.8,1312.1,456.3,1310.4,455.9,1307.7z"/>
	<path class="st2" d="M430.1,1309c0.2-2.7,2.4-4.9,4.9-4.9c2.6,0,4.7,2.3,4.7,5c0.1,2.7-2.1,4.9-4.9,4.9
		C432,1313.9,429.9,1311.7,430.1,1309z"/>
	<path class="st2" d="M404.4,1305.6c0.6-2.6,3.2-4.4,5.7-3.8c2.5,0.7,4.2,2.9,3.8,5.6c-0.4,2.6-3,4.7-5.7,4.1
		C405.4,1310.9,403.7,1308.2,404.4,1305.6z"/>
	<path class="st2" d="M379.8,1297.6c1.1-2.5,3.9-3.7,6.2-2.6c2.4,0.8,3.6,3.5,2.7,6.1s-3.8,4-6.4,3.1
		C379.8,1303,378.7,1300.1,379.8,1297.6z"/>
	<path class="st2" d="M357,1285.2c1.6-2.3,4.4-2.8,6.6-1.5s2.9,4.2,1.5,6.6c-1.3,2.4-4.4,3.2-6.8,1.8
		C356,1290.6,355.5,1287.4,357,1285.2z"/>
	<path class="st2" d="M337,1268.8c1.9-2,4.8-1.9,6.8-0.3c1.9,1.7,2,4.7,0.3,6.8c-1.7,2.1-4.9,2.3-6.9,0.5
		C335,1274,335.1,1270.7,337,1268.8z"/>
	<path class="st2" d="M320.3,1249c1.1-0.8,2.4-1,3.6-0.8s2.4,0.7,3.2,1.8c1.6,2,1.1,5.1-1,6.8c-2.1,1.7-5.2,1.4-6.8-0.8
		c-0.8-1.1-1.2-2.4-1-3.7C318.5,1250.9,319.2,1249.8,320.3,1249z"/>
	<path class="st2" d="M307.5,1226.4c2.4-1.1,5.3-0.2,6.5,2.1c1.1,2.3,0.2,5.2-2.2,6.6c-2.4,1.3-5.3,0.4-6.5-2.1
		C304,1230.5,305,1227.6,307.5,1226.4z"/>
	<path class="st2" d="M299.1,1201.9c2.6-0.7,5.3,0.8,6,3.3s-0.8,5.2-3.4,6.1c-2.5,0.9-5.2-0.6-6-3.3
		C295,1205.3,296.5,1202.6,299.1,1201.9z"/>
	<path class="st2" d="M295.5,1176.2c2.7-0.2,5,1.8,5.2,4.4s-1.8,5-4.5,5.4c-2.6,0.4-5-1.6-5.2-4.4
		C290.8,1178.8,292.8,1176.4,295.5,1176.2z"/>
	<path class="st2" d="M296.6,1150.4c2.6,0.3,4.5,2.7,4.2,5.3c-0.4,2.6-2.7,4.6-5.3,4.5c-2.7-0.1-4.7-2.5-4.3-5.3
		C291.5,1152,293.9,1150,296.6,1150.4z"/>
	<path class="st2" d="M302.3,1125.1c2.5,0.8,3.9,3.5,3.1,6s-3.2,4.1-5.9,3.4c-2.5-0.6-4.3-3.4-3.4-6.1
		C297,1125.8,299.8,1124.2,302.3,1125.1z"/>
	<path class="st2" d="M312.6,1101.3c2.3,1.3,3.1,4.2,1.9,6.5c-1.1,2.4-3.9,3.4-6.3,2.3s-3.4-4.1-2.3-6.7
		C307.2,1100.9,310.3,1100,312.6,1101.3z"/>
	<path class="st2" d="M327.1,1079.8c2.1,1.8,2.2,4.6,0.7,6.8c-1.5,2.1-4.5,2.6-6.6,1.1c-2.2-1.5-2.6-4.7-1-7
		C321.8,1078.3,325.1,1078.1,327.1,1079.8z"/>
	<path class="st2" d="M345.3,1061.3c1.7,2.1,1.4,5-0.5,6.9c-1.9,1.8-4.9,1.7-6.7-0.2c-1.8-1.9-1.7-5.1,0.3-7
		C340.4,1058.9,343.6,1059.2,345.3,1061.3z"/>
	<path class="st2" d="M366.6,1046.4c1.2,2.3,0.5,5.3-1.7,6.8c-2.2,1.4-5.1,0.8-6.6-1.5c-1.5-2.2-0.7-5.3,1.6-6.8
		C362.3,1043.3,365.3,1044,366.6,1046.4z"/>
	<path class="st2" d="M390.2,1035.7c0.8,2.6-0.4,5.4-2.8,6.4s-5.2-0.2-6.2-2.7s0.2-5.4,2.8-6.4
		C386.6,1032,389.4,1033.2,390.2,1035.7z"/>
	<path class="st2" d="M415.4,1029.7c0.3,2.7-1.4,5.3-3.9,5.8s-5-1.3-5.6-3.9s1.2-5.2,3.9-5.8C412.6,1025.3,415.1,1027,415.4,1029.7z
		"/>
	<path class="st2" d="M441.3,1028.4c-0.2,2.7-2.3,4.9-4.9,4.9s-4.7-2.3-4.7-5c-0.1-2.7,2.1-4.9,4.9-4.9
		C439.4,1023.4,441.5,1025.7,441.3,1028.4z"/>
	<path class="st2" d="M464.7,1058.5c-0.7,2.6-3.3,4.3-5.7,3.8c-2.4-0.5-4-3.2-3.5-5.8c0.5-2.7,3-4.4,5.7-3.8
		C463.9,1053.3,465.4,1055.9,464.7,1058.5z"/>
	<path class="st2" d="M488.5,1067.7c-0.6,1.2-1.7,2-2.8,2.4c-1.2,0.5-2.4,0.5-3.6,0c-2.3-1-3.2-3.9-2.2-6.4s3.9-3.7,6.4-2.5
		c1.2,0.6,2.1,1.6,2.5,2.7C489.2,1065.1,489.1,1066.5,488.5,1067.7z"/>
	<path class="st2" d="M509.6,1082c-1.8,2.1-4.7,2.4-6.6,0.8c-2-1.4-2.4-4.4-0.8-6.6s4.6-2.7,6.9-1.1
		C511.1,1076.8,511.3,1079.9,509.6,1082z"/>
	<path class="st2" d="M527,1100.6c-2.2,1.6-5.2,1.4-6.7-0.6s-1.2-5,0.8-6.8c2-1.9,5.1-1.7,6.8,0.6
		C529.6,1095.8,529.2,1098.9,527,1100.6z"/>
	<path class="st2" d="M539.9,1122.5c-2.4,1.1-5.2,0.1-6.4-2.1c-1.1-2.2-0.1-5.1,2.2-6.5c2.3-1.3,5.3-0.4,6.5,2
		C543.5,1118.5,542.4,1121.4,539.9,1122.5z"/>
	<path class="st2" d="M547.4,1146.9c-2.6,0.5-5.1-1.1-5.6-3.5c-0.7-2.4,0.9-5,3.5-5.8s5.2,0.8,6,3.4
		C551.8,1143.7,550,1146.4,547.4,1146.9z"/>
	<path class="st2" d="M549.4,1172.3c-2.7-0.1-4.8-2.2-4.7-4.7c0.2-2.5,2.1-4.7,4.8-4.9c2.6-0.2,5.1,1.9,4.9,4.7
		C554.3,1170.2,552.1,1172.4,549.4,1172.3z"/>
	<path class="st2" d="M545.8,1197.6c-2.6-0.7-4.2-3.2-3.6-5.7c0.6-2.5,3.2-4.1,5.8-3.7s4.3,3,3.6,5.7
		C551,1196.6,548.3,1198.2,545.8,1197.6z"/>
	<path class="st2" d="M536.6,1221.4c-1.2-0.6-2-1.6-2.3-2.8c-0.4-1.2-0.4-2.5,0.1-3.6c1-2.3,3.9-3.4,6.3-2.4c2.5,1,3.5,3.9,2.4,6.5
		c-0.6,1.3-1.6,2.2-2.7,2.6C539.1,1222.1,537.8,1222,536.6,1221.4z"/>
	<path class="st2" d="M522.2,1242.5c-2-1.8-2.3-4.7-0.6-6.7c1.5-2.1,4.4-2.5,6.6-1c2.2,1.5,2.6,4.7,1,7
		C527.3,1243.9,524.2,1244.2,522.2,1242.5z"/>
	<path class="st2" d="M503.7,1259.9c-1.6-2.2-1.2-5.2,0.8-6.8c2-1.5,5-1.3,6.7,0.7c1.8,2,1.5,5.2-0.7,6.9
		C508.2,1262.4,505.2,1262.1,503.7,1259.9z"/>
	<path class="st2" d="M481.7,1272.9c-1-2.4,0-5.3,2.2-6.5s5.1-0.2,6.3,2.1c1.3,2.3,0.3,5.3-2.2,6.6
		C485.6,1276.4,482.7,1275.4,481.7,1272.9z"/>
	<path class="st2" d="M457.3,1280.4c-0.5-2.7,1.2-5.2,3.6-5.7c2.4-0.7,4.9,0.8,5.6,3.4s-0.9,5.3-3.5,6.1
		C460.3,1284.9,457.8,1283.1,457.3,1280.4z"/>
	<path class="st2" d="M431.9,1282.5c0.1-2.7,2.3-4.9,4.8-4.9c2.5,0.1,4.6,2,4.7,4.7s-2,5.2-4.8,5.1
		C433.9,1287.4,431.8,1285.2,431.9,1282.5z"/>
	<path class="st2" d="M406.7,1278.9c0.7-2.6,3.3-4.3,5.7-3.8c2.4,0.5,4,3.2,3.5,5.8c-0.5,2.7-3,4.4-5.7,3.8
		C407.5,1284.1,405.9,1281.5,406.7,1278.9z"/>
	<path class="st2" d="M382.9,1269.7c0.6-1.2,1.7-2,2.8-2.4c1.2-0.5,2.4-0.5,3.6,0c2.3,1,3.2,3.9,2.2,6.4s-3.9,3.7-6.4,2.5
		c-1.2-0.6-2.1-1.6-2.5-2.7C382.1,1272.3,382.3,1270.9,382.9,1269.7z"/>
	<path class="st2" d="M361.8,1255.4c1.8-2.1,4.7-2.4,6.6-0.8c2,1.4,2.4,4.4,0.8,6.6s-4.6,2.7-6.9,1.1
		C360.3,1260.6,360.1,1257.5,361.8,1255.4z"/>
	<path class="st2" d="M344.4,1236.8c2.2-1.6,5.2-1.3,6.7,0.6c1.5,2,1.2,5-0.8,6.8c-2,1.9-5.1,1.7-6.8-0.6
		C341.8,1241.5,342.2,1238.4,344.4,1236.8z"/>
	<path class="st2" d="M331.5,1214.8c2.4-1.1,5.2-0.1,6.4,2.1c1.1,2.2,0.1,5.1-2.2,6.5c-2.3,1.3-5.3,0.4-6.5-2
		C327.9,1218.9,329,1216,331.5,1214.8z"/>
	<path class="st2" d="M324,1190.5c2.6-0.5,5.1,1.1,5.6,3.5c0.7,2.4-0.9,5-3.5,5.8s-5.3-0.8-6-3.4
		C319.5,1193.7,321.3,1191,324,1190.5z"/>
	<path class="st2" d="M322,1165.1c2.7,0.1,4.8,2.2,4.7,4.7c-0.2,2.5-2.1,4.7-4.8,4.9c-2.6,0.2-5.1-1.9-4.9-4.7
		C317.1,1167.2,319.3,1165,322,1165.1z"/>
	<path class="st2" d="M325.6,1139.8c2.6,0.7,4.2,3.2,3.6,5.7s-3.2,4.1-5.8,3.7c-2.6-0.4-4.2-3-3.6-5.7
		C320.4,1140.8,323,1139.1,325.6,1139.8z"/>
	<path class="st2" d="M334.8,1116c1.2,0.6,2,1.6,2.3,2.8c0.4,1.2,0.4,2.5-0.1,3.6c-1,2.3-3.9,3.4-6.3,2.4c-2.5-1-3.5-3.9-2.4-6.5
		c0.6-1.3,1.6-2.2,2.7-2.6C332.3,1115.3,333.6,1115.4,334.8,1116z"/>
	<path class="st2" d="M349.1,1094.9c2,1.8,2.3,4.7,0.6,6.7c-1.5,2.1-4.4,2.5-6.6,1s-2.6-4.7-1-7
		C344,1093.5,347.1,1093.2,349.1,1094.9z"/>
	<path class="st2" d="M367.7,1077.4c1.6,2.2,1.2,5.2-0.8,6.8c-2,1.5-5,1.3-6.7-0.7c-1.8-2-1.5-5.2,0.7-6.9
		C363.1,1074.9,366.2,1075.3,367.7,1077.4z"/>
	<path class="st2" d="M389.7,1064.5c1,2.4,0,5.3-2.2,6.5s-5.1,0.2-6.3-2.1c-1.3-2.4-0.3-5.3,2.2-6.6
		C385.8,1060.9,388.7,1062,389.7,1064.5z"/>
	<path class="st2" d="M414.1,1056.9c0.5,2.7-1.2,5.2-3.6,5.7c-2.4,0.7-4.9-0.8-5.6-3.4s0.9-5.3,3.5-6.1
		C411,1052.5,413.6,1054.3,414.1,1056.9z"/>
	<path class="st2" d="M439.5,1054.9c-0.1,2.7-2.3,4.9-4.8,4.9c-2.5-0.1-4.6-2-4.7-4.7s2-5.2,4.8-5.1
		C437.5,1050,439.6,1052.2,439.5,1054.9z"/>
	<path class="st2" d="M463.1,1085.8c-0.9,2.6-3.5,3.9-5.9,3.3c-2.4-0.5-4-3.1-3.4-5.8c0.5-2.7,3.2-4.3,6-3.7
		C462.6,1080.3,464,1083.3,463.1,1085.8z"/>
	<path class="st2" d="M486.3,1097.5c-1.6,2.2-4.5,2.8-6.6,1.4c-2.2-1.2-2.9-4.2-1.6-6.6s4.3-3.2,6.8-1.8
		C487.3,1092.2,487.9,1095.3,486.3,1097.5z"/>
	<path class="st2" d="M505,1115.6c-2.2,1.6-5.1,1.4-6.7-0.6c-1.6-1.9-1.5-4.9,0.4-6.8s5.1-1.8,7,0.3
		C507.5,1110.8,507.1,1113.9,505,1115.6z"/>
	<path class="st2" d="M517.5,1138.4c-2.5,0.9-5.3-0.2-6.2-2.6c-0.9-2.4,0-5.1,2.4-6.4c2.3-1.2,5.5-0.3,6.5,2.4
		C521.3,1134.5,520.1,1137.4,517.5,1138.4z"/>
	<path class="st2" d="M522.8,1163.8c-2.7,0.1-5-1.8-5.2-4.3c-0.1-2.5,1.5-4.9,4.2-5.5c2.5-0.5,5.3,1.4,5.4,4.3
		C527.5,1161.2,525.5,1163.7,522.8,1163.8z"/>
	<path class="st2" d="M520.3,1189.8c-2.6-0.7-4.2-3.2-3.6-5.7c0.6-2.5,2.8-4.3,5.5-4c2.6,0.3,4.6,2.9,4,5.7
		C525.5,1188.6,522.9,1190.4,520.3,1189.8z"/>
	<path class="st2" d="M510.3,1213.8c-2.3-1.4-3.1-4.3-1.8-6.6c1.3-2.2,3.9-3.3,6.4-2.2c2.4,1.1,3.5,4.2,2.1,6.7
		C515.6,1214.3,512.6,1215.2,510.3,1213.8z"/>
	<path class="st2" d="M493.7,1233.8c-1.7-2-1.7-5.1,0.2-6.9c1.9-1.7,4.7-2,6.7-0.2c2,1.7,2.2,5.1,0,7.1
		C498.6,1235.9,495.4,1235.9,493.7,1233.8z"/>
	<path class="st2" d="M471.9,1248.1c-1.1-2.5-0.1-5.4,2.1-6.6c1.1-0.6,2.4-0.6,3.6-0.3c1.1,0.3,2.2,1,2.9,2.2
		c0.7,1.2,0.8,2.5,0.5,3.8c-0.4,1.2-1.3,2.3-2.5,3C475.9,1251.5,473,1250.6,471.9,1248.1z"/>
	<path class="st2" d="M446.9,1255.3c-0.3-2.6,1.5-5.3,4-5.7c2.5-0.4,5,1.2,5.6,3.8c0.6,2.7-1.1,5.3-3.9,5.8
		C449.7,1259.8,447.2,1258.1,446.9,1255.3z"/>
	<path class="st2" d="M420.9,1254.8c0.5-2.7,2.9-4.6,5.4-4.3c1.3,0.1,2.3,0.8,3.1,1.8c0.8,1,1.2,2.1,1.1,3.5
		c-0.1,1.3-0.7,2.6-1.7,3.4s-2.3,1.2-3.7,1C422.3,1259.9,420.4,1257.5,420.9,1254.8z"/>
	<path class="st2" d="M396.2,1246.7c1.3-2.4,4.1-3.6,6.4-2.5c1.1,0.5,2,1.5,2.4,2.7c0.5,1.1,0.5,2.4,0.1,3.7
		c-0.5,1.3-1.4,2.3-2.6,2.8s-2.5,0.5-3.8-0.1C396,1252,394.9,1249.1,396.2,1246.7z"/>
	<path class="st2" d="M375,1231.6c1.9-1.9,4.9-2.2,6.8-0.5s2.1,4.8,0.5,6.9c-1.7,2.2-4.7,2.5-6.9,0.6
		C373.3,1236.7,373.1,1233.6,375,1231.6z"/>
	<path class="st2" d="M359.3,1210.9c1.2-0.7,2.5-0.8,3.6-0.5c1.2,0.3,2.3,1,2.9,2c1.3,2.1,0.6,5.2-1.5,6.8c-2.2,1.6-5.2,1-6.7-1.5
		c-0.7-1.2-1-2.6-0.7-3.8C357.3,1212.6,358.1,1211.5,359.3,1210.9z"/>
	<path class="st2" d="M350.3,1186.5c2.6-0.6,5,1.1,5.8,3.5c0.7,2.4-0.9,5.1-3.4,6s-5.2-0.6-6-3.4
		C345.8,1189.8,347.7,1187,350.3,1186.5z"/>
	<path class="st2" d="M348.9,1160.5c2.7,0.3,4.5,2.5,4.5,5.1c-0.1,2.5-2.3,4.7-5,4.8c-2.7,0.1-4.8-2.2-4.7-5.1
		C343.7,1162.4,346.2,1160.2,348.9,1160.5z"/>
	<path class="st2" d="M355.1,1135.2c2.4,1,3.5,3.8,2.8,6.2c-0.8,2.4-3.6,3.8-6.1,3.1c-2.6-0.7-3.9-3.5-3-6.3
		C349.7,1135.5,352.7,1134.2,355.1,1135.2z"/>
	<path class="st2" d="M368.6,1113c2,1.8,2.2,4.6,0.8,6.8c-1.5,2.1-4.5,2.6-6.7,1.2s-2.7-4.6-1-6.9
		C363.3,1111.5,366.6,1111.3,368.6,1113z"/>
	<path class="st2" d="M388.1,1095.6c1.4,2.3,0.8,5.1-1.2,6.7s-5,1.2-6.7-0.8c-1.7-2.1-1.2-5.2,1-7
		C383.5,1092.7,386.7,1093.4,388.1,1095.6z"/>
	<path class="st2" d="M411.7,1084.8c0.7,2.6-0.7,5.3-3.1,6.1c-2.3,1-5.1-0.3-6.1-2.8s0.3-5.4,3-6.5
		C408.2,1080.7,411,1082.2,411.7,1084.8z"/>
	<path class="st2" d="M437.5,1081.4c-0.1,2.7-2.2,4.9-4.7,4.9c-2.5,0.2-4.7-1.8-5-4.5c-0.2-2.7,1.9-5.1,4.7-5.4
		C435.4,1076.5,437.6,1078.8,437.5,1081.4z"/>
	<path class="st2" d="M460.4,1113.2c-1.2,2.5-3.8,3.5-6,2.9c-2.2-0.8-3.5-3.5-2.8-6.1c0.7-2.7,3.4-4.2,6.1-3.2
		C460.4,1107.6,461.5,1110.8,460.4,1113.2z"/>
	<path class="st2" d="M480.8,1128c-2,1.8-5,1.9-6.6,0.2c-1.8-1.5-1.8-4.6-0.2-6.7c1.7-2.1,4.8-2.4,6.9-0.5
		C482.9,1123,482.8,1126.2,480.8,1128z"/>
	<path class="st2" d="M493.4,1149.9c-2.5,0.8-5.2-0.3-6.1-2.5c-0.7-2.3,0.1-4.9,2.5-6.3c2.3-1.3,5.5-0.3,6.4,2.4
		C497.3,1146.1,496,1149,493.4,1149.9z"/>
	<path class="st2" d="M496,1175c-2.7-0.3-4.5-2.5-4.5-4.9c0-1.2,0.6-2.3,1.5-3.2c0.8-0.8,2-1.4,3.3-1.5s2.6,0.4,3.5,1.3
		c0.8,0.9,1.4,2.2,1.3,3.6C501.2,1173.2,498.6,1175.3,496,1175z"/>
	<path class="st2" d="M488.2,1199c-2.3-1.4-3-4.1-2.1-6.3c1-2.2,3.9-3.2,6.3-2.3c2.6,0.9,3.6,3.8,2.4,6.5
		C493.6,1199.5,490.4,1200.3,488.2,1199z"/>
	<path class="st2" d="M471.4,1217.8c-1.5-2.2-1.2-5.2,0.6-6.7c1.8-1.6,4.7-1.5,6.6,0.4s1.8,5.1-0.4,7
		C475.9,1220.3,472.9,1220,471.4,1217.8z"/>
	<path class="st2" d="M448.3,1228.1c-0.3-1.3,0-2.6,0.6-3.6c0.6-1.1,1.5-1.9,2.7-2.3c2.3-0.6,4.8,0.6,5.8,3.1s-0.4,5.5-3.2,6.3
		c-1.4,0.4-2.7,0.3-3.8-0.4C449.3,1230.5,448.6,1229.4,448.3,1228.1z"/>
	<path class="st2" d="M423.1,1228.1c0.6-2.7,3-4.3,5.3-4.1c1.2,0.1,2.2,0.8,2.9,1.8c0.7,0.9,1.2,2.1,1.1,3.5
		c-0.1,2.8-2.5,4.8-5.4,4.5C424.2,1233.5,422.5,1230.7,423.1,1228.1z"/>
	<path class="st2" d="M400,1217.8c1.6-2.2,4.4-2.8,6.5-1.6c2,1.2,2.7,4.1,1.5,6.6c-1.2,2.4-4.2,3.3-6.6,1.9
		C398.9,1223.2,398.4,1220,400,1217.8z"/>
	<path class="st2" d="M383.1,1199.1c2.3-1.3,5.3-0.8,6.5,1.2c1.3,2,0.9,4.8-1.2,6.6c-2,1.7-5.2,1.4-6.8-1
		C380.1,1203.5,380.8,1200.5,383.1,1199.1z"/>
	<path class="st2" d="M375.4,1175.1c1.3-0.2,2.6,0.2,3.5,0.9c1,0.7,1.7,1.7,1.9,2.9c0.3,2.4-1.2,4.9-3.8,5.6
		c-2.6,0.8-5.3-0.9-5.7-3.7c-0.2-1.4,0.1-2.8,0.8-3.8C372.9,1175.9,374,1175.2,375.4,1175.1z"/>
	<path class="st2" d="M378,1150c2.6,0.9,3.8,3.4,3.4,5.7c-0.6,2.3-3.1,4-5.7,3.6c-2.7-0.4-4.4-3-3.7-5.8
		C372.6,1150.7,375.5,1149.1,378,1150z"/>
	<path class="st2" d="M390.6,1128.1c2,1.8,2.2,4.8,0.7,6.7c-1.4,2-4.3,2.4-6.6,1c-2.2-1.4-2.7-4.5-1-6.9
		C385.5,1126.6,388.7,1126.3,390.6,1128.1z"/>
	<path class="st2" d="M411,1113.2c1,2.4,0.1,5.4-2,6.5s-4.8,0.5-6.3-1.8c-1.4-2.2-0.8-5.5,1.8-6.8
		C407.1,1109.8,410,1110.7,411,1113.2z"/>
	<path class="st2" d="M435.7,1108c-0.1,2.7-2,4.8-4.4,5.1c-1.2,0.1-2.3-0.4-3.2-1.1c-0.9-0.7-1.6-1.8-1.8-3.2
		c-0.2-1.3,0.2-2.6,0.9-3.7c0.8-1,2-1.6,3.4-1.8C433.5,1103,435.8,1105.3,435.7,1108z"/>
	<path class="st2" d="M458.2,1143.1c-1.8,2-4.7,2.4-6.6,1.1c-1-0.6-1.6-1.6-1.9-2.8c-0.3-1.1-0.3-2.5,0.3-3.7
		c0.6-1.2,1.6-2.1,2.9-2.5c1.3-0.3,2.8-0.1,4.1,0.7C459.7,1137.7,460.1,1141.1,458.2,1143.1z"/>
	<path class="st2" d="M469.7,1166.5c-2.7,0.1-4.9-1.7-5.4-3.9c-0.5-2.3,0.9-4.9,3.4-5.9c2.5-1.1,5.4,0.6,6.1,3.8
		C474.5,1163.7,472.3,1166.4,469.7,1166.5z"/>
	<path class="st2" d="M461.2,1191.3c-1.9-1.8-2.2-4.7-0.9-6.7c0.6-1,1.6-1.7,2.8-2c1.1-0.4,2.4-0.4,3.6,0.2c1.2,0.5,2.1,1.6,2.4,2.9
		s0,2.8-0.8,4.2C466.5,1192.6,463.2,1193.1,461.2,1191.3z"/>
	<path class="st2" d="M437.8,1202.8c-0.1-2.7,1.7-5,4-5.5c2.2-0.5,4.8,0.9,5.7,3.3c1,2.5-0.7,5.5-3.8,6.3
		C440.6,1207.6,437.9,1205.5,437.8,1202.8z"/>
	<path class="st2" d="M413.2,1194.3c1.8-2,4.7-2.4,6.6-1.1c1,0.6,1.6,1.6,1.9,2.8c0.3,1.1,0.3,2.5-0.3,3.7c-0.6,1.2-1.6,2.1-2.9,2.5
		c-1.3,0.3-2.8,0.1-4.1-0.7C411.7,1199.7,411.3,1196.3,413.2,1194.3z"/>
	<path class="st2" d="M401.7,1170.8c2.7-0.1,4.9,1.7,5.3,3.9c0.5,2.3-0.9,4.9-3.4,5.9c-2.5,1.1-5.4-0.6-6.1-3.8
		C396.9,1173.7,399.1,1170.9,401.7,1170.8z"/>
	<path class="st2" d="M410.1,1146.1c1.9,1.8,2.2,4.7,1,6.7c-0.6,1-1.6,1.7-2.8,2c-1.1,0.4-2.4,0.4-3.6-0.2c-1.2-0.5-2.1-1.6-2.4-2.9
		s0-2.8,0.8-4.2C404.9,1144.8,408.2,1144.3,410.1,1146.1z"/>
	<path class="st2" d="M433.6,1134.6c0.1,2.7-1.7,5-4,5.5c-2.2,0.5-4.8-0.9-5.7-3.3c-1-2.5,0.7-5.5,3.8-6.3
		C430.8,1129.8,433.5,1131.9,433.6,1134.6z"/>
</g>
</svg>
