<svg width="28" height="28" viewBox="0 0 28 28" fill="none" xmlns="http://www.w3.org/2000/svg">
<path d="M11.1241 9.33226C10.9555 9.6977 10.9178 10.11 11.0173 10.4999H14.3996C14.5077 10.0781 14.4542 9.63119 14.2498 9.24676C14.0453 8.86232 13.7046 8.56815 13.2945 8.42194C12.8844 8.27573 12.4344 8.28804 12.0329 8.45645C11.6313 8.62486 11.3072 8.93722 11.1241 9.33226Z" fill="#296DB3"/>
<path d="M6.12534 21.8751V21.5837C5.62439 21.6334 5.12944 21.7316 4.64746 21.8769C5.15357 22.0254 5.67255 22.1259 6.19752 22.177C6.14594 22.085 6.12094 21.9805 6.12534 21.8751Z" fill="#296DB3"/>
<path d="M10.0756 23.1523C9.63813 23.1755 9.18925 23.1873 8.75 23.1873C7.65625 23.1873 5.56106 23.1252 4.375 22.6938V23.9477C4.71669 24.1595 6.20681 24.4998 8.75 24.4998C11.2932 24.4998 12.7833 24.1595 13.125 23.9477V23.1217C12.5641 23.1611 11.9836 23.1873 11.375 23.1873C10.9471 23.1873 10.5101 23.1751 10.0756 23.1523Z" fill="#296DB3"/>
<path d="M19.4116 10.4999C19.1697 9.92878 19.052 9.31272 19.0664 8.69262L9.67939 4.31763C8.85552 5.0515 7.78234 5.44278 6.67945 5.41138L5.25977 8.45856C5.77048 9.03783 6.11832 9.74227 6.26777 10.4999H10.1204C10.0347 9.97811 10.1081 9.44259 10.3308 8.963C10.6003 8.39034 11.0675 7.9343 11.6466 7.67887C12.2256 7.42344 12.8775 7.38581 13.4821 7.57291C14.0867 7.76001 14.6033 8.15924 14.9369 8.69708C15.2704 9.23493 15.3984 9.87518 15.2973 10.4999H19.4116Z" fill="#296DB3"/>
<path d="M22.3125 19.25C22.5541 19.25 22.75 19.0541 22.75 18.8125C22.75 18.5709 22.5541 18.375 22.3125 18.375C22.0709 18.375 21.875 18.5709 21.875 18.8125C21.875 19.0541 22.0709 19.25 22.3125 19.25Z" fill="#296DB3"/>
<path d="M2.85254 10.4999H5.37079C5.2161 9.87449 4.89111 9.30417 4.43191 8.85228C4.36754 8.78898 4.32432 8.70733 4.30819 8.61851C4.29205 8.52968 4.30379 8.43804 4.34179 8.35615L6.01304 4.76865C6.05109 4.68621 6.114 4.61775 6.19293 4.57287C6.27186 4.52799 6.36286 4.50895 6.45316 4.5184C6.97195 4.57076 7.49587 4.50517 7.98573 4.32653C8.4756 4.14789 8.91875 3.86081 9.28204 3.48678C9.34543 3.42213 9.42733 3.37874 9.51642 3.36259C9.60552 3.34645 9.69743 3.35835 9.77948 3.39665L19.7064 8.0254C19.7881 8.06362 19.856 8.12617 19.9008 8.2045C19.9456 8.28282 19.9651 8.37307 19.9566 8.4629C19.8887 9.16946 20.0375 9.87995 20.3832 10.4999H22.1655L22.8594 9.0124L6.99698 1.61865L2.85254 10.4999Z" fill="#296DB3"/>
<path d="M9.625 20.939C9.06588 20.9793 8.47787 20.9998 7.875 20.9998C7.58713 20.9998 7.29269 20.9867 7 20.9767V21.7589C7.252 21.9098 8.20662 22.1846 10.0844 22.2778C10.526 22.3008 10.9562 22.3123 11.375 22.3123C12.1188 22.3123 12.8625 22.2795 13.5218 22.2178C14.9432 22.0866 15.5641 21.8678 15.75 21.7576V20.5063C14.5639 20.9377 12.4688 20.9998 11.375 20.9998C10.7726 20.9998 10.1846 20.9793 9.625 20.939Z" fill="#296DB3"/>
<path d="M26.25 17.9375C26.25 17.5894 26.1117 17.2556 25.8656 17.0094C25.6194 16.7633 25.2856 16.625 24.9375 16.625H21.4375C21.0894 16.625 20.7556 16.7633 20.5094 17.0094C20.2633 17.2556 20.125 17.5894 20.125 17.9375V19.6875C20.125 20.0356 20.2633 20.3694 20.5094 20.6156C20.7556 20.8617 21.0894 21 21.4375 21H24.9375C25.2856 21 25.6194 20.8617 25.8656 20.6156C26.1117 20.3694 26.25 20.0356 26.25 19.6875V17.9375ZM22.3125 20.125C22.0529 20.125 21.7992 20.048 21.5833 19.9038C21.3675 19.7596 21.1992 19.5546 21.0999 19.3148C21.0006 19.0749 20.9746 18.811 21.0252 18.5564C21.0759 18.3018 21.2009 18.068 21.3844 17.8844C21.568 17.7009 21.8018 17.5759 22.0564 17.5252C22.311 17.4746 22.5749 17.5006 22.8148 17.5999C23.0546 17.6992 23.2596 17.8675 23.4038 18.0833C23.548 18.2992 23.625 18.5529 23.625 18.8125C23.625 19.1606 23.4867 19.4944 23.2406 19.7406C22.9944 19.9867 22.6606 20.125 22.3125 20.125Z" fill="#296DB3"/>
<path d="M4.37554 17.5V17.3486C4.17231 17.3881 3.97159 17.4395 3.77441 17.5026C3.97984 17.5672 4.18888 17.6197 4.40048 17.6597C4.38468 17.6079 4.37628 17.5541 4.37554 17.5Z" fill="#296DB3"/>
<path d="M13.1251 19.6874C13.1323 19.8267 13.0877 19.9636 13 20.072C13.8384 20.0388 14.6702 19.9098 15.4793 19.6874C14.7116 19.4725 13.9216 19.3467 13.1251 19.3125V19.6874Z" fill="#296DB3"/>
<path d="M1.75 11.8125V25.8125C1.75 25.9285 1.79609 26.0398 1.87814 26.1219C1.96019 26.2039 2.07147 26.25 2.1875 26.25H23.1875C23.3035 26.25 23.4148 26.2039 23.4969 26.1219C23.5789 26.0398 23.625 25.9285 23.625 25.8125V21.875H21.4375C20.8576 21.8743 20.3016 21.6436 19.8915 21.2335C19.4814 20.8234 19.2507 20.2674 19.25 19.6875V17.9375C19.2507 17.3576 19.4814 16.8016 19.8915 16.3915C20.3016 15.9814 20.8576 15.7507 21.4375 15.75H23.625V11.8125C23.625 11.6965 23.5789 11.5852 23.4969 11.5031C23.4148 11.4211 23.3035 11.375 23.1875 11.375H2.1875C2.07147 11.375 1.96019 11.4211 1.87814 11.5031C1.79609 11.5852 1.75 11.6965 1.75 11.8125ZM2.625 17.5C2.625 16.9995 3.15875 16.6814 4.375 16.4579V15.3125C4.375 14.9188 4.88644 14 9.625 14C11.2035 14 14.875 14.1277 14.875 15.3125V17.5C14.875 17.9454 14.4493 18.2438 13.5017 18.4625C16.6189 18.725 16.625 19.4394 16.625 19.6875V21.875C16.625 22.1414 16.6184 22.75 14 23.0471V24.0625C14 25.2472 10.3285 25.375 8.75 25.375C7.1715 25.375 3.5 25.2472 3.5 24.0625V21.875C3.5 21.6471 3.5 21.1702 5.13581 20.8499C2.63156 20.5538 2.625 19.9181 2.625 19.6875V17.5Z" fill="#296DB3"/>
<path d="M9.59306 20.0645C11.2993 19.9442 12.0431 19.6895 12.25 19.5697V18.6706C11.3784 18.7682 10.502 18.8155 9.625 18.8123C9.33625 18.8123 9.05187 18.808 8.77625 18.7992C8.47481 18.808 8.17688 18.8123 7.875 18.8123C6.78125 18.8123 4.68606 18.7502 3.5 18.3188V19.5714C3.752 19.7223 4.70663 19.9971 6.58438 20.0903C7.58684 20.1438 8.59166 20.1352 9.59306 20.0645Z" fill="#296DB3"/>
<path d="M9.625 17.9374C10.6272 17.9445 11.6287 17.8788 12.6214 17.741C13.0978 17.6988 13.5637 17.5772 14 17.3814V16.1257C13.2746 16.4005 11.9674 16.6249 9.625 16.6249C8.53125 16.6249 6.43606 16.5628 5.25 16.1314V17.3849C5.52344 17.5476 6.63119 17.8539 8.76444 17.9247C9.06106 17.933 9.34106 17.9374 9.625 17.9374Z" fill="#296DB3"/>
<path d="M9.62496 15.75C11.895 15.75 13.7353 15.5541 13.7353 15.3125C13.7353 15.0709 11.895 14.875 9.62496 14.875C7.3549 14.875 5.51465 15.0709 5.51465 15.3125C5.51465 15.5541 7.3549 15.75 9.62496 15.75Z" fill="#296DB3"/>
</svg>
