<svg width="448" height="353" viewBox="0 0 448 353" fill="none" xmlns="http://www.w3.org/2000/svg">
<path d="M377.798 292.586L277.401 191.595C277.401 191.595 209.96 205.242 127.956 321.651L161.793 323.593C161.793 323.593 240.269 283.157 256.192 248.271L309.953 318.399L377.798 292.586Z" fill="#133252"/>
<path d="M430.221 299.407C430.221 299.407 449.57 357.652 345.799 351.687C242.027 345.722 71.5318 333.695 71.5318 333.695L72.8179 310.917L371.544 283.082L430.221 299.407Z" fill="#1E5083"/>
<path d="M408.105 37.6482C417.787 57.0122 404.071 68.7689 396.003 72.2267L392.545 48.0218L386.494 37.6482C380.731 33.0377 368.167 23.2982 364.018 21.2234C358.831 18.6301 351.915 25.978 332.897 21.2235C329.439 20.359 325.981 11.7145 329.439 4.79883C332.897 -2.11688 362.289 0.476222 376.12 0.476222C389.952 0.476222 396.003 13.4432 408.105 37.6482Z" fill="#202020"/>
<path d="M332.021 65.5437C332.061 65.8884 332.147 66.2217 332.203 66.5608C334.229 76.4846 338.412 85.9718 344.581 94.0568C346.493 96.568 348.525 99.0331 351.029 100.998C357.26 105.86 371.419 106.607 378.771 103.366C385.355 100.464 390.221 94.4878 392.97 87.9427C395.718 81.3977 396.589 74.2608 397.016 67.2273C402.923 67.2273 408.084 61.1535 406.963 55.4991C405.842 49.8218 401.648 46.6843 393.436 49.3678C393.175 49.3965 392.907 49.4023 392.634 49.3851C389.087 41.7135 392.634 15.5148 340.677 18.1334C332.363 20.7521 336.011 35.5709 334.053 37.835C333.199 38.8004 332.75 40.5243 332.363 41.7137C331.418 44.403 330.946 47.2244 330.764 50.0344C330.536 53.4649 330.712 56.8897 331.128 60.2915C331.367 62.0557 331.663 63.814 332.021 65.5437Z" fill="#A37661"/>
<circle cx="332.749" cy="52.0717" r="11.4303" fill="#7F5C4C"/>
<circle cx="372.12" cy="53.3414" r="11.4303" fill="#7F5C4C"/>
<g opacity="0.2">
<path d="M365.721 37.8014C364.33 37.4206 362.758 37.0762 360.995 36.8313C359.879 38.4346 355.158 39.5831 352.443 39.5831H352.427C349.712 39.5831 344.992 38.4353 343.875 36.8313C342.111 37.0762 340.54 37.4206 339.148 37.8014C345.383 40.078 349.856 46.0524 349.856 53.0664C349.856 55.9462 349.096 58.6512 347.776 61.0001H352.425H352.444H357.092C355.772 58.6512 355.012 55.9484 355.012 53.0664C355.013 46.0524 359.487 40.078 365.721 37.8014Z" fill="#202020"/>
<path d="M332.678 38.4951C324.314 38.4951 317.509 45.3 317.509 53.6643C317.509 62.0286 324.314 68.8343 332.678 68.8343C341.042 68.8343 347.848 62.0286 347.848 53.6643C347.848 45.3 341.042 38.4951 332.678 38.4951ZM332.678 63.2452C327.395 63.2452 323.098 58.9479 323.098 53.6643C323.098 48.3823 327.396 44.0842 332.678 44.0842C337.961 44.0842 342.259 48.383 342.259 53.6643C342.259 58.9479 337.961 63.2452 332.678 63.2452Z" fill="#202020"/>
<path d="M326.492 48.8335C324.417 51.5231 324.594 55.2399 326.733 57.7132C325.974 55.1873 326.395 52.3463 328.129 50.0975C329.864 47.8494 332.505 46.7221 335.142 46.8157C332.207 45.3747 328.567 46.1445 326.492 48.8335Z" fill="#202020"/>
<path d="M372.192 38.4946C363.827 38.4946 357.022 45.2995 357.022 53.6638C357.022 62.0282 363.827 68.8338 372.192 68.8338C380.556 68.8338 387.361 62.0282 387.361 53.6638C387.361 45.2995 380.556 38.4946 372.192 38.4946ZM372.192 63.2447C366.908 63.2447 362.611 58.9474 362.611 53.6638C362.611 48.3818 366.909 44.0837 372.192 44.0837C377.474 44.0837 381.771 48.3818 381.771 53.6638C381.771 58.9474 377.474 63.2447 372.192 63.2447Z" fill="#202020"/>
<path d="M369.727 46.8157C372.364 46.7221 375.006 47.8494 376.741 50.0975C378.476 52.3456 378.896 55.1866 378.137 57.7132C380.275 55.2399 380.453 51.5238 378.378 48.8335C376.302 46.1445 372.662 45.3747 369.727 46.8157Z" fill="#202020"/>
</g>
<path d="M363.181 36.4052C361.79 36.0243 360.218 35.68 358.455 35.4351C357.339 37.0383 352.618 38.1869 349.903 38.1869H349.887C347.172 38.1869 342.452 37.0391 341.334 35.4351C339.571 35.68 338 36.0243 336.608 36.4052C342.843 38.6818 347.316 44.6562 347.316 51.6702C347.316 54.5499 346.556 57.2549 345.236 59.6039H349.885H349.903H354.552C353.232 57.2549 352.472 54.5521 352.472 51.6702C352.473 44.6562 356.947 38.6818 363.181 36.4052Z" fill="#D8E4F1"/>
<path d="M330.138 37.0984C321.774 37.0984 314.969 43.9033 314.969 52.2676C314.969 60.6319 321.774 67.4376 330.138 67.4376C338.502 67.4376 345.308 60.6319 345.308 52.2676C345.308 43.9033 338.502 37.0984 330.138 37.0984ZM330.138 61.8484C324.855 61.8484 320.558 57.5511 320.558 52.2676C320.558 46.9855 324.856 42.6875 330.138 42.6875C335.421 42.6875 339.719 46.9863 339.719 52.2676C339.719 57.5511 335.421 61.8484 330.138 61.8484Z" fill="#D8E4F1"/>
<path d="M323.952 47.437C321.877 50.1266 322.054 53.8434 324.193 56.3167C323.434 53.7908 323.855 50.9498 325.589 48.701C327.324 46.4529 329.965 45.3256 332.602 45.4192C329.667 43.9782 326.027 44.748 323.952 47.437Z" fill="#D8E4F1"/>
<path d="M369.651 37.0981C361.287 37.0981 354.482 43.9031 354.482 52.2674C354.482 60.6317 361.287 67.4373 369.651 67.4373C378.016 67.4373 384.821 60.6317 384.821 52.2674C384.821 43.9031 378.016 37.0981 369.651 37.0981ZM369.651 61.8482C364.368 61.8482 360.071 57.5509 360.071 52.2674C360.071 46.9853 364.369 42.6873 369.651 42.6873C374.934 42.6873 379.231 46.9853 379.231 52.2674C379.231 57.5509 374.934 61.8482 369.651 61.8482Z" fill="#D8E4F1"/>
<path d="M367.187 45.4192C369.824 45.3256 372.466 46.4529 374.201 48.701C375.936 50.9491 376.356 53.7901 375.597 56.3167C377.735 53.8434 377.913 50.1273 375.838 47.437C373.762 44.748 370.122 43.9782 367.187 45.4192Z" fill="#D8E4F1"/>
<path d="M367.327 98.8895L373.689 120.76L404.101 107.503L391.405 80.4956L367.327 98.8895Z" fill="#A37661"/>
<path d="M392.218 90.9009L372.329 116.064L369.489 106.088C378.583 105.089 386.198 100.135 392.218 90.9009Z" fill="#7F5C4C"/>
<path d="M374.053 81.5226L353.083 82.1317C352.44 82.149 351.99 82.7581 352.184 83.3557C353.271 86.6944 357.192 95.8196 367.202 94.383C377.622 92.889 375.755 84.5682 374.981 82.1547C374.856 81.7639 374.48 81.5111 374.053 81.5226Z" fill="white"/>
<path d="M394.205 117.071C394.205 117.071 399.708 115.749 406.73 116.128C414.373 116.536 423.819 118.956 429.926 127.276C441.643 143.24 461.014 207.593 431.382 314.411L340.33 286.88L336.045 250.581C336.033 250.575 338.452 122.018 394.205 117.071Z" fill="#9DBCDC"/>
<path d="M357.62 209.129C355.53 196.092 368.506 148.736 375.255 126.688C373.731 127.966 370.161 131.481 368.071 135.316C365.981 139.15 352.395 182.927 345.864 204.336L349.783 223.508C350.871 221.91 353.963 216.798 357.62 209.129Z" fill="#202020"/>
<path d="M371.47 127.506C371.515 126.655 365.233 119.472 365.233 119.472L402.746 101.458L413.081 121.369L371.47 127.506Z" fill="#9DBCDC"/>
<path opacity="0.4" d="M423.586 174.005C423.586 174.005 445.825 325.667 379.664 292.861C329.87 268.17 408.904 209.747 408.904 209.747L423.586 174.005Z" fill="#296DB3"/>
<path d="M72.7723 310.9L44.3867 305.797L5.71783 288.644C3.13991 287.501 0.226196 289.305 0.0668564 292.144L0.0327454 292.793C-0.314392 298.941 2.10986 304.918 6.62265 309.055L33.2498 333.471L71.4919 333.684L72.7723 310.9Z" fill="#133252"/>
<path d="M367.776 228.503C367.776 228.503 367.185 142.924 400.015 146.4C432.839 149.871 426.756 200.266 415.329 249.293L367.776 228.503Z" fill="#9DBCDC"/>
<path d="M405.973 245.208C405.973 245.208 403.646 293.563 379.659 292.862C355.672 292.161 267.249 199.375 267.249 199.375L227.34 197.082C227.34 197.082 238.032 180.36 263.709 181.837L365.238 239.858L367.771 228.509L405.973 245.208Z" fill="#A37661"/>
<path d="M274.67 204.622L274.96 199.456L193.269 194.761L161.867 86.7415L156.956 88.201L188.864 197.973C189.172 199.025 190.094 199.766 191.175 199.829L274.67 204.622Z" fill="#D8E4F1"/>
<path d="M366.149 235.778L404.75 256.098C404.75 256.098 406.252 249.794 405.973 245.202L367.464 228.165L366.149 235.778Z" fill="#7F5C4C"/>
<path d="M231.465 328.702C277.088 328.702 313.589 327.174 339.966 324.151C355.809 322.335 368.158 319.956 376.671 317.072C386.664 313.681 391.695 309.561 392.036 304.475L389.197 304.28C388.65 312.337 367.395 325.829 231.471 325.829C231.13 325.829 230.794 325.829 230.452 325.829C152.096 325.789 73.0341 321.203 72.2431 321.157L72.0781 324.025C72.8691 324.071 152.016 328.662 230.447 328.697C230.788 328.702 231.124 328.702 231.465 328.702Z" fill="#133252"/>
</svg>
