<svg xmlns="http://www.w3.org/2000/svg" viewBox="0 0 478.94 394.63"><defs><style>.cls-1{opacity:0.5;}.cls-2{fill:#d8e4f1;}</style></defs><title>hero-img</title><g id="Layer_2" data-name="Layer 2"><g id="Layer_1-2" data-name="Layer 1"><g class="cls-1"><path class="cls-2" d="M478.94,64.47V86.94l-1.59-.14A608.73,608.73,0,0,1,314.6,45.87c-14.65-5.94-29.33-12.61-41.16-23.1-4.35-3.87-8.58-9.34-7.09-15C268.63-.74,280.59-.89,289.23.94c40.34,8.52,85.42,23.3,124.69,35.91A443.66,443.66,0,0,1,478.94,64.47Z"/><path class="cls-2" d="M478.94,110.59v274a10,10,0,0,1-10,10H115.79c-5.33-1.69-10.5-3.56-15.4-5.63-3.39-1.43-6.65-3-9.74-4.59-1.55-.82-3.06-1.66-4.52-2.54q-1-.58-1.95-1.2A63,63,0,0,1,71.09,370a58.28,58.28,0,0,1-7.29-10c-.4-.69-.79-1.39-1.15-2.09-.06-.13-.13-.25-.19-.37l-.34-.66c-5.72-11.5-7.17-24-6.47-35.85.17-3,.48-6,.91-8.88l-15-34.23c4.54-6.91,9.23-13.75,13.74-20.66l1.29-2a218.18,218.18,0,0,0,17.81-32.42c5.13-12,8.55-24.56,8.85-37.6.86-36.65-22.95-70.33-22.78-107C60.61,46.19,82.73,14,114,6.94c11.75-2.67,24-1.91,35.89.15,27.6,4.81,53.27,16.39,78.73,28.41l2.91,1.38c7.93,3.75,15.83,7.52,23.77,11.12A652.34,652.34,0,0,0,404.94,95.09C429.68,99.71,455.1,103,478.94,110.59Z"/><path class="cls-2" d="M6,121.32c1.71-5,3.83-10.08,7.74-13.65,7.42-6.78,19.69-6,27.89-.16S54.53,123,57,132.75c2.19,15.53,1.58,26.52-3.15,42.83C51.5,183.52,48,191.4,41.82,197s-15.33,8.29-23,5.09c-7.29-3-11.65-10.58-14.28-18C-2.54,164-.82,141.49,6,121.32Z"/></g></g></g></svg>