<svg width="28" height="28" viewBox="0 0 28 28" fill="none" xmlns="http://www.w3.org/2000/svg">
<path d="M24.6633 3.28125V2.46094C24.6633 1.10179 23.5616 0 22.2024 0H11.082C11.3646 0.484531 11.5383 1.04032 11.5383 1.64062V3.28125H24.6633Z" fill="#296DB3"/>
<path d="M4.97656 23.0234V19.7422H1.69531V28H26.3047V19.7422H23.0234V23.0234H24.6641V24.6641H3.33594V23.0234H4.97656Z" fill="#296DB3"/>
<path d="M8.25781 0C7.3517 0 6.61719 0.734508 6.61719 1.64062V23.0234H21.3828V4.92188H9.89844V1.64062C9.89844 0.734508 9.16393 0 8.25781 0ZM14 14.8203C15.357 14.8203 16.4609 15.9242 16.4609 17.2812C16.4609 18.3493 15.7731 19.2513 14.8203 19.5911V21.3828H13.1797V19.5911C12.2269 19.2513 11.5391 18.3493 11.5391 17.2812H13.1797C13.1797 17.7338 13.5474 18.1016 14 18.1016C14.4526 18.1016 14.8203 17.7338 14.8203 17.2812C14.8203 16.8287 14.4526 16.4609 14 16.4609C12.643 16.4609 11.5391 15.357 11.5391 14C11.5391 12.932 12.2269 12.0299 13.1797 11.6902V9.84375H14.8203V11.6902C15.7731 12.0299 16.4609 12.932 16.4609 14H14.8203C14.8203 13.5474 14.4526 13.1797 14 13.1797C13.5474 13.1797 13.1797 13.5474 13.1797 14C13.1797 14.4526 13.5474 14.8203 14 14.8203ZM18.1016 6.5625V8.20312H9.89844V6.5625H18.1016Z" fill="#296DB3"/>
<circle cx="13.5" cy="15.5" r="6.5" fill="#296DB3"/>
<g clip-path="url(#clip0)">
<path d="M17.1011 15.0762H16.0944V14.1086H17.1011C17.2524 14.1086 17.375 13.9861 17.375 13.8348C17.375 13.6835 17.2524 13.5609 17.1011 13.5609H16.0944V12.2184C16.0944 12.0224 16.0556 11.8786 15.9793 11.791C15.9068 11.7076 15.8114 11.6688 15.6793 11.6688C15.5532 11.6688 15.4614 11.7073 15.3903 11.7902C15.3148 11.8779 15.2765 12.022 15.2765 12.2185V13.5611H13.3828L12.5776 12.3427C12.5087 12.2339 12.4439 12.1321 12.381 12.0343C12.3243 11.9462 12.2691 11.8745 12.2169 11.821C12.1707 11.7736 12.118 11.7369 12.0564 11.7088C11.9983 11.6822 11.9245 11.6689 11.8371 11.6689C11.7256 11.6689 11.6244 11.6995 11.5275 11.7622C11.4316 11.8243 11.3653 11.901 11.3249 11.9968C11.2893 12.0878 11.2705 12.2273 11.2705 12.4074V13.561H10.2738C10.1225 13.561 10 13.6836 10 13.8349C10 13.9862 10.1225 14.1087 10.2738 14.1087H11.2705V15.0763H10.2738C10.1225 15.0763 10 15.1989 10 15.3502C10 15.5015 10.1225 15.6239 10.2738 15.6239H11.2705V17.1568C11.2705 17.3469 11.3105 17.4893 11.3896 17.5798C11.4649 17.6661 11.5604 17.7061 11.69 17.7061C11.815 17.7061 11.9097 17.6659 11.9882 17.5795C12.0686 17.4909 12.1093 17.3486 12.1093 17.1568V15.6239H13.8229L14.7502 17.0459C14.8147 17.1399 14.8813 17.2348 14.9477 17.3278C15.0076 17.4113 15.073 17.4849 15.1419 17.5464C15.204 17.602 15.2706 17.6428 15.3398 17.6676C15.411 17.6933 15.4943 17.7063 15.5867 17.7063C15.8375 17.7063 16.0943 17.6295 16.0943 17.0601V15.6239H17.1011C17.2524 15.6239 17.375 15.5013 17.375 15.3501C17.375 15.1988 17.2524 15.0762 17.1011 15.0762ZM15.2765 14.1086V15.0761H14.3842L13.7449 14.1086H15.2765ZM12.1093 12.9969L12.4773 13.5609H12.1093V12.9969ZM12.1093 15.0762V14.1086H12.8346L13.4657 15.0762H12.1093ZM15.2765 16.4266L14.7462 15.6239H15.2765V16.4266Z" fill="#F4F7FB"/>
</g>
<defs>
<clipPath id="clip0">
<rect width="7.375" height="7.375" fill="white" transform="translate(10 11)"/>
</clipPath>
</defs>
</svg>
