<svg width="28" height="28" viewBox="0 0 28 28" fill="none" xmlns="http://www.w3.org/2000/svg">
<path d="M20.5625 24.6641H22.2031V28H20.5625V24.6641Z" fill="#296DB3"/>
<path d="M14.8203 3.28125V28H18.9219V23.0234H23.8438V28H28V3.28125L21.3828 0L14.8203 3.28125ZM23.8438 6.61719H25.4844V8.25781H23.8438V6.61719ZM23.8438 9.89844H25.4844V11.5391H23.8438V9.89844ZM23.8438 13.1797H25.4844V14.8203H23.8438V13.1797ZM23.8438 16.4609H25.4844V18.1016H23.8438V16.4609ZM23.8438 19.7422H25.4844V21.3828H23.8438V19.7422ZM18.9219 21.3828H17.2812V19.7422H18.9219V21.3828ZM18.9219 18.1016H17.2812V16.4609H18.9219V18.1016ZM18.9219 14.8203H17.2812V13.1797H18.9219V14.8203ZM18.9219 11.5391H17.2812V9.89844H18.9219V11.5391ZM18.9219 8.25781H17.2812V6.61719H18.9219V8.25781ZM22.2031 21.3828H20.5625V19.7422H22.2031V21.3828ZM22.2031 18.1016H20.5625V16.4609H22.2031V18.1016ZM22.2031 14.8203H20.5625V13.1797H22.2031V14.8203ZM22.2031 11.5391H20.5625V9.89844H22.2031V11.5391ZM22.2031 8.25781H20.5625V6.61719H22.2031V8.25781Z" fill="#296DB3"/>
<path d="M5.79688 24.6641H7.4375V28H5.79688V24.6641Z" fill="#296DB3"/>
<path d="M4.15625 23.0234H9.07812V28H13.1797V13.1797L6.61719 9.89844L0 13.1797V28H4.15625V23.0234ZM9.07812 16.4609H10.7188V18.1016H9.07812V16.4609ZM9.07812 19.7422H10.7188V21.3828H9.07812V19.7422ZM5.79688 16.4609H7.4375V18.1016H5.79688V16.4609ZM5.79688 19.7422H7.4375V21.3828H5.79688V19.7422ZM2.51562 16.4609H4.15625V18.1016H2.51562V16.4609ZM2.51562 19.7422H4.15625V21.3828H2.51562V19.7422Z" fill="#296DB3"/>
</svg>
