<svg width="41" height="41" viewBox="0 0 41 41" fill="none" xmlns="http://www.w3.org/2000/svg">
<rect width="41" height="41" rx="10" fill="#D8E4F1"/>
<path d="M19.516 21.328C19.516 20.848 19.58 20.44 19.708 20.104C19.836 19.768 20.052 19.456 20.356 19.168C20.804 18.736 21.212 18.36 21.58 18.04C21.964 17.72 22.292 17.424 22.564 17.152C22.836 16.864 23.044 16.6 23.188 16.36C23.348 16.104 23.428 15.84 23.428 15.568C23.428 15.04 23.26 14.632 22.924 14.344C22.604 14.04 22.196 13.888 21.7 13.888C20.948 13.888 20.372 14.096 19.972 14.512C19.588 14.928 19.372 15.432 19.324 16.024L15.628 15.784C15.804 14.088 16.428 12.8 17.5 11.92C18.572 11.024 19.948 10.576 21.628 10.576C22.364 10.576 23.052 10.68 23.692 10.888C24.348 11.08 24.924 11.376 25.42 11.776C25.916 12.176 26.308 12.672 26.596 13.264C26.884 13.856 27.028 14.536 27.028 15.304C27.028 15.768 26.98 16.192 26.884 16.576C26.788 16.944 26.62 17.312 26.38 17.68C26.156 18.048 25.852 18.424 25.468 18.808C25.1 19.176 24.628 19.584 24.052 20.032C23.684 20.32 23.436 20.6 23.308 20.872C23.18 21.144 23.116 21.416 23.116 21.688V22.384H19.516V21.328ZM19.108 25.936C19.108 25.632 19.164 25.344 19.276 25.072C19.388 24.8 19.54 24.568 19.732 24.376C19.94 24.168 20.18 24.008 20.452 23.896C20.724 23.784 21.012 23.728 21.316 23.728C21.62 23.728 21.908 23.784 22.18 23.896C22.452 24.008 22.684 24.168 22.876 24.376C23.084 24.568 23.244 24.8 23.356 25.072C23.468 25.344 23.524 25.632 23.524 25.936C23.524 26.24 23.468 26.528 23.356 26.8C23.244 27.072 23.084 27.312 22.876 27.52C22.684 27.712 22.452 27.864 22.18 27.976C21.908 28.088 21.62 28.144 21.316 28.144C21.012 28.144 20.724 28.088 20.452 27.976C20.18 27.864 19.94 27.712 19.732 27.52C19.54 27.312 19.388 27.072 19.276 26.8C19.164 26.528 19.108 26.24 19.108 25.936Z" fill="#296DB3"/>
</svg>
