<svg width="156" height="156" viewBox="0 0 156 156" fill="none" xmlns="http://www.w3.org/2000/svg">
<path d="M0.409637 155.58L25.1369 128.998H91.3935C111.461 128.998 127.787 112.672 127.787 92.6041C127.787 82.1213 123.261 72.1415 115.37 65.224C108.735 59.4114 100.221 56.2106 91.3935 56.2106H36.8032C16.7358 56.2106 0.409637 72.5367 0.409637 92.6041V155.58Z" fill="white"/>
<path d="M121.382 58.3835C113.086 51.1152 102.441 47.1134 91.4078 47.1134H36.8175C34.4928 47.1134 32.2088 47.2896 29.977 47.6274C28.8949 44.1573 28.3257 40.5116 28.3257 36.8019C28.3257 16.7345 44.6518 0.408325 64.7192 0.408325H119.31C139.377 0.408325 155.703 16.7345 155.703 36.8019V99.7773L133.879 76.3159C131.259 69.489 127.006 63.3131 121.382 58.3835Z" fill="white"/>
</svg>
