<svg xmlns="http://www.w3.org/2000/svg" viewBox="0 0 83 83"><defs><style>.cls-1{fill:#ecd6ee;}.cls-2{fill:#991fa4;}</style></defs><title>culture</title><g id="Layer_2" data-name="Layer 2"><g id="Layer_1-2" data-name="Layer 1"><circle class="cls-1" cx="41.5" cy="41.5" r="41.5"/><path class="cls-2" d="M38.07,42.64h6.86v2.29H38.07Z"/><path class="cls-2" d="M53.64,44.93H47.21v1.14a1.14,1.14,0,0,1-1.14,1.14H36.93a1.14,1.14,0,0,1-1.14-1.14V44.93H29.36a3.42,3.42,0,0,1-3.25-2.35L22,30.26v25a3.44,3.44,0,0,0,3.43,3.43H57.57A3.44,3.44,0,0,0,61,55.21V30.26L56.89,42.58A3.42,3.42,0,0,1,53.64,44.93Z"/><path class="cls-2" d="M46.07,24.36H36.93a3.44,3.44,0,0,0-3.43,3.43v1.14H24l4.31,12.93a1.13,1.13,0,0,0,1.08.78h6.43V41.5a1.14,1.14,0,0,1,1.14-1.14h9.14a1.14,1.14,0,0,1,1.14,1.14v1.14h6.43a1.15,1.15,0,0,0,1.09-.78L59,28.93H49.5V27.79A3.44,3.44,0,0,0,46.07,24.36ZM35.79,28.93V27.79a1.14,1.14,0,0,1,1.14-1.14h9.14a1.14,1.14,0,0,1,1.14,1.14v1.14Z"/></g></g></svg>