<svg xmlns="http://www.w3.org/2000/svg" xmlns:xlink="http://www.w3.org/1999/xlink" viewBox="0 0 83 83"><defs><style>.cls-1{fill:none;}.cls-2{fill:#f5d8d8;}.cls-3{clip-path:url(#clip-path);}.cls-4{fill:#c92b2b;}</style><clipPath id="clip-path"><rect id="SVGID" class="cls-1" x="22" y="22" width="39" height="39"/></clipPath></defs><title>gym</title><g id="Layer_2" data-name="Layer 2"><g id="Layer_1-2" data-name="Layer 1"><circle class="cls-2" cx="41.5" cy="41.5" r="41.5"/><g class="cls-3"><path class="cls-4" d="M60.32,34l-3.23-3.22,2.43-2.43a1.15,1.15,0,0,0,0-1.61l-3.25-3.25a1.17,1.17,0,0,0-1.61,0l-2.43,2.42L49,22.67a2.28,2.28,0,1,0-3.23,3.23L57.09,37.21A2.28,2.28,0,0,0,60.32,34Z"/><path class="cls-4" d="M37.22,57.1,25.91,45.79A2.28,2.28,0,0,0,22.68,49l3.23,3.23-2.42,2.41a1.14,1.14,0,0,0-.34.81,1.11,1.11,0,0,0,.34.81l3.24,3.24a1.14,1.14,0,0,0,.81.34,1.12,1.12,0,0,0,.81-.34l2.42-2.41L34,60.33a2.28,2.28,0,1,0,3.23-3.23Z"/><path class="cls-4" d="M42.54,35.6l-6.93,7,4.84,4.84,6.94-7Z"/><path class="cls-4" d="M57.09,40.44,42.54,25.9a2.28,2.28,0,1,0-3.23,3.23L53.85,43.68a2.29,2.29,0,0,0,3.24-3.24Z"/><path class="cls-4" d="M43.69,53.87,29.14,39.32a2.29,2.29,0,1,0-3.23,3.24L40.45,57.1a2.29,2.29,0,1,0,3.24-3.23Z"/></g></g></g></svg>