<?xml version="1.0" encoding="utf-8"?>
<!-- Generator: Adobe Illustrator 24.0.1, SVG Export Plug-In . SVG Version: 6.00 Build 0)  -->
<svg version="1.1" id="Layer_1" xmlns="http://www.w3.org/2000/svg" xmlns:xlink="http://www.w3.org/1999/xlink" x="0px" y="0px"
	 viewBox="0 0 218.1 318" style="enable-background:new 0 0 218.1 318;" xml:space="preserve" width="218.121px" height="318px">
<style type="text/css">
	.st0{fill:#D8E4F1;}
	.st1{fill:#9DBCDC;}
</style>
<g>
	<path class="st0" d="M218,1.3c-0.3-0.6-1.3-1-2.3-1.1c-3.4-0.1-6.9-0.2-10.3-0.2c-1.2,0-2,0.6-1.8,1.3c0.2,0.7,1.3,1.3,2.5,1.3
		c3.3,0,6.7,0.1,10,0.2c1.2,0,2.1-0.5,2-1.2C218.1,1.5,218.1,1.4,218,1.3z M197.7,1.3c-0.4-0.6-1.5-1.1-2.6-1.1
		c-3.3,0.1-6.7,0.3-10.1,0.6c-1.2,0.1-1.8,0.7-1.4,1.5c0.4,0.7,1.6,1.2,2.7,1.1c3.2-0.3,6.5-0.4,9.8-0.6c1.2,0,1.9-0.7,1.6-1.4
		C197.8,1.4,197.7,1.3,197.7,1.3z M178.1,2.8c-0.4-0.7-1.7-1.2-2.8-1c-3.2,0.4-6.5,0.8-9.6,1.3c-1.1,0.2-1.6,0.9-1.1,1.6
		c0.5,0.7,1.8,1.1,2.9,0.9c3.1-0.5,6.3-0.9,9.4-1.3C177.9,4.2,178.5,3.5,178.1,2.8z M159.3,5.8c0-0.1-0.1-0.1-0.1-0.2
		c-0.6-0.7-1.9-1.1-3-0.8c-3.1,0.6-6.1,1.3-9.1,2c-1,0.3-1.4,1-0.8,1.7c0.6,0.7,2,1,3,0.7c2.9-0.7,5.9-1.4,8.9-2
		C159.2,7.1,159.6,6.5,159.3,5.8z M141.6,10.2c-0.1-0.1-0.1-0.2-0.2-0.3c-0.7-0.7-2-0.9-3-0.6c-2.9,0.8-5.7,1.7-8.5,2.7
		c-1,0.3-1.1,1.1-0.4,1.8c0.7,0.6,2.1,0.9,3.1,0.5c2.7-0.9,5.5-1.8,8.3-2.6C141.6,11.3,141.9,10.7,141.6,10.2z M125.2,15.8
		c-0.1-0.1-0.2-0.3-0.4-0.4c-0.8-0.6-2.2-0.8-3.1-0.4c-2.6,1.1-5.2,2.2-7.7,3.3c-0.9,0.4-0.9,1.2,0,1.8c0.8,0.6,2.2,0.7,3.1,0.3
		c2.4-1.1,5-2.2,7.5-3.2C125.3,16.9,125.5,16.3,125.2,15.8z M110.5,22.7c-0.1-0.2-0.3-0.4-0.6-0.6c-0.9-0.6-2.3-0.7-3.1-0.2
		c-2.4,1.3-4.6,2.6-6.8,3.9c-0.8,0.5-0.6,1.3,0.3,1.8c0.9,0.5,2.3,0.6,3.1,0.1c2.1-1.3,4.3-2.6,6.6-3.8
		C110.6,23.6,110.7,23.1,110.5,22.7z M150,91.9c-0.2-0.4-0.4-0.7-0.7-1.1c-0.8-1.2-1.7-2.4-2.7-3.5c-0.6-0.7-2-1-3-0.8
		c-1.1,0.2-1.4,1-0.8,1.7c0.9,1,1.7,2.1,2.4,3.1c0.5,0.8,1,1.6,1.4,2.5c0.3,0.7,1.6,1.2,2.7,1.1c1.2-0.1,1.8-0.7,1.5-1.4
		C150.6,93,150.4,92.5,150,91.9z M152.5,99.6c-0.3-0.5-1.2-1-2.1-1.1c-1.2-0.1-2.2,0.4-2.1,1.1c0.1,1.9-0.2,3.8-0.9,5.6
		c-0.3,0.7,0.5,1.4,1.7,1.7c1.2,0.3,2.4,0,2.6-0.7c0.8-2,1.1-4.1,1-6.2C152.6,99.8,152.6,99.7,152.5,99.6z M140.6,82.2
		c-0.1-0.2-0.3-0.3-0.5-0.5c-2.5-1.8-5.3-3.4-8.5-4.8c-1-0.5-2.4-0.4-3,0.1c-0.6,0.5-0.3,1.4,0.7,1.8c2.8,1.3,5.4,2.7,7.6,4.3
		c0.8,0.6,2.2,0.7,3.1,0.3C140.7,83.2,140.9,82.7,140.6,82.2z M148.1,110.7c-0.2-0.3-0.5-0.6-1.1-0.8c-1.1-0.4-2.4-0.3-3,0.3
		c-1.5,1.6-3.3,2.9-5.5,4.1c-0.8,0.4-0.8,1.3,0.1,1.8s2.3,0.7,3.1,0.2c2.4-1.3,4.5-2.8,6.2-4.6C148.3,111.4,148.3,111.1,148.1,110.7
		z M123.3,74.2c-0.2-0.4-0.7-0.7-1.4-0.9c-3.3-1-6.8-1.8-10.5-2.4c-1.2-0.2-2.3,0.2-2.4,0.9c-0.1,0.7,0.7,1.4,1.9,1.6
		c3.3,0.6,6.6,1.3,9.6,2.2c1.2,0.3,2.4,0.1,2.8-0.5C123.5,74.8,123.4,74.5,123.3,74.2z M97.5,30.7c-0.2-0.3-0.4-0.5-0.8-0.7
		c-1-0.5-2.4-0.5-3.1,0c-2,1.5-3.9,3-5.7,4.5c-0.6,0.5-0.3,1.4,0.7,1.8c1,0.5,2.4,0.4,3-0.1c1.8-1.5,3.6-3,5.6-4.4
		C97.7,31.5,97.8,31.1,97.5,30.7z M134.4,118.1c-0.1-0.1-0.1-0.2-0.2-0.3c-0.6-0.7-2-1-3-0.7c-2.2,0.6-4.5,1-6.7,1.2
		c-0.7,0.1-1.4,0.1-2.1,0.2c-1.2,0.1-1.8,0.7-1.5,1.4c0.3,0.7,1.5,1.2,2.7,1.2c0.8-0.1,1.6-0.1,2.4-0.2c2.5-0.3,5.1-0.8,7.5-1.4
		C134.4,119.3,134.8,118.7,134.4,118.1z M86.8,39.8c-0.2-0.3-0.5-0.6-1-0.8c-1.1-0.4-2.4-0.3-3,0.2c-1.6,1.6-3.1,3.3-4.5,5
		c-0.5,0.6,0,1.4,1.1,1.8c1.1,0.4,2.4,0.2,2.9-0.4c1.3-1.7,2.8-3.3,4.4-4.9C87,40.6,87,40.2,86.8,39.8z M102.9,70.7
		c-0.3-0.5-1.2-1-2.2-1.1c-3.5-0.2-7-0.3-10.5-0.2c-1.2,0-1.9,0.6-1.7,1.3c0.2,0.7,1.4,1.3,2.6,1.2c3.3-0.1,6.6,0,9.9,0.2
		c1.2,0.1,2.1-0.4,2.1-1.1C103.1,71,103,70.8,102.9,70.7z M78.6,50c-0.2-0.4-0.7-0.7-1.3-0.9c-1.1-0.3-2.4-0.1-2.8,0.5
		c-1.1,1.8-2.2,3.7-3.1,5.5c-0.3,0.7,0.4,1.4,1.6,1.7c1.2,0.3,2.4,0,2.7-0.6c0.8-1.8,1.8-3.6,3-5.3C78.8,50.6,78.8,50.3,78.6,50z
		 M114.9,119.3c-0.3-0.5-1-0.9-2-1c-3.1-0.4-6.3-1.1-9.3-2.1c-1.1-0.4-2.4-0.2-2.8,0.4c-0.4,0.6,0.1,1.4,1.2,1.8
		c3.5,1.2,7.1,2,10.7,2.5c1.2,0.2,2.2-0.3,2.3-1C115,119.6,115,119.4,114.9,119.3z M82.9,71.2c-0.4-0.7-1.7-1.2-2.8-1
		c-3.3,0.4-6.6,1-9.6,1.7c-0.1,0-0.2,0.1-0.3,0.1c-0.2-0.1-0.5-0.1-0.8-0.2c-1.2-0.1-2.2,0.3-2.2,1c0,2,0,4.1,0.3,6.1
		c0.1,0.7,1.1,1.3,2.3,1.4c1.2,0.1,2.1-0.4,2-1.2c-0.2-1.6-0.3-3.2-0.3-4.8c0.4,0,0.8,0,1.1-0.1c2.8-0.7,5.8-1.2,9-1.6
		C82.7,72.5,83.3,71.9,82.9,71.2z M73.4,61.1c-0.3-0.4-0.9-0.8-1.7-1c-1.2-0.2-2.3,0.1-2.5,0.8c-0.6,1.9-1.1,3.9-1.4,5.9
		c-0.1,0.7,0.8,1.4,2,1.6c1.2,0.2,2.3-0.2,2.4-0.9c0.3-1.9,0.8-3.8,1.4-5.7C73.6,61.5,73.5,61.3,73.4,61.1z M95.9,113.1
		c-0.1-0.2-0.4-0.5-0.7-0.7c-2.5-1.4-4.9-2.9-7.2-4.6c-0.8-0.6-2.2-0.8-3.1-0.4c-0.9,0.4-1,1.2-0.2,1.8c2.4,1.9,5.1,3.6,7.9,5.1
		c1,0.5,2.3,0.5,3.1,0.1C96.1,114,96.2,113.5,95.9,113.1z M72.8,84.9c-0.3-0.6-1.3-1.1-2.4-1.1c-1.2,0-2,0.6-1.8,1.3
		c0.5,2.1,1.2,4.1,2,6.2c0.3,0.7,1.5,1.3,2.6,1.2c1.2,0,1.9-0.7,1.6-1.4c-0.8-2-1.4-4-1.9-6C72.9,85,72.9,84.9,72.8,84.9z
		 M82.4,102.8c0-0.1-0.1-0.2-0.2-0.2c-1.7-1.8-3.2-3.7-4.4-5.6c-0.4-0.7-1.7-1.2-2.8-1c-1.1,0.1-1.7,0.8-1.2,1.5
		c1.3,2.1,2.9,4.1,4.7,6c0.6,0.7,2,1,3,0.7C82.4,104,82.7,103.4,82.4,102.8z M64.9,75.2c-0.1-0.1-0.2-0.2-0.3-0.3
		c-0.7-0.6-2.1-0.9-3.1-0.6C58.8,75.1,56,76,53.3,77c-0.9,0.4-1.1,1.1-0.3,1.8c0.8,0.6,2.2,0.8,3.1,0.5c2.6-1,5.3-1.9,8.1-2.7
		C65,76.3,65.3,75.7,64.9,75.2z M49.1,81.1c-0.1-0.2-0.3-0.3-0.5-0.5c-0.8-0.6-2.2-0.8-3.1-0.4c-2.5,1.1-5,2.4-7.3,3.7
		c-0.8,0.4-0.7,1.3,0.2,1.8c0.9,0.6,2.3,0.7,3.1,0.2c2.2-1.2,4.6-2.4,7-3.5C49.2,82.1,49.3,81.6,49.1,81.1z M35.4,88.7
		c-0.1-0.2-0.4-0.5-0.7-0.7c-1-0.5-2.3-0.6-3.1-0.1c-2.1,1.4-4.1,2.9-6,4.4c-0.7,0.5-0.4,1.4,0.7,1.8c1,0.5,2.4,0.5,3-0.1
		c1.8-1.5,3.8-2.9,5.8-4.2C35.5,89.6,35.6,89.1,35.4,88.7z M24.2,97.6c-0.2-0.3-0.5-0.6-1-0.8c-1.1-0.4-2.4-0.3-3,0.2
		c-1.6,1.6-3.2,3.3-4.7,5c-0.5,0.6,0,1.4,1.1,1.8c1.1,0.4,2.4,0.3,2.9-0.3c1.4-1.7,2.9-3.3,4.5-4.8C24.4,98.4,24.4,98,24.2,97.6z
		 M15.7,107.7c-0.2-0.4-0.7-0.7-1.3-0.9c-1.1-0.4-2.4-0.2-2.8,0.5c-1.2,1.7-2.3,3.6-3.4,5.4c-0.4,0.6,0.3,1.4,1.5,1.7
		c1.2,0.3,2.4,0.1,2.7-0.6c1-1.8,2.1-3.6,3.3-5.3C15.9,108.3,15.9,108,15.7,107.7z M9.7,118.5c-0.2-0.4-0.8-0.8-1.5-1
		c-1.2-0.3-2.4,0-2.7,0.7c-0.8,1.9-1.5,3.8-2.2,5.7c-0.2,0.7,0.6,1.4,1.8,1.7c1.2,0.2,2.3-0.1,2.6-0.8c0.6-1.9,1.3-3.8,2.1-5.6
		C9.8,119,9.8,118.7,9.7,118.5z M6,129.9c-0.3-0.5-0.9-0.9-1.8-1c-1.2-0.2-2.3,0.2-2.5,0.9c-0.4,1.9-0.8,3.9-1.1,5.9
		c-0.1,0.7,0.8,1.4,2,1.6c1.2,0.2,2.3-0.2,2.4-0.9c0.3-2,0.6-3.9,1-5.8C6.1,130.3,6.1,130.1,6,129.9z M71.6,252.4
		c-0.1-0.2-0.3-0.3-0.5-0.5c-2.4-1.7-4.7-3.4-6.9-5.1c-0.8-0.6-2.2-0.8-3.1-0.4c-0.9,0.4-1,1.2-0.2,1.8c2.3,1.7,4.6,3.5,7,5.2
		c0.8,0.6,2.2,0.7,3.1,0.4C71.7,253.5,71.9,252.9,71.6,252.4z M4.4,141.7c-0.3-0.5-1.1-0.9-2-1c-1.2-0.1-2.2,0.3-2.3,1
		c-0.1,2-0.1,4-0.1,6c0,0.7,1,1.4,2.2,1.5c1.2,0.1,2.2-0.4,2.2-1.1c-0.1-2,0-4,0.1-5.9C4.5,142,4.5,141.8,4.4,141.7z M58,242.1
		c-0.1-0.1-0.2-0.3-0.3-0.4c-2.1-1.7-4.2-3.5-6.2-5.3c-0.7-0.6-2.1-0.9-3.1-0.6c-1,0.3-1.2,1.1-0.5,1.7c2,1.8,4.2,3.7,6.3,5.4
		c0.8,0.6,2.1,0.9,3.1,0.5C58.1,243.2,58.3,242.6,58,242.1z M4.7,153.7c-0.3-0.5-1.2-1-2.2-1.1c-1.2-0.1-2.1,0.4-2.1,1.1
		c0.2,2,0.5,4.1,0.8,6.1c0.1,0.7,1.2,1.3,2.4,1.4c1.2,0.1,2.1-0.5,2-1.2c-0.3-2-0.6-4-0.8-6C4.8,153.9,4.7,153.8,4.7,153.7z
		 M45.8,231.2c-0.1-0.1-0.1-0.2-0.2-0.3c-1.9-1.8-3.7-3.7-5.5-5.6c-0.6-0.7-2-1-3-0.7c-1,0.3-1.4,1-0.7,1.7c1.8,1.9,3.7,3.8,5.6,5.7
		c0.7,0.7,2,1,3,0.7C45.8,232.3,46.2,231.7,45.8,231.2z M6.7,165.8c-0.3-0.6-1.3-1-2.4-1.1c-1.2,0-2,0.5-1.9,1.3
		c0.5,2,1,4.1,1.6,6.1c0.2,0.7,1.4,1.3,2.6,1.3c1.2,0,2-0.6,1.8-1.3c-0.6-2-1.1-4-1.6-6C6.8,166,6.8,165.9,6.7,165.8z M35.2,219.8
		c0-0.1-0.1-0.1-0.1-0.2c-1.6-1.9-3.2-3.8-4.7-5.8c-0.5-0.7-1.8-1.1-2.9-0.9c-1.1,0.2-1.5,0.9-1,1.6c1.5,2,3.1,3.9,4.8,5.9
		c0.6,0.7,1.9,1,3,0.8C35.1,221.1,35.6,220.4,35.2,219.8z M10.4,178c-0.4-0.6-1.4-1.1-2.5-1.1c-1.2,0-1.9,0.6-1.7,1.4
		c0.7,2,1.6,4.1,2.4,6.1c0.3,0.7,1.5,1.2,2.7,1.2c1.2-0.1,1.9-0.7,1.6-1.4c-0.9-2-1.7-4-2.4-6C10.4,178.1,10.4,178.1,10.4,178z
		 M26.1,208.1C26.1,208.1,26.1,208.1,26.1,208.1c-0.8-1.2-1.5-2.2-2.2-3.3c-0.6-0.9-1.1-1.8-1.7-2.6c-0.4-0.7-1.7-1.2-2.8-1
		c-1.1,0.1-1.7,0.8-1.3,1.5c0.6,0.9,1.1,1.8,1.7,2.7c0.7,1.1,1.5,2.2,2.2,3.3c0.5,0.7,1.8,1.1,2.9,1C26,209.5,26.5,208.8,26.1,208.1
		z M15.5,190.2c-0.4-0.7-1.6-1.1-2.7-1.1c-1.2,0.1-1.8,0.7-1.5,1.4c1,2,2.1,4.1,3.2,6.1c0.3,0.7,1.6,1.2,2.8,1.1
		c1.1-0.1,1.8-0.8,1.4-1.5C17.6,194.2,16.6,192.2,15.5,190.2C15.6,190.2,15.6,190.2,15.5,190.2z"/>
	<path class="st0" d="M84.2,284.2c-0.1-0.2-0.3-0.4-0.5-0.5c-1.1-0.7-2.3-1.5-3.4-2.2c-0.8-0.5-2-0.7-2.8-0.3
		c-0.7,0.4-0.7,1.1,0.1,1.7c1.1,0.8,2.3,1.5,3.4,2.3c0.8,0.5,2,0.6,2.8,0.2C84.3,285,84.4,284.6,84.2,284.2z"/>
	<path class="st1" d="M87.2,238.8l10.4-3.5l36.2,82.9L87.2,238.8z"/>
	<path class="st1" d="M54.5,258.1l15.6-4.8l63.7,64.9L54.5,258.1z"/>
	<path class="st0" d="M54.5,258.1l-6.6,23.1l86,37L54.5,258.1z"/>
	<path class="st0" d="M59.6,242.6l10.6-34.2l63.7,109.8L59.6,242.6z"/>
</g>
</svg>
