<svg width="156" height="156" viewBox="0 0 156 156" fill="none" xmlns="http://www.w3.org/2000/svg">
<path d="M141.756 91.9402H151.454C153.967 91.9402 156 93.9735 156 96.4862V151.039C156 153.552 153.967 155.585 151.454 155.585H141.756C134.235 155.585 128.117 149.467 128.117 141.947V105.578C128.117 98.058 134.235 91.9402 141.756 91.9402Z" fill="white"/>
<path d="M2.17646 100.762C2.72199 99.853 3.44905 99.1254 4.26735 98.4889C7.61477 95.5606 13.2546 95.8373 16.5414 99.3984L37.1809 123.22L37.8173 123.947C40.3628 126.765 44 128.311 47.8184 128.311H83.0958C85.6419 128.311 87.6419 126.311 87.6419 123.765C87.6419 121.219 85.6419 119.219 83.0958 119.219H55.3648C50.3642 119.219 46.2727 115.128 46.2727 110.127V110.036C46.3636 105.036 50.3642 101.035 55.3648 101.035H71.8216C74.548 101.035 77.4696 100.034 79.8227 98.0343C90.9148 88.3057 107.099 87.6693 119.01 95.9434V151.86C110.009 154.315 100.735 155.588 91.37 155.588H50.8188C40.8177 155.588 31.3616 150.86 25.3608 142.859L3.53937 113.764C0.356209 109.585 0.116188 103.854 2.17646 100.762Z" fill="white"/>
<path d="M34.0726 9.20637C39.1148 3.53955 46.1045 0.418823 53.754 0.418823C62.2921 0.418823 69.6934 4.45603 75.1575 12.0937C75.5673 12.6662 75.9506 13.239 76.3098 13.8058C76.6686 13.2387 77.052 12.6662 77.4618 12.0937C82.9258 4.45603 90.3271 0.418823 98.8653 0.418823C106.515 0.418823 113.505 3.53955 118.546 9.20607C123.331 14.5838 125.967 21.7729 125.967 29.4494C125.967 37.7914 122.73 45.4891 115.78 53.6751C109.716 60.817 101.018 68.1583 90.9472 76.6588C87.2255 79.8001 83.3768 83.0485 79.2872 86.5929C78.4328 87.3333 77.3714 87.7036 76.3098 87.7036C75.2484 87.7036 74.1868 87.3333 73.3324 86.5929C69.2434 83.0491 65.3953 79.801 61.6736 76.6603C55.2054 71.2008 49.6195 66.4862 44.7722 61.9129C35.3609 53.0335 26.6525 42.9549 26.6525 29.4497C26.6525 21.7732 29.2877 14.5841 34.0726 9.20637Z" fill="white"/>
</svg>
